<?xml version="1.0" encoding="utf-8"?>
<!-- Generator: Adobe Illustrator 21.0.0, SVG Export Plug-In . SVG Version: 6.00 Build 0)  -->
<svg version="1.1" id="Layer_1" xmlns="http://www.w3.org/2000/svg" xmlns:xlink="http://www.w3.org/1999/xlink" x="0px" y="0px"
	 viewBox="0 0 278 395" style="enable-background:new 0 0 278 395;" xml:space="preserve">
<style type="text/css">
	
		.st0{fill:none;stroke:#000000;stroke-width:0.51;stroke-linecap:round;stroke-linejoin:round;stroke-miterlimit:10;stroke-dasharray:43.2,3.6,3.6,3.6;stroke-dashoffset:3;}
	.st1{fill:none;stroke:#000000;stroke-width:0.709;stroke-linecap:round;stroke-linejoin:round;stroke-miterlimit:10;}
</style>
<line class="st0" x1="100.4" y1="288.2" x2="100.4" y2="377.9"/>
<line class="st0" x1="44.7" y1="256" x2="44.7" y2="345.7"/>
<line class="st0" x1="212.6" y1="203.6" x2="212.6" y2="293.3"/>
<line class="st0" x1="170.2" y1="179" x2="170.2" y2="268.8"/>
<path class="st1" d="M242.3,285.6l-0.7,0.4 M167.4,239.3L167.4,239.3L167.4,239.3v-0.2 M167.4,239.1V239v-0.1l0.1-0.1l0.1-0.1
	l0.1-0.1h0.1h0.1 M126.8,49.7l-2.2-2.7l-1.9-2.8l-1.4-3l-1-3l-0.5-3l-0.1-3l0.4-2.9l0.9-2.7l0.5-1.2 M132.6,13.6l0.3-0.1l2-0.8
	l2.1-0.4l2.3,0.1l2.5,0.5l2.5,0.8l2.5,1.3 M165.2,95.6L165.2,95.6l-0.1-0.1l-0.1-0.2l-0.1-0.2v-0.2 M164.5,94.3v0.2l0.1,0.2l0.2,0.1
	l0.1,0.1 M164.9,88l-0.1-0.1l-0.2-0.2l-0.1-0.1v-0.2 M161,13.6l-2-0.8l-2.2-0.5l-2.3,0.1l-2.5,0.4l-2.6,0.9l-2.6,1.3 M225.1,60.2
	l2.6-1.3l2.6-0.9l2.5-0.4h2.3l2.2,0.4l2,0.8 M252.1,74.8h0.1v1.1l-0.4,1.3l-0.8,1.3l-1.3,1.4l-1.7,1.5l-2.1,1.5l-2.5,1.5
	 M47.2,297.3L47.2,297.3l-0.1-0.2V297 M31.6,311.9L31.6,311.9 M31.6,311.9L31.6,311.9 M31.5,312.1L31.5,312.1 M47.2,297.3l-3.4,5.8
	 M56.4,298.9l-4-2.3 M57.6,299h-0.1h-0.1 M46.9,305.2v-0.1H47V305h0.1h0.1 M47.7,304.8L47.7,304.8L47.7,304.8L47.7,304.8
	 M87.7,327.9v0.2l-0.1,0.2 M87.7,327.9v0.5 M97.3,336.9v-14.5 M103.3,325.4l-0.4-0.2 M53,296.4l-0.3-0.2 M103.8,353.6l-0.2-0.1
	l-0.3-0.1 M103.1,353.2l0.7,0.4 M113.4,348l-15.1-8.7 M97.7,322.8v15.1 M98.1,338.7l14.9,8.6 M87.6,328.4L87.6,328.4h-0.1l-0.1,0.1
	v0.1 M92.5,331.2L92.5,331.2h-0.1l-0.1,0.1l-0.1,0.1 M108.3,332.1v-0.3v-0.3 M97.9,338.1L97.9,338.1h-0.1v0.1h-0.1l-0.1,0.1
	 M103.1,353.2L103.1,353.2H103l-0.1,0.1h-0.1 M167.5,163.4l0.4-0.2 M167.1,161.7l0.8-0.3 M167.1,159.9l0.8-0.3 M167.1,158l0.8-0.3
	 M167.1,156.2l0.8-0.3 M167.1,154.4l0.8-0.3 M167.1,152.6l0.8-0.3 M167.1,150.8l0.8-0.3 M167.1,148.9l0.8-0.3 M167.1,147.1l0.8-0.3
	 M167.1,145.3l0.8-0.3 M173.1,143.3l-0.8-0.5 M172.2,142.8l-0.7,0.4l-1,0.2 M97.7,272.4l0.4-0.1 M97.4,270.7l0.7-0.2 M97.4,268.9
	l0.7-0.3 M97.4,267l0.7-0.2 M97.4,265.2l0.7-0.2 M97.4,263.4l0.7-0.2 M97.4,261.6l0.7-0.3 M97.4,259.7l0.7-0.2 M97.4,257.9l0.7-0.2
	 M97.4,256.1l0.7-0.2 M97.4,254.3l0.7-0.2 M103.3,252.5l-0.9-0.5 M102.4,252h-0.1l-0.8,0.4l-1,0.1 M41.5,129.3l0.7-0.4l1.1-0.3h1.3
	l1.3,0.2l1.3,0.5l1.4,0.7 M38.6,147.3l-1.6-2.1l-1.1-2.3l-0.6-2.3l-0.1-2.3l0.4-2.2l0.7-1.7 M48.6,130l2-1l1.8-0.4l1.8,0.1l1.5,0.6
	 M96.3,157.5l2-0.9l1.9-0.4l1.7,0.1l1.5,0.5 M105.3,169.1l1.8-1.1l1.4-1.1l0.9-1l0.4-0.9l-0.1-0.5 M135.6,208.7v-3.2 M132.6,206.9
	l-0.1-0.1l-0.2-0.1l-0.1-0.2l-0.1-0.1l-0.1-0.2l-0.1-0.2v-0.2v-0.2 M132.6,206.9l3.2,1.8 M120.6,213.9l12-7 M116.8,203.2l-2,1.9
	 M129.2,197.5v-0.1l2.7,0.1 M119.8,212.6l12.1-7 M131.9,205.6V201 M131.9,201v-3.5 M131.9,197.5l-3,0.9l-3.1,1.5l-3,2.1l-3,2.5
	 M120.6,213.9l5.3,3 M120.6,213.9l-0.2-0.1l-0.1-0.2l-0.1-0.1l-0.1-0.2l-0.1-0.2l-0.1-0.2l-0.1-0.1v-0.2 M119.8,212.6v-4.7
	 M119.8,204.5v3.4 M114.8,205.1l2.4-0.7l2.6,0.1 M114.8,205.1l2.5,1.4 M117.3,211.1v-4.6 M118.9,215.2l-0.1-0.1l-0.5-0.8l-0.4-0.8
	l-0.3-0.8l-0.2-0.8l-0.1-0.8 M116.4,221.8L116.4,221.8l0.2,1.6l0.5,1.6l0.8,1.5l1,1.5l1.4,1.4l1.6,1.3l1.8,1.2 M148.7,204.4
	l-1.8-0.3l-2.8-0.3l-2.7-0.1l-2.8,0.1 M138.6,203.8l-3,1.7 M138.5,207.2l-2.9-1.7 M124.6,217.7l6-3.4 M119.6,214.8l5,2.9
	 M119.6,214.8l-3,1.7 M116.6,216.5l-0.2,1.6l0.2,1.6l0.5,1.6l0.8,1.5l1,1.5l1.4,1.4l1.6,1.3l1.8,1.2 M174.1,232.4l-1.3-0.6l-1.5-0.3
	l-1.6-0.1l-1.6,0.2l-1.4,0.5l-0.6,0.3 M172.6,251.7v2.4 M172.8,221.8v3.6 M214.4,256.1l-0.6-0.1h-1.6l-1.6,0.2l-1.4,0.4l-0.6,0.3
	 M189.5,261.5v2.3 M213.1,249.7l-34.5-19.9 M178.6,234.7v0.3l-0.4,1.2l-0.8,1.1l-1.3,0.9l-1.6,0.7l-1.7,0.5 M161.6,232.9
	L161.6,232.9 M187.5,265l2-1.2 M146.8,241.5l4-2.3 M170.6,255.2l2-1.1 M259.9,279.9L259.9,279.9l0.4-0.3l0.3-0.5l0.2-0.6v-0.7
	 M166.1,232.4l1.3,0.6l1.5,0.3h1.6l1.6-0.2l1.4-0.4l1.1-0.7l0.8-0.8l0.4-0.9l-0.2-0.9l-0.5-0.9l-1-0.7l-1.3-0.6l-1.5-0.3l-1.6-0.1
	l-1.6,0.2l-1.4,0.5l-1.1,0.6l-0.8,0.8l-0.3,0.9l0.1,1l0.5,0.8L166.1,232.4 M165.8,225.8l1.9-0.4l2-0.2l2,0.1l2,0.3l1.7,0.6l1.4,0.9
	l1.1,1l0.6,1.1l0.1,1.2l-0.4,1.2l-0.8,1l-1.3,1l-1.6,0.7l-1.8,0.5l-2,0.2l-2.1-0.1l-1.9-0.3l-1.8-0.6l-1.4-0.9l-1.1-1l-0.6-1.1
	l-0.2-1.1l0.3-1.2l0.9-1.1 M172.8,221.8l-7,4 M215.3,246.3l-42.5-24.5 M214.4,259.4l-1.4,0.1l-2-0.1l-2-0.3l-1.7-0.7l-1.4-0.8
	l-1.1-1l-0.6-1.1l-0.1-1.2l0.4-1.2l0.8-1l1.3-1l1.6-0.7l1.8-0.5l2-0.2l2.1,0.1h0.3 M211.7,261.8l2.7-1.5 M162.8,227.6l-5.2,3
	 M159.8,203.9l-0.9,0.5 M130.7,225.3l-4-2.3 M126.7,223l-2,1.1 M213.7,263l0.7-0.4 M161.4,204.8l-1.6-0.9 M214.4,251.5l-0.6-0.1
	l-1.6-0.1l-1.6,0.2l-1.4,0.5l-1.1,0.7l-0.8,0.8l-0.4,0.9l0.2,0.9l0.5,0.9l1,0.7 M208.6,256.9l1.3,0.6l1.5,0.3l1.6,0.1l1.4-0.2
	 M224.9,280.4v3.9 M222.9,280.8l1.1-0.6 M123.7,231.9l100.2,57.8 M222.9,280.8v4.6 M200.9,268.1l22,12.7 M200.9,268.1v4.6
	 M187.5,265l13.4,7.7 M187.5,260.4v4.6 M177.1,254.4l10.4,6 M177.1,254.4v4.6 M170.6,255.2l6.5,3.8 M170.6,250.6v4.6 M160.1,244.6
	l10.5,6 M160.1,244.6v4.6 M146.8,241.5l13.3,7.7 M146.8,236.9v4.6 M124.7,224.1l22.1,12.8 M124.7,224.1v4.7 M123.7,228.2l1,0.6
	 M123.7,228.2v3.7 M242.3,284.4l-1.8,1 M260.8,276.6l3.8-2.1 M264.6,270.7v3.8 M232.5,293l8-4.7 M223.9,289.7l1,0.5l0.9,0.5l1.1,0.5
	l1,0.4l1.1,0.4l1.2,0.4l1.1,0.3l1.2,0.3 M232.5,289.3v3.7 M223.9,286v3.7 M222.9,285.4l2-1.1 M222.9,285.4l1,0.6 M223.9,286l1,0.5
	l0.9,0.5l1.1,0.5l1,0.4l1.1,0.4l1.2,0.4l1.1,0.3l1.2,0.3 M260.8,272.9l3.8-2.2 M232.5,289.3l9.8-5.7 M264.6,270.7l-0.5-0.6l-0.6-0.7
	l-0.6-0.7l-0.1-0.1 M244.8,287l16-9.2 M260.8,277.8v-7 M240.5,285.4v2.9 M241.6,288.9l-1.1-0.6 M241.6,288.9l0.6,0.3l0.6,0.1h0.6
	l0.5-0.2l0.4-0.3l0.3-0.5l0.1-0.6l0.1-0.7 M244.8,287v-10.4 M244.8,276.6l2,1.2 M242.3,275.2v-8.1 M242.3,285.6v-10.4 M241.6,286
	l0.1,0.1h0.1h0.2h0.1l0.1-0.1v-0.1l0.1-0.2v-0.1 M241.6,286l-1.1-0.6 M246.8,277.8l3.6-1l3.3-1.3l3.5-1.8l3-2.2l2.6-3 M262.8,268.5
	l-0.7-3l-1-2.8l-1.2-2.6l-1.6-2.3 M242.3,267.1l3.9-3.7l4.1-2.9l4.1-1.9l3.9-0.8 M246.8,277.8l-0.7-3.1l-1-2.8l-1.3-2.5l-1.5-2.3
	 M174.8,210.5v1.1 M172.1,200.7l-1,1.5 M129.7,221.2v1l0.5,2l1,1.9l1.4,1.8l1.9,1.7l2.2,1.5 M164.4,216.9l2-1.1 M136.7,231.1l4,2.3
	 M136.7,227.8v3.3 M140.7,233.4l1-0.6 M142.7,229v1.1 M140.7,230.1v3.3 M172.9,201.2l-6.3,3.6 M172.3,200.6l1,0.6 M172.3,200.6
	l-0.2,0.1 M172.1,200.7l0.8,0.5 M167,215.2l-0.2,0.3l-0.4,0.3 M166.4,215.8l0.1-0.2 M164.4,216.9l-0.3,0.2l-0.7-0.1l-0.7-0.2
	l-0.7-0.6l-0.3-0.5l-0.1-0.4l0.1-0.6l0.2-0.3 M164.5,216.8l-0.1,0.1 M160.8,208.4h0.3l0.2,0.1l0.3,0.2l0.2,0.3l0.4,0.8l0.3,0.8
	l0.1,2.1l-0.6,1.5l-0.1,0.2 M161.9,214.4l0.5-0.7 M166.6,204.8l-6,3.5 M160.6,208.3l0.3-0.1l0.3,0.1l0.3,0.2l0.3,0.3l0.4,0.8
	l0.3,0.8l0.3,1.8l-0.4,1.5 M162.4,213.7l-0.4,0.8l-0.3,0.6v0.3l0.1,0.4l0.4,0.4l0.7,0.5l0.8,0.3l0.6-0.1l0.2-0.1 M166.5,215.6
	l-2,1.2 M166.5,215.6l0.5-0.3l0.5-0.8l0.2-0.9v-1.1v-0.4v-0.4l0.5-1.1l0.2-0.4 M166.6,204.8l0.3-0.1l0.3,0.1l0.3,0.2l0.3,0.3
	l0.4,0.8l0.3,0.8l0.3,1.9l-0.4,1.4 M153.3,211.6l-8,12 M145.3,223.6v0.5 M160.6,208.3l0.2,0.1 M160.6,208.3l-6.3,3.6 M154.3,211.9
	l-0.8-0.5 M153.5,211.4l-0.2,0.2 M154.3,212.1l-1-0.5 M172.8,221.8l-15.2,8.8 M173.3,201.2v17.1 M173.3,201.2l-6.3,3.6 M160.8,208.4
	l-6.5,3.7 M154.3,212.1v17.2 M246,251.5v1.2 M215.3,246.3l-42.5-24.5 M172.8,218.6v3.2 M194.2,253.8L194.2,253.8L194.2,253.8H194
	l-0.1,0.1l-0.1,0.1v0.1l-0.1,0.1v0.2 M193.7,254.4L193.7,254.4l0.1,0.1 M195.7,257.5L195.7,257.5v0.1h0.1 M233.4,235.9l-6.5,3.7
	 M234.4,236.4l-1-0.5 M234.4,236.4l8,21.2 M234.2,236.6l0.2-0.2 M242.1,257.4l-7.9-20.8 M234.2,236.6l-0.8-0.5 M220.9,243.1
	l-0.3-0.3l-0.2-0.2l-0.3-0.1l-0.2,0.1l-0.4,0.3l-0.3,0.5v0.7 M221.1,243.2l-0.3-0.4l-0.3-0.3l-0.3-0.1h-0.3l-0.4,0.3l-0.3,0.4
	l-0.2,1.1 M227.1,239.7l-0.3-0.4l-0.3-0.2l-0.3-0.2H226l-0.3,0.2 M223.6,268.7v0.4 M141.7,234l70.2,40.5 M141.7,230.7v3.3
	 M211.9,274.5l1-0.6 M213.9,270.1v1.1 M211.9,271.2v3.3 M233.4,236.1v17.1 M233.4,236.1l-6.3,3.6 M227.1,239.7l-6,3.5 M214.8,246.9
	l0.8,0.4 M221.1,243.2l-6.3,3.7 M221.1,243.2l-0.2-0.1 M220.9,243.1l-6.5,3.8 M212.9,275l4,2.3 M212.9,271.8v3.2 M238.2,259.8
	l0.9,0.3l1.1,0.1l1-0.1l1-0.3l0.6-0.6l0.2-0.6l-0.2-0.6l-0.6-0.6l-1-0.3l-1-0.1l-1.1,0.1l-0.9,0.3l-0.7,0.6l-0.2,0.6l0.2,0.6
	L238.2,259.8 M232.1,260.9v7 M248.2,260.9v1.1 M240.2,265.5v7 M238.1,257.5l-6,3.4 M240.2,256.3l-2,1.1 M232.1,260.9l8.1,4.6
	 M240.2,265.5l8-4.6 M242.1,257.4l-1.9-1.1 M248.2,260.9l-6-3.4 M237.3,260.9l0.2,0.6l0.7,0.6 M238.2,262.1l0.9,0.3l1.1,0.2l1-0.2
	l1-0.3l0.6-0.6l0.2-0.6 M223.6,268.7l-0.2,0.1 M215.6,247.3l8,21.4 M215.4,247.4l0.2-0.1 M223.4,268.8v0.4 M223.4,268.8l-8-21.4
	 M214.4,246.9l1,0.5 M214.4,246.9V264 M216.9,277.3l2.6,1.3l2.9,1.1l3.1,0.8l3.3,0.6l3.4,0.3h3.5l3.4-0.3l3.2-0.5 M216.9,274.1v3.2
	 M165.1,239.8L165.1,239.8l0.1,0.1l0.1,0.1 M165.3,240l0.1,0.1h0.2h0.1l0.2-0.1l0.1-0.1v-0.1 M218.1,244.7l-45.3-26.1 M239.5,256.7
	l-6.1-3.5 M233.4,253.2l-12.8,7.4 M223.4,269.2l0.2-0.1 M214.4,264l9,5.2 M154.8,229l59.6,34.4 M154.8,229l-0.5,0.3 M154.3,229.3
	l-9-5.2 M173.3,218.3l-0.5,0.3 M165,205.7l-2.8-0.7l-3.3-0.6l-3.4-0.3h-3.4l-3.5,0.3l-3.2,0.6l-3.2,0.8l-2.9,1.1l-2.6,1.3l-2.2,1.5
	l-1.9,1.6l-1.4,1.8l-1,1.9l-0.5,2v2l0.5,1.9l1,1.9l1.4,1.9l1.9,1.6l2.2,1.5 M136.7,227.8l4,2.3 M140.7,230.1l2-1.1 M142.7,229l1,0.6
	 M143.7,229.6l-2,1.1 M141.7,230.7l70.2,40.5 M211.9,271.2l2-1.1 M213.9,270.1l1,0.5 M214.9,270.6l-2,1.2 M212.9,271.8l4,2.3
	 M255.7,258.3l-0.6-0.7l-1.9-1.7l-2.2-1.5 M216.9,274.1l2.6,1.3l2.9,1.1l3.1,0.8l3.3,0.6l3.4,0.2h3.5l3.4-0.2l3.2-0.6 M251,254.4
	l-4-2.3 M247,252.1l-2,1.2 M245,253.3l-1-0.6 M244,252.7l2-1.2 M225,239.4L175.8,211 M246,251.5l-7.5-4.3 M175.8,211l-2,1.2
	 M173.8,212.2l-0.5-0.3 M173.3,211.3l1.5-0.8 M174.8,210.5l-1.5-0.9 M232.1,267.9l8.1,4.6 M240.2,272.5l2.1-1.2 M195.8,257.6
	l0.1,0.1h0.2h0.2l0.1-0.1h0.1v-0.1v-0.1l-0.1-0.1 M117.8,67.7l-2.5-1.6l-2.2-1.8l-1.8-1.9l-1.5-1.9l-1-2.1l-0.6-2l-0.1-2.1l0.2-2.1
	l0.7-1.9l0.2-0.3 M164.9,94.9V88 M164.9,94.9l0.2,0.1l0.3,0.1h0.3l0.2,0.1l0.3-0.1h0.3l0.2-0.1l0.2-0.1 M166.9,88l-0.2,0.1l-0.2,0.1
	h-0.3h-0.3h-0.2h-0.3l-0.3-0.1l-0.2-0.1 M164.9,88v-0.3l0.1-0.2l0.1-0.3l0.1-0.2l0.2-0.2l0.1-0.3l0.2-0.1l0.2-0.2 M239.2,116.2
	l1.7-0.3l3.6-0.8l3.2-1.1l2.9-1.4 M259.8,106.3l-2.6-1.5 M244.2,97.6v4.9 M244.2,102.5l10.9,6.3 M166.3,95.7l47.8,27.6 M117.8,67.7
	l46.8,27 M165.2,86.2l0.2-0.1h0.1h0.2l0.2,0.1 M165.9,86.2l0.2,0.2l0.2,0.1l0.2,0.3l0.1,0.2l0.2,0.2l0.1,0.3v0.2V88 M166.9,94.9V88
	 M166.9,94.9v0.2v0.2l-0.1,0.2l-0.2,0.1 M126.8,49.7l-9,18 M250.6,112.6l2.4-1.7l1.9-1.9l1.5-2l0.8-2.2 M255.3,92.2l-1.6,0.4
	l-1.9,0.8l-2.3,1.1l-2.5,1.3 M259.8,106.3l-4.5-14.1 M252.8,113.8l2.4-1.6l2-1.8l1.6-2l1-2.1 M263.4,110.2l0.3,1.3l0.2,2.1l-0.3,2
	l-0.7,2l-1.1,1.9l-1.5,1.8l-1.9,1.6l-2.3,1.5 M205.1,95l-78.3-45.3 M146.8,15l78.3,45.2 M146.8,15l-2.6,1.7l-2.6,2.1l-2.5,2.4
	l-2.3,2.7l-2.2,3l-2,3.1l-1.7,3.3l-1.4,3.3l-1.2,3.4l-0.8,3.4l-0.6,3.2l-0.1,3.1 M205.1,95l0.2-3.2l0.5-3.2l0.8-3.4l1.2-3.4l1.4-3.3
	l1.8-3.3l1.9-3.1l2.2-3l2.4-2.7l2.4-2.4l2.6-2.1l2.6-1.7 M243.4,84.4l-1.2-3.3l-1.5-3.2l-1.7-3.2l-1.9-3l-2.2-2.9l-2.3-2.6l-2.4-2.3
	l-2.5-2l-2.6-1.7 M247,95.8l-2.7,1.7l-2.9,1.9l-3,2.1l-3.1,2.2 M243.4,84.4l3.6,11.4 M243.4,84.4l-2.8,1.5l-3,1.5l-3.3,1.4l-3.4,1.3
	l-3.5,1.2l-3.5,1l-3.5,0.9l-3.5,0.7l-3.3,0.6l-3.1,0.3l-2.9,0.2h-2.5 M214.1,123.3l-9-28.3 M256.1,124.4l-2.5,1.3l-2.9,1.1l-3.1,0.9
	l-3.3,0.6l-3.5,0.5l-3.5,0.1l-3.6-0.1l-3.6-0.3l-3.5-0.6l-3.4-0.8l-3.3-1.1l-3-1.2l-2.8-1.5 M252.8,113.8l3.3,10.6 M239.8,117.9
	l3.6-0.6l3.4-0.9l3.1-1.2l2.9-1.4 M235.3,103.7l4.5,14.2 M31.6,311.9h-0.1h-0.1l-0.1,0.1 M47.4,296.9l0.4-0.5l0.5-0.5l0.6-0.3
	l0.7-0.2h0.7l0.8,0.1l0.8,0.3l0.8,0.4 M47.1,297L47.1,297l0.1-0.1h0.1h0.1 M33.3,308.9l-0.3,0.2l-1,1.4l-0.4,1.4 M52.4,296.6
	l-0.8-0.4l-0.8-0.3l-0.8-0.1h-0.7l-0.6,0.2l-0.6,0.3l-0.5,0.4l-0.4,0.6 M52.4,296.6v-0.1v-0.1l0.1-0.1v-0.1h0.1h0.1 M33.3,321.2
	l-1.6-1.1l-1.2-1.2l-0.8-1.3l-0.4-1.4l0.1-1.3l0.5-1.1 M36.7,303.1l-5.2,9 M31.3,312v0.2h0.1l0.1-0.1 M31.3,312l0.5-1.5l1-1.3
	l0.7-0.6 M36.7,303.1L36.7,303.1V303 M42,302.4l-0.8-0.4l-0.8-0.3l-0.8-0.1h-0.7l-0.7,0.2l-0.6,0.3l-0.5,0.4l-0.4,0.6 M36.7,303.1
	l-0.1,1l0.1,1l0.1,0.9l0.3,1l0.4,1l0.5,1l0.6,0.9l0.7,0.9 M42,302.4l0.1-0.1l0.1-0.1h0.1 M47.6,304.8l0.5-0.8l0.6-0.7l0.6-0.6
	l0.6-0.6l0.6-0.6l0.6-0.5l0.7-0.5l0.6-0.4 M33.3,321.2l27.6,16 M39.3,310.8l-6,10.4 M60.9,337.2l0.5-0.3 M60.9,323.3v13.9
	 M61.4,336.9l6.6,3.8 M61.4,319.8v17.1 M97.7,322.8v-0.1h-0.1l-0.1-0.1l-0.1-0.1l-0.1-0.1 M113,347.3l0.1,0.2l0.1,0.2l0.1,0.2
	l0.1,0.1 M101.8,348.3h-0.4 M98.1,322.4H98h-0.1l-0.1,0.1v0.1l-0.1,0.1v0.1 M97.3,322L97.3,322v0.1l0.1,0.1v0.1h-0.1v0.1
	 M113.7,348.2L113.7,348.2l-0.2-0.2h-0.1 M102.9,325.2L102.9,325.2h-0.1l-0.1,0.1v0.1h-0.1v0.1v0.1 M102.9,325.2l0.9,0.5l0.8,0.7
	l0.7,0.8l0.8,0.8l0.6,1l0.6,1l0.6,1l0.4,1.1 M97.3,322.4l-0.5-0.2h-0.6h-0.5l-0.6,0.1l-0.7,0.1l-0.6,0.2l-0.6,0.3l-0.7,0.3
	 M92.3,322.9h0.1v0.1h0.1v0.1v0.1 M87.7,327.9L87.7,327.9L87.7,327.9l-0.1-0.1h-0.1l-0.1-0.1 M92.5,323.2l-0.6,0.4l-0.7,0.5
	l-0.6,0.5l-0.6,0.6l-0.6,0.6l-0.6,0.7l-0.6,0.7l-0.5,0.7 M57.6,299.1L57.6,299.1V299 M57.6,299.1L57,299l-0.5-0.1h-0.6l-0.7,0.1
	l-0.6,0.1l-0.6,0.2l-0.7,0.3l-0.7,0.4 M92.3,322.9l0.7-0.4l0.6-0.2l0.7-0.3l0.6-0.1l0.6-0.1h0.6l0.6,0.1l0.6,0.1 M98.1,322.4H98
	l-0.1-0.1l-0.2-0.1l-0.3-0.1l-0.1-0.1 M98.1,322.4l4.8,2.8 M52.7,296.2l4.9,2.8 M108.3,332.1L108.3,332.1l-0.1,0.1h-0.1l-0.1,0.1
	h-0.1h-0.1 M113.5,347.1L113.5,347.1l-0.1,0.1l-0.1,0.1h-0.1h-0.1H113 M101.4,348.4l0.5-0.1l1.2-0.4l0.9-0.6l0.5-0.8l0.1-0.8
	l-0.4-0.7l-0.9-0.7 M103.3,344.3l-1.1-0.5l-1.3-0.2h-1.1 M110.4,351.9l1.5-1.1l1-1.3l0.5-1.5 M103.8,353.6L103.8,353.6L103.8,353.6
	v0.2v0.1 M110.4,351.9h0.1v0.1h0.1v0.1 M103.8,353.6l2.5-0.3l2.2-0.6l1.9-0.8 M113,347.3l-5.2-15 M107.8,332.3l-0.4-1l-0.5-1.1
	l-0.6-0.9l-0.6-1l-0.8-0.8l-0.7-0.8l-0.8-0.6l-0.8-0.5 M102.6,325.6l-4.9-2.8 M68,341.2v-13.9 M68,341.2l27.6,16 M68,327.3v-0.4
	v-0.4v-0.4l0.1-0.5l0.1-0.4v-0.5l0.1-0.4l0.2-0.5 M89.6,339.8L68,327.3 M92.2,331.4l-4.8-2.8 M87.4,327.7l-0.1,0.2l-0.1,0.3v0.2
	l0.1,0.1l0.1,0.1 M87.4,327.7l0.5-0.8l0.6-0.7l0.6-0.7l0.6-0.6l0.6-0.6l0.7-0.5l0.7-0.5l0.6-0.4 M52.6,300l39.7,22.9 M52.6,300
	l-0.6,0.4l-0.7,0.5l-0.6,0.5L50,302l-0.6,0.6l-0.6,0.7l-0.6,0.7l-0.5,0.8 M46.9,305.2L46.9,305.2h0.2h0.2l0.2-0.2l0.2-0.2
	 M46.9,305.2l-4.9-2.8 M42,302.4l-0.6,1l-0.5,1.1l-0.5,1.1l-0.4,1l-0.3,1.1l-0.2,1.1l-0.1,1l-0.1,1 M60.9,323.3l-21.6-12.5
	 M61.4,319.8l-0.1,0.4l-0.1,0.5l-0.1,0.4v0.5L61,322v0.5v0.4l-0.1,0.4 M68.5,323.8l-7.1-4 M92.6,331.4l0.8,0.5l0.8,0.6l0.7,0.8
	l0.7,0.8l0.7,0.9l0.6,1l0.5,1l0.4,1.1 M92.6,331.4v-0.1l-0.1-0.1 M113.7,348.2V348l-0.1-0.3v-0.3l-0.1-0.3 M113.7,348.2l-0.5,1.4
	l-1,1.4l-1.6,1.1 M115.4,351.9l0.2,1l-0.1,1.4l-0.6,1.3l-0.9,1.1l-1.4,1 M108.3,332.1l5.2,15 M97.8,338.1L97.8,338.1h0.1
	 M103.1,353.1L103.1,353.1 M97.6,338.3l-0.4-1.1l-0.5-1l-0.6-1l-0.7-1l-0.8-0.8l-0.7-0.8l-0.8-0.7l-0.9-0.5 M92.2,331.4l-0.6,1
	l-0.5,1.1l-0.5,1l-0.3,1.1l-0.3,1.1l-0.3,1.1l-0.1,1v1 M110.6,352.1l2,5.6 M110.6,352.1l-2,0.9l-2.3,0.6l-2.5,0.3 M102.8,353.3v0.1
	l0.1,0.1l0.3,0.2l0.3,0.1l0.3,0.1 M102.8,353.3l-5.2-15 M89.6,339.8h0.8l0.8-0.1l1-0.1l1-0.2l1-0.2l1.1-0.3l1.2-0.3l1.1-0.3
	 M95.6,357.2l-6-17.4 M112.6,357.7l-1.8,0.8l-2,0.6l-2.2,0.3l-2.3,0.1l-2.4-0.2l-2.3-0.5l-2.1-0.7l-1.9-0.9 M172.8,163.8l-0.3,0.5
	l-0.7,0.5l-0.8,0.4l-1,0.1h-0.8l-0.7-0.1l-0.5-0.3l-0.1-0.2 M168.2,165l-0.1,0.3l0.2,0.3l0.4,0.2l0.6,0.2h0.6l0.8-0.1l0.6-0.2
	l0.6-0.4l0.4-0.4l0.2-0.6h-0.1 M169.8,168.3v0.1l0.1,0.1h0.1 M170,168.5h0.2h0.1l0.1-0.1l0.1-0.1 M167.5,163.4l-0.1,0.4l0.2,0.4
	l0.5,0.4l0.7,0.2l0.9,0.2l1-0.1l0.9-0.3l0.8-0.4l0.5-0.6l0.3-0.6v-0.2 M170.2,138l-0.1-1.4 M171.7,164.8v0.1l-0.6,0.5l-0.6,0.2
	l-0.8,0.1H169l-0.5-0.2l-0.2-0.3 M171.6,163.2l-0.5,0.3l-0.6,0.3l-0.8,0.1H169l-0.5-0.2l-0.2-0.3v-0.2 M171.6,161.3l-0.5,0.4
	l-0.6,0.3l-0.8,0.1L169,162l-0.5-0.1l-0.2-0.3v-0.2 M171.6,159.5l-0.5,0.4l-0.6,0.3l-0.8,0.1l-0.7-0.1l-0.5-0.2l-0.2-0.2v-0.2
	 M171.6,157.7l-0.5,0.4l-0.6,0.2l-0.8,0.1H169l-0.5-0.2l-0.2-0.3v-0.1 M171.6,155.9l-0.5,0.3l-0.6,0.3l-0.8,0.1H169l-0.5-0.2
	l-0.2-0.3V156 M171.6,154l-0.5,0.4l-0.6,0.3l-0.8,0.1H169l-0.5-0.2l-0.2-0.3v-0.2 M171.6,152.2l-0.5,0.4l-0.6,0.3l-0.8,0.1l-0.7-0.1
	l-0.5-0.2l-0.2-0.2v-0.2 M171.6,150.4l-0.5,0.4l-0.6,0.2l-0.8,0.2l-0.7-0.1l-0.5-0.2l-0.2-0.3v-0.1 M171.6,148.6l-0.5,0.4l-0.6,0.2
	l-0.8,0.1H169l-0.5-0.2l-0.2-0.3v-0.1 M171.6,146.8l-0.5,0.3l-0.6,0.3l-0.8,0.1H169l-0.5-0.2l-0.2-0.3v-0.2 M170,138.6l-0.2-1.1
	 M171.1,138.7l0.2-1 M168,139.2v-1 M169.3,139.2l-0.1-1.1 M171.4,139.4l0.1-1.1 M166.9,139l-0.4-1 M172.4,139.6l0.1-0.9
	 M168.4,143.4l0.8,0.1h0.9l0.4-0.1 M168.2,143.3v0.1l0.3,0.3l0.4,0.2l0.6,0.1h0.7l0.7-0.2l0.6-0.3l0.5-0.4l0.1-0.2 M171.6,144.9
	l-0.5,0.4l-0.6,0.3l-0.8,0.1l-0.7-0.1l-0.5-0.1l-0.2-0.3V145 M173.5,139.8l0.5-0.9 M173.1,143.1v0.4 M168.4,143.4l-0.9-0.4l-0.4-0.5
	v-0.3 M167.1,142.2v0.2l0.1,0.2l0.2,0.1l0.1,0.2l0.2,0.1l0.2,0.2l0.2,0.1l0.3,0.1 M173.1,142.9v0.4 M173,142.2l0.1,0.3 M172.9,143.9
	l0.2,0.4l0.1,0.6l-0.2,0.6l-0.5,0.5l-0.7,0.5l-0.8,0.3l-0.9,0.1h-0.9l-0.8-0.1l-0.7-0.3l-0.5-0.3l-0.2-0.5l0.1-0.4 M173.1,143.3
	l-0.2,0.5l-0.4,0.4l-0.6,0.4l-0.9,0.3l-1.1,0.2h-0.7l-0.6-0.1l-0.6-0.2l-0.5-0.2l-0.4-0.4l-0.1-0.4l0.1-0.5l0.4-0.3 M172.9,145.7
	l0.2,0.4v0.8l-0.4,0.8l-0.9,0.6l-1.1,0.4l-1.2,0.1l-1.1-0.2l-0.9-0.4l-0.4-0.5v-0.3 M167.1,145.3l0.4-0.5 M172.9,147.5l0.2,0.4v0.8
	l-0.4,0.8l-0.9,0.6l-1.1,0.4l-1.2,0.1l-1.1-0.2l-0.9-0.3l-0.4-0.6v-0.3 M167.1,147.1l0.4-0.5 M172.9,149.3l0.2,0.5v0.8l-0.4,0.7
	l-0.9,0.6l-1.1,0.4l-1.2,0.1l-1.1-0.1l-0.9-0.4l-0.4-0.6v-0.2 M167.1,148.9l0.4-0.5 M172.9,151.2l0.2,0.4v0.8l-0.4,0.7l-0.9,0.6
	l-1.1,0.4l-1.2,0.1l-1.1-0.1l-0.9-0.4l-0.4-0.5v-0.3 M167.1,150.8l0.4-0.5 M172.9,153l0.2,0.4v0.8l-0.4,0.8l-0.9,0.6l-1.1,0.3
	l-1.2,0.2l-1.1-0.2l-0.9-0.4l-0.4-0.5v-0.3 M167.1,152.6l0.4-0.5 M172.9,154.8l0.2,0.4v0.8l-0.4,0.8l-0.9,0.6l-1.1,0.4l-1.2,0.1
	l-1.1-0.2l-0.9-0.4l-0.4-0.5v-0.3 M167.1,154.4l0.4-0.5 M172.9,156.6l0.2,0.4v0.9l-0.4,0.7l-0.9,0.6l-1.1,0.4l-1.2,0.1l-1.1-0.2
	l-0.9-0.3l-0.4-0.6v-0.3 M167.1,156.2l0.4-0.5 M172.9,158.5l0.2,0.4v0.8l-0.4,0.7l-0.9,0.6l-1.1,0.4l-1.2,0.1l-1.1-0.1l-0.9-0.4
	l-0.4-0.5v-0.3 M167.1,158l0.4-0.4 M172.9,160.3l0.2,0.4v0.8l-0.4,0.8l-0.9,0.6l-1.1,0.3l-1.2,0.1l-1.1-0.1l-0.9-0.4l-0.4-0.5V162
	 M167.1,159.9l0.4-0.5 M172.9,162.1l0.2,0.4l0.1,0.3 M167.1,161.7l0.4-0.5 M173.1,161.3v0.4l-0.4,0.8l-0.9,0.6l-1.1,0.4l-1.2,0.1
	l-1.1-0.2l-0.9-0.4l-0.4-0.5v-0.3 M173.1,159.5v0.4l-0.4,0.8l-0.9,0.6l-1.1,0.3l-1.2,0.2l-1.1-0.2l-0.9-0.4l-0.4-0.5v-0.3
	 M173.1,157.7v0.4l-0.4,0.7l-0.9,0.7l-1.1,0.3l-1.2,0.1l-1.1-0.1l-0.9-0.4l-0.4-0.5v-0.3 M173.1,155.8v0.5l-0.4,0.7l-0.9,0.6
	l-1.1,0.4l-1.2,0.1l-1.1-0.1l-0.9-0.4l-0.4-0.6v-0.2 M173.1,154v0.4l-0.4,0.8l-0.9,0.6l-1.1,0.4l-1.2,0.1l-1.1-0.2l-0.9-0.4
	l-0.4-0.5v-0.3 M173.1,152.2v0.4l-0.4,0.8l-0.9,0.6l-1.1,0.3l-1.2,0.2l-1.1-0.2l-0.9-0.4l-0.4-0.5v-0.3 M173.1,150.4v0.4l-0.4,0.7
	l-0.9,0.7l-1.1,0.3l-1.2,0.1l-1.1-0.1l-0.9-0.4l-0.4-0.5v-0.3 M173.1,148.6v0.4l-0.4,0.7l-0.9,0.6l-1.1,0.4l-1.2,0.1l-1.1-0.1
	l-0.9-0.4l-0.4-0.6v-0.2 M173.1,146.7v0.4l-0.4,0.8l-0.9,0.6l-1.1,0.4l-1.2,0.1l-1.1-0.2l-0.9-0.3l-0.4-0.6v-0.3 M173.1,144.9v0.4
	l-0.4,0.8l-0.9,0.6l-1.1,0.4l-1.2,0.1l-1.1-0.2l-0.9-0.4l-0.4-0.5v-0.3 M173.1,143.5l-0.4,0.8l-0.9,0.6l-1.1,0.3l-1.2,0.1l-1.1-0.1
	l-0.9-0.4l-0.4-0.5V144 M171.9,139.6l-0.5-0.2 M171.4,139.4l-0.3-0.7 M171.2,138.1L171.2,138.1H171l-0.1-0.1h-0.1h-0.2h-0.1h-0.1
	h-0.2 M170.2,138l-0.2,0.6 M170,138.6l-0.7,0.6 M169.3,139.2l-1,0.1 M169.1,141.1l-0.2-1 M170.5,143.4h-0.8l-0.7-0.1l-0.6-0.3
	l-0.4-0.2 M174,138.9l-1.5-0.2 M173.7,139.8l0.1-0.1v-0.1l0.1-0.1v-0.2v-0.1l0.1-0.1V139v-0.1 M172.2,139.6l1.5,0.2 M171.1,139.7
	l1.1-0.1 M170.4,140.3l0.7-0.6 M170.1,141.1l0.3-0.8 M168.6,141h0.2h0.1l0.2,0.1h0.2h0.2h0.2h0.2h0.2 M168.9,140.1l-0.3,0.9
	 M168.7,139.4l0.2,0.7 M167.7,139.1l1,0.3 M166.2,138.9l1.5,0.2 M166.5,138v0.1l-0.1,0.1l-0.1,0.1v0.1v0.2l-0.1,0.1v0.1v0.1
	 M168,138.2l-1.5-0.2 M169.2,138.1l-1.2,0.1 M169.8,137.5l-0.6,0.6 M170.1,136.6l-0.3,0.9 M171.6,136.8h-0.2l-0.1-0.1h-0.2h-0.2
	h-0.2h-0.2l-0.2-0.1h-0.2 M171.3,137.7l0.3-0.9 M171.5,138.3l-0.2-0.6 M172.5,138.7l-1-0.4 M175.8,139.6l-0.5,0.9l-1,0.7l-1.3,0.6
	l-1.6,0.4l-1.6,0.1l-1.7-0.2l-1.4-0.5l-1.2-0.7l-0.8-0.8l-0.4-0.9l0.1-1l0.6-0.9l0.9-0.8l1.3-0.5l1.6-0.4l1.6-0.1l1.7,0.2l1.4,0.5
	l1.2,0.6l0.8,0.9l0.4,0.9L175.8,139.6 M211.2,190.5l0.1-0.1 M215.2,188.7l-0.5,0.5l-0.6,0.5l-0.8,0.3l-0.9,0.1h-0.8l-0.6-0.2
	 M210.2,188l-0.2,0.2v0.4l0.3,0.5l0.4,0.2 M211.2,190.5l0.6,0.2h0.6l0.7-0.1l0.6-0.2l0.6-0.4l0.4-0.4l0.1-0.5 M210.8,190.1l0.2,0.3
	l0.2,0.1 M211,189.9l-0.4-0.2l-0.1-0.1 M212.3,192.9L212.3,192.9v0.1h0.2h0.1h0.1h0.2 M212.9,193v-0.1 M210.7,189.3l0.6-0.7
	 M210.7,189.3l0.6,0.2l0.9,0.1h0.9l0.9-0.2l0.8-0.5l0.5-0.5l0.3-0.6l-0.1-0.7l-0.1-0.1 M210.4,187.8l0.9-1 M210.4,186l0.9-1
	 M210.4,184.2l0.9-1.1 M210.4,182.4l0.9-1.1 M210.4,180.6l0.9-1.1 M210.4,178.7l0.9-1 M210.4,176.9l0.9-1.1 M210.4,175.1l0.9-1.1
	 M214.5,162.9l0.2-1.3 M210.7,162.9l-0.2-1.3 M213.8,163.3l-0.1-1.1 M211.4,163.3l0.1-1.1 M212.6,163.6v-1.2 M210.7,189.8v0.1
	l0.1,0.2 M211.3,190.4L211.3,190.4l-0.3-0.1l-0.2-0.2 M214.3,189.5l-0.4,0.5l-0.6,0.3l-0.7,0.2l-0.7,0.1l-0.6-0.2 M214.1,188
	l-0.2,0.2l-0.6,0.3l-0.7,0.2h-0.7l-0.6-0.1 M214.1,186.1l-0.2,0.2l-0.6,0.4l-0.7,0.2h-0.7l-0.6-0.1 M214.1,184.3l-0.2,0.2l-0.6,0.4
	l-0.7,0.1l-0.7,0.1l-0.6-0.1 M214.1,182.5l-0.2,0.2l-0.6,0.3l-0.7,0.2l-0.7,0.1l-0.6-0.2 M214.1,180.7l-0.2,0.2l-0.6,0.3l-0.7,0.2
	h-0.7l-0.6-0.1 M214.1,178.9l-0.2,0.1l-0.6,0.4l-0.7,0.2h-0.7l-0.6-0.1 M214.1,177l-0.2,0.2l-0.6,0.4l-0.7,0.2h-0.7l-0.6-0.1
	 M214.1,175.2l-0.2,0.2l-0.6,0.3l-0.7,0.2l-0.7,0.1l-0.6-0.2 M214.1,173.4l-0.2,0.2l-0.6,0.3l-0.7,0.2h-0.7l-0.6-0.1 M214.1,171.6
	l-0.2,0.1l-0.6,0.4l-0.7,0.2h-0.7l-0.6-0.1 M210.4,173.3l0.9-1.1 M214.1,164.4l0.2-1 M211.1,164.4l-0.2-1 M213.8,168.1l0.6-0.3
	l0.5-0.5l0.1-0.2 M210.3,167.2l0.2,0.3l0.5,0.4l0.4,0.2 M210.7,168.1v0.1l0.3,0.2l0.4,0.2l0.6,0.1h0.6l0.7-0.1l0.6-0.3l0.4-0.4
	l0.3-0.3 M214.1,169.7l-0.2,0.2l-0.6,0.4l-0.7,0.2h-0.7l-0.6-0.1 M210.4,171.4l0.9-1 M213.8,168.1l-1.2,0.2h-1.2l-1-0.3l-0.7-0.4
	l-0.2-0.6 M211.4,168.1h0.3l0.3,0.1h0.3h0.3h0.3h0.3l0.3-0.1h0.3 M211.4,168.1l-1-0.3l-0.7-0.5l-0.2-0.5 M215.4,168.7l0.2,0.2
	l0.1,0.6l-0.1,0.6l-0.4,0.6l-0.6,0.4l-0.8,0.4l-0.9,0.2l-0.9,0.1l-0.9-0.1l-0.7-0.3 M215.4,166.8l0.2,0.2l0.1,0.6l-0.1,0.7L215,169
	l-0.4,0.3l-0.6,0.3l-0.6,0.2l-0.8,0.1h-0.9l-0.8-0.1l-0.7-0.3l-0.5-0.3l-0.2-0.5l0.1-0.4l0.3-0.4l0.1-0.1 M215.5,170.5L215.5,170.5
	l0.2,0.8l-0.2,0.8l-0.7,0.7l-1,0.5l-1.2,0.3l-1.2-0.1l-1-0.2 M210.4,171.4l-0.7-0.4l-0.2-0.6l0.2-0.6l0.4-0.2 M215.5,172.3
	L215.5,172.3l0.2,0.8l-0.2,0.8l-0.7,0.7l-1,0.5l-1.2,0.3h-1.2l-1-0.3 M210.4,173.3l-0.7-0.5l-0.2-0.6l0.2-0.5l0.5-0.4 M215.5,174.2
	L215.5,174.2l0.2,0.8l-0.2,0.8l-0.7,0.7l-1,0.5l-1.2,0.2h-1.2l-1-0.3 M210.4,175.1l-0.7-0.5l-0.2-0.5l0.2-0.6l0.5-0.3 M215.5,176
	L215.5,176l0.2,0.8l-0.2,0.8l-0.7,0.7l-1,0.5l-1.2,0.2h-1.2l-1-0.3 M210.4,176.9l-0.7-0.5l-0.2-0.5l0.2-0.6l0.5-0.3 M215.5,177.8
	L215.5,177.8l0.2,0.8l-0.2,0.8l-0.7,0.7l-1,0.5l-1.2,0.3l-1.2-0.1l-1-0.2 M210.4,178.7l-0.7-0.4l-0.2-0.6l0.2-0.6l0.5-0.3
	 M215.5,179.6L215.5,179.6l0.2,0.8l-0.2,0.8l-0.7,0.7l-1,0.5l-1.2,0.3h-1.2l-1-0.3 M210.4,180.6l-0.7-0.5l-0.2-0.6l0.2-0.5l0.5-0.4
	 M215.5,181.5L215.5,181.5l0.2,0.8l-0.2,0.8l-0.7,0.6l-1,0.5l-1.2,0.3h-1.2l-1-0.3 M210.4,182.4l-0.7-0.5l-0.2-0.6l0.2-0.5l0.5-0.4
	 M215.5,183.3L215.5,183.3l0.2,0.8l-0.2,0.8l-0.7,0.7l-1,0.5l-1.2,0.2h-1.2l-1-0.3 M210.4,184.2l-0.7-0.5l-0.2-0.5l0.2-0.6l0.5-0.3
	 M215.5,185.1L215.5,185.1l0.2,0.8l-0.2,0.8l-0.7,0.7l-1,0.5l-1.2,0.2h-1.2l-1-0.3 M210.4,186l-0.7-0.4l-0.2-0.6l0.2-0.6l0.5-0.3
	 M210.4,187.8l-0.7-0.4l-0.2-0.6l0.2-0.6l0.5-0.3 M210.4,188.1L210.4,188.1l-0.7-0.5l-0.2-0.6 M215.7,186.1L215.7,186.1l-0.2,0.8
	l-0.7,0.7l-1,0.5l-1.2,0.3l-1.2-0.1l-1-0.2 M210.4,186.3L210.4,186.3l-0.7-0.5l-0.2-0.6 M215.7,184.3L215.7,184.3l-0.2,0.8l-0.7,0.7
	l-1,0.5l-1.2,0.2h-1.2l-1-0.2 M210.4,184.4L210.4,184.4l-0.7-0.4l-0.2-0.6 M215.7,182.5L215.7,182.5l-0.2,0.8l-0.7,0.7l-1,0.5
	l-1.2,0.2h-1.2l-1-0.3 M210.4,182.6L210.4,182.6l-0.7-0.5l-0.2-0.5 M215.7,180.7L215.7,180.7l-0.2,0.7l-0.7,0.8l-1,0.5l-1.2,0.2
	h-1.2l-1-0.3 M210.4,180.8L210.4,180.8l-0.7-0.5l-0.2-0.5 M215.7,178.8L215.7,178.8l-0.2,0.8l-0.7,0.7l-1,0.5l-1.2,0.3h-1.2l-1-0.3
	 M210.4,179L210.4,179l-0.7-0.5l-0.2-0.6 M215.7,177L215.7,177l-0.2,0.8l-0.7,0.7l-1,0.5l-1.2,0.3l-1.2-0.1l-1-0.2 M210.4,177.1
	L210.4,177.1l-0.7-0.4l-0.2-0.6 M215.7,175.2L215.7,175.2l-0.2,0.8l-0.7,0.7l-1,0.5l-1.2,0.2h-1.2l-1-0.3 M210.4,175.3L210.4,175.3
	l-0.7-0.4l-0.2-0.6 M215.7,173.4L215.7,173.4l-0.2,0.8l-0.7,0.7l-1,0.5l-1.2,0.2h-1.2l-1-0.3 M210.4,173.5L210.4,173.5l-0.7-0.5
	l-0.2-0.5 M215.7,171.5v0.1l-0.2,0.7l-0.7,0.7l-1,0.5l-1.2,0.3h-1.2l-1-0.3 M210.4,171.7L210.4,171.7l-0.7-0.5l-0.2-0.6
	 M215.7,169.7L215.7,169.7l-0.2,0.8l-0.7,0.7l-1,0.5l-1.2,0.3l-1.2-0.1l-1-0.2 M215.7,167.9L215.7,167.9l-0.2,0.8l-0.7,0.7l-1,0.5
	l-1.2,0.2h-1.2l-1-0.3l-0.7-0.4l-0.2-0.6 M214.6,165.1l0.2-1.1 M210.6,165.1l-0.2-1.1 M214.7,162.9L214.7,162.9h-0.2 M214.5,162.9
	l-0.7,0.4 M213.8,163.3l-1.2,0.3 M212.6,163.6l-1.2-0.3 M211.4,163.3l-0.7-0.4 M210.7,162.9L210.7,162.9h-0.2 M211.1,164.4l-0.5,0.7
	 M210.6,165.1l-0.2,0.2 M214.8,165.3l-0.2-0.2 M214.6,165.1l-0.5-0.7 M214.7,167.4L214.7,167.4l-0.7,0.3l-0.7,0.2h-0.7h-0.8
	l-0.6-0.2l-0.6-0.3h-0.1 M214.7,161.6l-1,0.6 M215.8,162.2l-0.1-0.1l-0.1-0.1l-0.1-0.1l-0.2-0.1h-0.1l-0.1-0.1l-0.2-0.1h-0.2
	 M214.8,162.8l1-0.6 M214.3,163.4l0.5-0.6 M214.8,164l-0.5-0.6 M215.8,164.7l-1-0.7 M214.7,165.3l0.2-0.1h0.2l0.1-0.1l0.1-0.1
	l0.2-0.1l0.1-0.1h0.1l0.1-0.1 M213.7,164.7l1,0.6 M212.6,164.4l1.1,0.3 M211.5,164.7l1.1-0.3 M210.5,165.3l1-0.6 M209.4,164.7
	l0.1,0.1h0.1l0.1,0.1l0.2,0.1l0.1,0.1l0.1,0.1h0.2l0.2,0.1 M210.4,164l-1,0.7 M210.9,163.4l-0.5,0.6 M210.4,162.8l0.5,0.6
	 M209.4,162.2l1,0.6 M210.5,161.6h-0.2l-0.2,0.1l-0.1,0.1h-0.1l-0.2,0.1l-0.1,0.1l-0.1,0.1l-0.1,0.1 M211.5,162.2l-1-0.6
	 M212.6,162.4l-1.1-0.2 M213.7,162.2l-1.1,0.2 M216.7,161l1,0.8l0.6,0.9l0.1,1l-0.3,0.9l-0.8,0.8l-1.2,0.7l-1.5,0.5l-1.6,0.2
	l-1.6-0.1l-1.6-0.3l-1.3-0.6l-1-0.8l-0.6-0.9l-0.1-0.9l0.3-1l0.8-0.8l1.2-0.7l1.5-0.4l1.6-0.2h1.6l1.6,0.4L216.7,161 M43.2,242.9
	h0.1 M47.2,241.1l-0.4,0.6l-0.7,0.4l-0.8,0.3l-0.9,0.2l-0.8-0.1l-0.6-0.1 M42.2,240.4l-0.1,0.3l-0.1,0.4l0.3,0.4l0.4,0.2
	 M43.2,242.9l0.6,0.2h0.6l0.7-0.1l0.7-0.2l0.5-0.3l0.4-0.5l0.1-0.4v-0.1 M42.8,242.5l0.3,0.3l0.1,0.1 M43,242.4l-0.4-0.3l-0.1-0.1
	 M44.3,245.3L44.3,245.3l0.1,0.1h0.1l0.1,0.1l0.2-0.1h0.1 M44.9,245.4v-0.1H45 M42.7,241.7l0.6-0.7 M42.7,241.7l0.6,0.3l0.9,0.1
	l0.9-0.1l0.9-0.2l0.8-0.4l0.5-0.6l0.3-0.6l-0.1-0.6l-0.1-0.2 M42.4,240.3l0.9-1.1 M42.4,238.5l0.9-1.1 M42.4,236.6l0.9-1
	 M42.4,234.8l0.9-1.1 M42.4,233l0.9-1.1 M42.4,231.2l0.9-1.1 M42.4,229.3l0.9-1 M42.4,227.5l0.9-1 M42.7,215.3l-0.2-1.3 M46.5,215.3
	l0.3-1.3 M43.4,215.7l0.1-1.1 M44.6,216v-1.1 M45.8,215.7l-0.1-1.1 M42.7,242.2L42.7,242.2l0.1,0.3 M43.3,242.9L43.3,242.9l-0.3-0.2
	l-0.2-0.2 M46.4,241.9l-0.5,0.5l-0.6,0.4l-0.7,0.1l-0.7,0.1l-0.6-0.1 M46.1,240.4l-0.2,0.2l-0.6,0.3l-0.7,0.2l-0.7,0.1l-0.6-0.2
	 M46.1,238.6l-0.2,0.2l-0.6,0.3l-0.7,0.2h-0.7l-0.6-0.1 M46.1,236.8l-0.2,0.1l-0.6,0.4l-0.7,0.2h-0.7l-0.6-0.1 M46.1,234.9l-0.2,0.2
	l-0.6,0.4l-0.7,0.2h-0.7l-0.6-0.1 M46.1,233.1l-0.2,0.2l-0.6,0.3l-0.7,0.2l-0.7,0.1l-0.6-0.2 M46.1,231.3l-0.2,0.2l-0.6,0.3
	l-0.7,0.2h-0.7l-0.6-0.1 M46.1,229.5l-0.2,0.1l-0.6,0.4l-0.7,0.2h-0.7l-0.6-0.1 M46.1,227.6l-0.2,0.2l-0.6,0.4l-0.7,0.2h-0.7
	l-0.6-0.1 M46.1,225.8l-0.2,0.2l-0.6,0.4l-0.7,0.1l-0.7,0.1l-0.6-0.1 M46.1,224l-0.2,0.2l-0.6,0.3l-0.7,0.2l-0.7,0.1l-0.6-0.2
	 M42.4,225.7l0.9-1.1 M46.1,216.9l0.2-1 M43.1,216.9l-0.2-1 M45.8,220.5l0.6-0.3l0.5-0.5l0.1-0.2 M42.3,219.6l0.2,0.4l0.6,0.3
	l0.3,0.2 M42.8,220.5v0.1l0.2,0.3l0.4,0.2l0.6,0.1l0.6-0.1l0.7-0.1l0.6-0.3l0.5-0.4l0.2-0.3 M46.1,222.2l-0.2,0.2l-0.6,0.3l-0.7,0.2
	h-0.7l-0.6-0.1 M42.4,223.9l0.9-1.1 M45.8,220.5l-1.2,0.2h-1.2l-1-0.2l-0.6-0.5l-0.3-0.6 M43.4,220.5l0.3,0.1H44h0.3h0.3h0.3h0.3
	h0.3l0.3-0.1 M43.4,220.5l-1-0.3l-0.6-0.4l-0.3-0.6 M47.5,221.1l0.1,0.2l0.1,0.6l-0.1,0.6l-0.4,0.6l-0.6,0.5l-0.8,0.3l-0.9,0.2
	l-0.9,0.1l-0.8-0.1l-0.8-0.2 M47.4,219.3l0.2,0.2l0.1,0.5l-0.1,0.7l-0.5,0.7l-0.5,0.3l-0.5,0.3l-0.7,0.2l-0.8,0.1l-0.9,0.1l-0.8-0.2
	l-0.7-0.2l-0.4-0.4l-0.3-0.4l0.1-0.5l0.3-0.4l0.2-0.1 M47.5,222.9v0.1l0.2,0.7l-0.2,0.8l-0.7,0.7l-1,0.5l-1.2,0.3h-1.2l-1-0.3
	 M42.4,223.9l-0.6-0.5l-0.3-0.6l0.3-0.5l0.3-0.3 M47.5,224.8L47.5,224.8l0.2,0.8l-0.2,0.8l-0.7,0.7l-1,0.5l-1.2,0.2h-1.2l-1-0.3
	 M42.4,225.7l-0.6-0.5l-0.3-0.5l0.3-0.6l0.4-0.3 M47.5,226.6L47.5,226.6l0.2,0.8l-0.2,0.8l-0.7,0.7l-1,0.5l-1.2,0.2h-1.2l-1-0.3
	 M42.4,227.5l-0.6-0.4l-0.3-0.6l0.3-0.6l0.4-0.3 M47.5,228.4L47.5,228.4l0.2,0.8l-0.2,0.8l-0.7,0.7l-1,0.5l-1.2,0.3l-1.2-0.1l-1-0.2
	 M42.4,229.3l-0.6-0.4l-0.3-0.6l0.3-0.6l0.4-0.3 M47.5,230.2L47.5,230.2l0.2,0.8l-0.2,0.8l-0.7,0.7l-1,0.5l-1.2,0.3h-1.2l-1-0.3
	 M42.4,231.2l-0.6-0.5l-0.3-0.6l0.3-0.5l0.4-0.4 M47.5,232.1L47.5,232.1l0.2,0.8l-0.2,0.8l-0.7,0.7l-1,0.5l-1.2,0.2h-1.2l-1-0.3
	 M42.4,233l-0.6-0.5l-0.3-0.5l0.3-0.6l0.4-0.3 M47.5,233.9L47.5,233.9l0.2,0.8l-0.2,0.8l-0.7,0.7l-1,0.5l-1.2,0.2h-1.2l-1-0.3
	 M42.4,234.8l-0.6-0.5l-0.3-0.5l0.3-0.6l0.4-0.3 M47.5,235.7L47.5,235.7l0.2,0.8l-0.2,0.8l-0.7,0.7l-1,0.5l-1.2,0.2h-1.2l-1-0.2
	 M42.4,236.6l-0.6-0.4l-0.3-0.6l0.3-0.6l0.4-0.3 M47.5,237.5L47.5,237.5l0.2,0.8l-0.2,0.8l-0.7,0.7l-1,0.5l-1.2,0.3h-1.2l-1-0.3
	 M42.4,238.5l-0.6-0.5l-0.3-0.6l0.3-0.6l0.4-0.3 M42.4,240.3l-0.6-0.5l-0.3-0.6l0.3-0.5l0.4-0.3 M42.4,240.5L42.4,240.5l-0.6-0.5
	l-0.3-0.5 M47.7,238.6L47.7,238.6l-0.2,0.7l-0.7,0.7l-1,0.6l-1.2,0.2h-1.2l-1-0.3 M42.4,238.7L42.4,238.7l-0.6-0.5l-0.3-0.6
	 M47.7,236.7L47.7,236.7l-0.2,0.8l-0.7,0.7l-1,0.5l-1.2,0.3h-1.2l-1-0.3 M42.4,236.9L42.4,236.9l-0.6-0.5l-0.3-0.6 M47.7,234.9
	L47.7,234.9l-0.2,0.8l-0.7,0.7l-1,0.5l-1.2,0.3l-1.2-0.1l-1-0.2 M42.4,235L42.4,235l-0.6-0.4l-0.3-0.6 M47.7,233.1L47.7,233.1
	l-0.2,0.8l-0.7,0.7l-1,0.5l-1.2,0.2h-1.2l-1-0.3 M42.4,233.2L42.4,233.2l-0.6-0.4l-0.3-0.6 M47.7,231.3L47.7,231.3l-0.2,0.8
	l-0.7,0.7l-1,0.5l-1.2,0.2h-1.2l-1-0.3 M42.4,231.4L42.4,231.4l-0.6-0.5l-0.3-0.5 M47.7,229.4v0.1l-0.2,0.7l-0.7,0.7l-1,0.5
	l-1.2,0.3h-1.2l-1-0.3 M42.4,229.6L42.4,229.6l-0.6-0.5l-0.3-0.6 M47.7,227.6L47.7,227.6l-0.2,0.8l-0.7,0.7l-1,0.5l-1.2,0.3
	l-1.2-0.1l-1-0.2 M42.4,227.7L42.4,227.7l-0.6-0.4l-0.3-0.6 M47.7,225.8L47.7,225.8l-0.2,0.8l-0.7,0.7l-1,0.5l-1.2,0.2h-1.2l-1-0.3
	 M42.4,225.9L42.4,225.9l-0.6-0.4l-0.3-0.6 M47.7,224L47.7,224l-0.2,0.8l-0.7,0.7l-1,0.5l-1.2,0.2h-1.2l-1-0.3 M42.4,224.1
	L42.4,224.1l-0.6-0.5l-0.3-0.5 M47.7,222.2L47.7,222.2l-0.2,0.7l-0.7,0.7l-1,0.6l-1.2,0.2h-1.2l-1-0.3 M47.7,220.3L47.7,220.3
	l-0.2,0.8l-0.7,0.7l-1,0.5l-1.2,0.3h-1.2l-1-0.3l-0.6-0.5l-0.3-0.6 M46.6,217.5l0.2-1 M42.6,217.5l-0.2-1 M46.7,215.4l-0.1-0.1h-0.1
	 M46.5,215.3l-0.7,0.4 M45.8,215.7l-1.2,0.3 M44.6,216l-1.2-0.3 M43.4,215.7l-0.7-0.4 M42.7,215.3L42.7,215.3l-0.2,0.1 M43.1,216.9
	l-0.5,0.6 M42.6,217.5l-0.2,0.2 M46.9,217.7l-0.3-0.2 M46.6,217.5l-0.5-0.6 M46.8,214l-1.1,0.6 M47.9,214.6l-0.2-0.1l-0.1-0.1
	l-0.1-0.1h-0.1l-0.2-0.1l-0.1-0.1l-0.2-0.1h-0.1 M46.8,215.2l1.1-0.6 M46.3,215.9l0.5-0.7 M46.8,216.5l-0.5-0.6 M47.9,217.1
	l-1.1-0.6 M46.8,217.7h0.1l0.2-0.1l0.1-0.1l0.2-0.1h0.1l0.1-0.1l0.1-0.1l0.2-0.1 M45.7,217.1l1.1,0.6 M44.6,216.9l1.1,0.2
	 M43.5,217.1l1.1-0.2 M42.5,217.7l1-0.6 M41.4,217.1l0.1,0.1l0.1,0.1l0.1,0.1h0.2l0.1,0.1l0.2,0.1l0.1,0.1h0.2 M42.4,216.5l-1,0.6
	 M42.9,215.9l-0.5,0.6 M42.4,215.2l0.5,0.7 M41.4,214.6l1,0.6 M42.5,214h-0.2l-0.1,0.1l-0.2,0.1l-0.1,0.1h-0.2l-0.1,0.1l-0.1,0.1
	l-0.1,0.1 M43.5,214.6l-1-0.6 M44.6,214.9l-1.1-0.3 M45.7,214.6l-1.1,0.3 M46.7,219.8l-0.1,0.1l-0.6,0.2l-0.7,0.2l-0.7,0.1l-0.7-0.1
	l-0.7-0.2l-0.6-0.3h-0.1 M48.7,213.5l1,0.7l0.6,0.9l0.1,1l-0.3,0.9l-0.8,0.9l-1.2,0.6l-1.4,0.5l-1.7,0.2l-1.6-0.1l-1.6-0.3l-1.3-0.6
	l-1-0.7l-0.6-0.9l-0.1-1l0.3-0.9l0.8-0.9l1.2-0.6l1.5-0.5l1.6-0.2l1.7,0.1l1.5,0.3L48.7,213.5 M103.1,272.9l-0.5,0.6l-0.7,0.5
	l-0.9,0.3l-1,0.2l-0.8-0.1l-0.7-0.2l-0.4-0.3v-0.1 M98.4,274.1v0.2l0.1,0.3l0.3,0.3l0.5,0.1l0.7,0.1h0.7l0.7-0.2l0.6-0.4l0.5-0.4
	l0.2-0.5v-0.2 M100,277.5L100,277.5l0.1,0.1h0.1 M100.2,277.6h0.2h0.1l0.1-0.1h0.1 M97.7,272.4l-0.1,0.4l0.1,0.4l0.4,0.4l0.7,0.3
	l0.9,0.2l1-0.1l0.9-0.2l0.8-0.4l0.7-0.5l0.3-0.6v-0.2 M100.7,247.1v-1.3 M101.9,274l-0.1,0.1l-0.6,0.4l-0.7,0.3h-0.7h-0.7l-0.4-0.2
	l-0.2-0.3v-0.1 M100.4,247.7l-0.2-1.1 M98.3,248.3l0.1-1.1 M99.6,248.3l-0.1-1.2 M101.5,247.9l0.2-1 M97.3,248l-0.4-1 M101.6,248.6
	l0.3-1.1 M102.7,248.9l0.1-0.9 M98.4,252.4l0.8,0.2h0.9l0.4-0.1 M98.4,252.4v0.1l0.2,0.2L99,253l0.6,0.1h0.7l0.7-0.1l0.6-0.3
	l0.5-0.3l0.3-0.4 M103.4,252.2l-0.1,0.6 M98.4,252.4l-0.8-0.4l-0.3-0.6v-0.1 M97.3,251.2v0.2l0.1,0.2l0.1,0.1l0.1,0.2l0.2,0.1
	l0.2,0.2l0.2,0.1l0.2,0.1 M103.2,251.4l0.2,0.3l-0.1,0.8 M103.2,253l0.2,0.6v0.6l-0.3,0.6l-0.6,0.5l-0.7,0.4l-0.8,0.2l-0.9,0.1h-0.9
	l-0.8-0.2l-0.6-0.3l-0.4-0.4l-0.2-0.4l0.2-0.4 M103.3,252.5l-0.3,0.6l-0.4,0.3l-0.7,0.4l-0.9,0.3l-1.2,0.1h-0.6l-0.6-0.1l-0.5-0.2
	l-0.5-0.3l-0.3-0.4v-0.5l0.2-0.4l0.3-0.2 M103.1,254.8l0.3,0.6l-0.1,0.8l-0.6,0.7l-0.9,0.6l-1.1,0.3l-1.2,0.1l-1.1-0.2l-0.8-0.5
	l-0.3-0.5l0.1-0.6 M97.4,254.3l0.4-0.4 M103.1,256.6l0.3,0.6l-0.1,0.8l-0.6,0.7l-0.9,0.6l-1.1,0.3l-1.2,0.1l-1.1-0.2l-0.8-0.4
	l-0.3-0.6l0.1-0.6 M97.4,256.1l0.4-0.4 M103.1,258.5l0.3,0.5l-0.1,0.8l-0.6,0.8l-0.9,0.5l-1.1,0.4h-1.2l-1.1-0.2l-0.8-0.4l-0.3-0.6
	l0.1-0.6 M97.4,257.9l0.4-0.4 M103.1,260.3l0.3,0.6l-0.1,0.8l-0.6,0.7l-0.9,0.6l-1.1,0.3h-1.2l-1.1-0.2l-0.8-0.4l-0.3-0.6l0.1-0.5
	 M97.4,259.7l0.4-0.3 M103.1,262.1l0.3,0.6l-0.1,0.8l-0.6,0.7l-0.9,0.6l-1.1,0.3l-1.2,0.1l-1.1-0.3l-0.8-0.4l-0.3-0.5l0.1-0.6
	 M97.4,261.6l0.4-0.4 M103.1,263.9l0.3,0.6l-0.1,0.8l-0.6,0.7l-0.9,0.6l-1.1,0.3l-1.2,0.1l-1.1-0.2l-0.8-0.5l-0.3-0.5l0.1-0.6
	 M97.4,263.4l0.4-0.4 M103.1,265.7l0.3,0.6l-0.1,0.8l-0.6,0.8l-0.9,0.5l-1.1,0.3l-1.2,0.1l-1.1-0.2l-0.8-0.4l-0.3-0.6l0.1-0.6
	 M97.4,265.2l0.4-0.4 M103.1,267.6l0.3,0.5l-0.1,0.8l-0.6,0.8l-0.9,0.5l-1.1,0.4h-1.2l-1.1-0.2l-0.8-0.4l-0.3-0.6l0.1-0.5 M97.4,267
	l0.4-0.3 M103.1,269.4l0.3,0.6l-0.1,0.8l-0.6,0.7l-0.9,0.6l-1.1,0.3h-1.2l-1.1-0.2l-0.8-0.4l-0.3-0.5l0.1-0.6 M97.4,268.9l0.4-0.4
	 M103.1,271.2l0.3,0.6v0.3 M97.4,270.7l0.4-0.4 M103.4,270.4l-0.1,0.6l-0.5,0.7l-1,0.6l-1.1,0.3l-1.2,0.1l-1.1-0.2l-0.8-0.5
	l-0.3-0.5v-0.2 M103.4,268.6l-0.1,0.6l-0.5,0.7l-1,0.6l-1.1,0.3h-1.2l-1.1-0.2l-0.8-0.4l-0.3-0.5v-0.2 M103.4,266.8l-0.1,0.6
	l-0.5,0.7l-1,0.6l-1.1,0.3h-1.2l-1.1-0.2l-0.8-0.4l-0.3-0.6v-0.1 M103.4,264.9l-0.1,0.6l-0.5,0.8l-1,0.5l-1.1,0.3l-1.2,0.1l-1.1-0.2
	l-0.8-0.4l-0.3-0.6v-0.1 M103.4,263.1l-0.1,0.6l-0.5,0.7l-1,0.6l-1.1,0.3l-1.2,0.1l-1.1-0.2l-0.8-0.4l-0.3-0.6V264 M103.4,261.3
	l-0.1,0.6l-0.5,0.7l-1,0.6l-1.1,0.3l-1.2,0.1l-1.1-0.3l-0.8-0.4l-0.3-0.5v-0.2 M103.4,259.5l-0.1,0.6l-0.5,0.7l-1,0.6l-1.1,0.3h-1.2
	l-1.1-0.2l-0.8-0.4l-0.3-0.6v-0.1 M103.4,257.7l-0.1,0.5l-0.5,0.8l-1,0.5l-1.1,0.4h-1.2l-1.1-0.2l-0.8-0.4l-0.3-0.6v-0.1
	 M103.4,255.8l-0.1,0.6l-0.5,0.7l-1,0.6l-1.1,0.3l-1.2,0.1l-1.1-0.2l-0.8-0.4l-0.3-0.6v-0.2 M103.4,254l-0.1,0.6l-0.5,0.7l-1,0.6
	l-1.1,0.3l-1.2,0.1l-1.1-0.2l-0.8-0.5l-0.3-0.5v-0.2 M103.3,252.8l-0.5,0.7l-1,0.6l-1.1,0.3h-1.2l-1.1-0.2l-0.8-0.4l-0.3-0.5v-0.2
	 M103.7,249.1l0.5-0.9 M99,249.4l-0.2-0.9 M102.1,248.8l-0.5-0.2 M101.6,248.6l-0.1-0.7 M101.6,247.3l-0.1-0.1h-0.1h-0.1h-0.2
	l-0.1-0.1h-0.1h-0.2 M100.7,247.1l-0.3,0.6 M100.4,247.7l-0.8,0.6 M99.6,248.3h-1.1 M99,249.4l0.2,0.8 M99.2,250.2l-0.3-1
	 M100.5,252.5h-0.8l-0.7-0.2l-0.6-0.2l-0.1-0.1 M104.2,248.2l-1.4-0.2 M103.8,249.1l0.1-0.1v-0.1l0.1-0.1l0.1-0.1v-0.2l0.1-0.1v-0.1
	v-0.1 M102.3,248.8l1.5,0.3 M101.2,248.9l1.1-0.1 M100.4,249.4l0.8-0.5 M100,250.3l0.4-0.9 M98.5,250l0.2,0.1h0.2h0.2l0.1,0.1h0.2
	h0.2h0.2l0.2,0.1 M98.9,249.2l-0.4,0.8 M98.8,248.5l0.1,0.7 M97.9,248.1l0.9,0.4 M96.5,247.8l1.4,0.3 M96.9,247l-0.1,0.1l-0.1,0.1
	v0.1l-0.1,0.1v0.1l-0.1,0.1v0.1v0.1 M98.4,247.2l-1.5-0.2 M99.5,247.1l-1.1,0.1 M100.2,246.6l-0.7,0.5 M100.7,245.8l-0.5,0.8
	 M102.2,246H102l-0.2-0.1h-0.2h-0.2l-0.2-0.1H101h-0.1h-0.2 M101.7,246.9l0.5-0.9 M101.9,247.5l-0.2-0.6 M102.8,248l-0.9-0.5
	 M105.9,249l-0.7,0.8l-1,0.8l-1.4,0.5l-1.6,0.3h-1.7l-1.6-0.3l-1.4-0.5l-1.1-0.8l-0.7-0.8l-0.2-1l0.2-0.9l0.7-0.9l1.1-0.7l1.4-0.5
	l1.6-0.3h1.7l1.6,0.3l1.4,0.5l1,0.7l0.7,0.9l0.3,0.9L105.9,249 M33.6,156l-1.8-1.2l-1.5-1.4l-1-1.4l-0.6-1.5l-0.1-1.5l0.3-1.5
	l0.4-0.8 M61.5,172.6L61.5,172.6h0.1 M61.6,172.6v-8.1 M61.6,172.6l0.3,0.2l0.3,0.2h0.3h0.2H63 M62,163.1l-0.2,0.2l-0.2,0.2v0.3
	l-0.1,0.3l0.1,0.4 M61.6,164.5l0.3-0.2l0.3-0.2l0.3-0.1l0.2-0.2l0.3-0.1 M63,173l28.3,16.3 M33.6,156l27.9,16.1 M63,163.7l-1-0.6
	 M63,173v-9.3 M38.6,147.3l-5,8.7 M86.3,174.9l-47.7-27.6 M48.6,130l47.7,27.5 M38.6,147.3l0.2-2.4l0.5-2.5l1-2.5l1.2-2.5l1.5-2.3
	l1.8-2l1.8-1.8l2-1.3 M116.1,182.8l0.1,0.5l0.2,1.5l-0.3,1.5l-0.8,1.4l-1.2,1.2l-1.5,1.1 M96.3,157.5l1.4,0.9l1.4,1.1l1.3,1.3
	l1.2,1.5l1.1,1.6l1,1.7l0.9,1.7l0.7,1.8 M86.3,174.9l0.2-2.4l0.6-2.5l0.9-2.5l1.3-2.5l1.5-2.3l1.7-2.1l1.9-1.7l1.9-1.4 M91.3,189.3
	l-5-14.4 M112.6,190l-1.9,0.9l-2.2,0.7l-2.5,0.5l-2.5,0.1l-2.6-0.1l-2.6-0.3l-2.5-0.6l-2.4-0.8l-2.1-1.1 M105.3,169.1l7.3,20.9
	 M86.3,174.9l2-0.1l2.2-0.4l2.5-0.5l2.6-0.7l2.6-0.9l2.6-1l2.4-1.1l2.1-1.1 M129.2,197.5L126,198l-3.2,1.1l-3.1,1.8l-2.9,2.3
	 M116.4,218v3.8 M161.6,230.1v2.8 M178.6,234.7v-4.6 M204.1,254.6v2.9 M243.9,289.1l16-9.2 M129.7,218v3.2 M167,215.2l0.1-0.1
	 M167.9,238.6l-1.2-0.5h-0.5h-0.3l-0.3,0.2l-0.3,0.4l-0.1,0.5l-0.1,0.6 M166,239.8v-0.5l0.1-0.2l0.1-0.2h0.2h0.3l0.7,0.4
	 M194.2,253.8l-12.7-7.4l-13.6-7.8 M167.4,239.3l12.8,7.4l13.6,7.8 M196.5,257.5l-0.1-1l-0.1-0.6l-0.3-0.5l-0.4-0.5l-0.4-0.5l-1-0.6
	 M193.8,254.6l0.8,0.4l0.3,0.4l0.3,0.3l0.2,0.4l0.2,0.5l0.1,0.9 M225.7,239l-3,1.8l-3,1.7 M237.3,258.6v2.3 M243,260.9v-2.3
	 M161,13.6l-3.3-1.6l-3.5-1.2l-3.7-0.7l-3.7-0.3l-3.7,0.3l-3.6,0.7L136,12l-3.4,1.6 M121.5,25.4L109.2,50 M132.6,13.6l-1.7,1.1
	l-1.7,1.2l-1.5,1.4l-1.5,1.4l-1.4,1.6l-1.2,1.6l-1.1,1.7l-1,1.8 M164.5,94.3v0.2l0.1,0.2v0.2l0.1,0.1l0.1,0.2l0.1,0.1l0.2,0.2
	l0.1,0.1 M165.2,95.6h0.2l0.2,0.1h0.1l0.2,0.1l0.2-0.1h0.2l0.2-0.1h0.1 M164.5,87.4v6.9 M165.2,86.2L165.2,86.2l-0.3,0.2l-0.1,0.1
	l-0.1,0.2l-0.1,0.2V87l-0.1,0.2v0.2 M239.3,58.8L161,13.6 M252.1,74.8l-0.9-2.5l-1.1-2.3l-1.3-2.3l-1.6-2.1l-1.7-2l-1.9-1.7
	l-2.1-1.7l-2.2-1.4 M263.4,110.2l-11.3-35.4 M47.1,297l-3.4,6 M53,296.4l-0.1-0.1l-0.1-0.1h-0.1l-0.1-0.1h-0.1l-0.2-0.1h-0.1
	l-0.1-0.1 M36.7,303l-5.2,9.1 M57.6,299.1L57.6,299.1h-0.1 M57.6,299.1L57.6,299.1 M31.8,310.4l-1.9,3.4 M47.2,305l-4.9-2.8
	 M47.6,304.7l-0.1,0.2l-0.1,0.1h-0.1h-0.1 M108.3,331.5l-0.4-1l-0.4-0.9l-0.6-0.8l-0.6-0.8l-0.7-0.8l-0.7-0.7l-0.8-0.6l-0.8-0.5
	 M87.6,328.4L87.6,328.4v-0.1 M103.3,325.4l-50.3-29 M103.3,353.4l-0.1-0.1l-0.1-0.1v-0.1 M92.5,331.2l-4.9-2.8 M115.4,351.9
	l-7.1-20.4 M103.1,353.1l-5.2-15 M170.5,168.3l1.8-3.5 M172.9,163.8l0.1-0.3 M167.5,164l0.3,0.7 M168.2,165.4l1.6,2.9 M172.2,142.9
	L172.2,142.9v-0.1 M167,142.1v0.1 M167,143.8v0.2 M167,145.6v0.2 M167,147.4v0.2 M167,149.2v0.3 M167,151.1v0.2 M167,152.9v0.2
	 M167,154.7v0.2 M167,156.5v0.3 M167,158.3v0.3 M167,160.2v0.2 M167,162v0.2 M173.2,161.3v-0.2 M173.2,159.5v-0.2 M173.2,157.7v-0.3
	 M173.2,155.8v-0.2 M173.2,154v-0.2 M173.2,152.2V152 M173.2,150.4v-0.3 M173.2,148.6v-0.3 M173.2,146.7v-0.2 M173.2,144.9v-0.2
	 M173.2,143.1v-0.2 M172.2,142.8l2.5-1.8 M165.5,141l2.5,1.8 M212.9,192.9l1.8-3.3 M215.2,188.7l0.2-0.5 M210.1,188.8l0.4,0.8
	 M210.8,190.1l1.5,2.8 M209.5,166.8v0.2 M209.5,168.6v0.2 M209.5,170.4v0.2 M209.5,172.2v0.3 M209.5,174.1v0.2 M209.5,175.9v0.2
	 M209.5,177.7v0.2 M209.5,179.5v0.3 M209.5,181.3v0.3 M209.5,183.2v0.2 M209.5,185v0.2 M209.5,186.8v0.2 M215.7,186.1v-0.2
	 M215.7,184.3v-0.2 M215.7,182.5v-0.2 M215.7,180.7v-0.3 M215.7,178.8v-0.2 M215.7,177v-0.2 M215.7,175.2V175 M215.7,173.4v-0.3
	 M215.7,171.5v-0.2 M215.7,169.7v-0.2 M215.7,167.9v-0.2 M214.7,167.4l2.5-1.9 M208,165.5l2.5,1.9 M45,245.3l1.7-3.3 M47.2,241.1
	l0.2-0.4 M42.1,241.2l0.4,0.8 M42.8,242.6l1.5,2.7 M41.5,219.2v0.2 M41.5,221v0.2 M41.5,222.8v0.3 M41.5,224.7v0.2 M41.5,226.5v0.2
	 M41.5,228.3v0.2 M41.5,230.1v0.3 M41.5,232v0.2 M41.5,233.8v0.2 M41.5,235.6v0.2 M41.5,237.4v0.2 M41.5,239.2v0.3 M47.7,238.6v-0.3
	 M47.7,236.7v-0.2 M47.7,234.9v-0.2 M47.7,233.1v-0.2 M47.7,231.3V231 M47.7,229.4v-0.2 M47.7,227.6v-0.2 M47.7,225.8v-0.2
	 M47.7,224v-0.3 M47.7,222.2v-0.3 M47.7,220.3v-0.2 M46.7,219.8l2.5-1.9 M40,217.9l2.5,1.9 M100.7,277.5l1.8-3.5 M103.1,272.9
	l0.2-0.3 M97.7,273.1l0.3,0.7 M98.4,274.5l1.6,3 M102.4,252.1v-0.2 M97.2,251.2L97.2,251.2 M97.2,252.9v0.2 M97.2,254.7v0.2
	 M97.2,256.5v0.2 M97.2,258.3v0.3 M97.2,260.2v0.2 M97.2,262v0.2 M97.2,263.8v0.2 M97.2,265.6v0.3 M97.2,267.5v0.2 M97.2,269.3v0.2
	 M97.2,271.1v0.2 M103.4,270.4v-0.2 M103.4,268.6v-0.2 M103.4,266.8v-0.3 M103.4,264.9v-0.2 M103.4,263.1v-0.2 M103.4,261.3v-0.2
	 M103.4,259.5v-0.2 M103.4,257.7v-0.3 M103.4,255.8v-0.2 M103.4,254v-0.2 M103.4,252.2V252 M102.4,252l2.5-1.9 M95.7,250.1l2.6,1.9
	 M55.7,129.3l-1.7-0.9l-1.7-0.6l-1.8-0.3l-1.9-0.1l-1.8,0.1l-1.9,0.3l-1.7,0.6l-1.7,0.9 M36.3,134.4l-7,12.3 M41.5,129.3l-0.8,0.4
	l-0.7,0.6l-0.7,0.6l-0.7,0.6l-0.7,0.7l-0.5,0.7l-0.6,0.8l-0.5,0.7 M61.5,172.6l0.5,0.3 M61.5,164v8.6 M103.4,156.8l-47.7-27.5
	 M109.7,164.5l-0.4-1.2l-0.6-1.2l-0.7-1l-0.7-1l-0.9-1l-0.9-0.8l-1-0.8l-1.1-0.7 M116.1,182.8l-6.4-18.3"/>
</svg>
