<?xml version="1.0" encoding="utf-8"?>
<!-- Generator: Adobe Illustrator 21.0.0, SVG Export Plug-In . SVG Version: 6.00 Build 0)  -->
<svg version="1.1" id="Layer_1" xmlns="http://www.w3.org/2000/svg" xmlns:xlink="http://www.w3.org/1999/xlink" x="0px" y="0px"
	 viewBox="0 0 567 523" style="enable-background:new 0 0 567 523;" xml:space="preserve">
<style type="text/css">
	.st0{fill:none;stroke:#000000;stroke-width:0.709;stroke-linecap:round;stroke-linejoin:round;stroke-miterlimit:10;}
	.st1{fill:none;}
	.st2{fill:none;stroke:#000000;stroke-miterlimit:10;}
</style>
<path class="st0" d="M419.9,426.4l-0.8,0.4 M345,316.7L345,316.7l-0.1-0.1v-0.1 M344.9,316.5L344.9,316.5l0.1-0.2v-0.1l0.1-0.1
	l0.1-0.1l0.1-0.1h0.1v0.1 M304.3,98.5l-2-2.5l-1.8-2.6l-1.3-2.8l-1.1-2.7l-0.6-2.8l-0.2-2.8l0.1-2.7L298,77l0.9-2.4l0.2-0.4
	 M310.2,62.4l0.3-0.2l1.9-0.7l2.2-0.4h2.3l2.4,0.5l2.5,0.9l2.6,1.3 M342.8,144.3L342.8,144.3l-0.1-0.1l-0.1-0.1l-0.1-0.2v-0.2
	 M342.1,143.1v0.2l0.1,0.1l0.1,0.2l0.2,0.1 M342.5,136.7l-0.2-0.1l-0.1-0.1l-0.1-0.2v-0.1 M338.6,62.4l-0.9-0.5l-1.9-0.6l-2.1-0.2
	l-2.2,0.1l-2.3,0.5l-2.4,0.9l-2.4,1.2 M402.7,109l2.4-1.2l2.4-0.9l2.3-0.5l2.2-0.1l2.1,0.2l1.9,0.6l0.9,0.5 M429.7,123.6l0.1,0.6
	l-0.1,1.1l-0.6,1.1l-0.9,1.3l-1.3,1.3l-1.7,1.4l-1.9,1.4l-2.3,1.4 M394.9,232.6l-0.7-0.5l-0.8-1l-0.6-1.3l-0.3-1.6v-1.7l0.3-1.9
	l0.6-2l0.8-1.9l1-1.9l1.3-1.8l1.4-1.5l1.4-1.3l1.6-0.9l1.5-0.6l1.4-0.3l1.3,0.1l1,0.4 M398.2,233.2l-1.5,0.5l-1.5,0.1l-1.3-0.2
	l-1.2-0.7l-1-0.9l-0.7-1.3l-0.4-1.5l-0.1-1.8 M390.5,227.4l0.1-2l0.4-2l0.7-2.1l1-2.1l1.2-1.9l1.3-1.8l1.5-1.6l1.6-1.4l1.6-1
	l1.6-0.6l1.5-0.4l1.5,0.1l1.2,0.4l1.1,0.8l0.8,1.2l0.6,1.4l0.2,0.9 M360.3,176.6l-0.7-0.3l-1.6-0.5l-1.8-0.1l-1.9,0.3l-1.9,0.6l-2,1
	l-2,1.3l-2,1.7l-1.9,1.8l-1.7,2.2l-1.6,2.3l-1.4,2.4l-1.2,2.6l-1,2.6l-0.7,2.5l-0.4,2.5l-0.2,2.4 M336.3,201.9l0.2,2.2l0.4,2.1
	l0.7,1.7l1,1.5l1.2,1.2l0.7,0.4 M388.6,238.8l-0.7-0.5l-1.2-1.1l-1-1.5l-0.7-1.8l-0.4-2l-0.2-2.2 M384.4,229.7l0.2-2.4l0.4-2.5
	l0.7-2.6l1-2.6l1.2-2.5l1.4-2.4l1.6-2.4l1.8-2.1l1.8-1.9l2-1.6l2-1.3l2-1l1.9-0.6l1.9-0.3l1.8,0.1l1.6,0.4l0.6,0.4 M313.2,349.4
	v-3.1 M310.2,347.7l-0.2-0.1l-0.1-0.1l-0.1-0.2l-0.2-0.2V347l-0.1-0.2l-0.1-0.2v-0.2 M310.2,347.7l5.3,3.1 M298.1,354.7l12.1-7
	 M294.4,343.9l-2,1.9 M306.7,338.2L306.7,338.2l2.7,0.1 M297.4,353.3l12-6.9 M309.4,346.4v-4.6 M309.4,341.8v-3.5 M309.4,338.3
	l-2.9,0.9l-3.1,1.5l-3,2l-3,2.5 M298.1,354.7l5.4,3 M298.1,354.7l-0.1-0.2l-0.1-0.1l-0.2-0.1l-0.1-0.2l-0.1-0.2v-0.2l-0.1-0.2v-0.2
	 M297.4,353.3v-4.6 M297.4,345.2v3.5 M292.4,345.8l2.4-0.6h2.6 M292.4,345.8l2.5,1.5 M294.9,351.9v-4.6 M296.4,356L296.4,356
	l-0.6-0.9l-0.4-0.8l-0.3-0.8l-0.1-0.8l-0.1-0.8 M335.3,345.8v4.6 M294,362.5v0.1l0.2,1.6l0.4,1.6l0.8,1.5l1.1,1.5l1.3,1.4l1.6,1.3
	l1.9,1.2 M335.3,348.2l-1-0.6l-2.3-0.9l-2.4-0.8l-2.5-0.6l-2.7-0.4l-2.7-0.3l-2.8-0.1l-2.7,0.1 M316.2,344.6l-3,1.7 M318.2,349.2
	l-5-2.9 M302.2,358.5l16-9.3 M297.1,355.6l5.1,2.9 M297.1,355.6l-3,1.7 M294.1,357.3l-0.1,1.6l0.2,1.6l0.4,1.6l0.8,1.5l1.1,1.5
	l1.3,1.4l1.6,1.3l1.9,1.1 M335.3,350.4l16.1,9.3 M351.7,373.2l-0.6-0.3l-1.4-0.5l-1.5-0.2l-1.5,0.1l-1.5,0.2l-1.3,0.5l-0.2,0.2
	 M357.4,358.5v4.7 M407.5,392.1l-50.1-28.9 M357.4,363.2l-1,0.5 M339.7,384.2l-2,1.1 M350.1,390.2l-10.4-6 M350.1,390.2v4.6
	 M348.1,391.4l2-1.2 M350.4,362.6v3.6 M394.2,397.7l-0.6-0.3l-1.4-0.4l-1.5-0.2h-1.5l-1.5,0.3l-1.3,0.4l-0.2,0.2 M367.1,400v4.6
	 M365.1,401.1l2-1.1 M367.1,400l-10.5-6 M356.6,394l-2,1.1 M390.7,390.5l-34.5-20 M400.5,396.1l-1.9-1 M339.2,375.8v-0.3
	 M356.2,375.5l-0.1,0.6l-0.4,1l-0.8,1l-1.2,0.9l-1.5,0.6l-1.7,0.5l-1.8,0.3h-1.6 M339.2,373.7l-1.9,1 M381.7,400.3V400 M331.3,373.6
	v4.6 M365.1,405.8l2-1.2 M331.3,378.2l50.1,28.9 M324.3,382.3l7-4.1 M348.1,396l2-1.2 M413.5,390.9v4.7 M437.5,420.7L437.5,420.7
	l0.4-0.4l0.3-0.5l0.1-0.6l0.1-0.6 M343.7,373.2l1.2,0.5l1.4,0.3l1.6,0.1l1.5-0.1l1.4-0.4l1.1-0.6l0.9-0.7l0.5-0.9v-0.9l-0.4-0.8
	l-0.7-0.8l-1.1-0.7l-1.4-0.4l-1.5-0.2h-1.5l-1.5,0.3l-1.3,0.5l-1,0.7l-0.6,0.8l-0.3,0.8l0.2,0.9l0.5,0.9L343.7,373.2 M343.4,366.6
	l1.7-0.4l1.9-0.2h1.8l1.9,0.3l1.6,0.5l1.5,0.6l1.1,0.9l0.8,1l0.4,1.1v1l-0.4,1.1l-0.8,1l-1.2,0.8l-1.5,0.7l-1.7,0.5l-1.8,0.2h-1.9
	l-1.8-0.2l-1.7-0.4l-1.5-0.7l-1.2-0.8l-0.9-1l-0.5-1.1v-1.1l0.4-1l0.7-1 M350.4,362.6l-7,4 M404.5,393.8l-54.1-31.2 M397.5,397.9
	l7-4.1 M394.4,399.6l-1.7,0.5l-1.8,0.2l-1.9-0.1l-1.8-0.2l-1.7-0.5l-1.5-0.7l-1.1-0.9l-0.8-1l-0.4-1v-1.1l0.4-1.1l0.9-0.9l1.1-0.9
	l1.5-0.7l1.7-0.4l1.8-0.3h1.9l1.9,0.2l1.7,0.5l1.5,0.7l1.2,0.8l0.8,1l0.5,1v1.1l-0.3,1.1l-0.8,1 M387.5,403.7l6.9-4.1 M333.3,372.4
	l54.2,31.3 M340.3,368.4l-7,4 M337.3,344.6l-2,1.2 M335.3,345.8l20.1,11.6 M355.4,357.4l-31.1,17.9 M324.3,375.3l-20-11.6
	 M304.3,363.7l-2,1.2 M324.3,377.6l7-4 M331.3,373.6l54.2,31.2 M385.5,404.8l-7.1,4.1 M402.5,420.4l-20.1-11.5 M382.4,408.9l31.1-18
	 M413.5,390.9l16.4,9.5 M432.1,399.4l-94.8-54.8 M357.4,358.5l-5,2.9 M411.5,389.8l-54.1-31.3 M406.5,392.7l5-2.9 M352.4,361.4
	l54.1,31.3 M386.2,397.7l1.2,0.5l1.4,0.4l1.6,0.1l1.5-0.2l1.4-0.4l1.1-0.6l0.9-0.7l0.4-0.9l0.1-0.8l-0.4-0.9l-0.7-0.8l-1.1-0.6
	l-1.4-0.5l-1.5-0.2l-1.5,0.1l-1.5,0.2l-1.3,0.5l-1,0.7l-0.6,0.8l-0.3,0.9l0.2,0.9l0.5,0.8L386.2,397.7 M402.5,420.4v4.7
	 M400.5,421.6l2-1.2 M301.3,372.7l100.2,57.8 M400.5,421.6v4.6 M378.4,408.9l22.1,12.7 M378.4,408.9v4.6 M365.1,405.8l13.3,7.7
	 M365.1,401.1v4.7 M354.6,395.1l10.5,6 M354.6,395.1v4.7 M348.1,396l6.5,3.8 M348.1,391.4v4.6 M337.7,385.3l10.4,6.1 M337.7,385.3
	v4.7 M324.3,382.3l13.4,7.7 M324.3,377.6v4.7 M302.3,364.9l22,12.7 M302.3,364.9v4.6 M301.3,368.9l1,0.6 M301.3,368.9v3.8
	 M419.9,425.2l-1.8,1 M438.4,417.4l3.8-2.2 M442.2,411.5v3.7 M410.1,433.7l8-4.6 M401.5,430.5l0.9,0.5l1,0.5l1,0.5l1.1,0.4l1.1,0.4
	l1.1,0.3l1.2,0.4l1.2,0.2 M410.1,430v3.7 M401.5,426.8v3.7 M413.5,395.6l12.4,7.1 M386.5,411.2l27-15.6 M400.5,426.2l2-1.1
	 M400.5,426.2l1,0.6 M401.5,426.8l0.9,0.5l1,0.5l1,0.5l1.1,0.4l1.1,0.4l1.1,0.3l1.2,0.3l1.2,0.3 M438.4,413.7l3.8-2.2 M410.1,430
	l9.8-5.6 M442.2,411.5l-0.5-0.7l-0.6-0.6l-0.6-0.7l-0.1-0.1 M422.4,427.8l16-9.2 M438.4,418.6v-7.1 M418.1,426.2v2.9 M419.1,429.7
	l-1-0.6 M419.1,429.7l0.6,0.3l0.7,0.1h0.5l0.5-0.2l0.4-0.3l0.3-0.5l0.2-0.6l0.1-0.7 M422.4,427.8v-10.4 M422.4,417.4l2,1.1
	 M419.9,415.9v-8.1 M419.9,426.4v-10.5 M419.1,426.8l0.2,0.1h0.1h0.1l0.1-0.1h0.1l0.1-0.1l0.1-0.2v-0.1 M419.1,426.8l-1-0.6
	 M424.4,418.5l3.5-0.9l3.4-1.3l3.5-1.8l3-2.2l2.6-3 M440.4,409.3l-0.7-3l-1-2.8l-1.3-2.6l-1.5-2.3 M419.9,407.8l3.9-3.7l4.1-2.8
	l4.1-1.9l3.9-0.8 M424.4,418.5l-0.7-3l-1-2.8l-1.3-2.5l-1.5-2.4 M352.4,287.8v1.2 M349.7,278.1l-1,1.5 M307.2,298.6l0.2,1.8l0.7,1.8
	l1,1.7l1.4,1.6l1.7,1.6l2.1,1.3 M342,294.3l2-1.2 M314.3,308.4l4,2.3 M314.3,305.2v3.2 M318.3,310.7l1-0.5 M320.3,306.3v1.2
	 M318.3,307.5v3.2 M350.5,278.5l-6.3,3.7 M349.9,277.9l1,0.6 M349.9,277.9l-0.2,0.2 M349.7,278.1l0.8,0.4 M344.6,292.5l-0.3,0.4
	l-0.3,0.2 M344,293.1l0.1-0.1 M342,294.3l-0.4,0.1H341l-0.7-0.3l-0.8-0.6l-0.2-0.4l-0.1-0.5l0.1-0.5l0.1-0.3 M342.1,294.2l-0.1,0.1
	 M338.3,285.7l0.3,0.1l0.3,0.1l0.2,0.2l0.3,0.3l0.4,0.8l0.2,0.8l0.2,2l-0.7,1.6l-0.1,0.2 M339.4,291.8l0.6-0.8 M344.2,282.2
	l-6.1,3.4 M338.1,285.6h0.3l0.3,0.1l0.3,0.2l0.3,0.3l0.5,0.7l0.3,0.9l0.2,1.8L340,291 M340,291l-0.5,0.9l-0.2,0.5v0.4l0.1,0.3
	l0.3,0.5l0.8,0.5l0.8,0.2h0.5l0.3-0.1 M344.1,293l-2,1.2 M344.1,293l0.5-0.4l0.4-0.7l0.3-1l-0.1-1v-0.5l0.1-0.3l0.5-1.1l0.2-0.4
	 M344.2,282.2l0.3-0.1l0.3,0.1l0.3,0.2l0.2,0.3l0.5,0.8l0.3,0.8l0.3,1.8l-0.4,1.5 M330.8,288.9l-8,12.1 M322.8,301v0.4 M338.1,285.6
	l0.2,0.1 M338.1,285.6l-6.3,3.7 M331.8,289.3l-0.8-0.5 M331,288.8l-0.2,0.1 M331.8,289.5l-1-0.6 M350.4,299.2l-15.3,8.8
	 M350.9,278.5v17.1 M350.9,278.5l-6.3,3.6 M338.3,285.7l-6.5,3.8 M331.8,289.5v17.1 M423.5,328.9v1.2 M392.9,323.7l-42.5-24.5
	 M350.4,295.9v3.3 M371.8,331.2L371.8,331.2h-0.2l-0.1,0.1l-0.1,0.1l-0.1,0.1v0.1v0.1 M371.3,331.7v0.1v0.1h0.1 M373.2,334.8v0.1
	h0.1l0.1,0.1 M411,313.2l-6.5,3.8 M412,313.8l-1-0.6 M411.8,313.9l-0.8-0.4 M419.6,334.8l-7.8-20.9 M412,313.8l8,21.1 M411.8,313.9
	l0.2-0.1 M398.5,320.5l-0.3-0.4l-0.3-0.1l-0.2-0.1h-0.2l-0.4,0.4l-0.3,0.5l-0.1,0.7 M398.7,320.6l-0.3-0.4l-0.3-0.3l-0.3-0.1h-0.3
	l-0.4,0.2l-0.3,0.5l-0.2,1.1 M404.7,317.1l-0.3-0.4l-0.3-0.3l-0.3-0.1h-0.3l-0.2,0.1 M401.2,346v0.4 M319.3,311.3l70.2,40.5
	 M319.3,308.1v3.2 M389.5,351.8l1-0.6 M391.5,347.4v1.2 M389.5,348.6v3.2 M411,313.5v17.1 M411,313.5l-6.3,3.6 M404.7,317.1l-6,3.5
	 M392.4,324.2l0.8,0.5 M398.7,320.6l-6.3,3.6 M398.7,320.6l-0.2-0.1 M398.5,320.5l-6.5,3.7 M390.5,352.4l4,2.3 M390.5,349.2v3.2
	 M415.7,337.1l0.9,0.4l1.1,0.1l1.1-0.1l0.9-0.4l0.6-0.5l0.3-0.6l-0.3-0.7l-0.6-0.5l-0.9-0.3l-1.1-0.2l-1.1,0.2l-0.9,0.3l-0.6,0.5
	l-0.2,0.7l0.2,0.6L415.7,337.1 M425.7,338.3v6.9 M417.7,342.9v7 M409.7,338.3v6.9 M415.7,334.8l-6,3.5 M417.7,333.7l-1.9,1.1
	 M409.7,338.3l8,4.6 M417.7,342.9l8-4.6 M419.7,334.8l-2-1.1 M425.7,338.3l-5.9-3.5 M414.9,338.3l0.2,0.6l0.6,0.5 M415.7,339.4
	l0.9,0.4l1.1,0.1l1.1-0.1l0.9-0.4l0.6-0.5l0.3-0.6 M401,346.1v0.5 M392,324.2l1,0.6 M392,324.2v17.1 M401,346.1l-8-21.3 M401.2,346
	l-0.2,0.1 M393.2,324.7l8,21.3 M393,324.8l0.2-0.1 M394.5,354.7l2.3,1.2l2.7,1l2.8,0.8l3,0.6l3.1,0.4l3.1,0.1l3.2-0.1l3-0.4l3-0.6
	l2.9-0.8l2.6-1l2.3-1.2l2.1-1.4l1.8-1.5l1.4-1.6l1-1.7l0.6-1.8l0.2-1.8 M394.5,351.5v3.2 M342.7,317.2L342.7,317.2v0.1l0.1,0.1
	 M342.8,317.4h0.2h0.1h0.2h0.1l0.1-0.1v-0.1 M395.7,322.1l-45.3-26.2 M417,334.1l-6-3.5 M411,330.6l-12.8,7.4 M401,346.6l0.2-0.2
	 M392,341.3l9,5.3 M332.3,306.3l59.7,34.5 M332.3,306.3l-0.5,0.3 M331.8,306.6l-9-5.2 M350.9,295.6l-0.5,0.3 M342.6,283.1l-2-0.6
	l-3-0.6l-3.1-0.3l-3.2-0.2l-3.1,0.2l-3.1,0.3l-3,0.6l-2.8,0.8l-2.6,1l-2.4,1.2l-2.1,1.4l-1.7,1.5l-1.4,1.6l-1,1.8l-0.7,1.7l-0.2,1.9
	l0.2,1.8l0.7,1.8l1,1.7l1.4,1.6l1.7,1.5l2.1,1.4 M314.3,305.2l4,2.3 M318.3,307.5l2-1.2 M320.3,306.3l1,0.6 M321.3,306.9l-2,1.2
	 M319.3,308.1l70.2,40.5 M389.5,348.6l2-1.2 M391.5,347.4l1,0.6 M392.5,348l-2,1.2 M390.5,349.2l4,2.3 M394.5,351.5l2.3,1.2l2.7,1
	l2.8,0.8l3,0.6l3.1,0.3l3.1,0.1l3.2-0.1l3-0.3l3-0.6l2.9-0.8l2.6-1l2.3-1.2l2.1-1.4l1.8-1.5l1.4-1.6l1-1.8l0.6-1.7l0.2-1.9l-0.2-1.8
	l-0.6-1.8l-1-1.7l-1.4-1.6l-1.8-1.5l-2.1-1.4 M428.5,331.8l-4-2.3 M424.5,329.5l-2,1.1 M422.5,330.6l-1-0.5 M421.5,330.1l2-1.2
	 M402.6,316.8l-49.2-28.4 M423.5,328.9l-7.4-4.3 M353.4,288.4l-2,1.2 M351.4,289.6l-0.5-0.3 M350.9,288.7l1.5-0.9 M352.4,287.8
	l-1.5-0.8 M409.7,345.2l8,4.7 M417.7,349.9l8-4.7 M373.4,335l0.1,0.1h0.2h0.1l0.2-0.1l0.1-0.1v-0.1v-0.1H374 M295.3,116.4l-2.5-1.6
	l-2.2-1.7l-1.8-1.9l-1.4-2l-1-2l-0.6-2.1l-0.2-2l0.3-2.1l0.7-2l0.1-0.3 M342.5,143.7v-7 M342.5,143.7l0.2,0.1l0.2,0.1h0.3h0.3h0.3
	h0.2l0.3-0.1l0.2-0.1 M344.5,136.7l-0.2,0.1l-0.3,0.1l-0.2,0.1h-0.3h-0.3l-0.3-0.1l-0.2-0.1l-0.2-0.1 M342.5,136.7v-0.2l0.1-0.3
	l0.1-0.2l0.1-0.3l0.1-0.2l0.2-0.2l0.2-0.2l0.2-0.1 M416.8,164.9l1.7-0.2l3.5-0.9l3.3-1.1l2.8-1.4 M437.4,155.1l-2.6-1.5
	 M421.7,146.3v4.9 M421.7,151.2l11,6.4 M343.9,144.5l47.8,27.6 M295.3,116.4l46.8,27.1 M342.8,134.9h0.1h0.2h0.2l0.2,0.1 M343.5,135
	l0.2,0.1l0.2,0.2l0.1,0.2l0.2,0.2l0.1,0.3l0.1,0.2l0.1,0.3v0.2 M344.5,143.7v-7 M344.5,143.7v0.2l-0.1,0.2l-0.1,0.1l-0.1,0.1
	 M304.3,98.5l-9,17.9 M428.1,161.3l2.5-1.6l1.9-1.9l1.4-2l0.9-2.2 M432.9,140.9l-1.6,0.5l-2,0.7l-2.2,1.1l-2.5,1.4 M437.4,155.1
	l-4.5-14.2 M430.3,162.6l2.4-1.6l2.1-1.8l1.5-2l1.1-2.1 M441,158.9l0.3,1.4l0.2,2l-0.3,2.1l-0.7,2l-1.1,1.9l-1.6,1.7l-1.9,1.7
	l-2.2,1.5 M382.6,143.7l-78.3-45.2 M324.4,63.8l78.3,45.2 M324.4,63.8l-2.4,1.6l-2.4,1.8l-2.3,2.2l-2.2,2.4l-2.1,2.7l-1.9,2.8
	l-1.7,3l-1.5,3l-1.3,3.1l-1,3.1l-0.7,3.1l-0.4,3l-0.2,2.9 M382.6,143.7l0.2-2.9l0.4-3l0.7-3l1-3.2l1.3-3.1l1.5-3l1.7-3l1.9-2.8
	l2.1-2.7l2.2-2.4l2.3-2.2l2.4-1.8l2.4-1.6 M421,133.2l-1.2-3.3l-1.5-3.3l-1.7-3.1l-2-3.1l-2.1-2.8l-2.3-2.6l-2.5-2.3l-2.5-2
	l-2.5-1.7 M424.6,144.6l-2.7,1.7l-2.9,1.8l-3.1,2.1l-3.1,2.3 M421,133.2l3.6,11.4 M421,133.2l-2.6,1.4l-2.8,1.3l-2.9,1.3l-3.1,1.3
	l-3.3,1.1l-3.2,1l-3.3,0.9l-3.2,0.8l-3.2,0.6l-3,0.4l-2.8,0.3l-2.6,0.2l-2.4-0.1 M391.7,172.1l-9.1-28.4 M433.7,173.2l-2.6,1.3
	l-2.8,1.1l-3.1,0.9l-3.3,0.6l-3.5,0.4l-3.5,0.2l-3.6-0.1l-3.6-0.4l-3.5-0.6l-3.4-0.8l-3.3-1l-3-1.3l-2.8-1.4 M430.3,162.6l3.4,10.6
	 M417.3,166.7l3.7-0.7l3.4-0.9l3.1-1.1l2.8-1.4 M412.8,152.5l4.5,14.2 M408.5,219.3l-0.1-1.6l-0.5-1.3l-0.7-1l-0.9-0.7l-1.1-0.4
	h-1.3l-1.4,0.4l-1.4,0.7l-1.4,1.1l-1.3,1.3l-1.2,1.6l-1,1.7l-0.8,1.8l-0.6,1.9l-0.3,1.7v1.7l0.3,1.4l0.6,1.2l0.8,0.9l1,0.5l1.2,0.2
	l1.3-0.2l1.4-0.6l1.4-0.9l1.4-1.2l1.3-1.4l1.1-1.7l0.9-1.8l0.7-1.8l0.5-1.8L408.5,219.3 M406.1,212.9l0.2,0.1 M395,232.7l-0.1-0.1
	 M386.5,229.7l0.1,2.1l0.4,1.9l0.7,1.7l0.9,1.3l1.2,1.1l1.3,0.7l1.6,0.4l1.7,0.1l1.8-0.4l1.9-0.7l1.9-1l1.8-1.3l1.9-1.6l1.7-1.9
	l1.7-2.1l1.4-2.2l1.3-2.4l1-2.4l0.9-2.5l0.5-2.4l0.3-2.3v-2.2l-0.3-2l-0.5-1.8l-0.9-1.6l-1-1.2l-1.3-0.9l-1.4-0.5l-1.7-0.2l-1.7,0.1
	l-1.9,0.5l-1.8,0.9l-1.9,1.1l-1.9,1.5l-1.8,1.8l-1.7,1.9l-1.6,2.2l-1.3,2.3l-1.2,2.4l-0.9,2.5L387,225l-0.4,2.4L386.5,229.7
	 M388.7,238.8h-0.1 M367.2,287.2l0.3,0.4l0.6,0.4l1,0.2l1.3,0.1l1.6-0.1l1.9-0.2l2.2-0.4l2.3-0.6l2.6-0.6l2.6-0.9l2.7-0.9l2.7-1
	l1.9-0.8 M406.4,273.6L406.4,273.6l0.4-0.8l0.1-0.7v-0.3 M391.1,284.2l0.2,0.3l0.6,0.4l1,0.2h1.3l1.6-0.1l1.9-0.3l2.2-0.5l2.3-0.6
	l2.5-0.7l2.5-0.9l2.5-1l2.5-1l2.5-1.1l2.2-1.1l2-1.1l1.8-1.1l1.5-1.1l1.2-0.9l0.8-0.9l0.5-0.8l0.1-0.6l-0.1-0.2 M391.5,282l-0.5,0.8
	l-0.2,0.6l0.3,0.6l0.6,0.3l1,0.2l1.3,0.1l1.6-0.2l1.9-0.2l2.2-0.5l2.3-0.6l2.5-0.8l2.5-0.8l2.5-1l2.5-1l2.4-1.1l2.3-1.1l2-1.1
	l1.8-1.1l1.5-1.1l1.2-1l0.8-0.8l0.5-0.8l0.1-0.7l-0.4-0.4l-0.7-0.4l-1-0.2h-1.4l-1.7,0.2l-2,0.3l-2.1,0.5l-2.4,0.7l-2.5,0.7
	l-2.5,0.9l-2.6,1 M405.3,274l0.9-0.9l0.4-0.9l0.1-0.7l-0.2-0.5l-0.7-0.4l-1-0.3h-1.3h-1.6l-1.9,0.3l-2.2,0.4l-2.3,0.5l-2.6,0.7
	l-2.6,0.8l-2.7,0.9l-2.7,1.1l-2.7,1.1l-2.6,1.1l-2.4,1.2l-2.3,1.2l-2,1.2l-1.8,1.1l-1.5,1.1l-1.2,1l-0.8,1l-0.5,0.8l-0.1,0.7
	l0.3,0.5l0.6,0.4l1,0.3l1.3,0.1l1.6-0.1l1.9-0.2l2.2-0.4l2.3-0.6l2.6-0.7l2.6-0.8l2.7-0.9l2.7-1l2.7-1.1 M306.7,338.2l-3.1,0.6
	l-3.2,1.1l-3.1,1.8l-2.9,2.2 M294,358.8v3.7 M339.2,370.9v4.6 M356.2,375.5v-4.6 M381.7,395.4v4.6 M398.7,397.2v-1.8 M421.4,429.9
	l16.1-9.2 M307.2,295.4v3.2 M344.6,292.6l0.1-0.1 M345.4,316l-1.1-0.5l-0.5-0.1l-0.4,0.1l-0.3,0.2l-0.2,0.4l-0.2,0.5v0.6
	 M343.5,317.2l0.1-0.6l0.1-0.2l0.1-0.1l0.2-0.1l0.2,0.1l0.8,0.4 M371.8,331.2l-12.8-7.4l-13.6-7.8 M345,316.7l12.8,7.4l13.6,7.8
	 M374.1,334.8l-0.1-0.9l-0.2-0.6l-0.3-0.6l-0.3-0.5l-0.5-0.4l-0.9-0.6 M371.4,331.9l0.7,0.5l0.4,0.3l0.3,0.4l0.2,0.4l0.1,0.4
	l0.1,0.9 M403.3,316.4l-3,1.7l-3,1.8 M414.9,336v2.3 M420.6,338.3V336 M435.6,344.9v-3.3 M338.6,62.4l-3.4-1.7l-3.5-1.1l-3.6-0.8
	l-3.7-0.2l-3.7,0.2l-3.7,0.8l-3.5,1.1l-3.3,1.7 M299.1,74.2l-12.4,24.5 M310.2,62.4l-1.7,1.1l-1.7,1.2l-1.6,1.3l-1.4,1.5l-1.4,1.5
	l-1.2,1.7l-1.2,1.7l-0.9,1.8 M342.1,143.1v0.2v0.2l0.1,0.1l0.1,0.2l0.1,0.2l0.1,0.1l0.1,0.1l0.2,0.1 M342.8,144.3l0.1,0.1l0.2,0.1
	h0.2h0.2h0.2h0.2l0.1-0.1l0.2-0.1 M342.1,136.2v6.9 M342.8,134.9l-0.2,0.1l-0.1,0.2l-0.1,0.1l-0.1,0.1l-0.1,0.2l-0.1,0.2v0.2v0.2
	 M416.9,107.6l-78.3-45.2 M429.7,123.6l-0.9-2.5l-1.1-2.4l-1.4-2.2l-1.5-2.1l-1.8-2l-1.9-1.8l-2-1.6l-2.2-1.4 M441,158.9l-11.3-35.3
	 M335.9,201.3l0.1,1.2l0.2,2.1l0.6,1.9l0.8,1.7l1.1,1.4l1.3,1.1l0.7,0.4 M360.3,176.7l-0.5-0.3l-1.5-0.6l-1.7-0.2l-1.8,0.1l-1.8,0.4
	l-1.9,0.7l-2,1.1l-1.9,1.3l-1.8,1.6l-1.8,1.8l-1.6,2l-1.5,2.2l-1.3,2.3l-1.1,2.4l-0.9,2.4l-0.7,2.4l-0.4,2.4l-0.2,2.2v0.4
	 M408.9,218.7v-0.9l-0.3-1.6l-0.6-1.4l-0.8-1l-1.1-0.9 M394.9,232.6l0.3,0.2l1.2,0.3l1.4,0.1l1.4-0.2l1.4-0.6l1.5-0.9l1.4-1.2
	l1.3-1.4l1.2-1.6l1.1-1.7l0.8-1.8l0.6-1.8l0.3-1.9l0.1-1.4 M340.5,211l48.1,27.8 M408.4,204.4l-48.1-27.8 M388.7,238.8l0.8,0.4
	l1.6,0.5l1.7,0.1l1.8-0.2l1.9-0.5l1.9-0.8l1.9-1.2l1.9-1.4l1.9-1.7l1.7-1.8l1.6-2.1l1.4-2.2l1.2-2.4l1.1-2.4l0.8-2.4l0.6-2.4
	l0.3-2.4l0.1-2.3l-0.2-2.1l-0.4-2l-0.8-1.8l-1-1.5l-1.2-1.2l-1-0.6 M367,286.7l0.2,0.5 M406.9,271.8l-0.2-0.5 M390.9,283.7l0.2,0.5
	 M424.7,271.1l-0.2-0.5"/>
<path class="st0" d="M149.2,371.6v-0.1v-0.1v-0.1 M135.4,383.1l-0.5,0.6l-0.6,0.7l-0.5,0.9l-0.2,0.9 M133.6,386.2h0.1 M133.7,386.2
	h-0.1 M133.6,386.3L133.6,386.3l-0.1,0.1 M149.2,371.6l-3.3,5.8 M158.4,373.1l-3.9-2.3 M159.7,373.3h-0.1h-0.1 M144.1,376.6h0.1
	v-0.1h0.1h0.1 M149,379.5v-0.1l0.1-0.1h0.1 M154.7,374.2L154.7,374.2h-0.1 M149.8,379.1l-0.1-0.1 M189.8,402.2l-0.1,0.1v0.2v0.1
	 M189.8,402.2v0.5 M199.4,411.1v-14.5 M205.3,399.6l-0.3-0.1 M155.1,370.6l-0.3-0.1 M205.9,427.8h-0.3l-0.2-0.1 M205.2,427.4
	l0.7,0.4 M215.5,422.3l-15.2-8.7 M205.4,400.3l-0.7-0.5 M209.9,406.6l-0.1-0.4 M199.8,397v15 M200.1,413l15,8.6 M189.7,402.7
	L189.7,402.7h-0.1l-0.1,0.1 M194.6,405.5L194.6,405.5h-0.1h-0.1v0.1h-0.1 M210.4,406.4V406v-0.3 M199.9,412.4L199.9,412.4v0.1h-0.1
	h-0.1 M205.2,427.4h-0.1v0.1H205v0.1h-0.1 M143.7,313.4l0.1-0.1l0.9-0.3l0.9-0.2l0.9-0.1l1.1,0.1l1,0.3l1.1,0.4l1.1,0.6
	 M140.8,331.4l-0.9-1.1l-0.7-1.2l-0.7-1.2l-0.5-1.2l-0.3-1.2l-0.2-1.3l-0.1-1.2l0.1-1.2l0.2-1.1l0.4-1.1l0.5-1 M150.8,314.1l1.1-0.6
	l1-0.4l1-0.3l1-0.1h0.9l0.9,0.2l0.8,0.3l0.4,0.2 M198.6,341.6l1-0.5l1.1-0.4l1-0.3l1-0.1h0.9l0.9,0.1l0.8,0.3l0.4,0.2 M207.5,353.2
	l1-0.6l0.9-0.6l0.8-0.6l0.6-0.6l0.5-0.5l0.4-0.5l0.2-0.5l0.1-0.4v-0.3 M133.6,386.2L133.6,386.2h-0.1h-0.1v0.1 M154.2,370.2l0.6,0.3
	 M154.5,370.8l-0.8-0.4l-0.8-0.2l-0.8-0.1h-0.7l-0.7,0.1l-0.5,0.4l-0.5,0.4l-0.5,0.6 M154.5,370.8L154.5,370.8v-0.1v-0.1h0.1v-0.1
	h0.1h0.1 M135.4,395.5l-0.9-0.6l-0.9-0.7l-0.7-0.7l-0.6-0.7l-0.4-0.8l-0.3-0.7l-0.2-0.8v-0.8l0.2-0.7l0.3-0.8l0.1-0.2 M138.8,377.4
	l-5.3,9 M133.4,386.3L133.4,386.3v0.2h0.1v-0.1 M133.4,386.3l0.1-0.8l0.3-0.7l0.5-0.7l0.6-0.6l0.7-0.6 M138.8,377.4L138.8,377.4
	 M144.1,376.6l-0.8-0.4l-0.8-0.2l-0.8-0.2l-0.7,0.1l-0.7,0.1l-0.6,0.3l-0.5,0.5l-0.4,0.6 M138.8,377.4l-0.1,0.9v1l0.2,1l0.3,1l0.4,1
	l0.5,1l0.6,0.9l0.7,0.9 M135.4,395.5l27.6,16 M141.4,385.1l-6,10.4 M163,411.5l0.5-0.3 M163,397.6v13.9 M163.5,411.2l6.6,3.7
	 M163.5,394.1v17.1 M199.8,397L199.8,397h-0.1l-0.1-0.1l-0.1-0.2l-0.1-0.1 M215.1,421.6l0.1,0.1l0.1,0.2l0.1,0.3l0.1,0.1
	 M203.8,422.6h-0.3 M200.1,396.7L200.1,396.7H200h-0.1v0.1l-0.1,0.1v0.1 M199.3,396.3L199.3,396.3L199.3,396.3l0.1,0.2v0.1
	 M215.7,422.4L215.7,422.4l-0.1-0.1h-0.1 M205,399.5L205,399.5h-0.1l-0.1,0.1l-0.1,0.1v0.1 M205,399.5l0.8,0.5l0.8,0.7l0.8,0.7
	l0.8,0.9l0.6,1l0.6,1l0.5,1l0.5,1.1 M199.4,396.6l-0.5-0.1l-0.6-0.1l-0.5,0.1h-0.7l-0.6,0.2l-0.6,0.2l-0.6,0.3l-0.7,0.3
	 M194.4,397.2L194.4,397.2h0.1v0.1l0.1,0.1v0.1 M189.8,402.2L189.8,402.2l-0.1-0.1h-0.1V402h-0.1 M194.6,397.5l-0.6,0.4l-0.7,0.5
	l-0.6,0.5l-0.6,0.6l-0.6,0.6l-0.6,0.7l-0.6,0.7l-0.5,0.7 M159.7,373.4h0.1v-0.1L159.7,373.4 M159.7,373.4l-0.6-0.2h-0.6h-0.6h-0.6
	l-0.6,0.2l-0.7,0.2l-0.6,0.3l-0.7,0.3 M194.4,397.2l0.7-0.4l0.6-0.3l0.7-0.2l0.6-0.1l0.6-0.1h0.6h0.6l0.5,0.2 M200.1,396.7v-0.1
	h-0.2l-0.1-0.1l-0.3-0.2h-0.2 M200.1,396.7l4.9,2.8 M154.8,370.5l4.9,2.8 M210.4,406.4L210.4,406.4l-0.2,0.1h-0.1H210v0.1h-0.1
	 M215.6,421.4L215.6,421.4l-0.1,0.1h-0.1l-0.1,0.1h-0.1h-0.1 M203.5,422.7L203.5,422.7l0.8-0.2l0.7-0.2l0.6-0.3l0.5-0.4l0.3-0.4
	l0.2-0.5l0.1-0.5l-0.1-0.4l-0.3-0.5l-0.4-0.4l-0.5-0.3 M205.4,418.6l-0.6-0.3l-0.7-0.3l-0.8-0.1l-0.8-0.1l-0.7,0.1 M212.5,426.1
	l1-0.6l0.8-0.7l0.6-0.8l0.4-0.8l0.2-0.9 M205.9,427.8L205.9,427.8v0.2v0.1 M212.5,426.1v0.1h0.1v0.1h0.1v0.1 M205.9,427.8l1.5-0.1
	l1.4-0.2l1.4-0.4l1.2-0.4l1.1-0.6 M215.1,421.6l-5.2-15 M209.8,406.2l-0.3-0.7l-0.5-1l-0.6-1l-0.7-0.9l-0.7-0.8l-0.7-0.8l-0.8-0.6
	l-0.1-0.1 M204.7,399.8l-4.9-2.8 M189.7,402.7L189.7,402.7 M170.1,415.5v-13.9 M170.1,415.5l27.6,15.9 M170.1,401.6v-0.4v-0.4v-0.5
	l0.1-0.4v-0.4l0.1-0.5l0.1-0.4l0.2-0.5 M191.7,414.1l-21.6-12.5 M194.3,405.6l-4.8-2.8 M189.5,402l-0.1,0.2l-0.1,0.2v0.2l0.1,0.1
	l0.1,0.1 M189.5,402l0.5-0.8l0.6-0.7l0.6-0.7l0.6-0.6l0.6-0.6l0.7-0.6l0.6-0.4l0.7-0.4 M154.7,374.2l39.7,23 M154.7,374.2l-0.6,0.5
	l-0.7,0.4l-0.7,0.6l-0.6,0.6l-0.6,0.6l-0.6,0.7l-0.6,0.7l-0.5,0.8 M149,379.5L149,379.5h0.2l0.1-0.1l0.3-0.1l0.2-0.2 M149,379.5
	l-4.9-2.9 M144.1,376.6l-0.6,1.1l-0.5,1l-0.5,1.1l-0.4,1.1l-0.3,1.1l-0.2,1.1l-0.1,1l-0.1,1 M163,397.6l-21.6-12.5 M163.5,394.1
	l-0.1,0.4l-0.1,0.5l-0.1,0.4v0.5l-0.1,0.4v0.4l-0.1,0.4v0.5 M170.6,398.1l-7.1-4 M215.7,422.4L215.7,422.4v-0.5l-0.1-0.3v-0.2
	 M215.7,422.4l-0.1,0.8l-0.3,0.7l-0.5,0.7l-0.6,0.6l-0.7,0.6l-0.8,0.6 M217.5,426.2v0.2l0.2,0.8v0.8l-0.2,0.7l-0.3,0.8l-0.4,0.7
	l-0.6,0.6l-0.7,0.6l-0.9,0.6 M210.4,406.4l5.2,15 M199.7,412.5l-0.4-1l-0.6-1.1l-0.6-1l-0.6-0.9l-0.8-0.9l-0.7-0.8l-0.8-0.6
	l-0.9-0.6 M194.3,405.6l-0.6,1.1l-0.5,1l-0.5,1.1l-0.3,1.1L192,411l-0.2,1.1l-0.1,1v1 M212.7,426.4l1.9,5.6 M212.7,426.4l-0.9,0.4
	l-1.1,0.5l-1.1,0.3l-1.2,0.3l-1.2,0.1l-1.3,0.1 M204.9,427.6L204.9,427.6l0.1,0.2l0.3,0.2l0.3,0.1h0.3 M204.9,427.6l-5.2-15.1
	 M191.7,414.1h0.8l0.8-0.1l1-0.1l1-0.2l1-0.2l1.1-0.3l1.1-0.3l1.2-0.4 M197.7,431.4l-6-17.3 M214.6,432l-0.9,0.5l-1.1,0.4l-1.1,0.3
	l-1.2,0.3l-1.3,0.2h-1.3h-1.3H205l-1.3-0.2l-1.4-0.3l-1.2-0.3l-1.2-0.4l-1.2-0.5l-1-0.6 M135.8,340.1l-1.1-0.7l-0.9-0.7L133,338
	l-0.7-0.8l-0.6-0.8l-0.4-0.9l-0.3-0.8l-0.2-0.9V333l0.1-0.8l0.3-0.9l0.3-0.5 M163.8,356.7L163.8,356.7 M163.8,356.7v-8.1
	 M163.8,356.7l0.3,0.2l0.3,0.2l0.3,0.1h0.3l0.2-0.1 M164.2,347.2l-0.2,0.2l-0.1,0.2l-0.1,0.3v0.3v0.4 M163.8,348.6l0.3-0.2l0.3-0.1
	l0.3-0.2l0.3-0.2l0.2-0.1 M165.2,357.1l28.4,16.4 M135.8,340.1l28,16.2 M165.2,347.8l-1-0.6 M165.2,357.1v-9.3 M140.8,331.4l-5,8.7
	 M188.6,359l-47.8-27.6 M150.8,314.1l47.8,27.5 M140.8,331.4l0.1-1.2l0.1-1.3l0.3-1.3l0.4-1.4l0.5-1.3l0.5-1.4l0.7-1.3l0.7-1.3
	l0.8-1.2l0.9-1.2l1-1.1l0.9-1l1-0.9l1.1-0.8l1-0.6 M218.3,366.9l0.1,0.4l0.2,0.9v0.8l-0.1,0.8l-0.3,0.8l-0.4,0.8l-0.6,0.8l-0.7,0.7
	l-0.8,0.6l-0.9,0.6 M198.6,341.6l1.1,0.7l1.1,0.9l1,0.9l1.1,1.1l0.9,1.2l1,1.3l0.8,1.3l0.7,1.4l0.7,1.4l0.5,1.4 M188.6,359v-1.3
	l0.2-1.2l0.2-1.4l0.4-1.3l0.5-1.4l0.6-1.3l0.6-1.3l0.8-1.3l0.8-1.3l0.9-1.1l0.9-1.1l1-1l1-0.9l1-0.8l1.1-0.7 M193.6,373.5l-5-14.5
	 M214.8,374.1l-1,0.6l-1.2,0.4l-1.2,0.4l-1.3,0.4l-1.4,0.2l-1.4,0.2h-1.4h-1.5l-1.5-0.1l-1.4-0.1l-1.5-0.3l-1.4-0.3l-1.4-0.4
	l-1.3-0.5l-1.2-0.5l-1.1-0.6 M207.5,353.2l7.3,20.9 M188.6,359h0.9l1.1-0.1l1.2-0.2l1.3-0.2l1.3-0.3l1.3-0.3l1.4-0.4l1.4-0.4
	l1.4-0.5l1.4-0.5l1.4-0.5l1.3-0.6l1.3-0.6l1.1-0.6l1.1-0.6 M133.6,386.3L133.6,386.3 M149.2,371.3l-3.5,6 M155.1,370.6H155l-0.1-0.1
	h-0.1l-0.1-0.1l-0.2-0.1h-0.1l-0.1-0.1h-0.1 M154.5,370.3h-0.1l-0.8-0.4l-0.7-0.2h-0.8h-0.7l-0.6,0.2l-0.6,0.3l-0.5,0.4l-0.4,0.5
	l-0.1,0.2 M138.8,377.3l-5.2,9 M159.7,373.4L159.7,373.4l-0.1-0.1 M133.9,384.7L132,388 M144.4,376.5l-0.4-0.2l-0.8-0.3l-0.8-0.3
	h-0.7H141l-0.6,0.2l-0.6,0.3l-0.5,0.4l-0.4,0.5l-0.1,0.2 M159.6,373.3l-0.4-0.1l-0.7-0.1h-0.1 M158.4,373.1l-0.8,0.1l-0.8,0.1
	l-0.9,0.3L155,374l-0.4,0.2 M149.2,379.3l-4.8-2.8 M149.7,379l-0.1,0.1l-0.1,0.1l-0.1,0.1h-0.1h-0.1 M154.6,374.2l-0.5,0.3l-0.9,0.6
	l-0.8,0.8l-0.9,0.8l-0.8,0.9l-0.7,1l-0.3,0.4 M210.4,405.7l-0.4-0.9l-0.4-0.9L209,403l-0.6-0.8l-0.7-0.7l-0.7-0.7l-0.8-0.6l-0.9-0.6
	 M189.7,402.7L189.7,402.7v-0.1 M205.3,399.6l-50.2-29 M205.4,427.7l-0.1-0.1l-0.1-0.1v-0.1h-0.1 M194.6,405.5l-4.9-2.8
	 M199.9,412.4l-0.2-0.5l-0.4-1l-0.5-1l-0.6-0.9l-0.6-0.8l-0.7-0.8l-0.7-0.7l-0.8-0.7l-0.7-0.4l-0.1-0.1 M217.5,426.2l-7.1-20.5
	 M205.2,427.4l-5.3-15 M157.9,313.4l-1.3-0.7l-1.4-0.5l-1.4-0.4l-1.5-0.3h-1.5h-1.5l-1.4,0.3l-1.4,0.4l-1.4,0.5l-1.4,0.7
	 M138.6,318.6l-7.1,12.2 M143.7,313.4l-0.7,0.5l-0.8,0.5l-0.7,0.6l-0.7,0.6l-0.6,0.7l-0.6,0.7l-0.6,0.8l-0.4,0.8 M163.8,356.7
	l0.4,0.3 M163.8,348.1v8.6 M205.7,340.9l-47.8-27.5 M212,348.6l-0.5-1.2l-0.6-1.1l-0.6-1.1l-0.8-1l-0.8-1l-1-0.8l-1-0.8l-1-0.7
	 M218.3,366.9l-6.3-18.3"/>
<g>
	<rect x="471" y="80" class="st1" width="101" height="15"/>
	<path d="M471.8,87.2c0.5,0.3,1.2,0.5,1.9,0.5c1.1,0,1.7-0.6,1.7-1.4c0-0.8-0.4-1.2-1.5-1.6c-1.3-0.5-2.1-1.2-2.1-2.3
		c0-1.3,1-2.2,2.6-2.2c0.8,0,1.4,0.2,1.8,0.4l-0.3,0.9c-0.3-0.1-0.8-0.4-1.5-0.4c-1.1,0-1.5,0.7-1.5,1.2c0,0.8,0.5,1.1,1.6,1.6
		c1.4,0.5,2.1,1.2,2.1,2.4c0,1.2-0.9,2.3-2.8,2.3c-0.8,0-1.6-0.2-2.1-0.5L471.8,87.2z"/>
	<path d="M478.5,85.8c0,1.4,0.9,2,2,2c0.8,0,1.2-0.1,1.6-0.3l0.2,0.8c-0.4,0.2-1,0.4-1.9,0.4c-1.8,0-2.9-1.2-2.9-2.9
		c0-1.8,1-3.1,2.7-3.1c1.9,0,2.4,1.7,2.4,2.7c0,0.2,0,0.4,0,0.5H478.5z M481.5,85.1c0-0.7-0.3-1.7-1.5-1.7c-1.1,0-1.5,1-1.6,1.7
		H481.5z"/>
	<path d="M483.9,84.3c0-0.6,0-1.1,0-1.6h0.9l0.1,1h0c0.3-0.6,1-1.1,1.9-1.1c0.8,0,2.1,0.5,2.1,2.5v3.5h-1.1v-3.3
		c0-0.9-0.3-1.7-1.3-1.7c-0.7,0-1.2,0.5-1.4,1.1c0,0.1-0.1,0.3-0.1,0.5v3.5h-1.1V84.3z"/>
	<path d="M490.4,87.4c0.3,0.2,0.9,0.4,1.4,0.4c0.8,0,1.1-0.4,1.1-0.9c0-0.5-0.3-0.8-1.1-1.1c-1-0.4-1.5-0.9-1.5-1.6
		c0-0.9,0.8-1.7,2-1.7c0.6,0,1.1,0.2,1.4,0.4l-0.3,0.8c-0.2-0.1-0.6-0.3-1.2-0.3c-0.6,0-1,0.4-1,0.8c0,0.5,0.3,0.7,1.1,1
		c1,0.4,1.5,0.9,1.5,1.8c0,1-0.8,1.7-2.2,1.7c-0.6,0-1.2-0.2-1.6-0.4L490.4,87.4z"/>
	<path d="M500.5,85.6c0,2.1-1.5,3.1-2.9,3.1c-1.6,0-2.8-1.2-2.8-3c0-1.9,1.3-3.1,2.9-3.1C499.4,82.6,500.5,83.8,500.5,85.6z
		 M495.9,85.6c0,1.3,0.7,2.2,1.8,2.2c1,0,1.8-0.9,1.8-2.3c0-1-0.5-2.2-1.7-2.2C496.5,83.4,495.9,84.5,495.9,85.6z"/>
	<path d="M501.9,84.5c0-0.7,0-1.3,0-1.8h0.9l0,1.1h0c0.3-0.8,0.9-1.3,1.6-1.3c0.1,0,0.2,0,0.3,0v1c-0.1,0-0.2,0-0.4,0
		c-0.7,0-1.3,0.6-1.4,1.4c0,0.1,0,0.3,0,0.5v3.1h-1V84.5z"/>
	<path d="M514,88.3c-0.4,0.2-1.2,0.4-2.1,0.4c-2.3,0-4-1.4-4-4.1c0-2.5,1.7-4.2,4.2-4.2c1,0,1.6,0.2,1.9,0.4l-0.3,0.9
		c-0.4-0.2-1-0.3-1.6-0.3c-1.9,0-3.2,1.2-3.2,3.3c0,2,1.1,3.3,3.1,3.3c0.6,0,1.3-0.1,1.7-0.3L514,88.3z"/>
	<path d="M520.4,85.6c0,2.1-1.5,3.1-2.9,3.1c-1.6,0-2.8-1.2-2.8-3c0-1.9,1.3-3.1,2.9-3.1C519.3,82.6,520.4,83.8,520.4,85.6z
		 M515.8,85.6c0,1.3,0.7,2.2,1.8,2.2c1,0,1.8-0.9,1.8-2.3c0-1-0.5-2.2-1.7-2.2C516.4,83.4,515.8,84.5,515.8,85.6z"/>
	<path d="M522.1,82.7l1.1,3.3c0.2,0.5,0.3,1,0.5,1.5h0c0.1-0.5,0.3-1,0.5-1.5l1.1-3.3h1.1l-2.3,5.8h-1l-2.2-5.8H522.1z"/>
	<path d="M527.9,85.8c0,1.4,0.9,2,2,2c0.8,0,1.2-0.1,1.6-0.3l0.2,0.8c-0.4,0.2-1,0.4-1.9,0.4c-1.8,0-2.9-1.2-2.9-2.9
		c0-1.8,1-3.1,2.7-3.1c1.9,0,2.4,1.7,2.4,2.7c0,0.2,0,0.4,0,0.5H527.9z M531,85.1c0-0.7-0.3-1.7-1.5-1.7c-1.1,0-1.5,1-1.6,1.7H531z"
		/>
	<path d="M533.3,84.5c0-0.7,0-1.3,0-1.8h0.9l0,1.1h0c0.3-0.8,0.9-1.3,1.6-1.3c0.1,0,0.2,0,0.3,0v1c-0.1,0-0.2,0-0.4,0
		c-0.7,0-1.3,0.6-1.4,1.4c0,0.1,0,0.3,0,0.5v3.1h-1V84.5z"/>
</g>
<g>
	<rect x="466" y="209.5" class="st1" width="101" height="15"/>
	<path d="M466.9,210c0.5-0.1,1.2-0.2,1.9-0.2c1,0,1.7,0.2,2.2,0.6c0.4,0.3,0.7,0.8,0.7,1.4c0,0.8-0.5,1.5-1.4,1.8v0
		c0.8,0.2,1.7,0.8,1.7,2c0,0.7-0.3,1.2-0.7,1.6c-0.6,0.5-1.5,0.8-2.8,0.8c-0.7,0-1.3,0-1.6-0.1V210z M468,213.4h0.9
		c1.1,0,1.8-0.6,1.8-1.4c0-0.9-0.7-1.3-1.8-1.3c-0.5,0-0.8,0-0.9,0.1V213.4z M468,217.2c0.2,0,0.5,0,0.9,0c1.1,0,2.1-0.4,2.1-1.6
		c0-1.1-0.9-1.6-2.1-1.6H468V217.2z"/>
	<path d="M476.6,218l-0.1-0.7h0c-0.3,0.5-0.9,0.9-1.8,0.9c-1.2,0-1.8-0.8-1.8-1.7c0-1.4,1.2-2.2,3.5-2.2v-0.1c0-0.5-0.1-1.3-1.3-1.3
		c-0.5,0-1.1,0.2-1.5,0.4l-0.2-0.7c0.5-0.3,1.2-0.5,1.9-0.5c1.8,0,2.2,1.2,2.2,2.4v2.2c0,0.5,0,1,0.1,1.4H476.6z M476.4,215.1
		c-1.2,0-2.5,0.2-2.5,1.3c0,0.7,0.5,1,1,1c0.8,0,1.2-0.5,1.4-1c0-0.1,0.1-0.2,0.1-0.3V215.1z"/>
	<path d="M480.4,210.5v1.7h1.5v0.8h-1.5v3.1c0,0.7,0.2,1.1,0.8,1.1c0.3,0,0.5,0,0.6-0.1l0,0.8c-0.2,0.1-0.5,0.1-0.9,0.1
		c-0.5,0-0.9-0.2-1.1-0.4c-0.3-0.3-0.4-0.8-0.4-1.5V213h-0.9v-0.8h0.9v-1.4L480.4,210.5z"/>
	<path d="M484.4,210.5v1.7h1.5v0.8h-1.5v3.1c0,0.7,0.2,1.1,0.8,1.1c0.3,0,0.5,0,0.6-0.1l0,0.8c-0.2,0.1-0.5,0.1-0.9,0.1
		c-0.5,0-0.9-0.2-1.1-0.4c-0.3-0.3-0.4-0.8-0.4-1.5V213h-0.9v-0.8h0.9v-1.4L484.4,210.5z"/>
	<path d="M487.6,215.3c0,1.4,0.9,2,2,2c0.8,0,1.2-0.1,1.6-0.3l0.2,0.8c-0.4,0.2-1,0.4-1.9,0.4c-1.8,0-2.9-1.2-2.9-2.9
		c0-1.8,1-3.1,2.7-3.1c1.9,0,2.4,1.7,2.4,2.7c0,0.2,0,0.4,0,0.5H487.6z M490.7,214.6c0-0.7-0.3-1.7-1.5-1.7c-1.1,0-1.5,1-1.6,1.7
		H490.7z"/>
	<path d="M493,214c0-0.7,0-1.3,0-1.8h0.9l0,1.1h0c0.3-0.8,0.9-1.3,1.6-1.3c0.1,0,0.2,0,0.3,0v1c-0.1,0-0.2,0-0.4,0
		c-0.7,0-1.3,0.6-1.4,1.4c0,0.1,0,0.3,0,0.5v3.1h-1V214z"/>
	<path d="M497.6,212.2l1.3,3.4c0.1,0.4,0.3,0.8,0.4,1.2h0c0.1-0.3,0.2-0.8,0.4-1.2l1.2-3.4h1.1l-1.6,4.1c-0.8,2-1.3,3-2,3.6
		c-0.5,0.5-1,0.6-1.3,0.7l-0.3-0.9c0.3-0.1,0.6-0.3,0.9-0.5c0.3-0.2,0.6-0.6,0.9-1.2c0-0.1,0.1-0.2,0.1-0.3c0-0.1,0-0.1-0.1-0.3
		l-2.1-5.3H497.6z"/>
</g>
<g>
	<rect x="461" y="271" class="st1" width="101" height="15"/>
	<path d="M461.9,271.5c0.5-0.1,1.2-0.2,1.9-0.2c1,0,1.7,0.2,2.2,0.6c0.4,0.3,0.7,0.8,0.7,1.4c0,0.8-0.5,1.5-1.4,1.8v0
		c0.8,0.2,1.7,0.8,1.7,2c0,0.7-0.3,1.2-0.7,1.6c-0.6,0.5-1.5,0.8-2.8,0.8c-0.7,0-1.3,0-1.6-0.1V271.5z M463,274.9h0.9
		c1.1,0,1.8-0.6,1.8-1.4c0-0.9-0.7-1.3-1.8-1.3c-0.5,0-0.8,0-0.9,0.1V274.9z M463,278.7c0.2,0,0.5,0,0.9,0c1.1,0,2.1-0.4,2.1-1.6
		c0-1.1-0.9-1.6-2.1-1.6H463V278.7z"/>
	<path d="M471.6,279.5l-0.1-0.7h0c-0.3,0.5-0.9,0.9-1.8,0.9c-1.2,0-1.8-0.8-1.8-1.7c0-1.4,1.2-2.2,3.5-2.2v-0.1
		c0-0.5-0.1-1.3-1.3-1.3c-0.5,0-1.1,0.2-1.5,0.4l-0.2-0.7c0.5-0.3,1.2-0.5,1.9-0.5c1.8,0,2.2,1.2,2.2,2.4v2.2c0,0.5,0,1,0.1,1.4
		H471.6z M471.4,276.6c-1.2,0-2.5,0.2-2.5,1.3c0,0.7,0.5,1,1,1c0.8,0,1.2-0.5,1.4-1c0-0.1,0.1-0.2,0.1-0.3V276.6z"/>
	<path d="M475.4,272v1.7h1.5v0.8h-1.5v3.1c0,0.7,0.2,1.1,0.8,1.1c0.3,0,0.5,0,0.6-0.1l0,0.8c-0.2,0.1-0.5,0.1-0.9,0.1
		c-0.5,0-0.9-0.2-1.1-0.4c-0.3-0.3-0.4-0.8-0.4-1.5v-3.2h-0.9v-0.8h0.9v-1.4L475.4,272z"/>
	<path d="M479.4,272v1.7h1.5v0.8h-1.5v3.1c0,0.7,0.2,1.1,0.8,1.1c0.3,0,0.5,0,0.6-0.1l0,0.8c-0.2,0.1-0.5,0.1-0.9,0.1
		c-0.5,0-0.9-0.2-1.1-0.4c-0.3-0.3-0.4-0.8-0.4-1.5v-3.2h-0.9v-0.8h0.9v-1.4L479.4,272z"/>
	<path d="M482.6,276.8c0,1.4,0.9,2,2,2c0.8,0,1.2-0.1,1.6-0.3l0.2,0.8c-0.4,0.2-1,0.4-1.9,0.4c-1.8,0-2.9-1.2-2.9-2.9
		c0-1.8,1-3.1,2.7-3.1c1.9,0,2.4,1.7,2.4,2.7c0,0.2,0,0.4,0,0.5H482.6z M485.7,276.1c0-0.7-0.3-1.7-1.5-1.7c-1.1,0-1.5,1-1.6,1.7
		H485.7z"/>
	<path d="M488,275.5c0-0.7,0-1.3,0-1.8h0.9l0,1.1h0c0.3-0.8,0.9-1.3,1.6-1.3c0.1,0,0.2,0,0.3,0v1c-0.1,0-0.2,0-0.4,0
		c-0.7,0-1.3,0.6-1.4,1.4c0,0.1,0,0.3,0,0.5v3.1h-1V275.5z"/>
	<path d="M492.6,273.7l1.3,3.4c0.1,0.4,0.3,0.8,0.4,1.2h0c0.1-0.3,0.2-0.8,0.4-1.2l1.2-3.4h1.1l-1.6,4.1c-0.8,2-1.3,3-2,3.6
		c-0.5,0.5-1,0.6-1.3,0.7l-0.3-0.9c0.3-0.1,0.6-0.3,0.9-0.5c0.3-0.2,0.6-0.6,0.9-1.2c0-0.1,0.1-0.2,0.1-0.3c0-0.1,0-0.1-0.1-0.3
		l-2.1-5.3H492.6z"/>
	<path d="M501.5,272.3H499v-0.9h6v0.9h-2.5v7.2h-1.1V272.3z"/>
	<path d="M508.3,279.5l-0.1-0.7h0c-0.3,0.5-0.9,0.9-1.8,0.9c-1.2,0-1.8-0.8-1.8-1.7c0-1.4,1.2-2.2,3.5-2.2v-0.1
		c0-0.5-0.1-1.3-1.3-1.3c-0.5,0-1.1,0.2-1.5,0.4l-0.2-0.7c0.5-0.3,1.2-0.5,1.9-0.5c1.8,0,2.2,1.2,2.2,2.4v2.2c0,0.5,0,1,0.1,1.4
		H508.3z M508.2,276.6c-1.2,0-2.5,0.2-2.5,1.3c0,0.7,0.5,1,1,1c0.8,0,1.2-0.5,1.4-1c0-0.1,0.1-0.2,0.1-0.3V276.6z"/>
	<path d="M510.9,279.5c0-0.4,0-1,0-1.5v-7h1v3.6h0c0.4-0.6,1-1.1,2-1.1c1.4,0,2.5,1.2,2.4,3c0,2.1-1.3,3.1-2.6,3.1
		c-0.8,0-1.5-0.3-1.9-1.1h0l0,1H510.9z M512,277.2c0,0.1,0,0.3,0,0.4c0.2,0.7,0.8,1.2,1.6,1.2c1.1,0,1.8-0.9,1.8-2.2
		c0-1.2-0.6-2.2-1.7-2.2c-0.7,0-1.4,0.5-1.6,1.3c0,0.1-0.1,0.3-0.1,0.4V277.2z"/>
</g>
<g>
	<rect x="466" y="332.5" class="st1" width="101" height="15"/>
	<path d="M466.8,339.7c0.5,0.3,1.2,0.5,1.9,0.5c1.1,0,1.7-0.6,1.7-1.4c0-0.8-0.4-1.2-1.5-1.6c-1.3-0.5-2.1-1.2-2.1-2.3
		c0-1.3,1-2.2,2.6-2.2c0.8,0,1.4,0.2,1.8,0.4l-0.3,0.9c-0.3-0.1-0.8-0.4-1.5-0.4c-1.1,0-1.5,0.7-1.5,1.2c0,0.8,0.5,1.1,1.6,1.6
		c1.4,0.5,2.1,1.2,2.1,2.4c0,1.2-0.9,2.3-2.8,2.3c-0.8,0-1.6-0.2-2.1-0.5L466.8,339.7z"/>
	<path d="M473.5,338.3c0,1.4,0.9,2,2,2c0.8,0,1.2-0.1,1.6-0.3l0.2,0.8c-0.4,0.2-1,0.4-1.9,0.4c-1.8,0-2.9-1.2-2.9-2.9
		c0-1.8,1-3.1,2.7-3.1c1.9,0,2.4,1.7,2.4,2.7c0,0.2,0,0.4,0,0.5H473.5z M476.5,337.6c0-0.7-0.3-1.7-1.5-1.7c-1.1,0-1.5,1-1.6,1.7
		H476.5z"/>
	<path d="M478.9,336.8c0-0.6,0-1.1,0-1.6h0.9l0.1,1h0c0.3-0.6,1-1.1,1.9-1.1c0.8,0,2.1,0.5,2.1,2.5v3.5h-1.1v-3.3
		c0-0.9-0.3-1.7-1.3-1.7c-0.7,0-1.2,0.5-1.4,1.1c0,0.1-0.1,0.3-0.1,0.5v3.5h-1.1V336.8z"/>
	<path d="M485.4,339.9c0.3,0.2,0.9,0.4,1.4,0.4c0.8,0,1.1-0.4,1.1-0.9c0-0.5-0.3-0.8-1.1-1.1c-1-0.4-1.5-0.9-1.5-1.6
		c0-0.9,0.8-1.7,2-1.7c0.6,0,1.1,0.2,1.4,0.4l-0.3,0.8c-0.2-0.1-0.6-0.3-1.2-0.3c-0.6,0-1,0.4-1,0.8c0,0.5,0.3,0.7,1.1,1
		c1,0.4,1.5,0.9,1.5,1.8c0,1-0.8,1.7-2.2,1.7c-0.6,0-1.2-0.2-1.6-0.4L485.4,339.9z"/>
	<path d="M495.5,338.1c0,2.1-1.5,3.1-2.9,3.1c-1.6,0-2.8-1.2-2.8-3c0-1.9,1.3-3.1,2.9-3.1C494.4,335.1,495.5,336.3,495.5,338.1z
		 M490.9,338.1c0,1.3,0.7,2.2,1.8,2.2c1,0,1.8-0.9,1.8-2.3c0-1-0.5-2.2-1.7-2.2C491.5,335.9,490.9,337,490.9,338.1z"/>
	<path d="M496.9,337c0-0.7,0-1.3,0-1.8h0.9l0,1.1h0c0.3-0.8,0.9-1.3,1.6-1.3c0.1,0,0.2,0,0.3,0v1c-0.1,0-0.2,0-0.4,0
		c-0.7,0-1.3,0.6-1.4,1.4c0,0.1,0,0.3,0,0.5v3.1h-1V337z"/>
	<path d="M503.4,333c0.5-0.1,1.2-0.2,1.9-0.2c1,0,1.7,0.2,2.2,0.6c0.4,0.3,0.7,0.8,0.7,1.4c0,0.8-0.5,1.5-1.4,1.8v0
		c0.8,0.2,1.7,0.8,1.7,2c0,0.7-0.3,1.2-0.7,1.6c-0.6,0.5-1.5,0.8-2.8,0.8c-0.7,0-1.3,0-1.6-0.1V333z M504.4,336.4h0.9
		c1.1,0,1.8-0.6,1.8-1.4c0-0.9-0.7-1.3-1.8-1.3c-0.5,0-0.8,0-0.9,0.1V336.4z M504.4,340.2c0.2,0,0.5,0,0.9,0c1.1,0,2.1-0.4,2.1-1.6
		c0-1.1-0.9-1.6-2.1-1.6h-0.9V340.2z"/>
	<path d="M515.1,338.1c0,2.1-1.5,3.1-2.9,3.1c-1.6,0-2.8-1.2-2.8-3c0-1.9,1.3-3.1,2.9-3.1C514,335.1,515.1,336.3,515.1,338.1z
		 M510.5,338.1c0,1.3,0.7,2.2,1.8,2.2c1,0,1.8-0.9,1.8-2.3c0-1-0.5-2.2-1.7-2.2C511.1,335.9,510.5,337,510.5,338.1z"/>
	<path d="M521.5,332.5v7c0,0.5,0,1.1,0,1.5h-0.9l0-1h0c-0.3,0.6-1,1.1-2,1.1c-1.4,0-2.5-1.2-2.5-3c0-1.9,1.2-3.1,2.6-3.1
		c0.9,0,1.5,0.4,1.8,0.9h0v-3.5H521.5z M520.4,337.6c0-0.1,0-0.3,0-0.4c-0.2-0.7-0.7-1.2-1.5-1.2c-1.1,0-1.7,1-1.7,2.2
		c0,1.2,0.6,2.1,1.7,2.1c0.7,0,1.4-0.5,1.5-1.3c0-0.1,0-0.3,0-0.5V337.6z"/>
	<path d="M523.6,335.2l1.3,3.4c0.1,0.4,0.3,0.8,0.4,1.2h0c0.1-0.3,0.2-0.8,0.4-1.2l1.2-3.4h1.1l-1.6,4.1c-0.8,2-1.3,3-2,3.6
		c-0.5,0.5-1,0.6-1.3,0.7l-0.3-0.9c0.3-0.1,0.6-0.3,0.9-0.5c0.3-0.2,0.6-0.6,0.9-1.2c0-0.1,0.1-0.2,0.1-0.3c0-0.1,0-0.1-0.1-0.3
		l-2.1-5.3H523.6z"/>
</g>
<g>
	<rect x="466" y="439.7" class="st1" width="101" height="15"/>
	<path d="M466.8,446.9c0.5,0.3,1.2,0.5,1.9,0.5c1.1,0,1.7-0.6,1.7-1.4c0-0.8-0.4-1.2-1.5-1.6c-1.3-0.5-2.1-1.2-2.1-2.3
		c0-1.3,1-2.2,2.6-2.2c0.8,0,1.4,0.2,1.8,0.4l-0.3,0.9c-0.3-0.1-0.8-0.4-1.5-0.4c-1.1,0-1.5,0.7-1.5,1.2c0,0.8,0.5,1.1,1.6,1.6
		c1.4,0.5,2.1,1.2,2.1,2.4c0,1.2-0.9,2.3-2.8,2.3c-0.8,0-1.6-0.2-2.1-0.5L466.8,446.9z"/>
	<path d="M473.5,445.5c0,1.4,0.9,2,2,2c0.8,0,1.2-0.1,1.6-0.3l0.2,0.8c-0.4,0.2-1,0.4-1.9,0.4c-1.8,0-2.9-1.2-2.9-2.9
		c0-1.8,1-3.1,2.7-3.1c1.9,0,2.4,1.7,2.4,2.7c0,0.2,0,0.4,0,0.5H473.5z M476.5,444.8c0-0.7-0.3-1.7-1.5-1.7c-1.1,0-1.5,1-1.6,1.7
		H476.5z"/>
	<path d="M478.9,444c0-0.6,0-1.1,0-1.6h0.9l0.1,1h0c0.3-0.6,1-1.1,1.9-1.1c0.8,0,2.1,0.5,2.1,2.5v3.5h-1.1v-3.3
		c0-0.9-0.3-1.7-1.3-1.7c-0.7,0-1.2,0.5-1.4,1.1c0,0.1-0.1,0.3-0.1,0.5v3.5h-1.1V444z"/>
	<path d="M485.4,447.1c0.3,0.2,0.9,0.4,1.4,0.4c0.8,0,1.1-0.4,1.1-0.9c0-0.5-0.3-0.8-1.1-1.1c-1-0.4-1.5-0.9-1.5-1.6
		c0-0.9,0.8-1.7,2-1.7c0.6,0,1.1,0.2,1.4,0.4l-0.3,0.8c-0.2-0.1-0.6-0.3-1.2-0.3c-0.6,0-1,0.4-1,0.8c0,0.5,0.3,0.7,1.1,1
		c1,0.4,1.5,0.9,1.5,1.8c0,1-0.8,1.7-2.2,1.7c-0.6,0-1.2-0.2-1.6-0.4L485.4,447.1z"/>
	<path d="M495.5,445.3c0,2.1-1.5,3.1-2.9,3.1c-1.6,0-2.8-1.2-2.8-3c0-1.9,1.3-3.1,2.9-3.1C494.4,442.3,495.5,443.5,495.5,445.3z
		 M490.9,445.3c0,1.3,0.7,2.2,1.8,2.2c1,0,1.8-0.9,1.8-2.3c0-1-0.5-2.2-1.7-2.2C491.5,443.1,490.9,444.2,490.9,445.3z"/>
	<path d="M496.9,444.2c0-0.7,0-1.3,0-1.8h0.9l0,1.1h0c0.3-0.8,0.9-1.3,1.6-1.3c0.1,0,0.2,0,0.3,0v1c-0.1,0-0.2,0-0.4,0
		c-0.7,0-1.3,0.6-1.4,1.4c0,0.1,0,0.3,0,0.5v3.1h-1V444.2z"/>
	<path d="M503.4,440.2c0.5-0.1,1.2-0.2,1.9-0.2c1,0,1.7,0.2,2.2,0.6c0.4,0.3,0.7,0.8,0.7,1.4c0,0.8-0.5,1.5-1.4,1.8v0
		c0.8,0.2,1.7,0.8,1.7,2c0,0.7-0.3,1.2-0.7,1.6c-0.6,0.5-1.5,0.8-2.8,0.8c-0.7,0-1.3,0-1.6-0.1V440.2z M504.4,443.6h0.9
		c1.1,0,1.8-0.6,1.8-1.4c0-0.9-0.7-1.3-1.8-1.3c-0.5,0-0.8,0-0.9,0.1V443.6z M504.4,447.4c0.2,0,0.5,0,0.9,0c1.1,0,2.1-0.4,2.1-1.6
		c0-1.1-0.9-1.6-2.1-1.6h-0.9V447.4z"/>
	<path d="M513.1,448.2l-0.1-0.7h0c-0.3,0.5-0.9,0.9-1.8,0.9c-1.2,0-1.8-0.8-1.8-1.7c0-1.4,1.2-2.2,3.5-2.2v-0.1
		c0-0.5-0.1-1.3-1.3-1.3c-0.5,0-1.1,0.2-1.5,0.4l-0.2-0.7c0.5-0.3,1.2-0.5,1.9-0.5c1.8,0,2.2,1.2,2.2,2.4v2.2c0,0.5,0,1,0.1,1.4
		H513.1z M512.9,445.3c-1.2,0-2.5,0.2-2.5,1.3c0,0.7,0.5,1,1,1c0.8,0,1.2-0.5,1.4-1c0-0.1,0.1-0.2,0.1-0.3V445.3z"/>
	<path d="M515.5,447.1c0.3,0.2,0.9,0.4,1.4,0.4c0.8,0,1.1-0.4,1.1-0.9c0-0.5-0.3-0.8-1.1-1.1c-1-0.4-1.5-0.9-1.5-1.6
		c0-0.9,0.8-1.7,2-1.7c0.6,0,1.1,0.2,1.4,0.4l-0.3,0.8c-0.2-0.1-0.6-0.3-1.2-0.3c-0.6,0-1,0.4-1,0.8c0,0.5,0.3,0.7,1.1,1
		c1,0.4,1.5,0.9,1.5,1.8c0,1-0.8,1.7-2.2,1.7c-0.6,0-1.2-0.2-1.6-0.4L515.5,447.1z"/>
	<path d="M521,445.5c0,1.4,0.9,2,2,2c0.8,0,1.2-0.1,1.6-0.3l0.2,0.8c-0.4,0.2-1,0.4-1.9,0.4c-1.8,0-2.9-1.2-2.9-2.9
		c0-1.8,1-3.1,2.7-3.1c1.9,0,2.4,1.7,2.4,2.7c0,0.2,0,0.4,0,0.5H521z M524.1,444.8c0-0.7-0.3-1.7-1.5-1.7c-1.1,0-1.5,1-1.6,1.7
		H524.1z"/>
</g>
<g>
	<rect x="29.8" y="392" class="st1" width="101" height="15"/>
	<path d="M37.5,397c-0.1-1.1-0.1-2.5-0.1-3.5h0c-0.3,0.9-0.6,2-1,3.1l-1.4,3.9h-0.8l-1.3-3.9c-0.4-1.1-0.7-2.2-0.9-3.1h0
		c0,1-0.1,2.4-0.2,3.6l-0.2,3.5h-1l0.6-8.1h1.3l1.4,3.9c0.3,1,0.6,1.9,0.8,2.7h0c0.2-0.8,0.5-1.7,0.9-2.7l1.4-3.9h1.3l0.5,8.1h-1
		L37.5,397z"/>
	<path d="M43.6,400.5l-0.1-0.7h0c-0.3,0.5-0.9,0.9-1.8,0.9c-1.2,0-1.8-0.8-1.8-1.7c0-1.4,1.2-2.2,3.5-2.2v-0.1
		c0-0.5-0.1-1.3-1.3-1.3c-0.5,0-1.1,0.2-1.5,0.4l-0.2-0.7c0.5-0.3,1.2-0.5,1.9-0.5c1.8,0,2.2,1.2,2.2,2.4v2.2c0,0.5,0,1,0.1,1.4
		H43.6z M43.5,397.6c-1.2,0-2.5,0.2-2.5,1.3c0,0.7,0.5,1,1,1c0.8,0,1.2-0.5,1.4-1c0-0.1,0.1-0.2,0.1-0.3V397.6z"/>
	<path d="M51.2,394.7c0,0.4,0,0.9,0,1.6v3.4c0,1.3-0.3,2.1-0.8,2.7c-0.6,0.5-1.4,0.7-2.1,0.7c-0.7,0-1.5-0.2-1.9-0.5l0.3-0.8
		c0.4,0.2,1,0.5,1.7,0.5c1.1,0,1.9-0.6,1.9-2v-0.6h0c-0.3,0.5-0.9,1-1.8,1c-1.4,0-2.5-1.2-2.5-2.8c0-2,1.3-3.1,2.6-3.1
		c1,0,1.6,0.5,1.8,1h0l0-0.9H51.2z M50.1,397c0-0.2,0-0.3-0.1-0.5c-0.2-0.6-0.7-1.1-1.5-1.1c-1,0-1.7,0.9-1.7,2.2
		c0,1.1,0.6,2.1,1.7,2.1c0.6,0,1.2-0.4,1.5-1.1c0.1-0.2,0.1-0.4,0.1-0.6V397z"/>
	<path d="M52.8,396.3c0-0.6,0-1.1,0-1.6h0.9l0.1,1h0c0.3-0.6,1-1.1,1.9-1.1c0.8,0,2.1,0.5,2.1,2.5v3.5h-1.1v-3.3
		c0-0.9-0.3-1.7-1.3-1.7c-0.7,0-1.2,0.5-1.4,1.1c0,0.1-0.1,0.3-0.1,0.5v3.5h-1.1V396.3z"/>
	<path d="M60.1,397.8c0,1.4,0.9,2,2,2c0.8,0,1.2-0.1,1.6-0.3l0.2,0.8c-0.4,0.2-1,0.4-1.9,0.4c-1.8,0-2.9-1.2-2.9-2.9
		c0-1.8,1-3.1,2.7-3.1c1.9,0,2.4,1.7,2.4,2.7c0,0.2,0,0.4,0,0.5H60.1z M63.2,397.1c0-0.7-0.3-1.7-1.5-1.7c-1.1,0-1.5,1-1.6,1.7H63.2
		z"/>
	<path d="M66.8,393v1.7h1.5v0.8h-1.5v3.1c0,0.7,0.2,1.1,0.8,1.1c0.3,0,0.5,0,0.6-0.1l0,0.8c-0.2,0.1-0.5,0.1-0.9,0.1
		c-0.5,0-0.9-0.2-1.1-0.4c-0.3-0.3-0.4-0.8-0.4-1.5v-3.2h-0.9v-0.8h0.9v-1.4L66.8,393z"/>
	<path d="M72,392.5c0.5-0.1,1.2-0.2,1.9-0.2c1,0,1.7,0.2,2.2,0.6c0.4,0.3,0.7,0.8,0.7,1.4c0,0.8-0.5,1.5-1.4,1.8v0
		c0.8,0.2,1.7,0.8,1.7,2c0,0.7-0.3,1.2-0.7,1.6c-0.6,0.5-1.5,0.8-2.8,0.8c-0.7,0-1.3,0-1.6-0.1V392.5z M73.1,395.9H74
		c1.1,0,1.8-0.6,1.8-1.4c0-0.9-0.7-1.3-1.8-1.3c-0.5,0-0.8,0-0.9,0.1V395.9z M73.1,399.7c0.2,0,0.5,0,0.9,0c1.1,0,2.1-0.4,2.1-1.6
		c0-1.1-0.9-1.6-2.1-1.6h-0.9V399.7z"/>
	<path d="M81.7,400.5l-0.1-0.7h0c-0.3,0.5-0.9,0.9-1.8,0.9c-1.2,0-1.8-0.8-1.8-1.7c0-1.4,1.2-2.2,3.5-2.2v-0.1
		c0-0.5-0.1-1.3-1.3-1.3c-0.5,0-1.1,0.2-1.5,0.4l-0.2-0.7c0.5-0.3,1.2-0.5,1.9-0.5c1.8,0,2.2,1.2,2.2,2.4v2.2c0,0.5,0,1,0.1,1.4
		H81.7z M81.6,397.6c-1.2,0-2.5,0.2-2.5,1.3c0,0.7,0.5,1,1,1c0.8,0,1.2-0.5,1.4-1c0-0.1,0.1-0.2,0.1-0.3V397.6z"/>
	<path d="M84.1,399.4c0.3,0.2,0.9,0.4,1.4,0.4c0.8,0,1.1-0.4,1.1-0.9c0-0.5-0.3-0.8-1.1-1.1c-1-0.4-1.5-0.9-1.5-1.6
		c0-0.9,0.8-1.7,2-1.7c0.6,0,1.1,0.2,1.4,0.4l-0.3,0.8c-0.2-0.1-0.6-0.3-1.2-0.3c-0.6,0-1,0.4-1,0.8c0,0.5,0.3,0.7,1.1,1
		c1,0.4,1.5,0.9,1.5,1.8c0,1-0.8,1.7-2.2,1.7c-0.6,0-1.2-0.2-1.6-0.4L84.1,399.4z"/>
	<path d="M89.6,397.8c0,1.4,0.9,2,2,2c0.8,0,1.2-0.1,1.6-0.3l0.2,0.8c-0.4,0.2-1,0.4-1.9,0.4c-1.8,0-2.9-1.2-2.9-2.9
		c0-1.8,1-3.1,2.7-3.1c1.9,0,2.4,1.7,2.4,2.7c0,0.2,0,0.4,0,0.5H89.6z M92.7,397.1c0-0.7-0.3-1.7-1.5-1.7c-1.1,0-1.5,1-1.6,1.7H92.7
		z"/>
</g>
<g>
	<rect x="37.8" y="295" class="st1" width="82.2" height="15.9"/>
	<path d="M45.5,300c-0.1-1.1-0.1-2.5-0.1-3.5h0c-0.3,0.9-0.6,2-1,3.1l-1.4,3.9h-0.8l-1.3-3.9c-0.4-1.1-0.7-2.2-0.9-3.1h0
		c0,1-0.1,2.4-0.2,3.6l-0.2,3.5h-1l0.6-8.1h1.3l1.4,3.9c0.3,1,0.6,1.9,0.8,2.7h0c0.2-0.8,0.5-1.7,0.9-2.7l1.4-3.9h1.3l0.5,8.1h-1
		L45.5,300z"/>
	<path d="M51.6,303.6l-0.1-0.7h0c-0.3,0.5-0.9,0.9-1.8,0.9c-1.2,0-1.8-0.8-1.8-1.7c0-1.4,1.2-2.2,3.5-2.2v-0.1
		c0-0.5-0.1-1.3-1.3-1.3c-0.5,0-1.1,0.2-1.5,0.4l-0.2-0.7c0.5-0.3,1.2-0.5,1.9-0.5c1.8,0,2.2,1.2,2.2,2.4v2.2c0,0.5,0,1,0.1,1.4
		H51.6z M51.5,300.6c-1.2,0-2.5,0.2-2.5,1.3c0,0.7,0.5,1,1,1c0.8,0,1.2-0.5,1.4-1c0-0.1,0.1-0.2,0.1-0.3V300.6z"/>
	<path d="M59.2,297.7c0,0.4,0,0.9,0,1.6v3.4c0,1.3-0.3,2.1-0.8,2.7c-0.6,0.5-1.4,0.7-2.1,0.7c-0.7,0-1.5-0.2-1.9-0.5l0.3-0.8
		c0.4,0.2,1,0.5,1.7,0.5c1.1,0,1.9-0.6,1.9-2v-0.6h0c-0.3,0.5-0.9,1-1.8,1c-1.4,0-2.5-1.2-2.5-2.8c0-2,1.3-3.1,2.6-3.1
		c1,0,1.6,0.5,1.8,1h0l0-0.9H59.2z M58.1,300c0-0.2,0-0.3-0.1-0.5c-0.2-0.6-0.7-1.1-1.5-1.1c-1,0-1.7,0.9-1.7,2.2
		c0,1.1,0.6,2.1,1.7,2.1c0.6,0,1.2-0.4,1.5-1.1c0.1-0.2,0.1-0.4,0.1-0.6V300z"/>
	<path d="M60.8,299.3c0-0.6,0-1.1,0-1.6h0.9l0.1,1h0c0.3-0.6,1-1.1,1.9-1.1c0.8,0,2.1,0.5,2.1,2.5v3.5h-1.1v-3.3
		c0-0.9-0.3-1.7-1.3-1.7c-0.7,0-1.2,0.5-1.4,1.1c0,0.1-0.1,0.3-0.1,0.5v3.5h-1.1V299.3z"/>
	<path d="M68.1,300.8c0,1.4,0.9,2,2,2c0.8,0,1.2-0.1,1.6-0.3l0.2,0.8c-0.4,0.2-1,0.4-1.9,0.4c-1.8,0-2.9-1.2-2.9-2.9
		c0-1.8,1-3.1,2.7-3.1c1.9,0,2.4,1.7,2.4,2.7c0,0.2,0,0.4,0,0.5H68.1z M71.2,300.1c0-0.7-0.3-1.7-1.5-1.7c-1.1,0-1.5,1-1.6,1.7H71.2
		z"/>
	<path d="M74.8,296.1v1.7h1.5v0.8h-1.5v3.1c0,0.7,0.2,1.1,0.8,1.1c0.3,0,0.5,0,0.6-0.1l0,0.8c-0.2,0.1-0.5,0.1-0.9,0.1
		c-0.5,0-0.9-0.2-1.1-0.4c-0.3-0.3-0.4-0.8-0.4-1.5v-3.2h-0.9v-0.8h0.9v-1.4L74.8,296.1z"/>
	<path d="M85.7,303.3c-0.4,0.2-1.2,0.4-2.1,0.4c-2.3,0-4-1.4-4-4.1c0-2.5,1.7-4.2,4.2-4.2c1,0,1.6,0.2,1.9,0.4l-0.3,0.9
		c-0.4-0.2-1-0.3-1.6-0.3c-1.9,0-3.2,1.2-3.2,3.3c0,2,1.1,3.3,3.1,3.3c0.6,0,1.3-0.1,1.7-0.3L85.7,303.3z"/>
	<path d="M92.1,300.6c0,2.1-1.5,3.1-2.9,3.1c-1.6,0-2.8-1.2-2.8-3c0-1.9,1.3-3.1,2.9-3.1C91,297.6,92.1,298.8,92.1,300.6z
		 M87.5,300.7c0,1.3,0.7,2.2,1.8,2.2c1,0,1.8-0.9,1.8-2.3c0-1-0.5-2.2-1.7-2.2C88,298.4,87.5,299.6,87.5,300.7z"/>
	<path d="M93.7,297.7l1.1,3.3c0.2,0.5,0.3,1,0.5,1.5h0c0.1-0.5,0.3-1,0.5-1.5l1.1-3.3h1.1l-2.3,5.8h-1l-2.2-5.8H93.7z"/>
	<path d="M99.6,300.8c0,1.4,0.9,2,2,2c0.8,0,1.2-0.1,1.6-0.3l0.2,0.8c-0.4,0.2-1,0.4-1.9,0.4c-1.8,0-2.9-1.2-2.9-2.9
		c0-1.8,1-3.1,2.7-3.1c1.9,0,2.4,1.7,2.4,2.7c0,0.2,0,0.4,0,0.5H99.6z M102.7,300.1c0-0.7-0.3-1.7-1.5-1.7c-1.1,0-1.5,1-1.6,1.7
		H102.7z"/>
	<path d="M105,299.6c0-0.7,0-1.3,0-1.8h0.9l0,1.1h0c0.3-0.8,0.9-1.3,1.6-1.3c0.1,0,0.2,0,0.3,0v1c-0.1,0-0.2,0-0.4,0
		c-0.7,0-1.3,0.6-1.4,1.4c0,0.1,0,0.3,0,0.5v3.1h-1V299.6z"/>
</g>
<line class="st2" x1="466" y1="87.5" x2="418" y2="116"/>
<line class="st2" x1="407.9" y1="222.8" x2="461" y2="217"/>
<line class="st2" x1="398" y1="278.5" x2="456" y2="278.5"/>
<line class="st2" x1="425.7" y1="345.2" x2="461" y2="340"/>
<line class="st2" x1="414" y1="420" x2="461" y2="441.2"/>
<line class="st2" x1="103" y1="399.5" x2="153.3" y2="392"/>
<line class="st1" x1="120" y1="303" x2="152" y2="324"/>
<line class="st2" x1="120" y1="303" x2="152" y2="324"/>
</svg>
