<?xml version="1.0" encoding="utf-8"?>
<!-- Generator: Adobe Illustrator 21.0.0, SVG Export Plug-In . SVG Version: 6.00 Build 0)  -->
<svg version="1.1" id="Layer_1" xmlns="http://www.w3.org/2000/svg" xmlns:xlink="http://www.w3.org/1999/xlink" x="0px" y="0px"
	 viewBox="0 0 614 505" style="enable-background:new 0 0 614 505;" xml:space="preserve">
<style type="text/css">
	.st0{fill:none;stroke:#000000;stroke-width:0.709;stroke-linecap:round;stroke-linejoin:round;stroke-miterlimit:10;}
	.st1{fill:none;stroke:#000000;stroke-miterlimit:10;}
</style>
<path class="st0" d="M409,279.1l0.7-0.4 M409.7,279.4l-0.4,0.2 M408.5,297.3v-16.7 M408.3,278.4l1.4-0.9 M390.8,321.8L390.8,321.8
	h-0.1 M401,326.9L401,326.9v-0.2v-0.1v-0.1l0.1-0.1l0.1-0.1 M370.5,344.1L370.5,344.1h-0.1l-0.1,0.1 M328.6,351.7l22.9-13.2
	 M337.6,361.1l-3.2-1.1l-4.4-2.9 M330,357.1l-1.4-1.4 M342.8,360.1L342.8,360.1h-0.1h-0.1 M270.5,376.2l-0.1,0.1l0.2,0.3l0.3,0.2
	 M280.5,361.1L280.5,361.1h-0.1v0.1h-0.1l-0.1,0.1 M279.8,360.5L279.8,360.5h0.2v-0.1h0.1 M280.2,361.3l-2.4,1.4 M328.6,353.5
	l0.2,0.2 M330.5,356.5l-1.9-1.9 M330,365.5l8.6-4.9 M339.7,360.7l-9.6,5.6 M330.3,367.7l13.4-7.7 M398.7,325.9l28.2-16.3 M331,376.2
	l105.5-60.9 M280.5,362.3l-1.7,0.9 M409.7,280.5l-0.2,0.1 M409.5,280.6v9.2 M331.1,341.4l-5,2.9 M343.1,334.4l-9.6,5.6 M280.9,375.5
	v0.8 M279.9,376.3V375 M305,382.4v0.5 M280.4,363.2v0.1v0.1h0.1 M279.9,364.2l0.1-0.1l0.5-0.7 M280.4,363.1L280.4,363.1v0.1l0.1,0.1
	h0.1 M280.2,364.2H280l-0.1,0.1 M278.5,365.1L278.5,365.1l0.4-0.1 M447.2,316.4L447.2,316.4l0.1-0.1v-0.1l0.1-0.1V316 M307.9,370.9
	l4.4,2.5 M293.4,381.6l-0.1,0.3v0.2h-0.1 M292.2,381.6v0.3l0.1,0.2h0.1 M307.5,371.6l4.3,2.5 M288.1,355.1l0.7,0.5l0.6,1.5
	 M304.6,365.9v0.1l-0.1,0.1v0.1l-0.1,0.1 M296.6,367.6l1.2-1.8l1.4-1.4l1.5-0.8l1.4-0.3l0.7,0.2 M438.6,295.8l-0.2-7.7 M433.8,310.6
	l-103.2,59.6 M328.3,359.5l-0.1-7.8 M331,375.3l105.1-60.7 M408,240.5L408,240.5 M408.3,234.7L408.3,234.7l-0.2,0.3l-0.1,0.3v0.2
	v0.2l0.1,0.2 M415.6,242.5l0.1-0.2l0.2-0.2l0.2-0.1 M413.4,224v0.2l0.2,0.1l0.2,0.1h0.3h0.2l0.3-0.1l0.1-0.1l0.1-0.2 M416.4,222.3
	L416.4,222.3h-0.3 M416.1,222.3l-0.2,0.1l-0.2,0.3l-0.1,0.2v0.3v0.1 M421.2,242l1.4-0.3l1-0.8 M419.6,241.6l0.6,0.1 M421.3,230.4
	l1.7,1.6l1.3,2.3l0.9,2.7l0.2,2.6l-0.7,2.1l-1.4,1.3l-0.6,0.1 M432.8,249.5v0.1l-0.2,0.2 M432.6,249.8l-0.2,0.1h-0.3h-0.3l-0.2-0.1
	l-0.1-0.2l-0.1-0.1 M410.7,244.2h-0.2l-0.1,0.1l-0.2,0.1l-0.2,0.2l-0.1,0.3v0.2v0.2l0.1,0.2 M411.6,242.9L411.6,242.9 M432.8,232.1
	v0.2l-0.2,0.1 M432.6,232.4l-0.2,0.1h-0.3h-0.3l-0.2-0.1l-0.1-0.1l-0.1-0.1 M419.6,241.6l0.2-0.1h0.1 M415.1,232.5l-0.1,0.1
	 M411.9,235.2L411.9,235.2 M415.5,245.7l0.3-0.1 M409.5,237.7H409l-0.5,0.2 M408.3,245.5l0.5,0.5l0.7,0.4l0.6,0.3l0.7,0.2l0.7-0.1
	l0.4-0.2 M352.1,257.2L352.1,257.2l0.4-0.5l0.1-0.7 M352.6,256l-0.1-0.9l-0.3-0.7 M340.2,261.4l0.3,0.7l0.1,0.9 M340.6,263l-0.1,0.7
	l-0.4,0.4 M300.7,288.7L300.7,288.7l0.1,0.2l0.1,0.1l0.2,0.1h0.3h0.3l0.2-0.1 M301.9,289l0.2-0.1v-0.2 M300.3,287.9l0.1-0.2l0.1-0.2
	l0.1-0.3l0.2-0.1 M300.5,288.3L300.5,288.3l-0.1-0.1l-0.1-0.2 M300.8,287.1l0.2-0.1l0.2,0.1 M300.3,283.1L300.3,283.1 M300.7,282
	l-0.1,0.1l-0.2,0.2l-0.1,0.2 M300.7,282.1l0.1,0.2l0.1,0.1l0.2,0.1l0.3,0.1l0.3-0.1l0.2-0.1 M301.9,282.4l0.2-0.1v-0.2 M308.2,305.3
	L308.2,305.3L308.2,305.3L308,305l0.1-0.2l0.1-0.3l0.1-0.2l0.2-0.1l0.2-0.1h0.2 M305.8,286.3l0.1,0.1l0.1,0.1l0.3,0.1l0.2,0.1
	l0.3-0.1l0.2-0.1l0.2-0.1v-0.1 M315.1,295.5v-0.1v-0.3l0.1-0.2l0.2-0.2l0.2-0.2 M315.6,294.5l0.1-0.1l0.2,0.1 M315.6,296v-0.1v-0.1
	l0.1-0.2l0.1-0.3l0.2-0.2l0.2-0.1 M316.2,295l0.2-0.1h0.1h0.1 M315.8,296.4L315.8,296.4l0.1,0.2l0.2,0.1l0.2,0.1h0.3h0.2l0.3-0.1
	 M317.1,296.7l0.1-0.1l0.1-0.2 M315.1,293.2v-0.1v-0.2l0.1-0.3l0.2-0.2l0.2-0.1 M315.6,292.3L315.6,292.3l0.3-0.1 M315.9,302.1
	L315.9,302.1 M315.2,291.6L315.2,291.6l-0.1-0.1v-0.2V291l0.1-0.2l0.2-0.2l0.2-0.2 M315.6,290.4L315.6,290.4h0.3 M315.9,304
	L315.9,304 M325.3,311.7l-0.1,0.1l-0.1,0.2 M325.1,312l-0.3,0.1h-0.2h-0.3l-0.2-0.1l-0.2-0.2v-0.1 M325.3,294.3l-0.1,0.2l-0.1,0.1
	l-0.3,0.1h-0.2h-0.3l-0.2-0.1l-0.2-0.1v-0.1 M321.4,218.9l-0.6,0.2 M313.9,205.2l0.3-0.1l1.3-0.1l1.4,0.4l1.5,0.8l1.5,1.3l1.2,1.7
	l1.1,1.8l0.6,2l0.4,1.8l-0.1,1.7l-0.5,1.3l-0.9,1h-0.1 M325.6,215l-0.5-3l-0.6-1.7l-0.8-1.7l-1.1-1.5l-1.1-1.4l-2.4-1.9l-2.4-0.9
	h-1.2l-1,0.4l-0.9,0.7l-0.6,1l-0.2,1.2 M320.2,219.2l1.3,0.5l1.1-0.1l1.1-0.3l0.8-0.7l0.6-1.1l0.5-2.5 M310.4,192.5l0.2-0.1l1.9-0.6
	l2.2-0.2l2.3,0.4l2.4,0.9l2.5,1.4l2.4,1.9l2.3,2.3l2.2,2.7l1.9,2.8l1.6,3.1l1.3,3.2l1,3.2l0.5,3l0.1,3l-0.3,2.6l-0.8,2.3l-1.1,1.9
	l-1.4,1.4l-0.6,0.4 M450.9,86.3l0.7-0.6l0.6-0.6l0.3-1.2v-0.1 M277.2,134l0.1-0.4l0.2-0.3 M450.9,86.3v0.1l-0.1,0.1v0.1l-0.1,0.1
	 M267.4,147.1v0.2v0.1l0.1,0.1 M293.5,151.1l-0.2,0.1h-0.2l-0.4-0.1 M310.2,167.8L310.2,167.8l0.1-0.1l0.1-0.1v-0.1v-0.1
	 M302.4,167.4v0.1v0.1l0.1,0.1l0.1,0.1 M285.4,100.7l-2.8-1.3l-2.8-0.6h-2.7l-2.4,0.9l-0.2,0.1 M197.8,305.3h0.1v-0.1l0.1-0.1V305
	v-0.1 M184.5,301.9l0.1-0.2l0.8-0.6 M185.2,301.8l0.1,0.4l0.5,0.5l0.8,0.4h0.1 M189.7,287.2L189.7,287.2l-0.1,0.5l-0.4,0.4l-0.7,0.2
	l-0.7,0.1l-0.8-0.1l-0.7-0.2l-0.4-0.4l-0.1-0.4v-0.1 M117.1,342.5v0.2v0.1l0.1,0.1h0.1 M124.5,347.1L124.5,347.1l-0.1-0.1v-0.1v-0.2
	 M125.6,346.7v0.2l-0.1,0.1v0.1h-0.1 M127.1,335.3l0.1,0.5l0.5,0.5l0.8,0.4h0.1 M131.6,320.7L131.6,320.7l-0.1,0.6l-0.5,0.3
	l-0.6,0.3l-0.8,0.1l-0.7-0.1l-0.7-0.3l-0.4-0.3l-0.2-0.5l0.1-0.1 M180.2,236.1h0.1h0.1h0.1 M186.4,239.7h0.1l0.1-0.1h0.1v0.1
	 M130.6,280.8L130.6,280.8L130.6,280.8l-0.1-0.2v-0.1 M130.4,280.3v0.1l0.1,0.1 M130.5,265.3L130.5,265.3l-0.1-0.1v-0.1V265
	 M195,156.4L195,156.4h-0.1h-0.2h-0.2l-0.2,0.1 M203.9,188.5L203.9,188.5l0.1-0.1v-0.1l0.1-0.1v-0.1 M113.5,227.4L113.5,227.4h-0.1
	l-0.1-0.1v-0.2V227 M126,233.2L126,233.2l-0.1,0.2v0.1l-0.1,0.1 M124,233.2L124,233.2v0.2l0.1,0.1v0.1 M194.3,156.5l-1.1-0.4
	l-0.9,0.2h-0.1 M116.1,200.3l1-0.2l1.1,0.4 M407.5,287v0.1 M408.9,276.8l-0.1,0.8 M407.4,288.1v-0.3v-0.4l0.1-0.3 M407.8,279.2
	l-0.1-0.3l-0.1-0.3v-0.1l0.1-0.2v-0.1l0.1-0.1 M407.6,296.5l0.2-17.2 M409.3,279.6l-0.3-0.5 M408.4,280.1l-0.3-0.5 M408.1,279.6
	L408.1,279.6l0.2-0.1h0.1l0.1-0.1l0.1-0.1h0.2l0.1-0.1l0.1-0.1 M409,279.1l-0.2-0.2l-0.1-0.2l-0.2-0.2l-0.2-0.1 M407.8,279.2v-0.1
	V279l0.1-0.1v-0.2l0.1-0.1l0.1-0.1h0.1l0.1-0.1 M407.8,279.3L407.8,279.3 M407.8,279.3l0.2,0.1l0.1,0.2 M409.5,280.6l-0.1,0.1h-0.1
	h-0.1H409h-0.1h-0.1h-0.2l-0.1-0.1 M409.3,279.6l0.1,0.3l0.1,0.2v0.3v0.2 M408.4,280.1h0.1l0.1-0.1h0.1l0.1-0.1l0.1-0.1l0.1-0.1h0.1
	l0.2-0.1 M408.5,280.6v-0.2l-0.1-0.3 M411.3,276.1l-0.6-0.3 M410.7,275.8l-1.8,1 M408.9,276.8l0.6,0.3 M409.5,277.1l-1.7,1
	 M407.8,278.1l0.5,0.3 M411.6,276l-0.3,0.1 M418.8,280.5v0.1 M417.9,301.5l-1.2-0.6 M419.2,275.3l0.3-0.1h0.3l0.1,0.1 M422.1,277.5
	l-0.3-1 M421.8,276.5l-0.1-0.2l-0.3-0.2h-0.2l-0.4,0.1 M418.2,280.3l1.5,0.8 M416.7,284.1l1.5-3.8 M447.1,311.4l0.2,0.1l0.1,0.2
	l0.1,0.1v0.2v0.1l-0.1,0.2l-0.1,0.1l-0.2,0.1 M441,307.8l6.1,3.6 M395.9,319.4l2-1.1 M423,307.8l0.3-18.4 M423.3,289.4v-0.6l0.3-0.7
	 M425.2,284.2L425.2,284.2 M410.1,278.2l-0.2,19.3 M419.8,281.1h-0.1 M414.8,306.6v-25.7 M419.7,281.1l-1.5,3.8 M418.2,284.9
	l-0.3,0.7v0.7 M417.9,286.3v15.2 M417.9,301.5l-1.2,0.7 M416.7,302.2l-0.3-22.2 M423.6,288.1l1.5-3.8 M426.6,285.1l-1.5,3.8
	 M425.1,288.9l-0.2,0.7l-0.1,0.7 M424.8,290.3v18.5 M426.7,285l-0.1,0.1 M397.9,318.3l1.3-0.5l1.6-0.2l1.5,0.1l1.3,0.5l0.9,0.8
	l0.3,0.9l-0.1,0.5 M433.3,283.4l0.3-0.1h0.3l0.1,0.1 M411.2,304.5v-5.4 M436.1,285.6l-0.3-1 M434.9,284.3l0.3-0.1h0.3l0.2,0.2
	l0.1,0.2 M433.5,289.1l-1.5-0.8 M394.9,321.6l-0.1-0.5l0.3-0.9l0.8-0.8 M441.1,309.3V309v-0.4l-0.1-0.4 M437.8,295.4l1.8,1
	 M418.3,280.2l1.5,0.9 M418.3,280.3L418.3,280.3 M432.1,288.2l1.5,0.8 M415.8,275.7v3.9 M419.8,281.1v22.6 M425.2,284.2l1.5,0.8
	 M426.7,285v22.7 M439.6,296.4l1.4,11.8 M439.6,296.4l-1.8,1 M439.1,309.2l0.1,0.5v0.4v0.3 M439.1,309.2l-1.3-11.8 M437.8,297.4
	l-1.7-1 M431.8,288.9l0.2-0.6 M432.1,288.2L432.1,288.2 M396.3,315.1l-2,1.1 M396.3,315.1l1.6-0.7l1.9-0.4h1.9l1.9,0.3l1.6,0.7
	l1.2,0.9l0.6,1.1v1.2l-0.7,1l-1.2,0.9 M405.1,320.1l-2,1.2 M403.1,321.3l-1.5,0.7l-1.9,0.3h-1.9l-1.9-0.3l-1.6-0.7l-1.1-0.9
	l-0.6-1.1v-1.1l0.6-1.1l1.1-0.9 M410.4,319.1l0.3-1.3l-0.1-1.4l-0.8-1.3l-1.3-1.2l-1.7-0.9l-2.1-0.7l-2.3-0.4l-2.5-0.1l-2.3,0.3
	 M397.6,312.1l-8.1,4.7 M393.2,323.4l1.4,0.5l2.3,0.4l2.4,0.1l2.2-0.2 M389.5,316.8l-0.6,1.4l0.1,1.4l0.6,1.1 M426.7,307.7l0.2,0.1
	 M424.8,308.8l1.9-1.1 M423,307.8l1.8,1 M419.8,303.7l3.2,1.9 M414.8,306.6l5-2.9 M411.2,304.5l3.6,2.1 M398.2,312l13-7.5
	 M410.5,319l0.2-0.9l0.1-0.3 M387.3,318.3l2-1.2 M427.2,288.1l-0.4,22.5 M434.9,284.3l-0.5,0.3 M432.8,283.7l0.5-0.3 M432.8,283.7
	l-12.4-7.2 M420.8,276.2l-0.4,0.3 M418.8,275.6l0.4-0.3 M415.8,273.8l3,1.8 M410.1,277.1l-0.1,0.1l-0.2,0.2v0.1l-0.1,0.2l0.1,0.1
	v0.2l0.2,0.1l0.1,0.1 M414.8,280.9l-4.7-2.7 M414.8,280.9l1.6-0.9 M416.4,280l-4-2.3 M415.8,275.7l-3.4,2 M415.8,275.7l20.4,11.8
	 M432.8,289.5l3.4-2 M432.8,289.5l-4-2.4 M427.2,288.1l1.6-1 M427.2,288.1l4.6,2.6 M438.4,288.1l0.2-0.1l0.1-0.2l0.1-0.1l0.1-0.2
	l-0.1-0.2l-0.1-0.1l-0.1-0.2l-0.2-0.1 M438.4,286.9l-4-2.3 M398.8,325.9L398.8,325.9l-0.1-0.1v0.1 M433.8,290.7l-0.2,0.2h-0.2
	l-0.3,0.1h-0.3h-0.3l-0.2-0.1H432l-0.2-0.2 M431.8,290.7v19.4 M427.2,311.3v0.5 M384.7,315l2.6,3.4l3.5,3.4 M427.2,311.3
	L427.2,311.3l-0.1-0.3v-0.1l-0.1-0.1l-0.1-0.1l-0.1-0.1h-0.1l-0.1-0.1 M400.3,326h-0.1h-0.4 M402.2,325.8L402.2,325.8l-0.2,0.1
	 M407.9,296.7l0.4,0.8 M388.4,321.9v0.1 M353,332.9v0.2l0.1,0.2 M354.5,335.3l1.9,2.2 M333.1,332L333.1,332h-0.2 M340.8,327.4
	L340.8,327.4L340.8,327.4h0.3 M409.5,297l-0.1-0.1l0.1-0.1 M346,333.4L346,333.4L346,333.4h0.3 M332.6,332.2l0.1-0.2l0.1-0.1h0.1
	l0.2,0.1 M331.5,332.9h-0.2h-0.1h-0.1l-0.1,0.2 M351.4,333.3l0.1,0.1v0.1v0.1v0.1 M342.5,335.5l0.9-1.6 M358.3,339.3L358.3,339.3
	 M362.7,342.5l-4.4-3.1 M343.1,334.4l-0.3-2.8 M331.3,332.9L331.3,332.9h0.2 M397.3,326.8l0.1-0.1l0.1-0.2l0.2-0.1l0.2-0.1
	 M367.1,344.2v-0.1H367L367.1,344.2 M333.1,332L333.1,332 M331.5,332.9l1.6-0.9 M331.5,332.9L331.5,332.9 M324.2,337.2l7.3-4.3
	 M341.7,327.8l-0.6-0.4 M333.1,332l8-4.6 M342.1,328.4v-0.2L342,328l-0.1-0.1l-0.2-0.1 M324.8,337.6l16.9-9.8 M342.8,331.6l-0.7-3.2
	 M325.2,338.1l16.9-9.7 M342.8,331.6l-17,9.8 M399.2,327.4v0.5 M325.2,338.1l0.6,3.3 M324.8,337.6l0.1,0.1l0.2,0.1v0.2l0.1,0.1
	 M324.8,337.6l-0.6-0.4 M323.8,337.4L323.8,337.4l0.1-0.2l0.1-0.1l0.2,0.1 M323.7,343.9l0.1-6.5 M326.1,344.3l-0.3-2.9 M399.2,327.2
	v0.1v0.1 M399.2,327.2v-0.1l-0.1-0.1v-0.1v-0.1v-0.2v-0.1 M344.1,334.5L344.1,334.5h0.2h0.1 M334,340.4L334,340.4L334,340.4h0.3
	 M331.4,340.9l-0.9,1.5 M415.8,273.8l-5.7,3.3 M351.5,338.5l0.1,0.2v0.2l0.2,0.1l0.1,0.2 M351.9,339.2l0.7,0.4 M325.3,348.9
	l26.2-15.2 M351.5,333.7v4.8 M356.7,341.5l0.1,0.2l0.1,0.2l0.1,0.2l0.1,0.1 M356.7,340.2v1.3 M325.3,348.9l-0.2-0.1l-0.2-0.2
	 M356.7,340.2V340v-0.2l-0.1-0.1l-0.1-0.1 M328.7,353.4L328.7,353.4h0.1v-0.1v0.1v0.1v0.2 M330.6,355.2l0.1,0.2 M357.1,342.2
	l6.6,3.8 M335,358.5l-4.3-3.1 M365.6,345.1V345l0.1-0.1l0.1-0.1h0.1 M330,357.1V357l0.1-0.1v-0.1l0.1-0.1h0.1v-0.1l0.1-0.1h0.1
	 M367.6,345.7v0.5 M367.5,345.5l0.1,0.1v0.1 M367.5,345.5v-0.1v-0.1l-0.1-0.1v-0.1v-0.2v-0.2 M340.9,360.2L340.9,360.2l-0.4,0.1
	 M332.4,341.5l-0.2-0.1h-0.1 M332.4,341.5l-1-0.6 M410.2,297.6l-0.3-0.1 M409.5,297l0.1,0.2l0.3,0.3 M346.3,333.4l-1-0.6
	 M343.4,333.9l1.9-1.1 M344.4,334.5l-1-0.6 M333.2,339.8l1.1,0.6 M333.2,339.8l-1.8,1.1 M410.2,297.6v0.1h0.1l0.1,0.1v0.1
	 M329.4,360.9l0.3,0.7v1.1v0.2 M332.5,359.7l-3.8-2.3 M333.1,363.7l0.4-1.3l-0.2-1.4l-0.8-1.3 M324.9,344.6l0.4,0.8 M407.9,296.7
	l-64.8,37.4 M407.6,296.5l0.3,0.2 M407.3,296.2L407.3,296.2l0.1,0.2l0.2,0.1 M407.1,293.7l0.3,0.2 M299.9,359l-2.4,1.4 M324.9,344.6
	l-7.8,4.5 M323.7,343.9l1.2,0.7 M333.3,363.6l0.2-0.9v-0.3 M332.8,360.1l3.3,1.9 M342.6,331l64.5-37.3 M314.1,347.4l9.6-5.5
	 M294.6,358.7l5.4-3.1 M407.1,293.7l0.3-5.6 M279.6,359.9L279.6,359.9L279.6,359.9h-0.2h-0.1 M279.3,359.9l-0.2-0.1H279h-0.1h-0.1
	 M277.4,360.8h-0.2h-0.1 M276.1,360.7l0.3-0.2l0.3-0.1l0.3,0.2 M280.5,362.3V362l-0.1-0.2l-0.1-0.3l-0.1-0.2 M436.1,314.6v0.1v0.1
	l0.1,0.1v0.1l0.1,0.1l0.1,0.1v0.1h0.1 M274.2,362l0.1-0.3l0.2-0.2h0.3l0.4,0.1 M274.2,362l-1.2,7 M273,369l-0.1,1.4 M272.9,370.4
	l-0.1,0.9 M275.6,361.9l-0.2-0.1l-0.1,0.1 M280.2,361.3l-0.4-0.8 M383.5,314.8l-31,17.9 M351.4,333.3l-26.5,15.3 M368.2,344.3
	l2.1-0.1 M399.1,326.5l-30.9,17.8 M401.2,326.3l-2.1,0.2 M403.1,325.7l-1.9,0.6 M372.1,343.6l31-17.9 M370.3,344.2l1.8-0.6
	 M340.5,360.3l2.1-0.2 M367.4,344.7l-26.9,15.6 M369.6,344.6l-2.2,0.1 M371.4,344l-1.8,0.6 M344.4,359.5l27-15.5 M342.6,360.1
	l1.8-0.6 M356.5,339.6L330,354.9 M365.9,344.8l-3.1-0.9l-3.2-1.8l-3.1-2.5 M339.4,360.1l26.5-15.3 M334.9,358.5l4.5,1.6 M330,354.9
	l2.4,2l2.5,1.6 M328.8,353.7l26.5-15.3 M355.3,338.4l-1.4-1.6l-1.3-1.7l-1.2-1.8 M387.4,319.9l-2.2-2.5 M356.5,337.7l30.9-17.8
	 M354.3,335.2l2.2,2.5 M352.5,332.7l1.8,2.5 M385.2,317.4l-1.7-2.6 M367,344.2l30.9-17.9 M362.6,342.5l4.4,1.7 M357.6,338.9l2.5,2.1
	l2.5,1.5 M388.5,321.1l-30.9,17.8 M393.4,324.7l-2.4-1.6l-2.5-2 M397.9,326.3l-4.5-1.6 M322.6,350.3l-1.8,1 M338.6,360.6l-4-1.4
	l-4.1-2.7 M341.9,360.6l-2.2,0.1 M343.7,360l-1.8,0.6 M430.6,309.8l0.2-0.1 M403.8,325.3l26.8-15.5 M402,325.9l1.8-0.6 M399.8,326
	l2.2-0.1 M426.6,310.5L399.8,326 M426.8,310.6l-0.2-0.1 M390.7,321.8l4,2.7l4,1.4 M384.3,314.6l3.1,4l3.3,3.2 M411.2,299.1
	l-26.9,15.5 M410.4,297.9l0.3,0.4l0.2,0.4l0.3,0.4 M277,362.2l2.8-1.7 M279.8,360.5l-0.3-0.3l-0.2-0.3 M279.3,359.9l-1.8,1
	 M277.5,360.9L277.5,360.9 M277.5,360.8h-0.1 M431.1,309.7L431.1,309.7h-0.2h-0.1 M274.6,362.6L274.6,362.6l0.1-0.1v-0.1h0.1
	 M436.5,315.3l2.9,1.7 M306.2,339v3.8 M311.1,340.7l0.1,5 M310.2,345.1v-3.8 M431.8,310.1l-0.7-0.4 M431.8,310.1l0.2,0.1l0.3,0.1
	l0.3,0.1 M433.8,310.6L433.8,310.6h-0.2l-0.4-0.1l-0.4-0.1h-0.2 M303.9,357.9l0.2-0.5l0.3-0.5l0.3-0.5l0.3-0.4l0.4-0.3l0.4-0.3
	 M305.8,355.4l0.4-0.2 M275.6,361.8l0.8,0.1l0.6,0.3 M326.1,344.3v0.6 M302.4,363.2l1.5-5.3 M277,360.6l0.4,0.2 M277,360.6l-1.8,1
	 M275.6,361.9l-0.4-0.3 M275.6,361.8l1.8-1 M307.5,371.6L307.5,371.6l0.2-0.1l0.1-0.1v-0.1l0.1-0.1v-0.1V371v-0.1 M307.9,356.2
	l-0.3,0.2 M307.6,356.4l-0.4,0.3l-0.4,0.4l-0.3,0.4l-0.3,0.4l-0.3,0.5l-0.2,0.6 M305.7,359l-1.6,5.8 M280.4,363.1L280.4,363.1
	 M330.9,373v-0.4l-0.1-0.4v-0.4 M327.6,359.1l1.7,1 M322.6,348.5l-0.1,3.8 M305.6,368l-0.8-0.4 M330.8,371.8l-1.9,1.1 M329.3,360.1
	l1.5,11.7 M327.6,361.1l1.7-1 M329,374.1l-0.1-0.4v-0.4v-0.4 M328.9,372.9l-1.3-11.8 M327.6,361.1l-1.7-1 M281.5,358.9l0.7-1.1
	l0.7-0.9l0.9-0.9l1-0.6h0.1 M280.9,361.1l-0.3,2.2 M304.9,368.2L304.9,368.2v0.2l-0.1,0.1 M281.6,359l-0.5,1l-0.2,1.1 M395.9,321.5
	l-0.4,0.3 M404.2,320.7l-0.6-0.4l-1.3-0.5l-1.5-0.2l-1.6,0.2l-1.3,0.6 M397.9,320.4l-2,1.1 M296,377l8.9,5.2 M277.5,373v0.1
	 M292.2,381.5v0.1 M295.3,380.4v0.3l-0.1,0.2l-0.2,0.2 M304.5,338.1l-3.9,2.2 M300.6,340.3l-0.2,0.1l-0.1,0.2l-0.1,0.1v0.2v0.2
	l0.1,0.1l0.1,0.2l0.2,0.1 M328.2,351.7l0.1-0.1l0.2-0.1l0.1-0.2v-0.1V351l-0.1-0.2l-0.2-0.1l-0.1-0.1 M328.2,350.6l-4.7-2.7
	 M323.5,347.9l-0.9,0.6 M326.6,350.8l-4-2.3 M326.6,350.8l-3.3,1.9 M302.8,340.9l20.5,11.8 M302.8,340.9l3.4-1.9 M310.2,341.3
	l-4-2.3 M310.2,341.3l0.9-0.6 M306.5,338.1l4.6,2.6 M306.5,338.1l-0.2-0.1l-0.3-0.1l-0.2-0.1h-0.3h-0.3l-0.2,0.1l-0.3,0.1l-0.2,0.1
	 M306.2,355.2l1.7,1 M307.9,370.9v-14.7 M323.3,354.6l-22.7-13.1 M286.8,361.9l-0.5,1.1l-0.2,1.1 M325.9,378.7l3.3,1.9 M305.2,388.3
	l2,1.2 M307,372l0.5-0.4 M280.9,376.3l0.6-0.4 M279.9,376.3h0.2l0.3,0.1l0.2-0.1h0.3 M274.7,373.2l5.2,3.1 M274.5,373L274.5,373v0.1
	l0.2,0.1 M272.8,371.3l1.7,0.9 M271.1,372.2l1.7-0.9 M271.1,373.4l-0.2-0.1l-0.1-0.2l-0.1-0.1v-0.2v-0.1l0.1-0.2l0.1-0.1l0.2-0.2
	 M278.3,377.5l-7.2-4.1 M280.3,377.5l-0.2,0.1l-0.2,0.1l-0.2,0.1h-0.3h-0.2h-0.3l-0.2-0.1l-0.2-0.1l-0.2-0.1 M280.3,377.5l2-1.1
	 M304.9,382.4h0.1 M305,382.9L305,382.9L305,382.9l0.1-0.2v-0.1v-0.1H305v-0.1 M305,382.9l-7.7,4.4 M297.3,388.5l-0.2-0.1l-0.1-0.1
	l-0.1-0.2V388v-0.1v-0.2l0.1-0.1l0.1-0.1l0.2-0.2 M305.4,393.2l-8.1-4.7 M307.4,393.2l-0.2,0.1l-0.2,0.1h-0.3h-0.3h-0.3h-0.2
	l-0.3-0.1l-0.2-0.1 M302.5,367.8l-1.9-1.1 M292.3,376.8l-0.1,4.7 M295.6,372.1l-0.1,1l-0.3,1.1 M295.6,372l0.3-2.3 M293.9,374.5v0.5
	 M292.8,374.4l-0.1,0.3 M292.3,376.8l0.1-1l0.3-1.1 M293.5,373.4l0.3,0.5l0.1,0.6 M294.9,372.6h0.1l0.1-0.1h0.1v-0.1l0.1-0.1h0.1
	l0.1-0.1l0.1-0.1 M295.6,372v0.1 M290.7,366.8l2.5,2.3l2.4,2.9 M286.1,364.1l4.6,2.7 M280.6,363.3l2.7,0.1l2.8,0.7 M280.5,363.4
	L280.5,363.4 M280.2,364.2l0.1-0.1l0.1-0.1l0.1-0.1v-0.1v-0.1v-0.1v-0.2 M291.4,364.6l-0.1,0.3l-0.1,0.2l-0.2,0.3l-0.1,0.3v0.3
	l-0.1,0.2l-0.1,0.3v0.3 M441.4,315.8l-0.3-6.5 M439.2,310.4l0.2,6.6 M439.4,317l-108.2,62.5 M331.2,379.5l-0.3-6.5 M330.9,373
	l-1.9,1.1 M329,374.1l0.2,6.5 M329.2,380.6l-21.8,12.6 M447.1,312.5l-5.7,3.3 M296.6,367.6l-0.5,1.1l-0.2,1 M292.7,373.8l0.1,0.3
	v0.3 M281.6,359l0.8-1.3l0.9-1.1l1-0.8l0.9-0.6l1.3-0.5l1.2,0.1l0.4,0.3 M286.8,361.9l4.6,2.7 M292.7,373.8h0.1l0.1-0.1l0.1-0.1h0.1
	l0.1-0.1h0.1l0.1-0.1h0.1 M280.2,364.2l-1.3,0.8 M293.5,373.4l1.4-0.8 M304.4,365.7l0.1,0.1v0.1h0.1 M303.5,363.9l0.5,0.7l0.4,1.1
	 M302.8,363.5l0.3,0.2 M305.3,384.9l-0.1,3.4 M305.3,384.9v-0.3l0.1-0.2l0.1-0.3l0.1-0.3 M295.3,379.6l0.1-0.5l0.1-0.6 M298.3,369.5
	l-2.8,9 M302.5,367.8l-0.1-0.4l-0.1-0.4l-0.3-0.2l-0.2-0.2l-0.4-0.1l-0.4,0.1l-0.4,0.1l-0.4,0.2l-0.4,0.3l-0.3,0.3l-0.4,0.5
	l-0.3,0.5l-0.3,0.5l-0.2,0.5 M304.9,382.2l-2.4-14.4 M304.9,382.4v-0.2 M304.9,382.4l2.6-1.5 M305.6,368l3.6,10.3 M304.8,368.5
	l0.8-0.5 M304.4,366.3l0.4,2.2 M297.3,368l1.1-1.7l1.3-1.3l1.4-0.7l1.2-0.2l0.8,0.2l0.6,0.5l0.5,0.6l0.2,0.9 M296.7,369.8l0.1-0.8
	l0.5-1 M296.4,372.1l0.3-2.3 M296.3,372.3l0.1-0.2 M295.2,374.2l0.7-1l0.3-0.5l0.1-0.4 M293.9,375l1.3-0.8 M293.5,376.8l0.1-0.9
	l0.3-0.9 M293.4,381.6l0.1-4.8 M295.3,379.6v0.8 M305.6,383.8l16-25 M323.3,359.8l-1.7-1 M438.4,288.1l-4.6,2.6 M433.8,290.7v19.9
	 M328.2,351.7l-4.9,2.9 M323.3,354.6v5.2 M323.3,359.8L307.6,385 M307.6,385l-0.2,0.2l-0.1,0.3v0.3l-0.1,0.2 M307.2,386v3.5
	 M307.2,389.5l18.7-10.8 M325.9,360.1v18.6 M325.9,360.1l1.7-1 M436.1,296.4v18.2 M436.1,296.4l1.7-1 M413.4,239.1v0.1l0.2,0.2h0.2
	l0.3,0.1l0.2-0.1h0.3l0.1-0.2l0.1-0.1 M429.8,251.3h-0.1l-0.1-0.2v-0.2v-0.2l0.1-0.3l0.2-0.2l0.2-0.1l0.2-0.1h0.2 M421.2,230.4
	l0.2-0.1h0.2l0.2,0.1v0.2 M420.8,231.3v-0.2l0.1-0.3l0.2-0.2l0.1-0.2 M423.1,243.7l-0.2,0.1l-0.1-0.1h-0.2v-0.2 M422.6,243.5
	l0.1,0.1 M415.6,223.3v0.1l0.1,0.1 M421.8,230.4h-0.1v-0.1h-0.1h-0.1h-0.1l-0.1,0.1 M421.3,230.4l-0.2,0.2l-0.1,0.1l-0.1,0.1
	l-0.1,0.3v0.1v0.1 M421.3,230.4L421.3,230.4 M420.9,231.5l0.1,0.1 M420.8,231.3l0.1,0.2 M408.4,242.9h-0.2h-0.1 M408.1,242.9
	l-0.2,0.2l-0.2,0.2l-0.1,0.3v0.2v0.2l0.1,0.1 M422.7,243.6v0.1l0.2,0.1h0.1h0.2 M422.7,243.5v0.1 M431.4,249.5L431.4,249.5
	 M410,245.5L410,245.5L410,245.5 M410.4,243.6h0.1h0.1l0.1-0.1l0.2-0.2l0.3-0.1l0.2-0.1 M411.7,242.9L411.7,242.9 M411.4,243.1
	l0.2-0.1v-0.1 M431.4,232.2v-0.1 M409.5,237.7l0.1-0.1h0.2h0.1l0.1,0.1 M408.6,245.4L408.6,245.4L408.6,245.4l-0.3,0.1 M410,237.7
	L410,237.7 M419.4,244.3h0.2l0.8-0.7l0.5-0.9l0.3-1.1l0.1-1.3l-0.1-1.4l-0.4-1.4l-0.6-1.4l-0.8-1.2l-0.8-1.1l-0.9-0.8l-1-0.5
	l-0.8-0.2l-0.8,0.2 M411.9,235.2L411.9,235.2 M415.8,245.6l0.2-0.1l0.6-0.6l0.5-0.9l0.2-1.1v-1.2l-0.2-1.3l-0.4-1.2l-0.5-1.2
	l-0.7-1.1l-0.8-0.8l-0.8-0.7l-0.8-0.3l-0.7-0.1l-0.5,0.2 M407.7,246.1l-0.1,0.1h-0.1h-0.1l0.1-0.1 M409.5,237.7l1,0.3l0.9,0.8l0.9,1
	l0.8,1.2l0.5,1.3l0.4,1.3l0.1,1.3l-0.2,1.2l-0.4,0.9l-0.6,0.7l-0.3,0.2l-0.4,0.2h-0.4 M409.5,237.7l-0.1,0.1l-0.1,0.1l-0.1,0.2v0.2
	v0.3l0.1,0.1l0.1,0.2l0.2,0.1 M409.6,239L409.6,239h0.2h0.1h0.1 M411.9,246.6h0.2l0.5-0.5l0.3-0.7l0.2-0.8v-1l-0.2-1l-0.4-1
	l-0.5-0.9l-0.6-0.8l-0.7-0.6L410,239 M407.5,246.1l0.2-0.2l0.2-0.1l0.2-0.2h0.1l0.1-0.1 M353.2,255.7l-0.2,0.2 M349.2,258.9
	L349.2,258.9 M348.5,259.3L348.5,259.3 M353.2,256.6l2,1.2 M292,287.1v0.2v0.1v0.2l-0.1,0.1 M290.7,282.5l1.3,4.6 M289.8,288.6
	l-0.7-0.4 M290.4,288v0.2v0.1v0.2l-0.1,0.1l-0.1,0.1h-0.1H290l-0.2-0.1 M289.1,283.4l1.3,4.6 M292.1,280.1l-3-1.8 M284.7,280.9
	l3,1.7 M287.7,290.7l-3-1.7 M289.1,288.2v-4.8 M290.7,282.5l-1.6,0.9 M287.7,282.6l4.4-2.5 M287.7,290.7v-8.1 M292.1,288.2l-4.4,2.5
	 M292.1,280.1v8.1 M407.8,202.9l2,1.2 M278.7,314.5l2,1.1 M353.2,256.6l-14,8.1 M353.2,253.8v2.8 M278.7,282.1v32.4 M407.8,202.9
	l-125.1,72.2 M278.7,314.5v0.4l0.1,0.4l0.2,0.2l0.3,0.3 M284.7,280.9v8.1 M289.1,278.3l-4.4,2.6 M355.2,252.7l-16,9.2 M355.2,257.8
	v-5.1 M339.2,267l16-9.2 M339.2,261.9v5.1 M408.3,234.5l-0.5,0.3 M409.4,237.6v-1.8 M409.4,239.1L409.4,239.1 M407.8,234.8v5.8
	 M300.7,281.9l-0.4,0.3 M301.9,288.2v-5.4 M300.3,289.1l0.4-0.2 M300.3,282.2v6.9 M282.7,316.8l-0.4,0.2h-0.4h-0.3l-0.3-0.1
	l-0.3-0.2l-0.2-0.3l-0.1-0.4v-0.4 M306.3,303.1l-23.6,13.7 M309.9,301.1l-3,1.7 M311.1,300.4L311.1,300.4 M312.2,299.7L312.2,299.7
	 M315.8,297.6l-2.4,1.4 M318,296.4l-0.7,0.4 M320.3,295.1l-0.2,0.1 M323.6,293.2l-2.3,1.3 M406.8,245.1l-82,47.3 M408.1,244.4
	L408.1,244.4 M411.8,242.3l-0.6,0.3 M412.5,241.6l-0.3,0.4l-0.4,0.3 M413.8,220v2.6 M413.8,206.4v12 M409.8,204.1l4,2.3
	 M284.7,276.3l125.1-72.2 M280.7,315.6v-32.4 M280.7,283.2l-2-1.1 M280.7,283.2l4-6.9 M282.7,275.1l2,1.2 M282.7,275.1l-4,7
	 M300.7,293.8l0.1,0.2l0.1,0.1l0.2,0.1h0.3h0.3l0.2-0.1 M301.9,294.1l0.2-0.1v-0.2 M305.8,301.3l0.1,0.1l0.1,0.2h0.3l0.2,0.1
	l0.3-0.1h0.2 M307,301.6l0.2-0.2v-0.1 M322.4,313.5l-0.2-0.1l-0.1-0.1v-0.2v-0.2l0.1-0.3l0.2-0.2l0.2-0.1 M322.6,312.3l0.2-0.1h0.1
	 M315.8,300.8l0.1,0.2l0.2,0.1l0.2,0.1h0.3h0.2l0.3-0.1l0.1-0.1l0.1-0.2 M315.2,295.7L315.2,295.7l-0.1-0.1v-0.1 M315.9,294.5
	L315.9,294.5 M315.2,293.5L315.2,293.5l-0.1-0.2v-0.1 M315.9,292.2L315.9,292.2 M315.9,302.1h-0.2h-0.1l-0.2,0.2l-0.2,0.2l-0.1,0.3
	v0.2v0.2l0.1,0.1v0.1 M315.9,304l-0.2-0.1l-0.1,0.1l-0.2,0.2l-0.2,0.2l-0.1,0.2v0.3v0.2l0.1,0.1 M315.9,305.8L315.9,305.8h-0.2
	l-0.1,0.1l-0.2,0.1l-0.2,0.2l-0.1,0.3v0.2v0.2l0.1,0.1l0.1,0.1 M323.9,311.7L323.9,311.7 M323.9,294.4v-0.1 M321.6,218.8l-0.2,0.1
	 M313.8,205.3L313.8,205.3 M321.2,215.3l-0.4,1.7l-0.4,0.7l-0.6,0.5l-0.7,0.3h-0.8l-1.6-0.6l-1.7-1.3l-0.8-1l-0.7-1.1l-0.6-1.1
	l-0.4-1.2l-0.4-2.1 M310.1,192.7l0.3-0.2 M331.2,218.7l-0.2,2.6l-0.7,2.3l-1.2,1.9l-1.6,1.4l-2,0.7h-2.2l-2.4-0.5l-2.2-1.1l-2.3-1.6
	l-2.4-2.1l-2.2-2.6l-2-3.1l-1.6-3.2l-1.2-3.3l-0.7-3.1l-0.2-2.7 M306.1,204.3l0.2-2.5l0.7-2.3l1.2-2l1.6-1.3l2-0.8h2.2l2.4,0.6
	l2.3,1l2.2,1.6l2.4,2.1l2.2,2.7l2,3l1.6,3.3l1.2,3.2l0.7,3.1l0.2,2.7 M278,142.6l-0.4-0.3l-0.3-0.5l-0.2-0.5L277,141v-0.3
	 M277,140.7l0.2-6.7 M277.5,133.3l0.2-0.1 M267.4,147.1l-1.3-1l-0.4-1.2l0.1-0.2 M292.7,151.1l-14.7-8.5 M274.5,99.8l-0.8,0.6
	l-0.5,0.5 M310.4,167.4l140.5-81.1 M285.4,100.7l10.4,6.1 M302.4,167.4l0.9,0.4l1.1,0.3l2.1,0.2l2.1-0.3l1.8-0.6 M310.4,132.3v35.1
	 M293.7,148.8l-13.2-7.6 M279.4,139.3l0.2-6 M280.5,141.2l-0.3-0.1l-0.2-0.2l-0.1-0.3l-0.2-0.2l-0.1-0.3l-0.1-0.3l-0.1-0.3v-0.2
	 M277,132.7l4,0.4l3.9,1.6l4.1,2.9l4.2,4.5 M293.2,142.1l0.4,0.5l0.3,0.5l0.1,0.7l0.1,0.6 M294.1,144.4l-0.3,6.7 M293.8,151.1
	l-0.1,0.6l-0.4,0.5l-0.6,0.1l-0.3-0.1l-0.3-0.1 M292.1,152.1l-14.7-8.5 M277.4,143.6l-0.6-0.5l-0.5-0.7l-0.4-0.9l-0.1-0.4v-0.5
	 M275.8,140.6l0.2-6.6 M276,134l0.1-0.5l0.2-0.4l0.3-0.3l0.4-0.1 M267.4,147.1l35,20.3 M295.8,106.8l2.7,1.8l2.7,2.4l1.7,1.9
	l1.6,2.1l1.4,2.3l1.2,2.2l1.1,2.4l0.9,2.6l0.9,3.5l0.4,4.3 M198,304.9l0.2-0.1l0.1-0.2v-0.1l-0.1-0.2 M191.4,308.7L191.4,308.7v0.3
	h-0.1l-0.1,0.1 M190.3,299.3l0.5,0.5l0.8,0.5 M183.7,301.3l1.5-0.9 M188.4,310.9v0.1v0.2h-0.1l-0.1,0.1 M188.2,286.5l-0.2,0.1h-0.2
	h-0.3l-0.2-0.1l-0.1-0.1v-0.1v-0.2h0.1V286 M187.3,286h0.2l0.3-0.1l0.2,0.1h0.2l0.1,0.1v0.1v0.1v0.1l-0.1,0.1 M178.4,316.7
	L178.4,316.7l-0.1,0.2v0.1l-0.1,0.1 M171.8,308.6v-3.5 M175.4,306.9l-0.1-0.4l0.3-0.7l0.7-0.7l1.1-0.4l1.3-0.1l1.3,0.1l1.1,0.4
	l0.8,0.7l0.2,0.7v0.4 M171.8,308.6l0.3,0.6l0.4,0.5l0.6,0.5l0.3,0.2 M169.3,310.1l2.5-1.5 M165,308L165,308l0.2-0.1h0.1l0.2,0.1h0.2
	 M165.7,308l5.2,3 M165.7,308l-1.6,1 M170.9,311l0.2,0.2l0.2,0.1l0.1,0.2l0.2,0.3l0.1,0.2l0.1,0.3 M169.3,312l1.6-1 M169.3,312
	l-5.2-3 M164.1,309l-0.2-0.1l-0.2-0.1h-0.1l-0.2,0.1l-0.1,0.1l-0.1,0.1 M170.2,313.2l-0.1-0.3l-0.1-0.2l-0.2-0.2l-0.1-0.2l-0.2-0.2
	l-0.2-0.1 M164,309.6v3.5 M166.3,314.4l-2.3-1.3 M151.6,320.3l12.4-7.2 M174.6,318.4v0.2l-0.1,0.1v0.1h-0.1 M147.4,318.2v-0.1h0.1
	h0.2h0.2l0.2,0.1 M148.1,318.2l5.2,3 M148.1,318.2l-1.6,0.9 M151.3,331.9v0.1v0.1l-0.1,0.1v0.1h-0.1 M153.3,321.2l0.1,0.1l0.2,0.2
	l0.2,0.2l0.2,0.2l0.1,0.3l0.1,0.2 M151.7,322.1l1.6-0.9 M151.7,322.1l-5.2-3 M146.5,319.1h-0.2l-0.2-0.1h-0.2l-0.1,0.1l-0.1,0.1
	l-0.1,0.1 M146.4,319.8v3.5 M152.6,323.4l-0.1-0.3l-0.1-0.2l-0.2-0.3l-0.2-0.2l-0.1-0.1l-0.2-0.2 M148.7,324.6l-2.3-1.3 M144,324.7
	l2.4-1.4 M148.3,334.1v0.1v0.1l-0.1,0.1v0.1h-0.1 M138.3,339.9v0.1l-0.1,0.1v0.1l-0.1,0.1 M135.3,330l-0.1-0.3l0.3-0.8l0.7-0.6
	l1.1-0.4l1.3-0.2l1.3,0.2l1.1,0.4l0.8,0.6l0.2,0.8v0.3 M116.8,342.2L116.8,342.2 M116.8,342.2L116.8,342.2v0.1h0.1v0.1h0.1v0.1h0.1
	 M134.5,341.6v0.1l-0.1,0.1v0.1l-0.1,0.1 M124.5,347.1L124.5,347.1 M125.4,347.1l-0.1,0.1 M132.1,332.5l0.2,0.2l0.6,0.5l0.7,0.5
	l0.1,0.1 M126.4,334.4l0.7-0.4 M123.8,331.5h0.2l0.2-0.1h0.2l0.1,0.1 M123.8,331.5l-1.9,1.2 M125.4,332.4l-1.6-0.9 M120.8,336.7
	v-2.3 M122.4,335.3l-1.6-0.9 M123.4,333.6l-1.5-0.9 M120.8,334.4l0.1-0.2v-0.3l0.1-0.2l0.1-0.3l0.2-0.2l0.2-0.2l0.2-0.2l0.2-0.1
	 M123.4,333.6l2-1.2 M123.4,333.6l-0.2,0.1l-0.2,0.2l-0.2,0.2l-0.1,0.2l-0.1,0.3l-0.1,0.2l-0.1,0.3v0.2 M122.4,335.3v2.4
	 M126.5,337.9l-0.1-4.9 M126.4,333v-0.2l-0.1-0.2l-0.1-0.1l-0.1-0.1l-0.2-0.1h-0.1l-0.2,0.1h-0.2 M171.8,305.1l-5.6,3.3
	 M177.1,308.2l-0.9-0.2l-0.9-0.2l-0.8-0.3l-0.8-0.4l-0.6-0.4l-0.6-0.5l-0.4-0.5l-0.3-0.6 M171.4,311.5l5.7-3.3 M170.2,313.2l1.6-0.9
	 M169.4,312.7l0.8,0.5 M153.8,321.7l15.6-9 M152.6,323.4l1.6-1 M151.7,322.9l0.9,0.5 M145.5,326.4l6.2-3.5 M140.2,323.4l1,0.1
	l0.9,0.3l0.8,0.3l0.8,0.4l0.6,0.4l0.5,0.5l0.5,0.5l0.2,0.5 M146.4,319.8l-6.2,3.6 M145.6,319.3l0.8,0.5 M164,309.6l-15.4,8.9
	 M163.2,309.1l0.8,0.5 M174.7,306.5l-1.1-0.9l-0.5-1l0.1-1.1l0.7-1l1.2-0.8l1.6-0.5l1.8-0.3l1.8,0.2l1.7,0.4l1.3,0.8l0.9,1l0.2,1
	l-0.4,1.1l-0.9,0.9l-1.5,0.7l-1.7,0.4l-1.9,0.1l-1.8-0.3L174.7,306.5 M120.8,336.7l1.6,1 M118.8,335.3l2,1.1 M120.9,334.1l-2.1,1.2
	 M127.1,330.5l-2.1,1.2 M137.7,331.4l-1.1-0.1l-1.1-0.3l-1-0.3l-0.9-0.5l-0.7-0.5l-0.6-0.5l-0.2-0.3 M125,338.8l12.7-7.4
	 M122.7,337.5l2.3,1.3 M122.4,337.7l0.3-0.2 M185.8,303.7l9.8-5.7 M179.6,300.2l1.2,0.1l1.1,0.2l1,0.4l0.8,0.4l0.8,0.5l0.6,0.6
	l0.4,0.6l0.3,0.7 M185.3,296.9l-5.7,3.3 M195.6,298l-1.1-0.2l-1.1-0.2l-0.9-0.4l-0.9-0.4l-0.7-0.5l-0.7-0.6 M134.6,329.7l-1-0.9
	l-0.6-1l0.1-1.1l0.7-1l1.2-0.8l1.6-0.6l1.8-0.2l1.9,0.1l1.6,0.5l1.4,0.8l0.8,0.9l0.2,1.1l-0.4,1l-0.9,1l-1.5,0.7l-1.7,0.4h-1.9
	l-1.7-0.3L134.6,329.7 M138.1,332.8l-3.8,1.8 M148.1,327.1l-10,5.7 M151.1,324.9l-3,2.2 M174.4,311.4l-23.3,13.5 M178.2,309.7
	l-3.8,1.7 M188.2,303.9l-10,5.8 M191.2,301.7l-3,2.2 M197.5,298.1l-6.3,3.6 M196.9,297.3h0.2h0.1h0.1l0.1,0.1h0.1l0.1,0.1l0.1,0.1
	v0.1v0.1v0.1l-0.1,0.1l-0.1,0.1 M196.9,297.3l-1.2-0.1l-1.1-0.2l-1-0.4l-1-0.4l-0.7-0.5l-0.6-0.7l-0.4-0.6l-0.1-0.7 M190.2,293.3
	h0.2l0.2,0.1l0.1,0.2l0.1,0.1 M183.1,297l2.2-1.3 M179.2,298.7l3.9-1.7 M169.2,304.5l10-5.8 M166.2,306.7l3-2.2 M143,320.1
	l23.2-13.4 M139.2,321.9l3.8-1.8 M132.1,326l7.1-4.1 M126.1,329.8l1-0.7 M117.4,334.9l8.7-5.1 M117.4,335.6l-0.1-0.1l-0.1-0.1v-0.1
	h-0.1l0.1-0.1v-0.1l0.1-0.1l0.1-0.1 M124.4,339.6l-7-4 M125.6,339.6l-0.2,0.1h-0.1l-0.2,0.1H125h-0.2l-0.2-0.1h-0.1l-0.1-0.1
	 M134.3,334.6l-8.7,5 M130,320.1h-0.2l-0.2,0.1l-0.2-0.1h-0.2l-0.1-0.1v-0.1l-0.1-0.1l0.1-0.1v-0.1h0.1 M129.2,319.6l0.2-0.1h0.2
	h0.2l0.2,0.1l0.2,0.1v0.1v0.2h-0.1v0.1H130 M183.8,247l-0.2-0.2 M181.4,255.5l-0.2-0.1 M181.4,248.3l-0.2-0.1 M180.6,248.8l-0.2-0.1
	 M177.1,258.1l-0.2-0.1 M183.6,246.8v-0.6 M178.2,249.9l2.2-1.2 M180.6,255.8l0.6-0.4 M181.2,255.4v-7.2 M181.2,248.2l2.4-1.4
	 M172.7,259.6l-0.2-0.1 M172.7,256.8l-0.2-0.1 M176.5,254.6l-0.2-0.1 M172.7,255.8l-0.2-0.1 M172.7,253.5l-0.2-0.1 M177.1,251
	l-0.2-0.1 M176.9,258v-0.8 M172.5,259.5v-2.8 M172.5,256.7l3.8-2.2 M176.3,254.5v-0.8 M172.5,255.7v-2.3 M172.5,253.4l4.4-2.5
	 M176.9,250.9v-0.8 M171.8,260.9l5.1-2.9 M170.6,261.8l-0.2-0.1 M162.9,265.7l-0.2-0.1 M163.5,264.7l-0.2-0.1 M162.3,266.4l-0.2-0.1
	 M161.6,267l-0.2-0.1 M163.4,263.8l0.2,0.1 M165.5,264.5l0.2,0.2 M165.7,257.6l-0.2-0.1 M160.3,267.8l-0.2-0.1 M169.8,261.1
	l-0.2-0.1 M159.5,268l-0.2-0.1 M162.7,262.9l-0.2-0.1 M164.8,264.9l0.7-0.4 M165.5,264.5v-7 M169.2,262.4l1.2-0.7 M170.4,261.7v-7.9
	 M169.6,261l-3.6-4.7 M163.6,259.8l-0.2-0.1 M159.2,266.8l-0.2-0.1 M158.9,266.5l-0.2-0.1 M163.5,259l-0.2-0.1 M162.6,259.9
	l-0.2-0.1 M162.2,259.8l-0.2-0.1 M158.8,265.9l-0.2-0.2 M161.6,260l-0.2-0.2 M158.8,263.3l-0.2-0.1 M160.3,260.7l-0.2-0.1
	 M158.9,262.5l-0.2-0.1 M159.2,261.8l-0.2-0.1 M159.7,261.2l-0.2-0.1 M163.3,264.6l0.1-0.8 M163.4,263.8v-2.3 M161.4,263.4l1.1-0.6
	 M159,266.7l-0.3-0.3 M158.7,266.4l-0.1-0.7 M158.6,265.7v-2.5 M158.6,263.2l0.1-0.8 M158.7,262.4l0.3-0.7 M159,261.7l0.5-0.6
	 M159.5,261.1l0.6-0.5 M160.1,260.6l1.3-0.8 M161.4,259.8l0.6-0.1 M162,259.7l0.4,0.1 M162.7,260.1l0.7-0.4 M163.4,259.7l-0.1-0.8
	 M163.3,258.9l-0.4-0.2 M158.7,267.9h0.6 M159.3,267.9l0.8-0.2 M160.1,267.7l1.3-0.8 M161.4,266.9l0.7-0.6 M162.1,266.3l0.6-0.7
	 M162.7,265.6l0.6-1 M155.3,268.6l-0.2-0.1 M151.8,272.7l-0.2-0.1 M152.4,270.3l-0.2-0.1 M156.7,269.8l-0.2-0.1 M152.5,269.5
	l2.6-1.5 M155.1,268l-1.3-3.9 M152.5,269.5l-0.2-0.1 M153.8,264.1l-1.3,5.4 M153.8,264.1l-0.2-0.1 M152.3,269.4l1.3-5.4
	 M156.5,269.7l-2.2-6.6 M151,272.9l0.6-0.3 M151.6,272.6l0.6-2.4 M152.2,270.2l2.9-1.7 M155.8,270.1l0.7-0.4 M149.7,273.9l-0.2-0.2
	 M146.8,275.5l-0.2-0.1 M148.7,267.9l0.2,0.1 M143.6,277.4l-0.2-0.1 M143.6,271l-0.2-0.1 M146.2,275l-0.2-0.1 M146.6,275.4l2.1-7.5
	 M148.9,274.1l0.6-0.4 M149.5,273.7v-7.8 M146,274.9l-2.1-5.8 M142.7,277.7l0.7-0.4 M143.4,277.3v-6.4 M145.6,276l1-0.6
	 M180.2,236.1L180.2,236.1L180.2,236.1H180 M130.6,264.5L130.6,264.5h0.2l0.1,0.1 M181.4,248.3l2.4-1.3 M181.4,255.5v-7.2
	 M180.6,256.1l0.8-0.6 M180.6,248.8v7.3 M178.2,250.2l2.4-1.4 M178.2,249.3v0.9 M183.8,246.1l-5.6,3.2 M183.8,247v-0.9 M171.8,261.1
	l5.3-3 M171.8,253v8.1 M177.1,250l-5.3,3 M177.1,251v-1 M172.7,253.5l4.4-2.5 M172.7,255.8v-2.3 M176.5,253.6l-3.8,2.2 M176.5,254.6
	v-1 M172.7,256.8l3.8-2.2 M172.7,259.6v-2.8 M177.1,257l-4.4,2.6 M177.1,258.1V257 M164.8,257.1v8.1 M166.1,256.3l-1.3,0.8
	 M169.8,261.1l-3.7-4.8 M169.8,254.2v6.9 M170.6,253.7l-0.8,0.5 M170.6,261.8v-8.1 M169.3,262.5l1.3-0.7 M165.7,257.6l3.6,4.9
	 M165.7,264.7v-7.1 M164.8,265.2l0.9-0.5 M162.9,265.7l0.6-1 M162.3,266.4l0.6-0.7 M161.6,267l0.7-0.6 M160.3,267.8l1.3-0.8
	 M159.5,268l0.8-0.2 M158.9,268h0.6 M158.4,267.7l0.5,0.3 M158.1,267.1l0.3,0.6 M157.9,266.4l0.2,0.7 M157.9,263.8v2.6 M158.1,262.8
	l-0.2,1 M158.4,262l-0.3,0.8 M158.9,261l-0.5,1 M159.5,260.3l-0.6,0.7 M160.3,259.7l-0.8,0.6 M161.6,258.9l-1.3,0.8 M162.3,258.7
	l-0.7,0.2 M162.9,258.7h-0.6 M163.5,259l-0.6-0.3 M163.6,259.8l-0.1-0.8 M162.7,260.3l0.9-0.5 M162.6,259.9l0.1,0.4 M162.2,259.8
	l0.4,0.1 M161.6,260l0.6-0.2 M160.3,260.7l1.3-0.7 M159.7,261.2l0.6-0.5 M159.2,261.8l0.5-0.6 M158.9,262.5l0.3-0.7 M158.8,263.3
	l0.1-0.8 M158.8,265.9v-2.6 M158.9,266.5l-0.1-0.6 M159.2,266.8l-0.3-0.3 M159.7,266.9l-0.5-0.1 M160.3,266.7l-0.6,0.2 M161.6,266
	l-1.3,0.7 M162.2,265.5l-0.6,0.5 M162.6,264.9l-0.4,0.6 M162.7,264.3l-0.1,0.6 M162.7,262.9v1.4 M161.4,263.7l1.3-0.8 M161.4,262.6
	v1.1 M163.6,261.4l-2.2,1.2 M163.6,263.9v-2.5 M163.5,264.7l0.1-0.8 M155.9,270.3l0.8-0.5 M155.3,268.6l0.6,1.7 M152.4,270.3
	l2.9-1.7 M151.8,272.7l0.6-2.4 M150.9,273.2l0.9-0.5 M153.2,263.7l-2.3,9.5 M154.4,263.1l-1.2,0.6 M156.7,269.8l-2.3-6.7
	 M145.6,276.2l1.2-0.7 M143.6,271l2,5.2 M143.6,277.4V271 M142.7,277.9l0.9-0.5 M142.7,269.8v8.1 M144,269l-1.3,0.8 M146.2,275
	l-2.2-6 M148.4,266.5l-2.2,8.5 M149.7,265.8l-1.3,0.7 M149.7,273.9v-8.1 M148.9,274.4l0.8-0.5 M148.9,268v6.4 M146.8,275.5l2.1-7.5
	 M137.1,268.2l49.3-28.5 M130.9,264.6l6.2,3.6 M195,156.5v-0.1 M194.3,156.5l4.9,2.8 M123,203.3l-4.8-2.8 M204.1,188.1l-1.8-23.8
	 M126,208.4v24.8 M202.3,164.3l-0.1-0.8l-0.3-0.8l-0.6-1.2l-1-1.3l-1.1-0.9 M115.1,203.3l-1.8,23.7 M124,208.4v24.8 M122,205
	l-4.8-2.8 M115.1,203.3l0.2-0.8l0.4-0.5l0.7-0.1l0.8,0.3 M124,208.4l-0.2-1l-0.4-1l-0.6-0.8L122,205 M123,203.3l1.1,0.9l1,1.2
	l0.6,1.3l0.2,0.8l0.1,0.9 M304.7,446.4l0.3-0.2l1.3-0.5 M320.7,453.6l1.8,2.8l1.5,2.9l1.2,3l0.9,3l0.4,2.9l-0.1,2.7l-0.4,2.4l-0.9,2
	l-1.2,1.5l-1.1,0.8 M303.1,415.8l1.4-0.6l2-0.4l2.3,0.2l2.4,0.7l2.5,1.2l2.5,1.7l2.4,2.1l2.3,2.5l2.1,2.7l1.8,3.1l1.6,3.1l1.1,3.3
	l0.8,3.1l0.4,3.1v2.9l-0.4,2.6l-0.9,2.2l-1.2,1.8l-1.6,1.4l-0.2,0.2 M320.3,453.9l1.8,2.7l1.5,2.9l1.2,3l0.9,3l0.4,2.9l-0.1,2.7
	l-0.4,2.4l-0.9,2l-1.2,1.6l-1.6,1l-1.9,0.6l-2.1-0.1l-2.2-0.5l-2.4-1.1l-2.3-1.6l-2.2-2l-2.1-2.4l-1.9-2.7l-1.6-2.9l-1.2-3l-0.9-3
	l-0.5-3v-2.7l0.4-2.4l0.8-2.1l1.2-1.6l1.6-1.1l1.8-0.6 M306.4,445.9l-2.1-2.8l-1.9-3l-1.5-3.1l-1.3-3.3l-0.8-3.2l-0.4-3.1l-0.1-2.9
	l0.4-2.6l0.8-2.3l1.2-1.8l1.5-1.4l1.8-0.9l2.1-0.4l2.3,0.1l2.4,0.7l2.5,1.2l2.5,1.7l2.4,2.1l2.3,2.5l2.1,2.8l1.8,3l1.6,3.2l1.1,3.2
	l0.8,3.2l0.4,3.1v2.8l-0.4,2.6l-0.9,2.2l-1.2,1.9l-1.6,1.3l-1.8,0.9l-2.1,0.3 M407.6,278.4l-0.3,17.9 M447.2,316.4l0.2-0.2l0.2-0.2
	l0.2-0.3v-0.3 M447.8,315.4l-0.3-3.5 M421.6,276.2l-1.7-1 M410.8,317.8v-0.3 M435.6,284.3l-1.6-1 M439,296.1l-0.1-8.6 M388.9,318.7
	v0.2 M426.8,309.6l-28.3,16.3 M399,325.9l-4-1.4l-4-2.7 M430.6,309.8l-26.8,15.5 M403.7,325.3l-0.9,0.3 M340.8,327.4l-8,4.6
	 M409.4,296.8l-63.3,36.5 M332.7,331.9l-1.6,1 M331.3,332.9l-7.4,4.3 M397.8,326.3l-30.9,17.9 M344.1,334.5l-10,5.8 M403.1,325.7
	l-31,17.9 M372.1,343.6l-1,0.3 M325.4,349l-0.3-0.5 M332.1,341.4l-14.2,8.2 M371.4,344l-27,15.6 M344.4,359.6l-0.9,0.3 M333.5,362.4
	v-0.3 M270.5,376.2v0.3l0.1,0.3l0.2,0.3l0.2,0.2 M270.7,372.8l-0.3,3.5 M280,381.5l5.6-3.3 M271,377.3l7.3,4.2 M278.3,381.5l0.4,0.1
	l0.5,0.1l0.4-0.1l0.4-0.1 M280,360.4l-0.2-0.3l-0.2-0.2 M280.6,361.5v-0.2l-0.1-0.2 M280.5,361.1l-0.4-0.7 M278.8,359.8l-1.5,0.9
	 M276.3,360.5l-1.9,1.1 M343.7,360l-13.4,7.7 M275.3,361.9L275,362 M274.6,362.6l-0.1,10.4 M275,362l-0.1,0.1l-0.1,0.1l-0.1,0.1v0.1
	l-0.1,0.1v0.1 M300.2,340.9l-0.3,20.9 M295.3,380.6l6.8,3.9 M280.1,363.9l-3.1-1.7 M277.2,372.7l0.1,0.4l0.1,0.3l0.2,0.2l0.3,0.2
	 M280.4,363.1v0.1 M280.4,363.2l-0.2,0.6l-0.4,0.5 M277.4,368l-0.2,4.7 M296.8,391.4v0.3l0.1,0.3l0.2,0.3l0.3,0.2 M280.7,360.9
	l-0.3,2.2 M280,364.2l-1.7,1 M278,365.5l-0.2,0.5 M277.8,366l-0.3,1l-0.1,1 M278.5,365.1l-0.2,0.1l-0.1,0.2l-0.2,0.1 M281.4,358.8
	l-0.4,1l-0.3,1.1 M296.9,387.9l-0.1,3.6 M328.7,359.7l-0.1-8.6 M304.9,368.2l-0.3-2.3 M307.2,397.2l140-80.8 M297.4,392.5l8.2,4.7
	 M305.6,397.2l0.4,0.2h0.4h0.5l0.3-0.2 M277.7,373.7l14.8,8.5 M293.1,382.2l2-1.1 M292.3,382.2L292.3,382.2l0.3,0.1h0.1h0.2l0.3-0.1
	 M303.1,363.6l-15-8.6 M407.9,239.2l-0.1-0.1 M408.3,241.9v1 M407.8,235.7l0.3,0.2 M408.3,234.9L408.3,234.9 M408.1,235.9l0.2,0.1
	h0.4h0.4l0.3-0.2l0.3-0.4l0.1-0.4v-0.1 M416.4,241.9l-0.2-0.1l-0.3-0.3l-0.7-0.5l-1.1-0.5l-0.2-0.3l-0.3-0.3l-0.2-0.4v-0.4
	 M413.5,239.3v0.3l0.1,0.8l0.2,0.4 M408.3,218.8v16.1 M409.8,234.9v-16.1 M413.4,236.5v2.6 M413.4,224v11 M414.8,232.7V224
	 M414.8,239.1v-1 M409.8,218.8v-0.4v-0.2l0.2-0.2l0.6,0.1 M411.3,217.1l-0.4-0.2l-0.6-0.2l-0.7,0.1l-0.5,0.2l-0.4,0.4l-0.2,0.5
	l-0.2,0.9 M418.3,244.6l11.4,6.7 M418.5,243.2l-1-0.7 M430.5,250l-10.5-6 M414.8,224v-0.4v-0.2l0.3-0.2l0.5,0.1 M416.3,222.3
	l-0.4-0.2l-0.6-0.2l-0.6,0.1l-0.6,0.2l-0.3,0.4l-0.3,0.5l-0.1,0.9 M431.4,249.5l-0.1,0.5l-0.3,0.6l-0.5,0.5l-0.4,0.2h-0.4
	 M430.5,250v0.2v0.2l0.1,0.4l0.2,0.1l0.2,0.2h0.3h0.3l0.3-0.1l0.3-0.2l0.2-0.2l0.2-0.4l0.2-0.3v-0.4 M417.3,232.6l0.3-1.3l1.3-1.3
	l1.2-0.2l1.6,0.6 M420.1,239.5l-1-1.3l-0.8-1.4l-0.9-2.2v-0.4 M422.5,241.8l-0.7-0.5l-0.3-0.3 M415.8,233.7L415.8,233.7l0.5,2
	l0.7,1.7l1.3,2.1l1.8,2 M419.2,229.9l-0.6-0.2l-1,0.1l-0.9,0.5l-0.5,0.7l-0.4,1.3 M423.5,226.4l-7.1-4.1 M415.7,223.5l7.1,4.1
	 M423.5,242.9l1.2-1.1l0.6-1.4l0.3-1.3v-1.3l-0.3-1.7l-0.7-1.9l-1.2-2.1l-0.8-1l-1-0.8 M420,241.6l-0.2-0.1 M422.9,241.6l-0.7,0.3
	h-0.7h-0.3 M421,231.5l0.7,0.8l0.7,0.8l1,1.8l0.6,1.7l0.2,1.4v1l-0.2,1.1l-0.5,0.9l-0.7,0.7 M420.7,243.2l0.8,0.1l1.1-0.1l0.6-0.2
	 M423.2,243l0.3-0.1 M407.7,244.1l2.3,1.4 M410.7,244.2l-2.3-1.3 M427.5,232.6l1,2l0.3,0.8l0.4,1.3l0.2,1.3l0.1,1.2l-0.1,1.2l-0.3,1
	l-0.4,0.8l-0.7,0.7l-0.9,0.5H426l-1.1-0.2l-1.2-0.5l-0.2-0.1 M422.8,227.6l1,0.6l1.1,1l0.8,0.8l0.8,1l1,1.6 M428.8,231.9l-1.4-2
	l-0.5-0.7l-1.1-1.1l-1.1-1l-1.2-0.7 M422.8,243.8L422.8,243.8l1.3,0.6l1.3,0.4h1.2l1.3-0.2l1.1-0.7l1-1l0.6-1.3l0.3-1.5v-1.6
	l-0.2-1.7l-0.4-1.4l-0.4-1.2l-0.7-1.5l-0.4-0.8 M430.5,228l-19.1-11 M410.7,218.3l19,11 M432.8,249.5v-17.4 M431.4,232.1v17.4
	 M410.4,243.6l0.2,0.3v0.1v0.2v0.1v0.1 M410,245.4l0.2,0.1l0.4,0.2h0.5l0.4-0.3l0.4-0.4l0.2-0.6L412,244v-0.4l-0.3-0.7 M407.7,243.3
	L407.7,243.3v-0.6l0.1-0.4l0.1-0.2l0.4-0.2l0.3-0.1h0.3h0.4l0.6,0.1l0.6,0.2l0.6,0.3l0.5,0.5 M408.6,245.4l-0.5-0.9l-0.1-0.1
	 M410.5,243.6l-0.1-0.5l0.1-0.5v-0.5l-0.2-0.5l-0.2-0.4l-0.4-0.3l-0.3-0.2l-0.3-0.1l-0.5-0.1h-0.5l-0.8,0.2l-0.6,0.7l-0.4,1.1v0.8
	l0.2,0.9l0.4,1l0.6,1.1 M429.7,229.3l0.6,0.4l0.5,0.6l0.2,0.4l0.2,0.5l0.2,0.5v0.5 M432.8,232.1l-0.1-0.9l-0.4-1.1l-0.4-0.6
	l-0.4-0.6l-0.5-0.5l-0.5-0.4 M415.7,245.7l0.7-0.5l0.5-0.7l0.6-1.7V241l-0.5-1.8l-0.8-1.7l-1.1-1.4l-0.7-0.6l-0.9-0.4l-0.8-0.2
	l-0.9,0.3 M419.5,244.3l0.8-0.6l0.6-0.8l0.6-1.8v-2l-0.6-2.1l-0.9-1.9l-1.3-1.6l-0.8-0.6l-1-0.5l-1-0.1l-0.9,0.2 M415.7,236.8
	l-0.3-0.7l-0.2-1.1l0.2-0.8l0.1-0.2 M419.9,241.5L419,241l-1.2-1l-0.8-0.9 M415.5,234l0.2-0.3 M416.1,242.7l-0.7-0.3l-1.2-1.1
	l-1-1.3l-0.4-0.7l-0.3-0.8l-0.2-0.7v-0.6v-0.5l0.3-0.3 M418.9,243l-0.9,0.3l-0.6-0.1 M409.5,240.8L409.5,240.8l-0.2-0.7l-0.1-0.5
	v-0.4l0.2-0.2 M410.7,242.8l-0.7-0.9 M413.1,244.5l-0.5-0.2l-0.6-0.4 M415.1,244.4l-0.6,0.2l-0.4,0.1 M408.8,237.8h-0.1
	 M409.8,237.6h-0.4l-0.3,0.1 M412,246.6l-0.6,0.2h-0.7l-1-0.5l-0.6-0.4l-0.6-0.6 M412.6,236.4l0.3-0.1l0.5,0.2l0.4,0.3l0.5,0.5
	l0.5,0.5l0.4,0.7l0.6,1.3l0.3,1.5v1.4l-0.4,1.1l-0.7,0.7 M415.7,233.8l0.8-0.1l0.9,0.5l0.8,0.9l0.7,1l0.7,1.4l0.3,0.9l0.2,1.1l0.1,1
	l-0.2,1l-0.4,0.9l-0.7,0.6 M417.3,241.4l1.9,1.4 M414.5,237.5l0.1,0.2l1,1.9l0.6,0.6 M415.1,232.5l-0.6,0.4l-0.4,0.7l-0.2,1.1
	l0.1,0.6 M416.8,244.5l1.1,0.2l0.9-0.1l0.9-0.4 M413.8,242.8l0.5,0.6l1.2,0.6 M411.9,235.1l-0.7,0.7l-0.3,0.8v1l0.1,0.9 M413.9,246
	l0.4,0.1l0.8-0.1l0.7-0.4 M411.7,245.3l1,0.5 M408.5,241.8l0.3,0.7l0.8,1.1 M408.7,237.8l-0.6,0.6l-0.2,0.8v0.9l0.1,0.4
	 M407.4,246.1l0.8,0.9l0.8,0.5l1.3,0.6l1.1,0.1l1.3-0.3 M352.8,254.4l0.4-0.2 M352.1,257.2l0.5-0.4l0.3-0.5l0.1-0.9v-0.6l-0.3-0.6
	v-0.1 M340.1,264.1l12-6.9 M339.2,264.3l0.2,0.1l0.7-0.3 M279.3,315.8l2,1.1 M290.3,288.7l1.6-1 M308.9,304.1l-0.3-0.1l-0.3-0.3
	l-0.7-0.5l-1-0.5l-0.3-0.3l-0.2-0.3l-0.2-0.4l-0.1-0.4 M306,301.5v0.3l0.1,0.8l0.3,0.7l0.3,0.6l0.7,0.9l0.8,0.5 M300.3,288.2
	l0.2,0.1 M301.2,287.1l-0.9-0.5 M300.7,288.7v5.1 M302.1,293.8v-5.1 M300.5,288.3L300.5,288.3l0.1,0.1v0.1 M300.6,288.5l0.1,0.1v0.1
	 M302.1,288.7v-0.3l-0.1-0.3l-0.1-0.3 M301.9,287.8l-0.4-0.5l-0.2-0.2h-0.1 M300.3,283.1L300.3,283.1 M300.7,282.1L300.7,282.1v0.1
	V282.1 M300.4,283.1l0.2,0.1l0.4,0.1h0.4l0.3-0.2l0.3-0.4l0.1-0.5v-0.1 M300.7,281v1.1 M302.1,282.1V281 M305.8,286.3v15
	 M307.2,301.3v-15 M302.1,281v-0.4l0.1-0.3l0.2-0.1h0.5 M303.7,279.3l-0.4-0.3l-0.7-0.2l-0.6,0.1l-0.5,0.3l-0.4,0.3l-0.2,0.5l-0.2,1
	 M308.2,305.3l14,8.1 M322.9,312.2l-14-8.1 M307.2,286.3l0.1-0.4v-0.3l0.2-0.1h0.5 M308.8,284.6l-0.4-0.3l-0.7-0.2l-0.6,0.1
	l-0.5,0.3l-0.4,0.4l-0.2,0.4l-0.2,1 M323.9,311.7l-0.1,0.5l-0.3,0.6l-0.6,0.5l-0.3,0.2l-0.4-0.1 M322.9,312.2l0.1,0.1v0.3l0.1,0.4
	l0.2,0.1l0.2,0.2h0.2h0.3l0.4-0.1l0.3-0.2l0.2-0.2l0.2-0.4l0.1-0.3l0.1-0.4 M315.9,302.1l-0.6-0.4l-0.6-0.6l-0.9-1.2l-0.5-1.2
	l-0.3-1v-0.6v-0.7l0.4-0.9l0.6-0.2l1.1,0.2 M316,294.7l-1.2-0.6l-1.1-0.1l-0.9,0.3l-0.6,0.5l-0.5,1.1l-0.2,1l0.1,1.1l0.4,1.3l0.4,1
	l0.7,1.1l0.9,1l1.2,0.9 M317.3,300.8v-4.4 M315.8,296.4v4.4 M315.2,295.7l0.3,0.2l0.1,0.1 M316.6,294.9L316.6,294.9l-0.7-0.4
	 M315.8,296.2L315.8,296.2v0.2 M315.6,296L315.6,296l0.1,0.1l0.1,0.1 M317,295.5l-0.4-0.5v-0.1 M317.3,296.4l-0.1-0.3l-0.1-0.3
	l-0.1-0.3 M311.9,298.9l-0.2-0.5l-0.4-1.5l-0.1-1l0.1-1.3l0.3-0.8l0.6-0.7l1.1-0.3l1.8,0.4 M315.9,304l-1-0.7l-0.7-0.7 M316,292.5
	l-1.7-0.9l-1.6-0.1l-1.2,0.5l-0.8,0.7l-0.8,1.6l-0.1,1.4l0.1,1.6l0.6,2l0.6,1.4l1,1.6l1.4,1.6l1.7,1.3 M315.9,305.8l-0.2-0.1
	l-1.2-0.9l-0.9-0.8 M311.4,301.1l-0.9-1.9l-0.3-0.8l-0.4-1.3l-0.2-1.3v-1.2l0.1-1.1l0.3-0.9l0.4-0.8l0.7-0.6l1-0.4l1.1,0.1l1.1,0.3
	l0.9,0.4 M315.9,290.4l-0.2-0.1l-1.2-0.6l-1.2-0.3h-1.2l-1.2,0.3l-1.2,0.8l-0.8,1.1l-0.5,1.3l-0.2,1.5v1.4l0.3,1.7l0.3,1.2l0.5,1.2
	l0.9,1.9 M310.2,301.8l1.3,1.9l0.6,0.7l1,1.1l1.1,0.9l1,0.6 M315.9,288.5l-7-4 M308.2,285.7l7,4.1 M315.2,293.5l0.8,0.6l0.8,0.7
	l1.2,1.6l0.7,1.7l0.3,1.2v2.1l-0.3,0.9l-0.7,0.9l-1.1,0.6l-0.8-0.1l-0.9-0.4 M317.2,293.2l-1.3-1 M318.7,303.2l0.6-0.1l0.6-0.4
	l0.3-0.6l0.2-0.5l0.1-1.3l-0.1-1.1 M315.2,291.6l1.2,0.8l1,1.1l1.7,2.3l1.1,2.3l0.4,1.8l-0.1,2.9l-0.4,1.3l-1,1.1l-1.6,0.6l-1.1-0.1
	l-1.2-0.5 M317.7,291.8l-1.8-1.4 M319.6,305.2l0.9-0.2l0.7-0.6l0.7-1.5l0.2-1.6l-0.1-1.8l-0.4-1.4 M320.2,295.1l1,2l0.4,0.9l0.4,1.4
	l0.2,1.3l0.1,1.3l-0.1,1.3l-0.2,1.1l-0.4,0.9l-0.7,0.7l-0.9,0.6l-1.1,0.1l-1.1-0.1l-1.2-0.4l-0.7-0.4 M315.2,289.8l0.5,0.3l1.4,1
	l0.9,1l0.8,0.9l0.9,1.3l0.5,0.8 M321.5,294.4l-1.4-2.1l-0.6-0.7l-1.1-1.1l-1.1-1l-1.2-0.9l-0.2-0.1 M315.2,307l1.1,0.6l1.3,0.4
	l1.3,0.2l1.3-0.2l1.3-0.6l1.1-1.1l0.7-1.3l0.3-1.5l0.1-1.6l-0.1-1.6l-0.3-1.6l-0.4-1.3l-0.6-1.3l-0.8-1.7 M322.9,290.2l-19.1-11
	 M303.1,280.4l19.1,11.1 M325.3,311.7v-17.4 M323.9,294.3v17.4 M322.2,291.5l0.5,0.3l0.6,0.7l0.2,0.4l0.2,0.5l0.1,0.5l0.1,0.5
	 M325.3,294.3l-0.1-0.9l-0.5-1.1l-0.3-0.6l-0.4-0.6l-0.5-0.5l-0.6-0.4 M425,173.8l1-0.6l1.6-1.6l1.2-1.8l0.8-2.1l0.5-2.3l0.1-2.4
	l-0.1-2.5l-0.5-2.4l-0.7-2.5l-0.6-1.8l-0.8-1.8l-1.3-2.6 M426.2,149.4l-1.8-2.7l-0.8-1.1l-1.4-1.6l-1.5-1.6l-1.7-1.5l-1.8-1.3
	l-1.9-1.1l-1.9-0.8l-2-0.5l-2-0.2l-2,0.1l-1.9,0.6l-1.1,0.6 M321.6,218.8l0.4-0.2 M314.2,205.1l-0.4,0.2 M313.8,205.3l-1,0.9
	l-0.7,1.1l-0.4,2.2l0.3,2.1l0.7,2l1,1.8l1.7,1.9l1.2,1l1.5,0.7l1.7,0.3l1.8-0.5 M322,218.6h-0.1l-0.2,0.1 M314.4,216.1l0.3,0.6
	l0.6,0.8l1.1,1.2l1.2,1l1.3,0.9l1.3,0.7l1.4,0.5l1.4,0.2l1.3-0.1l1.3-0.5l0.1-0.1 M313.4,200.7l-0.9,0.7l-0.9,1.3l-0.5,1.5l-0.2,1.7
	v0.7 M310.9,206.6l0.1,0.9l0.3,2l0.4,1.4l0.5,1.3l0.2,0.6 M330.9,228.2l94.2-54.4 M404.6,138.2l-94.2,54.4 M309.3,216.9l1.8,2.8
	l0.8,1l1.4,1.7l1.5,1.5l1.7,1.5l1.8,1.3l1.9,1.1l2,0.8l2,0.6l2,0.2l1.9-0.2l1.9-0.6l1-0.6 M310.5,192.6l-1,0.5l-1.6,1.6l-1.2,1.8
	l-0.8,2.1l-0.5,2.3l-0.1,2.4l0.2,2.5l0.4,2.5l0.7,2.4l0.6,1.8l0.8,1.8l1.3,2.6 M450.7,86.7l0.8-0.6l0.6-0.7l0.4-0.8v-0.8
	 M425.2,21.3l-3.5-1.5l-3.7-0.7l-3.4,0.3l-2.6,1.1 M435.7,27.4l-10.5-6.1 M452.5,83.8L450,50.1 M450,50.1l-0.6-3.6l-1.1-3.5
	l-1.5-3.4l-1.9-3.2l-2.1-2.9l-2.3-2.5l-2.4-2l-2.4-1.6 M265.7,144.6l0.1,0.9l0.3,0.7l0.6,0.8l0.8,0.5 M277.6,133.2L277.6,133.2
	 M268.3,111l-2.6,33.7 M310.2,167.8l140.5-81.1 M267.5,147.5l35.1,20.3 M293.6,150.7l-0.1,0.3v0.1 M302.6,167.8l1.7,0.6l1.6,0.2
	 M305.9,168.6l0.5,0.1l2.1-0.3l1.7-0.6 M293.8,144l-0.2,6.7 M293.2,142.3l0.3,0.4l0.2,0.5l0.1,0.4v0.4 M277.5,133.2l2.4,0.1l2,0.4
	l1.6,0.6l1.1,0.5l1.5,0.9l0.7,0.5 M286.8,136.2l1.3,0.9l2.4,2.2l2.7,3 M411.9,20.5L274.6,99.7 M274.5,99.9l-2.1,1.5l-2.1,2.7
	l-1.4,3.2l-0.6,3.7 M197.8,305.3l0.2-0.1l0.2-0.3l0.1-0.3v-0.1 M198.3,304.4l-0.6-6.6 M191.2,309.1l6.6-3.8 M188.2,311.3l3-2.2
	 M185.3,290l-0.1,11.8 M190.3,301.1l-0.1-11.1 M190.1,290l-0.1-0.7 M185.5,289.3l-0.2,0.6l0.1,0.1 M178.2,317.1l10-5.8 M185.8,287.2
	l-0.4,2.1 M190.1,289.3l-0.4-2.1 M188.9,286l-0.6-0.3h-0.7l-0.8,0.2l-0.5,0.3l-0.4,0.5l-0.1,0.5 M189.7,287.1l-0.1-0.4l-0.3-0.4
	l-0.4-0.3 M174.4,318.9l3.8-1.8 M165,308l-1.6,0.9 M147.4,318.2l-1.6,0.9 M151.1,332.3l23.3-13.5 M148.1,334.5l3-2.2 M138.1,340.3
	l10-5.8 M134.3,342l3.8-1.7 M116.8,342.2v0.1l0.1,0.1v0.1v0.1l0.1,0.1l0.1,0.1l0.1,0.1 M117.1,335.2l-0.3,7 M125.4,347.1l8.9-5.1
	 M117.3,342.9l7.2,4.2 M124.5,347.1l0.1,0.1l0.4,0.1 M125,347.3l0.3-0.1l0.1-0.1 M126.1,332.4l-1.6-0.9 M127.2,323.6l-0.1,11.7
	 M132.2,334.6l-0.2-11 M132,323.6l-0.1-0.7 M127.3,322.9l-0.1,0.6v0.1 M127.6,320.7l-0.3,2.2 M132,322.9l-0.4-2.2 M130.7,319.5
	l-0.5-0.2l-0.7-0.1l-0.8,0.2l-0.6,0.4l-0.3,0.5l-0.1,0.4 M131.6,320.7l-0.1-0.4l-0.4-0.5l-0.4-0.3 M186.7,255.9h0.1v-0.1h0.1v-0.1
	l0.1-0.1v-0.1v-0.1 M180.5,236.1V236h-0.1h-0.1h-0.1h-0.1H180v0.1 M186.7,239.7l-6.2-3.6 M187,255.4v-15.2 M187,240.2v-0.1l-0.1-0.2
	 M186.9,239.9l-0.1-0.2h-0.1 M130.4,280.3v0.1v0.2 M130.4,280.6l0.2,0.2 M137.4,284.4l49.3-28.5 M130.6,280.8l6.3,3.6 M136.9,284.4
	L136.9,284.4h0.1l0.1,0.1h0.1l0.1-0.1h0.1 M180,236.1l-49.4,28.4 M130.4,265v15.3 M130.6,264.5v0.1h-0.1v0.1l-0.1,0.1v0.1v0.1
	 M203.9,188.5l0.3-0.2l0.2-0.2l0.1-0.3v-0.3 M195,156.4l-0.7-0.3l-0.8-0.1l-0.7,0.1l-0.5,0.2 M199.9,159.3l-4.9-2.8 M204.5,187.5
	l-1.8-23.8 M202.7,163.7l-0.3-1.2l-0.6-1.3l-0.9-1.1l-1-0.8 M112.9,226.4v0.3l0.1,0.3l0.2,0.2l0.3,0.2 M125.8,233.6l78.1-45.1
	 M113.5,227.4l10.6,6.2 M124.1,233.6l0.4,0.1l0.5,0.1l0.4-0.1l0.4-0.1 M114.7,202.6l-1.8,23.9 M192.3,156.3l-76.3,44 M116.1,200.2
	l-0.5,0.4l-0.5,0.6l-0.3,0.7l-0.1,0.8 M304.7,446.4l-0.4,0.2 M322.4,477.9l0.4-0.3 M303.1,415.8l-0.4,0.3 M324,452.9l0.4-0.2"/>
<g>
	<path d="M511.8,114.7c0.5,0.3,1.2,0.5,1.9,0.5c1.1,0,1.7-0.6,1.7-1.4c0-0.8-0.4-1.2-1.5-1.6c-1.3-0.5-2.1-1.2-2.1-2.3
		c0-1.3,1-2.2,2.6-2.2c0.8,0,1.4,0.2,1.8,0.4l-0.3,0.9c-0.3-0.1-0.8-0.4-1.5-0.4c-1.1,0-1.5,0.7-1.5,1.2c0,0.8,0.5,1.1,1.6,1.6
		c1.4,0.5,2.1,1.2,2.1,2.4c0,1.2-0.9,2.3-2.8,2.3c-0.8,0-1.6-0.2-2.1-0.5L511.8,114.7z"/>
	<path d="M518.5,113.3c0,1.4,0.9,2,2,2c0.8,0,1.2-0.1,1.6-0.3l0.2,0.8c-0.4,0.2-1,0.4-1.9,0.4c-1.8,0-2.9-1.2-2.9-2.9s1-3.1,2.7-3.1
		c1.9,0,2.4,1.7,2.4,2.7c0,0.2,0,0.4,0,0.5H518.5z M521.5,112.5c0-0.7-0.3-1.7-1.5-1.7c-1.1,0-1.5,1-1.6,1.7H521.5z"/>
	<path d="M523.9,111.8c0-0.6,0-1.1,0-1.6h0.9l0.1,1h0c0.3-0.6,1-1.1,1.9-1.1c0.8,0,2.1,0.5,2.1,2.5v3.5h-1.1v-3.3
		c0-0.9-0.3-1.7-1.3-1.7c-0.7,0-1.2,0.5-1.4,1.1c0,0.1-0.1,0.3-0.1,0.5v3.5h-1.1V111.8z"/>
	<path d="M530.4,114.9c0.3,0.2,0.9,0.4,1.4,0.4c0.8,0,1.1-0.4,1.1-0.9c0-0.5-0.3-0.8-1.1-1.1c-1-0.4-1.5-0.9-1.5-1.6
		c0-0.9,0.8-1.7,2-1.7c0.6,0,1.1,0.2,1.4,0.4l-0.3,0.8c-0.2-0.1-0.6-0.3-1.2-0.3c-0.6,0-1,0.4-1,0.8c0,0.5,0.3,0.7,1.1,1
		c1,0.4,1.5,0.9,1.5,1.8c0,1-0.8,1.7-2.2,1.7c-0.6,0-1.2-0.2-1.6-0.4L530.4,114.9z"/>
	<path d="M540.5,113c0,2.1-1.5,3.1-2.9,3.1c-1.6,0-2.8-1.2-2.8-3c0-1.9,1.3-3.1,2.9-3.1C539.4,110.1,540.5,111.3,540.5,113z
		 M535.9,113.1c0,1.3,0.7,2.2,1.8,2.2c1,0,1.8-0.9,1.8-2.3c0-1-0.5-2.2-1.7-2.2C536.5,110.9,535.9,112,535.9,113.1z"/>
	<path d="M541.9,112c0-0.7,0-1.3,0-1.8h0.9l0,1.1h0c0.3-0.8,0.9-1.3,1.6-1.3c0.1,0,0.2,0,0.3,0v1c-0.1,0-0.2,0-0.4,0
		c-0.7,0-1.3,0.6-1.4,1.4c0,0.1,0,0.3,0,0.5v3.1h-1V112z"/>
	<path d="M554,115.7c-0.4,0.2-1.2,0.4-2.1,0.4c-2.3,0-4-1.4-4-4.1c0-2.5,1.7-4.2,4.2-4.2c1,0,1.6,0.2,1.9,0.4l-0.3,0.9
		c-0.4-0.2-1-0.3-1.6-0.3c-1.9,0-3.2,1.2-3.2,3.3c0,2,1.1,3.3,3.1,3.3c0.6,0,1.3-0.1,1.7-0.3L554,115.7z"/>
	<path d="M560.4,113c0,2.1-1.5,3.1-2.9,3.1c-1.6,0-2.8-1.2-2.8-3c0-1.9,1.3-3.1,2.9-3.1C559.3,110.1,560.4,111.3,560.4,113z
		 M555.8,113.1c0,1.3,0.7,2.2,1.8,2.2c1,0,1.8-0.9,1.8-2.3c0-1-0.5-2.2-1.7-2.2C556.4,110.9,555.8,112,555.8,113.1z"/>
	<path d="M562.1,110.2l1.1,3.3c0.2,0.5,0.3,1,0.5,1.5h0c0.1-0.5,0.3-1,0.5-1.5l1.1-3.3h1.1l-2.3,5.8h-1l-2.2-5.8H562.1z"/>
	<path d="M567.9,113.3c0,1.4,0.9,2,2,2c0.8,0,1.2-0.1,1.6-0.3l0.2,0.8c-0.4,0.2-1,0.4-1.9,0.4c-1.8,0-2.9-1.2-2.9-2.9s1-3.1,2.7-3.1
		c1.9,0,2.4,1.7,2.4,2.7c0,0.2,0,0.4,0,0.5H567.9z M571,112.5c0-0.7-0.3-1.7-1.5-1.7c-1.1,0-1.5,1-1.6,1.7H571z"/>
	<path d="M573.3,112c0-0.7,0-1.3,0-1.8h0.9l0,1.1h0c0.3-0.8,0.9-1.3,1.6-1.3c0.1,0,0.2,0,0.3,0v1c-0.1,0-0.2,0-0.4,0
		c-0.7,0-1.3,0.6-1.4,1.4c0,0.1,0,0.3,0,0.5v3.1h-1V112z"/>
</g>
<g>
	<path d="M499.9,173c0.5-0.1,1.2-0.2,1.9-0.2c1,0,1.7,0.2,2.2,0.6c0.4,0.3,0.7,0.8,0.7,1.4c0,0.8-0.5,1.5-1.4,1.8v0
		c0.8,0.2,1.7,0.8,1.7,2c0,0.7-0.3,1.2-0.7,1.6c-0.6,0.5-1.5,0.8-2.8,0.8c-0.7,0-1.3,0-1.6-0.1V173z M501,176.3h0.9
		c1.1,0,1.8-0.6,1.8-1.4c0-0.9-0.7-1.3-1.8-1.3c-0.5,0-0.8,0-0.9,0.1V176.3z M501,180.2c0.2,0,0.5,0,0.9,0c1.1,0,2.1-0.4,2.1-1.6
		c0-1.1-0.9-1.6-2.1-1.6H501V180.2z"/>
	<path d="M509.6,181l-0.1-0.7h0c-0.3,0.5-0.9,0.9-1.8,0.9c-1.2,0-1.8-0.8-1.8-1.7c0-1.4,1.2-2.2,3.5-2.2v-0.1c0-0.5-0.1-1.3-1.3-1.3
		c-0.5,0-1.1,0.2-1.5,0.4l-0.2-0.7c0.5-0.3,1.2-0.5,1.9-0.5c1.8,0,2.2,1.2,2.2,2.4v2.2c0,0.5,0,1,0.1,1.4H509.6z M509.4,178
		c-1.2,0-2.5,0.2-2.5,1.3c0,0.7,0.5,1,1,1c0.8,0,1.2-0.5,1.4-1c0-0.1,0.1-0.2,0.1-0.3V178z"/>
	<path d="M513.4,173.5v1.7h1.5v0.8h-1.5v3.1c0,0.7,0.2,1.1,0.8,1.1c0.3,0,0.5,0,0.6-0.1l0,0.8c-0.2,0.1-0.5,0.1-0.9,0.1
		c-0.5,0-0.9-0.2-1.1-0.4c-0.3-0.3-0.4-0.8-0.4-1.5V176h-0.9v-0.8h0.9v-1.4L513.4,173.5z"/>
	<path d="M517.4,173.5v1.7h1.5v0.8h-1.5v3.1c0,0.7,0.2,1.1,0.8,1.1c0.3,0,0.5,0,0.6-0.1l0,0.8c-0.2,0.1-0.5,0.1-0.9,0.1
		c-0.5,0-0.9-0.2-1.1-0.4c-0.3-0.3-0.4-0.8-0.4-1.5V176h-0.9v-0.8h0.9v-1.4L517.4,173.5z"/>
	<path d="M520.6,178.3c0,1.4,0.9,2,2,2c0.8,0,1.2-0.1,1.6-0.3l0.2,0.8c-0.4,0.2-1,0.4-1.9,0.4c-1.8,0-2.9-1.2-2.9-2.9s1-3.1,2.7-3.1
		c1.9,0,2.4,1.7,2.4,2.7c0,0.2,0,0.4,0,0.5H520.6z M523.7,177.5c0-0.7-0.3-1.7-1.5-1.7c-1.1,0-1.5,1-1.6,1.7H523.7z"/>
	<path d="M526,177c0-0.7,0-1.3,0-1.8h0.9l0,1.1h0c0.3-0.8,0.9-1.3,1.6-1.3c0.1,0,0.2,0,0.3,0v1c-0.1,0-0.2,0-0.4,0
		c-0.7,0-1.3,0.6-1.4,1.4c0,0.1,0,0.3,0,0.5v3.1h-1V177z"/>
	<path d="M530.6,175.2l1.3,3.4c0.1,0.4,0.3,0.8,0.4,1.2h0c0.1-0.3,0.2-0.8,0.4-1.2l1.2-3.4h1.1l-1.6,4.1c-0.8,2-1.3,3-2,3.6
		c-0.5,0.5-1,0.6-1.3,0.7l-0.3-0.9c0.3-0.1,0.6-0.3,0.9-0.5c0.3-0.2,0.6-0.6,0.9-1.2c0-0.1,0.1-0.2,0.1-0.3c0-0.1,0-0.1-0.1-0.3
		l-2.1-5.3H530.6z"/>
</g>
<g>
	<path d="M485.6,260.7c-0.4,0.2-1.2,0.4-2.1,0.4c-2.3,0-4-1.4-4-4.1c0-2.5,1.7-4.2,4.2-4.2c1,0,1.6,0.2,1.9,0.4l-0.3,0.9
		c-0.4-0.2-1-0.3-1.6-0.3c-1.9,0-3.2,1.2-3.2,3.3c0,2,1.1,3.3,3.1,3.3c0.6,0,1.3-0.1,1.7-0.3L485.6,260.7z"/>
	<path d="M488,253.6c0,0.4-0.3,0.6-0.7,0.6c-0.4,0-0.6-0.3-0.6-0.6c0-0.4,0.3-0.7,0.7-0.7C487.7,252.9,488,253.2,488,253.6z
		 M486.8,261v-5.8h1.1v5.8H486.8z"/>
	<path d="M489.6,257c0-0.7,0-1.3,0-1.8h0.9l0,1.1h0c0.3-0.8,0.9-1.3,1.6-1.3c0.1,0,0.2,0,0.3,0v1c-0.1,0-0.2,0-0.4,0
		c-0.7,0-1.3,0.6-1.4,1.4c0,0.1,0,0.3,0,0.5v3.1h-1V257z"/>
	<path d="M497.5,260.8c-0.3,0.1-0.9,0.3-1.7,0.3c-1.8,0-2.9-1.2-2.9-3c0-1.8,1.2-3.1,3.1-3.1c0.6,0,1.2,0.2,1.5,0.3l-0.2,0.8
		c-0.3-0.1-0.6-0.3-1.2-0.3c-1.3,0-2.1,1-2.1,2.2c0,1.3,0.9,2.2,2,2.2c0.6,0,1-0.2,1.3-0.3L497.5,260.8z"/>
	<path d="M503.6,259.4c0,0.6,0,1.1,0,1.6h-0.9l-0.1-0.9h0c-0.3,0.5-0.9,1.1-1.9,1.1c-0.9,0-2-0.5-2-2.5v-3.4h1.1v3.2
		c0,1.1,0.3,1.8,1.3,1.8c0.7,0,1.2-0.5,1.4-1c0.1-0.2,0.1-0.3,0.1-0.5v-3.6h1.1V259.4z"/>
	<path d="M506.6,253.6c0,0.4-0.3,0.6-0.7,0.6c-0.4,0-0.6-0.3-0.6-0.6c0-0.4,0.3-0.7,0.7-0.7C506.3,252.9,506.6,253.2,506.6,253.6z
		 M505.4,261v-5.8h1.1v5.8H505.4z"/>
	<path d="M509.5,253.5v1.7h1.5v0.8h-1.5v3.1c0,0.7,0.2,1.1,0.8,1.1c0.3,0,0.5,0,0.6-0.1l0,0.8c-0.2,0.1-0.5,0.1-0.9,0.1
		c-0.5,0-0.9-0.2-1.1-0.4c-0.3-0.3-0.4-0.8-0.4-1.5V256h-0.9v-0.8h0.9v-1.4L509.5,253.5z"/>
	<path d="M512.1,261c0-0.4,0-1,0-1.5v-7h1v3.6h0c0.4-0.6,1-1.1,2-1.1c1.4,0,2.5,1.2,2.4,3c0,2.1-1.3,3.1-2.6,3.1
		c-0.8,0-1.5-0.3-1.9-1.1h0l0,1H512.1z M513.2,258.7c0,0.1,0,0.3,0,0.4c0.2,0.7,0.8,1.2,1.6,1.2c1.1,0,1.8-0.9,1.8-2.2
		c0-1.2-0.6-2.2-1.7-2.2c-0.7,0-1.4,0.5-1.6,1.3c0,0.1-0.1,0.3-0.1,0.4V258.7z"/>
	<path d="M524.3,258c0,2.1-1.5,3.1-2.9,3.1c-1.6,0-2.8-1.2-2.8-3c0-1.9,1.3-3.1,2.9-3.1C523.1,255.1,524.3,256.3,524.3,258z
		 M519.7,258.1c0,1.3,0.7,2.2,1.8,2.2c1,0,1.8-0.9,1.8-2.3c0-1-0.5-2.2-1.7-2.2C520.2,255.9,519.7,257,519.7,258.1z"/>
	<path d="M528.8,261l-0.1-0.7h0c-0.3,0.5-0.9,0.9-1.8,0.9c-1.2,0-1.8-0.8-1.8-1.7c0-1.4,1.2-2.2,3.5-2.2v-0.1c0-0.5-0.1-1.3-1.3-1.3
		c-0.5,0-1.1,0.2-1.5,0.4l-0.2-0.7c0.5-0.3,1.2-0.5,1.9-0.5c1.8,0,2.2,1.2,2.2,2.4v2.2c0,0.5,0,1,0.1,1.4H528.8z M528.7,258
		c-1.2,0-2.5,0.2-2.5,1.3c0,0.7,0.5,1,1,1c0.8,0,1.2-0.5,1.4-1c0-0.1,0.1-0.2,0.1-0.3V258z"/>
	<path d="M531.4,257c0-0.7,0-1.3,0-1.8h0.9l0,1.1h0c0.3-0.8,0.9-1.3,1.6-1.3c0.1,0,0.2,0,0.3,0v1c-0.1,0-0.2,0-0.4,0
		c-0.7,0-1.3,0.6-1.4,1.4c0,0.1,0,0.3,0,0.5v3.1h-1V257z"/>
	<path d="M540.2,252.5v7c0,0.5,0,1.1,0,1.5h-0.9l0-1h0c-0.3,0.6-1,1.1-2,1.1c-1.4,0-2.5-1.2-2.5-3c0-1.9,1.2-3.1,2.6-3.1
		c0.9,0,1.5,0.4,1.8,0.9h0v-3.5H540.2z M539.1,257.6c0-0.1,0-0.3,0-0.4c-0.2-0.7-0.7-1.2-1.5-1.2c-1.1,0-1.7,1-1.7,2.2
		c0,1.2,0.6,2.1,1.7,2.1c0.7,0,1.4-0.5,1.5-1.3c0-0.1,0-0.3,0-0.5V257.6z"/>
	<path d="M545.8,258.5L545,261h-1.1l2.7-8.1h1.3l2.8,8.1h-1.1l-0.9-2.5H545.8z M548.5,257.6l-0.8-2.3c-0.2-0.5-0.3-1-0.4-1.5h0
		c-0.1,0.5-0.3,1-0.4,1.5l-0.8,2.3H548.5z"/>
	<path d="M551.6,259.9c0.3,0.2,0.9,0.4,1.4,0.4c0.8,0,1.1-0.4,1.1-0.9c0-0.5-0.3-0.8-1.1-1.1c-1-0.4-1.5-0.9-1.5-1.6
		c0-0.9,0.8-1.7,2-1.7c0.6,0,1.1,0.2,1.4,0.4l-0.3,0.8c-0.2-0.1-0.6-0.3-1.2-0.3c-0.6,0-1,0.4-1,0.8c0,0.5,0.3,0.7,1.1,1
		c1,0.4,1.5,0.9,1.5,1.8c0,1-0.8,1.7-2.2,1.7c-0.6,0-1.2-0.2-1.6-0.4L551.6,259.9z"/>
	<path d="M556.4,259.9c0.3,0.2,0.9,0.4,1.4,0.4c0.8,0,1.1-0.4,1.1-0.9c0-0.5-0.3-0.8-1.1-1.1c-1-0.4-1.5-0.9-1.5-1.6
		c0-0.9,0.8-1.7,2-1.7c0.6,0,1.1,0.2,1.4,0.4l-0.3,0.8c-0.2-0.1-0.6-0.3-1.2-0.3c-0.6,0-1,0.4-1,0.8c0,0.5,0.3,0.7,1.1,1
		c1,0.4,1.5,0.9,1.5,1.8c0,1-0.8,1.7-2.2,1.7c-0.6,0-1.2-0.2-1.6-0.4L556.4,259.9z"/>
	<path d="M561.9,258.3c0,1.4,0.9,2,2,2c0.8,0,1.2-0.1,1.6-0.3l0.2,0.8c-0.4,0.2-1,0.4-1.9,0.4c-1.8,0-2.9-1.2-2.9-2.9s1-3.1,2.7-3.1
		c1.9,0,2.4,1.7,2.4,2.7c0,0.2,0,0.4,0,0.5H561.9z M565,257.5c0-0.7-0.3-1.7-1.5-1.7c-1.1,0-1.5,1-1.6,1.7H565z"/>
	<path d="M567.3,256.8c0-0.6,0-1.1,0-1.6h0.9l0,0.9h0c0.3-0.6,0.9-1.1,1.8-1.1c0.8,0,1.4,0.5,1.6,1.2h0c0.2-0.3,0.4-0.6,0.6-0.8
		c0.3-0.3,0.7-0.4,1.3-0.4c0.8,0,1.9,0.5,1.9,2.5v3.4h-1v-3.3c0-1.1-0.4-1.8-1.3-1.8c-0.6,0-1.1,0.4-1.2,1c0,0.1-0.1,0.3-0.1,0.5
		v3.6h-1v-3.5c0-0.9-0.4-1.6-1.2-1.6c-0.7,0-1.1,0.5-1.3,1.1c-0.1,0.2-0.1,0.3-0.1,0.5v3.5h-1V256.8z"/>
	<path d="M577.2,261c0-0.4,0-1,0-1.5v-7h1v3.6h0c0.4-0.6,1-1.1,2-1.1c1.4,0,2.5,1.2,2.4,3c0,2.1-1.3,3.1-2.6,3.1
		c-0.8,0-1.5-0.3-1.9-1.1h0l0,1H577.2z M578.3,258.7c0,0.1,0,0.3,0,0.4c0.2,0.7,0.8,1.2,1.6,1.2c1.1,0,1.8-0.9,1.8-2.2
		c0-1.2-0.6-2.2-1.7-2.2c-0.7,0-1.4,0.5-1.6,1.3c0,0.1-0.1,0.3-0.1,0.4V258.7z"/>
	<path d="M584.1,252.5h1.1v8.5h-1.1V252.5z"/>
	<path d="M587.3,255.2l1.3,3.4c0.1,0.4,0.3,0.8,0.4,1.2h0c0.1-0.3,0.2-0.8,0.4-1.2l1.2-3.4h1.1l-1.6,4.1c-0.8,2-1.3,3-2,3.6
		c-0.5,0.5-1,0.6-1.3,0.7l-0.3-0.9c0.3-0.1,0.6-0.3,0.9-0.5c0.3-0.2,0.6-0.6,0.9-1.2c0-0.1,0.1-0.2,0.1-0.3c0-0.1,0-0.1-0.1-0.3
		l-2.1-5.3H587.3z"/>
</g>
<g>
	<path d="M425.8,395.7c0.5,0.3,1.2,0.5,1.9,0.5c1.1,0,1.7-0.6,1.7-1.4c0-0.8-0.4-1.2-1.5-1.6c-1.3-0.5-2.1-1.2-2.1-2.3
		c0-1.3,1-2.2,2.6-2.2c0.8,0,1.4,0.2,1.8,0.4l-0.3,0.9c-0.3-0.1-0.8-0.4-1.5-0.4c-1.1,0-1.5,0.7-1.5,1.2c0,0.8,0.5,1.1,1.6,1.6
		c1.4,0.5,2.1,1.2,2.1,2.4c0,1.2-0.9,2.3-2.8,2.3c-0.8,0-1.6-0.2-2.1-0.5L425.8,395.7z"/>
	<path d="M432.5,394.3c0,1.4,0.9,2,2,2c0.8,0,1.2-0.1,1.6-0.3l0.2,0.8c-0.4,0.2-1,0.4-1.9,0.4c-1.8,0-2.9-1.2-2.9-2.9s1-3.1,2.7-3.1
		c1.9,0,2.4,1.7,2.4,2.7c0,0.2,0,0.4,0,0.5H432.5z M435.5,393.5c0-0.7-0.3-1.7-1.5-1.7c-1.1,0-1.5,1-1.6,1.7H435.5z"/>
	<path d="M437.9,392.8c0-0.6,0-1.1,0-1.6h0.9l0.1,1h0c0.3-0.6,1-1.1,1.9-1.1c0.8,0,2.1,0.5,2.1,2.5v3.5h-1.1v-3.3
		c0-0.9-0.3-1.7-1.3-1.7c-0.7,0-1.2,0.5-1.4,1.1c0,0.1-0.1,0.3-0.1,0.5v3.5h-1.1V392.8z"/>
	<path d="M444.4,395.9c0.3,0.2,0.9,0.4,1.4,0.4c0.8,0,1.1-0.4,1.1-0.9c0-0.5-0.3-0.8-1.1-1.1c-1-0.4-1.5-0.9-1.5-1.6
		c0-0.9,0.8-1.7,2-1.7c0.6,0,1.1,0.2,1.4,0.4l-0.3,0.8c-0.2-0.1-0.6-0.3-1.2-0.3c-0.6,0-1,0.4-1,0.8c0,0.5,0.3,0.7,1.1,1
		c1,0.4,1.5,0.9,1.5,1.8c0,1-0.8,1.7-2.2,1.7c-0.6,0-1.2-0.2-1.6-0.4L444.4,395.9z"/>
	<path d="M454.5,394c0,2.1-1.5,3.1-2.9,3.1c-1.6,0-2.8-1.2-2.8-3c0-1.9,1.3-3.1,2.9-3.1C453.4,391.1,454.5,392.3,454.5,394z
		 M449.9,394.1c0,1.3,0.7,2.2,1.8,2.2c1,0,1.8-0.9,1.8-2.3c0-1-0.5-2.2-1.7-2.2C450.5,391.9,449.9,393,449.9,394.1z"/>
	<path d="M455.9,393c0-0.7,0-1.3,0-1.8h0.9l0,1.1h0c0.3-0.8,0.9-1.3,1.6-1.3c0.1,0,0.2,0,0.3,0v1c-0.1,0-0.2,0-0.4,0
		c-0.7,0-1.3,0.6-1.4,1.4c0,0.1,0,0.3,0,0.5v3.1h-1V393z"/>
	<path d="M462.4,389c0.5-0.1,1.2-0.2,1.9-0.2c1,0,1.7,0.2,2.2,0.6c0.4,0.3,0.7,0.8,0.7,1.4c0,0.8-0.5,1.5-1.4,1.8v0
		c0.8,0.2,1.7,0.8,1.7,2c0,0.7-0.3,1.2-0.7,1.6c-0.6,0.5-1.5,0.8-2.8,0.8c-0.7,0-1.3,0-1.6-0.1V389z M463.4,392.3h0.9
		c1.1,0,1.8-0.6,1.8-1.4c0-0.9-0.7-1.3-1.8-1.3c-0.5,0-0.8,0-0.9,0.1V392.3z M463.4,396.2c0.2,0,0.5,0,0.9,0c1.1,0,2.1-0.4,2.1-1.6
		c0-1.1-0.9-1.6-2.1-1.6h-0.9V396.2z"/>
	<path d="M472.1,397l-0.1-0.7h0c-0.3,0.5-0.9,0.9-1.8,0.9c-1.2,0-1.8-0.8-1.8-1.7c0-1.4,1.2-2.2,3.5-2.2v-0.1c0-0.5-0.1-1.3-1.3-1.3
		c-0.5,0-1.1,0.2-1.5,0.4l-0.2-0.7c0.5-0.3,1.2-0.5,1.9-0.5c1.8,0,2.2,1.2,2.2,2.4v2.2c0,0.5,0,1,0.1,1.4H472.1z M471.9,394
		c-1.2,0-2.5,0.2-2.5,1.3c0,0.7,0.5,1,1,1c0.8,0,1.2-0.5,1.4-1c0-0.1,0.1-0.2,0.1-0.3V394z"/>
	<path d="M474.5,395.9c0.3,0.2,0.9,0.4,1.4,0.4c0.8,0,1.1-0.4,1.1-0.9c0-0.5-0.3-0.8-1.1-1.1c-1-0.4-1.5-0.9-1.5-1.6
		c0-0.9,0.8-1.7,2-1.7c0.6,0,1.1,0.2,1.4,0.4l-0.3,0.8c-0.2-0.1-0.6-0.3-1.2-0.3c-0.6,0-1,0.4-1,0.8c0,0.5,0.3,0.7,1.1,1
		c1,0.4,1.5,0.9,1.5,1.8c0,1-0.8,1.7-2.2,1.7c-0.6,0-1.2-0.2-1.6-0.4L474.5,395.9z"/>
	<path d="M480,394.3c0,1.4,0.9,2,2,2c0.8,0,1.2-0.1,1.6-0.3l0.2,0.8c-0.4,0.2-1,0.4-1.9,0.4c-1.8,0-2.9-1.2-2.9-2.9s1-3.1,2.7-3.1
		c1.9,0,2.4,1.7,2.4,2.7c0,0.2,0,0.4,0,0.5H480z M483.1,393.5c0-0.7-0.3-1.7-1.5-1.7c-1.1,0-1.5,1-1.6,1.7H483.1z"/>
</g>
<g>
	<path d="M377.9,454c0.5-0.1,1.2-0.2,1.9-0.2c1,0,1.7,0.2,2.2,0.6c0.4,0.3,0.7,0.8,0.7,1.4c0,0.8-0.5,1.5-1.4,1.8v0
		c0.8,0.2,1.7,0.8,1.7,2c0,0.7-0.3,1.2-0.7,1.6c-0.6,0.5-1.5,0.8-2.8,0.8c-0.7,0-1.3,0-1.6-0.1V454z M379,457.3h0.9
		c1.1,0,1.8-0.6,1.8-1.4c0-0.9-0.7-1.3-1.8-1.3c-0.5,0-0.8,0-0.9,0.1V457.3z M379,461.2c0.2,0,0.5,0,0.9,0c1.1,0,2.1-0.4,2.1-1.6
		c0-1.1-0.9-1.6-2.1-1.6H379V461.2z"/>
	<path d="M387.6,462l-0.1-0.7h0c-0.3,0.5-0.9,0.9-1.8,0.9c-1.2,0-1.8-0.8-1.8-1.7c0-1.4,1.2-2.2,3.5-2.2v-0.1c0-0.5-0.1-1.3-1.3-1.3
		c-0.5,0-1.1,0.2-1.5,0.4l-0.2-0.7c0.5-0.3,1.2-0.5,1.9-0.5c1.8,0,2.2,1.2,2.2,2.4v2.2c0,0.5,0,1,0.1,1.4H387.6z M387.4,459
		c-1.2,0-2.5,0.2-2.5,1.3c0,0.7,0.5,1,1,1c0.8,0,1.2-0.5,1.4-1c0-0.1,0.1-0.2,0.1-0.3V459z"/>
	<path d="M391.4,454.5v1.7h1.5v0.8h-1.5v3.1c0,0.7,0.2,1.1,0.8,1.1c0.3,0,0.5,0,0.6-0.1l0,0.8c-0.2,0.1-0.5,0.1-0.9,0.1
		c-0.5,0-0.9-0.2-1.1-0.4c-0.3-0.3-0.4-0.8-0.4-1.5V457h-0.9v-0.8h0.9v-1.4L391.4,454.5z"/>
	<path d="M395.4,454.5v1.7h1.5v0.8h-1.5v3.1c0,0.7,0.2,1.1,0.8,1.1c0.3,0,0.5,0,0.6-0.1l0,0.8c-0.2,0.1-0.5,0.1-0.9,0.1
		c-0.5,0-0.9-0.2-1.1-0.4c-0.3-0.3-0.4-0.8-0.4-1.5V457h-0.9v-0.8h0.9v-1.4L395.4,454.5z"/>
	<path d="M398.6,459.3c0,1.4,0.9,2,2,2c0.8,0,1.2-0.1,1.6-0.3l0.2,0.8c-0.4,0.2-1,0.4-1.9,0.4c-1.8,0-2.9-1.2-2.9-2.9s1-3.1,2.7-3.1
		c1.9,0,2.4,1.7,2.4,2.7c0,0.2,0,0.4,0,0.5H398.6z M401.7,458.5c0-0.7-0.3-1.7-1.5-1.7c-1.1,0-1.5,1-1.6,1.7H401.7z"/>
	<path d="M404,458c0-0.7,0-1.3,0-1.8h0.9l0,1.1h0c0.3-0.8,0.9-1.3,1.6-1.3c0.1,0,0.2,0,0.3,0v1c-0.1,0-0.2,0-0.4,0
		c-0.7,0-1.3,0.6-1.4,1.4c0,0.1,0,0.3,0,0.5v3.1h-1V458z"/>
	<path d="M408.6,456.2l1.3,3.4c0.1,0.4,0.3,0.8,0.4,1.2h0c0.1-0.3,0.2-0.8,0.4-1.2l1.2-3.4h1.1l-1.6,4.1c-0.8,2-1.3,3-2,3.6
		c-0.5,0.5-1,0.6-1.3,0.7l-0.3-0.9c0.3-0.1,0.6-0.3,0.9-0.5c0.3-0.2,0.6-0.6,0.9-1.2c0-0.1,0.1-0.2,0.1-0.3c0-0.1,0-0.1-0.1-0.3
		l-2.1-5.3H408.6z"/>
	<path d="M417.5,454.8H415v-0.9h6v0.9h-2.5v7.2h-1.1V454.8z"/>
	<path d="M424.3,462l-0.1-0.7h0c-0.3,0.5-0.9,0.9-1.8,0.9c-1.2,0-1.8-0.8-1.8-1.7c0-1.4,1.2-2.2,3.5-2.2v-0.1c0-0.5-0.1-1.3-1.3-1.3
		c-0.5,0-1.1,0.2-1.5,0.4l-0.2-0.7c0.5-0.3,1.2-0.5,1.9-0.5c1.8,0,2.2,1.2,2.2,2.4v2.2c0,0.5,0,1,0.1,1.4H424.3z M424.2,459
		c-1.2,0-2.5,0.2-2.5,1.3c0,0.7,0.5,1,1,1c0.8,0,1.2-0.5,1.4-1c0-0.1,0.1-0.2,0.1-0.3V459z"/>
	<path d="M426.9,462c0-0.4,0-1,0-1.5v-7h1v3.6h0c0.4-0.6,1-1.1,2-1.1c1.4,0,2.5,1.2,2.4,3c0,2.1-1.3,3.1-2.6,3.1
		c-0.8,0-1.5-0.3-1.9-1.1h0l0,1H426.9z M428,459.7c0,0.1,0,0.3,0,0.4c0.2,0.7,0.8,1.2,1.6,1.2c1.1,0,1.8-0.9,1.8-2.2
		c0-1.2-0.6-2.2-1.7-2.2c-0.7,0-1.4,0.5-1.6,1.3c0,0.1-0.1,0.3-0.1,0.4V459.7z"/>
</g>
<g>
	<path d="M59.7,159.5c-0.1-1.1-0.1-2.5-0.1-3.5h0c-0.3,0.9-0.6,2-1,3.1l-1.4,3.9h-0.8l-1.3-3.9c-0.4-1.1-0.7-2.2-0.9-3.1h0
		c0,1-0.1,2.4-0.2,3.6l-0.2,3.5h-1l0.6-8.1h1.3l1.4,3.9c0.3,1,0.6,1.9,0.8,2.7h0c0.2-0.8,0.5-1.7,0.9-2.7l1.4-3.9h1.3l0.5,8.1h-1
		L59.7,159.5z"/>
	<path d="M65.8,163l-0.1-0.7h0c-0.3,0.5-0.9,0.9-1.8,0.9c-1.2,0-1.8-0.8-1.8-1.7c0-1.4,1.2-2.2,3.5-2.2v-0.1c0-0.5-0.1-1.3-1.3-1.3
		c-0.5,0-1.1,0.2-1.5,0.4l-0.2-0.7c0.5-0.3,1.2-0.5,1.9-0.5c1.8,0,2.2,1.2,2.2,2.4v2.2c0,0.5,0,1,0.1,1.4H65.8z M65.7,160
		c-1.2,0-2.5,0.2-2.5,1.3c0,0.7,0.5,1,1,1c0.8,0,1.2-0.5,1.4-1c0-0.1,0.1-0.2,0.1-0.3V160z"/>
	<path d="M73.4,157.2c0,0.4,0,0.9,0,1.6v3.4c0,1.3-0.3,2.1-0.8,2.7c-0.6,0.5-1.4,0.7-2.1,0.7c-0.7,0-1.5-0.2-1.9-0.5l0.3-0.8
		c0.4,0.2,1,0.5,1.7,0.5c1.1,0,1.9-0.6,1.9-2V162h0c-0.3,0.5-0.9,1-1.8,1c-1.4,0-2.5-1.2-2.5-2.8c0-2,1.3-3.1,2.6-3.1
		c1,0,1.6,0.5,1.8,1h0l0-0.9H73.4z M72.3,159.5c0-0.2,0-0.3-0.1-0.5c-0.2-0.6-0.7-1.1-1.5-1.1c-1,0-1.7,0.9-1.7,2.2
		c0,1.1,0.6,2.1,1.7,2.1c0.6,0,1.2-0.4,1.5-1.1c0.1-0.2,0.1-0.4,0.1-0.6V159.5z"/>
	<path d="M75,158.8c0-0.6,0-1.1,0-1.6h0.9l0.1,1h0c0.3-0.6,1-1.1,1.9-1.1c0.8,0,2.1,0.5,2.1,2.5v3.5h-1.1v-3.3
		c0-0.9-0.3-1.7-1.3-1.7c-0.7,0-1.2,0.5-1.4,1.1c0,0.1-0.1,0.3-0.1,0.5v3.5H75V158.8z"/>
	<path d="M82.3,160.3c0,1.4,0.9,2,2,2c0.8,0,1.2-0.1,1.6-0.3l0.2,0.8c-0.4,0.2-1,0.4-1.9,0.4c-1.8,0-2.9-1.2-2.9-2.9s1-3.1,2.7-3.1
		c1.9,0,2.4,1.7,2.4,2.7c0,0.2,0,0.4,0,0.5H82.3z M85.4,159.5c0-0.7-0.3-1.7-1.5-1.7c-1.1,0-1.5,1-1.6,1.7H85.4z"/>
	<path d="M89,155.5v1.7h1.5v0.8H89v3.1c0,0.7,0.2,1.1,0.8,1.1c0.3,0,0.5,0,0.6-0.1l0,0.8c-0.2,0.1-0.5,0.1-0.9,0.1
		c-0.5,0-0.9-0.2-1.1-0.4c-0.3-0.3-0.4-0.8-0.4-1.5V158H87v-0.8h0.9v-1.4L89,155.5z"/>
	<path d="M99.9,162.7c-0.4,0.2-1.2,0.4-2.1,0.4c-2.3,0-4-1.4-4-4.1c0-2.5,1.7-4.2,4.2-4.2c1,0,1.6,0.2,1.9,0.4l-0.3,0.9
		c-0.4-0.2-1-0.3-1.6-0.3c-1.9,0-3.2,1.2-3.2,3.3c0,2,1.1,3.3,3.1,3.3c0.6,0,1.3-0.1,1.7-0.3L99.9,162.7z"/>
	<path d="M106.3,160c0,2.1-1.5,3.1-2.9,3.1c-1.6,0-2.8-1.2-2.8-3c0-1.9,1.3-3.1,2.9-3.1C105.2,157.1,106.3,158.3,106.3,160z
		 M101.7,160.1c0,1.3,0.7,2.2,1.8,2.2c1,0,1.8-0.9,1.8-2.3c0-1-0.5-2.2-1.7-2.2C102.2,157.9,101.7,159,101.7,160.1z"/>
	<path d="M107.9,157.2l1.1,3.3c0.2,0.5,0.3,1,0.5,1.5h0c0.1-0.5,0.3-1,0.5-1.5l1.1-3.3h1.1L110,163h-1l-2.2-5.8H107.9z"/>
	<path d="M113.8,160.3c0,1.4,0.9,2,2,2c0.8,0,1.2-0.1,1.6-0.3l0.2,0.8c-0.4,0.2-1,0.4-1.9,0.4c-1.8,0-2.9-1.2-2.9-2.9s1-3.1,2.7-3.1
		c1.9,0,2.4,1.7,2.4,2.7c0,0.2,0,0.4,0,0.5H113.8z M116.9,159.5c0-0.7-0.3-1.7-1.5-1.7c-1.1,0-1.5,1-1.6,1.7H116.9z"/>
	<path d="M119.2,159c0-0.7,0-1.3,0-1.8h0.9l0,1.1h0c0.3-0.8,0.9-1.3,1.6-1.3c0.1,0,0.2,0,0.3,0v1c-0.1,0-0.2,0-0.4,0
		c-0.7,0-1.3,0.6-1.4,1.4c0,0.1,0,0.3,0,0.5v3.1h-1V159z"/>
</g>
<g>
	<path d="M26.7,257.5c-0.1-1.1-0.1-2.5-0.1-3.5h0c-0.3,0.9-0.6,2-1,3.1l-1.4,3.9h-0.8l-1.3-3.9c-0.4-1.1-0.7-2.2-0.9-3.1h0
		c0,1-0.1,2.4-0.2,3.6l-0.2,3.5h-1l0.6-8.1h1.3l1.4,3.9c0.3,1,0.6,1.9,0.8,2.7h0c0.2-0.8,0.5-1.7,0.9-2.7l1.4-3.9h1.3l0.5,8.1h-1
		L26.7,257.5z"/>
	<path d="M32.8,261l-0.1-0.7h0c-0.3,0.5-0.9,0.9-1.8,0.9c-1.2,0-1.8-0.8-1.8-1.7c0-1.4,1.2-2.2,3.5-2.2v-0.1c0-0.5-0.1-1.3-1.3-1.3
		c-0.5,0-1.1,0.2-1.5,0.4l-0.2-0.7c0.5-0.3,1.2-0.5,1.9-0.5c1.8,0,2.2,1.2,2.2,2.4v2.2c0,0.5,0,1,0.1,1.4H32.8z M32.7,258
		c-1.2,0-2.5,0.2-2.5,1.3c0,0.7,0.5,1,1,1c0.8,0,1.2-0.5,1.4-1c0-0.1,0.1-0.2,0.1-0.3V258z"/>
	<path d="M40.4,255.2c0,0.4,0,0.9,0,1.6v3.4c0,1.3-0.3,2.1-0.8,2.7c-0.6,0.5-1.4,0.7-2.1,0.7c-0.7,0-1.5-0.2-1.9-0.5l0.3-0.8
		c0.4,0.2,1,0.5,1.7,0.5c1.1,0,1.9-0.6,1.9-2V260h0c-0.3,0.5-0.9,1-1.8,1c-1.4,0-2.5-1.2-2.5-2.8c0-2,1.3-3.1,2.6-3.1
		c1,0,1.6,0.5,1.8,1h0l0-0.9H40.4z M39.3,257.5c0-0.2,0-0.3-0.1-0.5c-0.2-0.6-0.7-1.1-1.5-1.1c-1,0-1.7,0.9-1.7,2.2
		c0,1.1,0.6,2.1,1.7,2.1c0.6,0,1.2-0.4,1.5-1.1c0.1-0.2,0.1-0.4,0.1-0.6V257.5z"/>
	<path d="M42,256.8c0-0.6,0-1.1,0-1.6h0.9l0.1,1h0c0.3-0.6,1-1.1,1.9-1.1c0.8,0,2.1,0.5,2.1,2.5v3.5h-1.1v-3.3
		c0-0.9-0.3-1.7-1.3-1.7c-0.7,0-1.2,0.5-1.4,1.1c0,0.1-0.1,0.3-0.1,0.5v3.5H42V256.8z"/>
	<path d="M49.3,258.3c0,1.4,0.9,2,2,2c0.8,0,1.2-0.1,1.6-0.3l0.2,0.8c-0.4,0.2-1,0.4-1.9,0.4c-1.8,0-2.9-1.2-2.9-2.9s1-3.1,2.7-3.1
		c1.9,0,2.4,1.7,2.4,2.7c0,0.2,0,0.4,0,0.5H49.3z M52.4,257.5c0-0.7-0.3-1.7-1.5-1.7c-1.1,0-1.5,1-1.6,1.7H52.4z"/>
	<path d="M56,253.5v1.7h1.5v0.8H56v3.1c0,0.7,0.2,1.1,0.8,1.1c0.3,0,0.5,0,0.6-0.1l0,0.8c-0.2,0.1-0.5,0.1-0.9,0.1
		c-0.5,0-0.9-0.2-1.1-0.4c-0.3-0.3-0.4-0.8-0.4-1.5V256H54v-0.8h0.9v-1.4L56,253.5z"/>
</g>
<g>
	<path d="M34.7,332.5c-0.1-1.1-0.1-2.5-0.1-3.5h0c-0.3,0.9-0.6,2-1,3.1l-1.4,3.9h-0.8l-1.3-3.9c-0.4-1.1-0.7-2.2-0.9-3.1h0
		c0,1-0.1,2.4-0.2,3.6l-0.2,3.5h-1l0.6-8.1h1.3l1.4,3.9c0.3,1,0.6,1.9,0.8,2.7h0c0.2-0.8,0.5-1.7,0.9-2.7l1.4-3.9h1.3l0.5,8.1h-1
		L34.7,332.5z"/>
	<path d="M40.8,336l-0.1-0.7h0c-0.3,0.5-0.9,0.9-1.8,0.9c-1.2,0-1.8-0.8-1.8-1.7c0-1.4,1.2-2.2,3.5-2.2v-0.1c0-0.5-0.1-1.3-1.3-1.3
		c-0.5,0-1.1,0.2-1.5,0.4l-0.2-0.7c0.5-0.3,1.2-0.5,1.9-0.5c1.8,0,2.2,1.2,2.2,2.4v2.2c0,0.5,0,1,0.1,1.4H40.8z M40.7,333
		c-1.2,0-2.5,0.2-2.5,1.3c0,0.7,0.5,1,1,1c0.8,0,1.2-0.5,1.4-1c0-0.1,0.1-0.2,0.1-0.3V333z"/>
	<path d="M48.4,330.2c0,0.4,0,0.9,0,1.6v3.4c0,1.3-0.3,2.1-0.8,2.7c-0.6,0.5-1.4,0.7-2.1,0.7c-0.7,0-1.5-0.2-1.9-0.5l0.3-0.8
		c0.4,0.2,1,0.5,1.7,0.5c1.1,0,1.9-0.6,1.9-2V335h0c-0.3,0.5-0.9,1-1.8,1c-1.4,0-2.5-1.2-2.5-2.8c0-2,1.3-3.1,2.6-3.1
		c1,0,1.6,0.5,1.8,1h0l0-0.9H48.4z M47.3,332.5c0-0.2,0-0.3-0.1-0.5c-0.2-0.6-0.7-1.1-1.5-1.1c-1,0-1.7,0.9-1.7,2.2
		c0,1.1,0.6,2.1,1.7,2.1c0.6,0,1.2-0.4,1.5-1.1c0.1-0.2,0.1-0.4,0.1-0.6V332.5z"/>
	<path d="M50,331.8c0-0.6,0-1.1,0-1.6h0.9l0.1,1h0c0.3-0.6,1-1.1,1.9-1.1c0.8,0,2.1,0.5,2.1,2.5v3.5h-1.1v-3.3
		c0-0.9-0.3-1.7-1.3-1.7c-0.7,0-1.2,0.5-1.4,1.1c0,0.1-0.1,0.3-0.1,0.5v3.5H50V331.8z"/>
	<path d="M57.3,333.3c0,1.4,0.9,2,2,2c0.8,0,1.2-0.1,1.6-0.3l0.2,0.8c-0.4,0.2-1,0.4-1.9,0.4c-1.8,0-2.9-1.2-2.9-2.9s1-3.1,2.7-3.1
		c1.9,0,2.4,1.7,2.4,2.7c0,0.2,0,0.4,0,0.5H57.3z M60.4,332.5c0-0.7-0.3-1.7-1.5-1.7c-1.1,0-1.5,1-1.6,1.7H60.4z"/>
	<path d="M64,328.5v1.7h1.5v0.8H64v3.1c0,0.7,0.2,1.1,0.8,1.1c0.3,0,0.5,0,0.6-0.1l0,0.8c-0.2,0.1-0.5,0.1-0.9,0.1
		c-0.5,0-0.9-0.2-1.1-0.4c-0.3-0.3-0.4-0.8-0.4-1.5V331H62v-0.8h0.9v-1.4L64,328.5z"/>
	<path d="M69.2,328c0.5-0.1,1.2-0.2,1.9-0.2c1,0,1.7,0.2,2.2,0.6c0.4,0.3,0.7,0.8,0.7,1.4c0,0.8-0.5,1.5-1.4,1.8v0
		c0.8,0.2,1.7,0.8,1.7,2c0,0.7-0.3,1.2-0.7,1.6c-0.6,0.5-1.5,0.8-2.8,0.8c-0.7,0-1.3,0-1.6-0.1V328z M70.3,331.3h0.9
		c1.1,0,1.8-0.6,1.8-1.4c0-0.9-0.7-1.3-1.8-1.3c-0.5,0-0.8,0-0.9,0.1V331.3z M70.3,335.2c0.2,0,0.5,0,0.9,0c1.1,0,2.1-0.4,2.1-1.6
		c0-1.1-0.9-1.6-2.1-1.6h-0.9V335.2z"/>
	<path d="M78.9,336l-0.1-0.7h0c-0.3,0.5-0.9,0.9-1.8,0.9c-1.2,0-1.8-0.8-1.8-1.7c0-1.4,1.2-2.2,3.5-2.2v-0.1c0-0.5-0.1-1.3-1.3-1.3
		c-0.5,0-1.1,0.2-1.5,0.4l-0.2-0.7c0.5-0.3,1.2-0.5,1.9-0.5c1.8,0,2.2,1.2,2.2,2.4v2.2c0,0.5,0,1,0.1,1.4H78.9z M78.8,333
		c-1.2,0-2.5,0.2-2.5,1.3c0,0.7,0.5,1,1,1c0.8,0,1.2-0.5,1.4-1c0-0.1,0.1-0.2,0.1-0.3V333z"/>
	<path d="M81.3,334.9c0.3,0.2,0.9,0.4,1.4,0.4c0.8,0,1.1-0.4,1.1-0.9c0-0.5-0.3-0.8-1.1-1.1c-1-0.4-1.5-0.9-1.5-1.6
		c0-0.9,0.8-1.7,2-1.7c0.6,0,1.1,0.2,1.4,0.4l-0.3,0.8c-0.2-0.1-0.6-0.3-1.2-0.3c-0.6,0-1,0.4-1,0.8c0,0.5,0.3,0.7,1.1,1
		c1,0.4,1.5,0.9,1.5,1.8c0,1-0.8,1.7-2.2,1.7c-0.6,0-1.2-0.2-1.6-0.4L81.3,334.9z"/>
	<path d="M86.8,333.3c0,1.4,0.9,2,2,2c0.8,0,1.2-0.1,1.6-0.3l0.2,0.8c-0.4,0.2-1,0.4-1.9,0.4c-1.8,0-2.9-1.2-2.9-2.9s1-3.1,2.7-3.1
		c1.9,0,2.4,1.7,2.4,2.7c0,0.2,0,0.4,0,0.5H86.8z M89.9,332.5c0-0.7-0.3-1.7-1.5-1.7c-1.1,0-1.5,1-1.6,1.7H89.9z"/>
</g>
<line class="st1" x1="386" y1="88" x2="499" y2="116"/>
<line class="st1" x1="408" y1="170" x2="490" y2="175"/>
<line class="st1" x1="386" y1="239" x2="472" y2="255"/>
<line class="st1" x1="354" y1="347" x2="417" y2="391"/>
<line class="st1" x1="309.7" y1="459.2" x2="367.3" y2="456.8"/>
<line class="st1" x1="146" y1="196" x2="86" y2="172.5"/>
<line class="st1" x1="136" y1="275" x2="63" y2="269"/>
<line class="st1" x1="134.3" y1="334.6" x2="99.5" y2="336"/>
</svg>
