<?xml version="1.0" encoding="utf-8"?>
<!-- Generator: Adobe Illustrator 21.0.0, SVG Export Plug-In . SVG Version: 6.00 Build 0)  -->
<svg version="1.1" id="Layer_1" xmlns="http://www.w3.org/2000/svg" xmlns:xlink="http://www.w3.org/1999/xlink" x="0px" y="0px"
	 viewBox="0 0 531.9 258" style="enable-background:new 0 0 531.9 258;" xml:space="preserve">
<style type="text/css">
	.st0{fill:none;stroke:#000000;stroke-width:0.709;stroke-linecap:round;stroke-linejoin:round;stroke-miterlimit:10;}
	.st1{fill:none;stroke:#000000;stroke-miterlimit:10;}
</style>
<path class="st0" d="M434.7,107.7l0.3-0.3l0.1-0.3V107 M405.2,78l-1.4-0.8 M397.2,88.7v0.4 M397.5,69.9l-0.3,17.3 M378.3,113.5
	L378.3,113.5L378.3,113.5h-0.2H378 M380.4,117.1l2.1,1l1.7,0.5 M389.5,117.5L389.5,117.5h-0.1l-0.1,0.1 M388,118.8l-1.5,0.1
	 M388.3,118.6v-0.1v-0.1v-0.1l0.1-0.1v-0.1l0.1-0.1h0.1 M347.3,132.2l28.8-16.6 M357.8,135.8L357.8,135.8h-0.2 M356.7,136.9v-0.1
	l-0.1-0.1l0.1-0.1v-0.1v-0.1l0.1-0.1h0.1 M315.9,143.4l23-13.2 M319.6,148.2l24.9-14.3 M322.3,150.2L322.3,150.2l0.1-0.1h0.1v0.1
	 M324.8,152.8l-0.7-0.2l-1.2-0.4l-1.2-0.5l-2.2-1.3l-2.1-1.6 M317.4,148.8l-1.4-1.4 M309.3,139.2l10.4-6.1 M306.5,140.8l1.3-0.8
	 M395.2,89.6l-61.6,35.5 M396.8,88.7l-0.2,0.1 M308.7,140.5l-1.6,1 M393.8,91.5l-83.6,48.2 M397.5,89.3l-0.9,0.5 M330.1,151.8
	L330.1,151.8 M329,152.8L329,152.8v-0.1v-0.1v-0.1l0.1-0.1v-0.1l0.1-0.1 M257.8,167.9L257.8,167.9l0.1,0.3l0.3,0.3 M258.4,168.9
	L258.4,168.9L258.4,168.9l-0.2-0.1v-0.1v-0.2 M267.3,173.1L267.3,173.1l0.1-0.1l0.1-0.1v-0.1 M265.7,173.1h-0.1l-0.1-0.1v-0.1v-0.2
	 M272.6,169.8l-5.1,3 M266,153.8l-0.8,0.5 M315.9,145.1l0.3,0.3 M317.8,148.1l-1.8-1.8 M317.3,157.2l8.6-4.9 M327.1,152.4l-9.7,5.6
	 M317.6,159.4l13.5-7.8 M386,117.6l28.2-16.3 M264.3,153.8l1.7-0.9 M266,151.9l-1.1,0.7 M262.7,153.8l-0.2-0.1h-0.2 M318.4,167.9
	L423.8,107 M267.2,156l-4.3-2.5 M266.8,156.2l-4.1-2.4 M268.2,167.2v0.7 M267.2,167.9v-1.3 M289.7,176.1l-7-4.1 M292.3,174.1v0.5
	 M267.7,154.9L267.7,154.9L267.7,154.9l0.1,0.2 M267.2,156l0.1-0.2l0.5-0.7 M267.7,154.8L267.7,154.8v0.1h0.1v0.1h0.1 M267.6,155.8
	l-0.3,0.1l-0.1,0.1 M264.7,159.7L264.7,159.7l0.1,0.1l0.1,0.1l0.1,0.1 M265.4,157.9l-0.1-0.1h-0.1v-0.1v-0.1 M265.4,157.2
	L265.4,157.2v0.1v0.1l0.1,0.1l0.1,0.1 M265.8,156.8L265.8,156.8l0.4-0.2 M268,152.5v0.1h0.1v0.1l0.1,0.1 M268.8,150.5L268.8,150.5
	v0.1h0.1h0.1 M284.1,183.1v0.2l0.2,0.2l0.2,0.2 M434.5,108.1L434.5,108.1l0.1-0.1l0.1-0.1v-0.1v-0.1 M284.7,184.1L284.7,184.1h-0.1
	l-0.1-0.1v-0.2v-0.1 M294.6,188.9L294.6,188.9l0.1-0.1v-0.1v-0.1v-0.1 M292.9,188.9L292.9,188.9l-0.1-0.1v-0.1l-0.1-0.1v-0.1
	 M264.8,164.8v0.3l0.3,0.3l0.1,0.1 M287.9,133.2l-0.3,20.5 M295.3,162.6l4.3,2.5 M280.7,173.2v0.4l-0.1,0.2h-0.1 M279.5,173.3v0.3
	l0.1,0.2h0.1 M294.9,163.3l4.3,2.5 M269,150.6l0.8-1.2l0.9-1.1l0.9-0.8l1-0.7l1.2-0.4l1.3,0.1l0.3,0.2 M291.9,157.6v0.1l-0.1,0.1
	v0.1h-0.1 M283.9,159.3l1.2-1.8l1.4-1.4l1.5-0.9l1.4-0.2l0.7,0.1l0.3,0.2 M425.9,87.5l-0.1-7.7 M421.1,102.3l-103.2,59.6
	 M315.6,151.1l-0.1-7.7 M318.3,167l105.1-60.7 M236.3,83.6l0.2-0.1l0.2-0.2l0.1-0.4 M236.5,78.4l0.2-0.1v-0.1l0.1-0.1V78
	 M236.4,76.3L236.4,76.3v0.1v0.2l-0.1,0.1v0.1l-0.1,0.2 M243.3,101.3l0.3-0.2l0.2-0.4h-0.1 M236,76.6l0.1-0.2v-0.1l0.1-0.1v-0.1
	l-0.1-0.1 M209.8,71.7l-0.1-0.1v-0.1v-0.1 M236,76.6l-0.3-0.5l-0.2-0.2 M235.5,75.5L235.5,75.5L235.5,75.5 M238.9,86.3l0.2-0.1
	l0.1,0.1 M235.5,87.1l0.7,0.3 M235.5,84.4l3.4,1.9 M235.5,84.7l3.1,1.8 M233.7,90l-0.1-0.1l-0.1-0.1v-0.1 M233.8,88.9l0.1-0.1
	l0.1-0.1 M233.8,89.6v-0.1l-0.1-0.1v-0.1v-0.2l0.1-0.1v-0.1 M234.5,88.5l0.2-0.1l0.2,0.1 M192.7,76.9l0.3,0.2 M209.8,71.7l-0.1,0.7
	 M192.3,75.2l-0.5-0.3 M210.4,72l-0.6-0.3 M213.1,65.7l-1,1l-0.7,0.9l-0.7,1.2l-0.5,1.4l-0.4,1.5 M185.8,86.2l0.2-17.6 M235.5,83.6
	l1.3-0.7 M236.2,77l-0.7,0.3 M103.1,134.9l0.6-0.4 M98.1,137.7l0.6-0.3 M95.2,139.4l0.6-0.3 M96.8,140l-0.3,0.2 M100,138.2l-0.4,0.2
	 M102.2,136.9l-0.8,0.4 M95.8,142l0.5-0.3 M66.4,161.6L66.4,161.6l0.1,0.3l0.3,0.3 M76.2,166L76.2,166l0.1-0.2v-0.1v-0.1 M67,162.6
	L67,162.6l-0.1-0.1v-0.1l-0.1-0.1v-0.1 M74.1,166.7L74.1,166.7l-0.1-0.1v-0.1l-0.1-0.1v-0.1 M75.1,166.3v0.1v0.2H75l-0.1,0.1
	 M76.3,164.8v0.8 M75.1,166.3l0.1-2.1 M75,158l0.4,0.2 M101.5,137.7l0.5-0.2 M100,138.6l0.2-0.1 M96.9,140.4l0.2-0.1 M95.9,141.5
	h-0.2 M97.3,140.6L97.3,140.6 M100.5,138.8h-0.1 M75,156.7L75,156.7l0.1,0.3l0.3,0.3 M76.7,166L76.7,166l-0.1-0.2v-0.1l-0.1-0.1
	 M75.4,157.3h0.1 M76.5,164.9v0.7 M95,176.3l-18.5-10.7 M243.3,101.3v0.2v0.1v0.1h-0.1v0.1 M95.2,178.6v0.1l0.1,0.1v0.1l0.1,0.1
	 M103.2,182.5L103.2,182.5L103.2,182.5L103.2,182.5l0.2-0.2v-0.2 M101.6,182.5h-0.1l-0.1-0.1v-0.1v-0.2 M81.4,160.8l8.1,4.6
	 M100.4,156.4h-0.1 M100.4,155.2l-1,0.7 M100.4,154.6l-1.6,1 M106.6,168.1l-0.2-11.7 M95.4,168.9l0.9,0.4 M100.4,152.9l-0.8-0.5
	 M100.7,134.9l-0.1,0.1 M103.3,135.2l-0.5-0.3l-0.9-0.4l-0.8,0.1l-0.1,0.1 M101.2,137.5l-0.1-0.2v-0.7l0.2-0.5l0.3-0.2 M82.8,132.7
	v0.2l-0.2,0.1l-0.2,0.1h-0.3h-0.3l-0.2-0.1l-0.2-0.1v-0.2 M90.9,138.6l-0.7,0.1 M98.4,137.3l-0.2,0.1l-0.2,0.4l-0.1,0.5v0.4
	 M94.5,138.8l-0.2,0.1 M98.1,136h0.6l0.8,0.3l0.8,0.6l0.8,0.9l0.3,0.4 M107.5,168.4h-0.2l-0.1,0.1l-0.2,0.1l-0.1,0.1 M90.7,138.5
	L90.7,138.5l-0.1-0.2l-0.1-0.2l0.1-0.2l0.1-0.3l0.1-0.2l0.2-0.1 M91,137.3l0.2-0.1h0.2 M97.8,142.6L97.8,142.6l-0.1-0.2l-0.1-0.2
	l0.1-0.2l0.1-0.3l0.1-0.2l0.2-0.1 M98.1,141.4l0.2-0.1h0.2 M83.7,132.2L83.7,132.2l-0.1-0.2v-0.2v-0.2l0.1-0.3l0.2-0.2l0.2-0.1
	 M84.1,131l0.2-0.1h0.2 M395.7,84.3l-0.1,0.1l-0.2,0.2l-0.1,0.2v0.3v0.2l0.1,0.1 M395.7,84.4v0.2l0.2,0.1l0.2,0.1l0.3,0.1l0.3-0.1
	h0.1 M395.7,68.4L395.7,68.4l0.2,0.3h0.2l0.3,0.1l0.3-0.1h0.2l0.1-0.2l0.1-0.1 M410.1,93.3l-0.1-0.1l-0.1-0.2 M408.5,91.5l1.4-0.2
	l1-0.9 M406.9,91.1l0.4,0.1 M408.7,79.9l1.6,1.7l1.4,2.2l0.9,2.7l0.1,2.6l-0.7,2.1l-1.4,1.3 M410,93.1l0.1,0.1 M410.9,75.9
	L410.9,75.9h-0.2h-0.2 M410.5,75.9l-0.2,0.2l-0.1,0.2l-0.1,0.3l-0.1,0.2l0.1,0.2l0.1,0.1 M398.4,66.6l-0.2,0.2L398,67l-0.1,0.3v0.2
	v0.2l0.1,0.1 M398,93.8l-0.1-0.1l-0.2,0.1l-0.2,0.2l-0.2,0.2l-0.1,0.2v0.3v0.2l0.1,0.1h0.1 M397.8,93.2L397.8,93.2l0.1-0.1l0.2-0.1
	l0.2-0.1l0.2-0.2l0.2-0.1 M398.7,92.6l0.2-0.1h0.1 M417.8,77.6h-0.2h-0.2 M417.4,77.6l-0.2,0.2l-0.1,0.2l-0.1,0.2l-0.1,0.3l0.1,0.2
	l0.1,0.1 M406.9,91.1l0.2-0.1l0.1,0.1 M406.7,93.9l0.2-0.1l0.8-0.6l0.5-0.9l0.4-1.2l0.1-1.3l-0.2-1.4l-0.4-1.4l-0.6-1.3l-0.7-1.3
	l-0.9-1l-0.9-0.8l-0.9-0.6l-0.9-0.1l-0.7,0.1l-0.2,0.1 M402.6,95.4l0.7-0.4l0.7-0.6l0.4-0.9l0.2-1.1v-1.1l-0.1-1.3l-0.4-1.3
	l-0.6-1.2l-0.7-1l-0.8-0.9l-0.8-0.6l-0.8-0.4l-0.7-0.1l-0.5,0.2 M396.9,87.2h-0.6l-0.5,0.3 M396.5,90.2v-0.1l-0.1-0.6V89l0.2-0.4
	h0.2 M400.2,94.1l-0.5-0.2l-0.3-0.2 M402.4,93.9l-0.5,0.3h-0.3 M403.3,92.5l-0.5-0.2l-0.8-0.6l-0.8-0.8l-0.7-0.8l-0.5-0.9l-0.4-0.9
	l-0.2-0.8v-0.7l0.2-0.5l0.3-0.4 M406.2,92.6l-0.8,0.2l-0.8,0.1 M402.5,85.8l-0.1-0.9l0.1-0.8l0.2-0.5l0.4-0.3 M406.9,91.1l-1-0.6
	l-0.9-0.7l-0.5-0.5 M396.9,87.2l0.9,0.4l1,0.7l0.8,1l0.8,1.2l0.6,1.3l0.3,1.4l0.1,1.3l-0.1,1.1l-0.4,0.9l-0.6,0.7l-0.8,0.4l-0.4,0.1
	 M395.6,95l0.6,0.5l0.6,0.5l0.7,0.3l0.7,0.1h0.6l0.5-0.3 M182.7,110.9L182.7,110.9l-0.1,0.1 M182.5,111.2L182.5,111.2l0.1-0.1V111
	 M182.6,111v-0.2l-0.1-0.2l-0.1-0.2l-0.2-0.1h-0.1h-0.2 M176.7,116.9L176.7,116.9l0.4-0.4l0.1-0.8l-0.1-0.8l-0.4-0.9l-0.6-0.8
	l-0.7-0.6l-0.7-0.2l-0.6,0.1 M162.1,119.4L162.1,119.4l0.6-0.1l0.7,0.3l0.7,0.5l0.6,0.8l0.3,0.9l0.2,0.9l-0.2,0.7l-0.3,0.5h-0.1
	 M161.6,122v-0.2v-0.4l0.2-0.2h0.3l0.3,0.1l0.3,0.2l0.2,0.4l0.2,0.4l0.1,0.4l-0.1,0.3l-0.2,0.2l-0.2,0.1l-0.3-0.2l-0.3-0.1
	 M156.3,125.1h0.1h0.2 M156.4,125.9L156.4,125.9 M156.6,125.1l0.1,0.2l0.1,0.1l0.1,0.2v0.2v0.2h-0.1 M339.4,106.7L339.4,106.7
	l0.4-0.4l0.2-0.7 M340,105.6l-0.2-0.9l-0.3-0.7 M327.5,110.9l0.3,0.7l0.1,0.9 M327.9,112.5l-0.1,0.7l-0.4,0.5 M288,131.5l-0.1,0.2
	l-0.2,0.2l-0.1,0.1 M288,131.7l0.1,0.1v0.1 M288,130.5l0.1,0.2l0.2,0.1l0.2,0.1h0.3h0.2l0.3-0.1l0.1-0.1l0.1-0.2 M296.2,134h-0.1
	l-0.2,0.1l-0.2,0.1l-0.2,0.2l-0.1,0.3v0.2v0.2l0.1,0.2 M302.9,139.9h0.2h0.1 M303.2,138.1L303.2,138.1l-0.1-0.1l-0.2,0.1
	 M302.9,138.1l-0.2,0.2l-0.2,0.2l-0.1,0.2v0.3v0.2l0.1,0.1 M291.1,128.7h-0.2l-0.1,0.1l-0.2,0.1l-0.2,0.2l-0.1,0.3v0.2v0.2l0.1,0.2
	 M310.3,139.8l-0.2-0.1l-0.2,0.1 M309.9,139.8l-0.2,0.2l-0.2,0.2l-0.1,0.2v0.3v0.2l0.1,0.1 M311.2,144L311.2,144 M198.7,77l-0.2,0.2
	l-0.2,0.2l-0.1,0.2v0.3v0.2l0.1,0.1 M198.3,76.4L198.3,76.4l-0.1-0.2V76v-0.2l0.1-0.3l0.2-0.2l0.2-0.1 M191.3,70L191.3,70l-0.1-0.2
	l-0.1-0.2l0.1-0.2l0.1-0.3l0.1-0.2l0.2-0.1 M191.6,68.8l0.2-0.1h0.2 M214.9,91.3h-0.1l-0.2,0.1l-0.2,0.1l-0.1,0.2 M403.8,76.3
	l0.2-0.5 M406.6,67l0.3-0.1h0.3h0.1 M409.5,69.2l-0.4-1 M409.1,68.2l-0.1-0.3l-0.2-0.1h-0.3l-0.3,0.1 M405.3,72.7l0.2-0.6 M404,75.8
	l0.7-1.8 M405.5,76.6l-1.5-0.8 M434.4,103.1l0.2,0.1l0.2,0.1v0.2l0.1,0.1l-0.1,0.2v0.2l-0.2,0.1l-0.2,0.1 M428.3,99.5l6.1,3.6
	 M383.3,111.1l2-1.1 M385.3,110v2 M410.6,81.1l1.5,0.9 M410.6,81.5v-0.4 M410.4,90.8l0.2-6.7 M410.4,95.3v-2 M410.3,99.4l0.1-2.5
	 M410.6,81.1l0.1-0.7l0.2-0.7 M402.1,82.1v-9.5 M402.1,91.4v-3.8 M402.1,94v-0.8 M402.1,98.3v-2.8 M406.2,74.8l-0.7,1.8 M406.9,73
	l-0.2,0.5 M405.5,76.6l-0.2,0.7l-0.1,0.7 M405.2,91.4v0.9 M405.2,84.3v5.3 M405.2,78v4.4 M403.9,81.9l-0.2-10.2 M404,87.9l-0.1-4.6
	 M412.1,76.8l0.3-0.7 M410.9,79.7l0.7-1.6 M412.4,80.6l-1.5-0.9 M412.9,79.4l-0.5,1.2 M413.9,77l-0.4,1 M412.4,80.6l-0.2,0.7
	l-0.1,0.7 M412.1,97.9v2.6 M412.1,94.2v2.1 M412.1,91.1v1.6 M412.1,82v2.2 M385.3,110l1-0.5l1.2-0.2h1.2l1.2,0.2l1.1,0.4l0.7,0.6
	l0.4,0.7v0.7l-0.1,0.2 M385.3,110l-0.9-1.7l-0.8-1.6 M383.3,111.1v2.1 M420.6,75.1l0.3-0.1h0.3h0.1 M398.5,91.8v-1 M398.5,96.2v-1
	 M423.5,77.3l-0.3-1 M422.2,76l0.3-0.1h0.3L423,76l0.2,0.3 M420.8,80.8l-1.4-0.9 M382.2,113.2l-0.1-0.1v-0.7l0.4-0.7l0.8-0.6
	 M381.7,107.9l1.6,3.2 M370.8,106.5l-0.1,0.3l-0.1,0.3 M372,109.5L372,109.5L372,109.5l0.2-0.2l0.1-0.1h0.1l0.1-0.1l0.1-0.1
	 M373.8,111.8l-1.8-2.3 M372,109.5l-1.5-2 M428.4,101v-0.4v-0.4l-0.1-0.4 M425.2,87.1l1.7,1 M419.5,79.9l1.4,0.8 M403.1,70.7v0.6
	 M403.1,67.4v1.7 M407.1,95v0.4 M407.1,87.5V91 M407.1,75.4v9 M407.1,73.1v0.6 M414,99v0.4 M414,94.4v3 M414,80.8v12.1 M414,77v1.6
	 M426.5,100.9l1.8-1.1 M426.9,88.1l1.4,11.7 M426.9,88.1l-1.7,1 M426.5,100.9v0.4v0.4v0.4 M426.5,100.9l-1.3-11.8 M425.2,89.1
	l-1.8-1 M372.1,106.6l-0.1-0.2l-0.1-0.1v-0.1h-0.1h-0.1v0.1 M383.6,106.7l-1.9,1.2 M383.6,106.7l1.3-0.6l1.5-0.4l1.7-0.1l1.6,0.1
	l1.6,0.4l1.3,0.6l1,0.7l0.6,0.9l0.2,1l-0.2,0.9l-0.7,0.9l-1,0.7 M392.5,111.8l-2,1.2 M390.5,113l-1.3,0.5l-1.5,0.4l-1.6,0.1
	l-1.6-0.1l-1.6-0.4l-1.2-0.5l-1-0.8l-0.7-0.8l-0.2-1l0.2-0.9l0.7-0.9l1-0.7 M397.7,110.7l0.3-0.6l0.1-1.1l-0.3-1.2l-0.7-1.1l-1.1-1
	l-1.4-0.9l-1.7-0.6l-1.9-0.5l-2-0.2h-2.1l-2,0.3 M384.9,103.8l-8.1,4.7 M380.1,114.9l1.7,0.6l1.9,0.4l2,0.2l2.1-0.1l1-0.1
	 M376.8,108.5l-0.5,1.1v1.2l0.3,1.2l0.1,0.1 M414,99.4l0.2,0.1 M412.1,100.5l1.9-1.1 M410.3,99.4l1.8,1.1 M407.1,95.4l3.3,1.9
	 M402.1,98.3l5-2.9 M400.2,97.2l1.9,1.1 M385.5,103.7l11.2-6.5 M397.9,110.7l0.1-0.3l0.1-1 M380.9,115.4l0.9,0.3l1.9,0.4l2,0.2
	l2.1-0.1h0.5 M376.2,110.6l0.1,0.5l0.2,0.8 M374.7,109.9l1.9-1.1 M414.5,79.8l-0.3,22.4 M414,101.4l0.1-0.1 M422.2,76l-0.4,0.3
	 M422.2,76l-1.6-0.9 M420.1,75.3l0.5-0.2 M420.1,75.3l-12.4-7.1 M408.2,67.9l-0.5,0.3 M408.2,67.9l-1.6-0.9 M406.1,67.2l0.5-0.2
	 M403.1,65.5l3,1.7 M397.5,68.8l-0.2,0.1l-0.1,0.1l-0.1,0.2v0.1v0.2l0.1,0.2l0.1,0.1l0.2,0.1 M402.1,72.6l-4.6-2.7 M402.1,72.6
	l1.6-0.9 M403.7,71.7l-4-2.4 M400.2,69.1l-0.5,0.2 M403.1,67.4l-1.5,0.8 M403.1,67.4l20.4,11.8 M420.1,81.1l3.4-1.9 M420.1,81.1
	l-4-2.3 M414.5,79.8l1.6-1 M414.5,79.8l4.6,2.6 M425.8,79.8l0.1-0.2l0.2-0.1l0.1-0.2v-0.1V79l-0.1-0.1l-0.2-0.2l-0.1-0.1
	 M425.8,78.6l-4-2.3 M386.1,117.5L386.1,117.5l-0.1,0.1 M375.7,113.7l2.3,1.9l2.4,1.5 M421.1,82.4l-0.2,0.1l-0.2,0.1l-0.3,0.1h-0.3
	h-0.2l-0.3-0.1l-0.2-0.1l-0.3-0.1 M419.1,82.4v19.4 M380.8,116.4L380.8,116.4l-0.2,0.1v0.1l-0.1,0.1v0.1l-0.1,0.1v0.1v0.1
	 M414.5,103v0.4 M414.5,103v-0.2v-0.1l-0.1-0.1l-0.1-0.1v-0.1l-0.1-0.1l-0.1-0.1H414 M387.6,117.7L387.6,117.7h-0.4 M370.5,111.9
	l0.1,0.2v0.2l0.2,0.1l0.1,0.2 M370.9,112.6l0.7,0.4 M370.5,107.5l0.1-0.2v-0.2 M370.5,111.9v-4.4 M375.7,114.9l0.1,0.2l0.1,0.2
	l0.1,0.1l0.1,0.2 M373.8,111.8l0.1-0.1v-0.1h0.1h0.1h0.3h0.3 M375.7,113.7v1.2 M375.8,113.6l-0.1,0.1 M375.8,113.6v-0.2v-0.2V113
	l0.1-0.3 M333.4,125.1L333.4,125.1h0.1h0.1 M338.7,125l0.1,0.1v0.1l0.1,0.1v0.1 M329.8,127.1l0.9-1.5 M376.1,115.6l6.7,3.8
	 M384.7,118.3l0.1-0.1l0.2-0.1l0.3-0.1 M354.4,135.8L354.4,135.8 M386.6,119.1v0.5 M386.5,118.9L386.5,118.9l0.1,0.2 M386.5,118.9
	v-0.1v-0.1l-0.1-0.1v-0.1v-0.2v-0.2 M331.4,126.3l0.1-0.1h0.1h0.2 M321.3,132L321.3,132h0.2l0.1,0.1 M355.9,135.9L355.9,135.9
	l-0.4,0.1 M318.7,132.5l-0.9,1.6 M398.6,68.1l-1.1,0.7 M403.1,65.5l-3.1,1.8 M338.9,130.2v0.1l0.1,0.2l0.1,0.2l0.2,0.1 M339.3,130.8
	l0.7,0.5 M338.9,125.4v4.8 M344.1,133.2v0.2l0.1,0.2l0.1,0.1l0.2,0.2 M342.2,130L342.2,130l0.2-0.1l0.1,0.1h0.1l0.1,0.1
	 M344.1,131.8v1.4 M312.6,140.6l-0.1-0.2l-0.3-0.1 M344.1,131.8v-0.1l-0.1-0.2l-0.1-0.1l-0.1-0.2 M316.1,145L316.1,145v0.1l0.1,0.1
	v0.2 M318,146.9l-0.1-0.1l-0.1-0.1l-0.2-0.1l-0.3-0.1 M344.5,133.9l6.6,3.8 M353,136.5L353,136.5h0.2 M326.8,151.8l-0.1-0.1
	L326.8,151.8 M317.4,148.8v-0.1v-0.1l0.1-0.1v-0.1l0.1-0.1h0.1l0.1-0.1v-0.1 M354.9,137.2v0.1v0.1 M328.3,151.9L328.3,151.9h-0.5
	 M319.7,133.1h-0.1h-0.2v0.1 M319.7,133.1l-1-0.6 M397.5,89.3l-0.3-0.2 M396.8,88.7l0.1,0.2l0.3,0.2 M333.6,125.1l-1-0.6
	 M330.7,125.6l1.9-1.1 M331.8,126.2l-1.1-0.6 M331.8,126.2l-10.2,5.9 M320.6,131.5l1,0.6 M320.6,131.5l-1.9,1 M397.5,89.3l0.1,0.1
	l0.1,0.1l0.1,0.1 M328.7,153l-1.5,0.1 M316.8,152.6L316.8,152.6l0.3,0.9v0.9l-0.1,0.2 M320.5,155.3l0.2-0.5l0.1-1.2l-0.3-1.1
	l-0.7-1.2 M319.8,151.3l-3.8-2.2 M325.9,152.3h-0.2l-0.2,0.1l-0.1,0.2 M327.2,153.1v0.2v0.1 M327.2,153.1V153l-0.1-0.1v-0.1v-0.1
	v-0.2v-0.1 M320.6,155.3l0.1-0.4l0.1-0.9 M320.2,151.8l3.2,1.8 M264.7,152.5h-0.2h-0.1 M258.5,165.1l-0.3,3.4 M265.5,172.7l-7.3-4.2
	 M263.6,152.2h0.1l0.3-0.1l0.3,0.2 M423.4,106.3l0.1,0.1v0.1v0.1l0.1,0.1v0.1l0.1,0.1l0.1,0.1 M265.5,172.7l0.1-3.5 M265.5,172.7
	l0.3,0.2l0.5,0.1h0.2h0.4l0.3-0.1l0.3-0.1 M267.5,172.8l0.1-3.6 M261.5,153.7l0.1-0.3l0.2-0.2h0.4l0.3,0.1 M261.5,153.7l-1.2,7
	 M260.3,160.7l-0.1,1.3 M260.2,162v0.9 M263,153.6l-0.2-0.1h-0.2 M370.8,106.5l-31,17.8 M338.7,125l-26.5,15.3 M355.5,136l2.1-0.2
	 M388.6,118l-2.2,0.1 M390.4,117.4l-1.8,0.6 M359.4,135.3l31-17.9 M357.6,135.8l1.8-0.5 M327.8,151.9l2.2-0.1 M356.9,136.3l-2.2,0.1
	 M358.7,135.7l-1.8,0.6 M331.8,151.2l26.9-15.5 M330,151.8l1.8-0.6 M343.8,131.2l-26.5,15.3 M353.2,136.5l-2.3-0.6l-2.4-1.1
	l-2.4-1.6l-2.3-2 M326.7,151.8l26.5-15.3 M322.3,150.2l2.2,1l2.2,0.6 M317.3,146.5l2.5,2.1l2.5,1.6 M316.2,145.4l26.5-15.3
	 M342.7,130.1l-1.4-1.6l-1.4-1.7l-1.2-1.8 M374.7,111.6l-2.1-2.6 M343.8,129.4l30.9-17.8 M341.7,126.9l2.1,2.5 M339.8,124.3l1.9,2.6
	 M372.6,109l-1.8-2.5 M354.4,135.8l30.9-17.8 M349.9,134.2l2.3,1l2.2,0.6 M345,130.6l2.4,2l2.5,1.6 M375.9,112.7L345,130.6
	 M380.8,116.4l-2.5-1.6l-2.4-2.1 M385.3,118l-2.2-0.6l-2.3-1 M309.9,141.9l-1.8,1 M325.9,152.3l-2-0.6l-2-0.8l-2-1.2l-2.1-1.6
	 M329.2,152.2l-2.1,0.2 M331.1,151.6l-1.9,0.6 M418,101.5l0.2-0.1 M391.1,117l26.9-15.5 M389.3,117.6l1.8-0.6 M387.2,117.7l2.1-0.1
	 M414,102.2l-26.8,15.5 M414.2,102.2H414 M378,113.5l2,1.5l2.1,1.2l2,0.8l1.9,0.6 M371.7,106.3l3,4l3.3,3.2 M393.8,93.5l-22.1,12.8
	 M395.1,92.7l-0.1,0.1 M396.2,92.1l-0.6,0.3 M398.5,90.8l-0.6,0.3 M397.8,89.6L398,90l0.2,0.4l0.3,0.4 M264.9,152.6l-0.1-0.1
	 M264.8,152.5L264.8,152.5 M319.3,136.2v0.5 M418.4,101.4L418.4,101.4l-0.1-0.1h-0.1v0.1 M262.1,154.6L262.1,154.6l-0.1-0.1v-0.1
	h-0.1v-0.1 M423.8,107l2.9,1.7 M293.5,131.7v2.8 M298.5,137v0.4 M298.5,134.6v0.7 M298.5,132.4v0.6 M297.5,134.8V134 M297.5,136.8
	v-0.4 M419.1,101.8l-0.7-0.4 M419.1,101.8l0.3,0.1l0.3,0.1h0.2 M294.9,148.1l-1.8-1 M421.1,102.3L421.1,102.3l-0.2-0.1l-0.4-0.1
	h-0.3l-0.3-0.1 M291.3,149.6l0.1-0.5l0.3-0.5l0.3-0.5l0.4-0.4l0.3-0.3l0.4-0.3 M293.1,147.1l0.4-0.2 M262.9,153.5l0.8,0.1l0.6,0.2
	 M293.1,150.6l-1.8-1 M289.7,154.9l1.6-5.3 M264.3,152.3l0.4,0.2 M264.3,152.3l-1.8,1 M263,153.6l-0.5-0.3 M263,153.6l-0.3,0.2
	 M262.9,153.5l1.8-1 M262.1,154.6l-0.1,10.3 M262.7,153.8l-0.2,0.1l-0.2,0.2l-0.1,0.3l-0.1,0.2 M267.2,157.5l-5.1-2.9 M294.9,163.3
	v-0.1h0.1l0.1-0.1l0.1-0.1v-0.1v-0.1l0.1-0.1v-0.1 M295.3,147.9l-0.4,0.2 M294.9,148.1l-0.4,0.3l-0.4,0.3l-0.3,0.5l-0.3,0.4
	l-0.3,0.5l-0.1,0.5 M293.1,150.6l-1.7,5.9 M264.8,164.8l-0.2-0.2v-0.1l-0.1-0.1 M264.5,164.4L264.5,164.4l0.1,0.2l0.2,0.1
	 M267.7,154.8L267.7,154.8 M267.2,156h-0.1 M265.4,157.2L265.4,157.2 M318.2,164.7v-0.4l-0.1-0.4v-0.4 M314.9,150.7l1.8,1
	 M309.9,141.3v2.6 M292.9,159.7l-0.7-0.4 M318.1,163.5l-1.9,1.1 M316.7,151.7l1.4,11.8 M314.9,152.7l1.8-1 M316.3,165.8v-0.4V165
	l-0.1-0.4 M316.2,164.6l-1.3-11.9 M314.9,152.7l-1.7-1 M268.2,152.8l-0.3,2.2 M292.2,159.9L292.2,159.9L292.2,159.9l-0.1,0.3
	 M269,150.6l-0.5,1.1l-0.3,1.1 M268.2,152.8l5.2,3 M383.3,113.2l-0.5,0.3 M391.5,112.4L391,112l-1.1-0.4l-1.2-0.3l-1.2,0.1l-1.2,0.2
	l-1,0.4 M385.3,112l-2,1.2 M283.3,168.7l8.9,5.1 M294.6,177.7l-2-1.1 M264.8,164.7v0.1 M279.5,173.2v0.1 M282.7,172.1l-0.1,0.3v0.2
	l-0.2,0.2 M290.9,130.3l-3,1.7 M287.9,132l-0.1,0.1l-0.2,0.2l-0.1,0.1v0.2v0.1l0.1,0.2l0.2,0.1l0.1,0.2 M315.5,143.4l0.2-0.1
	l0.1-0.2l0.1-0.1v-0.2v-0.1l-0.1-0.2l-0.1-0.1l-0.2-0.1 M315.5,142.3l-4.6-2.7 M310.9,139.6l-0.5,0.3 M313.9,142.5l-2.3-1.4
	 M313.9,142.5l-3.3,1.9 M290.2,132.6l20.4,11.8 M290.2,132.6l2.4-1.4 M298,132.7l0.5-0.3 M293.8,129.7l4.7,2.7 M293.8,129.7
	l-0.2-0.1h-0.2l-0.3-0.1h-0.3h-0.2h-0.1 M293.5,146.9l1.8,1 M295.3,162.6v-14.7 M310.6,146.2l-22.7-13 M279.5,173.3l0.3,0.1h0.1h0.2
	h0.2h0.1l0.3-0.2 M284.6,180.2l-0.1,3.5 M292.7,188.5l-8.2-4.8 M274.1,153.6l-0.5,1.1l-0.2,1.1 M313.2,170.4l3.3,1.9 M292.6,180
	l2,1.2 M294.3,163.6l0.6-0.3 M268.2,167.9l0.6-0.3 M267.2,167.9l0.2,0.1l0.3,0.1l0.3-0.1l0.2-0.1 M262,164.9l5.2,3 M261.8,164.6
	L261.8,164.6v0.2l0.2,0.1 M260.2,162.9l1.6,1 M258.5,163.9l1.7-1 M258.5,165.1l-0.2-0.1l-0.2-0.2v-0.1l-0.1-0.2l0.1-0.2v-0.1
	l0.2-0.2l0.2-0.1 M265.6,169.2l-7.1-4.1 M267.6,169.2l-0.1,0.1l-0.3,0.1H267l-0.2,0.1h-0.3l-0.2-0.1H266l-0.2-0.1l-0.2-0.1
	 M267.6,169.2l2.1-1.1 M292.2,174.1L292.2,174.1 M292.3,174.6l0.1-0.1l0.1-0.1v-0.1l-0.1-0.1l-0.1-0.1 M292.3,174.6l-7.7,4.4
	 M284.6,180.2l-0.1-0.1l-0.2-0.2l-0.1-0.1v-0.1v-0.2v-0.1l0.1-0.1l0.2-0.2l0.1-0.1 M292.7,184.9l-8.1-4.7 M292.7,188.5v-3.6
	 M292.7,188.5l0.5,0.1l0.5,0.1l0.6-0.1l0.4-0.1 M294.7,184.9l-0.2,0.1h-0.2l-0.3,0.1h-0.3h-0.2l-0.3-0.1H293l-0.3-0.1 M264.8,164.7
	l0.2-4.7 M264.8,164.7l14.7,8.5 M289.9,159.5l-1.9-1.1 M279.5,173.2l0.3,0.1l0.3,0.1l0.3-0.1h0.1h0.1l0.1-0.1 M279.6,168.5l-0.1,4.7
	 M282.9,163.8l0.2,0.1h0.2h0.2h0.2 M282.9,163.8l-0.1,1l-0.2,1.1 M265.6,157.6l-0.2,0.3 M265.4,157.9l-0.3,1.1l-0.1,1 M279.6,168.5
	L265,160 M282.6,165.9v-0.5l-0.1-0.4l-0.1-0.4l-0.2-0.3 M282.9,163.7l0.3-2.3 M282.9,163.7h0.1h0.1l0.1,0.1h0.1h0.1h0.1h0.1l0.1-0.1
	 M281.2,166.2v0.5 M280.1,166v0.3 M281.2,166.7h-0.1h-0.2l-0.1-0.1h-0.2l-0.1-0.1h-0.2l-0.1-0.1l-0.1-0.1 M279.6,168.5l0.2-1.1
	l0.3-1.1 M279.6,168.5h0.2l0.1,0.1h0.2h0.1h0.2h0.2l0.1-0.1h0.1 M281.2,166.2h-0.1H281l-0.2-0.1h-0.1h-0.2h-0.1h-0.1l-0.2-0.1
	 M280.9,165.1l0.2,0.5l0.1,0.6 M282.2,164.3L282.2,164.3l0.2-0.1h0.1l0.1-0.1l0.1-0.1l0.1-0.1l0.1-0.1 M282.9,163.7v0.1 M278,158.4
	l2.5,2.4l2.4,2.9 M273.4,155.8l1.5,0.6l1.5,0.9l1.6,1.1 M267.9,155l2.8,0.1l2.7,0.7 M267.8,155.1l0.1-0.1 M267.6,155.8L267.6,155.8
	l0.1-0.1v-0.1l0.1-0.1v-0.1v-0.1v-0.1v-0.1 M278,158.4l5.2,3 M278.7,156.3l-0.1,0.3l-0.1,0.2l-0.1,0.3l-0.1,0.3l-0.1,0.2l-0.1,0.3
	v0.3l-0.1,0.2 M428.7,107.5l-0.3-6.5 M428.4,101l-1.9,1.1 M426.5,102.1l0.2,6.6 M426.7,108.7l-108.2,62.5 M318.5,171.2l-0.3-6.5
	 M318.2,164.7l-1.9,1.1 M316.3,165.8l0.2,6.5 M316.5,172.3l-21.8,12.6 M294.7,184.9v3.6 M434.7,107.7l-140,80.8 M434.7,107.7
	l-0.3-3.5 M434.4,104.2l-5.7,3.3 M283.9,159.3l-0.5,1l-0.2,1.1 M283.2,161.4L283.2,161.4l0.2,0.1h0.1h0.1h0.1h0.1h0.1h0.1
	 M280,165.5l0.1,0.3v0.2 M265.6,157.6l0.1-0.1l0.3-0.1 M280.1,166l-14.5-8.4 M269,150.6l5.1,3 M274.1,153.6l4.6,2.7 M278.7,156.3
	l5.2,3 M266.2,156.6l-0.1,0.1v0.1H266v0.1v0.1v0.1l-0.1,0.2l0.1,0.1 M266,157.4l2.8-0.2l2.6,0.4l1.2,0.3l1.1,0.5l1,0.7l1.1,0.7
	l2.2,2.5l2,3.2 M280,165.5L280,165.5l0.2-0.1l0.1-0.1h0.1l0.1-0.1h0.1l0.1-0.1h0.2 M267.6,155.8l-1.4,0.8 M266.2,156.6l2.8-0.2
	l2.7,0.4l1.2,0.4l1.2,0.5l1.2,0.7l1.1,0.8l2.4,2.6l2.1,3.3 M280.9,165.1l1.3-0.8 M282.2,164.3l-3.4-4l-3.6-2.7l-3.7-1.5l-3.9-0.3
	 M291.7,157.4L291.7,157.4l0.2,0.2 M290.4,155.3l0.4,0.3l0.6,0.7l0.3,1.1 M283.9,159.3l0.2,0.1h0.1l0.1,0.1h0.1l0.1,0.1h0.1
	 M292.6,176.6v3.4 M292.6,176.6v-0.3l0.1-0.2l0.1-0.3l0.2-0.3 M282.7,171.2v-0.5l0.1-0.5 M285.7,161.2l-2.9,9 M289.9,159.5l-0.1-0.4
	l-0.2-0.4l-0.2-0.2l-0.3-0.2l-0.4-0.1h-0.3l-0.4,0.2l-0.4,0.2l-0.4,0.3l-0.4,0.3l-0.4,0.5l-0.3,0.4l-0.2,0.5l-0.2,0.6 M292.2,173.8
	l-2.3-14.3 M292.2,174.1v-0.3 M292.2,174.1l2.6-1.5 M292.9,159.7l3.6,10.2 M292.1,160.2l0.8-0.5 M291.7,157.9l0.4,2.3 M284.6,159.6
	l1.1-1.6l1.3-1.3l1.4-0.8l1.2-0.2l0.8,0.2l0.7,0.5l0.4,0.7l0.2,0.8 M284,161.5l0.2-0.8l0.4-1.1 M283.7,163.7l0.3-2.2 M283.7,163.9
	v-0.2 M282.6,165.9l0.7-1l0.2-0.5l0.2-0.5 M281.2,166.7l1.4-0.8 M280.8,168.5l0.1-0.9l0.3-0.9 M280.7,173.2l0.1-4.7 M282.7,172.1
	l-2,1.1 M282.7,171.2v0.9 M293,175.5l15.9-25 M294.9,176.6l-1.9-1.1 M310.6,151.5l-1.7-1 M425.8,79.8l-4.7,2.6 M421.1,82.4v19.9
	 M315.5,143.4l-4.9,2.8 M310.6,146.2v5.3 M310.6,151.5l-15.7,25.1 M294.9,176.6l-0.1,0.3l-0.1,0.3l-0.1,0.2v0.3 M294.6,177.7v3.5
	 M294.6,181.2l18.6-10.8 M313.2,151.7v18.7 M313.2,151.7l1.7-1 M423.4,88.1v18.2 M423.4,88.1l1.8-1 M237,82.4L237,82.4v0.2v0.1
	l-0.1,0.1l-0.1,0.1 M236.8,82.9l0.1-0.1v-0.1h0.1v-0.2 M236.3,76.2l0.1,0.1 M236.2,76v0.1 M236.1,76L236.1,76 M236.2,77l-0.2-0.4
	 M235.8,75.7v-0.1l-0.2-0.1 M235.6,75.4L235.6,75.4L235.6,75.4 M185.6,72.6l-0.7,0.4 M184.9,73l-1.5,10.3 M183.3,84.4l0.1-0.4v-0.4
	v-0.3 M185.6,73.4l-0.7-0.4 M239.6,86.9L239.6,86.9L239.6,86.9l-0.1,0.2l-0.1,0.1 M238.9,86.3l0.2,0.1l0.1,0.3l0.1,0.2l0.1,0.3
	 M238.6,86.5l0.3-0.2 M234,88.7l0.4-0.2 M236.2,87.4l0.5-0.2l0.5-0.3 M236.2,87.4l0.3-0.1 M238.6,86.5l0.4,0.2 M241.2,96.5l0.1,1.4
	 M238.6,86.5l0.2,0.1l0.1,0.2v0.1 M240,88.3l-0.1-0.5l-0.2-0.4l-0.3-0.4l-0.4-0.3 M237.2,87.8l1.8-1.1 M233.8,88.9l0.1-0.1l0.1-0.1
	 M234,88.7l0.4-0.2 M240,88.3l1.2,8.2 M240,88.3l-1.8,1 M239.2,97.6l2-1.1 M233.7,90v-0.2l0.1-0.2 M233.5,100l0.2-10 M234.3,89.4
	l-0.5,0.2 M237.2,86.9l-2.8,1.6 M238.6,86.5l-1.8,1.1 M238.6,86.5l-0.8,0.1l-0.6,0.3 M234.4,88.5l-0.1,0.1l-0.1,0.1v0.1v0.1V89v0.1
	v0.2l0.1,0.1 M234.5,89.4h-0.1h-0.1 M234.4,88.5h0.1 M237.2,88.4l-1.7,1 M236.7,87.5l0.1,0.1 M236.7,87.5L236.7,87.5 M234.9,88.5
	l1.8-1 M235.5,99.8V89.4 M234.5,99.8V89.4 M235,89.5h-0.1h-0.1l-0.2-0.1h-0.1 M235.5,89.4L235.5,89.4h-0.1v0.1h-0.1h-0.1h-0.1H235
	 M234.9,88.5h0.2l0.1,0.1l0.1,0.1l0.1,0.1V89l0.1,0.1v0.2v0.1 M234.5,89.4v-0.2l0.1-0.2v-0.1l0.1-0.2l0.1-0.1l0.1-0.1 M238.2,89.3
	l1,8.3 M238.2,89.3l-0.1-0.4l-0.3-0.5l-0.3-0.3l-0.3-0.3 M237.2,87.8l-0.4-0.2 M236.8,87.6l0.2,0.2l0.1,0.2l0.1,0.2v0.2 M237.2,88.4
	v10.4 M239.3,99.1l-0.1-1.5 M191.8,74.9l1.6-3.8 M194.8,72l-1.5,3.8 M193.2,76.3l-0.1,0.1l-0.1,0.7 M193,77.1v0.5 M217.5,64.5
	l-1.1-0.3l-1.4,0.2l-1.5,0.9l-0.4,0.4 M191.6,70.7l0.2,12.1 M190.7,71.3v12.1 M236.8,82.9l-0.3-4.5 M236.5,78.4l-0.1-0.8l-0.2-0.6
	 M200,75.7l0.3-0.6 M199.4,77.2l0.1-0.2 M198.8,78.8l0.1-0.2 M201.7,76l-0.2,0.6 M194.9,77.8v1 M194.9,75.5v0.7 M194.9,72.1V74
	 M201.9,76.1v0.7 M190.9,69.8v0.5 M190.9,66.5v1.9 M190.9,64.6l16.2,9.4 M186,67.5l-0.1,0.1l-0.2,0.1l-0.1,0.2v0.2v0.1l0.1,0.2
	l0.2,0.1l0.1,0.1 M186,68.6l4.7,2.7 M190.7,71.3l0.9-0.6 M187.6,68.4l4,2.3 M187.6,68.4l3.3-1.9 M205.5,74.9l-14.6-8.4 M243.1,96.7
	l0.2,0.2l0.1,0.1l0.1,0.2v0.1v0.2l-0.1,0.1l-0.1,0.2l-0.2,0.1 M241.1,95.6l2,1.1 M184.1,129.6l-1.6,0.9 M190.5,126.2l-0.1-6.5
	 M190.4,119.7l-7.3,4.3 M190.4,119.7v-0.2l-0.1-0.2l-0.1-0.1L190,119 M184.1,129.6l-0.2-1.8 M184.1,129.6l0.2,1.6 M183.1,124
	l-0.1-0.2v-0.2l-0.1-0.1l-0.2-0.2 M182.7,123.3l0.2,0.2l0.1,0.1l0.2,0.2v0.3 M183.9,127.8l-1.6,0.9 M183.2,124.1l0.7,3.7
	 M183.2,124.1l-1.6,0.9 M182.7,132.1l-0.2-1.6 M182.3,128.7l0.2,1.8 M182.3,128.7l-0.7-3.7 M181.6,125v-0.2l-0.2-0.2l-0.1-0.2
	l-0.2-0.1 M189.4,118.7l-0.1-0.1h-0.1l-0.1,0.1 M181.1,124.2v0.1 M182.7,123.3l-1.6,1 M182.7,123.3L182.7,123.3 M190,119l-7.3,4.3
	 M189.4,118.7l0.6,0.3 M189.4,118.7l-16.9,9.8 M181.5,131.4v-6.5 M181.5,124.9l-8,4.6 M181.1,124.2l0.1,0.1l0.2,0.2v0.2l0.1,0.2
	 M181.1,124.2l-8,4.6 M172.5,128.5l0.6,0.3 M172.1,128.6v-0.1l0.1-0.1h0.1l0.2,0.1 M171.4,131.1l0.7-2.5 M171.1,133.6l0.3-2.5
	 M173.5,129.5v6.6 M173.5,129.5v-0.2l-0.1-0.2l-0.1-0.2l-0.2-0.1 M75.4,157.3v0.1v0.1l-0.1,0.1v0.1l-0.1,0.1l-0.1,0.1L75,158
	 M183.2,87.8l0.1-3.4 M74.1,166.7L74.1,166.7 M76.5,165.6L76.5,165.6h-0.1h-0.1 M76.3,165.6l-1.2,0.7 M74.5,166.4h-0.1h-0.1h-0.1
	h-0.1l-0.1-0.1h-0.1 M75.1,166.3L75.1,166.3l-0.1,0.1h-0.1h-0.1h-0.1h-0.1h-0.1 M67.1,157.6l5.7-3.3 M67.1,158.7l-0.2-0.1l-0.1-0.1
	l-0.1-0.2v-0.1V158l0.1-0.1l0.1-0.2l0.2-0.1 M75,156.4l-0.4,0.3l-0.2,0.5l0.2,0.4l0.1,0.2L75,158 M74.6,136.7l0.7-0.4 M72.8,154.3
	l2.2,1.3 M75.3,137l-0.7-0.3 M74.6,136.7l-1.4,10.2 M73.1,148v-0.4v-0.3l0.1-0.4 M72.8,154.3l0.3-6.3 M186,67.5l4.9-2.9 M81.4,129.8
	v2.8 M75.6,148.4l1.8,1 M87.1,134.1v2.9 M87,131.1v1.3 M85.4,136v-2.9 M75.4,157.3l0.4-25 M95.2,178.6L95.2,178.6l-0.1-0.1v-0.1H95
	v-0.1 M95.3,175.8l-0.1-0.1l-0.1-0.1v-0.1v-0.1 M75.4,159.6l0.2-11.2 M75.6,148.4l0.1-0.7 M79.3,134.9l-0.3,0.2l-0.3,0.3l-0.2,0.4
	l-0.1,0.4 M74.1,162.2l0.3-0.1 M75.7,147.7l2.7-11.5 M75.7,147.7l1.8,1 M80,137.2l-1.6-1 M81.3,161L81.3,161l0.1-0.2 M80.9,135.8
	l-0.3,0.2l-0.2,0.4l-0.3,0.4l-0.1,0.4 M80,137.2l-2.5,11.5 M77.5,148.7l-0.1,0.7 M77.4,149.4v11.3 M75.2,159.6l-0.8,2.5 M95.2,174.1
	l-20.8-12 M89.5,165.7l-10.4-6 M96.3,169.6l-3.2-1.8 M75.4,158.8l-0.1,0.1 M75.2,159.6l-0.1-0.1v-0.1l-0.1-0.2l0.1-0.1l0.2-0.2
	 M96.1,171.6l-20.9-12 M77.4,160.7l1.7-1 M75.4,159.6l2,1.1 M75.4,159.6l1.7-1 M181.5,131.4l1.2,0.7 M173.5,136.1l8-4.7
	 M172.3,135.4l1.2,0.7 M106.9,173.1l65.4-37.7 M237.2,98.8l2.2,1.2 M235.5,99.8l1.7-1 M234.5,99.8l0.3,0.1h0.2h0.3l0.2-0.1
	 M234.2,99.6l0.3,0.2 M190.5,124.8l43.7-25.2 M184.2,129.9l6.3-3.7 M182.7,132.1l1.6-0.9 M97.6,171.4l-0.3,0.2 M96.1,175l1.2-3.4
	 M96.1,171.6l0.1,0.1h0.2h0.3H97l0.3-0.1 M95.2,174.1l0.9-2.5 M95.2,174.1l0.2,0.4 M97.2,174.4l0.2-0.1l0.1-0.2l0.1-0.2v-0.2
	 M89.5,167.7l1.9,1.1 M89.6,156.5l1.8,1 M95.4,174.5l-21.3-12.3 M73.8,162.6l0.1-0.2l0.2-0.2 M73.8,162.6l-6.7-3.9 M67.1,158.7
	l-0.3,3.5 M73.9,166.3l-7.1-4.1 M73.9,166.3l0.2-2.8 M74.1,163.5l21.2,12.3 M95.3,175.8l-0.1,2.8 M101.4,182.1l-6.2-3.5 M95.4,174.5
	l0.1,0.3l0.1,0.4 M97.2,174.4l4,2.3 M96.1,175l1.1-0.6 M95.6,175.2h0.3l0.2-0.2 M101.4,178.5l-5.8-3.3 M103,176.7l0.3-0.1
	 M101.2,176.7l0.3,0.1l0.2,0.1h0.5h0.4l0.4-0.2 M101.4,182.1v-3.6 M101.4,182.1l0.4,0.2l0.6,0.1l0.5-0.1l0.5-0.2 M103.4,178.5
	l-0.2,0.1l-0.3,0.1l-0.2,0.1h-0.3h-0.3l-0.3-0.1l-0.2-0.1l-0.2-0.1 M97.8,140.9v-0.6 M97.8,143.1v-0.5 M81.4,135.5v25.3 M241.3,97.9
	l0.1,1 M241.3,97.9l-2,1.2 M239.4,100l-0.1-0.9 M239.4,100l-132.3,76.4 M106.8,170.6l-1.9,1.1 M105.1,177.6l-1.7,0.9 M103.4,178.5
	v3.6 M243.3,101.3l-139.9,80.8 M243.3,101.3l-0.2-3.4 M243.1,97.9l-1.7,1 M96.3,170.4L96.3,170.4v0.2l0.2,0.1 M171.1,133.6v2.5
	 M105.4,156h-0.1h-0.1 M106.6,156.2L106.6,156.2l-0.1,0.1l-0.1,0.1 M89.5,167.7l0.1-11.2 M89.6,156.5l0.1-0.7 M92.4,144.3l0.1-0.4
	l0.3-0.4l0.2-0.3l0.4-0.2 M99.6,152.4h0.2h0.1l0.1,0.1 M89.7,155.8l2.7-11.5 M89.7,155.8l1.8,1 M94,145.3l-1.6-1 M79.3,134.9
	l0.5-0.3 M79.3,134.9l1.6,0.9 M81.4,135.5l-0.5,0.3 M81.4,135.5l12.4,7.2 M93.4,143l0.4-0.3 M93.4,143l1.6,0.9 M98.4,145.4l2-1.2
	 M99.4,138.3l1.6,0.9 M99.4,138.3l-1.1,0.6 M98.4,143.5l2-1.2 M98.4,143.5L78,131.7 M81.4,129.8l-3.4,1.9 M81.4,129.8l1.5,0.8
	 M87,131.1l-1.1,0.7 M87,131.1l-4.6-2.6 M80.4,128.5l0.2-0.1l0.3-0.1l0.2-0.1h0.3h0.3l0.2,0.1l0.3,0.1l0.2,0.1 M75.8,131.1l4.6-2.6
	 M75.8,131.1l-0.2,0.2l-0.1,0.1l-0.1,0.2v0.1v0.2l0.1,0.1l0.1,0.2l0.2,0.1 M75.8,132.3l4,2.3 M105,156.2l0.2-0.2 M98.4,145.4v7.7
	 M98.4,145.4l-3-1.8 M95.4,169.1L95.4,169.1v-0.2 M95.4,143.6v25.3 M95.4,143.6l-0.4,0.3 M95,143.9l-0.3,0.2l-0.3,0.4l-0.2,0.4
	l-0.2,0.4 M94,145.3l-2.5,11.5 M91.5,156.8l-0.1,0.7 M91.4,157.5v11.3 M91.4,168.8l1.7-1 M105.2,156l-2.8,1.6 M106.8,170.6v-0.4
	v-0.4l-0.1-0.4 M107.1,176.4l-0.3-5.8 M97.6,171.4v2.3 M96.7,155.7l-0.2,15 M97.6,171.4l-1.1-0.7 M105.3,157.7l-0.6-0.4
	 M104.7,157.3l1.7-0.9 M106.4,156.4l-0.5-0.3 M98.4,153.1l1.2-0.7 M98.4,153.1l0.9,0.5 M99.3,153.6l-2.6,1.5 M96.7,155.7l-0.2-0.2
	v-0.1v-0.2l0.2-0.1 M101.6,158.5l-4.9-2.8 M102.6,158.5l-0.2,0.1h-0.3h-0.2l-0.3-0.1 M102.6,158.5l0.3-0.2 M106.7,169.4l-1.9,1.1
	 M105.3,157.7l1.4,11.7 M103.5,158.7l1.8-1 M102.9,158.3v17.6 M102.9,175.9l0.1,0.1v0.1v0.1l0.1,0.1l0.1,0.1l0.1,0.1v0.1
	 M103.3,176.6l1.8,1 M104.9,171.7l0.2,5.9 M104.9,171.7v-0.4v-0.4l-0.1-0.4 M104.8,170.5l-1.3-11.8 M102.9,158.3l0.6,0.4 M101,134.7
	h-0.1 M81.4,132.7v-0.1 M82.8,132.7L82.8,132.7 M92.4,140L92.4,140L92.4,140l0.1-0.2v-0.1l0.1-0.1 M97.6,136.2L98,136h0.1
	 M92.6,139.6L92.6,139.6l-0.2,0.2v0.3 M107.5,168.4L107.5,168.4 M90.7,138.5L90.7,138.5 M395.4,85.4L395.4,85.4h0.1 M397.1,68.4
	L397.1,68.4 M410,93v-0.2l0.1-0.2 M408.6,79.9l0.2-0.1h0.2l0.1,0.1 M408.2,80.9v-0.3l0.1-0.2l0.1-0.3l0.2-0.2 M409.9,93l0.1,0.1
	 M403.8,71.8L403.8,71.8 M409.1,79.9L409.1,79.9L409.1,79.9l-0.2-0.1l-0.1,0.1h-0.1 M408.6,80l-0.2,0.1l-0.1,0.1v0.2l-0.1,0.2v0.1
	v0.2 M408.7,79.9h-0.1V80 M408.2,81l0.1,0.1 M408.2,80.9L408.2,80.9 M395.7,92.5l-0.1-0.1l-0.2,0.1 M395.4,92.5l-0.2,0.1l-0.2,0.3
	l-0.1,0.2v0.3v0.2l0.1,0.1 M410.1,92.6v0.2L410,93 M410.1,93.2v0.1h0.1l0.1,0.1 M410,93v0.1 M410.2,77.1L410.2,77.1 M398.7,66.6
	h-0.1h-0.2 M398,67.8L398,67.8 M396.9,87.2h0.1l0.1-0.1l0.1,0.1h0.1 M395.9,94.9L395.9,94.9L395.9,94.9l-0.3,0.1 M397.3,87.2
	L397.3,87.2 M394.8,95.7L394.8,95.7v-0.1 M396.9,87.2l-0.2,0.1l-0.1,0.2v0.2l-0.1,0.2l0.1,0.2v0.2l0.2,0.1l0.1,0.1 M394.8,95.6
	l0.2-0.1l0.2-0.2l0.2-0.1l0.1-0.1l0.1-0.1 M156.4,125.5h-0.1h-0.1v0.1v0.1v0.1h0.1l0.1,0.1 M162.1,121.8l0.1-0.1l0.2,0.1l0.1,0.1
	l0.1,0.2l0.1,0.2l0.1,0.1l-0.1,0.2l-0.1,0.1 M156.6,125.1l-0.1,0.1l-0.1,0.1v0.1v0.1 M156.4,125.5L156.4,125.5l0.1,0.1v0.1v0.1v0.1
	h-0.1 M156.4,126L156.4,126 M162.5,136.7v-0.1 M162.5,136.6v-0.2 M162.5,136.4l-0.3,0.2 M162.2,136.6l-0.2,0.1 M162,136.7v0.1
	 M162,136.8l-0.1,0.1 M161.9,136.9L161.9,136.9 M161.9,137v0.1 M161.9,137.1v0.1 M161.9,137.2h0.1 M162,137.2l0.2-0.1 M162.2,137.1
	l0.2-0.2 M162.4,136.9l0.1-0.2 M161.3,137.7h0.1 M161.4,137.7v-1.9 M215.9,93.1l-0.2-0.2 M165.2,134.5L165.2,134.5 M165.3,134.6v0.1
	 M164.5,135L164.5,135 M164.5,135.9L164.5,135.9 M164.7,134.7L164.7,134.7 M164.6,134.8v0.1 M164.1,135.8L164.1,135.8 M163.2,136.6
	L163.2,136.6 M164.5,134.8v-0.7 M164.5,134.7v0.1 M165.2,134.4L165.2,134.4 M165.2,134.5L165.2,134.5 M165.3,135.4v-0.8
	 M165.1,135.5l0.2-0.1 M165,134.5v0.1 M164.9,134.5h0.1 M164.8,134.6l0.1-0.1 M164.7,134.7l0.1-0.1 M164.5,135l0.1-0.2 M164.4,135.9
	h0.1 M164.5,135.9V135 M164.6,134.8l0.1-0.1 M165.3,134.6l-0.1-0.1 M163.3,135.5L163.3,135.5 M163.2,135.6L163.2,135.6 M163.2,135.8
	v-0.1 M164.1,135.9v-0.1 M164,136l0.1-0.1 M163.9,136.2l0.1-0.2 M163.7,136.3l0.2-0.1 M163.5,136.5l0.2-0.2 M163.3,136.5h0.2
	 M163.2,136.6l0.1-0.1 M163.2,136.4L163.2,136.4 M163.2,136.4L163.2,136.4 M163.9,135.8L163.9,135.8 M163.8,135.8h0.1 M163.2,135.9
	l0.6-0.1 M163.1,135.9h0.1 M164.1,135.2l-0.1-0.1 M163.9,135.2h0.2 M163.9,135.2L163.9,135.2 M163.8,135.2h0.1 M163.6,135.3l0.2-0.1
	 M163.4,135.4l0.2-0.1 M163.3,135.5l0.1-0.1 M163.2,135.7v-0.1 M163.2,135.7L163.2,135.7 M163.2,135.6l0.1-0.1 M163.1,136.5l0.1,0.1
	 M164.1,135.8l-0.1-0.1 M162.7,136L162.7,136 M162.7,136.6L162.7,136.6 M165.7,139l-8,4.6 M162.5,136.8v0.1 M162.5,136.9v-0.1
	 M162.4,137.1l0.1-0.2 M162.2,137.2l0.2-0.1 M162,137.3l0.2-0.1 M161.9,137.3h0.1 M161.8,137.3h0.1 M162.5,136L162.5,136 M162.4,136
	h0.1 M162.3,136h0.1 M162.1,136.2l0.2-0.2 M161.9,136.3l0.2-0.1 M161.9,136.4v-0.1 M161.8,136.5l0.1-0.1 M161.7,136.5L161.7,136.5
	 M162.6,135.9L162.6,135.9 M162.7,136l-0.1-0.1 M162.7,136.8v-0.2 M162.7,136.9v-0.1 M162.6,137l0.1-0.1 M162,136.7l0.1-0.1
	 M161.9,136.8l0.1-0.1 M161.9,136.9v-0.1 M161.8,137l0.1-0.1 M161.8,137.1V137 M161.9,137.1h-0.1 M161.9,137.1L161.9,137.1
	 M162.5,136.3v0.1 M162.1,136.6l0.4-0.3 M162.7,136.6V136 M165.7,139L165.7,139 M173.2,109L173.2,109 M173.2,108.4v-0.1
	 M159.9,136.9h0.1 M159.9,137.4h0.1 M161,136.3v-0.2 M159.9,136.9l1.1-0.6 M160.8,137.1v-0.2 M159.9,137.6l0.9-0.5 M159.9,138.5
	v-0.9 M159.8,138.6l0.1-0.1 M159.9,137.4v-0.5 M174.8,106l-1.6-0.9 M172.6,108.3l-0.6,0.3 M172.8,108.2l-0.2,0.1 M172.9,108.2h-0.1
	 M173,108.3l-0.1-0.1 M173,108.5v-0.2 M173,109.1v-0.6 M173,109.3v-0.2 M172.9,109.5l0.1-0.2 M172.8,109.7l0.1-0.2 M172.6,109.8
	l0.2-0.1 M172,110.2l0.6-0.4 M172,108.6h-0.1 M172,110.2h-0.1 M172,108.6v1.6 M170.3,111.2l-0.1-0.1 M173.1,108l-0.1-0.1
	 M173.1,108.1V108 M173.2,108.3l-0.1-0.2 M173.1,109.2l0.1-0.2 M173.1,109.4v-0.2 M172.9,109.7l0.2-0.3 M172.8,109.9l0.1-0.2
	 M172.6,110l0.2-0.1 M171.7,110.5l0.9-0.5 M172.8,108.2h0.1 M172.7,108.2L172.7,108.2 M172.6,108.2h0.1 M171.9,108.6l0.7-0.4
	 M171.9,110.2v-1.6 M173.2,109v-0.7 M170.3,110.4L170.3,110.4 M171.3,109.9l-0.1-0.1 M168.7,112.1h-0.1 M170.1,111.5l1.3-0.8
	 M171.4,108.9v-0.2 M170.2,109.6l1.2-0.7 M170.2,110.1v-0.5 M170.3,110.1L170.3,110.1 M171.2,109.8v-0.2 M170.2,111.1v-0.7
	 M171.4,110.7v-0.2 M170.3,111.1L170.3,111.1 M170.2,110.4l1-0.6 M173.2,109v0.1 M160.9,136.9v0.2 M160,137.4l0.9-0.5 M161,136.3
	l-1,0.6 M161,136.1v0.2 M159.8,136.8l1.2-0.7 M159.8,138.6v-1.8 M160,138.5l-0.2,0.1 M160,137.6v0.9 M160.9,137.1l-0.9,0.5
	 M161.3,137.8v-1.9 M161.4,137.7l-0.1,0.1 M161.4,135.8v1.9 M161.3,135.9l0.1-0.1 M162.7,135.9L162.7,135.9 M162.6,135.9h0.1
	 M162.5,135.8l0.1,0.1 M162.3,135.9l0.2-0.1 M162.1,136l0.2-0.1 M161.9,136.2l0.2-0.2 M161.8,136.3l0.1-0.1 M161.7,136.4l0.1-0.1
	 M161.7,136.5L161.7,136.5 M161.7,136.6v-0.1 M161.9,136.5l-0.2,0.1 M161.9,136.4L161.9,136.4 M162,136.3l-0.1,0.1 M162.1,136.2
	l-0.1,0.1 M162.3,136.1l-0.2,0.1 M162.4,136l-0.1,0.1 M162.5,136h-0.1 M162.5,136.1V136 M162.5,136.2v-0.1 M162.2,136.4l0.3-0.2
	 M162,136.6l0.2-0.2 M161.8,136.7l0.2-0.1 M161.8,136.9v-0.2 M161.7,137L161.7,137 M161.7,137.2V137 M161.7,137.3v-0.1 M161.8,137.4
	l-0.1-0.1 M161.9,137.4h-0.1 M162,137.3l-0.1,0.1 M162.2,137.2l-0.2,0.1 M162.4,137.1l-0.2,0.1 M162.5,136.9l-0.1,0.2 M162.5,136.8
	v0.1 M162.6,136.9l-0.1-0.1 M162.6,137L162.6,137 M162.8,136.9l-0.2,0.1 M162.7,136.8l0.1,0.1 M162.7,136.6v0.2 M163.4,135.4
	l-0.1,0.1 M163.6,135.3l-0.2,0.1 M163.8,135.2l-0.2,0.1 M163.9,135.2h-0.1 M163.9,135.3v-0.1 M164.1,135.2l-0.2,0.1 M164,135.1
	l0.1,0.1 M163.9,135l0.1,0.1 M163.8,135.1l0.1-0.1 M163.6,135.1h0.2 M163.4,135.3l0.2-0.2 M163.2,135.4l0.2-0.1 M163.1,135.6
	l0.1-0.2 M163,135.7l0.1-0.1 M163,135.8v-0.1 M163.1,135.9l-0.1-0.1 M163.2,136l-0.1-0.1 M163.8,135.8l-0.6,0.2 M163.9,135.9
	l-0.1-0.1 M163.9,135.9L163.9,135.9 M163.9,136L163.9,136 M163.8,136.1l0.1-0.1 M163.7,136.2l0.1-0.1 M163.5,136.3l0.2-0.1
	 M163.3,136.4l0.2-0.1 M163.2,136.4L163.2,136.4 M163.2,136.3v0.1 M163,136.4l0.2-0.1 M163.1,136.6l-0.1-0.2 M163.3,136.6
	L163.3,136.6 M163.5,136.5l-0.2,0.1 M163.7,136.4l-0.2,0.1 M163.9,136.2l-0.2,0.2 M164,136.1l-0.1,0.1 M164.1,135.9l-0.1,0.2
	 M164.1,135.8v0.1 M163.9,135.7h0.1 M163.3,135.8l0.6-0.1 M163.2,135.8L163.2,135.8 M163.2,135.7v0.1 M163.2,135.6v0.1 M164.8,134.6
	l-0.1,0.1 M165,134.6h-0.2 M165,134.6L165,134.6 M165.1,134.6H165 M165.1,134.7v-0.1 M165.1,135.5v-0.8 M165.3,135.4l-0.2,0.1
	 M165.3,134.7v0.7 M165.2,134.4L165.2,134.4 M165.2,134.4L165.2,134.4 M165.1,134.4h0.1 M165,134.4h0.1 M164.8,134.4h0.2
	 M164.7,134.6l0.1-0.2 M164.6,134.7l0.1-0.1 M164.5,134.8l0.1-0.1 M164.5,134v0.8 M164.4,134.1l0.1-0.1 M164.4,136v-1.9
	 M164.5,135.9l-0.1,0.1 M164.6,134.9l-0.1,0.1 M164.5,135v0.9 M165.3,134.5v0.2 M164.7,134.7l-0.1,0.2 M163.3,135.5l-0.1,0.1
	 M164,135.7l0.1,0.1 M163.2,136.6h-0.1 M162.7,136v0.6 M160,136.9v0.5 M165.7,129.2v9.8 M165.7,139l-6.4,3.7 M168.6,112.1v-1.8
	 M169.7,111.7v-0.2 M168.4,112.4l1.3-0.7 M168.7,112l-0.1,0.1 M157.7,143.6l-2.5-1.5 M155.2,130.6l2.5,1.4 M163.2,125.9l2.5,1.5
	 M159.3,142.7l-1.6,0.9 M159.3,142.7V133 M157.7,143.6V132 M165.7,127.4v1.8 M157.7,132l8-4.6 M157.7,132l1.6,1 M159.3,133l6.4-3.8
	 M164.8,113.9l1.6,0.9 M164.8,110l1.6,0.9 M166.6,108.9l1.6,0.9 M168.4,112.5l1.4-0.8 M169.8,111.7v-0.2 M168.7,112.1v-1.8
	 M171.4,108.9v-0.2 M170.1,111.5l1.3-0.7 M171.4,110.8v-0.3 M170.3,111.2v-0.8 M171.3,109.9v-0.3 M171.3,109.6l-1,0.6 M170.3,110.2
	v-0.6 M170.3,109.6l1.1-0.7 M172.8,107.9l-0.2,0.1 M171.7,110.6l0.9-0.5 M172.6,110.1l0.2-0.2 M172.8,109.9l0.2-0.2 M173,109.7
	l0.1-0.2 M173.1,109.5l0.1-0.2 M173.2,109.3V109 M173.2,108.4v-0.2 M173.2,108.2l-0.1-0.2 M173.1,108l-0.1-0.1 M173,107.9h-0.2
	 M173.2,109v-0.6 M171.7,108.5v2.1 M172.6,108l-0.9,0.5 M170.3,110.4l1-0.5 M171.4,110.5l-1.1,0.7 M170.1,109.5v2 M171.4,108.7
	l-1.3,0.8 M169.8,111.5l-1.1,0.6 M168.4,110.4v2.1 M168.7,110.3l-0.3,0.1 M174.8,110l-8.4,4.8 M174.8,106v4 M173,107.1l1.8-1.1
	 M168.2,109.8l0.1-1l0.5-1.1l0.6-1l0.8-0.7l0.8-0.5l0.8-0.1l0.6,0.2l0.5,0.6l0.1,0.9 M166.4,110.9l1.8-1.1 M166.4,114.8v-3.9
	 M132.8,148.5l0.2,0.1 M133.1,147.9l0.2,0.2 M132.5,148.9l0.2,0.1 M132.1,149.2l0.2,0.1 M131,149.7l0.2,0.1 M131.4,149.6l0.2,0.1
	 M130.9,149.1l0.2,0.1 M133.1,144.9l0.2,0.1 M133.2,145.3l0.2,0.1 M132.7,145.4l0.2,0.1 M130.7,148.9l0.2,0.1 M132.4,145.3l0.2,0.1
	 M130.6,148.6l0.2,0.1 M131.4,145.8l0.2,0.1 M132.1,145.4l0.2,0.1 M130.6,147.2l0.2,0.1 M130.9,146.4l0.2,0.1 M130.7,146.8l0.2,0.1
	 M132.8,148.5l0.3-0.6 M130.7,149.7h0.3 M133.1,144.9l-0.1-0.1 M132.4,145.3l0.3,0.1 M131.1,146.1l0.3-0.3 M130.9,146.4l0.2-0.3
	 M130.9,149.1l-0.2-0.2 M133.1,147.9l0.1-0.2 M131,149.1h-0.1 M130.7,148.9l-0.1-0.3 M130.6,148.6v-1.4 M130.6,147.2l0.1-0.4
	 M130.7,146.8l0.2-0.4 M131.4,145.8l0.7-0.4 M132.1,145.4l0.3-0.1 M132.7,145.4L132.7,145.4 M132.9,145.5l0.3-0.2 M133.2,145.3
	l-0.1-0.4 M131,149.7l0.4-0.1 M131.4,149.6l0.7-0.4 M132.1,149.2l0.4-0.3 M132.5,148.9l0.3-0.4 M129.7,150.8l-0.2-0.1 M129.3,150.8
	l0.2-0.1 M129.5,150.7v-4.1 M134.9,138.2l1.8,1 M130.9,149l0.2,0.2 M131.3,146.2l-0.2,0.3 M131.6,145.9l-0.3,0.3 M132.9,145.5
	l-0.3-0.1 M133,144.8l0.3,0.2 M132.7,144.8h0.3 M130.6,146.6l0.3-0.5 M130.4,149.4v-0.5 M131.2,149.8h-0.3 M133.3,148.1l-0.3,0.5
	 M132.9,148.1v-0.3 M132.9,147.8l0.5-0.2 M133.4,147.6l-0.1,0.5 M133,148.6l-0.3,0.4 M132.7,149l-0.4,0.3 M132.3,149.3l-0.7,0.4
	 M131.6,149.7l-0.4,0.1 M130.9,149.8l-0.3-0.2 M130.6,149.6l-0.2-0.2 M130.4,148.9v-1.3 M130.4,147.6v-0.5 M130.4,147.1l0.2-0.5
	 M130.9,146.1l0.3-0.4 M131.2,145.7l0.4-0.3 M131.6,145.4l0.7-0.4 M132.3,145l0.4-0.2 M133.3,145l0.1,0.4 M133.4,145.4l-0.5,0.3
	 M132.9,145.7v-0.2 M132.6,145.4l-0.3,0.1 M132.3,145.5l-0.7,0.4 M131.1,146.5l-0.2,0.4 M130.9,146.9l-0.1,0.4 M130.8,147.3v1.4
	 M130.8,148.7l0.1,0.3 M131.1,149.2h0.2 M131.3,149.2l0.3-0.1 M131.6,149.1l0.7-0.4 M132.3,148.7l0.3-0.2 M132.6,148.5l0.3-0.4
	 M129.3,146.7l0.4-0.2 M129.7,146.5v4.3 M129.7,150.8l-0.4,0.3 M129.3,151.1v-4.4 M126,145.4l10.7-6.2 M136.7,151.6l-10.7,6.2
	 M136.7,139.2v12.4 M126,145.4l-1.8-1 M124.2,156.7l1.8,1.1 M126,157.8v-12.4 M231.5,62.2l-2-1.2 M175,111.9v0.4 M100.4,140.2v16.3
	 M229.5,61l-125.1,72.2 M106.5,134.4l-2.1-1.2 M104.4,133.2l-4,7 M102.4,141.3l-2-1.1 M177,113.2v-2.4 M161,125.1l2-1.2 M161,123.7
	v1.4 M161,120v2.4 M177,110.8l-16,9.2 M163.2,136.5v0.1 M163.2,136.4L163.2,136.4 M163.2,135.9L163.2,135.9 M163.2,135.6v0.1
	 M155.2,142.1v-11.5 M155.2,130.6l8-4.7 M166.6,108.9l0.1-1l0.4-1.1l0.7-1l0.8-0.8l0.8-0.4l0.8-0.2l0.5,0.2 M172.4,105.6l0.8-0.5
	 M173.2,109L173.2,109 M173.2,108.1v0.2 M168.7,111.7h-0.1 M170.3,110.7L170.3,110.7 M173.2,109L173.2,109 M164.8,113.9V110
	 M164.8,110l1.8-1.1 M124.2,156.7v-12.3 M124.2,144.4l10.7-6.2 M108.5,166.7v1.8 M108.5,162.8v1.3 M108,170l-1.1,0.7 M106.9,170.7
	v-6.9 M106.9,163.8l1.6-1 M215.9,89.7v1.7 M215.9,86.1V87 M215.9,93.1l-1.6,0.9 M214.3,94v-7 M214.3,87l1.6-0.9 M235.5,64.5v23.3
	 M231.5,62.2l4,2.3 M106.5,134.4l125-72.2 M102.4,141.3l4.1-6.9 M102.4,157.6v-16.3 M335.8,108.8v0.1 M340.6,105.3l-0.3,0.1
	 M336.6,108.5L336.6,108.5 M340.6,106.1l2,1.2 M279.3,136.6l0.1,0.2v0.2l-0.1,0.1v0.1l-0.1,0.1 M277.7,137.5l1.6-0.9 M278,132
	l1.3,4.6 M277.2,138.2l-0.8-0.5 M277.7,137.5l0.1,0.2v0.2l-0.1,0.1v0.1l-0.1,0.1h-0.1h-0.2h-0.1 M276.4,133l1.3,4.5 M275,140.3
	l-3-1.8 M279.4,129.6l-3-1.7 M272,130.4l3,1.8 M276.4,137.7V133 M278,132l-1.6,1 M275,132.2l4.4-2.6 M275,140.3v-8.1 M279.4,137.7
	l-4.4,2.6 M279.4,129.6v8.1 M395.1,52.4l2,1.2 M340.6,106.1l-14.1,8.1 M340.6,103.4v2.7 M266,131.6v23.2 M395.1,52.4L270,124.7
	 M272,130.4v8.1 M276.4,127.9l-4.4,2.5 M342.6,102.2l-16.1,9.3 M342.6,107.3v-5.1 M326.5,116.6l16.1-9.3 M326.5,111.5v5.1 M395.7,84
	l-0.6,0.4 M396.7,87.1v-1.7 M395.1,84.4v5.1 M288,131.5l-0.4,0.2 M287.6,131.7v0.5 M401.1,55.9v10.8 M397.1,53.6l4,2.3 M272,125.8
	l125.1-72.2 M268,152.8v-20 M268,132.8l-2-1.2 M268,132.8l4-7 M270,124.7l2,1.1 M270,124.7l-4,6.9 M289.5,130.5L289.5,130.5
	 M199.1,77H199h-0.2h-0.1 M198.7,75.2l0.1-0.1h0.2 M214.9,91.4v-0.1 M434.5,108.1l0.3-0.2l0.2-0.3l0.1-0.3v-0.2 M435.1,107.1
	l-0.2-3.5 M408.9,67.9l-1.6-1 M397.1,69.3l-0.3,17.8 M398.1,109.4v-0.2 M422.9,76l-1.6-1 M426.3,87.8l-0.1-8.6 M376.2,110.4v0.2
	 M414.1,101.3l-28,16.2 M389.5,117.5l-2.1,0.1 M417.9,101.5L391.1,117 M391.1,117l-1.3,0.4 M395.2,89.4L333.5,125 M331.5,126.2
	l-10.1,5.8 M357.8,135.8l-2.1,0.1 M390.4,117.4l-31,17.9 M359.4,135.3l-1.2,0.4 M312.6,140.5l-0.2-0.3 M316.2,145l-0.3-0.2
	 M322.5,150.2l-2.5-1.7l-2.2-1.8 M326.6,151.7l-1.8-0.5l-2.3-1 M330.2,151.8l-2.1,0.1 M307.7,139.9l-1.3,0.8 M319.4,133.1l-10.3,6
	 M358.7,135.7l-26.9,15.5 M331.7,151.2l-1.3,0.5 M320.8,154v-0.2 M325.6,152.4l-8.3,4.8 M257.8,167.9v0.3l0.1,0.3l0.2,0.2l0.3,0.2
	 M258,164.5l-0.2,3.5 M267.3,173.1l5.6-3.2 M258.4,168.9l7.3,4.2 M265.7,173.1l0.3,0.2h0.5h0.4l0.4-0.2 M266,151.6l-1.4,0.8
	 M263.7,152.2l-1.9,1.1 M331.1,151.6l-13.5,7.8 M262.6,153.5l-0.3,0.2 M261.9,154.3l-0.1,10.4 M262.3,153.7l-0.1,0.1l-0.1,0.1
	L262,154v0.1l-0.1,0.1v0.1 M287.5,132.6l-0.3,20.8 M282.6,172.3l6.9,3.9 M267.4,155.6l-3.1-1.7 M264.5,164.4l0.1,0.4l0.1,0.3
	l0.3,0.2l0.2,0.2 M267.7,154.8v0.1 M267.7,154.9l-0.3,0.7l-0.2,0.4 M264.7,159.7l-0.2,4.7 M284.1,183.2v0.2l0.1,0.3l0.2,0.2l0.3,0.2
	 M268,152.5l-0.3,2.3 M267.3,155.9l-1.4,0.8 M265.4,157.2l-0.2,0.4 M265.2,157.6l-0.3,1.1l-0.2,1 M265.8,156.8l-0.1,0.1l-0.2,0.1
	l-0.1,0.2 M268.8,150.5l-0.5,1l-0.3,1.1 M275.5,146.7l-0.9-0.3l-1.2,0.1 M273.4,146.5H273l-1,0.5l-1.1,0.8l-1.1,1.2l-1,1.5
	 M284.2,179.6l-0.1,3.6 M316,151.4l-0.1-8.6 M292.3,159.9l-0.4-2.3 M294.6,188.9l139.9-80.8 M284.7,184.1l8.2,4.8 M292.9,188.9
	l0.4,0.1l0.4,0.1l0.5-0.1l0.4-0.1 M265.1,165.4l14.7,8.5 M280.4,173.9l2-1.1 M279.7,173.8v0.1h0.2l0.2,0.1l0.1-0.1l0.3-0.1
	 M290.5,155.3l-15-8.6 M236.6,83.4L236.6,83.4l0.2-0.3l0.2-0.3v-0.3 M235.5,84.1l1-0.5 M243.2,101.8l0.2-0.2l0.2-0.3l0.1-0.3
	l0.1-0.2 M209.7,71.4l-0.2,1.2 M237,82.6l-0.2-4.6 M236.8,78l-0.1-0.9l-0.3-0.8 M236.4,76.3l-0.3-0.3 M243.8,100.8l-0.3-3.5
	 M236.1,76l-0.2-0.3l-0.2-0.1l-0.1-0.2 M217.1,64.3l-1.1-0.2l-0.9,0.2l-1.1,0.5l-1.1,0.8 M212.9,65.6l-0.2,0.2l-1.3,1.4l-1.1,2
	l-0.4,1.1l-0.2,1.1 M239.2,86.3l-3.7-2.2 M239.6,87.3v-0.4 M239.6,86.9v-0.1v-0.1l-0.1-0.1v-0.1l-0.1-0.1l-0.1-0.1h-0.1 M233.5,89.7
	l-0.2,10.4 M233.8,88.9L233.8,88.9l-0.2,0.3l-0.1,0.2v0.3 M234.5,88.4l-0.1,0.1l-0.1,0.1 M185.6,68l-0.2,18.5 M220.5,66.2l-3-1.8
	 M189.1,118.6l-16.9,9.8 M66.4,161.6v0.3l0.2,0.3l0.2,0.2l0.2,0.2 M95.6,139l-0.6,0.3 M98.4,137.4l-0.1,0.1 M98.6,137.2l-0.2,0.2
	 M103.9,134.2l-1,0.6 M66.7,158.1l-0.3,3.5 M76.2,166L76.2,166l0.1-0.1h0.1h0.1h0.1l0.1,0.1 M74.9,166.7l1.3-0.7 M67,162.6l7.1,4.1
	 M74.1,166.7h0.1l0.3,0.1 M74.5,166.8l0.3-0.1h0.1 M75,159.2l-1.2,3.4 M75.4,131.7l-0.4,25 M76.7,166L95,176.6 M95,178.3v0.1v0.1
	l0.1,0.1v0.1l0.1,0.1v0.1h0.1l0.1,0.1 M95.1,175.6l-0.1,2.7 M103.2,182.5l140-80.7 M95.4,179l6.2,3.5 M101.6,182.5l0.3,0.2h0.5h0.4
	l0.4-0.2 M100.4,152.7l-0.5-0.3 M96.5,155.3l-0.2,15.1 M106.3,156.1l-0.2-0.1l-0.2-0.1h-0.3l-0.2,0.1 M106.6,156.2l-0.3-0.1
	 M106.8,170.2l-0.2-14 M102.4,157.6l-3.6-2 M102.2,136l-0.1,0.3l0.1,0.4v0.3 M101,134.7h-0.1 M103.3,135l-0.6-0.3l-1-0.2l-0.4,0.1
	 M101.6,138.1l-0.1-0.2l-0.2-1l0.1-0.7l0.2-0.3 M100.9,134.7l-0.5,0.4l-0.3,0.6l-0.1,0.8 M101.6,135.9h0.3l0.4,0.1l0.4,0.2
	 M82.8,134.5v-1.8 M81.4,132.7v1 M84.5,130.9l-0.9-0.3h-0.5l-0.5,0.1l-0.5,0.2l-0.4,0.5l-0.2,0.6l-0.1,0.7 M82.8,132.7l0.1-0.4
	L83,132h0.3l0.4,0.2 M90.8,138.5h-0.2l-0.5,0.2 M107.5,168.4l-0.6-0.4 M98.2,138.8h-0.1v-0.5v-0.5l0.2-0.5 M94.4,139l0.1-0.3
	 M101.6,138.1l-0.5-0.8l-0.9-0.7l-0.9-0.5l-0.9-0.2l-0.2,0.1 M97.7,136.1h-0.1 M97.6,136.1l-0.5,0.5l-0.3,0.6l-0.1,0.9 M93.5,137.8
	l-0.3,0.2l-0.1,0.2 M95.8,139.1l0.5,0.3l0.9,1l0.1,0.3 M88.3,137.6l0.8,0.2l1,0.4l0.6,0.3 M91.4,137.2L91.4,137.2l-1.1-0.5l-1.1-0.4
	l-1.1-0.1h-1l-0.8,0.3 M96.2,142.2l-0.4-0.6l-0.3-0.4 M106.8,169.6l0.7,0.3l0.6,0.1l0.9-0.2l0.5-0.4l0.4-0.6l0.2-0.7l-0.2-1.3
	l-0.2-0.8l-0.5-1l-0.7-0.9l-1-0.8 M106.8,164.6l0.5,0.3l0.5,0.5l0.3,0.6l0.3,0.5l0.1,0.5l0.1,0.3v0.6v0.3l-0.1,0.2l-0.3,0.2H108
	l-0.5-0.2 M90.7,138.5l7.1,4.1 M98.5,141.3l-7.1-4.1 M99.8,142.7l-0.4-0.6l-0.9-0.8 M97.8,142.6l0.6,0.5l0.2,0.2 M83.7,132.2
	l16.7,9.6 M100.4,140.2l-15.9-9.3 M395.2,88.7h-0.1 M395.1,85.2l0.3,0.2 M395.7,84.4L395.7,84.4 M395.4,85.4l0.2,0.1l0.4,0.1
	l0.4-0.1l0.3-0.2l0.1-0.1 M410.1,93.3l0.1,0.1 M395.7,68.4v16 M397.1,69.2v-0.8 M397.1,68.4V68l0.2-0.3l0.3-0.1l0.4,0.2 M398.7,66.6
	l-0.8-0.3l-0.5-0.1l-0.5,0.1l-0.5,0.3L396,67l-0.2,0.6l-0.1,0.8 M405.6,94.2l8.6,4.9 M405.9,92.7l-1.1-0.6 M414.2,97.5l-6.9-4
	 M404.5,82.1l0.1-0.4l0.1-0.5l0.3-0.4l0.4-0.3l0.5-0.1h0.6l0.7,0.2l0.8,0.3l0.3,0.2 M407.1,88.6l-1-1.4l-0.3-0.5l-0.4-0.9l-0.4-0.9
	l-0.3-0.9v-0.2 M408.3,81.1L408.3,81.1 M408.3,81.1L408.3,81.1 M409.3,92.7l0.6,0.5 M405.9,89.4l1.2,1.4l0.2,0.2 M409.9,93.2
	l0.2,0.1 M410.9,75.9l-7.1-4.1 M403.7,73.4l6.5,3.7 M410.9,92.4l1.1-1.1l0.7-1.3l0.2-1.4v-1.3l-0.2-1.6l-0.7-2l-1.3-2.1l-0.8-1
	l-0.9-0.8 M410.2,91.1l-0.2,0.1 M407.4,91.1l-0.2-0.1 M410,91.2l-0.4,0.2l-0.8,0.1l-0.2-0.1 M408.3,81.1l0.8,0.7l0.6,0.8l1,1.8
	l0.6,1.7l0.2,1.4v1.1l-0.2,1l-0.4,0.9l-0.8,0.7 M408,92.8l0.8,0.1l1.1-0.1l0.7-0.3 M410.6,92.5l0.3-0.1 M395,93.7l2.3,1.3 M398,93.8
	l-2.3-1.4 M414.3,92.9L414.3,92.9l-0.9,0.1l-0.9-0.2l-1-0.4l-0.6-0.3 M410.2,77.2l0.4,0.2l1,0.7l1,1l0.7,0.8l0.6,0.8l0.6,0.8
	 M414.9,79.6l-0.3-0.4l-0.9-1l-0.8-0.8l-1-0.8l-1-0.7 M410.2,93.3v0.1l1,0.5l1.1,0.3l1.1,0.2l0.9-0.1 M417.8,77.6l-19.1-11
	 M398,67.8l19.1,11 M397.8,93.2l0.1,0.2v0.1l0.1,0.2v0.1v0.1 M397.3,95l0.2,0.1l0.5,0.1h0.5l0.4-0.2l0.3-0.5l0.2-0.6v-0.4l-0.1-0.4
	l-0.3-0.6 M395,92.8v-0.4l0.1-0.5l0.1-0.2l0.1-0.2l0.3-0.1l0.4,0.1l0.5,0.2l0.6,0.6l0.7,0.9 M396,95l-0.5-0.9l-0.2-0.2 M399,92.5
	l-0.8-1.1l-0.8-0.7l-0.7-0.5l-0.6-0.1l-0.8-0.1l-0.5,0.2l-0.5,0.3l-0.5,0.9l-0.2,0.8l0.1,1l0.4,1.3l0.3,0.7l0.4,0.6 M417.1,78.8
	l0.6,0.5l0.5,0.7 M420.1,81.1l-0.1-0.6l-0.5-1.2l-0.8-1l-0.9-0.7 M403,95.2l0.7-0.5l0.6-0.7l0.5-1.7v-1.8l-0.4-1.8l-0.9-1.7
	l-1.1-1.4l-0.7-0.6l-0.8-0.4l-0.9-0.1l-0.8,0.2 M407.1,93.6l0.5-0.4l0.6-0.7l0.6-1.9v-2l-0.5-2l-1-1.9l-1.3-1.6l-0.8-0.7l-0.9-0.4
	l-1-0.2l-1,0.3 M403,86.3l-0.3-0.6l-0.1-1.2l0.1-0.8 M407.2,91l-0.9-0.5l-1.2-1l-0.8-0.9 M402.8,83.6l0.3-0.3 M403.3,92.3l-0.6-0.4
	l-1.2-1.1l-1-1.3l-0.4-0.7l-0.3-0.7l-0.1-0.7l-0.1-0.7l0.1-0.5l0.2-0.3 M406.3,92.5l-1,0.3l-0.6-0.1 M396.8,90.2l-0.2-0.5l-0.1-0.5
	l0.1-0.4l0.1-0.2 M400.1,93.9l-0.2-0.1l-0.5-0.4 M402.4,94l-0.6,0.2h-0.2 M396.1,87.3L396.1,87.3 M397.2,87.2l-0.5-0.1l-0.3,0.1
	 M399.9,97.4l0.9-0.7l0.5-0.8l0.3-1.4v-1.3l-0.3-1.3l-0.5-1.3l-0.6-1.1l-1.2-1.3l-0.8-0.6l-1-0.4 M399.3,96.2l-0.6,0.2l-0.7-0.1
	l-0.9-0.4l-0.6-0.4l-0.6-0.6 M399.9,85.9h0.3l0.5,0.1l0.5,0.4l0.5,0.4l0.4,0.6l0.4,0.6l0.6,1.4l0.3,1.5v1.4l-0.4,1l-0.7,0.7
	 M403,83.3h0.8l0.9,0.5l0.8,0.8l0.7,1L407,87l0.3,1l0.1,1l0.1,1.1l-0.2,1l-0.4,0.9l-0.7,0.6 M404.8,91.1l1.8,1.2 M402.4,82l-0.5,0.5
	l-0.4,0.7l-0.2,1v0.6 M404.1,94l1.1,0.2l0.9-0.1l0.9-0.4 M401.5,92.7l0.2,0.2l1.1,0.7 M399.2,84.7l-0.6,0.6l-0.3,0.9l-0.1,1l0.1,0.5
	 M401.5,95.6L401.5,95.6l0.9-0.1l0.7-0.3 M399,94.9l1,0.5 M395.9,91.5l0.2,0.6l0.9,1 M396,87.3l-0.5,0.6l-0.3,0.9v0.9l0.1,0.3
	 M396.9,88.5l0.7,0.3l0.6,0.5l0.9,1.1l0.5,1l0.4,1l0.2,1.1v1l-0.3,1l-0.2,0.4l-0.4,0.3 M394.7,95.7l0.8,0.8l0.8,0.6l1.4,0.6l1,0.1
	l1.3-0.4 M182.5,111.2h0.1v-0.1l0.1-0.2 M182.6,110.6l-0.1-0.2l-0.1-0.1h-0.1h-0.2H182h-0.1 M182.7,110.9v-0.1l-0.1-0.1v-0.1
	 M177.4,114.2l5.1-3 M181.9,110.3l-5,2.9 M176.7,116.9l0.5-0.5l0.3-0.5l0.1-0.7l-0.1-0.7l-0.2-0.7l-0.5-0.6l-0.5-0.5l-0.4-0.3
	l-0.5-0.1h-0.6l-0.7,0.2 M174.1,112.5l-12,6.9 M164.7,123.9l12-7 M161.9,123.1v0.1l0.6,0.5l0.4,0.2l0.5,0.2h0.6l0.7-0.2
	 M162.1,119.4l-0.6,0.5l-0.2,0.6l-0.1,0.7v0.6l0.2,0.4 M156.2,125.8l0.1,0.2h0.1 M156.3,125.1l-0.1,0.1l-0.1,0.1v0.1v0.2v0.1
	l0.1,0.1 M162.1,121.8l-5.8,3.3 M156.8,126l5.8-3.3 M156.4,126l0.1,0.1h0.1h0.2V126 M340.2,104l0.4-0.2 M339.4,106.7l0.6-0.5
	l0.3-0.5l0.1-0.7l-0.1-0.7l-0.3-0.6 M327.4,113.7l12-7 M326.5,113.9h0.3l0.6-0.2 M172.3,105.5l-1.6-0.9 M277.6,138.2l1.6-0.9
	 M288,131.7L288,131.7 M288,130.5v1.2 M289.5,131.1v-0.6 M289.5,130.5v-0.4l0.2-0.3h0.2l0.5,0.2 M291.1,128.7l-0.9-0.3h-0.5
	l-0.5,0.1l-0.4,0.2l-0.4,0.5l-0.3,0.6l-0.1,0.7 M294.7,135.2l0.1-0.1h0.2l0.5,0.2 M296.2,134l-0.9-0.3h-0.5l-0.5,0.1l-0.4,0.2
	l-0.4,0.5 M303.2,139.9l-0.1-0.1l-1-0.4l-0.3-0.1 M303.2,138.1l-7-4.1 M295.5,135.3l7,4 M304.1,140.6l-0.9-0.7 M302.5,139.3l1,0.7
	l1,0.8l0.2,0.2 M308.1,142.9l-0.4-0.7l-0.5-0.6l-0.8-1l-0.9-0.9l-1-0.8l-1.1-0.7l-0.2-0.1 M310.3,139.8l-19.2-11.1 M290.4,130
	l19.1,11 M311.2,143.9L311.2,143.9 M309.5,141l0.7,0.5l0.5,0.7l0.4,0.9l0.1,0.8 M312.5,143.3l-0.1-0.6l-0.5-1.2l-0.7-1l-0.9-0.7
	 M192,68.7l-0.9-0.3h-0.5l-0.5,0.1l-0.4,0.2l-0.4,0.5l-0.1,0.1 M190.4,70l0.1-0.2h0.3l0.5,0.2 M198.8,78.7l-1-0.4l-1.1-0.1l-1.4,0.3
	l-0.8,0.7l-0.5,1l-0.3,1.2v0.3 M195.2,80.8l0.3-0.6l0.8-0.6h0.8h0.1 M199,77l-1.6-0.7l-1.4-0.2l-1,0.1l-0.8,0.4l-0.6,0.3l-0.5,0.5
	l-0.7,1.3l-0.2,0.7l-0.1,1v1.3l0.1,0.8 M193.6,81.8l-0.1-1.2l0.2-1.2l0.1-0.4l0.3-0.5l0.4-0.5l0.8-0.4l1.3-0.1l1.7,0.7 M192.2,82.6
	v-0.1l-0.2-1.2l-0.1-1.1v-1.1l0.2-1l0.3-0.8l0.5-0.7l0.6-0.6l0.8-0.4l0.9-0.2l0.9,0.1l1.1,0.3l1,0.5l0.1,0.1 M199,75.1l-0.9-0.4
	l-1.1-0.4l-1.1-0.3h-1.1l-1.1,0.3l-1,0.5l-0.9,0.9l-0.1,0.1 M198.3,78.2l0.7,0.4 M200.4,77.9l-0.5-0.4L199,77 M198.3,76.4l2.3,1.3
	 M202,76.9l-3-1.8 M214.9,91.4l-0.6-0.4 M191.3,70l11.4,6.5 M204.1,75.7l-12.1-7 M214.2,92.6l0.7,0.3l0.7,0.1l0.9-0.2l0.5-0.5
	l0.3-0.5l0.2-0.8l-0.1-1.3l-0.3-0.8l-0.5-1l-0.7-0.9l-0.7-0.5 M214.2,87.5l0.6,0.4l0.4,0.5l0.4,0.5l0.2,0.5l0.2,0.5l0.1,0.4v0.5
	l-0.1,0.4l-0.1,0.2l-0.2,0.2l-0.3-0.1l-0.5-0.1"/>
<g>
	<path d="M98.1,55.6h1v7.2h3.5v0.9h-4.5V55.6z"/>
	<path d="M108,59.9h-3.1v2.9h3.5v0.9h-4.5v-8.1h4.4v0.9h-3.3V59h3.1V59.9z"/>
	<path d="M109.7,55.7c0.6-0.1,1.4-0.2,2.2-0.2c1.5,0,2.6,0.3,3.3,1c0.7,0.7,1.1,1.6,1.1,2.9c0,1.3-0.4,2.4-1.2,3.1
		c-0.8,0.8-2,1.2-3.6,1.2c-0.7,0-1.4,0-1.9-0.1V55.7z M110.7,62.9c0.3,0,0.6,0.1,1.1,0.1c2.2,0,3.4-1.2,3.4-3.4
		c0-1.9-1.1-3.1-3.3-3.1c-0.5,0-0.9,0-1.2,0.1V62.9z"/>
	<path d="M121.3,55.6v8.1h-1v-8.1H121.3z"/>
	<path d="M123.2,59.5c0-0.6,0-1.1,0-1.6h0.9l0.1,1h0c0.3-0.6,1-1.1,1.9-1.1c0.8,0,2.1,0.5,2.1,2.5v3.5h-1.1v-3.3
		c0-0.9-0.3-1.7-1.3-1.7c-0.7,0-1.2,0.5-1.4,1.1c0,0.1-0.1,0.3-0.1,0.5v3.5h-1.1V59.5z"/>
	<path d="M134.9,55.2v7c0,0.5,0,1.1,0,1.5H134l0-1h0c-0.3,0.6-1,1.1-2,1.1c-1.4,0-2.5-1.2-2.5-3c0-1.9,1.2-3.1,2.6-3.1
		c0.9,0,1.5,0.4,1.8,0.9h0v-3.5H134.9z M133.8,60.2c0-0.1,0-0.3,0-0.4c-0.2-0.7-0.7-1.2-1.5-1.2c-1.1,0-1.7,1-1.7,2.2
		c0,1.2,0.6,2.1,1.7,2.1c0.7,0,1.4-0.5,1.5-1.3c0-0.1,0-0.3,0-0.5V60.2z"/>
	<path d="M137.8,56.3c0,0.4-0.3,0.6-0.7,0.6c-0.4,0-0.6-0.3-0.6-0.6c0-0.4,0.3-0.7,0.7-0.7C137.5,55.6,137.8,55.9,137.8,56.3z
		 M136.6,63.7v-5.8h1.1v5.8H136.6z"/>
	<path d="M143.6,63.5c-0.3,0.1-0.9,0.3-1.7,0.3c-1.8,0-2.9-1.2-2.9-3c0-1.8,1.2-3.1,3.1-3.1c0.6,0,1.2,0.2,1.5,0.3l-0.2,0.8
		c-0.3-0.1-0.6-0.3-1.2-0.3c-1.3,0-2.1,1-2.1,2.2c0,1.3,0.9,2.2,2,2.2c0.6,0,1-0.2,1.3-0.3L143.6,63.5z"/>
	<path d="M148,63.7l-0.1-0.7h0c-0.3,0.5-0.9,0.9-1.8,0.9c-1.2,0-1.8-0.8-1.8-1.7c0-1.4,1.2-2.2,3.5-2.2v-0.1c0-0.5-0.1-1.3-1.3-1.3
		c-0.5,0-1.1,0.2-1.5,0.4l-0.2-0.7c0.5-0.3,1.2-0.5,1.9-0.5c1.8,0,2.2,1.2,2.2,2.4v2.2c0,0.5,0,1,0.1,1.4H148z M147.9,60.7
		c-1.2,0-2.5,0.2-2.5,1.3c0,0.7,0.5,1,1,1c0.8,0,1.2-0.5,1.4-1c0-0.1,0.1-0.2,0.1-0.3V60.7z"/>
	<path d="M151.8,56.2v1.7h1.5v0.8h-1.5v3.1c0,0.7,0.2,1.1,0.8,1.1c0.3,0,0.5,0,0.6-0.1l0,0.8c-0.2,0.1-0.5,0.1-0.9,0.1
		c-0.5,0-0.9-0.2-1.1-0.4c-0.3-0.3-0.4-0.8-0.4-1.5v-3.2h-0.9v-0.8h0.9v-1.4L151.8,56.2z"/>
	<path d="M159.7,60.7c0,2.1-1.5,3.1-2.9,3.1c-1.6,0-2.8-1.2-2.8-3c0-1.9,1.3-3.1,2.9-3.1C158.6,57.7,159.7,59,159.7,60.7z
		 M155.1,60.8c0,1.3,0.7,2.2,1.8,2.2c1,0,1.8-0.9,1.8-2.3c0-1-0.5-2.2-1.7-2.2C155.6,58.5,155.1,59.7,155.1,60.8z"/>
	<path d="M161,59.7c0-0.7,0-1.3,0-1.8h0.9l0,1.1h0c0.3-0.8,0.9-1.3,1.6-1.3c0.1,0,0.2,0,0.3,0v1c-0.1,0-0.2,0-0.4,0
		c-0.7,0-1.3,0.6-1.4,1.4c0,0.1,0,0.3,0,0.5v3.1h-1V59.7z"/>
</g>
<g>
	<path d="M132.1,187.7c0.5-0.1,1.3-0.2,2-0.2c1.1,0,1.8,0.2,2.3,0.7c0.4,0.4,0.6,0.9,0.6,1.5c0,1.1-0.7,1.8-1.5,2.1v0
		c0.6,0.2,1,0.8,1.2,1.6c0.3,1.1,0.5,1.9,0.6,2.2h-1.1c-0.1-0.2-0.3-0.9-0.5-1.9c-0.2-1.1-0.7-1.5-1.6-1.6h-1v3.5h-1V187.7z
		 M133.2,191.4h1.1c1.1,0,1.8-0.6,1.8-1.5c0-1-0.8-1.5-1.9-1.5c-0.5,0-0.9,0-1,0.1V191.4z"/>
	<path d="M139.2,193c0,1.4,0.9,2,2,2c0.8,0,1.2-0.1,1.6-0.3l0.2,0.8c-0.4,0.2-1,0.4-1.9,0.4c-1.8,0-2.9-1.2-2.9-2.9s1-3.1,2.7-3.1
		c1.9,0,2.4,1.7,2.4,2.7c0,0.2,0,0.4,0,0.5H139.2z M142.3,192.2c0-0.7-0.3-1.7-1.5-1.7c-1.1,0-1.5,1-1.6,1.7H142.3z"/>
	<path d="M145.2,193c0,1.4,0.9,2,2,2c0.8,0,1.2-0.1,1.6-0.3l0.2,0.8c-0.4,0.2-1,0.4-1.9,0.4c-1.8,0-2.9-1.2-2.9-2.9s1-3.1,2.7-3.1
		c1.9,0,2.4,1.7,2.4,2.7c0,0.2,0,0.4,0,0.5H145.2z M148.3,192.2c0-0.7-0.3-1.7-1.5-1.7c-1.1,0-1.5,1-1.6,1.7H148.3z"/>
	<path d="M155.6,187.2v7c0,0.5,0,1.1,0,1.5h-0.9l0-1h0c-0.3,0.6-1,1.1-2,1.1c-1.4,0-2.5-1.2-2.5-3c0-1.9,1.2-3.1,2.6-3.1
		c0.9,0,1.5,0.4,1.8,0.9h0v-3.5H155.6z M154.6,192.2c0-0.1,0-0.3,0-0.4c-0.2-0.7-0.7-1.2-1.5-1.2c-1.1,0-1.7,1-1.7,2.2
		c0,1.2,0.6,2.1,1.7,2.1c0.7,0,1.4-0.5,1.5-1.3c0-0.1,0-0.3,0-0.5V192.2z"/>
	<path d="M159.8,194.4c0.5,0.3,1.2,0.5,1.9,0.5c1.1,0,1.7-0.6,1.7-1.4c0-0.8-0.4-1.2-1.5-1.6c-1.3-0.5-2.1-1.2-2.1-2.3
		c0-1.3,1-2.2,2.6-2.2c0.8,0,1.4,0.2,1.8,0.4l-0.3,0.9c-0.3-0.1-0.8-0.4-1.5-0.4c-1.1,0-1.5,0.7-1.5,1.2c0,0.8,0.5,1.1,1.6,1.6
		c1.4,0.5,2.1,1.2,2.1,2.4c0,1.2-0.9,2.3-2.8,2.3c-0.8,0-1.6-0.2-2.1-0.5L159.8,194.4z"/>
	<path d="M166.2,189.9l0.8,3c0.2,0.6,0.3,1.2,0.4,1.8h0c0.1-0.6,0.3-1.2,0.5-1.8l0.9-3h0.9l0.9,2.9c0.2,0.7,0.4,1.3,0.5,1.9h0
		c0.1-0.6,0.3-1.2,0.4-1.9l0.8-2.9h1l-1.9,5.8h-1l-0.9-2.8c-0.2-0.6-0.4-1.2-0.5-1.9h0c-0.1,0.7-0.3,1.3-0.5,1.9l-0.9,2.8h-1
		l-1.8-5.8H166.2z"/>
	<path d="M175.8,188.3c0,0.4-0.3,0.6-0.7,0.6c-0.4,0-0.6-0.3-0.6-0.6c0-0.4,0.3-0.7,0.7-0.7C175.5,187.6,175.8,187.9,175.8,188.3z
		 M174.6,195.7v-5.8h1.1v5.8H174.6z"/>
	<path d="M178.7,188.2v1.7h1.5v0.8h-1.5v3.1c0,0.7,0.2,1.1,0.8,1.1c0.3,0,0.5,0,0.6-0.1l0,0.8c-0.2,0.1-0.5,0.1-0.9,0.1
		c-0.5,0-0.9-0.2-1.1-0.4c-0.3-0.3-0.4-0.8-0.4-1.5v-3.2h-0.9v-0.8h0.9v-1.4L178.7,188.2z"/>
	<path d="M185.4,195.5c-0.3,0.1-0.9,0.3-1.7,0.3c-1.8,0-2.9-1.2-2.9-3c0-1.8,1.2-3.1,3.1-3.1c0.6,0,1.2,0.2,1.5,0.3l-0.2,0.8
		c-0.3-0.1-0.6-0.3-1.2-0.3c-1.3,0-2.1,1-2.1,2.2c0,1.3,0.9,2.2,2,2.2c0.6,0,1-0.2,1.3-0.3L185.4,195.5z"/>
	<path d="M186.7,187.2h1.1v3.6h0c0.2-0.3,0.4-0.6,0.8-0.7c0.3-0.2,0.7-0.3,1.1-0.3c0.8,0,2,0.5,2,2.5v3.5h-1.1v-3.3
		c0-0.9-0.3-1.7-1.3-1.7c-0.7,0-1.2,0.5-1.4,1.1c-0.1,0.1-0.1,0.3-0.1,0.5v3.5h-1.1V187.2z"/>
</g>
<g>
	<path d="M394.5,170.4c0.5,0.3,1.2,0.5,1.9,0.5c1.1,0,1.7-0.6,1.7-1.4c0-0.8-0.4-1.2-1.5-1.6c-1.3-0.5-2.1-1.2-2.1-2.3
		c0-1.3,1-2.2,2.6-2.2c0.8,0,1.4,0.2,1.8,0.4l-0.3,0.9c-0.3-0.1-0.8-0.4-1.5-0.4c-1.1,0-1.5,0.7-1.5,1.2c0,0.8,0.5,1.1,1.6,1.6
		c1.4,0.5,2.1,1.2,2.1,2.4c0,1.2-0.9,2.3-2.8,2.3c-0.8,0-1.6-0.2-2.1-0.5L394.5,170.4z"/>
	<path d="M404.7,171.5c-0.3,0.1-0.9,0.3-1.7,0.3c-1.8,0-2.9-1.2-2.9-3c0-1.8,1.2-3.1,3.1-3.1c0.6,0,1.2,0.2,1.5,0.3l-0.2,0.8
		c-0.3-0.1-0.6-0.3-1.2-0.3c-1.3,0-2.1,1-2.1,2.2c0,1.3,0.9,2.2,2,2.2c0.6,0,1-0.2,1.3-0.3L404.7,171.5z"/>
	<path d="M406,167.7c0-0.7,0-1.3,0-1.8h0.9l0,1.1h0c0.3-0.8,0.9-1.3,1.6-1.3c0.1,0,0.2,0,0.3,0v1c-0.1,0-0.2,0-0.4,0
		c-0.7,0-1.3,0.6-1.4,1.4c0,0.1,0,0.3,0,0.5v3.1h-1V167.7z"/>
	<path d="M410.3,169c0,1.4,0.9,2,2,2c0.8,0,1.2-0.1,1.6-0.3l0.2,0.8c-0.4,0.2-1,0.4-1.9,0.4c-1.8,0-2.9-1.2-2.9-2.9s1-3.1,2.7-3.1
		c1.9,0,2.4,1.7,2.4,2.7c0,0.2,0,0.4,0,0.5H410.3z M413.4,168.2c0-0.7-0.3-1.7-1.5-1.7c-1.1,0-1.5,1-1.6,1.7H413.4z"/>
	<path d="M416.2,165.9l0.8,3c0.2,0.6,0.3,1.2,0.4,1.8h0c0.1-0.6,0.3-1.2,0.5-1.8l0.9-3h0.9l0.9,2.9c0.2,0.7,0.4,1.3,0.5,1.9h0
		c0.1-0.6,0.3-1.2,0.4-1.9l0.8-2.9h1l-1.9,5.8h-1l-0.9-2.8c-0.2-0.6-0.4-1.2-0.5-1.9h0c-0.1,0.7-0.3,1.3-0.5,1.9l-0.9,2.8h-1
		l-1.8-5.8H416.2z"/>
	<path d="M428.2,163.6v3.4h3.9v-3.4h1.1v8.1h-1.1v-3.8h-3.9v3.8h-1v-8.1H428.2z"/>
	<path d="M440.2,168.7c0,2.1-1.5,3.1-2.9,3.1c-1.6,0-2.8-1.2-2.8-3c0-1.9,1.3-3.1,2.9-3.1C439.1,165.7,440.2,167,440.2,168.7z
		 M435.6,168.8c0,1.3,0.7,2.2,1.8,2.2c1,0,1.8-0.9,1.8-2.3c0-1-0.5-2.2-1.7-2.2C436.2,166.5,435.6,167.7,435.6,168.8z"/>
	<path d="M441.6,163.2h1.1v8.5h-1.1V163.2z"/>
	<path d="M445,169c0,1.4,0.9,2,2,2c0.8,0,1.2-0.1,1.6-0.3l0.2,0.8c-0.4,0.2-1,0.4-1.9,0.4c-1.8,0-2.9-1.2-2.9-2.9s1-3.1,2.7-3.1
		c1.9,0,2.4,1.7,2.4,2.7c0,0.2,0,0.4,0,0.5H445z M448.1,168.2c0-0.7-0.3-1.7-1.5-1.7c-1.1,0-1.5,1-1.6,1.7H448.1z"/>
	<path d="M450.3,170.6c0.3,0.2,0.9,0.4,1.4,0.4c0.8,0,1.1-0.4,1.1-0.9c0-0.5-0.3-0.8-1.1-1.1c-1-0.4-1.5-0.9-1.5-1.6
		c0-0.9,0.8-1.7,2-1.7c0.6,0,1.1,0.2,1.4,0.4l-0.3,0.8c-0.2-0.1-0.6-0.3-1.2-0.3c-0.6,0-1,0.4-1,0.8c0,0.5,0.3,0.7,1.1,1
		c1,0.4,1.5,0.9,1.5,1.8c0,1-0.8,1.7-2.2,1.7c-0.6,0-1.2-0.2-1.6-0.4L450.3,170.6z"/>
</g>
<g>
	<path d="M255.1,88.7c0.5-0.1,1.2-0.2,1.9-0.2c1,0,1.7,0.2,2.2,0.6c0.4,0.3,0.7,0.8,0.7,1.4c0,0.8-0.5,1.5-1.4,1.8v0
		c0.8,0.2,1.7,0.8,1.7,2c0,0.7-0.3,1.2-0.7,1.6c-0.6,0.5-1.5,0.8-2.8,0.8c-0.7,0-1.3,0-1.6-0.1V88.7z M256.2,92h0.9
		c1.1,0,1.8-0.6,1.8-1.4c0-0.9-0.7-1.3-1.8-1.3c-0.5,0-0.8,0-0.9,0.1V92z M256.2,95.9c0.2,0,0.5,0,0.9,0c1.1,0,2.1-0.4,2.1-1.6
		c0-1.1-0.9-1.6-2.1-1.6h-0.9V95.9z"/>
	<path d="M266.5,95.1c0,0.6,0,1.1,0,1.6h-0.9l-0.1-0.9h0c-0.3,0.5-0.9,1.1-1.9,1.1c-0.9,0-2-0.5-2-2.5v-3.4h1.1v3.2
		c0,1.1,0.3,1.8,1.3,1.8c0.7,0,1.2-0.5,1.4-1c0.1-0.2,0.1-0.3,0.1-0.5v-3.6h1.1V95.1z"/>
	<path d="M269.5,89.2v1.7h1.5v0.8h-1.5v3.1c0,0.7,0.2,1.1,0.8,1.1c0.3,0,0.5,0,0.6-0.1l0,0.8c-0.2,0.1-0.5,0.1-0.9,0.1
		c-0.5,0-0.9-0.2-1.1-0.4c-0.3-0.3-0.4-0.8-0.4-1.5v-3.2h-0.9v-0.8h0.9v-1.4L269.5,89.2z"/>
	<path d="M273.4,89.2v1.7h1.5v0.8h-1.5v3.1c0,0.7,0.2,1.1,0.8,1.1c0.3,0,0.5,0,0.6-0.1l0,0.8c-0.2,0.1-0.5,0.1-0.9,0.1
		c-0.5,0-0.9-0.2-1.1-0.4c-0.3-0.3-0.4-0.8-0.4-1.5v-3.2h-0.9v-0.8h0.9v-1.4L273.4,89.2z"/>
	<path d="M281.3,93.7c0,2.1-1.5,3.1-2.9,3.1c-1.6,0-2.8-1.2-2.8-3c0-1.9,1.3-3.1,2.9-3.1C280.2,90.7,281.3,92,281.3,93.7z
		 M276.7,93.8c0,1.3,0.7,2.2,1.8,2.2c1,0,1.8-0.9,1.8-2.3c0-1-0.5-2.2-1.7-2.2C277.3,91.5,276.7,92.7,276.7,93.8z"/>
	<path d="M282.7,92.5c0-0.6,0-1.1,0-1.6h0.9l0.1,1h0c0.3-0.6,1-1.1,1.9-1.1c0.8,0,2.1,0.5,2.1,2.5v3.5h-1.1v-3.3
		c0-0.9-0.3-1.7-1.3-1.7c-0.7,0-1.2,0.5-1.4,1.1c0,0.1-0.1,0.3-0.1,0.5v3.5h-1.1V92.5z"/>
</g>
<g>
	<path d="M234.5,229.4c0.5,0.3,1.2,0.5,1.9,0.5c1.1,0,1.7-0.6,1.7-1.4c0-0.8-0.4-1.2-1.5-1.6c-1.3-0.5-2.1-1.2-2.1-2.3
		c0-1.3,1-2.2,2.6-2.2c0.8,0,1.4,0.2,1.8,0.4l-0.3,0.9c-0.3-0.1-0.8-0.4-1.5-0.4c-1.1,0-1.5,0.7-1.5,1.2c0,0.8,0.5,1.1,1.6,1.6
		c1.4,0.5,2.1,1.2,2.1,2.4c0,1.2-0.9,2.3-2.8,2.3c-0.8,0-1.6-0.2-2.1-0.5L234.5,229.4z"/>
	<path d="M241.2,228c0,1.4,0.9,2,2,2c0.8,0,1.2-0.1,1.6-0.3l0.2,0.8c-0.4,0.2-1,0.4-1.9,0.4c-1.8,0-2.9-1.2-2.9-2.9s1-3.1,2.7-3.1
		c1.9,0,2.4,1.7,2.4,2.7c0,0.2,0,0.4,0,0.5H241.2z M244.3,227.2c0-0.7-0.3-1.7-1.5-1.7c-1.1,0-1.5,1-1.6,1.7H244.3z"/>
	<path d="M246.6,226.5c0-0.6,0-1.1,0-1.6h0.9l0.1,1h0c0.3-0.6,1-1.1,1.9-1.1c0.8,0,2.1,0.5,2.1,2.5v3.5h-1.1v-3.3
		c0-0.9-0.3-1.7-1.3-1.7c-0.7,0-1.2,0.5-1.4,1.1c0,0.1-0.1,0.3-0.1,0.5v3.5h-1.1V226.5z"/>
	<path d="M253.1,229.6c0.3,0.2,0.9,0.4,1.4,0.4c0.8,0,1.1-0.4,1.1-0.9c0-0.5-0.3-0.8-1.1-1.1c-1-0.4-1.5-0.9-1.5-1.6
		c0-0.9,0.8-1.7,2-1.7c0.6,0,1.1,0.2,1.4,0.4l-0.3,0.8c-0.2-0.1-0.6-0.3-1.2-0.3c-0.6,0-1,0.4-1,0.8c0,0.5,0.3,0.7,1.1,1
		c1,0.4,1.5,0.9,1.5,1.8c0,1-0.8,1.7-2.2,1.7c-0.6,0-1.2-0.2-1.6-0.4L253.1,229.6z"/>
	<path d="M263.3,227.7c0,2.1-1.5,3.1-2.9,3.1c-1.6,0-2.8-1.2-2.8-3c0-1.9,1.3-3.1,2.9-3.1C262.1,224.7,263.3,226,263.3,227.7z
		 M258.6,227.8c0,1.3,0.7,2.2,1.8,2.2c1,0,1.8-0.9,1.8-2.3c0-1-0.5-2.2-1.7-2.2C259.2,225.5,258.6,226.7,258.6,227.8z"/>
	<path d="M264.6,226.7c0-0.7,0-1.3,0-1.8h0.9l0,1.1h0c0.3-0.8,0.9-1.3,1.6-1.3c0.1,0,0.2,0,0.3,0v1c-0.1,0-0.2,0-0.4,0
		c-0.7,0-1.3,0.6-1.4,1.4c0,0.1,0,0.3,0,0.5v3.1h-1V226.7z"/>
	<path d="M276.7,230.4c-0.4,0.2-1.2,0.4-2.1,0.4c-2.3,0-4-1.4-4-4.1c0-2.5,1.7-4.2,4.2-4.2c1,0,1.6,0.2,1.9,0.4l-0.3,0.9
		c-0.4-0.2-1-0.3-1.6-0.3c-1.9,0-3.2,1.2-3.2,3.3c0,2,1.1,3.3,3.1,3.3c0.6,0,1.3-0.1,1.7-0.3L276.7,230.4z"/>
	<path d="M283.1,227.7c0,2.1-1.5,3.1-2.9,3.1c-1.6,0-2.8-1.2-2.8-3c0-1.9,1.3-3.1,2.9-3.1C282,224.7,283.1,226,283.1,227.7z
		 M278.5,227.8c0,1.3,0.7,2.2,1.8,2.2c1,0,1.8-0.9,1.8-2.3c0-1-0.5-2.2-1.7-2.2C279.1,225.5,278.5,226.7,278.5,227.8z"/>
	<path d="M284.8,224.9l1.1,3.3c0.2,0.5,0.3,1,0.5,1.5h0c0.1-0.5,0.3-1,0.5-1.5l1.1-3.3h1.1l-2.3,5.8h-1l-2.2-5.8H284.8z"/>
	<path d="M290.6,228c0,1.4,0.9,2,2,2c0.8,0,1.2-0.1,1.6-0.3l0.2,0.8c-0.4,0.2-1,0.4-1.9,0.4c-1.8,0-2.9-1.2-2.9-2.9s1-3.1,2.7-3.1
		c1.9,0,2.4,1.7,2.4,2.7c0,0.2,0,0.4,0,0.5H290.6z M293.7,227.2c0-0.7-0.3-1.7-1.5-1.7c-1.1,0-1.5,1-1.6,1.7H293.7z"/>
	<path d="M296.1,226.7c0-0.7,0-1.3,0-1.8h0.9l0,1.1h0c0.3-0.8,0.9-1.3,1.6-1.3c0.1,0,0.2,0,0.3,0v1c-0.1,0-0.2,0-0.4,0
		c-0.7,0-1.3,0.6-1.4,1.4c0,0.1,0,0.3,0,0.5v3.1h-1V226.7z"/>
	<path d="M302.6,222.7c0.5-0.1,1.3-0.2,2-0.2c1.1,0,1.8,0.2,2.3,0.7c0.4,0.4,0.6,0.9,0.6,1.5c0,1.1-0.7,1.8-1.5,2.1v0
		c0.6,0.2,1,0.8,1.2,1.6c0.3,1.1,0.5,1.9,0.6,2.2h-1.1c-0.1-0.2-0.3-0.9-0.5-1.9c-0.2-1.1-0.7-1.5-1.6-1.6h-1v3.5h-1V222.7z
		 M303.6,226.4h1.1c1.1,0,1.8-0.6,1.8-1.5c0-1-0.8-1.5-1.9-1.5c-0.5,0-0.9,0-1,0.1V226.4z"/>
	<path d="M309.6,228c0,1.4,0.9,2,2,2c0.8,0,1.2-0.1,1.6-0.3l0.2,0.8c-0.4,0.2-1,0.4-1.9,0.4c-1.8,0-2.9-1.2-2.9-2.9s1-3.1,2.7-3.1
		c1.9,0,2.4,1.7,2.4,2.7c0,0.2,0,0.4,0,0.5H309.6z M312.7,227.2c0-0.7-0.3-1.7-1.5-1.7c-1.1,0-1.5,1-1.6,1.7H312.7z"/>
	<path d="M315,222.2h1.1v8.5H315V222.2z"/>
	<path d="M318.5,228c0,1.4,0.9,2,2,2c0.8,0,1.2-0.1,1.6-0.3l0.2,0.8c-0.4,0.2-1,0.4-1.9,0.4c-1.8,0-2.9-1.2-2.9-2.9s1-3.1,2.7-3.1
		c1.9,0,2.4,1.7,2.4,2.7c0,0.2,0,0.4,0,0.5H318.5z M321.6,227.2c0-0.7-0.3-1.7-1.5-1.7c-1.1,0-1.5,1-1.6,1.7H321.6z"/>
	<path d="M327.1,230.7L327,230h0c-0.3,0.5-0.9,0.9-1.8,0.9c-1.2,0-1.8-0.8-1.8-1.7c0-1.4,1.2-2.2,3.5-2.2v-0.1
		c0-0.5-0.1-1.3-1.3-1.3c-0.5,0-1.1,0.2-1.5,0.4l-0.2-0.7c0.5-0.3,1.2-0.5,1.9-0.5c1.8,0,2.2,1.2,2.2,2.4v2.2c0,0.5,0,1,0.1,1.4
		H327.1z M326.9,227.7c-1.2,0-2.5,0.2-2.5,1.3c0,0.7,0.5,1,1,1c0.8,0,1.2-0.5,1.4-1c0-0.1,0.1-0.2,0.1-0.3V227.7z"/>
	<path d="M329.5,229.6c0.3,0.2,0.9,0.4,1.4,0.4c0.8,0,1.1-0.4,1.1-0.9c0-0.5-0.3-0.8-1.1-1.1c-1-0.4-1.5-0.9-1.5-1.6
		c0-0.9,0.8-1.7,2-1.7c0.6,0,1.1,0.2,1.4,0.4l-0.3,0.8c-0.2-0.1-0.6-0.3-1.2-0.3c-0.6,0-1,0.4-1,0.8c0,0.5,0.3,0.7,1.1,1
		c1,0.4,1.5,0.9,1.5,1.8c0,1-0.8,1.7-2.2,1.7c-0.6,0-1.2-0.2-1.6-0.4L329.5,229.6z"/>
	<path d="M335,228c0,1.4,0.9,2,2,2c0.8,0,1.2-0.1,1.6-0.3l0.2,0.8c-0.4,0.2-1,0.4-1.9,0.4c-1.8,0-2.9-1.2-2.9-2.9s1-3.1,2.7-3.1
		c1.9,0,2.4,1.7,2.4,2.7c0,0.2,0,0.4,0,0.5H335z M338.1,227.2c0-0.7-0.3-1.7-1.5-1.7c-1.1,0-1.5,1-1.6,1.7H338.1z"/>
	<path d="M343,222.7c0.5-0.1,1.2-0.2,1.9-0.2c1,0,1.7,0.2,2.2,0.6c0.4,0.3,0.7,0.8,0.7,1.4c0,0.8-0.5,1.5-1.4,1.8v0
		c0.8,0.2,1.7,0.8,1.7,2c0,0.7-0.3,1.2-0.7,1.6c-0.6,0.5-1.5,0.8-2.8,0.8c-0.7,0-1.3,0-1.6-0.1V222.7z M344.1,226h0.9
		c1.1,0,1.8-0.6,1.8-1.4c0-0.9-0.7-1.3-1.8-1.3c-0.5,0-0.8,0-0.9,0.1V226z M344.1,229.9c0.2,0,0.5,0,0.9,0c1.1,0,2.1-0.4,2.1-1.6
		c0-1.1-0.9-1.6-2.1-1.6h-0.9V229.9z"/>
	<path d="M354.3,229.1c0,0.6,0,1.1,0,1.6h-0.9l-0.1-0.9h0c-0.3,0.5-0.9,1.1-1.9,1.1c-0.9,0-2-0.5-2-2.5v-3.4h1.1v3.2
		c0,1.1,0.3,1.8,1.3,1.8c0.7,0,1.2-0.5,1.4-1c0.1-0.2,0.1-0.3,0.1-0.5v-3.6h1.1V229.1z"/>
	<path d="M357.4,223.2v1.7h1.5v0.8h-1.5v3.1c0,0.7,0.2,1.1,0.8,1.1c0.3,0,0.5,0,0.6-0.1l0,0.8c-0.2,0.1-0.5,0.1-0.9,0.1
		c-0.5,0-0.9-0.2-1.1-0.4c-0.3-0.3-0.4-0.8-0.4-1.5v-3.2h-0.9v-0.8h0.9v-1.4L357.4,223.2z"/>
	<path d="M361.3,223.2v1.7h1.5v0.8h-1.5v3.1c0,0.7,0.2,1.1,0.8,1.1c0.3,0,0.5,0,0.6-0.1l0,0.8c-0.2,0.1-0.5,0.1-0.9,0.1
		c-0.5,0-0.9-0.2-1.1-0.4c-0.3-0.3-0.4-0.8-0.4-1.5v-3.2h-0.9v-0.8h0.9v-1.4L361.3,223.2z"/>
	<path d="M369.2,227.7c0,2.1-1.5,3.1-2.9,3.1c-1.6,0-2.8-1.2-2.8-3c0-1.9,1.3-3.1,2.9-3.1C368.1,224.7,369.2,226,369.2,227.7z
		 M364.6,227.8c0,1.3,0.7,2.2,1.8,2.2c1,0,1.8-0.9,1.8-2.3c0-1-0.5-2.2-1.7-2.2C365.1,225.5,364.6,226.7,364.6,227.8z"/>
	<path d="M370.5,226.5c0-0.6,0-1.1,0-1.6h0.9l0.1,1h0c0.3-0.6,1-1.1,1.9-1.1c0.8,0,2.1,0.5,2.1,2.5v3.5h-1.1v-3.3
		c0-0.9-0.3-1.7-1.3-1.7c-0.7,0-1.2,0.5-1.4,1.1c0,0.1-0.1,0.3-0.1,0.5v3.5h-1.1V226.5z"/>
</g>
<line class="st1" x1="170.8" y1="107.3" x2="130.1" y2="66.6"/>
<line class="st1" x1="170.8" y1="117.7" x2="160.1" y2="180.2"/>
<line class="st1" x1="273.5" y1="167.5" x2="299.9" y2="218.2"/>
<line class="st1" x1="387.5" y1="112.3" x2="417" y2="159.2"/>
<line class="st1" x1="317.5" y1="152.2" x2="417" y2="159.2"/>
<line class="st1" x1="277.9" y1="134.9" x2="268.7" y2="100.7"/>
</svg>
