<?xml version="1.0" encoding="utf-8"?>
<!-- Generator: Adobe Illustrator 21.0.0, SVG Export Plug-In . SVG Version: 6.00 Build 0)  -->
<svg version="1.1" id="Layer_1" xmlns="http://www.w3.org/2000/svg" xmlns:xlink="http://www.w3.org/1999/xlink" x="0px" y="0px"
	 viewBox="0 0 520 395" style="enable-background:new 0 0 520 395;" xml:space="preserve">
<style type="text/css">
	
		.st0{fill:none;stroke:#000000;stroke-width:0.51;stroke-linecap:round;stroke-linejoin:round;stroke-miterlimit:10;stroke-dasharray:43.2,3.6,3.6,3.6;stroke-dashoffset:3;}
	.st1{fill:none;stroke:#000000;stroke-width:0.709;stroke-linecap:round;stroke-linejoin:round;stroke-miterlimit:10;}
</style>
<line class="st0" x1="221.4" y1="288.2" x2="221.4" y2="377.9"/>
<line class="st0" x1="165.7" y1="256" x2="165.7" y2="345.7"/>
<line class="st0" x1="333.6" y1="203.6" x2="333.6" y2="293.3"/>
<line class="st0" x1="291.2" y1="179" x2="291.2" y2="268.8"/>
<path class="st1" d="M363.3,285.6l-0.7,0.4 M288.4,239.3L288.4,239.3L288.4,239.3v-0.2 M288.4,239.1V239v-0.1l0.1-0.1l0.1-0.1
	l0.1-0.1h0.1h0.1 M247.8,49.7l-2.2-2.7l-1.9-2.8l-1.4-3l-1-3l-0.5-3l-0.1-3l0.4-2.9l0.9-2.7l0.5-1.2 M253.6,13.6l0.3-0.1l2-0.8
	l2.1-0.4l2.3,0.1l2.5,0.5l2.5,0.8l2.5,1.3 M286.2,95.6L286.2,95.6l-0.1-0.1l-0.1-0.2l-0.1-0.2v-0.2 M285.5,94.3v0.2l0.1,0.2l0.2,0.1
	l0.1,0.1 M285.9,88l-0.1-0.1l-0.2-0.2l-0.1-0.1v-0.2 M282,13.6l-2-0.8l-2.2-0.5l-2.3,0.1l-2.5,0.4l-2.6,0.9l-2.6,1.3 M346.1,60.2
	l2.6-1.3l2.6-0.9l2.5-0.4h2.3l2.2,0.4l2,0.8 M373.1,74.8h0.1v1.1l-0.4,1.3l-0.8,1.3l-1.3,1.4l-1.7,1.5l-2.1,1.5l-2.5,1.5
	 M168.2,297.3L168.2,297.3l-0.1-0.2V297 M152.6,311.9L152.6,311.9 M152.6,311.9L152.6,311.9 M152.5,312.1L152.5,312.1 M168.2,297.3
	l-3.4,5.8 M177.4,298.9l-4-2.3 M178.6,299h-0.1h-0.1 M167.9,305.2v-0.1h0.1V305h0.1h0.1 M168.7,304.8L168.7,304.8L168.7,304.8
	L168.7,304.8 M208.7,327.9v0.2l-0.1,0.2 M208.7,327.9v0.5 M218.3,336.9v-14.5 M224.3,325.4l-0.4-0.2 M174,296.4l-0.3-0.2
	 M224.8,353.6l-0.2-0.1l-0.3-0.1 M224.1,353.2l0.7,0.4 M234.4,348l-15.1-8.7 M218.7,322.8v15.1 M219.1,338.7l14.9,8.6 M208.6,328.4
	L208.6,328.4h-0.1l-0.1,0.1v0.1 M213.5,331.2L213.5,331.2h-0.1l-0.1,0.1l-0.1,0.1 M229.3,332.1v-0.3v-0.3 M218.9,338.1L218.9,338.1
	L218.9,338.1l-0.1,0.1h-0.1l-0.1,0.1 M224.1,353.2L224.1,353.2H224l-0.1,0.1h-0.1 M288.5,163.4l0.4-0.2 M288.1,161.7l0.8-0.3
	 M288.1,159.9l0.8-0.3 M288.1,158l0.8-0.3 M288.1,156.2l0.8-0.3 M288.1,154.4l0.8-0.3 M288.1,152.6l0.8-0.3 M288.1,150.8l0.8-0.3
	 M288.1,148.9l0.8-0.3 M288.1,147.1l0.8-0.3 M288.1,145.3l0.8-0.3 M294.1,143.3l-0.8-0.5 M293.2,142.8l-0.7,0.4l-1,0.2 M218.7,272.4
	l0.4-0.1 M218.4,270.7l0.7-0.2 M218.4,268.9l0.7-0.3 M218.4,267l0.7-0.2 M218.4,265.2l0.7-0.2 M218.4,263.4l0.7-0.2 M218.4,261.6
	l0.7-0.3 M218.4,259.7l0.7-0.2 M218.4,257.9l0.7-0.2 M218.4,256.1l0.7-0.2 M218.4,254.3l0.7-0.2 M224.3,252.5l-0.9-0.5 M223.4,252
	L223.4,252l-0.9,0.4l-1,0.1 M162.5,129.3l0.7-0.4l1.1-0.3h1.3l1.3,0.2l1.3,0.5l1.4,0.7 M159.6,147.3l-1.6-2.1l-1.1-2.3l-0.6-2.3
	l-0.1-2.3l0.4-2.2l0.7-1.7 M169.6,130l2-1l1.8-0.4l1.8,0.1l1.5,0.6 M217.3,157.5l2-0.9l1.9-0.4l1.7,0.1l1.5,0.5 M226.3,169.1
	l1.8-1.1l1.4-1.1l0.9-1l0.4-0.9l-0.1-0.5 M256.6,208.7v-3.2 M253.6,206.9l-0.1-0.1l-0.2-0.1l-0.1-0.2l-0.1-0.1l-0.1-0.2l-0.1-0.2
	v-0.2v-0.2 M253.6,206.9l3.2,1.8 M241.6,213.9l12-7 M237.8,203.2l-2,1.9 M250.2,197.5v-0.1l2.7,0.1 M240.8,212.6l12.1-7
	 M252.9,205.6V201 M252.9,201v-3.5 M252.9,197.5l-3,0.9l-3.1,1.5l-3,2.1l-3,2.5 M241.6,213.9l5.3,3 M241.6,213.9l-0.2-0.1l-0.1-0.2
	l-0.1-0.1l-0.1-0.2l-0.1-0.2l-0.1-0.2l-0.1-0.1v-0.2 M240.8,212.6v-4.7 M240.8,204.5v3.4 M235.8,205.1l2.4-0.7l2.6,0.1 M235.8,205.1
	l2.5,1.4 M238.3,211.1v-4.6 M239.9,215.2l-0.1-0.1l-0.5-0.8l-0.4-0.8l-0.3-0.8l-0.2-0.8l-0.1-0.8 M237.4,221.8L237.4,221.8l0.2,1.6
	l0.5,1.6l0.8,1.5l1,1.5l1.4,1.4l1.6,1.3l1.8,1.2 M269.7,204.4l-1.8-0.3l-2.8-0.3l-2.7-0.1l-2.8,0.1 M259.6,203.8l-3,1.7
	 M259.5,207.2l-2.9-1.7 M245.6,217.7l6-3.4 M240.6,214.8l5,2.9 M240.6,214.8l-3,1.7 M237.6,216.5l-0.2,1.6l0.2,1.6l0.5,1.6l0.8,1.5
	l1,1.5l1.4,1.4l1.6,1.3l1.8,1.2 M295.1,232.4l-1.3-0.6l-1.5-0.3l-1.6-0.1l-1.6,0.2l-1.4,0.5l-0.6,0.3 M293.6,251.7v2.4 M293.8,221.8
	v3.6 M335.4,256.1l-0.6-0.1h-1.6l-1.6,0.2l-1.4,0.4l-0.6,0.3 M310.5,261.5v2.3 M334.1,249.7l-34.5-19.9 M299.6,234.7v0.3l-0.4,1.2
	l-0.8,1.1l-1.3,0.9l-1.6,0.7l-1.7,0.5 M282.6,232.9L282.6,232.9 M308.5,265l2-1.2 M267.8,241.5l4-2.3 M291.6,255.2l2-1.1
	 M380.9,279.9L380.9,279.9l0.4-0.3l0.3-0.5l0.2-0.6v-0.7 M287.1,232.4l1.3,0.6l1.5,0.3h1.6l1.6-0.2l1.4-0.4l1.1-0.7l0.8-0.8l0.4-0.9
	l-0.2-0.9l-0.5-0.9l-1-0.7l-1.3-0.6l-1.5-0.3l-1.6-0.1l-1.6,0.2l-1.4,0.5l-1.1,0.6l-0.8,0.8l-0.3,0.9l0.1,1l0.5,0.8L287.1,232.4
	 M286.8,225.8l1.9-0.4l2-0.2l2,0.1l2,0.3l1.7,0.6l1.4,0.9l1.1,1l0.6,1.1l0.1,1.2l-0.4,1.2l-0.8,1l-1.3,1l-1.6,0.7l-1.8,0.5l-2,0.2
	l-2.1-0.1l-1.9-0.3l-1.8-0.6l-1.4-0.9l-1.1-1l-0.6-1.1l-0.2-1.1l0.3-1.2l0.9-1.1 M293.8,221.8l-7,4 M336.3,246.3l-42.5-24.5
	 M335.4,259.4l-1.4,0.1l-2-0.1l-2-0.3l-1.7-0.7l-1.4-0.8l-1.1-1l-0.6-1.1l-0.1-1.2l0.4-1.2l0.8-1l1.3-1l1.6-0.7l1.8-0.5l2-0.2
	l2.1,0.1h0.3 M332.7,261.8l2.7-1.5 M283.8,227.6l-5.2,3 M280.8,203.9l-0.9,0.5 M251.7,225.3l-4-2.3 M247.7,223l-2,1.1 M334.7,263
	l0.7-0.4 M282.4,204.8l-1.6-0.9 M335.4,251.5l-0.6-0.1l-1.6-0.1l-1.6,0.2l-1.4,0.5l-1.1,0.7l-0.8,0.8l-0.4,0.9l0.2,0.9l0.5,0.9
	l1,0.7 M329.6,256.9l1.3,0.6l1.5,0.3l1.6,0.1l1.4-0.2 M345.9,280.4v3.9 M343.9,280.8l1.1-0.6 M244.7,231.9l100.2,57.8 M343.9,280.8
	v4.6 M321.9,268.1l22,12.7 M321.9,268.1v4.6 M308.5,265l13.4,7.7 M308.5,260.4v4.6 M298.1,254.4l10.4,6 M298.1,254.4v4.6
	 M291.6,255.2l6.5,3.8 M291.6,250.6v4.6 M281.1,244.6l10.5,6 M281.1,244.6v4.6 M267.8,241.5l13.3,7.7 M267.8,236.9v4.6 M245.7,224.1
	l22.1,12.8 M245.7,224.1v4.7 M244.7,228.2l1,0.6 M244.7,228.2v3.7 M363.3,284.4l-1.8,1 M381.8,276.6l3.8-2.1 M385.6,270.7v3.8
	 M353.5,293l8-4.7 M344.9,289.7l1,0.5l0.9,0.5l1.1,0.5l1,0.4l1.1,0.4l1.2,0.4l1.1,0.3l1.2,0.3 M353.5,289.3v3.7 M344.9,286v3.7
	 M343.9,285.4l2-1.1 M343.9,285.4l1,0.6 M344.9,286l1,0.5l0.9,0.5l1.1,0.5l1,0.4l1.1,0.4l1.2,0.4l1.1,0.3l1.2,0.3 M381.8,272.9
	l3.8-2.2 M353.5,289.3l9.8-5.7 M385.6,270.7l-0.5-0.6l-0.6-0.7l-0.6-0.7l-0.1-0.1 M365.8,287l16-9.2 M381.8,277.8v-7 M361.5,285.4
	v2.9 M362.6,288.9l-1.1-0.6 M362.6,288.9l0.6,0.3l0.6,0.1h0.6l0.5-0.2l0.4-0.3l0.3-0.5l0.1-0.6l0.1-0.7 M365.8,287v-10.4
	 M365.8,276.6l2,1.2 M363.3,275.2v-8.1 M363.3,285.6v-10.4 M362.6,286l0.1,0.1h0.1h0.2h0.1l0.1-0.1v-0.1l0.1-0.2v-0.1 M362.6,286
	l-1.1-0.6 M367.8,277.8l3.6-1l3.3-1.3l3.5-1.8l3-2.2l2.6-3 M383.8,268.5l-0.7-3l-1-2.8l-1.2-2.6l-1.6-2.3 M363.3,267.1l3.9-3.7
	l4.1-2.9l4.1-1.9l3.9-0.8 M367.8,277.8l-0.7-3.1l-1-2.8l-1.3-2.5l-1.5-2.3 M295.8,210.5v1.1 M293.1,200.7l-1,1.5 M250.7,221.2v1
	l0.5,2l1,1.9l1.4,1.8l1.9,1.7l2.2,1.5 M285.4,216.9l2-1.1 M257.7,231.1l4,2.3 M257.7,227.8v3.3 M261.7,233.4l1-0.6 M263.7,229v1.1
	 M261.7,230.1v3.3 M293.9,201.2l-6.3,3.6 M293.3,200.6l1,0.6 M293.3,200.6l-0.2,0.1 M293.1,200.7l0.8,0.5 M288,215.2l-0.2,0.3
	l-0.4,0.3 M287.4,215.8l0.1-0.2 M285.4,216.9l-0.3,0.2l-0.7-0.1l-0.7-0.2l-0.7-0.6l-0.3-0.5l-0.1-0.4l0.1-0.6l0.2-0.3 M285.5,216.8
	l-0.1,0.1 M281.8,208.4h0.3l0.2,0.1l0.3,0.2l0.2,0.3l0.4,0.8l0.3,0.8l0.1,2.1l-0.6,1.5l-0.1,0.2 M282.9,214.4l0.5-0.7 M287.6,204.8
	l-6,3.5 M281.6,208.3l0.3-0.1l0.3,0.1l0.3,0.2l0.3,0.3l0.4,0.8l0.3,0.8l0.3,1.8l-0.4,1.5 M283.4,213.7l-0.4,0.8l-0.3,0.6v0.3
	l0.1,0.4l0.4,0.4l0.7,0.5l0.8,0.3l0.6-0.1l0.2-0.1 M287.5,215.6l-2,1.2 M287.5,215.6l0.5-0.3l0.5-0.8l0.2-0.9v-1.1v-0.4v-0.4
	l0.5-1.1l0.2-0.4 M287.6,204.8l0.3-0.1l0.3,0.1l0.3,0.2l0.3,0.3l0.4,0.8l0.3,0.8l0.3,1.9l-0.4,1.4 M274.3,211.6l-8,12 M266.3,223.6
	v0.5 M281.6,208.3l0.2,0.1 M281.6,208.3l-6.3,3.6 M275.3,211.9l-0.8-0.5 M274.5,211.4l-0.2,0.2 M275.3,212.1l-1-0.5 M293.8,221.8
	l-15.2,8.8 M294.3,201.2v17.1 M294.3,201.2l-6.3,3.6 M281.8,208.4l-6.5,3.7 M275.3,212.1v17.2 M367,251.5v1.2 M336.3,246.3
	l-42.5-24.5 M293.8,218.6v3.2 M315.2,253.8L315.2,253.8L315.2,253.8H315l-0.1,0.1l-0.1,0.1v0.1l-0.1,0.1v0.2 M314.7,254.4
	L314.7,254.4l0.1,0.1 M316.7,257.5L316.7,257.5v0.1h0.1 M354.4,235.9l-6.5,3.7 M355.4,236.4l-1-0.5 M355.4,236.4l8,21.2
	 M355.2,236.6l0.2-0.2 M363.1,257.4l-7.9-20.8 M355.2,236.6l-0.8-0.5 M341.9,243.1l-0.3-0.3l-0.2-0.2l-0.3-0.1l-0.2,0.1l-0.4,0.3
	l-0.3,0.5v0.7 M342.1,243.2l-0.3-0.4l-0.3-0.3l-0.3-0.1h-0.3l-0.4,0.3l-0.3,0.4l-0.2,1.1 M348.1,239.7l-0.3-0.4l-0.3-0.2l-0.3-0.2
	H347l-0.3,0.2 M344.6,268.7v0.4 M262.7,234l70.2,40.5 M262.7,230.7v3.3 M332.9,274.5l1-0.6 M334.9,270.1v1.1 M332.9,271.2v3.3
	 M354.4,236.1v17.1 M354.4,236.1l-6.3,3.6 M348.1,239.7l-6,3.5 M335.8,246.9l0.8,0.4 M342.1,243.2l-6.3,3.7 M342.1,243.2l-0.2-0.1
	 M341.9,243.1l-6.5,3.8 M333.9,275l4,2.3 M333.9,271.8v3.2 M359.2,259.8l0.9,0.3l1.1,0.1l1-0.1l1-0.3l0.6-0.6l0.2-0.6l-0.2-0.6
	l-0.6-0.6l-1-0.3l-1-0.1l-1.1,0.1l-0.9,0.3l-0.7,0.6l-0.2,0.6l0.2,0.6L359.2,259.8 M353.1,260.9v7 M369.2,260.9v1.1 M361.2,265.5v7
	 M359.1,257.5l-6,3.4 M361.2,256.3l-2,1.1 M353.1,260.9l8.1,4.6 M361.2,265.5l8-4.6 M363.1,257.4l-1.9-1.1 M369.2,260.9l-6-3.4
	 M358.3,260.9l0.2,0.6l0.7,0.6 M359.2,262.1l0.9,0.3l1.1,0.2l1-0.2l1-0.3l0.6-0.6l0.2-0.6 M344.6,268.7l-0.2,0.1 M336.6,247.3
	l8,21.4 M336.4,247.4l0.2-0.1 M344.4,268.8v0.4 M344.4,268.8l-8-21.4 M335.4,246.9l1,0.5 M335.4,246.9V264 M337.9,277.3l2.6,1.3
	l2.9,1.1l3.1,0.8l3.3,0.6l3.4,0.3h3.5l3.4-0.3l3.2-0.5 M337.9,274.1v3.2 M286.1,239.8L286.1,239.8l0.1,0.1l0.1,0.1 M286.3,240
	l0.1,0.1h0.2h0.1l0.2-0.1l0.1-0.1v-0.1 M339.1,244.7l-45.3-26.1 M360.5,256.7l-6.1-3.5 M354.4,253.2l-12.8,7.4 M344.4,269.2l0.2-0.1
	 M335.4,264l9,5.2 M275.8,229l59.6,34.4 M275.8,229l-0.5,0.3 M275.3,229.3l-9-5.2 M294.3,218.3l-0.5,0.3 M286,205.7l-2.8-0.7
	l-3.3-0.6l-3.4-0.3h-3.4l-3.5,0.3l-3.2,0.6l-3.2,0.8l-2.9,1.1l-2.6,1.3l-2.2,1.5l-1.9,1.6l-1.4,1.8l-1,1.9l-0.5,2v2l0.5,1.9l1,1.9
	l1.4,1.9l1.9,1.6l2.2,1.5 M257.7,227.8l4,2.3 M261.7,230.1l2-1.1 M263.7,229l1,0.6 M264.7,229.6l-2,1.1 M262.7,230.7l70.2,40.5
	 M332.9,271.2l2-1.1 M334.9,270.1l1,0.5 M335.9,270.6l-2,1.2 M333.9,271.8l4,2.3 M376.7,258.3l-0.6-0.7l-1.9-1.7l-2.2-1.5
	 M337.9,274.1l2.6,1.3l2.9,1.1l3.1,0.8l3.3,0.6l3.4,0.2h3.5l3.4-0.2l3.2-0.6 M372,254.4l-4-2.3 M368,252.1l-2,1.2 M366,253.3l-1-0.6
	 M365,252.7l2-1.2 M346,239.4L296.8,211 M367,251.5l-7.5-4.3 M296.8,211l-2,1.2 M294.8,212.2l-0.5-0.3 M294.3,211.3l1.5-0.8
	 M295.8,210.5l-1.5-0.9 M353.1,267.9l8.1,4.6 M361.2,272.5l2.1-1.2 M316.8,257.6l0.1,0.1h0.2h0.2l0.1-0.1h0.1v-0.1v-0.1l-0.1-0.1
	 M238.8,67.7l-2.5-1.6l-2.2-1.8l-1.8-1.9l-1.5-1.9l-1-2.1l-0.6-2l-0.1-2.1l0.2-2.1l0.7-1.9l0.2-0.3 M285.9,94.9V88 M285.9,94.9
	l0.2,0.1l0.3,0.1h0.3l0.2,0.1l0.3-0.1h0.3l0.2-0.1l0.2-0.1 M287.9,88l-0.2,0.1l-0.2,0.1h-0.3h-0.3h-0.2h-0.3l-0.3-0.1l-0.2-0.1
	 M285.9,88v-0.3l0.1-0.2l0.1-0.3l0.1-0.2l0.2-0.2l0.1-0.3l0.2-0.1l0.2-0.2 M360.2,116.2l1.7-0.3l3.6-0.8l3.2-1.1l2.9-1.4
	 M380.8,106.3l-2.6-1.5 M365.2,97.6v4.9 M365.2,102.5l10.9,6.3 M287.3,95.7l47.8,27.6 M238.8,67.7l46.8,27 M286.2,86.2l0.2-0.1h0.1
	h0.2l0.2,0.1 M286.9,86.2l0.2,0.2l0.2,0.1l0.2,0.3l0.1,0.2l0.2,0.2l0.1,0.3v0.2V88 M287.9,94.9V88 M287.9,94.9v0.2v0.2l-0.1,0.2
	l-0.2,0.1 M247.8,49.7l-9,18 M371.6,112.6l2.4-1.7l1.9-1.9l1.5-2l0.8-2.2 M376.3,92.2l-1.6,0.4l-1.9,0.8l-2.3,1.1l-2.5,1.3
	 M380.8,106.3l-4.5-14.1 M373.8,113.8l2.4-1.6l2-1.8l1.6-2l1-2.1 M384.4,110.2l0.3,1.3l0.2,2.1l-0.3,2l-0.7,2l-1.1,1.9l-1.5,1.8
	l-1.9,1.6l-2.3,1.5 M326.1,95l-78.3-45.3 M267.8,15l78.3,45.2 M267.8,15l-2.6,1.7l-2.6,2.1l-2.5,2.4l-2.3,2.7l-2.2,3l-2,3.1
	l-1.7,3.3l-1.4,3.3l-1.2,3.4l-0.8,3.4l-0.6,3.2l-0.1,3.1 M326.1,95l0.2-3.2l0.5-3.2l0.8-3.4l1.2-3.4l1.4-3.3l1.8-3.3l1.9-3.1l2.2-3
	l2.4-2.7l2.4-2.4l2.6-2.1l2.6-1.7 M364.4,84.4l-1.2-3.3l-1.5-3.2l-1.7-3.2l-1.9-3l-2.2-2.9l-2.3-2.6l-2.4-2.3l-2.5-2l-2.6-1.7
	 M368,95.8l-2.7,1.7l-2.9,1.9l-3,2.1l-3.1,2.2 M364.4,84.4l3.6,11.4 M364.4,84.4l-2.8,1.5l-3,1.5l-3.3,1.4l-3.4,1.3l-3.5,1.2l-3.5,1
	l-3.5,0.9l-3.5,0.7l-3.3,0.6l-3.1,0.3l-2.9,0.2h-2.5 M335.1,123.3l-9-28.3 M377.1,124.4l-2.5,1.3l-2.9,1.1l-3.1,0.9l-3.3,0.6
	l-3.5,0.5l-3.5,0.1l-3.6-0.1l-3.6-0.3l-3.5-0.6l-3.4-0.8l-3.3-1.1l-3-1.2l-2.8-1.5 M373.8,113.8l3.3,10.6 M360.8,117.9l3.6-0.6
	l3.4-0.9l3.1-1.2l2.9-1.4 M356.3,103.7l4.5,14.2 M152.6,311.9h-0.1h-0.1l-0.1,0.1 M168.4,296.9l0.4-0.5l0.5-0.5l0.6-0.3l0.7-0.2h0.7
	l0.8,0.1l0.8,0.3l0.8,0.4 M168.1,297L168.1,297l0.1-0.1h0.1h0.1 M154.3,308.9l-0.3,0.2l-1,1.4l-0.4,1.4 M173.4,296.6l-0.8-0.4
	l-0.8-0.3l-0.8-0.1h-0.7l-0.6,0.2l-0.6,0.3l-0.5,0.4l-0.4,0.6 M173.4,296.6v-0.1v-0.1l0.1-0.1v-0.1h0.1h0.1 M154.3,321.2l-1.6-1.1
	l-1.2-1.2l-0.8-1.3l-0.4-1.4l0.1-1.3l0.5-1.1 M157.7,303.1l-5.2,9 M152.3,312v0.2h0.1l0.1-0.1 M152.3,312l0.5-1.5l1-1.3l0.7-0.6
	 M157.7,303.1L157.7,303.1V303 M163,302.4l-0.8-0.4l-0.8-0.3l-0.8-0.1h-0.7l-0.7,0.2l-0.6,0.3l-0.5,0.4l-0.4,0.6 M157.7,303.1
	l-0.1,1l0.1,1l0.1,0.9l0.3,1l0.4,1l0.5,1l0.6,0.9l0.7,0.9 M163,302.4l0.1-0.1l0.1-0.1h0.1 M168.6,304.8l0.5-0.8l0.6-0.7l0.6-0.6
	l0.6-0.6l0.6-0.6l0.6-0.5l0.7-0.5l0.6-0.4 M154.3,321.2l27.6,16 M160.3,310.8l-6,10.4 M181.9,337.2l0.5-0.3 M181.9,323.3v13.9
	 M182.4,336.9l6.6,3.8 M182.4,319.8v17.1 M218.7,322.8v-0.1h-0.1l-0.1-0.1l-0.1-0.1l-0.1-0.1 M234,347.3l0.1,0.2l0.1,0.2l0.1,0.2
	l0.1,0.1 M222.8,348.3h-0.4 M219.1,322.4H219h-0.1l-0.1,0.1v0.1l-0.1,0.1v0.1 M218.3,322L218.3,322v0.1l0.1,0.1v0.1h-0.1v0.1
	 M234.7,348.2L234.7,348.2l-0.2-0.2h-0.1 M223.9,325.2L223.9,325.2L223.9,325.2l-0.2,0.1v0.1h-0.1v0.1v0.1 M223.9,325.2l0.9,0.5
	l0.8,0.7l0.7,0.8l0.8,0.8l0.6,1l0.6,1l0.6,1l0.4,1.1 M218.3,322.4l-0.5-0.2h-0.6h-0.5l-0.6,0.1l-0.7,0.1l-0.6,0.2l-0.6,0.3l-0.7,0.3
	 M213.3,322.9L213.3,322.9l0.1,0.1h0.1v0.1v0.1 M208.7,327.9L208.7,327.9L208.7,327.9l-0.1-0.1h-0.1l-0.1-0.1 M213.5,323.2l-0.6,0.4
	l-0.7,0.5l-0.6,0.5l-0.6,0.6l-0.6,0.6l-0.6,0.7l-0.6,0.7l-0.5,0.7 M178.6,299.1L178.6,299.1V299 M178.6,299.1L178,299l-0.5-0.1h-0.6
	l-0.7,0.1l-0.6,0.1l-0.6,0.2l-0.7,0.3l-0.7,0.4 M213.3,322.9l0.7-0.4l0.6-0.2l0.7-0.3l0.6-0.1l0.6-0.1h0.6l0.6,0.1l0.6,0.1
	 M219.1,322.4H219l-0.1-0.1l-0.2-0.1l-0.3-0.1l-0.1-0.1 M219.1,322.4l4.8,2.8 M173.7,296.2l4.9,2.8 M229.3,332.1L229.3,332.1
	l-0.1,0.1h-0.1l-0.1,0.1h-0.1h-0.1 M234.5,347.1L234.5,347.1l-0.1,0.1l-0.1,0.1h-0.1h-0.1H234 M222.4,348.4l0.5-0.1l1.2-0.4l0.9-0.6
	l0.5-0.8l0.1-0.8l-0.4-0.7l-0.9-0.7 M224.3,344.3l-1.1-0.5l-1.3-0.2h-1.1 M231.4,351.9l1.5-1.1l1-1.3l0.5-1.5 M224.8,353.6
	L224.8,353.6L224.8,353.6v0.2v0.1 M231.4,351.9h0.1v0.1h0.1v0.1 M224.8,353.6l2.5-0.3l2.2-0.6l1.9-0.8 M234,347.3l-5.2-15
	 M228.8,332.3l-0.4-1l-0.5-1.1l-0.6-0.9l-0.6-1l-0.8-0.8l-0.7-0.8l-0.8-0.6l-0.8-0.5 M223.6,325.6l-4.9-2.8 M189,341.2v-13.9
	 M189,341.2l27.6,16 M189,327.3v-0.4v-0.4v-0.4l0.1-0.5l0.1-0.4v-0.5l0.1-0.4l0.2-0.5 M210.6,339.8L189,327.3 M213.2,331.4l-4.8-2.8
	 M208.4,327.7l-0.1,0.2l-0.1,0.3v0.2l0.1,0.1l0.1,0.1 M208.4,327.7l0.5-0.8l0.6-0.7l0.6-0.7l0.6-0.6l0.6-0.6l0.7-0.5l0.7-0.5
	l0.6-0.4 M173.6,300l39.7,22.9 M173.6,300l-0.6,0.4l-0.7,0.5l-0.6,0.5L171,302l-0.6,0.6l-0.6,0.7l-0.6,0.7l-0.5,0.8 M167.9,305.2
	L167.9,305.2h0.2h0.2l0.2-0.2l0.2-0.2 M167.9,305.2l-4.9-2.8 M163,302.4l-0.6,1l-0.5,1.1l-0.5,1.1l-0.4,1l-0.3,1.1l-0.2,1.1l-0.1,1
	l-0.1,1 M181.9,323.3l-21.6-12.5 M182.4,319.8l-0.1,0.4l-0.1,0.5l-0.1,0.4v0.5L182,322v0.5v0.4l-0.1,0.4 M189.5,323.8l-7.1-4
	 M213.6,331.4l0.8,0.5l0.8,0.6l0.7,0.8l0.7,0.8l0.7,0.9l0.6,1l0.5,1l0.4,1.1 M213.6,331.4v-0.1l-0.1-0.1 M234.7,348.2V348l-0.1-0.3
	v-0.3l-0.1-0.3 M234.7,348.2l-0.5,1.4l-1,1.4l-1.6,1.1 M236.4,351.9l0.2,1l-0.1,1.4l-0.6,1.3l-0.9,1.1l-1.4,1 M229.3,332.1l5.2,15
	 M218.8,338.1L218.8,338.1L218.8,338.1 M224.1,353.1L224.1,353.1 M218.6,338.3l-0.4-1.1l-0.5-1l-0.6-1l-0.7-1l-0.8-0.8l-0.7-0.8
	l-0.8-0.7l-0.9-0.5 M213.2,331.4l-0.6,1l-0.5,1.1l-0.5,1l-0.3,1.1l-0.3,1.1l-0.3,1.1l-0.1,1v1 M231.6,352.1l2,5.6 M231.6,352.1
	l-2,0.9l-2.3,0.6l-2.5,0.3 M223.8,353.3v0.1l0.1,0.1l0.3,0.2l0.3,0.1l0.3,0.1 M223.8,353.3l-5.2-15 M210.6,339.8h0.8l0.8-0.1l1-0.1
	l1-0.2l1-0.2l1.1-0.3l1.2-0.3l1.1-0.3 M216.6,357.2l-6-17.4 M233.6,357.7l-1.8,0.8l-2,0.6l-2.2,0.3l-2.3,0.1l-2.4-0.2l-2.3-0.5
	l-2.1-0.7l-1.9-0.9 M293.8,163.8l-0.3,0.5l-0.7,0.5l-0.8,0.4l-1,0.1h-0.8l-0.7-0.1l-0.5-0.3l-0.1-0.2 M289.2,165l-0.1,0.3l0.2,0.3
	l0.4,0.2l0.6,0.2h0.6l0.8-0.1l0.6-0.2l0.6-0.4l0.4-0.4l0.2-0.6h-0.1 M290.8,168.3v0.1l0.1,0.1h0.1 M291,168.5h0.2h0.1l0.1-0.1
	l0.1-0.1 M288.5,163.4l-0.1,0.4l0.2,0.4l0.5,0.4l0.7,0.2l0.9,0.2l1-0.1l0.9-0.3l0.8-0.4l0.5-0.6l0.3-0.6v-0.2 M291.2,138l-0.1-1.4
	 M292.7,164.8v0.1l-0.6,0.5l-0.6,0.2l-0.8,0.1H290l-0.5-0.2l-0.2-0.3 M292.6,163.2l-0.5,0.3l-0.6,0.3l-0.8,0.1H290l-0.5-0.2
	l-0.2-0.3v-0.2 M292.6,161.3l-0.5,0.4l-0.6,0.3l-0.8,0.1L290,162l-0.5-0.1l-0.2-0.3v-0.2 M292.6,159.5l-0.5,0.4l-0.6,0.3l-0.8,0.1
	l-0.7-0.1l-0.5-0.2l-0.2-0.2v-0.2 M292.6,157.7l-0.5,0.4l-0.6,0.2l-0.8,0.1H290l-0.5-0.2l-0.2-0.3v-0.1 M292.6,155.9l-0.5,0.3
	l-0.6,0.3l-0.8,0.1H290l-0.5-0.2l-0.2-0.3V156 M292.6,154l-0.5,0.4l-0.6,0.3l-0.8,0.1H290l-0.5-0.2l-0.2-0.3v-0.2 M292.6,152.2
	l-0.5,0.4l-0.6,0.3l-0.8,0.1l-0.7-0.1l-0.5-0.2l-0.2-0.2v-0.2 M292.6,150.4l-0.5,0.4l-0.6,0.2l-0.8,0.2l-0.7-0.1l-0.5-0.2l-0.2-0.3
	v-0.1 M292.6,148.6l-0.5,0.4l-0.6,0.2l-0.8,0.1H290l-0.5-0.2l-0.2-0.3v-0.1 M292.6,146.8l-0.5,0.3l-0.6,0.3l-0.8,0.1H290l-0.5-0.2
	l-0.2-0.3v-0.2 M291,138.6l-0.2-1.1 M292.1,138.7l0.2-1 M289,139.2v-1 M290.3,139.2l-0.1-1.1 M292.4,139.4l0.1-1.1 M287.9,139
	l-0.4-1 M293.4,139.6l0.1-0.9 M289.4,143.4l0.8,0.1h0.9l0.4-0.1 M289.2,143.3v0.1l0.3,0.3l0.4,0.2l0.6,0.1h0.7l0.7-0.2l0.6-0.3
	l0.5-0.4l0.1-0.2 M292.6,144.9l-0.5,0.4l-0.6,0.3l-0.8,0.1l-0.7-0.1l-0.5-0.1l-0.2-0.3V145 M294.5,139.8l0.5-0.9 M294.1,143.1v0.4
	 M289.4,143.4l-0.9-0.4l-0.4-0.5v-0.3 M288.1,142.2v0.2l0.1,0.2l0.2,0.1l0.1,0.2l0.2,0.1l0.2,0.2l0.2,0.1l0.3,0.1 M294.1,142.9v0.4
	 M294,142.2l0.1,0.3 M293.9,143.9l0.2,0.4l0.1,0.6l-0.2,0.6l-0.5,0.5l-0.7,0.5l-0.8,0.3l-0.9,0.1h-0.9l-0.8-0.1l-0.7-0.3l-0.5-0.3
	l-0.2-0.5l0.1-0.4 M294.1,143.3l-0.2,0.5l-0.4,0.4l-0.6,0.4l-0.9,0.3l-1.1,0.2h-0.7l-0.6-0.1l-0.6-0.2l-0.5-0.2l-0.4-0.4l-0.1-0.4
	l0.1-0.5l0.4-0.3 M293.9,145.7l0.2,0.4v0.8l-0.4,0.8l-0.9,0.6l-1.1,0.4l-1.2,0.1l-1.1-0.2l-0.9-0.4l-0.4-0.5v-0.3 M288.1,145.3
	l0.4-0.5 M293.9,147.5l0.2,0.4v0.8l-0.4,0.8l-0.9,0.6l-1.1,0.4l-1.2,0.1l-1.1-0.2l-0.9-0.3l-0.4-0.6v-0.3 M288.1,147.1l0.4-0.5
	 M293.9,149.3l0.2,0.5v0.8l-0.4,0.7l-0.9,0.6l-1.1,0.4l-1.2,0.1l-1.1-0.1l-0.9-0.4l-0.4-0.6v-0.2 M288.1,148.9l0.4-0.5 M293.9,151.2
	l0.2,0.4v0.8l-0.4,0.7l-0.9,0.6l-1.1,0.4l-1.2,0.1l-1.1-0.1l-0.9-0.4l-0.4-0.5v-0.3 M288.1,150.8l0.4-0.5 M293.9,153l0.2,0.4v0.8
	l-0.4,0.8l-0.9,0.6l-1.1,0.3l-1.2,0.2l-1.1-0.2l-0.9-0.4l-0.4-0.5v-0.3 M288.1,152.6l0.4-0.5 M293.9,154.8l0.2,0.4v0.8l-0.4,0.8
	l-0.9,0.6l-1.1,0.4l-1.2,0.1l-1.1-0.2l-0.9-0.4l-0.4-0.5v-0.3 M288.1,154.4l0.4-0.5 M293.9,156.6l0.2,0.4v0.9l-0.4,0.7l-0.9,0.6
	l-1.1,0.4l-1.2,0.1l-1.1-0.2l-0.9-0.3l-0.4-0.6v-0.3 M288.1,156.2l0.4-0.5 M293.9,158.5l0.2,0.4v0.8l-0.4,0.7l-0.9,0.6l-1.1,0.4
	l-1.2,0.1l-1.1-0.1l-0.9-0.4l-0.4-0.5v-0.3 M288.1,158l0.4-0.4 M293.9,160.3l0.2,0.4v0.8l-0.4,0.8l-0.9,0.6l-1.1,0.3l-1.2,0.1
	l-1.1-0.1l-0.9-0.4l-0.4-0.5V162 M288.1,159.9l0.4-0.5 M293.9,162.1l0.2,0.4l0.1,0.3 M288.1,161.7l0.4-0.5 M294.1,161.3v0.4
	l-0.4,0.8l-0.9,0.6l-1.1,0.4l-1.2,0.1l-1.1-0.2l-0.9-0.4l-0.4-0.5v-0.3 M294.1,159.5v0.4l-0.4,0.8l-0.9,0.6l-1.1,0.3l-1.2,0.2
	l-1.1-0.2l-0.9-0.4l-0.4-0.5v-0.3 M294.1,157.7v0.4l-0.4,0.7l-0.9,0.7l-1.1,0.3l-1.2,0.1l-1.1-0.1l-0.9-0.4l-0.4-0.5v-0.3
	 M294.1,155.8v0.5l-0.4,0.7l-0.9,0.6l-1.1,0.4l-1.2,0.1l-1.1-0.1l-0.9-0.4l-0.4-0.6v-0.2 M294.1,154v0.4l-0.4,0.8l-0.9,0.6l-1.1,0.4
	l-1.2,0.1l-1.1-0.2l-0.9-0.4l-0.4-0.5v-0.3 M294.1,152.2v0.4l-0.4,0.8l-0.9,0.6l-1.1,0.3l-1.2,0.2l-1.1-0.2l-0.9-0.4l-0.4-0.5v-0.3
	 M294.1,150.4v0.4l-0.4,0.7l-0.9,0.7l-1.1,0.3l-1.2,0.1l-1.1-0.1l-0.9-0.4l-0.4-0.5v-0.3 M294.1,148.6v0.4l-0.4,0.7l-0.9,0.6
	l-1.1,0.4l-1.2,0.1l-1.1-0.1l-0.9-0.4l-0.4-0.6v-0.2 M294.1,146.7v0.4l-0.4,0.8l-0.9,0.6l-1.1,0.4l-1.2,0.1l-1.1-0.2l-0.9-0.3
	l-0.4-0.6v-0.3 M294.1,144.9v0.4l-0.4,0.8l-0.9,0.6l-1.1,0.4l-1.2,0.1l-1.1-0.2l-0.9-0.4l-0.4-0.5v-0.3 M294.1,143.5l-0.4,0.8
	l-0.9,0.6l-1.1,0.3l-1.2,0.1l-1.1-0.1l-0.9-0.4l-0.4-0.5V144 M292.9,139.6l-0.5-0.2 M292.4,139.4l-0.3-0.7 M292.2,138.1L292.2,138.1
	H292l-0.1-0.1h-0.1h-0.2h-0.1h-0.1h-0.2 M291.2,138l-0.2,0.6 M291,138.6l-0.7,0.6 M290.3,139.2l-1,0.1 M290.1,141.1l-0.2-1
	 M291.5,143.4h-0.8l-0.7-0.1l-0.6-0.3l-0.4-0.2 M295,138.9l-1.5-0.2 M294.7,139.8l0.1-0.1v-0.1l0.1-0.1v-0.2v-0.1l0.1-0.1V139v-0.1
	 M293.2,139.6l1.5,0.2 M292.1,139.7l1.1-0.1 M291.4,140.3l0.7-0.6 M291.1,141.1l0.3-0.8 M289.6,141h0.2h0.1l0.2,0.1h0.2h0.2h0.2h0.2
	h0.2 M289.9,140.1l-0.3,0.9 M289.7,139.4l0.2,0.7 M288.7,139.1l1,0.3 M287.2,138.9l1.5,0.2 M287.5,138v0.1l-0.1,0.1l-0.1,0.1v0.1
	v0.2l-0.1,0.1v0.1v0.1 M289,138.2l-1.5-0.2 M290.2,138.1l-1.2,0.1 M290.8,137.5l-0.6,0.6 M291.1,136.6l-0.3,0.9 M292.6,136.8h-0.2
	l-0.1-0.1h-0.2h-0.2h-0.2h-0.2l-0.2-0.1h-0.2 M292.3,137.7l0.3-0.9 M292.5,138.3l-0.2-0.6 M293.5,138.7l-1-0.4 M296.8,139.6
	l-0.5,0.9l-1,0.7l-1.3,0.6l-1.6,0.4l-1.6,0.1l-1.7-0.2l-1.4-0.5l-1.2-0.7l-0.8-0.8l-0.4-0.9l0.1-1l0.6-0.9l0.9-0.8l1.3-0.5l1.6-0.4
	l1.6-0.1l1.7,0.2l1.4,0.5l1.2,0.6l0.8,0.9l0.4,0.9L296.8,139.6 M332.2,190.5l0.1-0.1 M336.2,188.7l-0.5,0.5l-0.6,0.5l-0.8,0.3
	l-0.9,0.1h-0.8l-0.6-0.2 M331.2,188l-0.2,0.2v0.4l0.3,0.5l0.4,0.2 M332.2,190.5l0.6,0.2h0.6l0.7-0.1l0.6-0.2l0.6-0.4l0.4-0.4
	l0.1-0.5 M331.8,190.1l0.2,0.3l0.2,0.1 M332,189.9l-0.4-0.2l-0.1-0.1 M333.3,192.9L333.3,192.9v0.1h0.2h0.1h0.1h0.2 M333.9,193v-0.1
	 M331.7,189.3l0.6-0.7 M331.7,189.3l0.6,0.2l0.9,0.1h0.9l0.9-0.2l0.8-0.5l0.5-0.5l0.3-0.6l-0.1-0.7l-0.1-0.1 M331.4,187.8l0.9-1
	 M331.4,186l0.9-1 M331.4,184.2l0.9-1.1 M331.4,182.4l0.9-1.1 M331.4,180.6l0.9-1.1 M331.4,178.7l0.9-1 M331.4,176.9l0.9-1.1
	 M331.4,175.1l0.9-1.1 M335.5,162.9l0.2-1.3 M331.7,162.9l-0.2-1.3 M334.8,163.3l-0.1-1.1 M332.4,163.3l0.1-1.1 M333.6,163.6v-1.2
	 M331.7,189.8v0.1l0.1,0.2 M332.3,190.4L332.3,190.4l-0.3-0.1l-0.2-0.2 M335.3,189.5l-0.4,0.5l-0.6,0.3l-0.7,0.2l-0.7,0.1l-0.6-0.2
	 M335.1,188l-0.2,0.2l-0.6,0.3l-0.7,0.2h-0.7l-0.6-0.1 M335.1,186.1l-0.2,0.2l-0.6,0.4l-0.7,0.2h-0.7l-0.6-0.1 M335.1,184.3
	l-0.2,0.2l-0.6,0.4l-0.7,0.1l-0.7,0.1l-0.6-0.1 M335.1,182.5l-0.2,0.2l-0.6,0.3l-0.7,0.2l-0.7,0.1l-0.6-0.2 M335.1,180.7l-0.2,0.2
	l-0.6,0.3l-0.7,0.2h-0.7l-0.6-0.1 M335.1,178.9l-0.2,0.1l-0.6,0.4l-0.7,0.2h-0.7l-0.6-0.1 M335.1,177l-0.2,0.2l-0.6,0.4l-0.7,0.2
	h-0.7l-0.6-0.1 M335.1,175.2l-0.2,0.2l-0.6,0.3l-0.7,0.2l-0.7,0.1l-0.6-0.2 M335.1,173.4l-0.2,0.2l-0.6,0.3l-0.7,0.2h-0.7l-0.6-0.1
	 M335.1,171.6l-0.2,0.1l-0.6,0.4l-0.7,0.2h-0.7l-0.6-0.1 M331.4,173.3l0.9-1.1 M335.1,164.4l0.2-1 M332.1,164.4l-0.2-1 M334.8,168.1
	l0.6-0.3l0.5-0.5l0.1-0.2 M331.3,167.2l0.2,0.3l0.5,0.4l0.4,0.2 M331.7,168.1v0.1l0.3,0.2l0.4,0.2l0.6,0.1h0.6l0.7-0.1l0.6-0.3
	l0.4-0.4l0.3-0.3 M335.1,169.7l-0.2,0.2l-0.6,0.4l-0.7,0.2h-0.7l-0.6-0.1 M331.4,171.4l0.9-1 M334.8,168.1l-1.2,0.2h-1.2l-1-0.3
	l-0.7-0.4l-0.2-0.6 M332.4,168.1h0.3l0.3,0.1h0.3h0.3h0.3h0.3l0.3-0.1h0.3 M332.4,168.1l-1-0.3l-0.7-0.5l-0.2-0.5 M336.4,168.7
	l0.2,0.2l0.1,0.6l-0.1,0.6l-0.4,0.6l-0.6,0.4l-0.8,0.4l-0.9,0.2l-0.9,0.1l-0.9-0.1l-0.7-0.3 M336.4,166.8l0.2,0.2l0.1,0.6l-0.1,0.7
	L336,169l-0.4,0.3l-0.6,0.3l-0.6,0.2l-0.8,0.1h-0.9l-0.8-0.1l-0.7-0.3l-0.5-0.3l-0.2-0.5l0.1-0.4l0.3-0.4l0.1-0.1 M336.5,170.5
	L336.5,170.5l0.2,0.8l-0.2,0.8l-0.7,0.7l-1,0.5l-1.2,0.3l-1.2-0.1l-1-0.2 M331.4,171.4l-0.7-0.4l-0.2-0.6l0.2-0.6l0.4-0.2
	 M336.5,172.3L336.5,172.3l0.2,0.8l-0.2,0.8l-0.7,0.7l-1,0.5l-1.2,0.3h-1.2l-1-0.3 M331.4,173.3l-0.7-0.5l-0.2-0.6l0.2-0.5l0.5-0.4
	 M336.5,174.2L336.5,174.2l0.2,0.8l-0.2,0.8l-0.7,0.7l-1,0.5l-1.2,0.2h-1.2l-1-0.3 M331.4,175.1l-0.7-0.5l-0.2-0.5l0.2-0.6l0.5-0.3
	 M336.5,176L336.5,176l0.2,0.8l-0.2,0.8l-0.7,0.7l-1,0.5l-1.2,0.2h-1.2l-1-0.3 M331.4,176.9l-0.7-0.5l-0.2-0.5l0.2-0.6l0.5-0.3
	 M336.5,177.8L336.5,177.8l0.2,0.8l-0.2,0.8l-0.7,0.7l-1,0.5l-1.2,0.3l-1.2-0.1l-1-0.2 M331.4,178.7l-0.7-0.4l-0.2-0.6l0.2-0.6
	l0.5-0.3 M336.5,179.6L336.5,179.6l0.2,0.8l-0.2,0.8l-0.7,0.7l-1,0.5l-1.2,0.3h-1.2l-1-0.3 M331.4,180.6l-0.7-0.5l-0.2-0.6l0.2-0.5
	l0.5-0.4 M336.5,181.5L336.5,181.5l0.2,0.8l-0.2,0.8l-0.7,0.6l-1,0.5l-1.2,0.3h-1.2l-1-0.3 M331.4,182.4l-0.7-0.5l-0.2-0.6l0.2-0.5
	l0.5-0.4 M336.5,183.3L336.5,183.3l0.2,0.8l-0.2,0.8l-0.7,0.7l-1,0.5l-1.2,0.2h-1.2l-1-0.3 M331.4,184.2l-0.7-0.5l-0.2-0.5l0.2-0.6
	l0.5-0.3 M336.5,185.1L336.5,185.1l0.2,0.8l-0.2,0.8l-0.7,0.7l-1,0.5l-1.2,0.2h-1.2l-1-0.3 M331.4,186l-0.7-0.4l-0.2-0.6l0.2-0.6
	l0.5-0.3 M331.4,187.8l-0.7-0.4l-0.2-0.6l0.2-0.6l0.5-0.3 M331.4,188.1L331.4,188.1l-0.7-0.5l-0.2-0.6 M336.7,186.1L336.7,186.1
	l-0.2,0.8l-0.7,0.7l-1,0.5l-1.2,0.3l-1.2-0.1l-1-0.2 M331.4,186.3L331.4,186.3l-0.7-0.5l-0.2-0.6 M336.7,184.3L336.7,184.3l-0.2,0.8
	l-0.7,0.7l-1,0.5l-1.2,0.2h-1.2l-1-0.2 M331.4,184.4L331.4,184.4l-0.7-0.4l-0.2-0.6 M336.7,182.5L336.7,182.5l-0.2,0.8l-0.7,0.7
	l-1,0.5l-1.2,0.2h-1.2l-1-0.3 M331.4,182.6L331.4,182.6l-0.7-0.5l-0.2-0.5 M336.7,180.7L336.7,180.7l-0.2,0.7l-0.7,0.8l-1,0.5
	l-1.2,0.2h-1.2l-1-0.3 M331.4,180.8L331.4,180.8l-0.7-0.5l-0.2-0.5 M336.7,178.8L336.7,178.8l-0.2,0.8l-0.7,0.7l-1,0.5l-1.2,0.3
	h-1.2l-1-0.3 M331.4,179L331.4,179l-0.7-0.5l-0.2-0.6 M336.7,177L336.7,177l-0.2,0.8l-0.7,0.7l-1,0.5l-1.2,0.3l-1.2-0.1l-1-0.2
	 M331.4,177.1L331.4,177.1l-0.7-0.4l-0.2-0.6 M336.7,175.2L336.7,175.2l-0.2,0.8l-0.7,0.7l-1,0.5l-1.2,0.2h-1.2l-1-0.3 M331.4,175.3
	L331.4,175.3l-0.7-0.4l-0.2-0.6 M336.7,173.4L336.7,173.4l-0.2,0.8l-0.7,0.7l-1,0.5l-1.2,0.2h-1.2l-1-0.3 M331.4,173.5L331.4,173.5
	l-0.7-0.5l-0.2-0.5 M336.7,171.5v0.1l-0.2,0.7l-0.7,0.7l-1,0.5l-1.2,0.3h-1.2l-1-0.3 M331.4,171.7L331.4,171.7l-0.7-0.5l-0.2-0.6
	 M336.7,169.7L336.7,169.7l-0.2,0.8l-0.7,0.7l-1,0.5l-1.2,0.3l-1.2-0.1l-1-0.2 M336.7,167.9L336.7,167.9l-0.2,0.8l-0.7,0.7l-1,0.5
	l-1.2,0.2h-1.2l-1-0.3l-0.7-0.4l-0.2-0.6 M335.6,165.1l0.2-1.1 M331.6,165.1l-0.2-1.1 M335.7,162.9L335.7,162.9h-0.2 M335.5,162.9
	l-0.7,0.4 M334.8,163.3l-1.2,0.3 M333.6,163.6l-1.2-0.3 M332.4,163.3l-0.7-0.4 M331.7,162.9L331.7,162.9h-0.2 M332.1,164.4l-0.5,0.7
	 M331.6,165.1l-0.2,0.2 M335.8,165.3l-0.2-0.2 M335.6,165.1l-0.5-0.7 M335.7,167.4L335.7,167.4l-0.7,0.3l-0.7,0.2h-0.7h-0.8
	l-0.6-0.2l-0.6-0.3h-0.1 M335.7,161.6l-1,0.6 M336.8,162.2l-0.1-0.1l-0.1-0.1l-0.1-0.1l-0.2-0.1h-0.1l-0.1-0.1l-0.2-0.1h-0.2
	 M335.8,162.8l1-0.6 M335.3,163.4l0.5-0.6 M335.8,164l-0.5-0.6 M336.8,164.7l-1-0.7 M335.7,165.3l0.2-0.1h0.2l0.1-0.1l0.1-0.1
	l0.2-0.1l0.1-0.1h0.1l0.1-0.1 M334.7,164.7l1,0.6 M333.6,164.4l1.1,0.3 M332.5,164.7l1.1-0.3 M331.5,165.3l1-0.6 M330.4,164.7
	l0.1,0.1h0.1l0.1,0.1l0.2,0.1l0.1,0.1l0.1,0.1h0.2l0.2,0.1 M331.4,164l-1,0.7 M331.9,163.4l-0.5,0.6 M331.4,162.8l0.5,0.6
	 M330.4,162.2l1,0.6 M331.5,161.6h-0.2l-0.2,0.1l-0.1,0.1h-0.1l-0.2,0.1l-0.1,0.1l-0.1,0.1l-0.1,0.1 M332.5,162.2l-1-0.6
	 M333.6,162.4l-1.1-0.2 M334.7,162.2l-1.1,0.2 M337.7,161l1,0.8l0.6,0.9l0.1,1l-0.3,0.9l-0.8,0.8l-1.2,0.7l-1.5,0.5l-1.6,0.2
	l-1.6-0.1l-1.6-0.3l-1.3-0.6l-1-0.8l-0.6-0.9l-0.1-0.9l0.3-1l0.8-0.8l1.2-0.7l1.5-0.4l1.6-0.2h1.6l1.6,0.4L337.7,161 M164.2,242.9
	h0.1 M168.2,241.1l-0.4,0.6l-0.7,0.4l-0.8,0.3l-0.9,0.2l-0.8-0.1l-0.6-0.1 M163.2,240.4l-0.1,0.3l-0.1,0.4l0.3,0.4l0.4,0.2
	 M164.2,242.9l0.6,0.2h0.6l0.7-0.1l0.7-0.2l0.5-0.3l0.4-0.5l0.1-0.4v-0.1 M163.8,242.5l0.3,0.3l0.1,0.1 M164,242.4l-0.4-0.3
	l-0.1-0.1 M165.3,245.3L165.3,245.3l0.1,0.1h0.1l0.1,0.1l0.2-0.1h0.1 M165.9,245.4v-0.1h0.1 M163.7,241.7l0.6-0.7 M163.7,241.7
	l0.6,0.3l0.9,0.1l0.9-0.1l0.9-0.2l0.8-0.4l0.5-0.6l0.3-0.6l-0.1-0.6l-0.1-0.2 M163.4,240.3l0.9-1.1 M163.4,238.5l0.9-1.1
	 M163.4,236.6l0.9-1 M163.4,234.8l0.9-1.1 M163.4,233l0.9-1.1 M163.4,231.2l0.9-1.1 M163.4,229.3l0.9-1 M163.4,227.5l0.9-1
	 M163.7,215.3l-0.2-1.3 M167.5,215.3l0.3-1.3 M164.4,215.7l0.1-1.1 M165.6,216v-1.1 M166.8,215.7l-0.1-1.1 M163.7,242.2L163.7,242.2
	l0.1,0.3 M164.3,242.9L164.3,242.9l-0.3-0.2l-0.2-0.2 M167.4,241.9l-0.5,0.5l-0.6,0.4l-0.7,0.1l-0.7,0.1l-0.6-0.1 M167.1,240.4
	l-0.2,0.2l-0.6,0.3l-0.7,0.2l-0.7,0.1l-0.6-0.2 M167.1,238.6l-0.2,0.2l-0.6,0.3l-0.7,0.2h-0.7l-0.6-0.1 M167.1,236.8l-0.2,0.1
	l-0.6,0.4l-0.7,0.2h-0.7l-0.6-0.1 M167.1,234.9l-0.2,0.2l-0.6,0.4l-0.7,0.2h-0.7l-0.6-0.1 M167.1,233.1l-0.2,0.2l-0.6,0.3l-0.7,0.2
	l-0.7,0.1l-0.6-0.2 M167.1,231.3l-0.2,0.2l-0.6,0.3l-0.7,0.2h-0.7l-0.6-0.1 M167.1,229.5l-0.2,0.1l-0.6,0.4l-0.7,0.2h-0.7l-0.6-0.1
	 M167.1,227.6l-0.2,0.2l-0.6,0.4l-0.7,0.2h-0.7l-0.6-0.1 M167.1,225.8l-0.2,0.2l-0.6,0.4l-0.7,0.1l-0.7,0.1l-0.6-0.1 M167.1,224
	l-0.2,0.2l-0.6,0.3l-0.7,0.2l-0.7,0.1l-0.6-0.2 M163.4,225.7l0.9-1.1 M167.1,216.9l0.2-1 M164.1,216.9l-0.2-1 M166.8,220.5l0.6-0.3
	l0.5-0.5l0.1-0.2 M163.3,219.6l0.2,0.4l0.6,0.3l0.3,0.2 M163.8,220.5v0.1l0.2,0.3l0.4,0.2l0.6,0.1l0.6-0.1l0.7-0.1l0.6-0.3l0.5-0.4
	l0.2-0.3 M167.1,222.2l-0.2,0.2l-0.6,0.3l-0.7,0.2h-0.7l-0.6-0.1 M163.4,223.9l0.9-1.1 M166.8,220.5l-1.2,0.2h-1.2l-1-0.2l-0.6-0.5
	l-0.3-0.6 M164.4,220.5l0.3,0.1h0.3h0.3h0.3h0.3h0.3h0.3l0.3-0.1 M164.4,220.5l-1-0.3l-0.6-0.4l-0.3-0.6 M168.5,221.1l0.1,0.2
	l0.1,0.6l-0.1,0.6l-0.4,0.6l-0.6,0.5l-0.8,0.3l-0.9,0.2l-0.9,0.1l-0.8-0.1l-0.8-0.2 M168.4,219.3l0.2,0.2l0.1,0.5l-0.1,0.7l-0.5,0.7
	l-0.5,0.3l-0.5,0.3l-0.7,0.2l-0.8,0.1l-0.9,0.1l-0.8-0.2l-0.7-0.2l-0.4-0.4l-0.3-0.4l0.1-0.5l0.3-0.4l0.2-0.1 M168.5,222.9v0.1
	l0.2,0.7l-0.2,0.8l-0.7,0.7l-1,0.5l-1.2,0.3h-1.2l-1-0.3 M163.4,223.9l-0.6-0.5l-0.3-0.6l0.3-0.5l0.3-0.3 M168.5,224.8L168.5,224.8
	l0.2,0.8l-0.2,0.8l-0.7,0.7l-1,0.5l-1.2,0.2h-1.2l-1-0.3 M163.4,225.7l-0.6-0.5l-0.3-0.5l0.3-0.6l0.4-0.3 M168.5,226.6L168.5,226.6
	l0.2,0.8l-0.2,0.8l-0.7,0.7l-1,0.5l-1.2,0.2h-1.2l-1-0.3 M163.4,227.5l-0.6-0.4l-0.3-0.6l0.3-0.6l0.4-0.3 M168.5,228.4L168.5,228.4
	l0.2,0.8l-0.2,0.8l-0.7,0.7l-1,0.5l-1.2,0.3l-1.2-0.1l-1-0.2 M163.4,229.3l-0.6-0.4l-0.3-0.6l0.3-0.6l0.4-0.3 M168.5,230.2
	L168.5,230.2l0.2,0.8l-0.2,0.8l-0.7,0.7l-1,0.5l-1.2,0.3h-1.2l-1-0.3 M163.4,231.2l-0.6-0.5l-0.3-0.6l0.3-0.5l0.4-0.4 M168.5,232.1
	L168.5,232.1l0.2,0.8l-0.2,0.8l-0.7,0.7l-1,0.5l-1.2,0.2h-1.2l-1-0.3 M163.4,233l-0.6-0.5l-0.3-0.5l0.3-0.6l0.4-0.3 M168.5,233.9
	L168.5,233.9l0.2,0.8l-0.2,0.8l-0.7,0.7l-1,0.5l-1.2,0.2h-1.2l-1-0.3 M163.4,234.8l-0.6-0.5l-0.3-0.5l0.3-0.6l0.4-0.3 M168.5,235.7
	L168.5,235.7l0.2,0.8l-0.2,0.8l-0.7,0.7l-1,0.5l-1.2,0.2h-1.2l-1-0.2 M163.4,236.6l-0.6-0.4l-0.3-0.6l0.3-0.6l0.4-0.3 M168.5,237.5
	L168.5,237.5l0.2,0.8l-0.2,0.8l-0.7,0.7l-1,0.5l-1.2,0.3h-1.2l-1-0.3 M163.4,238.5l-0.6-0.5l-0.3-0.6l0.3-0.6l0.4-0.3 M163.4,240.3
	l-0.6-0.5l-0.3-0.6l0.3-0.5l0.4-0.3 M163.4,240.5L163.4,240.5l-0.6-0.5l-0.3-0.5 M168.7,238.6L168.7,238.6l-0.2,0.7l-0.7,0.7l-1,0.6
	l-1.2,0.2h-1.2l-1-0.3 M163.4,238.7L163.4,238.7l-0.6-0.5l-0.3-0.6 M168.7,236.7L168.7,236.7l-0.2,0.8l-0.7,0.7l-1,0.5l-1.2,0.3
	h-1.2l-1-0.3 M163.4,236.9L163.4,236.9l-0.6-0.5l-0.3-0.6 M168.7,234.9L168.7,234.9l-0.2,0.8l-0.7,0.7l-1,0.5l-1.2,0.3l-1.2-0.1
	l-1-0.2 M163.4,235L163.4,235l-0.6-0.4l-0.3-0.6 M168.7,233.1L168.7,233.1l-0.2,0.8l-0.7,0.7l-1,0.5l-1.2,0.2h-1.2l-1-0.3
	 M163.4,233.2L163.4,233.2l-0.6-0.4l-0.3-0.6 M168.7,231.3L168.7,231.3l-0.2,0.8l-0.7,0.7l-1,0.5l-1.2,0.2h-1.2l-1-0.3 M163.4,231.4
	L163.4,231.4l-0.6-0.5l-0.3-0.5 M168.7,229.4v0.1l-0.2,0.7l-0.7,0.7l-1,0.5l-1.2,0.3h-1.2l-1-0.3 M163.4,229.6L163.4,229.6l-0.6-0.5
	l-0.3-0.6 M168.7,227.6L168.7,227.6l-0.2,0.8l-0.7,0.7l-1,0.5l-1.2,0.3l-1.2-0.1l-1-0.2 M163.4,227.7L163.4,227.7l-0.6-0.4l-0.3-0.6
	 M168.7,225.8L168.7,225.8l-0.2,0.8l-0.7,0.7l-1,0.5l-1.2,0.2h-1.2l-1-0.3 M163.4,225.9L163.4,225.9l-0.6-0.4l-0.3-0.6 M168.7,224
	L168.7,224l-0.2,0.8l-0.7,0.7l-1,0.5l-1.2,0.2h-1.2l-1-0.3 M163.4,224.1L163.4,224.1l-0.6-0.5l-0.3-0.5 M168.7,222.2L168.7,222.2
	l-0.2,0.7l-0.7,0.7l-1,0.6l-1.2,0.2h-1.2l-1-0.3 M168.7,220.3L168.7,220.3l-0.2,0.8l-0.7,0.7l-1,0.5l-1.2,0.3h-1.2l-1-0.3l-0.6-0.5
	l-0.3-0.6 M167.6,217.5l0.2-1 M163.6,217.5l-0.2-1 M167.7,215.4l-0.1-0.1h-0.1 M167.5,215.3l-0.7,0.4 M166.8,215.7l-1.2,0.3
	 M165.6,216l-1.2-0.3 M164.4,215.7l-0.7-0.4 M163.7,215.3L163.7,215.3l-0.2,0.1 M164.1,216.9l-0.5,0.6 M163.6,217.5l-0.2,0.2
	 M167.9,217.7l-0.3-0.2 M167.6,217.5l-0.5-0.6 M167.8,214l-1.1,0.6 M168.9,214.6l-0.2-0.1l-0.1-0.1l-0.1-0.1h-0.1l-0.2-0.1l-0.1-0.1
	l-0.2-0.1h-0.1 M167.8,215.2l1.1-0.6 M167.3,215.9l0.5-0.7 M167.8,216.5l-0.5-0.6 M168.9,217.1l-1.1-0.6 M167.8,217.7L167.8,217.7
	l0.3-0.1l0.1-0.1l0.2-0.1h0.1l0.1-0.1l0.1-0.1l0.2-0.1 M166.7,217.1l1.1,0.6 M165.6,216.9l1.1,0.2 M164.5,217.1l1.1-0.2
	 M163.5,217.7l1-0.6 M162.4,217.1l0.1,0.1l0.1,0.1l0.1,0.1h0.2l0.1,0.1l0.2,0.1l0.1,0.1h0.2 M163.4,216.5l-1,0.6 M163.9,215.9
	l-0.5,0.6 M163.4,215.2l0.5,0.7 M162.4,214.6l1,0.6 M163.5,214h-0.2l-0.1,0.1l-0.2,0.1l-0.1,0.1h-0.2l-0.1,0.1l-0.1,0.1l-0.1,0.1
	 M164.5,214.6l-1-0.6 M165.6,214.9l-1.1-0.3 M166.7,214.6l-1.1,0.3 M167.7,219.8l-0.1,0.1l-0.6,0.2l-0.7,0.2l-0.7,0.1l-0.7-0.1
	l-0.7-0.2l-0.6-0.3h-0.1 M169.7,213.5l1,0.7l0.6,0.9l0.1,1l-0.3,0.9l-0.8,0.9l-1.2,0.6l-1.4,0.5l-1.7,0.2l-1.6-0.1l-1.6-0.3
	l-1.3-0.6l-1-0.7l-0.6-0.9l-0.1-1l0.3-0.9l0.8-0.9l1.2-0.6l1.5-0.5l1.6-0.2l1.7,0.1l1.5,0.3L169.7,213.5 M224.1,272.9l-0.5,0.6
	l-0.7,0.5l-0.9,0.3l-1,0.2l-0.8-0.1l-0.7-0.2l-0.4-0.3v-0.1 M219.4,274.1v0.2l0.1,0.3l0.3,0.3l0.5,0.1l0.7,0.1h0.7l0.7-0.2l0.6-0.4
	l0.5-0.4l0.2-0.5v-0.2 M221,277.5L221,277.5l0.1,0.1h0.1 M221.2,277.6h0.2h0.1l0.1-0.1h0.1 M218.7,272.4l-0.1,0.4l0.1,0.4l0.4,0.4
	l0.7,0.3l0.9,0.2l1-0.1l0.9-0.2l0.8-0.4l0.7-0.5l0.3-0.6v-0.2 M221.7,247.1v-1.3 M222.9,274l-0.1,0.1l-0.6,0.4l-0.7,0.3h-0.7h-0.7
	l-0.4-0.2l-0.2-0.3v-0.1 M221.4,247.7l-0.2-1.1 M219.3,248.3l0.1-1.1 M220.6,248.3l-0.1-1.2 M222.5,247.9l0.2-1 M218.3,248l-0.4-1
	 M222.6,248.6l0.3-1.1 M223.7,248.9l0.1-0.9 M219.4,252.4l0.8,0.2h0.9l0.4-0.1 M219.4,252.4v0.1l0.2,0.2l0.4,0.3l0.6,0.1h0.7
	l0.7-0.1l0.6-0.3l0.5-0.3l0.3-0.4 M224.4,252.2l-0.1,0.6 M219.4,252.4l-0.8-0.4l-0.3-0.6v-0.1 M218.3,251.2v0.2l0.1,0.2l0.1,0.1
	l0.1,0.2l0.2,0.1l0.2,0.2l0.2,0.1l0.2,0.1 M224.2,251.4l0.2,0.3l-0.1,0.8 M224.2,253l0.2,0.6v0.6l-0.3,0.6l-0.6,0.5l-0.7,0.4
	l-0.8,0.2l-0.9,0.1h-0.9l-0.8-0.2l-0.6-0.3l-0.4-0.4l-0.2-0.4l0.2-0.4 M224.3,252.5l-0.3,0.6l-0.4,0.3l-0.7,0.4l-0.9,0.3l-1.2,0.1
	h-0.6l-0.6-0.1l-0.5-0.2l-0.5-0.3l-0.3-0.4v-0.5l0.2-0.4l0.3-0.2 M224.1,254.8l0.3,0.6l-0.1,0.8l-0.6,0.7l-0.9,0.6l-1.1,0.3
	l-1.2,0.1l-1.1-0.2l-0.8-0.5l-0.3-0.5l0.1-0.6 M218.4,254.3l0.4-0.4 M224.1,256.6l0.3,0.6l-0.1,0.8l-0.6,0.7l-0.9,0.6l-1.1,0.3
	l-1.2,0.1l-1.1-0.2l-0.8-0.4l-0.3-0.6l0.1-0.6 M218.4,256.1l0.4-0.4 M224.1,258.5l0.3,0.5l-0.1,0.8l-0.6,0.8l-0.9,0.5l-1.1,0.4h-1.2
	l-1.1-0.2l-0.8-0.4l-0.3-0.6l0.1-0.6 M218.4,257.9l0.4-0.4 M224.1,260.3l0.3,0.6l-0.1,0.8l-0.6,0.7l-0.9,0.6l-1.1,0.3h-1.2l-1.1-0.2
	l-0.8-0.4l-0.3-0.6l0.1-0.5 M218.4,259.7l0.4-0.3 M224.1,262.1l0.3,0.6l-0.1,0.8l-0.6,0.7l-0.9,0.6l-1.1,0.3l-1.2,0.1l-1.1-0.3
	l-0.8-0.4l-0.3-0.5l0.1-0.6 M218.4,261.6l0.4-0.4 M224.1,263.9l0.3,0.6l-0.1,0.8l-0.6,0.7l-0.9,0.6l-1.1,0.3l-1.2,0.1l-1.1-0.2
	l-0.8-0.5l-0.3-0.5l0.1-0.6 M218.4,263.4l0.4-0.4 M224.1,265.7l0.3,0.6l-0.1,0.8l-0.6,0.8l-0.9,0.5l-1.1,0.3l-1.2,0.1l-1.1-0.2
	l-0.8-0.4l-0.3-0.6l0.1-0.6 M218.4,265.2l0.4-0.4 M224.1,267.6l0.3,0.5l-0.1,0.8l-0.6,0.8l-0.9,0.5l-1.1,0.4h-1.2l-1.1-0.2l-0.8-0.4
	l-0.3-0.6l0.1-0.5 M218.4,267l0.4-0.3 M224.1,269.4l0.3,0.6l-0.1,0.8l-0.6,0.7l-0.9,0.6l-1.1,0.3h-1.2l-1.1-0.2l-0.8-0.4l-0.3-0.5
	l0.1-0.6 M218.4,268.9l0.4-0.4 M224.1,271.2l0.3,0.6v0.3 M218.4,270.7l0.4-0.4 M224.4,270.4l-0.1,0.6l-0.5,0.7l-1,0.6l-1.1,0.3
	l-1.2,0.1l-1.1-0.2l-0.8-0.5l-0.3-0.5v-0.2 M224.4,268.6l-0.1,0.6l-0.5,0.7l-1,0.6l-1.1,0.3h-1.2l-1.1-0.2l-0.8-0.4l-0.3-0.5v-0.2
	 M224.4,266.8l-0.1,0.6l-0.5,0.7l-1,0.6l-1.1,0.3h-1.2l-1.1-0.2l-0.8-0.4l-0.3-0.6v-0.1 M224.4,264.9l-0.1,0.6l-0.5,0.8l-1,0.5
	l-1.1,0.3l-1.2,0.1l-1.1-0.2l-0.8-0.4l-0.3-0.6v-0.1 M224.4,263.1l-0.1,0.6l-0.5,0.7l-1,0.6l-1.1,0.3l-1.2,0.1l-1.1-0.2l-0.8-0.4
	l-0.3-0.6V264 M224.4,261.3l-0.1,0.6l-0.5,0.7l-1,0.6l-1.1,0.3l-1.2,0.1l-1.1-0.3l-0.8-0.4l-0.3-0.5v-0.2 M224.4,259.5l-0.1,0.6
	l-0.5,0.7l-1,0.6l-1.1,0.3h-1.2l-1.1-0.2l-0.8-0.4l-0.3-0.6v-0.1 M224.4,257.7l-0.1,0.5l-0.5,0.8l-1,0.5l-1.1,0.4h-1.2l-1.1-0.2
	l-0.8-0.4l-0.3-0.6v-0.1 M224.4,255.8l-0.1,0.6l-0.5,0.7l-1,0.6l-1.1,0.3l-1.2,0.1l-1.1-0.2l-0.8-0.4l-0.3-0.6v-0.2 M224.4,254
	l-0.1,0.6l-0.5,0.7l-1,0.6l-1.1,0.3l-1.2,0.1l-1.1-0.2l-0.8-0.5l-0.3-0.5v-0.2 M224.3,252.8l-0.5,0.7l-1,0.6l-1.1,0.3h-1.2l-1.1-0.2
	l-0.8-0.4l-0.3-0.5v-0.2 M224.7,249.1l0.5-0.9 M220,249.4l-0.2-0.9 M223.1,248.8l-0.5-0.2 M222.6,248.6l-0.1-0.7 M222.6,247.3
	l-0.1-0.1h-0.1h-0.1h-0.2l-0.1-0.1h-0.1h-0.2 M221.7,247.1l-0.3,0.6 M221.4,247.7l-0.8,0.6 M220.6,248.3h-1.1 M220,249.4l0.2,0.8
	 M220.2,250.2l-0.3-1 M221.5,252.5h-0.8l-0.7-0.2l-0.6-0.2l-0.1-0.1 M225.2,248.2l-1.4-0.2 M224.8,249.1l0.1-0.1v-0.1l0.1-0.1
	l0.1-0.1v-0.2l0.1-0.1v-0.1v-0.1 M223.3,248.8l1.5,0.3 M222.2,248.9l1.1-0.1 M221.4,249.4l0.8-0.5 M221,250.3l0.4-0.9 M219.5,250
	l0.2,0.1h0.2h0.2l0.1,0.1h0.2h0.2h0.2l0.2,0.1 M219.9,249.2l-0.4,0.8 M219.8,248.5l0.1,0.7 M218.9,248.1l0.9,0.4 M217.5,247.8
	l1.4,0.3 M217.9,247l-0.1,0.1l-0.1,0.1v0.1l-0.1,0.1v0.1l-0.1,0.1v0.1v0.1 M219.4,247.2l-1.5-0.2 M220.5,247.1l-1.1,0.1
	 M221.2,246.6l-0.7,0.5 M221.7,245.8l-0.5,0.8 M223.2,246H223l-0.2-0.1h-0.2h-0.2l-0.2-0.1H222h-0.1h-0.2 M222.7,246.9l0.5-0.9
	 M222.9,247.5l-0.2-0.6 M223.8,248l-0.9-0.5 M226.9,249l-0.7,0.8l-1,0.8l-1.4,0.5l-1.6,0.3h-1.7l-1.6-0.3l-1.4-0.5l-1.1-0.8
	l-0.7-0.8l-0.2-1l0.2-0.9l0.7-0.9l1.1-0.7l1.4-0.5l1.6-0.3h1.7l1.6,0.3l1.4,0.5l1,0.7l0.7,0.9l0.3,0.9L226.9,249 M154.6,156
	l-1.8-1.2l-1.5-1.4l-1-1.4l-0.6-1.5l-0.1-1.5l0.3-1.5l0.4-0.8 M182.5,172.6L182.5,172.6h0.1 M182.6,172.6v-8.1 M182.6,172.6l0.3,0.2
	l0.3,0.2h0.3h0.2h0.3 M183,163.1l-0.2,0.2l-0.2,0.2v0.3l-0.1,0.3l0.1,0.4 M182.6,164.5l0.3-0.2l0.3-0.2l0.3-0.1l0.2-0.2l0.3-0.1
	 M184,173l28.3,16.3 M154.6,156l27.9,16.1 M184,163.7l-1-0.6 M184,173v-9.3 M159.6,147.3l-5,8.7 M207.3,174.9l-47.7-27.6 M169.6,130
	l47.7,27.5 M159.6,147.3l0.2-2.4l0.5-2.5l1-2.5l1.2-2.5l1.5-2.3l1.8-2l1.8-1.8l2-1.3 M237.1,182.8l0.1,0.5l0.2,1.5l-0.3,1.5
	l-0.8,1.4l-1.2,1.2l-1.5,1.1 M217.3,157.5l1.4,0.9l1.4,1.1l1.3,1.3l1.2,1.5l1.1,1.6l1,1.7l0.9,1.7l0.7,1.8 M207.3,174.9l0.2-2.4
	l0.6-2.5l0.9-2.5l1.3-2.5l1.5-2.3l1.7-2.1l1.9-1.7l1.9-1.4 M212.3,189.3l-5-14.4 M233.6,190l-1.9,0.9l-2.2,0.7l-2.5,0.5l-2.5,0.1
	l-2.6-0.1l-2.6-0.3l-2.5-0.6l-2.4-0.8l-2.1-1.1 M226.3,169.1l7.3,20.9 M207.3,174.9l2-0.1l2.2-0.4l2.5-0.5l2.6-0.7l2.6-0.9l2.6-1
	l2.4-1.1l2.1-1.1 M250.2,197.5L247,198l-3.2,1.1l-3.1,1.8l-2.9,2.3 M237.4,218v3.8 M282.6,230.1v2.8 M299.6,234.7v-4.6 M325.1,254.6
	v2.9 M364.9,289.1l16-9.2 M250.7,218v3.2 M288,215.2l0.1-0.1 M288.9,238.6l-1.2-0.5h-0.5h-0.3l-0.3,0.2l-0.3,0.4l-0.1,0.5l-0.1,0.6
	 M287,239.8v-0.5l0.1-0.2l0.1-0.2h0.2h0.3l0.7,0.4 M315.2,253.8l-12.7-7.4l-13.6-7.8 M288.4,239.3l12.8,7.4l13.6,7.8 M317.5,257.5
	l-0.1-1l-0.1-0.6l-0.3-0.5l-0.4-0.5l-0.4-0.5l-1-0.6 M314.8,254.6l0.8,0.4l0.3,0.4l0.3,0.3l0.2,0.4l0.2,0.5l0.1,0.9 M346.7,239
	l-3,1.8l-3,1.7 M358.3,258.6v2.3 M364,260.9v-2.3 M282,13.6l-3.3-1.6l-3.5-1.2l-3.7-0.7l-3.7-0.3l-3.7,0.3l-3.6,0.7L257,12l-3.4,1.6
	 M242.5,25.4L230.2,50 M253.6,13.6l-1.7,1.1l-1.7,1.2l-1.5,1.4l-1.5,1.4l-1.4,1.6l-1.2,1.6l-1.1,1.7l-1,1.8 M285.5,94.3v0.2l0.1,0.2
	v0.2l0.1,0.1l0.1,0.2l0.1,0.1l0.2,0.2l0.1,0.1 M286.2,95.6h0.2l0.2,0.1h0.1l0.2,0.1l0.2-0.1h0.2l0.2-0.1h0.1 M285.5,87.4v6.9
	 M286.2,86.2L286.2,86.2l-0.3,0.2l-0.1,0.1l-0.1,0.2l-0.1,0.2V87l-0.1,0.2v0.2 M360.3,58.8L282,13.6 M373.1,74.8l-0.9-2.5l-1.1-2.3
	l-1.3-2.3l-1.6-2.1l-1.7-2l-1.9-1.7l-2.1-1.7l-2.2-1.4 M384.4,110.2l-11.3-35.4 M168.1,297l-3.4,6 M174,296.4l-0.1-0.1l-0.1-0.1
	h-0.1l-0.1-0.1h-0.1l-0.2-0.1h-0.1l-0.1-0.1 M157.7,303l-5.2,9.1 M178.6,299.1L178.6,299.1h-0.1 M178.6,299.1L178.6,299.1
	 M152.8,310.4l-1.9,3.4 M168.2,305l-4.9-2.8 M168.6,304.7l-0.1,0.2l-0.1,0.1h-0.1h-0.1 M229.3,331.5l-0.4-1l-0.4-0.9l-0.6-0.8
	l-0.6-0.8l-0.7-0.8l-0.7-0.7l-0.8-0.6l-0.8-0.5 M208.6,328.4L208.6,328.4v-0.1 M224.3,325.4l-50.3-29 M224.3,353.4l-0.1-0.1
	l-0.1-0.1v-0.1 M213.5,331.2l-4.9-2.8 M236.4,351.9l-7.1-20.4 M224.1,353.1l-5.2-15 M291.5,168.3l1.8-3.5 M293.9,163.8l0.1-0.3
	 M288.5,164l0.3,0.7 M289.2,165.4l1.6,2.9 M293.2,142.9L293.2,142.9v-0.1 M288,142.1v0.1 M288,143.8v0.2 M288,145.6v0.2 M288,147.4
	v0.2 M288,149.2v0.3 M288,151.1v0.2 M288,152.9v0.2 M288,154.7v0.2 M288,156.5v0.3 M288,158.3v0.3 M288,160.2v0.2 M288,162v0.2
	 M294.2,161.3v-0.2 M294.2,159.5v-0.2 M294.2,157.7v-0.3 M294.2,155.8v-0.2 M294.2,154v-0.2 M294.2,152.2V152 M294.2,150.4v-0.3
	 M294.2,148.6v-0.3 M294.2,146.7v-0.2 M294.2,144.9v-0.2 M294.2,143.1v-0.2 M293.2,142.8l2.5-1.8 M286.5,141l2.5,1.8 M333.9,192.9
	l1.8-3.3 M336.2,188.7l0.2-0.5 M331.1,188.8l0.4,0.8 M331.8,190.1l1.5,2.8 M330.5,166.8v0.2 M330.5,168.6v0.2 M330.5,170.4v0.2
	 M330.5,172.2v0.3 M330.5,174.1v0.2 M330.5,175.9v0.2 M330.5,177.7v0.2 M330.5,179.5v0.3 M330.5,181.3v0.3 M330.5,183.2v0.2
	 M330.5,185v0.2 M330.5,186.8v0.2 M336.7,186.1v-0.2 M336.7,184.3v-0.2 M336.7,182.5v-0.2 M336.7,180.7v-0.3 M336.7,178.8v-0.2
	 M336.7,177v-0.2 M336.7,175.2V175 M336.7,173.4v-0.3 M336.7,171.5v-0.2 M336.7,169.7v-0.2 M336.7,167.9v-0.2 M335.7,167.4l2.5-1.9
	 M329,165.5l2.5,1.9 M166,245.3l1.7-3.3 M168.2,241.1l0.2-0.4 M163.1,241.2l0.4,0.8 M163.8,242.6l1.5,2.7 M162.5,219.2v0.2
	 M162.5,221v0.2 M162.5,222.8v0.3 M162.5,224.7v0.2 M162.5,226.5v0.2 M162.5,228.3v0.2 M162.5,230.1v0.3 M162.5,232v0.2
	 M162.5,233.8v0.2 M162.5,235.6v0.2 M162.5,237.4v0.2 M162.5,239.2v0.3 M168.7,238.6v-0.3 M168.7,236.7v-0.2 M168.7,234.9v-0.2
	 M168.7,233.1v-0.2 M168.7,231.3V231 M168.7,229.4v-0.2 M168.7,227.6v-0.2 M168.7,225.8v-0.2 M168.7,224v-0.3 M168.7,222.2v-0.3
	 M168.7,220.3v-0.2 M167.7,219.8l2.5-1.9 M161,217.9l2.5,1.9 M221.7,277.5l1.8-3.5 M224.1,272.9l0.2-0.3 M218.7,273.1l0.3,0.7
	 M219.4,274.5l1.6,3 M223.4,252.1v-0.2 M218.2,251.2L218.2,251.2 M218.2,252.9v0.2 M218.2,254.7v0.2 M218.2,256.5v0.2 M218.2,258.3
	v0.3 M218.2,260.2v0.2 M218.2,262v0.2 M218.2,263.8v0.2 M218.2,265.6v0.3 M218.2,267.5v0.2 M218.2,269.3v0.2 M218.2,271.1v0.2
	 M224.4,270.4v-0.2 M224.4,268.6v-0.2 M224.4,266.8v-0.3 M224.4,264.9v-0.2 M224.4,263.1v-0.2 M224.4,261.3v-0.2 M224.4,259.5v-0.2
	 M224.4,257.7v-0.3 M224.4,255.8v-0.2 M224.4,254v-0.2 M224.4,252.2V252 M223.4,252l2.5-1.9 M216.7,250.1l2.6,1.9 M176.7,129.3
	l-1.7-0.9l-1.7-0.6l-1.8-0.3l-1.9-0.1l-1.8,0.1l-1.9,0.3l-1.7,0.6l-1.7,0.9 M157.3,134.4l-7,12.3 M162.5,129.3l-0.8,0.4l-0.7,0.6
	l-0.7,0.6l-0.7,0.6l-0.7,0.7l-0.5,0.7l-0.6,0.8l-0.5,0.7 M182.5,172.6l0.5,0.3 M182.5,164v8.6 M224.4,156.8l-47.7-27.5 M230.7,164.5
	l-0.4-1.2l-0.6-1.2l-0.7-1l-0.7-1l-0.9-1l-0.9-0.8l-1-0.8l-1.1-0.7 M237.1,182.8l-6.4-18.3"/>
</svg>
