<?xml version="1.0" encoding="utf-8"?>
<!-- Generator: Adobe Illustrator 21.0.0, SVG Export Plug-In . SVG Version: 6.00 Build 0)  -->
<svg version="1.1" id="Layer_1" xmlns="http://www.w3.org/2000/svg" xmlns:xlink="http://www.w3.org/1999/xlink" x="0px" y="0px"
	 viewBox="0 0 916 477" style="enable-background:new 0 0 916 477;" xml:space="preserve">
<style type="text/css">
	.st0{fill:none;stroke:#000000;stroke-width:0.709;stroke-linecap:round;stroke-linejoin:round;stroke-miterlimit:10;}
	.st1{fill:none;stroke:#000000;stroke-miterlimit:10;}
</style>
<path class="st0" d="M460.9,402l0.9,0.2l1.3,0.8l1.2,1.1l1.1,1.4l0.8,1.6l0.6,1.7l0.1,1.6l-0.1,1.3l-0.1,0.3 M436,424.7l0.5,0.6
	l1.2,1.1l1.3,0.8l1.3,0.3l1-0.2l0.9-0.6l0.5-1.1l0.2-1.3 M442.9,424.3l-0.2-1.6l-0.5-1.7l-0.9-1.6l-1-1.4l-1.3-1.1l-1.3-0.8
	l-1.2-0.3l-1.1,0.2l-0.8,0.7l-0.5,1l-0.2,1.4l0.2,1.5l0.5,1.6 M442.3,426.8l0.6-0.5l0.5-1.1l0.2-1.3 M443.6,423.9l-0.2-1.6l-0.5-1.7
	L442,419l-1-1.4l-1.3-1.1l-1.3-0.8l-1.2-0.3l-1.1,0.2l-0.2,0.1 M439.9,427.4l0.2,0.1l1.3,0.2l1.1-0.2l0.9-0.8l0.5-1.1l0.2-1.5
	 M444.1,424.1l-0.2-1.6l-0.5-1.8l-0.9-1.7l-1.1-1.6l-1.3-1.2l-1.4-0.9l-1.3-0.5l-1.2,0.1l-1,0.5l-0.7,0.9l-0.4,1.1 M458.2,402
	L458.2,402l1.2-0.3l1.3,0.2l1.4,0.7l1.3,1.1l1.2,1.4l1,1.7l0.7,1.7l0.4,1.8v1.5l-0.4,1.3l-0.7,1l-0.3,0.2 M309.3,414.4L309.3,414.4
	l0.1,0.1l0.1,0.1l-0.1,0.2v0.2 M308,416.4l-0.8-0.2 M307.2,418.3l-0.1,0.5v0.2v0.3l0.1,0.2 M313.1,418l-0.9-0.3 M307.2,416.2
	l-0.2,0.3l-0.1,0.4v0.3l-0.1,0.3l0.1,0.3v0.2l0.1,0.2h0.1 M307.2,416.2v-0.7 M306.7,419.2l-0.8,0.2l-0.2-0.1 M307.2,418.5v-0.3
	 M309.4,417.6l0.8,0.2 M305.7,419.3l-0.1-0.1v-0.1l-0.1-0.1v-0.1l0.1-0.2l0.1-0.4 M310.4,416.2L310.4,416.2l-0.2,0.1l-0.2,0.1
	l-0.2,0.2l-0.1,0.3l-0.2,0.4l-0.1,0.3 M310.6,416.3l1-1 M308.5,418.7l0.9-1.1 M308.2,414.4l0.8-0.1l0.3,0.1 M305.7,418.3l0.8-1.8
	l0.2-0.4 M312.2,417.7l-0.1,0.3l-0.1,0.4l-0.1,0.3v0.4v0.2l0.1,0.2l0.1,0.2 M312.2,417.7V417 M312.2,420v-0.3 M308.5,419.9l1.2,0.3
	 M309.7,420.2l0.1,0.2h0.1 M309.1,420l-0.1,0.1h-0.2l-0.2-0.1l-0.1-0.1 M308.5,418.7l0.1-0.4l0.2-0.4l0.2-0.5l0.2-0.4l0.2-0.4
	l0.3-0.4l0.3-0.4l0.3-0.3l0.3-0.2l0.2-0.1l0.3-0.1h0.2h0.1l0.2,0.2 M311.6,415.3l0.6,0.2 M312.6,415.5l-0.1-0.1l-0.2,0.1h-0.2
	l-0.3,0.2l-0.2,0.2l-0.3,0.3l-0.3,0.4l-0.3,0.3l-0.3,0.5l-0.2,0.4l-0.2,0.4l-0.2,0.5l-0.1,0.4 M309.7,419.1l-1.2-0.4 M315.1,416.2
	L315.1,416.2h-0.2l-0.2,0.1l-0.3,0.1l-0.3,0.2 M314.1,416.6l-1.2-0.3 M312.9,416.3l0.2-0.3l0.3-0.1l0.2-0.1h0.2l0.2,0.1l0.1,0.2
	l0.1,0.3v0.2 M310.1,414.7h-0.2h-0.2l-0.3,0.2l-0.3,0.2 M309.1,415.1l-1.3-0.3 M307.8,414.8l0.2-0.2l0.1-0.1l0.1-0.1 M306.7,416.1
	l0.2-0.2l0.1-0.2l0.2-0.2 M307.2,415.5l1.2,0.4 M308.4,415.9l-0.3,0.4l-0.3,0.5l-0.2,0.5l-0.2,0.5l-0.2,0.5 M307.2,419.5l0.2,0.2
	 M307.2,418.9L307,419l-0.1,0.1l-0.2,0.1 M312.2,420.4l-0.3,0.2l-0.3,0.2h-0.2h-0.2l-0.1-0.1l-0.1-0.2l-0.1-0.2V420l0.1-0.4l0.1-0.4
	l0.1-0.4l0.2-0.5l0.2-0.5l0.3-0.4l0.3-0.4 M312.2,417l1.3,0.4 M313.5,417.4l-0.3,0.4l-0.3,0.4l-0.2,0.5l-0.2,0.4l-0.2,0.5l-0.1,0.4
	v0.4v0.3v0.2l0.1,0.2l0.2,0.1 M315.8,420.8l-0.2,0.2l-0.4,0.4l-0.4,0.3h-0.3h-0.2h-0.2l-0.2-0.3l-0.1-0.3V421 M313.8,421v-0.2
	l0.1-0.4l0.2-0.6l0.3-0.4l0.2-0.4l0.3-0.5l0.4-0.5l0.4-0.4l0.3-0.4l0.3-0.3l0.3-0.1l0.2-0.1l0.1,0.1l0.2,0.2v0.3v0.4l-0.1,0.4v0.1
	 M304.4,419.8L304.4,419.8 M437.7,420.4h0.3l0.4,0.1l0.4,0.3l0.3,0.5l0.2,0.5l0.1,0.4l-0.1,0.4l-0.2,0.3 M304.4,419.8l-1.1,0.6
	l-2.4,1l-2.7,0.9l-2.9,0.5l-3.1,0.3l-3-0.1l-3-0.3l-2.9-0.6l-2.6-0.9l-2.3-1.2l-2.1-1.3l-1.5-1.5l-1.1-1.7l-0.3-0.7 M275.5,405.9
	l-0.2,0.2l-0.2,0.2l-0.1,0.1l-0.6,0.8l-1,1.7v0.3 M309,409.4l-0.7-1.7l-1.3-1.6l-0.3-0.2 M316.1,417.9L316.1,417.9h-0.2l-0.2,0.2
	l-0.3,0.3l-0.2,0.4l-0.1,0.5l-0.1,0.4v0.3 M315,420v0.3l0.1,0.3h0.2 M501.2,382.5l0.3-0.3l0.1-0.4l-0.1-0.4l-0.4-0.3l-0.6-0.2
	l-0.6-0.1l-0.7,0.1l-0.6,0.2l-0.4,0.3l-0.1,0.4l0.1,0.4l0.3,0.3 M503.5,364l-8,9.4 M456.2,389.5l0.2-0.3l0.2-0.4l-0.2-0.4l-0.3-0.3
	l-0.6-0.2l-0.7-0.1l-0.7,0.1l-0.6,0.2l-0.3,0.3l-0.2,0.4l0.2,0.4l0.2,0.3 M514.1,352.2L514.1,352.2l-0.3-0.1h-0.3h-0.3 M503.5,357.1
	v6.9 M512.7,351.9L512.7,351.9l0.2,0.1h0.1l0.1,0.1h0.1 M512.7,351.9l-2.8-1l-2.6,0.3l-2.2,1.5l-1,1.5 M504.1,354.2l-0.3,0.9l-0.3,2
	 M520.2,373.6l-1.6-1.4l-1.7-1.4l-1.9-1.3l-2.1-1.3l-2.1-1.2l-2.3-1.1l-2.4-1l-2.6-0.9 M520.2,366.7l-0.4-3.3v-0.1 M519.8,363.3
	l-0.9-3.4l-1.6-3.5l-2.3-2.8l-1.8-1.5 M513.9,359.2h0.1l0.5-0.2l0.3-0.5l0.1-0.7l-0.1-0.8l-0.3-0.9l-0.5-0.8l-0.6-0.7l-0.5-0.3
	 M512.9,354.3l-0.6-0.2h-0.6l-0.5,0.3l-0.1,0.2 M479.8,394.9h0.2l0.8-0.1l0.8,0.1h0.2 M483.8,394.3l-1.2-0.5l-1.4-0.2h-1.5l-1.3,0.4
	l-0.6,0.3 M451.5,380.2l-10-6.6 M433.3,378.1l0.1-2.6 M433.3,378.2v-0.1 M441.5,366.7v6.9 M441.5,366.7l-0.4-2.7v-0.1 M441.1,363.9
	l-0.8-1.6l-1.2-0.6l-1.3,0.6l-0.8,1.3 M436.8,364L436.8,364l0.1-0.2v-0.1h0.1v-0.1 M436.8,364l-0.8,2.6l-0.4,3.3l-0.2,3.8v2.6
	 M435.4,376.3v1.3v2.2 M441.5,373.6l-1.4,1.6l-1.3,1.5l-1,1.6l-0.9,1.7l-0.7,1.6l-0.4,1.7l-0.3,1.7l-0.1,1.7 M437.4,365.6
	L437.4,365.6l-0.2,0.1l-0.3,0.4l-0.2,0.6l-0.2,0.9l-0.1,0.9l-0.1,1v0.5 M436.3,370v0.7l0.1,0.4l0.2,0.1 M453.3,389.4l0.7,0.2
	l0.8,0.1l0.8-0.1l0.7-0.2l0.5-0.4l0.1-0.5l-0.1-0.5l-0.5-0.4l-0.7-0.2l-0.8-0.1l-0.8,0.1l-0.7,0.2l-0.5,0.4l-0.1,0.5l0.1,0.5
	L453.3,389.4 M498.4,382.4l0.6,0.3l0.9,0.1l0.8-0.1l0.7-0.3l0.4-0.4l0.2-0.5l-0.2-0.4l-0.4-0.4l-0.7-0.3l-0.8-0.1l-0.9,0.1l-0.6,0.3
	l-0.5,0.4l-0.2,0.4l0.2,0.5L498.4,382.4 M477.8,394.3l1.2,0.5l1.4,0.2l1.5-0.1l1.4-0.4l1-0.6l0.6-0.7l0.1-0.9l-0.3-0.8l-0.9-0.7
	l-1.2-0.5l-1.4-0.2l-1.5,0.1l-1.3,0.3l-1.1,0.6l-0.6,0.8l-0.1,0.8l0.4,0.9L477.8,394.3 M495.5,373.4l-4.9,1.8l-5.2,1.5l-5.4,1.2
	l-5.5,1l-5.7,0.8l-5.7,0.4l-5.8,0.2l-5.8-0.1 M451.5,380.2l-1.8,1.6l-1.6,1.7l-1.3,1.8l-1,1.8l-0.7,1.9l-0.4,1.9l-0.1,1.9l0.2,1.9
	 M513.9,384.1l-1.5-1.8l-1.7-1.6l-2-1.5l-2.3-1.5l-2.4-1.2l-2.7-1.2l-2.8-1l-3-0.9 M520.2,366.7v6.9 M513.9,384.1l6.3-10.5
	 M502.9,400.2l0.2-0.8l1.3-3.2l1.7-3.2l2.2-3.1l2.6-3l3-2.8 M502.9,399.6l0.2,0.4 M480.8,406v7 M477,413.3l3.8-0.3 M444.8,394.7
	l5.1,1.6l4.8,1.9l4.6,2l4.2,2.3l4,2.5l3.5,2.6l3.2,2.8l2.8,2.9 M435.4,386.7l9.4,8 M435.4,379.8v6.9 M480.8,406l0.6-2.9l0.1-0.2
	 M492.9,395.8L492.9,395.8l-0.2,0.1h-0.1h-0.1h-0.1h-0.1h-0.1 M492.9,395.8l3.5-0.1l3.1,0.7l2.4,1.6l1,1.6 M481.5,402.9l1.7-2.5
	l2.8-2.3l3.6-1.6l2.6-0.6 M483.3,279.7l0.6,1 M482.6,290.5l9.2,5.3 M482.6,280v10.5 M492.4,285L492.4,285 M491.8,285.2l0.5-0.2
	 M482.8,280l9,5.2 M483.3,279.7l-0.5,0.3 M483.3,279.7L483.3,279.7 M483.2,279.7l-0.6,0.3 M482.6,280l9.2,5.4 M496.9,291.9v0.9
	 M496.9,291.9l-4.5-6.9 M491.8,285.4l0.6-0.4 M491.8,285.4v10.4 M491.8,295.8l5.1-3 M449.8,309.6l-0.1-0.1 M449.7,308.7v0.8
	 M449.8,308.7v0.9 M449.8,309.6l5-2.8 M454.3,296.5l-4.6,12.2 M449.8,308.7L449.8,308.7 M454.4,296.6l-4.6,12.1 M458.7,313.8v0.9
	 M458.8,314.8l-0.1-0.1 M454.8,306.8l5.3,3.1 M454.8,296.4v10.4 M463.6,301.4l-0.4,0.3 M454.3,296.5l0.5-0.3 M454.3,296.5l0.1,0.1
	 M454.4,296.6l0.4-0.2 M454.8,296.4l8.8,5 M454.8,296.2l9,5.2 M458.8,313.9v0.9 M463.8,311.9l-5,2.9 M463.8,301.4v10.5 M463.8,301.4
	l-0.5,0.3 M458.8,313.9l-0.1-0.1 M458.8,313.9l4.5-12.2 M463.2,301.7L463.2,301.7 M458.7,313.8l4.5-12.1 M505.4,297.7l-0.5,0.4
	l-0.2,0.5l0.2,0.4l0.5,0.4l0.7,0.3l0.8,0.1l0.8-0.1l0.7-0.3l0.4-0.4l0.2-0.4l-0.2-0.5l-0.4-0.4l-0.7-0.3l-0.8-0.1l-0.8,0.1
	L505.4,297.7 M512.9,300.9l-3.9-2.3 M504.7,298.6l-3.8,2.3 M504.7,300.9l0.2,0.4l0.5,0.4l0.7,0.3l0.8,0.1l0.8-0.1l0.7-0.3l0.4-0.4
	l0.2-0.4 M506.9,309l6-3.5 M512.9,300.9v4.6 M506.9,304.3l6-3.4 M503.8,307.2l3.1,1.8 M500.9,305.5l0.5,0.3 M506.9,304.3v4.7
	 M500.9,300.9l6,3.4 M500.9,300.9v4.6 M456.1,294.5v0.4l0.5,0.9l0.9,0.8l1.3,0.7l1.5,0.4l1.7,0.1l1.6-0.2l1.5-0.5l1.2-0.7l0.8-0.8
	l0.3-1v-0.1 M457.8,287.6l-1,0.7l-0.6,1l-0.1,0.9l0.5,1l0.9,0.8l1.3,0.6l1.5,0.4l1.7,0.1l1.6-0.1l1.5-0.5l1.2-0.7l0.8-0.8l0.3-1
	l-0.2-1l-0.6-0.9l-1.1-0.7l-1.5-0.5l-1.6-0.3l-1.7,0.1l-1.6,0.3L457.8,287.6 M461.4,289.7l-0.1,0.1l-0.1,0.1l0.1,0.1l0.1,0.1
	l0.2,0.1h0.2h0.2l0.1-0.1l0.2-0.1v-0.1v-0.1l-0.2-0.1l-0.1-0.1h-0.2h-0.2L461.4,289.7 M497.3,317.1l0.3,0.8l0.8,0.6l1.1,0.5l1.4,0.1
	l1.3-0.1l1.2-0.5l0.7-0.6l0.3-0.8 M489.8,297.4l-9-5.2 M463.8,302l17-9.8 M480.8,292.2V291 M480.8,291l-17.5,10.2 M480.8,291l10,5.8
	 M490.8,296.8l-25,14.5 M463.8,310.1l2,1.2 M482.6,285.9h-3.4l-4.1,0.2l-4.1,0.6l-3.9,0.8l-1,0.3 M504.9,319.4l1.4-0.9l2.6-1.9
	l2.1-2.1l1.7-2.2l1.2-2.3l0.7-2.4l0.2-2.4l-0.3-2.4l-0.8-2.4l-1.4-2.3l-1.8-2.2l-2.2-2l-2.7-1.9l-3.1-1.6l-3.3-1.4l-3.7-1.2
	l-1.5-0.4 M456.1,292l-2.1,1.4l-2.4,2l-1.9,2.2l-1.5,2.2l-0.9,2.4l-0.5,2.4l0.1,2.4l0.6,2.4l1.1,2.3l1.5,2.3l2.1,2.1l2.4,1.9
	l2.1,1.4 M509.4,317.3l1.6-1.6l1.7-2.2l1.2-2.4l0.7-2.3l0.2-2.1 M446.8,306.7l0.1,1.5l0.6,2.4l1.1,2.3l1.5,2.2l2.1,2.1v0.1
	 M448.4,319.6L448.4,319.6l-0.2,0.1 M449.2,320.2H449l-0.2-0.2l-0.3-0.4 M515.7,313.1l0.2-1.2v-2.4l-0.5-2.5l-0.6-1.5 M446.8,305.5
	l-0.6,1.5l-0.5,2.5v2.4l0.2,1.2 M466.6,332.2l2.1,0.5l4.1,0.7l4.3,0.4l4.2,0.1l4.3-0.2l4.2-0.5l4.1-0.7l1.2-0.3 M482.6,281.6h-2.9
	l-4.6,0.2l-4.5,0.5l-4.5,0.8l-4.2,1l-4,1.3l-3.7,1.6l-3.5,1.7 M522.9,302.6l-0.3-1.1l-1.1-2.6l-1.6-2.5l-2.1-2.4l-2.5-2.2l-2.8-2.1
	l-3.3-1.9l-3.6-1.6l-3.9-1.5l-4.1-1.2l-4.3-0.9l-4.5-0.6l-3.1-0.3 M450.7,288.7l-3,2l-2.7,2.2l-2.3,2.3l-1.8,2.4l-1.4,2.6l-0.8,2.4
	 M435.5,307.2v1.4l0.5,2.7l1,2.7l1.5,2.6l1.9,2.5l2.4,2.4l2.8,2.2l3.1,2l3.6,1.9l3.8,1.6l4.1,1.4l4.4,1.1l4.5,0.8l4.6,0.6l4.7,0.3
	h4.8l4.7-0.3l4.7-0.6l4.5-0.8l4.3-1.1l4.1-1.4l3.9-1.6l3.5-1.9l3.2-2l2.7-2.2l2.4-2.4l2-2.5l1.4-2.6l1-2.7l0.5-2.7l0.1-1.4
	 M437.6,291.2v0.6l-0.1,0.7l-0.2,0.7l-0.1,0.4 M512.2,281.8l-0.4-0.6l-0.3-0.6l-0.1-0.6l-0.1-0.2 M490.5,324.7l0.1,0.6l0.3,0.4
	l0.6,0.4l0.6,0.1l0.7-0.1l0.6-0.3l0.6-0.4l0.4-0.5l0.2-0.6v-0.2 M449.2,320.2v-2.3 M450.7,281.8l-3,2l-2.7,2.1l-2.3,2.3l-1.8,2.5
	l-1.4,2.5l-0.8,2.6l-0.4,2.7l0.1,2.6l0.7,2.7l1.1,2.5l1.6,2.5l2,2.4l2.5,2.3l2.9,2l3.2,1.9l3.6,1.7l3.9,1.4l4.1,1.2l4.3,0.9l4.5,0.6
	l4.6,0.4l4.6,0.1l4.6-0.2l4.5-0.5l4.4-0.8l4.2-1.1l4-1.3l3.8-1.5l3.4-1.8l3.1-2l2.6-2.1l2.3-2.4l1.8-2.4l1.4-2.5l0.8-2.7l0.4-2.6
	l-0.1-2.7l-0.6-2.6l-1.1-2.6l-1.6-2.5l-2.1-2.3l-2.5-2.3l-2.8-2.1l-3.3-1.8l-3.6-1.7l-3.9-1.4l-4.1-1.2l-4.3-0.9l-4.5-0.7l-4.5-0.3
	l-4.6-0.1l-4.6,0.2l-4.5,0.5l-4.5,0.8l-4.2,1l-4,1.3l-3.7,1.6L450.7,281.8 M511.3,279.8l-3.6-1.8l-4-1.5l-4.3-1.2l-4.4-1l-4.6-0.8
	l-4.8-0.4l-4.7-0.2l-4.8,0.2l-4.7,0.4l-4.6,0.7l-4.5,1l-4.2,1.3l-4,1.5l-3.7,1.7l-3.4,2l-3,2.1l-2.6,2.3l-2.1,2.5l-1.7,2.6
	 M437.6,291.2l0.7,0.2l0.6,0.4l0.2,0.4v0.5l-0.4,0.4l-0.6,0.3l-0.8,0.2l-0.8-0.1 M436.5,293.5l-0.8,2.9l-0.2,2.8l0.2,2.9l0.9,2.8
	l1.3,2.8l1.9,2.6l2.4,2.5l2.8,2.4l3.2,2.2 M448.4,317.8L448.4,317.8l-0.1-0.1l-0.1-0.1v-0.1v-0.1 M448.5,317.8h-0.1 M449.2,317.9
	l-0.1,0.1H449h-0.1h-0.1l-0.1-0.1h-0.1l-0.1-0.1 M449.2,317.9l3.8,1.9l4.1,1.6l4.3,1.4l4.6,1.1l4.8,0.8l4.9,0.4l4.9,0.2l5-0.1
	l4.9-0.5 M490.5,324.7l-0.1-0.5l0.3-0.4l0.6-0.4l0.7-0.2h0.8l0.8,0.2l0.6,0.3l0.4,0.4 M494.6,324.1l4.5-1l4.2-1.2l4-1.5l3.8-1.8
	l3.3-1.9l3.1-2.1l2.6-2.3l2.1-2.5l1.7-2.6l1.3-2.6l0.7-2.8l0.3-2.7l-0.3-2.8l-0.7-2.7l-1.3-2.6l-1.7-2.6l-2.2-2.5l-2.6-2.3l-3.1-2.1
	 M514.3,281.5l-0.6,0.3h-0.8l-0.8-0.1l-0.7-0.2l-0.5-0.4l-0.1-0.5l0.1-0.4l0.4-0.4 M448.5,115.1h-0.1 M448.4,115.1L448.4,115.1
	l-0.2-0.2v-0.1 M448.4,113.3L448.4,113.3l-0.2-0.4v-0.3v-0.3 M449.2,115.2h-0.1l-0.1,0.1h-0.1l-0.1-0.1h-0.1h-0.1l-0.1-0.1
	 M449.2,112.9L449,113l-0.2,0.2l-0.3,0.2 M469.3,75.9l-1.9,1.3l-1.4,1.4l-1,1.6l-0.5,1.7l0.1,1.7l0.6,1.6l1.1,1.6l1.5,1.4l2,1.3
	l2.3,1l2.6,0.8l2.8,0.5l2.9,0.1l3-0.1l2.8-0.4l2.7-0.7l2.4-0.9l2-1.2l1.7-1.4l1.2-1.6l0.7-1.6l0.2-1.7l-0.3-1.6l-0.9-1.7l-1.3-1.5
	l-1.8-1.3l-2.1-1.1l-2.5-0.9l-2.7-0.7l-2.9-0.3h-2.9l-2.9,0.2l-2.7,0.6l-2.6,0.8L469.3,75.9 M492.6,89.6l0.7-0.5l1.7-1.3l1.2-1.6
	l0.7-1.6l0.2-1.5 M464.5,83.1l0.1,1.1l0.6,1.6l1.1,1.6l1.5,1.4l1.2,0.8 M469,76l-0.2,0.2 M497.8,82.8v-0.5l-0.6-1.7l-1-1.6l-1.5-1.5
	l-1.9-1.3l-0.2-0.2 M468.8,76.2l-1.9,1.3l-1.5,1.5l-1,1.6l-0.5,1.7l-0.1,0.5 M490.9,121l0.4-0.3l0.7-0.2h0.8l0.8,0.1l0.6,0.4
	l0.4,0.4 M460.3,70.7l-0.2,0.1V71v0.1l0.2,0.2h0.2l0.3,0.1l0.2-0.1h0.3l0.1-0.2l0.1-0.1l-0.1-0.2l-0.1-0.1l-0.3-0.1h-0.2h-0.3
	L460.3,70.7 M468.8,75.6l-1.9,1.3l-1.5,1.5l-1,1.6l-0.5,1.7v1.7l0.5,1.7l1,1.6l1.5,1.5l1.9,1.3l2.3,1.1l2.5,0.8l2.8,0.6l2.9,0.3h3
	l2.9-0.3l2.8-0.6l2.6-0.8l2.2-1.1l1.9-1.3l1.5-1.5l1-1.6l0.6-1.7v-1.7l-0.6-1.7l-1-1.6l-1.5-1.5l-1.9-1.3l-2.2-1.1l-2.6-0.9
	l-2.8-0.5l-2.9-0.3h-3l-2.9,0.3l-2.8,0.5l-2.5,0.9L468.8,75.6 M435.5,96.4L435.5,96.4l0.2,3l0.9,2.8l1.3,2.8l1.9,2.6l2.4,2.5
	l2.8,2.4l3.2,2.1 M449.2,112.9l-0.1-0.1H449l-0.1-0.1l-0.2-0.1h-0.1l-0.1-0.1l-0.1-0.1l-0.2-0.1 M449.2,115.2v-2.3 M449.2,115.2
	l3.8,1.9l4.1,1.6l4.3,1.4l4.6,1.1l4.8,0.8l4.9,0.4l4.9,0.2l5-0.1l4.9-0.5 M494.6,121.4l-0.1-0.6l-0.4-0.4l-0.5-0.3L493,120h-0.7
	l-0.6,0.3l-0.6,0.4l-0.4,0.5l-0.2,0.6v0.2 M494.6,121.4l4.5-1l4.2-1.2l4-1.5l3.8-1.8l3.3-1.9l3.1-2.1l2.6-2.3l2.1-2.5l1.7-2.6
	l1.3-2.6l0.7-2.8l0.3-2.7 M455.3,67.8l-2.9,1.8l-2.4,2.1l-2,2.1l-1.6,2.4l-1.1,2.3l-0.5,2.5l-0.1,2.5l0.4,2.4l1,2.4l1.4,2.4l1.9,2.2
	l2.4,2.1l2.7,1.8l3.1,1.7l3.5,1.5l3.7,1.2l3.9,1l4.1,0.7l4.3,0.4l4.2,0.1l4.3-0.2l4.2-0.5l4.1-0.7l3.9-1l3.6-1.3l3.4-1.6l3-1.7
	l2.7-2l2.2-2.1l1.8-2.2l1.3-2.4l0.8-2.4l0.3-2.5l-0.1-2.4l-0.7-2.5l-1.2-2.3l-1.7-2.3l-2.1-2.2l-2.6-1.9l-2.9-1.8l-3.3-1.6l-3.6-1.4
	l-3.8-1.1l-4-0.8l-4.2-0.5l-4.3-0.3h-4.3l-4.2,0.4l-4.2,0.6l-3.9,0.9l-3.8,1.1l-3.5,1.4L455.3,67.8 M462.9,64.3l-2.7,0.7l-4.1,1.4
	l-3.8,1.6l-3.6,1.8 M448.7,69.8l-3.1,2l-2.8,2.3l-2.4,2.3l-1.9,2.5l-1.5,2.6l-1,2.7l-0.5,2.8v2.7l0.5,2.7l1,2.7l1.5,2.6l1.9,2.5
	l2.4,2.4l2.8,2.2l3.1,2l3.6,1.9l3.8,1.6l4.1,1.4l4.4,1.1l4.5,0.8l4.6,0.6l4.7,0.3h4.8l4.7-0.3l4.7-0.6l4.5-0.8l4.3-1.1l4.1-1.4
	l3.9-1.6l3.5-1.9l3.2-2l2.7-2.2l2.4-2.4l2-2.5l1.4-2.6l1-2.7l0.5-2.7V87l-0.5-2.8l-1-2.7l-1.4-2.6l-2-2.5l-2.4-2.3l-2.7-2.3l-3.2-2
	l-3.5-1.8l-3.9-1.6l-4.1-1.4l-2.7-0.7 M462.6,245.4L462.6,245.4 M489.8,234.6l0.5-0.4l0.8-1l0.6-1.5v-0.4 M483.7,217.3l-0.4-0.1
	l-1.5-0.3l-1.4,0.2l-0.5,0.3 M455.8,231.3l0.6-0.3l1.3-0.2l1.5,0.3h0.1 M467.7,245.2l-0.1,0.4l-0.5,1.4l-0.8,1.1l-0.6,0.4
	 M491,184.5l0.3-0.2l0.9-1l0.5-1.4l0.2-1.7l-0.2-1.9l-0.6-2l-0.9-2l-1.2-1.8 M482.8,168.5l-0.8,0.3 M482.9,168.6l-1.2,0.4l-1,1
	l-0.5,1.3l-0.3,1.6l0.2,1.9l0.5,2l0.9,2l1.2,1.9l1.3,1.6l1.5,1.3l1.6,0.9l1.5,0.5l1.4-0.1l1.1-0.5l0.9-1l0.5-1.4l0.2-1.7l-0.2-1.9
	l-0.6-2l-0.9-2l-1.2-1.8 M491.8,172l0.7-0.5l0.9-1.2l0.5-1.5l0.1-1.9l-0.2-2l-0.5-2.1l-0.9-2.2l-1.2-2l-1.4-1.8l-1.6-1.5l-1.7-1.2
	l-1.6-0.8l-1.6-0.2l-1.4,0.2l-0.7,0.3 M489.8,172.6l1.4-0.3l1.1-0.7l0.9-1.2l0.5-1.5l0.1-1.8l-0.2-2.1l-0.5-2.1l-0.9-2.1l-1.2-2.1
	l-1.4-1.8l-1.6-1.5l-1.7-1.2l-1.6-0.7l-1.6-0.3l-1.4,0.2l-1.2,0.6l-0.9,1.1l-0.6,1.5l-0.2,1.8l0.2,2l0.5,2.1l0.8,2.2l1.2,2l1.4,1.9
	 M435.9,415.7l-0.7,0.4 M441.6,427.2l0.7-0.4 M458.2,402l-22.7,13.1 M442.6,427.4l22.7-13.1 M309.4,414.4L309.4,414.4l-0.1-0.3V414
	 M307.1,418.2h0.1 M311.1,416.4l-0.7-0.2 M304.4,419.9l0.3-0.2l0.8-0.3h0.6 M312.1,419.7h0.2 M307.4,419.7l1.3,0.4 M310,420.4
	l1.2,0.4 M312.5,421.2l1.7,0.5 M316.8,416.7l-1.7-0.5 M313.8,415.8l-1.2-0.3 M311.3,415.1l-1.2-0.4 M276.9,419l1,0.9l2.6,1.4l2.4,1
	l2.3,0.7l3.9,0.6h3.3l1.9-0.1l1.6-0.3l1.8-0.4l1.9-0.5l2.2-1l2.6-1.4v-0.1 M275.4,417.9l0.5,0.3 M437.7,420.4l-30.1,17.4 M409,440.2
	l30.1-17.3 M309.3,413.9l0.2-1v-1.8l-0.3-1.4 M273.2,409.6l-0.4,1.3v1.8l0.4,1.8 M309.2,414.1l0.1-0.2 M306.9,406l-2.5-2l-2.6-1.5
	l-2.4-1l-2.3-0.7l-3.9-0.6h-3.3l-1.9,0.1l-1.6,0.3l-1.8,0.4l-1.9,0.6l-2.2,0.9l-2.6,1.4l-2.5,2.1 M355.7,429.8l-39.6-11.9
	 M315.2,420.6l39.7,11.9 M407.6,437.8l-2.9,1.6l-2.4,1.1l-1.8,0.7l-1.3,0.5l-1.8,0.7l-2.7,0.8l-5.8,1.2l-5.7,0.6l-5.8,0.1l-5.7-0.4
	l-2.2-0.3l-2.3-0.3l-3-0.6l-3.8-0.8l-0.7-0.2 M354.9,444.1l4.8,1.3l4,0.9l3.1,0.6l2.4,0.4l2.3,0.2l5.9,0.5l6.1-0.1l5.9-0.7l6.2-1.3
	l1.9-0.6l1.6-0.5l1.2-0.4l1.3-0.5l1.9-0.8l2.5-1.2l3-1.7 M341.7,425.6l-2.1-1.8l-2.3-2.6l-1.8-2.7l-1.4-3.7l-0.3-3.5l0.3-2.4
	l0.9-2.7l1.6-3l1.9-2.3l2.4-2.3l2.5-2l2.5-1.5l2.9-1.6l3-1.3l4-1.4l3.8-1l4.5-0.9l5.1-0.7l5.4-0.3l4.9,0.1l4.5,0.4l4,0.6l3.5,0.7
	l3.9,1.1l3.7,1.3l4,1.8l3,1.8l2.9,2.1l2.3,2.1l1.6,1.9l1.1,1.6l0.7,1.4l0.8,1.9l0.5,2.6l-0.1,2.7l-0.6,2.5l-1,2.2l-1.2,1.9l-2.8,3.2
	l-3.3,2.6l-1.9,1.2l-2.9,1.6l-4.1,1.7l-5.7,1.8l-3.4,0.8l-3.8,0.6l-4.2,0.4l-4.6,0.2l-4.9-0.1l-5.1-0.5l-5.4-0.9l-5.3-1.4
	 M333.9,412.8l0.1-0.3l0.6-2.6l1-2.1l1.4-2.3l2.1-2.4l2.5-2.2l3.3-2.3l3-1.7l2.9-1.4l3.7-1.4l4.8-1.4l6-1.1l5.3-0.6l5.3-0.2l4.8,0.2
	l4.4,0.4l5,0.9l4.2,1.1l3.6,1.2l3,1.2l3,1.5l3,1.8l2.7,2.1l2.1,2.1l1.5,1.8l1,1.6l0.7,1.5l0.7,2l0.3,1.8 M334.1,414.8l0.3-1.1
	l1.1-2.8l2-3.1l2.2-2.4l2.5-2.1l2.5-1.7l2.4-1.4l2.7-1.4l3.4-1.3l4.5-1.4l4.1-1l4.8-0.8l5.4-0.5l5.2-0.1l4.7,0.3l4.2,0.5l3.8,0.6
	l3.2,0.8l3.7,1.1l3.9,1.6l4,2l2.9,1.9l2.7,2.1l1.9,2.1l1.3,1.7l0.9,1.5l0.7,1.6l0.7,2.3v0.9 M334.6,416l0.5-1.3l1.2-2.3l1.7-2.3
	l2.3-2.4l2.5-2l3.3-2.1l2.9-1.5l3.1-1.3l2.9-1.1l3.7-1l4.3-1l4.9-0.7l5.4-0.4h5.1l4.6,0.4l4.1,0.5l4.7,1l3.9,1.1l3.7,1.3l3,1.4
	l3,1.6l2.9,2l2.5,2.2l1.8,1.9l1.2,1.7l0.8,1.4l0.6,1.6 M331.8,425.6l0.8,2l1.7,3l1.3,1.7l1.9,2.1l2.8,2.4l2.6,1.9l3.3,1.9l4,1.8
	l4.7,1.7 M331.1,419.6L331,422l0.1,0.4 M333.3,426l0.2,0.5l2.4,3.3l3.1,3.1l5.6,3.9l6,2.9l4.1,1.4l4.8,1.3l5.7,1.1l4.8,0.5l5.4,0.2
	l5.7-0.1l5.5-0.7l6.2-1.2l5.1-1.5l3.9-1.5l4.7-2.4l4.2-2.9l2.4-2.2l2-2.4l1.8-2.7l1.1-2.6l0.7-3l0.1-3.4l-0.1-0.3 M331.1,416.4
	l-0.1,1.1l0.2,2.9l0.6,2.2 M336.1,426.9l2.8,3l5.6,3.9l4,2.1l4,1.6l4.4,1.4l3.8,0.9l4.3,0.8l4.9,0.5l5.3,0.3l5.7-0.2l5.5-0.6
	l4.8-0.9l4.2-1.1l4.5-1.5l3.5-1.6l3-1.6l4.2-2.9l3.5-3.3l1.9-2.5l1.6-3.1l1.1-3.9l0.1-3.4l-0.1-0.4 M331.1,413.9l-0.1,2.2l0.5,2.8
	l1.1,3l0.7,1.2 M340.7,428.3l3.7,2.6l6,2.9l4.1,1.5l4.7,1.3l5.7,1.1l4.8,0.5l5.3,0.3l5.7-0.2l5.5-0.6l6.3-1.2l5.2-1.5l4-1.6l4.6-2.3
	l4.2-2.9l2.5-2.2l2-2.3l1.8-2.7l1.1-2.6l0.8-2.9l0.1-3.4l-0.1-0.5 M354.9,432.5l5.8,1.5l5.8,1l5.5,0.5l5.1,0.1l6.2-0.4l5.4-0.8
	l4.5-1l5.2-1.6l3.5-1.4l2.3-1.1l2.1-1.1l4.2-2.9l3.5-3.3l1.9-2.4l1.6-3.1l1.1-3.8l0.2-3.4l-0.6-3.2l-1-2.6l-1.1-2.1l-3-3.8l-3.9-3.2
	l-2.8-1.9l-3.2-1.7l-4-1.7l-3.7-1.2l-4.4-1.2l-4.9-0.9l-5.2-0.5l-4.9-0.2l-4.8,0.1l-4.4,0.4l-4.2,0.6l-7.3,1.8l-6.9,2.5l-6.3,3.5
	l-5.3,4.4l-2.1,2.5l-1.6,2.6l-1.9,5l-0.3,3.1l0.2,2.9l0.7,2.9l1.5,3.1l2.3,3.3 M302.5,411.7v-0.1v-0.2l-0.1-0.1l-0.3-0.1h-0.2h-0.3
	l-0.2,0.1l-0.2,0.1l-0.1,0.2 M281.7,412.2v-0.1l-0.1-0.1l-0.1-0.1l-0.2-0.1l-0.2-0.1H281 M281,411.7h-0.2l-0.2,0.1l-0.2,0.2
	l-0.1,0.1v0.1 M290.6,401l-0.3,0.1l-0.2,0.1l-0.1,0.1l-0.1,0.2 M291.3,401.5L291.3,401.5l-0.1-0.3l-0.2-0.1l-0.2-0.1h-0.2
	 M519.6,376.9l0.6-1l0.4-1.2v-0.1 M520.8,372.8l0.1-0.7v-0.2 M520.6,374.6l0.2-1.2l0.1-0.6 M514.1,352.2l-0.5-0.3 M511.1,354.6
	l-0.2,0.4l-0.2,0.8l0.1,0.8l0.3,0.9l0.7,0.9l0.8,0.6l0.9,0.2h0.4 M520.9,372.1v-6.5 M513.6,351.9l-1.7-0.7l-1.7-0.4l-1.8,0.1
	l-0.9,0.3 M520.9,365.5v-0.4l-0.2-2.1l-0.1-0.6 M520.6,362.4l-0.5-1.9l-0.8-2.1l-1.1-2l-1.3-1.9l-1.6-1.5l-1.2-0.7 M433.9,387.4
	l0.3,0.9l0.7,1l0.8,0.6 M433.4,384.8v0.4l0.1,0.8 M433.4,385.7l0.3,1.2l0.2,0.5 M435.1,364.7l-0.2,0.4 M438.6,367.7l-0.1-0.6
	l-0.2-0.6l-0.5-0.7l-0.4-0.2 M436.6,371.2l0.4-0.1l0.5-0.3l0.3-0.4l0.3-0.4l0.2-0.5l0.2-0.8l0.1-0.8v-0.2 M439.1,361.7h-0.2
	l-1.2,0.3l-0.9,0.5l-0.8,0.9l-0.8,1.1l-0.1,0.2 M433.3,378.2v6.6 M434.9,365.1l-0.5,1.6l-0.5,2l-0.2,2l-0.2,2.2l-0.1,2v0.7
	 M435.7,390l4.3,3l5.2,3.8l4.1,3.1l3.7,2.9l1.7,1.3 M501.4,414.1l0.4-0.1l0.7-0.5l0.5-0.6l0.3-0.6l0.1-0.5l0.1-0.5 M503.5,411.3
	l0.1-1.4 M503.6,410v-0.3v-0.2 M503.6,405.2l0.4-1l1-2l1-2.2l1.3-2.6l1.5-3l1.8-3.4l2.3-4l2.8-4.4l3.2-4.7l0.7-1 M482.4,416.8
	L482.4,416.8l0.9,0.1 M466.6,411.9l1.6,0.8l2.2,0.9l2.1,0.7l2.3,0.7l2.3,0.6l1.6,0.3 M478.7,415.9l0.4,0.1l1.8,0.5l1.5,0.4
	 M503.6,409.5v-6.6 M483.2,417l2.4-0.1l4.5-0.5l4.5-0.6l4.3-1l2.6-0.7 M503.6,402.9v-0.5l-0.4-1.9L503,400 M504.7,298.6v2.3
	 M509,300.9v-2.3 M456.1,289.9v4.6 M467.4,294.5v-4.6 M497.3,309v8.1 M504.4,317.1V309 M498.9,306.2l-0.8,0.7l-0.6,1l-0.2,1
	 M504.4,309v-0.2l-0.3-1.1l-0.5-0.8l-0.7-0.6l-0.9-0.4l-1.1-0.2l-1.3,0.2l-0.7,0.3 M446.8,305.5v1.2 M514.8,306.7v-1.2 M448.2,319.7
	l0.2,0.1l0.6,0.3 M448.2,317.5v2.2 M495.1,332.2l3.6-0.9 M462.9,331.3l3.7,0.9 M526.2,307.2v-8.1 M435.5,299.1v8.1 M448.2,112.6v2.2
	 M497.1,83.1v-0.6 M464.5,82.5v0.6 M526.2,96.4v-8.1 M435.5,88.3v8.1 M466.6,63.4l-3.7,0.9 M498.7,64.3l-3.6-0.9 M485.2,217.9
	l-0.8-0.5l-0.4-0.1 M491.9,231.1l0.1-0.3v-1.7l-0.3-1.9l-0.6-1.9l-0.8-1.9l-0.2-0.3 M490.1,223.1l-0.9-1.5l-1.3-1.6l-1.5-1.3
	l-1.2-0.8 M459.4,245.1l0.7,0.3l1.2,0.3l1-0.2l0.2-0.2 M456.9,235.6l-0.4,0.3l-0.6,0.8l-0.3,1.1v1.3l0.3,1.4l0.6,1.5l0.9,1.3
	l1.1,1.1l0.9,0.7 M479.9,217.4l-24.1,13.9 M465.7,248.5l24.1-13.9 M490.8,184.6l0.2-0.1 M482,168.8l-0.2,0.2 M491.6,172.1l0.2-0.1
	 M481.2,153.6l-0.2,0.1"/>
<path class="st0" d="M785.9,184.7h-0.1l-0.5-0.2h-0.6l-0.6,0.1 M786.9,185.3h-0.1l-0.5-0.2h-0.6l-0.6,0.1 M629.3,254.1h-0.8
	l-0.8-0.2l-0.7-0.2l-0.5-0.3l-0.5-0.3l-0.3-0.4l-0.1-0.4 M629.8,257.4h-0.5l-0.8-0.1l-0.7-0.2l-0.5-0.3l-0.5-0.3l-0.3-0.4l-0.1-0.4
	 M629,210.3l0.3-0.6l0.5-0.5l0.6-0.5l0.7-0.3l0.8-0.3l0.8-0.1 M629.3,253.6l-0.9-0.2l-0.8-0.3l-0.7-0.3l-0.6-0.5l-0.4-0.4l-0.3-0.5
	l-0.2-0.6v-0.3 M629.3,240.5l-0.9-0.3l-0.8-0.2l-0.7-0.4l-0.6-0.4l-0.4-0.5l-0.3-0.5l-0.2-0.5v-0.4 M625.4,232l0.1,0.1l0.1,0.3
	l0.4,0.2l0.4,0.3l0.6,0.2l0.8,0.2l0.8,0.1l0.9,0.1 M628.6,211.2l0.3-0.7l0.5-0.5l0.6-0.5l0.7-0.4l0.8-0.2l0.9-0.1 M630.3,260.7
	l-0.2,0.1 M765.7,303.4v0.3l-0.2,0.7l-0.4,0.6l-0.5,0.6l-0.6,0.5l-0.7,0.4l-0.8,0.3 M765.9,300.7l-0.1,0.3l-0.2,0.7l-0.3,0.6
	l-0.5,0.6l-0.6,0.5l-0.7,0.4l-0.8,0.3 M719.7,310.2l0.2,1l0.4,0.9l0.6,0.8l0.7,0.7l0.8,0.5l0.9,0.4l0.2,0.1 M765.9,299.9v0.3
	l-0.2,0.6l-0.4,0.5l-0.4,0.4l-0.6,0.5l-0.7,0.3l-0.8,0.3 M725.8,312.5l-0.2,1.6l-0.2,0.7h-0.1 M761.4,309.1l0.4-0.2l0.6-1.2l0.1-0.9
	 M765.9,286.7v0.4l-0.2,0.5l-0.4,0.5l-0.4,0.5l-0.6,0.4l-0.7,0.4l-0.8,0.2 M629.3,254.1l0.4,1.3 M701.7,306.2l2.2,0.7l4.4,1l4,0.8
	l3.5,0.7l3.9,0.8 M784.1,184.6L784.1,184.6l0.2,0.1l0.1,0.1l0.2,0.1h0.1l0.1,0.1l0.1,0.1l0.2,0.1 M784.1,184.6l-1.7-0.8
	 M787.3,186.8l-0.4-0.4l-1.8-1.2 M629.5,233.5l-0.1,0.2l-0.1,3.5v3.3 M634,206l-0.5,0.6l-0.8,1.4 M632.4,208.8L632.4,208.8v-0.2
	l0.1-0.1v-0.1l0.1-0.1v-0.1l0.1-0.1V208 M629.6,225.8l-0.1,2.5v2.6v2.6 M632.4,208.8l-0.9,2.3l-0.7,2.9l-0.1,0.3 M629.5,233.5
	l-0.1,2.5v2.3v2.2 M629.6,251.2L629.6,251.2l-0.2,3.2 M720.1,309.4l0.4,0.6l0.4,0.6l0.7,0.6l0.7,0.4l0.8,0.4l0.9,0.3l0.9,0.2h0.9
	 M720.4,306.6l0.3,0.7l0.5,0.6l0.6,0.5l0.7,0.5l0.9,0.4l0.8,0.3l1,0.1l0.9,0.1 M764.6,280.1v0.2l0.2,0.7 M726.1,309.8l-0.3,2.7
	 M725.8,312.5l4.8-0.2l4.7-0.4l4.7-0.5l4.7-0.6l4.6-0.8l4.5-0.9l4.4-1.1l4.3-1.2 M762.5,306.8l0.2-2.7 M720.3,292.9v13.9
	 M629.4,240.5L629.4,240.5h-0.1 M629.3,240.5v13.1 M629.3,253.6v0.5 M719.7,310.2h0.1l0.2-0.3l0.1-0.5 M720.1,309.4l0.3-2.8
	 M720.4,306.6v-0.4 M712.7,307.5l4.2-0.2l3.4-0.5 M712.6,307.4l0.1,0.1 M629.4,254.4l0.3,0.2 M629.4,240.5v13.9 M720.4,306.2
	l0.3,0.5l0.5,0.5l0.7,0.4l0.7,0.3l0.8,0.3l0.9,0.1l0.9,0.1l0.9,0.1 M720.4,306.2V293 M726.1,308.5v1.3 M762.7,304.1l-4.3,1.2l-4.4,1
	l-4.5,0.9l-4.6,0.8l-4.7,0.7l-4.6,0.5l-4.8,0.4l-4.7,0.2 M762.7,304.1l0.1-1.3 M720.3,292.9l0.3-2.9l1-3l0.1-0.2 M720.4,293
	L720.4,293h-0.1v-0.1 M720.4,293l0.3,0.5l0.5,0.5l0.7,0.4l0.7,0.3l0.8,0.3l0.9,0.2l0.9,0.1h0.9 M720.4,293l0.3-3.1l1-3.1
	 M744.5,272.5l-0.2,0.1h-0.1H744h-0.2l-0.1,0.1h-0.2h-0.2h-0.1 M744.5,272.5l3.6-0.3h3.5l3.2,0.6l2.9,0.9l2.6,1.4l2.2,1.9l1.1,1.5
	l1,1.6 M744.5,272.5l0.2,0.8l0.3,0.8l0.1,0.9l0.2,0.9l0.2,0.9l0.1,0.9v0.9v0.8 M764.6,280.1l0.1,0.7v0.6l-0.1,0.7l-0.3,0.7l-0.5,0.7
	l-0.6,0.6l-0.6,0.6l-0.8,0.6 M721.7,286.8l1.5-2.7l2-2.5l2.6-2.4l3-2l3.4-1.8l3.7-1.4l2.6-0.7l2.7-0.6 M721.7,286.8l0.3,0.6l0.5,0.5
	l0.6,0.6l0.7,0.6l0.8,0.5l0.8,0.4l0.9,0.4l0.9,0.2 M743.2,272.7l0.2,0.8l0.2,0.8l0.2,0.9l0.1,0.9l0.2,0.9l0.1,0.9v0.9v0.8
	 M727.2,290.6l-0.1,0.1l-0.7,2.3l-0.3,2.3 M726.1,295.3v13.2 M726.1,308.5l4.8-0.3l4.7-0.4l4.7-0.5l4.6-0.6l4.6-0.8l4.5-0.9l4.4-1
	l4.4-1.2 M762.8,302.8v-13.2 M762.8,289.6l-0.3-2.2l-0.7-2.1 M761.8,285.3l-1.2-1.9l-1.5-1.5l-2-1.2l-2.3-0.9l-2.7-0.6l-2.8-0.1
	l-3.7,0.3 M745.6,279.4L745.6,279.4h-0.3l-0.2,0.1h-0.2h-0.1h-0.2l-0.2,0.1h-0.2 M744.2,279.6l-3.7,0.8l-2.9,1.1l-2.8,1.4l-2.5,1.6
	l-2.1,1.9l-1.4,1.6l-1.2,1.8l-0.4,0.8 M655.5,279.1L655.5,279.1l-0.4,0.2 M655.5,275.5v3.6 M655.5,279.1L655.5,279.1l0.2,0.1
	 M655.7,279.2v-3.6 M657.2,280.4l-0.5-0.1l-0.5-0.4l-0.5-0.7 M691.8,304.3l0.9,0.2l4.4,1l4.5,0.8l4.6,0.6l4.7,0.4l1.7,0.1
	 M765.9,299.6l2-0.7l4.4-1.6l4.3-1.8l4-2l3.9-2.1l3.6-2.2l3.4-2.3l3.1-2.5l2.9-2.5l2.7-2.7l2.3-2.7l2.1-2.8l1.8-2.9l1.5-2.9l1.2-2.9
	l1-3l0.6-3.1l0.3-3v-1.5 M629.6,254.4v1.5l0.3,3l0.7,3.1l0.9,3l1.2,2.9l1.5,2.9l1.8,2.9l2.1,2.8l2.4,2.7l2.6,2.7l2.9,2.5l3.2,2.5
	l3.4,2.3l3.6,2.2l3.8,2.1l4.1,2l4.2,1.8l4.4,1.6l4.6,1.6l4.7,1.3l4.8,1.2l5,1.1l5,0.9l5.2,0.7l5.2,0.5l5.2,0.3l5.3,0.2h2.6
	 M657.2,280.4v-4.6 M629.6,238.2v1.6l0.4,3.2l0.7,3.2l1,3.2l1.4,3.1l1.7,3.1l2,3l2.3,2.9l2.7,2.9l2.9,2.7l3.2,2.6l3.5,2.5l3.8,2.4
	 M655.5,275.5L655.5,275.5l-0.3-0.2v-0.1l-0.1-0.1V275v-0.1 M655.7,275.6l-0.2-0.1 M657.2,275.8H657h-0.2h-0.2h-0.2h-0.2l-0.2-0.1
	h-0.2l-0.1-0.1 M657.2,275.8l4.1,2.1l4.4,2.1l4.5,1.8l4.8,1.7l4.9,1.5l5,1.4l5.3,1.2l5.3,0.9l5.4,0.8l5.5,0.6l5.5,0.4l5.6,0.2h3.1
	 M765.6,283.5l1.7-0.5l4.4-1.7l4.4-1.8l4.1-2l3.9-2.1l3.7-2.2l3.4-2.4l3.2-2.4l3-2.6l2.6-2.7l2.4-2.7l2.2-2.8l1.8-2.9l1.5-3l1.3-3
	l0.9-3l0.6-3.1l0.3-3v-1.4 M655.7,275.6l-0.2-0.1 M655.5,275.5L655.5,275.5l-0.3-0.2v-0.1l-0.1-0.1V275v-0.1 M655.5,271.9v3.6
	 M657.2,275.8H657h-0.2h-0.2h-0.2h-0.2l-0.2-0.1h-0.2l-0.1-0.1 M655.7,275.6V272 M657.2,271.1l-0.5,0.3l-0.5,0.3l-0.5,0.3
	 M655.5,271.9L655.5,271.9l-0.4-0.8v-0.7l0.1-0.4 M655.7,272L655.7,272l-0.2-0.1 M697.3,197.1l-2.2,1.4l-1.9,1.4l-1.6,1.6l-1.4,1.7
	l-1.1,1.7l-0.8,1.8l-0.4,1.9l-0.2,1.8l0.2,1.8l0.4,1.9l0.8,1.8l1.1,1.7l1.4,1.7l1.6,1.6l1.9,1.4l2.2,1.4l2.3,1.2l2.6,1.1l2.7,1
	l2.9,0.8l3,0.6l3.2,0.5l3.1,0.2l3.2,0.1l3.2-0.1l3.2-0.2l3.1-0.5l3-0.6l2.9-0.8l2.7-1l2.6-1.1l2.4-1.2l2.1-1.4l1.9-1.4l1.7-1.6
	l1.3-1.7l1.1-1.7l0.8-1.8l0.5-1.9l0.1-1.8l-0.1-1.8l-0.5-1.9l-0.8-1.8l-1.1-1.7l-1.3-1.7l-1.7-1.6l-1.9-1.4l-2.1-1.4l-2.4-1.3
	l-2.6-1.1l-2.7-0.9l-2.9-0.8l-3-0.6l-3.1-0.5l-3.2-0.2l-3.2-0.1l-3.2,0.1l-3.1,0.2l-3.2,0.5l-3,0.6l-2.9,0.8l-2.7,0.9l-2.6,1.1
	L697.3,197.1 M743.9,224.6l1.6-1.1l1.9-1.5l1.7-1.6l1.3-1.6l1.1-1.8l0.8-1.8l0.5-1.8l0.1-1.8 M687.7,211.6l0.2,1.8l0.4,1.8l0.8,1.8
	l1.1,1.8l1.4,1.6l1.6,1.6l1.9,1.5l1.7,1.1 M696.8,197.4l-0.5,0.3 M754.3,211l-0.1-0.8l-0.3-1.9l-0.7-1.8l-1-1.8l-1.3-1.7l-1.5-1.7
	l-1.9-1.5l-2-1.5l-1.6-0.9 M696.3,197.7l-2.2,1.4l-2,1.4l-1.6,1.6l-1.5,1.7l-1.1,1.8l-0.8,1.8l-0.6,1.8l-0.2,1.8 M679.2,186.7
	l-0.3,0.2l-0.1,0.4l0.1,0.3l0.3,0.2l0.5,0.2l0.5,0.1l0.6-0.1l0.4-0.2l0.3-0.2l0.1-0.3l-0.1-0.4l-0.3-0.2l-0.4-0.2l-0.6-0.1l-0.5,0.1
	L679.2,186.7 M696.3,196.5l-2.2,1.4l-2,1.5l-1.6,1.6l-1.5,1.7l-1.1,1.7l-0.8,1.8l-0.6,1.9l-0.2,1.8l0.1,1.9l0.4,1.9l0.7,1.8l0.9,1.8
	l1.3,1.7l1.6,1.6l1.8,1.6l2,1.4l2.3,1.3l2.5,1.2l2.7,1.1l2.8,0.9l3,0.7l3.1,0.6l3.2,0.4l3.2,0.2h3.2l3.3-0.1l3.1-0.3l3.2-0.5l3-0.7
	l2.9-0.8l2.8-0.9l2.6-1.2l2.4-1.2l2.1-1.4l2-1.5l1.7-1.6l1.4-1.7l1.1-1.7l0.9-1.8l0.5-1.9l0.2-1.8l-0.1-1.9l-0.3-1.9l-0.7-1.8
	l-1-1.8l-1.3-1.7l-1.5-1.6l-1.9-1.6l-2-1.4l-2.3-1.3l-2.5-1.2l-2.7-1.1l-2.8-0.9l-3-0.7l-3.1-0.6L726,191l-3.3-0.2h-3.2l-3.2,0.1
	l-3.2,0.3l-3.1,0.5l-3.1,0.6l-2.9,0.9l-2.8,0.9l-2.5,1.2L696.3,196.5 M629.6,238.2v1.6l0.4,3.2l0.7,3.2l1,3.2l1.4,3.1l1.7,3.1l2,3
	l2.3,2.9l2.7,2.9l2.9,2.7l3.2,2.6l3.5,2.5l3.8,2.4 M657.2,271.1l-0.3-0.1l-0.2-0.1l-0.3-0.2l-0.2-0.1l-0.3-0.2l-0.2-0.1l-0.3-0.2
	l-0.2-0.1 M657.2,275.8v-4.7 M657.2,275.8l4.1,2.1l4.4,2.1l4.5,1.8l4.8,1.7l4.9,1.5l5,1.4l5.3,1.2l5.3,0.9l5.4,0.8l5.5,0.6l5.5,0.4
	l5.6,0.2h3 M765.6,283.5l1.7-0.5l4.4-1.7l4.4-1.8l4.1-2l3.9-2.1l3.7-2.2l3.4-2.4l3.2-2.4l3-2.6l2.6-2.7l2.4-2.7l2.2-2.8l1.8-2.9
	l1.5-3l1.3-3l0.9-3l0.6-3.1l0.3-3v-1.4 M669.2,180.9l-3.2,2l-3,2.1l-2.8,2.2l-2.5,2.3l-2.2,2.4l-2,2.5l-1.6,2.6l-1.4,2.6l-1.1,2.7
	l-0.8,2.7l-0.4,2.7l-0.2,2.7l0.2,2.7l0.4,2.7l0.8,2.7l1.1,2.7l1.4,2.6l1.6,2.6l2,2.5l2.2,2.4l2.5,2.3l2.8,2.2l3,2.1l3.2,2l3.5,1.9
	l3.6,1.7l3.9,1.6l4,1.4l4.1,1.3l4.4,1.1l4.4,1l4.5,0.8l4.6,0.6l4.7,0.5l4.7,0.2l4.7,0.1l4.7-0.1l4.7-0.2l4.7-0.5l4.6-0.6l4.5-0.8
	l4.5-1l4.3-1.1l4.2-1.3l4-1.4l3.8-1.6l3.7-1.7l3.4-1.9l3.3-2l3-2.1l2.7-2.2l2.5-2.3l2.2-2.4l2-2.5l1.7-2.6l1.3-2.6l1.1-2.7l0.8-2.7
	l0.4-2.7l0.2-2.7l-0.2-2.7L792,205l-0.8-2.7l-1.1-2.7l-1.3-2.6l-1.7-2.6l-2-2.5l-2.2-2.4l-2.5-2.3l-2.7-2.2l-3-2.1l-3.3-2L768,179
	l-3.7-1.7l-3.8-1.6l-4-1.4l-4.2-1.3l-4.3-1.2l-4.5-0.9l-4.5-0.8l-4.6-0.6l-4.7-0.5l-4.7-0.2l-4.7-0.1l-4.7,0.1l-4.7,0.2l-4.7,0.5
	l-4.6,0.6l-4.5,0.8l-4.4,0.9l-4.4,1.2l-4.1,1.3l-4,1.4l-3.9,1.6l-3.6,1.7L669.2,180.9 M684.6,173.8l-2.6,0.7l-4.7,1.4l-4.6,1.5
	l-4.4,1.7l-4.2,1.8l-4.1,2l-3.8,2 M656.2,184.9l-3.6,2.3l-3.4,2.3l-3.2,2.4l-2.9,2.6l-2.6,2.6l-2.4,2.7l-2.1,2.8l-1.8,2.9l-1.5,2.9
	l-1.2,3l-0.9,3l-0.7,3l-0.3,3v3.1l0.3,3l0.7,3.1l0.9,3l1.2,2.9l1.5,2.9l1.8,2.9l2.1,2.8l2.4,2.7l2.6,2.7l2.9,2.5l3.2,2.4l3.4,2.4
	l3.6,2.2l3.8,2.1l4.1,1.9l4.2,1.9l4.4,1.6l4.6,1.6l4.7,1.3l4.8,1.2l5,1.1l5,0.9l5.2,0.7l5.2,0.5l5.2,0.3l5.3,0.2h5.3l5.2-0.2
	l5.3-0.3l5.2-0.5l5.1-0.7l5-0.9l5-1.1l4.8-1.2l4.8-1.3l4.5-1.6l4.4-1.6l4.3-1.9l4-1.9l3.9-2.1l3.6-2.2l3.4-2.4l3.1-2.4l2.9-2.5
	l2.7-2.7l2.3-2.7l2.1-2.8l1.8-2.9l1.5-2.9l1.2-2.9l1-3l0.6-3.1l0.3-3v-3.1l-0.3-3l-0.6-3l-1-3l-1.2-3l-1.5-2.9l-1.8-2.9l-2.1-2.8
	l-2.3-2.7l-2.7-2.6l-2.9-2.6l-3.1-2.4l-3.4-2.3l-3.6-2.3l-3.9-2l-4-2l-4.3-1.8l-4.4-1.7l-4.5-1.5l-4.8-1.4l-2.5-0.7 M786.9,185.3
	l-1-0.6 M785.9,184.8l-0.9-0.5l-2-0.9l-2-0.6l-0.7-0.1 M793.2,190.9l-1.4-1.6l-1.7-1.7l-1.9-1.4l-1.3-0.8 M626.4,255.7l0.4,1.2
	l0.6,1.2l0.9,1.2l1.1,1l0.7,0.5 M625.4,250.5v1.1l0.2,0.7 M625.6,252.3l0.6,2.4l0.2,1 M629,210.3l-0.4,0.8 M634.8,204.6l-0.8,0.3
	l-1.1,0.6l-1.1,0.8l-1,1l-0.9,1.3l-0.8,1.5l-0.1,0.2 M625.4,237.3v13.2 M625.4,232v2v0.8 M625.4,234.8v1.2v1.3 M628.6,211.2
	l-0.4,0.8l-0.7,2l-0.5,2.1l-0.5,2.2l-0.3,2.3l-0.3,2.3l-0.2,2.3l-0.1,2.4l-0.1,2.2l-0.1,2.2 M630.1,260.8l0.3,0.3 M761.4,309.2
	L761.4,309.2l1.1-0.5l0.9-0.6l0.8-0.7l0.5-0.7l0.4-0.8l0.3-0.8l0.2-0.8l0.1-0.9 M765.7,303.4l0.2-2.7 M765.9,300.9v-0.6v-0.5
	 M723.5,314.6l0.8,0.1l1,0.1 M690.2,303.9l1.3,0.7l2.8,1.3l2.8,1.2l2.7,1.1l2.5,0.9l2.7,0.9l2.8,0.7l2.6,0.7l2.5,0.6l2.4,0.6
	l2.2,0.5l2,0.5l2.2,0.5l1.8,0.5 M765.9,299.9v-13.2 M725,314.8l2.7-0.1l5.1-0.3l5-0.5l5-0.7l4.9-0.8l4.8-0.9l4.8-1.2l4.1-1.1
	 M765.9,286.7l-0.1-2.2l-0.4-2.1l-0.5-1.4 M655.1,279.3l0.4,0.3l1.1,0.6 M655.1,274.9v4.4 M684.6,302.5l7.2,1.8 M811,254.4v-16.2
	 M629.6,238.2v16.2 M655.1,270.5v4.4 M752.9,211.6v-1.2 M687.7,210.4v1.2 M811,238.2V222 M629.6,222v16.2 M691.8,172l-7.2,1.8
	 M756.1,173.8l-7.3-1.8"/>
<g>
	<path d="M326.7,38.5c-0.1-1.1-0.1-2.5-0.1-3.5h0c-0.3,0.9-0.6,2-1,3.1l-1.4,3.9h-0.8l-1.3-3.9c-0.4-1.1-0.7-2.2-0.9-3.1h0
		c0,1-0.1,2.4-0.2,3.6l-0.2,3.5h-1l0.6-8.1h1.3l1.4,3.9c0.3,1,0.6,1.9,0.8,2.7h0c0.2-0.8,0.5-1.7,0.9-2.7l1.4-3.9h1.3l0.5,8.1h-1
		L326.7,38.5z"/>
	<path d="M332.8,42l-0.1-0.7h0c-0.3,0.5-0.9,0.9-1.8,0.9c-1.2,0-1.8-0.8-1.8-1.7c0-1.4,1.2-2.2,3.5-2.2v-0.1c0-0.5-0.1-1.3-1.3-1.3
		c-0.5,0-1.1,0.2-1.5,0.4l-0.2-0.7c0.5-0.3,1.2-0.5,1.9-0.5c1.8,0,2.2,1.2,2.2,2.4v2.2c0,0.5,0,1,0.1,1.4H332.8z M332.7,39
		c-1.2,0-2.5,0.2-2.5,1.3c0,0.7,0.5,1,1,1c0.8,0,1.2-0.5,1.4-1c0-0.1,0.1-0.2,0.1-0.3V39z"/>
	<path d="M336.6,34.6c0,0.4-0.3,0.6-0.7,0.6c-0.4,0-0.6-0.3-0.6-0.6c0-0.4,0.3-0.7,0.7-0.7C336.3,33.9,336.6,34.2,336.6,34.6z
		 M335.4,42v-5.8h1.1V42H335.4z"/>
	<path d="M338.2,37.8c0-0.6,0-1.1,0-1.6h0.9l0.1,1h0c0.3-0.6,1-1.1,1.9-1.1c0.8,0,2.1,0.5,2.1,2.5V42h-1.1v-3.3
		c0-0.9-0.3-1.7-1.3-1.7c-0.7,0-1.2,0.5-1.4,1.1c0,0.1-0.1,0.3-0.1,0.5V42h-1.1V37.8z"/>
	<path d="M347.4,34c0.5-0.1,1.2-0.2,1.9-0.2c1,0,1.7,0.2,2.2,0.6c0.4,0.3,0.7,0.8,0.7,1.4c0,0.8-0.5,1.5-1.4,1.8v0
		c0.8,0.2,1.7,0.8,1.7,2c0,0.7-0.3,1.2-0.7,1.6c-0.6,0.5-1.5,0.8-2.8,0.8c-0.7,0-1.3,0-1.6-0.1V34z M348.5,37.3h0.9
		c1.1,0,1.8-0.6,1.8-1.4c0-0.9-0.7-1.3-1.8-1.3c-0.5,0-0.8,0-0.9,0.1V37.3z M348.5,41.2c0.2,0,0.5,0,0.9,0c1.1,0,2.1-0.4,2.1-1.6
		c0-1.1-0.9-1.6-2.1-1.6h-0.9V41.2z"/>
	<path d="M359.2,39c0,2.1-1.5,3.1-2.9,3.1c-1.6,0-2.8-1.2-2.8-3c0-1.9,1.3-3.1,2.9-3.1C358.1,36.1,359.2,37.3,359.2,39z M354.6,39.1
		c0,1.3,0.7,2.2,1.8,2.2c1,0,1.8-0.9,1.8-2.3c0-1-0.5-2.2-1.7-2.2C355.1,36.9,354.6,38,354.6,39.1z"/>
	<path d="M365.5,33.5v7c0,0.5,0,1.1,0,1.5h-0.9l0-1h0c-0.3,0.6-1,1.1-2,1.1c-1.4,0-2.5-1.2-2.5-3c0-1.9,1.2-3.1,2.6-3.1
		c0.9,0,1.5,0.4,1.8,0.9h0v-3.5H365.5z M364.5,38.6c0-0.1,0-0.3,0-0.4c-0.2-0.7-0.7-1.2-1.5-1.2c-1.1,0-1.7,1-1.7,2.2
		c0,1.2,0.6,2.1,1.7,2.1c0.7,0,1.4-0.5,1.5-1.3c0-0.1,0-0.3,0-0.5V38.6z"/>
	<path d="M367.7,36.2l1.3,3.4c0.1,0.4,0.3,0.8,0.4,1.2h0c0.1-0.3,0.2-0.8,0.4-1.2l1.2-3.4h1.1l-1.6,4.1c-0.8,2-1.3,3-2,3.6
		c-0.5,0.5-1,0.6-1.3,0.7l-0.3-0.9c0.3-0.1,0.6-0.3,0.9-0.5c0.3-0.2,0.6-0.6,0.9-1.2c0-0.1,0.1-0.2,0.1-0.3c0-0.1,0-0.1-0.1-0.3
		l-2.1-5.3H367.7z"/>
	<path d="M381.2,41.7c-0.4,0.2-1.2,0.4-2.1,0.4c-2.3,0-4-1.4-4-4.1c0-2.5,1.7-4.2,4.2-4.2c1,0,1.6,0.2,1.9,0.4l-0.3,0.9
		c-0.4-0.2-1-0.3-1.6-0.3c-1.9,0-3.2,1.2-3.2,3.3c0,2,1.1,3.3,3.1,3.3c0.6,0,1.3-0.1,1.7-0.3L381.2,41.7z"/>
	<path d="M387.6,39c0,2.1-1.5,3.1-2.9,3.1c-1.6,0-2.8-1.2-2.8-3c0-1.9,1.3-3.1,2.9-3.1C386.4,36.1,387.6,37.3,387.6,39z M383,39.1
		c0,1.3,0.7,2.2,1.8,2.2c1,0,1.8-0.9,1.8-2.3c0-1-0.5-2.2-1.7-2.2C383.5,36.9,383,38,383,39.1z"/>
	<path d="M389.2,36.2l1.1,3.3c0.2,0.5,0.3,1,0.5,1.5h0c0.1-0.5,0.3-1,0.5-1.5l1.1-3.3h1.1l-2.3,5.8h-1l-2.2-5.8H389.2z"/>
	<path d="M395.1,39.3c0,1.4,0.9,2,2,2c0.8,0,1.2-0.1,1.6-0.3l0.2,0.8c-0.4,0.2-1,0.4-1.9,0.4c-1.8,0-2.9-1.2-2.9-2.9s1-3.1,2.7-3.1
		c1.9,0,2.4,1.7,2.4,2.7c0,0.2,0,0.4,0,0.5H395.1z M398.2,38.5c0-0.7-0.3-1.7-1.5-1.7c-1.1,0-1.5,1-1.6,1.7H398.2z"/>
	<path d="M400.5,38c0-0.7,0-1.3,0-1.8h0.9l0,1.1h0c0.3-0.8,0.9-1.3,1.6-1.3c0.1,0,0.2,0,0.3,0v1c-0.1,0-0.2,0-0.4,0
		c-0.7,0-1.3,0.6-1.4,1.4c0,0.1,0,0.3,0,0.5V42h-1V38z"/>
</g>
<g>
	<path d="M366.9,160.7c0.5-0.1,1.2-0.2,1.9-0.2c1,0,1.7,0.2,2.2,0.6c0.4,0.3,0.7,0.8,0.7,1.4c0,0.8-0.5,1.5-1.4,1.8v0
		c0.8,0.2,1.7,0.8,1.7,2c0,0.7-0.3,1.2-0.7,1.6c-0.6,0.5-1.5,0.8-2.8,0.8c-0.7,0-1.3,0-1.6-0.1V160.7z M368,164h0.9
		c1.1,0,1.8-0.6,1.8-1.4c0-0.9-0.7-1.3-1.8-1.3c-0.5,0-0.8,0-0.9,0.1V164z M368,167.9c0.2,0,0.5,0,0.9,0c1.1,0,2.1-0.4,2.1-1.6
		c0-1.1-0.9-1.6-2.1-1.6H368V167.9z"/>
	<path d="M376.6,168.7l-0.1-0.7h0c-0.3,0.5-0.9,0.9-1.8,0.9c-1.2,0-1.8-0.8-1.8-1.7c0-1.4,1.2-2.2,3.5-2.2v-0.1
		c0-0.5-0.1-1.3-1.3-1.3c-0.5,0-1.1,0.2-1.5,0.4l-0.2-0.7c0.5-0.3,1.2-0.5,1.9-0.5c1.8,0,2.2,1.2,2.2,2.4v2.2c0,0.5,0,1,0.1,1.4
		H376.6z M376.4,165.7c-1.2,0-2.5,0.2-2.5,1.3c0,0.7,0.5,1,1,1c0.8,0,1.2-0.5,1.4-1c0-0.1,0.1-0.2,0.1-0.3V165.7z"/>
	<path d="M380.4,161.2v1.7h1.5v0.8h-1.5v3.1c0,0.7,0.2,1.1,0.8,1.1c0.3,0,0.5,0,0.6-0.1l0,0.8c-0.2,0.1-0.5,0.1-0.9,0.1
		c-0.5,0-0.9-0.2-1.1-0.4c-0.3-0.3-0.4-0.8-0.4-1.5v-3.2h-0.9v-0.8h0.9v-1.4L380.4,161.2z"/>
	<path d="M384.4,161.2v1.7h1.5v0.8h-1.5v3.1c0,0.7,0.2,1.1,0.8,1.1c0.3,0,0.5,0,0.6-0.1l0,0.8c-0.2,0.1-0.5,0.1-0.9,0.1
		c-0.5,0-0.9-0.2-1.1-0.4c-0.3-0.3-0.4-0.8-0.4-1.5v-3.2h-0.9v-0.8h0.9v-1.4L384.4,161.2z"/>
	<path d="M387.6,166c0,1.4,0.9,2,2,2c0.8,0,1.2-0.1,1.6-0.3l0.2,0.8c-0.4,0.2-1,0.4-1.9,0.4c-1.8,0-2.9-1.2-2.9-2.9s1-3.1,2.7-3.1
		c1.9,0,2.4,1.7,2.4,2.7c0,0.2,0,0.4,0,0.5H387.6z M390.7,165.2c0-0.7-0.3-1.7-1.5-1.7c-1.1,0-1.5,1-1.6,1.7H390.7z"/>
	<path d="M393,164.7c0-0.7,0-1.3,0-1.8h0.9l0,1.1h0c0.3-0.8,0.9-1.3,1.6-1.3c0.1,0,0.2,0,0.3,0v1c-0.1,0-0.2,0-0.4,0
		c-0.7,0-1.3,0.6-1.4,1.4c0,0.1,0,0.3,0,0.5v3.1h-1V164.7z"/>
	<path d="M397.6,162.9l1.3,3.4c0.1,0.4,0.3,0.8,0.4,1.2h0c0.1-0.3,0.2-0.8,0.4-1.2l1.2-3.4h1.1l-1.6,4.1c-0.8,2-1.3,3-2,3.6
		c-0.5,0.5-1,0.6-1.3,0.7l-0.3-0.9c0.3-0.1,0.6-0.3,0.9-0.5c0.3-0.2,0.6-0.6,0.9-1.2c0-0.1,0.1-0.2,0.1-0.3c0-0.1,0-0.1-0.1-0.3
		l-2.1-5.3H397.6z"/>
	<path d="M406.5,161.5H404v-0.9h6v0.9h-2.5v7.2h-1.1V161.5z"/>
	<path d="M413.3,168.7l-0.1-0.7h0c-0.3,0.5-0.9,0.9-1.8,0.9c-1.2,0-1.8-0.8-1.8-1.7c0-1.4,1.2-2.2,3.5-2.2v-0.1
		c0-0.5-0.1-1.3-1.3-1.3c-0.5,0-1.1,0.2-1.5,0.4l-0.2-0.7c0.5-0.3,1.2-0.5,1.9-0.5c1.8,0,2.2,1.2,2.2,2.4v2.2c0,0.5,0,1,0.1,1.4
		H413.3z M413.2,165.7c-1.2,0-2.5,0.2-2.5,1.3c0,0.7,0.5,1,1,1c0.8,0,1.2-0.5,1.4-1c0-0.1,0.1-0.2,0.1-0.3V165.7z"/>
	<path d="M415.9,168.7c0-0.4,0-1,0-1.5v-7h1v3.6h0c0.4-0.6,1-1.1,2-1.1c1.4,0,2.5,1.2,2.4,3c0,2.1-1.3,3.1-2.6,3.1
		c-0.8,0-1.5-0.3-1.9-1.1h0l0,1H415.9z M417,166.4c0,0.1,0,0.3,0,0.4c0.2,0.7,0.8,1.2,1.6,1.2c1.1,0,1.8-0.9,1.8-2.2
		c0-1.2-0.6-2.2-1.7-2.2c-0.7,0-1.4,0.5-1.6,1.3c0,0.1-0.1,0.3-0.1,0.4V166.4z"/>
</g>
<g>
	<path d="M379.9,219.5c0.5-0.1,1.2-0.2,1.9-0.2c1,0,1.7,0.2,2.2,0.6c0.4,0.3,0.7,0.8,0.7,1.4c0,0.8-0.5,1.5-1.4,1.8v0
		c0.8,0.2,1.7,0.8,1.7,2c0,0.7-0.3,1.2-0.7,1.6c-0.6,0.5-1.5,0.8-2.8,0.8c-0.7,0-1.3,0-1.6-0.1V219.5z M381,222.8h0.9
		c1.1,0,1.8-0.6,1.8-1.4c0-0.9-0.7-1.3-1.8-1.3c-0.5,0-0.8,0-0.9,0.1V222.8z M381,226.7c0.2,0,0.5,0,0.9,0c1.1,0,2.1-0.4,2.1-1.6
		c0-1.1-0.9-1.6-2.1-1.6H381V226.7z"/>
	<path d="M389.6,227.5l-0.1-0.7h0c-0.3,0.5-0.9,0.9-1.8,0.9c-1.2,0-1.8-0.8-1.8-1.7c0-1.4,1.2-2.2,3.5-2.2v-0.1
		c0-0.5-0.1-1.3-1.3-1.3c-0.5,0-1.1,0.2-1.5,0.4l-0.2-0.7c0.5-0.3,1.2-0.5,1.9-0.5c1.8,0,2.2,1.2,2.2,2.4v2.2c0,0.5,0,1,0.1,1.4
		H389.6z M389.4,224.5c-1.2,0-2.5,0.2-2.5,1.3c0,0.7,0.5,1,1,1c0.8,0,1.2-0.5,1.4-1c0-0.1,0.1-0.2,0.1-0.3V224.5z"/>
	<path d="M393.4,220v1.7h1.5v0.8h-1.5v3.1c0,0.7,0.2,1.1,0.8,1.1c0.3,0,0.5,0,0.6-0.1l0,0.8c-0.2,0.1-0.5,0.1-0.9,0.1
		c-0.5,0-0.9-0.2-1.1-0.4c-0.3-0.3-0.4-0.8-0.4-1.5v-3.2h-0.9v-0.8h0.9v-1.4L393.4,220z"/>
	<path d="M397.4,220v1.7h1.5v0.8h-1.5v3.1c0,0.7,0.2,1.1,0.8,1.1c0.3,0,0.5,0,0.6-0.1l0,0.8c-0.2,0.1-0.5,0.1-0.9,0.1
		c-0.5,0-0.9-0.2-1.1-0.4c-0.3-0.3-0.4-0.8-0.4-1.5v-3.2h-0.9v-0.8h0.9v-1.4L397.4,220z"/>
	<path d="M400.6,224.8c0,1.4,0.9,2,2,2c0.8,0,1.2-0.1,1.6-0.3l0.2,0.8c-0.4,0.2-1,0.4-1.9,0.4c-1.8,0-2.9-1.2-2.9-2.9s1-3.1,2.7-3.1
		c1.9,0,2.4,1.7,2.4,2.7c0,0.2,0,0.4,0,0.5H400.6z M403.7,224c0-0.7-0.3-1.7-1.5-1.7c-1.1,0-1.5,1-1.6,1.7H403.7z"/>
	<path d="M406,223.5c0-0.7,0-1.3,0-1.8h0.9l0,1.1h0c0.3-0.8,0.9-1.3,1.6-1.3c0.1,0,0.2,0,0.3,0v1c-0.1,0-0.2,0-0.4,0
		c-0.7,0-1.3,0.6-1.4,1.4c0,0.1,0,0.3,0,0.5v3.1h-1V223.5z"/>
	<path d="M410.6,221.7l1.3,3.4c0.1,0.4,0.3,0.8,0.4,1.2h0c0.1-0.3,0.2-0.8,0.4-1.2l1.2-3.4h1.1l-1.6,4.1c-0.8,2-1.3,3-2,3.6
		c-0.5,0.5-1,0.6-1.3,0.7l-0.3-0.9c0.3-0.1,0.6-0.3,0.9-0.5c0.3-0.2,0.6-0.6,0.9-1.2c0-0.1,0.1-0.2,0.1-0.3c0-0.1,0-0.1-0.1-0.3
		l-2.1-5.3H410.6z"/>
</g>
<g>
	<path d="M325.7,278.5c-0.1-1.1-0.1-2.5-0.1-3.5h0c-0.3,0.9-0.6,2-1,3.1l-1.4,3.9h-0.8l-1.3-3.9c-0.4-1.1-0.7-2.2-0.9-3.1h0
		c0,1-0.1,2.4-0.2,3.6l-0.2,3.5h-1l0.6-8.1h1.3l1.4,3.9c0.3,1,0.6,1.9,0.8,2.7h0c0.2-0.8,0.5-1.7,0.9-2.7l1.4-3.9h1.3l0.5,8.1h-1
		L325.7,278.5z"/>
	<path d="M331.8,282l-0.1-0.7h0c-0.3,0.5-0.9,0.9-1.8,0.9c-1.2,0-1.8-0.8-1.8-1.7c0-1.4,1.2-2.2,3.5-2.2v-0.1c0-0.5-0.1-1.3-1.3-1.3
		c-0.5,0-1.1,0.2-1.5,0.4l-0.2-0.7c0.5-0.3,1.2-0.5,1.9-0.5c1.8,0,2.2,1.2,2.2,2.4v2.2c0,0.5,0,1,0.1,1.4H331.8z M331.7,279
		c-1.2,0-2.5,0.2-2.5,1.3c0,0.7,0.5,1,1,1c0.8,0,1.2-0.5,1.4-1c0-0.1,0.1-0.2,0.1-0.3V279z"/>
	<path d="M335.6,274.6c0,0.4-0.3,0.6-0.7,0.6c-0.4,0-0.6-0.3-0.6-0.6c0-0.4,0.3-0.7,0.7-0.7C335.3,273.9,335.6,274.2,335.6,274.6z
		 M334.4,282v-5.8h1.1v5.8H334.4z"/>
	<path d="M337.2,277.8c0-0.6,0-1.1,0-1.6h0.9l0.1,1h0c0.3-0.6,1-1.1,1.9-1.1c0.8,0,2.1,0.5,2.1,2.5v3.5h-1.1v-3.3
		c0-0.9-0.3-1.7-1.3-1.7c-0.7,0-1.2,0.5-1.4,1.1c0,0.1-0.1,0.3-0.1,0.5v3.5h-1.1V277.8z"/>
	<path d="M346.4,274c0.5-0.1,1.2-0.2,1.9-0.2c1,0,1.7,0.2,2.2,0.6c0.4,0.3,0.7,0.8,0.7,1.4c0,0.8-0.5,1.5-1.4,1.8v0
		c0.8,0.2,1.7,0.8,1.7,2c0,0.7-0.3,1.2-0.7,1.6c-0.6,0.5-1.5,0.8-2.8,0.8c-0.7,0-1.3,0-1.6-0.1V274z M347.5,277.3h0.9
		c1.1,0,1.8-0.6,1.8-1.4c0-0.9-0.7-1.3-1.8-1.3c-0.5,0-0.8,0-0.9,0.1V277.3z M347.5,281.2c0.2,0,0.5,0,0.9,0c1.1,0,2.1-0.4,2.1-1.6
		c0-1.1-0.9-1.6-2.1-1.6h-0.9V281.2z"/>
	<path d="M358.2,279c0,2.1-1.5,3.1-2.9,3.1c-1.6,0-2.8-1.2-2.8-3c0-1.9,1.3-3.1,2.9-3.1C357.1,276.1,358.2,277.3,358.2,279z
		 M353.6,279.1c0,1.3,0.7,2.2,1.8,2.2c1,0,1.8-0.9,1.8-2.3c0-1-0.5-2.2-1.7-2.2C354.1,276.9,353.6,278,353.6,279.1z"/>
	<path d="M364.5,273.5v7c0,0.5,0,1.1,0,1.5h-0.9l0-1h0c-0.3,0.6-1,1.1-2,1.1c-1.4,0-2.5-1.2-2.5-3c0-1.9,1.2-3.1,2.6-3.1
		c0.9,0,1.5,0.4,1.8,0.9h0v-3.5H364.5z M363.5,278.6c0-0.1,0-0.3,0-0.4c-0.2-0.7-0.7-1.2-1.5-1.2c-1.1,0-1.7,1-1.7,2.2
		c0,1.2,0.6,2.1,1.7,2.1c0.7,0,1.4-0.5,1.5-1.3c0-0.1,0-0.3,0-0.5V278.6z"/>
	<path d="M366.7,276.2l1.3,3.4c0.1,0.4,0.3,0.8,0.4,1.2h0c0.1-0.3,0.2-0.8,0.4-1.2l1.2-3.4h1.1l-1.6,4.1c-0.8,2-1.3,3-2,3.6
		c-0.5,0.5-1,0.6-1.3,0.7l-0.3-0.9c0.3-0.1,0.6-0.3,0.9-0.5c0.3-0.2,0.6-0.6,0.9-1.2c0-0.1,0.1-0.2,0.1-0.3c0-0.1,0-0.1-0.1-0.3
		l-2.1-5.3H366.7z"/>
	<path d="M374.5,274c0.5-0.1,1.2-0.2,1.9-0.2c1,0,1.7,0.2,2.2,0.6c0.4,0.3,0.7,0.8,0.7,1.4c0,0.8-0.5,1.5-1.4,1.8v0
		c0.8,0.2,1.7,0.8,1.7,2c0,0.7-0.3,1.2-0.7,1.6c-0.6,0.5-1.5,0.8-2.8,0.8c-0.7,0-1.3,0-1.6-0.1V274z M375.6,277.3h0.9
		c1.1,0,1.8-0.6,1.8-1.4c0-0.9-0.7-1.3-1.8-1.3c-0.5,0-0.8,0-0.9,0.1V277.3z M375.6,281.2c0.2,0,0.5,0,0.9,0c1.1,0,2.1-0.4,2.1-1.6
		c0-1.1-0.9-1.6-2.1-1.6h-0.9V281.2z"/>
	<path d="M384.2,282l-0.1-0.7h0c-0.3,0.5-0.9,0.9-1.8,0.9c-1.2,0-1.8-0.8-1.8-1.7c0-1.4,1.2-2.2,3.5-2.2v-0.1c0-0.5-0.1-1.3-1.3-1.3
		c-0.5,0-1.1,0.2-1.5,0.4l-0.2-0.7c0.5-0.3,1.2-0.5,1.9-0.5c1.8,0,2.2,1.2,2.2,2.4v2.2c0,0.5,0,1,0.1,1.4H384.2z M384.1,279
		c-1.2,0-2.5,0.2-2.5,1.3c0,0.7,0.5,1,1,1c0.8,0,1.2-0.5,1.4-1c0-0.1,0.1-0.2,0.1-0.3V279z"/>
	<path d="M386.6,280.9c0.3,0.2,0.9,0.4,1.4,0.4c0.8,0,1.1-0.4,1.1-0.9c0-0.5-0.3-0.8-1.1-1.1c-1-0.4-1.5-0.9-1.5-1.6
		c0-0.9,0.8-1.7,2-1.7c0.6,0,1.1,0.2,1.4,0.4l-0.3,0.8c-0.2-0.1-0.6-0.3-1.2-0.3c-0.6,0-1,0.4-1,0.8c0,0.5,0.3,0.7,1.1,1
		c1,0.4,1.5,0.9,1.5,1.8c0,1-0.8,1.7-2.2,1.7c-0.6,0-1.2-0.2-1.6-0.4L386.6,280.9z"/>
	<path d="M392.1,279.3c0,1.4,0.9,2,2,2c0.8,0,1.2-0.1,1.6-0.3l0.2,0.8c-0.4,0.2-1,0.4-1.9,0.4c-1.8,0-2.9-1.2-2.9-2.9s1-3.1,2.7-3.1
		c1.9,0,2.4,1.7,2.4,2.7c0,0.2,0,0.4,0,0.5H392.1z M395.2,278.5c0-0.7-0.3-1.7-1.5-1.7c-1.1,0-1.5,1-1.6,1.7H395.2z"/>
</g>
<g>
	<path d="M311.7,337.5c-0.1-1.1-0.1-2.5-0.1-3.5h0c-0.3,0.9-0.6,2-1,3.1l-1.4,3.9h-0.8l-1.3-3.9c-0.4-1.1-0.7-2.2-0.9-3.1h0
		c0,1-0.1,2.4-0.2,3.6l-0.2,3.5h-1l0.6-8.1h1.3l1.4,3.9c0.3,1,0.6,1.9,0.8,2.7h0c0.2-0.8,0.5-1.7,0.9-2.7l1.4-3.9h1.3l0.5,8.1h-1
		L311.7,337.5z"/>
	<path d="M317.8,341l-0.1-0.7h0c-0.3,0.5-0.9,0.9-1.8,0.9c-1.2,0-1.8-0.8-1.8-1.7c0-1.4,1.2-2.2,3.5-2.2v-0.1c0-0.5-0.1-1.3-1.3-1.3
		c-0.5,0-1.1,0.2-1.5,0.4l-0.2-0.7c0.5-0.3,1.2-0.5,1.9-0.5c1.8,0,2.2,1.2,2.2,2.4v2.2c0,0.5,0,1,0.1,1.4H317.8z M317.7,338
		c-1.2,0-2.5,0.2-2.5,1.3c0,0.7,0.5,1,1,1c0.8,0,1.2-0.5,1.4-1c0-0.1,0.1-0.2,0.1-0.3V338z"/>
	<path d="M321.6,333.6c0,0.4-0.3,0.6-0.7,0.6c-0.4,0-0.6-0.3-0.6-0.6c0-0.4,0.3-0.7,0.7-0.7C321.3,332.9,321.6,333.2,321.6,333.6z
		 M320.4,341v-5.8h1.1v5.8H320.4z"/>
	<path d="M323.2,336.8c0-0.6,0-1.1,0-1.6h0.9l0.1,1h0c0.3-0.6,1-1.1,1.9-1.1c0.8,0,2.1,0.5,2.1,2.5v3.5h-1.1v-3.3
		c0-0.9-0.3-1.7-1.3-1.7c-0.7,0-1.2,0.5-1.4,1.1c0,0.1-0.1,0.3-0.1,0.5v3.5h-1.1V336.8z"/>
	<path d="M332.4,333c0.5-0.1,1.2-0.2,1.9-0.2c1,0,1.7,0.2,2.2,0.6c0.4,0.3,0.7,0.8,0.7,1.4c0,0.8-0.5,1.5-1.4,1.8v0
		c0.8,0.2,1.7,0.8,1.7,2c0,0.7-0.3,1.2-0.7,1.6c-0.6,0.5-1.5,0.8-2.8,0.8c-0.7,0-1.3,0-1.6-0.1V333z M333.5,336.3h0.9
		c1.1,0,1.8-0.6,1.8-1.4c0-0.9-0.7-1.3-1.8-1.3c-0.5,0-0.8,0-0.9,0.1V336.3z M333.5,340.2c0.2,0,0.5,0,0.9,0c1.1,0,2.1-0.4,2.1-1.6
		c0-1.1-0.9-1.6-2.1-1.6h-0.9V340.2z"/>
	<path d="M344.2,338c0,2.1-1.5,3.1-2.9,3.1c-1.6,0-2.8-1.2-2.8-3c0-1.9,1.3-3.1,2.9-3.1C343.1,335.1,344.2,336.3,344.2,338z
		 M339.6,338.1c0,1.3,0.7,2.2,1.8,2.2c1,0,1.8-0.9,1.8-2.3c0-1-0.5-2.2-1.7-2.2C340.1,335.9,339.6,337,339.6,338.1z"/>
	<path d="M350.5,332.5v7c0,0.5,0,1.1,0,1.5h-0.9l0-1h0c-0.3,0.6-1,1.1-2,1.1c-1.4,0-2.5-1.2-2.5-3c0-1.9,1.2-3.1,2.6-3.1
		c0.9,0,1.5,0.4,1.8,0.9h0v-3.5H350.5z M349.5,337.6c0-0.1,0-0.3,0-0.4c-0.2-0.7-0.7-1.2-1.5-1.2c-1.1,0-1.7,1-1.7,2.2
		c0,1.2,0.6,2.1,1.7,2.1c0.7,0,1.4-0.5,1.5-1.3c0-0.1,0-0.3,0-0.5V337.6z"/>
	<path d="M352.7,335.2l1.3,3.4c0.1,0.4,0.3,0.8,0.4,1.2h0c0.1-0.3,0.2-0.8,0.4-1.2l1.2-3.4h1.1l-1.6,4.1c-0.8,2-1.3,3-2,3.6
		c-0.5,0.5-1,0.6-1.3,0.7l-0.3-0.9c0.3-0.1,0.6-0.3,0.9-0.5c0.3-0.2,0.6-0.6,0.9-1.2c0-0.1,0.1-0.2,0.1-0.3c0-0.1,0-0.1-0.1-0.3
		l-2.1-5.3H352.7z"/>
	<path d="M366.2,340.7c-0.4,0.2-1.2,0.4-2.1,0.4c-2.3,0-4-1.4-4-4.1c0-2.5,1.7-4.2,4.2-4.2c1,0,1.6,0.2,1.9,0.4l-0.3,0.9
		c-0.4-0.2-1-0.3-1.6-0.3c-1.9,0-3.2,1.2-3.2,3.3c0,2,1.1,3.3,3.1,3.3c0.6,0,1.3-0.1,1.7-0.3L366.2,340.7z"/>
	<path d="M367.4,337c0-0.7,0-1.3,0-1.8h0.9l0,1.1h0c0.3-0.8,0.9-1.3,1.6-1.3c0.1,0,0.2,0,0.3,0v1c-0.1,0-0.2,0-0.4,0
		c-0.7,0-1.3,0.6-1.4,1.4c0,0.1,0,0.3,0,0.5v3.1h-1V337z"/>
	<path d="M374.5,341l-0.1-0.7h0c-0.3,0.5-0.9,0.9-1.8,0.9c-1.2,0-1.8-0.8-1.8-1.7c0-1.4,1.2-2.2,3.5-2.2v-0.1c0-0.5-0.1-1.3-1.3-1.3
		c-0.5,0-1.1,0.2-1.5,0.4l-0.2-0.7c0.5-0.3,1.2-0.5,1.9-0.5c1.8,0,2.2,1.2,2.2,2.4v2.2c0,0.5,0,1,0.1,1.4H374.5z M374.3,338
		c-1.2,0-2.5,0.2-2.5,1.3c0,0.7,0.5,1,1,1c0.8,0,1.2-0.5,1.4-1c0-0.1,0.1-0.2,0.1-0.3V338z"/>
	<path d="M382.1,332.5v7c0,0.5,0,1.1,0,1.5h-0.9l0-1h0c-0.3,0.6-1,1.1-2,1.1c-1.4,0-2.5-1.2-2.5-3c0-1.9,1.2-3.1,2.6-3.1
		c0.9,0,1.5,0.4,1.8,0.9h0v-3.5H382.1z M381,337.6c0-0.1,0-0.3,0-0.4c-0.2-0.7-0.7-1.2-1.5-1.2c-1.1,0-1.7,1-1.7,2.2
		c0,1.2,0.6,2.1,1.7,2.1c0.7,0,1.4-0.5,1.5-1.3c0-0.1,0-0.3,0-0.5V337.6z"/>
	<path d="M383.8,332.5h1.1v8.5h-1.1V332.5z"/>
	<path d="M387.3,338.3c0,1.4,0.9,2,2,2c0.8,0,1.2-0.1,1.6-0.3l0.2,0.8c-0.4,0.2-1,0.4-1.9,0.4c-1.8,0-2.9-1.2-2.9-2.9s1-3.1,2.7-3.1
		c1.9,0,2.4,1.7,2.4,2.7c0,0.2,0,0.4,0,0.5H387.3z M390.3,337.5c0-0.7-0.3-1.7-1.5-1.7c-1.1,0-1.5,1-1.6,1.7H390.3z"/>
</g>
<g>
	<path d="M124.9,381.8c0.5-0.1,1.3-0.2,2-0.2c1.1,0,1.8,0.2,2.3,0.7c0.4,0.4,0.6,0.9,0.6,1.5c0,1.1-0.7,1.8-1.5,2.1v0
		c0.6,0.2,1,0.8,1.2,1.6c0.3,1.1,0.5,1.9,0.6,2.2h-1.1c-0.1-0.2-0.3-0.9-0.5-1.9c-0.2-1.1-0.7-1.5-1.6-1.6h-1v3.5h-1V381.8z
		 M126,385.5h1.1c1.1,0,1.8-0.6,1.8-1.5c0-1-0.8-1.5-1.9-1.5c-0.5,0-0.9,0-1,0.1V385.5z"/>
	<path d="M132,387c0,1.4,0.9,2,2,2c0.8,0,1.2-0.1,1.6-0.3l0.2,0.8c-0.4,0.2-1,0.4-1.9,0.4c-1.8,0-2.9-1.2-2.9-2.9s1-3.1,2.7-3.1
		c1.9,0,2.4,1.7,2.4,2.7c0,0.2,0,0.4,0,0.5H132z M135.1,386.3c0-0.7-0.3-1.7-1.5-1.7c-1.1,0-1.5,1-1.6,1.7H135.1z"/>
	<path d="M137.4,385.5c0-0.6,0-1.1,0-1.6h0.9l0,0.9h0c0.3-0.6,0.9-1.1,1.8-1.1c0.8,0,1.4,0.5,1.6,1.2h0c0.2-0.3,0.4-0.6,0.6-0.8
		c0.3-0.3,0.7-0.4,1.3-0.4c0.8,0,1.9,0.5,1.9,2.5v3.4h-1v-3.3c0-1.1-0.4-1.8-1.3-1.8c-0.6,0-1.1,0.4-1.2,1c0,0.1-0.1,0.3-0.1,0.5
		v3.6h-1v-3.5c0-0.9-0.4-1.6-1.2-1.6c-0.7,0-1.1,0.5-1.3,1.1c-0.1,0.2-0.1,0.3-0.1,0.5v3.5h-1V385.5z"/>
	<path d="M152.7,386.8c0,2.1-1.5,3.1-2.9,3.1c-1.6,0-2.8-1.2-2.8-3c0-1.9,1.3-3.1,2.9-3.1C151.5,383.8,152.7,385,152.7,386.8z
		 M148,386.9c0,1.3,0.7,2.2,1.8,2.2c1,0,1.8-0.9,1.8-2.3c0-1-0.5-2.2-1.7-2.2C148.6,384.6,148,385.8,148,386.9z"/>
	<path d="M155.3,382.3v1.7h1.5v0.8h-1.5v3.1c0,0.7,0.2,1.1,0.8,1.1c0.3,0,0.5,0,0.6-0.1l0,0.8c-0.2,0.1-0.5,0.1-0.9,0.1
		c-0.5,0-0.9-0.2-1.1-0.4c-0.3-0.3-0.4-0.8-0.4-1.5v-3.2h-0.9v-0.8h0.9v-1.4L155.3,382.3z"/>
	<path d="M158.5,387c0,1.4,0.9,2,2,2c0.8,0,1.2-0.1,1.6-0.3l0.2,0.8c-0.4,0.2-1,0.4-1.9,0.4c-1.8,0-2.9-1.2-2.9-2.9s1-3.1,2.7-3.1
		c1.9,0,2.4,1.7,2.4,2.7c0,0.2,0,0.4,0,0.5H158.5z M161.6,386.3c0-0.7-0.3-1.7-1.5-1.7c-1.1,0-1.5,1-1.6,1.7H161.6z"/>
	<path d="M166.3,388.5c0.5,0.3,1.2,0.5,1.9,0.5c1.1,0,1.7-0.6,1.7-1.4c0-0.8-0.4-1.2-1.5-1.6c-1.3-0.5-2.1-1.2-2.1-2.3
		c0-1.3,1-2.2,2.6-2.2c0.8,0,1.4,0.2,1.8,0.4l-0.3,0.9c-0.3-0.1-0.8-0.4-1.5-0.4c-1.1,0-1.5,0.7-1.5,1.2c0,0.8,0.5,1.1,1.6,1.6
		c1.4,0.5,2.1,1.2,2.1,2.4c0,1.2-0.9,2.3-2.8,2.3c-0.8,0-1.6-0.2-2.1-0.5L166.3,388.5z"/>
	<path d="M173,387c0,1.4,0.9,2,2,2c0.8,0,1.2-0.1,1.6-0.3l0.2,0.8c-0.4,0.2-1,0.4-1.9,0.4c-1.8,0-2.9-1.2-2.9-2.9s1-3.1,2.7-3.1
		c1.9,0,2.4,1.7,2.4,2.7c0,0.2,0,0.4,0,0.5H173z M176.1,386.3c0-0.7-0.3-1.7-1.5-1.7c-1.1,0-1.5,1-1.6,1.7H176.1z"/>
	<path d="M178.4,385.5c0-0.6,0-1.1,0-1.6h0.9l0.1,1h0c0.3-0.6,1-1.1,1.9-1.1c0.8,0,2.1,0.5,2.1,2.5v3.5h-1.1v-3.3
		c0-0.9-0.3-1.7-1.3-1.7c-0.7,0-1.2,0.5-1.4,1.1c0,0.1-0.1,0.3-0.1,0.5v3.5h-1.1V385.5z"/>
	<path d="M185,388.7c0.3,0.2,0.9,0.4,1.4,0.4c0.8,0,1.1-0.4,1.1-0.9c0-0.5-0.3-0.8-1.1-1.1c-1-0.4-1.5-0.9-1.5-1.6
		c0-0.9,0.8-1.7,2-1.7c0.6,0,1.1,0.2,1.4,0.4l-0.3,0.8c-0.2-0.1-0.6-0.3-1.2-0.3c-0.6,0-1,0.4-1,0.8c0,0.5,0.3,0.7,1.1,1
		c1,0.4,1.5,0.9,1.5,1.8c0,1-0.8,1.7-2.2,1.7c-0.6,0-1.2-0.2-1.6-0.4L185,388.7z"/>
	<path d="M195.1,386.8c0,2.1-1.5,3.1-2.9,3.1c-1.6,0-2.8-1.2-2.8-3c0-1.9,1.3-3.1,2.9-3.1C194,383.8,195.1,385,195.1,386.8z
		 M190.5,386.9c0,1.3,0.7,2.2,1.8,2.2c1,0,1.8-0.9,1.8-2.3c0-1-0.5-2.2-1.7-2.2C191,384.6,190.5,385.8,190.5,386.9z"/>
	<path d="M196.4,385.8c0-0.7,0-1.3,0-1.8h0.9l0,1.1h0c0.3-0.8,0.9-1.3,1.6-1.3c0.1,0,0.2,0,0.3,0v1c-0.1,0-0.2,0-0.4,0
		c-0.7,0-1.3,0.6-1.4,1.4c0,0.1,0,0.3,0,0.5v3.1h-1V385.8z"/>
	<path d="M202.9,381.8c0.5-0.1,1.2-0.2,2-0.2c1,0,1.8,0.2,2.3,0.7c0.4,0.4,0.7,1,0.7,1.7c0,0.7-0.2,1.3-0.6,1.7
		c-0.6,0.6-1.5,0.9-2.5,0.9c-0.3,0-0.6,0-0.8-0.1v3.2h-1V381.8z M204,385.7c0.2,0.1,0.5,0.1,0.9,0.1c1.3,0,2-0.6,2-1.7
		c0-1.1-0.8-1.6-1.9-1.6c-0.5,0-0.8,0-1,0.1V385.7z"/>
	<path d="M209.1,385.8c0-0.7,0-1.3,0-1.8h0.9l0,1.1h0c0.3-0.8,0.9-1.3,1.6-1.3c0.1,0,0.2,0,0.3,0v1c-0.1,0-0.2,0-0.4,0
		c-0.7,0-1.3,0.6-1.4,1.4c0,0.1,0,0.3,0,0.5v3.1h-1V385.8z"/>
	<path d="M218.2,386.8c0,2.1-1.5,3.1-2.9,3.1c-1.6,0-2.8-1.2-2.8-3c0-1.9,1.3-3.1,2.9-3.1C217,383.8,218.2,385,218.2,386.8z
		 M213.6,386.9c0,1.3,0.7,2.2,1.8,2.2c1,0,1.8-0.9,1.8-2.3c0-1-0.5-2.2-1.7-2.2C214.1,384.6,213.6,385.8,213.6,386.9z"/>
	<path d="M219.4,389.8c0-0.4,0-1,0-1.5v-7h1v3.6h0c0.4-0.6,1-1.1,2-1.1c1.4,0,2.5,1.2,2.4,3c0,2.1-1.3,3.1-2.6,3.1
		c-0.8,0-1.5-0.3-1.9-1.1h0l0,1H219.4z M220.5,387.4c0,0.1,0,0.3,0,0.4c0.2,0.7,0.8,1.2,1.6,1.2c1.1,0,1.8-0.9,1.8-2.2
		c0-1.2-0.6-2.2-1.7-2.2c-0.7,0-1.4,0.5-1.6,1.3c0,0.1-0.1,0.3-0.1,0.4V387.4z"/>
	<path d="M226.9,387c0,1.4,0.9,2,2,2c0.8,0,1.2-0.1,1.6-0.3l0.2,0.8c-0.4,0.2-1,0.4-1.9,0.4c-1.8,0-2.9-1.2-2.9-2.9s1-3.1,2.7-3.1
		c1.9,0,2.4,1.7,2.4,2.7c0,0.2,0,0.4,0,0.5H226.9z M230,386.3c0-0.7-0.3-1.7-1.5-1.7c-1.1,0-1.5,1-1.6,1.7H230z"/>
</g>
<line class="st1" x1="419" y1="42" x2="477" y2="83"/>
<line class="st1" x1="487" y1="164" x2="426" y2="163"/>
<line class="st1" x1="478" y1="230" x2="419" y2="225"/>
<line class="st1" x1="482" y1="309" x2="399.5" y2="284"/>
<line class="st1" x1="466" y1="389" x2="393" y2="344"/>
<line class="st1" x1="290" y1="410" x2="235" y2="395"/>
</svg>
