<?xml version="1.0" encoding="utf-8"?>
<!-- Generator: Adobe Illustrator 21.0.0, SVG Export Plug-In . SVG Version: 6.00 Build 0)  -->
<svg version="1.1" id="Layer_1" xmlns="http://www.w3.org/2000/svg" xmlns:xlink="http://www.w3.org/1999/xlink" x="0px" y="0px"
	 viewBox="0 0 708 290" style="enable-background:new 0 0 708 290;" xml:space="preserve">
<style type="text/css">
	.st0{fill:none;stroke:#000000;stroke-width:0.709;stroke-linecap:round;stroke-linejoin:round;stroke-miterlimit:10;}
	.st1{fill:none;stroke:#000000;stroke-miterlimit:10;}
</style>
<path class="st0" d="M100.1,147.6l0.2,3.9l0.6,3.9l0.9,3.7l1.4,3.7l1.7,3.4l2.1,3.3l2.3,3.1l2.7,2.8l3,2.6l3.2,2.2l3.4,1.9l3.5,1.5
	l3.7,1.2l3.8,0.8l3.9,0.3h3.9l3.9-0.3l3.8-0.8l3.7-1.2l3.6-1.5l3.3-1.9l3.2-2.2l3-2.6l2.7-2.8l2.3-3.1l2.1-3.3l1.7-3.4l1.4-3.7
	l0.9-3.7l0.6-3.9l0.2-3.9l-0.2-3.9l-0.6-3.8l-0.9-3.8l-1.4-3.6L172,129l-2.1-3.3l-2.3-3.1l-2.7-2.8l-3-2.5l-3.2-2.2l-3.3-1.9
	l-3.6-1.6l-3.7-1.1l-3.8-0.8l-3.9-0.4h-3.9l-3.9,0.4l-3.8,0.8l-3.7,1.1l-3.5,1.6l-3.4,1.9l-3.2,2.2l-3,2.5l-2.7,2.8l-2.3,3.1
	l-2.1,3.3l-1.7,3.5l-1.4,3.6l-0.9,3.8l-0.6,3.8L100.1,147.6 M178.1,147.6l-0.2,4l-0.5,3.9l-1,3.8L175,163l-1.7,3.6l-2.1,3.4
	l-2.3,3.1l-2.7,2.9l-3,2.7L160,181l-3.4,1.9l-3.6,1.7l-3.8,1.2l-3.9,0.9l-3.9,0.5l-3.9,0.1l-4-0.3l-3.9-0.7l-3.8-1.1l-3.7-1.4
	l-3.5-1.8l-3.3-2.2l-3.1-2.4l-2.8-2.8l-2.6-3l-2.2-3.3l-1.9-3.5l-1.5-3.6l-1.2-3.8l-0.8-3.9l-0.4-3.9v-4l0.4-3.9l0.8-3.9l1.2-3.7
	l1.5-3.7l1.9-3.5l2.2-3.2l2.6-3.1l2.8-2.7l3.1-2.5l3.3-2.1l3.5-1.8l3.7-1.5l3.8-1.1l3.9-0.7l4-0.2l3.9,0.1l3.9,0.4l3.9,0.9l3.8,1.3
	l3.6,1.6l3.4,2l3.2,2.3l3,2.6l2.7,2.9l2.3,3.2l2.1,3.3l1.7,3.6l1.4,3.7l1,3.9l0.5,3.9L178.1,147.6 M166.1,93.1l-2.1-0.7l-2-0.5
	l-1.8-0.3h-1.7l-1.4,0.3l-1.1,0.5l-0.8,0.7l-0.5,1l-0.1,1.2l0.3,1.2l0.6,1.4l1,1.5l1.3,1.5l1.5,1.4l1.8,1.4l1.9,1.2l2,1.1l2.1,0.8
	l2,0.7l1.9,0.4l1.8,0.1l1.6-0.1l1.2-0.4l1-0.7l0.7-0.8l0.2-1.1l-0.1-1.2l-0.4-1.4l-0.8-1.4l-1.2-1.5l-1.4-1.4l-1.6-1.4l-1.9-1.3
	l-2-1.2L166.1,93.1 M138.5,86.4l-2.3,0.1l-2.2,0.3l-2.1,0.5l-1.9,0.6l-1.5,0.8l-1.3,0.9l-0.9,0.9l-0.5,1.1l-0.1,1l0.3,1.1l0.7,1
	l1.1,1l1.4,0.8l1.7,0.7l2,0.5l2.2,0.4l2.2,0.2h2.3l2.3-0.2l2.1-0.4l2-0.5l1.7-0.7l1.4-0.8l1.1-1l0.7-1l0.3-1.1l-0.1-1l-0.5-1.1
	l-0.9-0.9l-1.3-0.9l-1.5-0.8l-1.9-0.6l-2.1-0.5l-2.2-0.3L138.5,86.4 M110.8,93.1l-2,1l-2,1.2l-1.9,1.3l-1.6,1.4l-1.4,1.4l-1.2,1.5
	l-0.8,1.4l-0.4,1.4l-0.1,1.2l0.3,1.1l0.6,0.8l1,0.7l1.2,0.4l1.6,0.1l1.8-0.1l1.9-0.4l2-0.7l2.1-0.8l2-1.1l1.9-1.2l1.8-1.4l1.5-1.4
	l1.3-1.5l1-1.5l0.6-1.4l0.3-1.2l-0.1-1.2l-0.5-1l-0.8-0.7l-1.1-0.5l-1.4-0.3h-1.7l-1.8,0.3l-2,0.5L110.8,93.1 M84,120l-0.8,2.1
	l-0.5,1.9l-0.3,1.9v1.6l0.3,1.5l0.5,1.1l0.8,0.8l0.9,0.5l1.2,0.1l1.3-0.3l1.4-0.7l1.4-0.9l1.5-1.3l1.4-1.6l1.4-1.7l1.2-1.9l1.1-2.1
	l0.9-2l0.6-2l0.4-2l0.1-1.7l-0.1-1.6l-0.4-1.3l-0.6-0.9l-0.9-0.7l-1.1-0.2h-1.2l-1.3,0.5l-1.5,0.8l-1.5,1.1l-1.4,1.5l-1.4,1.6
	l-1.3,1.9l-1.2,2L84,120 M77.3,147.6v2.3l0.3,2.2l0.5,2.1l0.6,1.8l0.8,1.6l0.9,1.3l1,0.9l1,0.5l1.1,0.1l1-0.3l1-0.7l1-1.1l0.8-1.4
	l0.7-1.8l0.6-1.9l0.3-2.2l0.2-2.2v-2.3l-0.2-2.3l-0.3-2.1l-0.6-2l-0.7-1.7l-0.8-1.4l-1-1.1l-1-0.7l-1-0.3l-1.1,0.1l-1,0.5l-1,0.9
	l-0.9,1.2l-0.8,1.6l-0.6,1.9l-0.5,2l-0.3,2.2V147.6 M84,175.2l0.9,2.1l1.2,2l1.3,1.8l1.4,1.7l1.4,1.4l1.5,1.1l1.5,0.9l1.3,0.4
	l1.2,0.1l1.1-0.3l0.9-0.6l0.6-1l0.4-1.3l0.1-1.5l-0.1-1.8l-0.4-1.9l-0.6-2l-0.9-2.1l-1.1-2l-1.2-1.9l-1.4-1.8l-1.4-1.5l-1.5-1.3
	l-1.4-1l-1.4-0.6l-1.3-0.3l-1.2,0.1l-0.9,0.4l-0.8,0.9l-0.5,1.1l-0.3,1.4v1.7l0.3,1.8l0.5,2L84,175.2 M110.8,188.8l-2-0.7l-2-0.5
	l-1.9-0.3h-1.6l-1.4,0.3l-1.2,0.5l-0.8,0.7l-0.4,1l-0.1,1.1l0.3,1.3l0.6,1.4l1,1.5l1.2,1.5l1.6,1.4l1.8,1.4l1.9,1.2l2,1l2.1,0.9
	l2,0.7l1.9,0.3l1.8,0.2l1.5-0.1l1.3-0.4l1-0.7l0.6-0.8l0.3-1.1l-0.1-1.2l-0.5-1.4l-0.8-1.4l-1.1-1.5l-1.4-1.4l-1.7-1.4l-1.8-1.3
	l-2-1.2L110.8,188.8 M138.5,196.9l-2.3,0.1l-2.2,0.3l-2.1,0.5l-1.9,0.6l-1.5,0.8l-1.3,0.9l-0.9,0.9l-0.5,1.1l-0.1,1l0.3,1.1l0.7,1
	l1.1,1l1.4,0.8l1.7,0.7l2,0.5l2.2,0.4l2.2,0.2h2.3l2.3-0.2l2.1-0.4l2-0.5l1.7-0.7l1.4-0.8l1.1-1l0.7-1l0.3-1.1l-0.1-1l-0.5-1.1
	l-0.9-0.9l-1.3-0.9l-1.5-0.8l-1.9-0.6l-2.1-0.5l-2.2-0.3L138.5,196.9 M166.1,188.8l-2.1,1l-2,1.2l-1.8,1.3l-1.7,1.4l-1.4,1.4
	l-1.1,1.5l-0.8,1.4l-0.5,1.4l-0.1,1.2l0.3,1.1l0.6,0.8l1,0.7l1.3,0.4l1.5,0.1l1.8-0.2l1.9-0.3l2-0.7l2.1-0.9l2-1l1.9-1.2l1.8-1.4
	l1.6-1.4l1.2-1.5l1-1.5l0.7-1.4l0.2-1.3l-0.1-1.1l-0.4-1l-0.8-0.7l-1.2-0.5l-1.4-0.3H172l-1.9,0.3l-2,0.5L166.1,188.8 M179.7,175.2
	l-0.8,2.1l-0.5,2l-0.3,1.8v1.7l0.3,1.4l0.5,1.1l0.7,0.9l1,0.4l1.2,0.1l1.3-0.3l1.4-0.6l1.4-1l1.5-1.3l1.4-1.5l1.4-1.8l1.2-1.9l1.1-2
	l0.8-2.1l0.7-2l0.4-1.9l0.1-1.8l-0.1-1.5l-0.4-1.3l-0.6-1l-0.9-0.6l-1.1-0.3l-1.2,0.1l-1.4,0.4l-1.4,0.9l-1.5,1.1l-1.4,1.4l-1.4,1.7
	l-1.3,1.8l-1.2,2L179.7,175.2 M187.7,147.6l0.1,2.3l0.3,2.2l0.5,2.1l0.6,1.8l0.8,1.6l0.9,1.3l1,0.9l1,0.5l1.1,0.1l1-0.3l1-0.7l1-1.1
	l0.8-1.4l0.7-1.8l0.6-1.9l0.3-2.2l0.2-2.2v-2.3l-0.2-2.3l-0.3-2.1l-0.6-2l-0.7-1.7L197,137l-1-1.1l-1-0.7l-1-0.3l-1.1,0.1l-1,0.5
	l-1,0.9l-0.9,1.2l-0.8,1.6l-0.6,1.9l-0.5,2l-0.3,2.2L187.7,147.6 M179.7,120l0.9,2.1l1.2,1.9l1.3,1.9l1.4,1.6l1.4,1.5l1.5,1.1
	l1.4,0.8l1.4,0.5l1.2,0.1l1.1-0.3l0.9-0.7l0.6-0.9l0.4-1.3l0.1-1.6l-0.1-1.7l-0.4-1.9l-0.7-2.1l-0.8-2l-1.1-2l-1.2-2l-1.4-1.7
	l-1.4-1.6l-1.5-1.3l-1.4-0.9l-1.4-0.7l-1.3-0.2h-1.2l-1,0.5l-0.7,0.8l-0.5,1.1l-0.3,1.5v1.6l0.3,1.9l0.5,2L179.7,120 M74.8,147.6
	l0.2,5.1l0.6,5l1,5l1.4,4.8l1.8,4.8l2.1,4.6l2.5,4.4l2.8,4.2l3.2,3.9l3.5,3.7l3.7,3.4l4.1,3.1l4.2,2.7l4.4,2.4l4.7,2.1l4.7,1.7
	l4.9,1.3l5,0.9l5.1,0.5l5,0.1l5.1-0.3l5-0.7l4.9-1.1l4.9-1.5l4.7-1.9l4.5-2.2l4.4-2.6l4.1-2.9l3.9-3.3l3.6-3.5l3.3-3.8l3-4.1
	l2.7-4.3l2.3-4.5l2-4.7l1.6-4.8l1.2-4.9l0.8-5l0.4-5v-5.1l-0.4-5l-0.8-5l-1.2-5l-1.6-4.8l-2-4.6l-2.3-4.5l-2.7-4.3l-3-4.1l-3.3-3.8
	l-3.6-3.6l-3.9-3.2l-4.1-2.9l-4.4-2.6l-4.5-2.3l-4.7-1.8l-4.9-1.5l-4.9-1.1l-5-0.7l-5.1-0.3l-5,0.1l-5.1,0.5l-5,0.9l-4.9,1.3
	l-4.7,1.7l-4.7,2l-4.4,2.4l-4.2,2.8l-4.1,3.1l-3.7,3.4l-3.5,3.7l-3.2,3.9l-2.8,4.2l-2.5,4.4l-2.1,4.6l-1.8,4.7l-1.4,4.9l-1,4.9
	l-0.6,5.1L74.8,147.6 M74.8,147.6l0.2-5l0.6-5.1l1-4.9l1.4-4.9l1.8-4.7l2.1-4.6l2.5-4.4l2.8-4.2l3.2-3.9l3.5-3.7l3.7-3.4l4.1-3.1
	l4.2-2.8l4.4-2.4l4.7-2l4.7-1.7l4.9-1.3l5-0.9l5.1-0.5l5-0.1l5.1,0.3l5,0.7l4.9,1.1l4.9,1.5l4.7,1.8l4.5,2.3l4.4,2.6l4.1,2.9
	l3.9,3.2l3.6,3.6l3.3,3.8l3,4.1l2.7,4.3l2.3,4.5l2,4.6l1.6,4.8l1.2,5l0.8,5l0.4,5v5.1l-0.4,5l-0.8,5l-1.2,4.9l-1.6,4.8l-2,4.7
	l-2.3,4.5l-2.7,4.3l-3,4.1l-3.3,3.8l-3.6,3.5l-3.9,3.3l-4.1,2.9l-4.4,2.6l-4.5,2.2l-4.7,1.9l-4.9,1.5l-4.9,1.1l-5,0.7l-5.1,0.3
	l-5-0.1l-5.1-0.5l-5-0.9l-4.9-1.3l-4.7-1.7l-4.7-2.1l-4.4-2.4l-4.2-2.7l-4.1-3.1l-3.7-3.4l-3.5-3.7l-3.2-3.9l-2.8-4.2l-2.5-4.4
	l-2.1-4.6l-1.8-4.8l-1.4-4.8l-1-5l-0.6-5L74.8,147.6 M432.1,147.6l-0.2-5l-0.6-5.1l-1-4.9l-1.4-4.9l-1.8-4.7l-2.1-4.6l-2.5-4.4
	l-2.9-4.2l-3.1-3.9l-3.5-3.7l-3.8-3.4l-4-3.1l-4.2-2.8l-4.5-2.4l-4.6-2l-4.8-1.7l-4.9-1.3l-4.9-0.9l-5.1-0.5l-5-0.1l-5.1,0.3l-5,0.7
	l-4.9,1.1l-4.9,1.5l-4.7,1.8l-4.5,2.3l-4.4,2.6l-4.1,2.9l-3.9,3.2l-3.6,3.6l-3.3,3.8l-3,4.1l-2.7,4.3l-2.3,4.5l-2,4.6l-1.6,4.8
	l-1.2,5l-0.8,5l-0.4,5v5.1l0.4,5l0.8,5l1.2,4.9l1.6,4.8l2,4.7l2.3,4.5l2.7,4.3l3,4.1l3.3,3.8l3.6,3.5l3.9,3.3l4.1,2.9l4.4,2.6
	l4.5,2.2l4.7,1.9l4.9,1.5l4.9,1.1l5,0.7l5.1,0.3l5-0.1l5.1-0.5l4.9-0.9l4.9-1.3l4.8-1.7l4.6-2.1l4.5-2.4l4.2-2.7l4-3.1l3.8-3.4
	l3.5-3.7l3.1-3.9l2.9-4.2l2.5-4.4l2.1-4.6l1.8-4.8l1.4-4.8l1-5l0.6-5L432.1,147.6 M320.2,169.4h96.4 M345.4,108.4v-1.5 M416.6,125.9
	h-96.4 M356.8,106.9h-11.4 M360.3,105.1l-0.3,0.4l-0.4,0.4l-0.4,0.3l-0.4,0.3l-0.5,0.2l-0.5,0.1l-0.5,0.1h-0.5 M360.3,116.4l1.3,1.6
	l1.6,1.2l1.8,0.9l1.9,0.5l2,0.1l2-0.3l1.9-0.7l1.7-1.1l1.5-1.4l1.1-1.6l0.8-1.9l0.4-1.9v-2l-0.4-2l-0.8-1.8l-1.1-1.7l-1.5-1.4
	l-1.7-1l-1.9-0.7l-2-0.3l-2,0.1l-1.9,0.5l-1.8,0.9l-1.6,1.2l-1.3,1.5 M356.8,114.6h0.5l0.5,0.1l0.5,0.2l0.5,0.2l0.4,0.3l0.4,0.3
	l0.4,0.3l0.3,0.4 M345.4,114.6h11.4 M345.4,114.6v-1.4 M345.4,113.2h11.4 M356.8,113.2h0.7l0.6,0.2l0.7,0.2l0.6,0.2l0.6,0.4l0.5,0.4
	l0.5,0.5l0.4,0.5 M361.4,115.6l1.3,1.4l1.5,1.1l1.7,0.8l1.8,0.4l1.9-0.1l1.8-0.5l1.7-0.8l1.4-1.2l1.2-1.5l0.8-1.7l0.4-1.8v-1.9
	l-0.4-1.8l-0.8-1.7l-1.2-1.5l-1.4-1.1l-1.7-0.9l-1.8-0.4l-1.9-0.1l-1.8,0.4l-1.7,0.7l-1.5,1.1l-1.3,1.4 M361.4,105.9l-0.4,0.6
	l-0.5,0.4l-0.5,0.5l-0.6,0.3l-0.6,0.3l-0.7,0.2l-0.6,0.1l-0.7,0.1 M356.8,108.4h-11.4 M424.1,147.6l-0.2-4.7l-0.6-4.7l-1-4.6
	l-1.4-4.5l-1.7-4.4l-2.1-4.2l-2.5-4.1l-2.8-3.8l-3.2-3.5l-3.4-3.3l-3.7-3l-3.9-2.6l-4.1-2.3l-4.3-2l-4.5-1.5l-4.5-1.2l-4.7-0.8
	l-4.7-0.4h-4.7l-4.7,0.4l-4.7,0.8l-4.6,1.2l-4.4,1.5l-4.3,2l-4.2,2.3l-3.9,2.6l-3.7,3l-3.4,3.3l-3.1,3.5l-2.8,3.8l-2.5,4.1l-2.1,4.2
	l-1.8,4.4l-1.4,4.5l-1,4.6l-0.6,4.7l-0.2,4.7l0.2,4.8l0.6,4.6l1,4.7l1.4,4.5l1.8,4.4l2.1,4.2l2.5,4l2.8,3.8l3.1,3.6l3.4,3.2l3.7,3
	l3.9,2.7l4.2,2.3l4.3,1.9l4.4,1.6l4.6,1.2l4.7,0.8l4.7,0.4h4.7l4.7-0.4l4.7-0.8l4.5-1.2l4.5-1.6l4.3-1.9l4.1-2.3l3.9-2.7l3.7-3
	l3.4-3.2l3.2-3.6l2.8-3.8l2.5-4l2.1-4.2l1.7-4.4l1.4-4.5l1-4.7l0.6-4.6L424.1,147.6 M416.6,169.4v-43.5 M320.2,169.4l2.1,4.1l2.5,4
	l2.8,3.7l3.1,3.5l3.4,3.2l3.7,2.8l3.9,2.5l4.2,2.2l4.3,1.8l4.4,1.4l4.5,1.1l4.7,0.6l4.6,0.2l4.7-0.2l4.6-0.6l4.6-1.1l4.4-1.4
	l4.3-1.8l4.1-2.2l3.9-2.5l3.7-2.8l3.4-3.2l3.2-3.5l2.8-3.7l2.4-4l2.1-4.1 M320.2,125.9v43.5 M416.6,125.9l-2.1-4.2l-2.4-3.9
	l-2.8-3.7l-3.2-3.5l-3.4-3.2l-3.7-2.9l-3.9-2.5l-4.1-2.2l-4.3-1.8l-4.4-1.4l-4.6-1l-4.6-0.6l-4.7-0.2l-4.6,0.2l-4.7,0.6l-4.5,1
	l-4.4,1.4l-4.3,1.8l-4.2,2.2l-3.9,2.5l-3.7,2.9l-3.4,3.2l-3.1,3.5l-2.8,3.7l-2.5,3.9l-2.1,4.2 M611.3,149.8l0.8-0.2l0.7-0.5l0.4-0.7
	l0.2-0.8l-0.2-0.8l-0.4-0.7l-0.7-0.4l-0.8-0.2l-0.8,0.2l-0.7,0.4l-0.5,0.7l-0.1,0.8l0.1,0.8l0.5,0.7l0.7,0.5L611.3,149.8
	 M577.3,110.9V108 M564.2,179.1l1.3,0.4l1.3,0.5l1.2,0.4l1.3,0.3l1.4,0.3l1.3,0.2l1.3,0.2l1.3,0.1 M605.1,115.5l0.4,0.4l0.3,0.5
	l0.2,0.5l0.1,0.6v0.5l-0.2,0.6l-0.2,0.5l-0.4,0.5 M590.3,116.2l-1.3-0.5l-1.2-0.4l-1.3-0.4l-1.3-0.4l-1.3-0.2l-1.4-0.3l-1.3-0.2
	l-1.3-0.1 M574.2,190l-3.4-0.3l-3.3-0.7l-3.3-0.9l-3.2-1.2l-3.1-1.4l-3-1.7l-2.8-1.9l-2.7-2.1 M611.3,150.5l-1.1-0.3l-0.9-0.6
	l-0.6-0.9l-0.3-1.1l0.3-1.1l0.6-0.9l0.9-0.6l1.1-0.2l1.1,0.2l0.9,0.6l0.6,0.9l0.2,1.1l-0.2,1.1l-0.6,0.9l-0.9,0.6L611.3,150.5
	 M579.9,113.7l-0.5-0.1l-0.5-0.2l-0.5-0.2l-0.4-0.4l-0.3-0.4l-0.2-0.5l-0.2-0.5v-0.5 M577.3,108v-0.5l0.2-0.6l0.3-0.5l0.4-0.4
	l0.4-0.4l0.6-0.2l0.5-0.2h0.6 M580.3,105.2l3.4,0.4l3.3,0.6l3.3,1l3.2,1.1l3.1,1.5l3,1.7l2.8,1.9l2.7,2.1 M574.6,181.5l0.6,0.1
	l0.5,0.2l0.4,0.3l0.4,0.3l0.3,0.5l0.3,0.4l0.1,0.5l0.1,0.6 M577.3,184.4v2.8 M577.3,187.2l-0.1,0.6l-0.2,0.5l-0.3,0.5l-0.3,0.5
	l-0.5,0.3l-0.5,0.3l-0.6,0.1h-0.6 M549.4,179.8l-0.4-0.4l-0.3-0.5l-0.2-0.6l-0.1-0.5l0.1-0.6l0.1-0.5l0.3-0.6l0.3-0.4 M543.2,149.8
	l0.9-0.2l0.6-0.5l0.5-0.7l0.2-0.8l-0.2-0.8l-0.5-0.7l-0.6-0.4l-0.9-0.2l-0.8,0.2l-0.7,0.4l-0.4,0.7l-0.2,0.8l0.2,0.8l0.4,0.7
	l0.7,0.5L543.2,149.8 M543.2,150.5l-1-0.3l-1-0.6l-0.6-0.9l-0.2-1.1l0.2-1.1l0.6-0.9l1-0.6l1-0.2l1.1,0.2l1,0.6l0.6,0.9l0.2,1.1
	l-0.2,1.1l-0.6,0.9l-1,0.6L543.2,150.5 M577.3,100.9l-4.4,0.2l-4.2,0.6l-4.2,0.9l-4.1,1.4l-4,1.8l-3.8,2.1l-3.5,2.4l-3.3,2.8l-3.1,3
	l-2.8,3.3l-2.4,3.6l-2.1,3.8l-1.8,3.9l-1.3,4.1l-1,4.2l-0.6,4.3l-0.2,4.3l0.2,4.3l0.6,4.3l1,4.2l1.3,4.1l1.8,4l2.1,3.7l2.4,3.6
	l2.8,3.3l3.1,3.1l3.3,2.8l3.5,2.4l3.8,2.1l4,1.7l4.1,1.4l4.2,1l4.2,0.6l4.4,0.2l4.3-0.2l4.3-0.6l4.2-1l4.1-1.4l3.9-1.7l3.8-2.1
	l3.5-2.4l3.4-2.8l3-3.1l2.8-3.3l2.4-3.6l2.1-3.7l1.8-4l1.3-4.1l1-4.2l0.6-4.3l0.2-4.3l-0.2-4.3l-0.6-4.3l-1-4.2l-1.3-4.1l-1.8-3.9
	L617,123l-2.4-3.6l-2.8-3.3l-3-3l-3.4-2.8l-3.5-2.4l-3.8-2.1l-3.9-1.8l-4.1-1.4l-4.2-0.9l-4.3-0.6L577.3,100.9 M577.3,98l-4.5,0.2
	l-4.4,0.6l-4.3,1l-4.3,1.4l-4.1,1.7l-3.9,2.1l-3.7,2.5l-3.5,2.8l-3.2,3l-2.9,3.4l-2.6,3.6l-2.3,3.8l-2,4l-1.5,4.2l-1.2,4.3l-0.8,4.4
	l-0.4,4.4v4.5l0.4,4.4l0.8,4.4l1.2,4.3l1.5,4.1l2,4l2.3,3.9l2.6,3.6l2.9,3.3l3.2,3.1l3.5,2.8l3.7,2.4l3.9,2.1l4.1,1.8l4.3,1.3l4.3,1
	l4.4,0.6l4.5,0.2l4.4-0.2l4.4-0.6l4.4-1l4.2-1.3l4.1-1.8l3.9-2.1l3.7-2.4l3.5-2.8l3.2-3.1l2.9-3.3l2.7-3.6l2.2-3.9l2-4l1.5-4.1
	l1.2-4.3l0.8-4.4l0.4-4.4v-4.5l-0.4-4.4l-0.8-4.4l-1.2-4.3l-1.5-4.2l-2-4l-2.2-3.8l-2.7-3.6l-2.9-3.4l-3.2-3l-3.5-2.8l-3.7-2.5
	l-3.9-2.1l-4.1-1.7l-4.2-1.4l-4.4-1l-4.4-0.6L577.3,98 M577.3,93.8l-4.7,0.2l-4.6,0.6l-4.5,1l-4.4,1.3l-4.3,1.8l-4.1,2.1l-4,2.5
	L543,106l-3.4,3.1l-3.2,3.4l-2.8,3.7L531,120l-2.2,4.1l-1.8,4.3l-1.5,4.4l-1.1,4.5l-0.7,4.5l-0.3,4.7l0.1,4.6l0.5,4.6l0.9,4.6
	l1.3,4.4l1.6,4.3l2.1,4.2l2.3,4l2.7,3.7l3.1,3.6l3.3,3.2l3.6,2.9l3.8,2.7l4,2.3l4.2,1.9l4.4,1.6l4.5,1.1l4.5,0.8l4.6,0.4h4.7
	l4.6-0.4l4.6-0.8l4.4-1.1l4.4-1.6l4.2-1.9l4-2.3l3.9-2.7l3.5-2.9l3.4-3.2l3-3.6l2.7-3.7l2.4-4l2-4.2l1.6-4.3l1.3-4.4l0.9-4.6
	l0.5-4.6l0.1-4.6l-0.3-4.7l-0.7-4.5l-1.1-4.5l-1.4-4.4l-1.9-4.3l-2.2-4.1l-2.5-3.8l-2.9-3.7l-3.2-3.4l-3.4-3.1l-3.7-2.7l-3.9-2.5
	l-4.2-2.1l-4.3-1.8l-4.4-1.3l-4.5-1l-4.6-0.6L577.3,93.8 M602.3,131.9l7.3-4.6 M595,130.8l0.8,0.7l0.8,0.5l0.9,0.4l1,0.3h1l1-0.1
	l0.9-0.3l0.9-0.4 M609.6,127.3l0.3-0.2l0.1-0.2l0.2-0.3l0.1-0.2v-0.3v-0.3l-0.1-0.3l-0.1-0.2 M610.1,125.3l-1.6-2.2l-1.8-2.1
	l-1.8-1.9l-2-1.8l-2.2-1.7l-2.2-1.5l-2.3-1.3l-2.4-1.2 M593.8,111.6l-0.3-0.1l-0.3-0.1H593l-0.3,0.1l-0.3,0.1l-0.2,0.2L592,112
	l-0.1,0.3 M591.9,112.3l-4.8,11.7 M587.1,124l-0.1,0.2v0.3v0.3l0.1,0.3l0.1,0.2l0.2,0.2l0.2,0.2l0.3,0.1 M587.9,125.8l1,0.4l1,0.5
	l0.9,0.6l1,0.6l0.9,0.6l0.8,0.7l0.8,0.8l0.7,0.8 M544.9,168l-0.2,0.2l-0.2,0.2l-0.2,0.2v0.3l-0.1,0.3l0.1,0.3v0.2l0.2,0.3
	 M559.5,164.5l-0.7-0.7l-0.9-0.6l-0.9-0.4l-1-0.2l-1-0.1l-1,0.1l-0.9,0.3l-0.9,0.5 M552.2,163.4l-7.3,4.6 M544.5,170l1.6,2.1
	l1.7,2.1l1.9,1.9l2,1.9l2.1,1.6l2.2,1.5l2.3,1.4l2.4,1.2 M560.7,183.7l0.3,0.1h0.3h0.3l0.2-0.1l0.3-0.1l0.2-0.2l0.2-0.2l0.1-0.2
	 M562.6,183l4.9-11.7 M567.5,171.3V171l0.1-0.3l-0.1-0.2l-0.1-0.3l-0.1-0.3l-0.2-0.2l-0.2-0.1l-0.3-0.2 M566.6,169.4l-1-0.4l-1-0.5
	l-0.9-0.5l-0.9-0.6l-0.9-0.7L561,166l-0.8-0.7l-0.7-0.8 M577.3,126.4l-2.9,0.2l-2.9,0.6l-2.7,0.9l-2.6,1.4l-2.4,1.6l-2.1,2l-1.8,2.3
	l-1.5,2.4l-1.2,2.7l-0.8,2.8l-0.3,2.9v2.9l0.3,2.9l0.8,2.7l1.2,2.7l1.5,2.5l1.8,2.2l2.1,2l2.4,1.7l2.6,1.3l2.7,1l2.9,0.6l2.9,0.2
	l2.9-0.2l2.8-0.6l2.7-1l2.6-1.3l2.4-1.7l2.1-2l1.8-2.2l1.5-2.5l1.2-2.7l0.8-2.7l0.4-2.9v-2.9l-0.4-2.9l-0.8-2.8l-1.2-2.7l-1.5-2.4
	l-1.8-2.3l-2.1-2l-2.4-1.6l-2.6-1.4l-2.7-0.9l-2.8-0.6L577.3,126.4 M577.3,123.5l-3.1,0.2l-3,0.6l-3,1l-2.8,1.3l-2.5,1.7l-2.4,2
	l-2.1,2.3l-1.7,2.5l-1.5,2.8l-1,2.9l-0.7,3l-0.3,3.1l0.1,3l0.5,3.1l0.8,2.9l1.3,2.9l1.6,2.6l1.9,2.4l2.2,2.2l2.5,1.8l2.7,1.5
	l2.9,1.2l3,0.8l3,0.4h3.1l3.1-0.4l3-0.8l2.8-1.2l2.7-1.5l2.5-1.8l2.2-2.2l1.9-2.4l1.6-2.6l1.3-2.9l0.9-2.9l0.4-3.1l0.1-3l-0.3-3.1
	l-0.6-3l-1.1-2.9l-1.4-2.8l-1.8-2.5l-2.1-2.3l-2.3-2l-2.6-1.7l-2.8-1.3l-2.9-1l-3.1-0.6L577.3,123.5 M177,147.6l-0.1-3.9l-0.6-3.8
	l-1-3.8l-1.4-3.7l-1.7-3.5l-2.1-3.3l-2.4-3.1l-2.7-2.8l-2.9-2.6l-3.2-2.2l-3.5-1.9l-3.5-1.6l-3.8-1.1l-3.8-0.8l-3.9-0.4h-3.9
	l-3.9,0.4l-3.8,0.8l-3.8,1.1l-3.5,1.6l-3.5,1.9l-3.2,2.2l-2.9,2.6l-2.7,2.8l-2.4,3.1l-2.1,3.3l-1.7,3.5l-1.4,3.7l-1,3.8l-0.5,3.8
	l-0.2,3.9l0.2,3.9l0.5,3.9l1,3.8l1.4,3.6l1.7,3.6l2.1,3.3l2.4,3.1l2.7,2.8l2.9,2.5l3.2,2.3l3.5,1.9l3.5,1.5l3.8,1.2l3.8,0.8l3.9,0.4
	h3.9l3.9-0.4l3.8-0.8l3.8-1.2l3.5-1.5l3.5-1.9l3.2-2.3l2.9-2.5l2.7-2.8l2.4-3.1l2.1-3.3l1.7-3.6l1.4-3.6l1-3.8l0.6-3.9L177,147.6"/>
<g>
	<path d="M36.8,49.7c0.5,0.3,1.2,0.5,1.9,0.5c1.1,0,1.7-0.6,1.7-1.4c0-0.8-0.4-1.2-1.5-1.6c-1.3-0.5-2.1-1.2-2.1-2.3
		c0-1.3,1-2.2,2.6-2.2c0.8,0,1.4,0.2,1.8,0.4L40.8,44c-0.3-0.1-0.8-0.4-1.5-0.4c-1.1,0-1.5,0.7-1.5,1.2c0,0.8,0.5,1.1,1.6,1.6
		c1.4,0.5,2.1,1.2,2.1,2.4c0,1.2-0.9,2.3-2.8,2.3c-0.8,0-1.6-0.2-2.1-0.5L36.8,49.7z"/>
	<path d="M43.5,48.3c0,1.4,0.9,2,2,2c0.8,0,1.2-0.1,1.6-0.3l0.2,0.8c-0.4,0.2-1,0.4-1.9,0.4c-1.8,0-2.9-1.2-2.9-2.9s1-3.1,2.7-3.1
		c1.9,0,2.4,1.7,2.4,2.7c0,0.2,0,0.4,0,0.5H43.5z M46.5,47.5c0-0.7-0.3-1.7-1.5-1.7c-1.1,0-1.5,1-1.6,1.7H46.5z"/>
	<path d="M48.9,46.8c0-0.6,0-1.1,0-1.6h0.9l0.1,1h0c0.3-0.6,1-1.1,1.9-1.1c0.8,0,2.1,0.5,2.1,2.5V51h-1.1v-3.3
		c0-0.9-0.3-1.7-1.3-1.7c-0.7,0-1.2,0.5-1.4,1.1c0,0.1-0.1,0.3-0.1,0.5V51h-1.1V46.8z"/>
	<path d="M55.4,49.9c0.3,0.2,0.9,0.4,1.4,0.4c0.8,0,1.1-0.4,1.1-0.9c0-0.5-0.3-0.8-1.1-1.1c-1-0.4-1.5-0.9-1.5-1.6
		c0-0.9,0.8-1.7,2-1.7c0.6,0,1.1,0.2,1.4,0.4l-0.3,0.8c-0.2-0.1-0.6-0.3-1.2-0.3c-0.6,0-1,0.4-1,0.8c0,0.5,0.3,0.7,1.1,1
		c1,0.4,1.5,0.9,1.5,1.8c0,1-0.8,1.7-2.2,1.7c-0.6,0-1.2-0.2-1.6-0.4L55.4,49.9z"/>
	<path d="M65.5,48c0,2.1-1.5,3.1-2.9,3.1c-1.6,0-2.8-1.2-2.8-3c0-1.9,1.3-3.1,2.9-3.1C64.4,45.1,65.5,46.3,65.5,48z M60.9,48.1
		c0,1.3,0.7,2.2,1.8,2.2c1,0,1.8-0.9,1.8-2.3c0-1-0.5-2.2-1.7-2.2C61.5,45.9,60.9,47,60.9,48.1z"/>
	<path d="M66.9,47c0-0.7,0-1.3,0-1.8h0.9l0,1.1h0c0.3-0.8,0.9-1.3,1.6-1.3c0.1,0,0.2,0,0.3,0v1c-0.1,0-0.2,0-0.4,0
		c-0.7,0-1.3,0.6-1.4,1.4c0,0.1,0,0.3,0,0.5V51h-1V47z"/>
	<path d="M73.4,42.9h1v7.2h3.5V51h-4.5V42.9z"/>
	<path d="M79.4,48.3c0,1.4,0.9,2,2,2c0.8,0,1.2-0.1,1.6-0.3l0.2,0.8c-0.4,0.2-1,0.4-1.9,0.4c-1.8,0-2.9-1.2-2.9-2.9s1-3.1,2.7-3.1
		c1.9,0,2.4,1.7,2.4,2.7c0,0.2,0,0.4,0,0.5H79.4z M82.5,47.5c0-0.7-0.3-1.7-1.5-1.7c-1.1,0-1.5,1-1.6,1.7H82.5z"/>
	<path d="M84.9,46.8c0-0.6,0-1.1,0-1.6h0.9l0.1,1h0c0.3-0.6,1-1.1,1.9-1.1c0.8,0,2.1,0.5,2.1,2.5V51h-1.1v-3.3
		c0-0.9-0.3-1.7-1.3-1.7c-0.7,0-1.2,0.5-1.4,1.1c0,0.1-0.1,0.3-0.1,0.5V51h-1.1V46.8z"/>
	<path d="M91.4,49.9c0.3,0.2,0.9,0.4,1.4,0.4c0.8,0,1.1-0.4,1.1-0.9c0-0.5-0.3-0.8-1.1-1.1c-1-0.4-1.5-0.9-1.5-1.6
		c0-0.9,0.8-1.7,2-1.7c0.6,0,1.1,0.2,1.4,0.4l-0.3,0.8c-0.2-0.1-0.6-0.3-1.2-0.3c-0.6,0-1,0.4-1,0.8c0,0.5,0.3,0.7,1.1,1
		c1,0.4,1.5,0.9,1.5,1.8c0,1-0.8,1.7-2.2,1.7c-0.6,0-1.2-0.2-1.6-0.4L91.4,49.9z"/>
	<path d="M95.4,51.5l3.3-8.7h0.8l-3.4,8.7H95.4z"/>
	<path d="M100.4,42.9h1v7.2h3.5V51h-4.5V42.9z"/>
	<path d="M110.3,47.2h-3.1v2.9h3.5V51h-4.5v-8.1h4.4v0.9h-3.3v2.6h3.1V47.2z"/>
	<path d="M112,43c0.6-0.1,1.4-0.2,2.2-0.2c1.5,0,2.6,0.3,3.3,1c0.7,0.7,1.1,1.6,1.1,2.9c0,1.3-0.4,2.4-1.2,3.1
		c-0.8,0.8-2,1.2-3.6,1.2c-0.7,0-1.4,0-1.9-0.1V43z M113,50.2c0.3,0,0.6,0.1,1.1,0.1c2.2,0,3.4-1.2,3.4-3.4c0-1.9-1.1-3.1-3.3-3.1
		c-0.5,0-0.9,0-1.2,0.1V50.2z"/>
	<path d="M123.6,42.9V51h-1v-8.1H123.6z"/>
	<path d="M125.5,46.8c0-0.6,0-1.1,0-1.6h0.9l0.1,1h0c0.3-0.6,1-1.1,1.9-1.1c0.8,0,2.1,0.5,2.1,2.5V51h-1.1v-3.3
		c0-0.9-0.3-1.7-1.3-1.7c-0.7,0-1.2,0.5-1.4,1.1c0,0.1-0.1,0.3-0.1,0.5V51h-1.1V46.8z"/>
	<path d="M137.1,42.5v7c0,0.5,0,1.1,0,1.5h-0.9l0-1h0c-0.3,0.6-1,1.1-2,1.1c-1.4,0-2.5-1.2-2.5-3c0-1.9,1.2-3.1,2.6-3.1
		c0.9,0,1.5,0.4,1.8,0.9h0v-3.5H137.1z M136.1,47.6c0-0.1,0-0.3,0-0.4c-0.2-0.7-0.7-1.2-1.5-1.2c-1.1,0-1.7,1-1.7,2.2
		c0,1.2,0.6,2.1,1.7,2.1c0.7,0,1.4-0.5,1.5-1.3c0-0.1,0-0.3,0-0.5V47.6z"/>
	<path d="M140.1,43.6c0,0.4-0.3,0.6-0.7,0.6c-0.4,0-0.6-0.3-0.6-0.6c0-0.4,0.3-0.7,0.7-0.7C139.8,42.9,140.1,43.2,140.1,43.6z
		 M138.9,51v-5.8h1.1V51H138.9z"/>
	<path d="M145.8,50.8c-0.3,0.1-0.9,0.3-1.7,0.3c-1.8,0-2.9-1.2-2.9-3c0-1.8,1.2-3.1,3.1-3.1c0.6,0,1.2,0.2,1.5,0.3l-0.2,0.8
		c-0.3-0.1-0.6-0.3-1.2-0.3c-1.3,0-2.1,1-2.1,2.2c0,1.3,0.9,2.2,2,2.2c0.6,0,1-0.2,1.3-0.3L145.8,50.8z"/>
	<path d="M150.3,51l-0.1-0.7h0c-0.3,0.5-0.9,0.9-1.8,0.9c-1.2,0-1.8-0.8-1.8-1.7c0-1.4,1.2-2.2,3.5-2.2v-0.1c0-0.5-0.1-1.3-1.3-1.3
		c-0.5,0-1.1,0.2-1.5,0.4l-0.2-0.7c0.5-0.3,1.2-0.5,1.9-0.5c1.8,0,2.2,1.2,2.2,2.4v2.2c0,0.5,0,1,0.1,1.4H150.3z M150.1,48
		c-1.2,0-2.5,0.2-2.5,1.3c0,0.7,0.5,1,1,1c0.8,0,1.2-0.5,1.4-1c0-0.1,0.1-0.2,0.1-0.3V48z"/>
	<path d="M154.1,43.5v1.7h1.5V46h-1.5v3.1c0,0.7,0.2,1.1,0.8,1.1c0.3,0,0.5,0,0.6-0.1l0,0.8c-0.2,0.1-0.5,0.1-0.9,0.1
		c-0.5,0-0.9-0.2-1.1-0.4c-0.3-0.3-0.4-0.8-0.4-1.5V46h-0.9v-0.8h0.9v-1.4L154.1,43.5z"/>
	<path d="M162,48c0,2.1-1.5,3.1-2.9,3.1c-1.6,0-2.8-1.2-2.8-3c0-1.9,1.3-3.1,2.9-3.1C160.8,45.1,162,46.3,162,48z M157.4,48.1
		c0,1.3,0.7,2.2,1.8,2.2c1,0,1.8-0.9,1.8-2.3c0-1-0.5-2.2-1.7-2.2C157.9,45.9,157.4,47,157.4,48.1z"/>
	<path d="M163.3,47c0-0.7,0-1.3,0-1.8h0.9l0,1.1h0c0.3-0.8,0.9-1.3,1.6-1.3c0.1,0,0.2,0,0.3,0v1c-0.1,0-0.2,0-0.4,0
		c-0.7,0-1.3,0.6-1.4,1.4c0,0.1,0,0.3,0,0.5V51h-1V47z"/>
</g>
<g>
	<path d="M298.9,54c0.5-0.1,1.2-0.2,1.9-0.2c1,0,1.7,0.2,2.2,0.6c0.4,0.3,0.7,0.8,0.7,1.4c0,0.8-0.5,1.5-1.4,1.8v0
		c0.8,0.2,1.7,0.8,1.7,2c0,0.7-0.3,1.2-0.7,1.6c-0.6,0.5-1.5,0.8-2.8,0.8c-0.7,0-1.3,0-1.6-0.1V54z M300,57.3h0.9
		c1.1,0,1.8-0.6,1.8-1.4c0-0.9-0.7-1.3-1.8-1.3c-0.5,0-0.8,0-0.9,0.1V57.3z M300,61.2c0.2,0,0.5,0,0.9,0c1.1,0,2.1-0.4,2.1-1.6
		c0-1.1-0.9-1.6-2.1-1.6H300V61.2z"/>
	<path d="M310.2,60.4c0,0.6,0,1.1,0,1.6h-0.9l-0.1-0.9h0c-0.3,0.5-0.9,1.1-1.9,1.1c-0.9,0-2-0.5-2-2.5v-3.4h1.1v3.2
		c0,1.1,0.3,1.8,1.3,1.8c0.7,0,1.2-0.5,1.4-1c0.1-0.2,0.1-0.3,0.1-0.5v-3.6h1.1V60.4z"/>
	<path d="M313.3,54.5v1.7h1.5V57h-1.5v3.1c0,0.7,0.2,1.1,0.8,1.1c0.3,0,0.5,0,0.6-0.1l0,0.8c-0.2,0.1-0.5,0.1-0.9,0.1
		c-0.5,0-0.9-0.2-1.1-0.4c-0.3-0.3-0.4-0.8-0.4-1.5V57h-0.9v-0.8h0.9v-1.4L313.3,54.5z"/>
	<path d="M317.2,54.5v1.7h1.5V57h-1.5v3.1c0,0.7,0.2,1.1,0.8,1.1c0.3,0,0.5,0,0.6-0.1l0,0.8c-0.2,0.1-0.5,0.1-0.9,0.1
		c-0.5,0-0.9-0.2-1.1-0.4c-0.3-0.3-0.4-0.8-0.4-1.5V57h-0.9v-0.8h0.9v-1.4L317.2,54.5z"/>
	<path d="M325.1,59c0,2.1-1.5,3.1-2.9,3.1c-1.6,0-2.8-1.2-2.8-3c0-1.9,1.3-3.1,2.9-3.1C324,56.1,325.1,57.3,325.1,59z M320.5,59.1
		c0,1.3,0.7,2.2,1.8,2.2c1,0,1.8-0.9,1.8-2.3c0-1-0.5-2.2-1.7-2.2C321.1,56.9,320.5,58,320.5,59.1z"/>
	<path d="M326.5,57.8c0-0.6,0-1.1,0-1.6h0.9l0.1,1h0c0.3-0.6,1-1.1,1.9-1.1c0.8,0,2.1,0.5,2.1,2.5V62h-1.1v-3.3
		c0-0.9-0.3-1.7-1.3-1.7c-0.7,0-1.2,0.5-1.4,1.1c0,0.1-0.1,0.3-0.1,0.5V62h-1.1V57.8z"/>
</g>
<g>
	<path d="M400.9,50c0.5-0.1,1.2-0.2,1.9-0.2c1,0,1.7,0.2,2.2,0.6c0.4,0.3,0.7,0.8,0.7,1.4c0,0.8-0.5,1.5-1.4,1.8v0
		c0.8,0.2,1.7,0.8,1.7,2c0,0.7-0.3,1.2-0.7,1.6c-0.6,0.5-1.5,0.8-2.8,0.8c-0.7,0-1.3,0-1.6-0.1V50z M402,53.3h0.9
		c1.1,0,1.8-0.6,1.8-1.4c0-0.9-0.7-1.3-1.8-1.3c-0.5,0-0.8,0-0.9,0.1V53.3z M402,57.2c0.2,0,0.5,0,0.9,0c1.1,0,2.1-0.4,2.1-1.6
		c0-1.1-0.9-1.6-2.1-1.6H402V57.2z"/>
	<path d="M410.6,58l-0.1-0.7h0c-0.3,0.5-0.9,0.9-1.8,0.9c-1.2,0-1.8-0.8-1.8-1.7c0-1.4,1.2-2.2,3.5-2.2v-0.1c0-0.5-0.1-1.3-1.3-1.3
		c-0.5,0-1.1,0.2-1.5,0.4l-0.2-0.7c0.5-0.3,1.2-0.5,1.9-0.5c1.8,0,2.2,1.2,2.2,2.4v2.2c0,0.5,0,1,0.1,1.4H410.6z M410.4,55
		c-1.2,0-2.5,0.2-2.5,1.3c0,0.7,0.5,1,1,1c0.8,0,1.2-0.5,1.4-1c0-0.1,0.1-0.2,0.1-0.3V55z"/>
	<path d="M414.4,50.5v1.7h1.5V53h-1.5v3.1c0,0.7,0.2,1.1,0.8,1.1c0.3,0,0.5,0,0.6-0.1l0,0.8c-0.2,0.1-0.5,0.1-0.9,0.1
		c-0.5,0-0.9-0.2-1.1-0.4c-0.3-0.3-0.4-0.8-0.4-1.5V53h-0.9v-0.8h0.9v-1.4L414.4,50.5z"/>
	<path d="M418.4,50.5v1.7h1.5V53h-1.5v3.1c0,0.7,0.2,1.1,0.8,1.1c0.3,0,0.5,0,0.6-0.1l0,0.8c-0.2,0.1-0.5,0.1-0.9,0.1
		c-0.5,0-0.9-0.2-1.1-0.4c-0.3-0.3-0.4-0.8-0.4-1.5V53h-0.9v-0.8h0.9v-1.4L418.4,50.5z"/>
	<path d="M421.6,55.3c0,1.4,0.9,2,2,2c0.8,0,1.2-0.1,1.6-0.3l0.2,0.8c-0.4,0.2-1,0.4-1.9,0.4c-1.8,0-2.9-1.2-2.9-2.9s1-3.1,2.7-3.1
		c1.9,0,2.4,1.7,2.4,2.7c0,0.2,0,0.4,0,0.5H421.6z M424.7,54.5c0-0.7-0.3-1.7-1.5-1.7c-1.1,0-1.5,1-1.6,1.7H424.7z"/>
	<path d="M427,54c0-0.7,0-1.3,0-1.8h0.9l0,1.1h0c0.3-0.8,0.9-1.3,1.6-1.3c0.1,0,0.2,0,0.3,0v1c-0.1,0-0.2,0-0.4,0
		c-0.7,0-1.3,0.6-1.4,1.4c0,0.1,0,0.3,0,0.5V58h-1V54z"/>
	<path d="M431.6,52.2l1.3,3.4c0.1,0.4,0.3,0.8,0.4,1.2h0c0.1-0.3,0.2-0.8,0.4-1.2l1.2-3.4h1.1l-1.6,4.1c-0.8,2-1.3,3-2,3.6
		c-0.5,0.5-1,0.6-1.3,0.7l-0.3-0.9c0.3-0.1,0.6-0.3,0.9-0.5c0.3-0.2,0.6-0.6,0.9-1.2c0-0.1,0.1-0.2,0.1-0.3c0-0.1,0-0.1-0.1-0.3
		l-2.1-5.3H431.6z"/>
	<path d="M445.1,57.7c-0.4,0.2-1.2,0.4-2.1,0.4c-2.3,0-4-1.4-4-4.1c0-2.5,1.7-4.2,4.2-4.2c1,0,1.6,0.2,1.9,0.4l-0.3,0.9
		c-0.4-0.2-1-0.3-1.6-0.3c-1.9,0-3.2,1.2-3.2,3.3c0,2,1.1,3.3,3.1,3.3c0.6,0,1.3-0.1,1.7-0.3L445.1,57.7z"/>
	<path d="M451.5,55c0,2.1-1.5,3.1-2.9,3.1c-1.6,0-2.8-1.2-2.8-3c0-1.9,1.3-3.1,2.9-3.1C450.4,52.1,451.5,53.3,451.5,55z M446.9,55.1
		c0,1.3,0.7,2.2,1.8,2.2c1,0,1.8-0.9,1.8-2.3c0-1-0.5-2.2-1.7-2.2C447.4,52.9,446.9,54,446.9,55.1z"/>
	<path d="M452.8,53.8c0-0.6,0-1.1,0-1.6h0.9l0,0.9h0c0.3-0.6,0.9-1.1,1.8-1.1c0.8,0,1.4,0.5,1.6,1.2h0c0.2-0.3,0.4-0.6,0.6-0.8
		c0.3-0.3,0.7-0.4,1.3-0.4c0.8,0,1.9,0.5,1.9,2.5V58h-1v-3.3c0-1.1-0.4-1.8-1.3-1.8c-0.6,0-1.1,0.4-1.2,1c0,0.1-0.1,0.3-0.1,0.5V58
		h-1v-3.5c0-0.9-0.4-1.6-1.2-1.6c-0.7,0-1.1,0.5-1.3,1.1c-0.1,0.2-0.1,0.3-0.1,0.5V58h-1V53.8z"/>
	<path d="M462.8,54.1c0-0.7,0-1.3,0-1.9h0.9l0,1h0c0.4-0.7,1.1-1.1,2.1-1.1c1.4,0,2.5,1.2,2.5,3c0,2.1-1.3,3.1-2.6,3.1
		c-0.8,0-1.4-0.3-1.8-0.9h0v3.2h-1V54.1z M463.9,55.6c0,0.2,0,0.3,0,0.4c0.2,0.7,0.8,1.2,1.6,1.2c1.1,0,1.8-0.9,1.8-2.2
		c0-1.2-0.6-2.2-1.7-2.2c-0.7,0-1.4,0.5-1.6,1.3c0,0.1-0.1,0.3-0.1,0.4V55.6z"/>
	<path d="M472.9,58l-0.1-0.7h0c-0.3,0.5-0.9,0.9-1.8,0.9c-1.2,0-1.8-0.8-1.8-1.7c0-1.4,1.2-2.2,3.5-2.2v-0.1c0-0.5-0.1-1.3-1.3-1.3
		c-0.5,0-1.1,0.2-1.5,0.4l-0.2-0.7c0.5-0.3,1.2-0.5,1.9-0.5c1.8,0,2.2,1.2,2.2,2.4v2.2c0,0.5,0,1,0.1,1.4H472.9z M472.7,55
		c-1.2,0-2.5,0.2-2.5,1.3c0,0.7,0.5,1,1,1c0.8,0,1.2-0.5,1.4-1c0-0.1,0.1-0.2,0.1-0.3V55z"/>
	<path d="M475.5,54c0-0.7,0-1.3,0-1.8h0.9l0,1.1h0c0.3-0.8,0.9-1.3,1.6-1.3c0.1,0,0.2,0,0.3,0v1c-0.1,0-0.2,0-0.4,0
		c-0.7,0-1.3,0.6-1.4,1.4c0,0.1,0,0.3,0,0.5V58h-1V54z"/>
	<path d="M480.9,50.5v1.7h1.5V53h-1.5v3.1c0,0.7,0.2,1.1,0.8,1.1c0.3,0,0.5,0,0.6-0.1l0,0.8c-0.2,0.1-0.5,0.1-0.9,0.1
		c-0.5,0-0.9-0.2-1.1-0.4c-0.3-0.3-0.4-0.8-0.4-1.5V53H479v-0.8h0.9v-1.4L480.9,50.5z"/>
	<path d="M483.6,53.8c0-0.6,0-1.1,0-1.6h0.9l0,0.9h0c0.3-0.6,0.9-1.1,1.8-1.1c0.8,0,1.4,0.5,1.6,1.2h0c0.2-0.3,0.4-0.6,0.6-0.8
		c0.3-0.3,0.7-0.4,1.3-0.4c0.8,0,1.9,0.5,1.9,2.5V58h-1v-3.3c0-1.1-0.4-1.8-1.3-1.8c-0.6,0-1.1,0.4-1.2,1c0,0.1-0.1,0.3-0.1,0.5V58
		h-1v-3.5c0-0.9-0.4-1.6-1.2-1.6c-0.7,0-1.1,0.5-1.3,1.1c-0.1,0.2-0.1,0.3-0.1,0.5V58h-1V53.8z"/>
	<path d="M494.2,55.3c0,1.4,0.9,2,2,2c0.8,0,1.2-0.1,1.6-0.3l0.2,0.8c-0.4,0.2-1,0.4-1.9,0.4c-1.8,0-2.9-1.2-2.9-2.9s1-3.1,2.7-3.1
		c1.9,0,2.4,1.7,2.4,2.7c0,0.2,0,0.4,0,0.5H494.2z M497.3,54.5c0-0.7-0.3-1.7-1.5-1.7c-1.1,0-1.5,1-1.6,1.7H497.3z"/>
	<path d="M499.7,53.8c0-0.6,0-1.1,0-1.6h0.9l0.1,1h0c0.3-0.6,1-1.1,1.9-1.1c0.8,0,2.1,0.5,2.1,2.5V58h-1.1v-3.3
		c0-0.9-0.3-1.7-1.3-1.7c-0.7,0-1.2,0.5-1.4,1.1c0,0.1-0.1,0.3-0.1,0.5V58h-1.1V53.8z"/>
	<path d="M507.5,50.5v1.7h1.5V53h-1.5v3.1c0,0.7,0.2,1.1,0.8,1.1c0.3,0,0.5,0,0.6-0.1l0,0.8c-0.2,0.1-0.5,0.1-0.9,0.1
		c-0.5,0-0.9-0.2-1.1-0.4c-0.3-0.3-0.4-0.8-0.4-1.5V53h-0.9v-0.8h0.9v-1.4L507.5,50.5z"/>
</g>
<g>
	<path d="M606.8,72.7c0.5,0.3,1.2,0.5,1.9,0.5c1.1,0,1.7-0.6,1.7-1.4c0-0.8-0.4-1.2-1.5-1.6c-1.3-0.5-2.1-1.2-2.1-2.3
		c0-1.3,1-2.2,2.6-2.2c0.8,0,1.4,0.2,1.8,0.4l-0.3,0.9c-0.3-0.1-0.8-0.4-1.5-0.4c-1.1,0-1.5,0.7-1.5,1.2c0,0.8,0.5,1.1,1.6,1.6
		c1.4,0.5,2.1,1.2,2.1,2.4c0,1.2-0.9,2.3-2.8,2.3c-0.8,0-1.6-0.2-2.1-0.5L606.8,72.7z"/>
	<path d="M617,73.8c-0.3,0.1-0.9,0.3-1.7,0.3c-1.8,0-2.9-1.2-2.9-3c0-1.8,1.2-3.1,3.1-3.1c0.6,0,1.2,0.2,1.5,0.3l-0.2,0.8
		c-0.3-0.1-0.6-0.3-1.2-0.3c-1.3,0-2.1,1-2.1,2.2c0,1.3,0.9,2.2,2,2.2c0.6,0,1-0.2,1.3-0.3L617,73.8z"/>
	<path d="M618.2,70c0-0.7,0-1.3,0-1.8h0.9l0,1.1h0c0.3-0.8,0.9-1.3,1.6-1.3c0.1,0,0.2,0,0.3,0v1c-0.1,0-0.2,0-0.4,0
		c-0.7,0-1.3,0.6-1.4,1.4c0,0.1,0,0.3,0,0.5V74h-1V70z"/>
	<path d="M622.6,71.3c0,1.4,0.9,2,2,2c0.8,0,1.2-0.1,1.6-0.3l0.2,0.8c-0.4,0.2-1,0.4-1.9,0.4c-1.8,0-2.9-1.2-2.9-2.9s1-3.1,2.7-3.1
		c1.9,0,2.4,1.7,2.4,2.7c0,0.2,0,0.4,0,0.5H622.6z M625.7,70.5c0-0.7-0.3-1.7-1.5-1.7c-1.1,0-1.5,1-1.6,1.7H625.7z"/>
	<path d="M628.5,68.2l0.8,3c0.2,0.6,0.3,1.2,0.4,1.8h0c0.1-0.6,0.3-1.2,0.5-1.8l0.9-3h0.9l0.9,2.9c0.2,0.7,0.4,1.3,0.5,1.9h0
		c0.1-0.6,0.3-1.2,0.4-1.9l0.8-2.9h1L634,74h-1l-0.9-2.8c-0.2-0.6-0.4-1.2-0.5-1.9h0c-0.1,0.7-0.3,1.3-0.5,1.9l-0.9,2.8h-1l-1.8-5.8
		H628.5z"/>
	<path d="M640.5,65.9v3.4h3.9v-3.4h1.1V74h-1.1v-3.8h-3.9V74h-1v-8.1H640.5z"/>
	<path d="M652.5,71c0,2.1-1.5,3.1-2.9,3.1c-1.6,0-2.8-1.2-2.8-3c0-1.9,1.3-3.1,2.9-3.1C651.4,68.1,652.5,69.3,652.5,71z M647.9,71.1
		c0,1.3,0.7,2.2,1.8,2.2c1,0,1.8-0.9,1.8-2.3c0-1-0.5-2.2-1.7-2.2C648.4,68.9,647.9,70,647.9,71.1z"/>
	<path d="M653.8,65.5h1.1V74h-1.1V65.5z"/>
	<path d="M657.3,71.3c0,1.4,0.9,2,2,2c0.8,0,1.2-0.1,1.6-0.3l0.2,0.8c-0.4,0.2-1,0.4-1.9,0.4c-1.8,0-2.9-1.2-2.9-2.9s1-3.1,2.7-3.1
		c1.9,0,2.4,1.7,2.4,2.7c0,0.2,0,0.4,0,0.5H657.3z M660.4,70.5c0-0.7-0.3-1.7-1.5-1.7c-1.1,0-1.5,1-1.6,1.7H660.4z"/>
	<path d="M662.5,72.9c0.3,0.2,0.9,0.4,1.4,0.4c0.8,0,1.1-0.4,1.1-0.9c0-0.5-0.3-0.8-1.1-1.1c-1-0.4-1.5-0.9-1.5-1.6
		c0-0.9,0.8-1.7,2-1.7c0.6,0,1.1,0.2,1.4,0.4l-0.3,0.8c-0.2-0.1-0.6-0.3-1.2-0.3c-0.6,0-1,0.4-1,0.8c0,0.5,0.3,0.7,1.1,1
		c1,0.4,1.5,0.9,1.5,1.8c0,1-0.8,1.7-2.2,1.7c-0.6,0-1.2-0.2-1.6-0.4L662.5,72.9z"/>
</g>
<line class="st1" x1="142" y1="128" x2="93" y2="62"/>
<line class="st1" x1="368" y1="111" x2="318" y2="68"/>
<line class="st1" x1="389" y1="140" x2="447" y2="68"/>
<line class="st1" x1="611.4" y1="147.7" x2="635.5" y2="79"/>
<line class="st1" x1="542.8" y1="147.7" x2="635.5" y2="79"/>
</svg>
