<?xml version="1.0" encoding="utf-8"?>
<!-- Generator: Adobe Illustrator 21.0.0, SVG Export Plug-In . SVG Version: 6.00 Build 0)  -->
<svg version="1.1" id="Layer_1" xmlns="http://www.w3.org/2000/svg" xmlns:xlink="http://www.w3.org/1999/xlink" x="0px" y="0px"
	 viewBox="0 0 686 487" style="enable-background:new 0 0 686 487;" xml:space="preserve">
<style type="text/css">
	.st0{fill:none;stroke:#000000;stroke-width:0.709;stroke-linecap:round;stroke-linejoin:round;stroke-miterlimit:10;}
	.st1{stroke:#000000;stroke-miterlimit:10;}
	.st2{fill:none;stroke:#000000;stroke-miterlimit:10;}
</style>
<path class="st0" d="M387.9,195.5l0.3-2.6l0.6-2.2l1-1.9l1.4-1.3l1.7-0.9l1.9-0.4l2.1,0.2l2.3,0.7l2.4,1.2l2.3,1.7l2.2,2.1l2.1,2.5
	l1.8,2.7l1.5,3l1.2,3l0.8,3l0.4,2.9v2.7l-0.4,2.4l-0.8,2l-1.2,1.6l-1.5,1.2l-1.8,0.6l-2.1,0.1l-2.2-0.4l-2.3-1l-2.4-1.5l-2.3-1.9
	l-2.1-2.3l-1.9-2.6l-1.7-2.8l-1.4-3l-1-3l-0.6-3L387.9,195.5 M414,201.8l0.7,2l0.8,3.2l0.5,3.2v2.9l-0.5,2.7l-0.8,2.3l-1.3,1.8
	l-1.6,1.4l-1.9,0.8l-2.2,0.3l-2.3-0.2l-2.5-0.9l-2.6-1.3l-2.5-1.8l-2.4-2.3l-2.3-2.6l-2.1-3l-1.7-3.1l-1.5-3.3l-1-3.3l-0.6-3.2
	l-0.3-3.1 M385.9,194.3l0.3-2.8l0.6-2.4l1-2.1l1.5-1.6l1.7-1.1l2.1-0.6h2.3l2.4,0.5l2.5,1.1l2.6,1.6l2.5,2.1l2.3,2.4l0.9,1
	 M386.4,198.8l-2.5-0.1l-3.6-0.5l-3.4-1l-3.1-1.4l-2.9-1.8l-2.4-2.2l-2-2.5l-1.5-2.7l-0.9-2.8l-0.3-2.9 M363.8,180.9l0.3-2.9
	l0.9-2.8l1.5-2.6l2-2.3l2.4-2l2.9-1.6l3.1-1.2l3.4-0.7l0.4-0.1 M424,239.8l-1.3,1.6l-2.5,2.3l-2.7,1.9l-2.9,1.4l-3,0.9l-3,0.3
	l-3-0.4l-2.7-0.9l-2.5-1.4l-2.2-2l-1.8-2.4l-1.4-2.8l-0.9-3.1l-0.5-3.3l0.1-3.4l0.6-3.5l1.1-3.4l1.6-3.2l0.3-0.6 M424,239.4
	l-0.2,4.8l-0.6,4.5l-1.1,4.1l-1.4,3.8l-1.8,3.3l-2.2,3l-2.5,2.4l-2.8,2l-3.2,1.5l-3.4,0.9l-3.6,0.5l-3.8-0.2l-4-0.6l-4.1-1.2
	l-4.2-1.7l-4.2-2.2l-4.2-2.7l-4.2-3.1l-4.1-3.5l-3.9-4l-3.9-4.3l-3.6-4.6l-3.4-4.8l-3.1-5.1l-2.9-5.3l-2.5-5.4l-2.1-5.4l-1.8-5.4
	l-1.5-5.5l-1-5.3l-0.6-5.2l-0.2-5l0.2-4.7l0.6-4.5l1-4.1l1.5-3.8l1.8-3.4l2.1-2.9l2.5-2.5l2.9-1.9l3.1-1.5l3.4-1l3.6-0.4l3.9,0.1
	l3.9,0.7l4.1,1.2l4.2,1.7l4.2,2.2l4.2,2.7l4.2,3.1l4.1,3.5l4,4l3.8,4.3l3.6,4.6l3.4,4.8l3.2,5.1l2.8,5.3l2.5,5.3l2.2,5.5l1.8,5.4
	l1.4,5.4l1.1,5.4l0.6,5.2L424,239.4 M426,240.6l-0.2,4.9l-0.7,4.6l-1,4.3l-1.4,3.9l-1.9,3.5l-2.2,3.1l-2.5,2.6l-2.9,2.1l-3.2,1.5
	l-3.5,1.1l-3.7,0.5h-3.9l-4-0.6l-4.2-1.1l-4.3-1.6l-4.4-2.2l-4.3-2.6l-4.4-3.1l-4.2-3.5l-4.1-4l-4-4.3l-3.8-4.6l-3.6-5l-3.4-5.1
	l-3-5.4l-2.7-5.5l-2.4-5.6l-2-5.6l-1.7-5.6l-1.2-5.5l-0.9-5.4l-0.4-5.3v-5l0.4-4.8l0.9-4.4l1.2-4.1l1.7-3.7l2-3.3l2.4-2.8l2.7-2.4
	l3-1.8l3.4-1.3l3.6-0.8l3.8-0.3l4,0.3l4.1,0.9l4.2,1.3l4.4,1.9l4.3,2.4l4.4,2.9l4.3,3.3l4.2,3.7l4,4.2l3.9,4.5l3.7,4.7l3.5,5.1
	l3.2,5.3l2.9,5.4l2.5,5.5l2.2,5.6l1.9,5.7l1.4,5.5l1,5.5l0.7,5.4L426,240.6 M430.9,175.1l-0.1-0.2l-0.8-0.7l-1.2-1l-1.6-1.2
	l-2.1-1.4l-2.4-1.7l-2.6-1.7l-2.8-1.9l-3-1.9l-3-1.9l-3-1.8l-2.8-1.7l-2.6-1.5l-2.4-1.4l-2-1.1l-1.6-0.8l-1.2-0.5l-0.7-0.3
	 M441.8,233.5l0.1-0.7l0.2-1.3l0.1-1.8v-2.3v-2.8 M442.2,224.6v-3v-3.3l-0.1-3.5l-0.2-3.5l-0.1-3.5l-0.2-3.4l-0.2-3.2l-0.3-2.9
	l-0.2-2.5l-0.2-2l-0.3-1.5l-0.2-1v-0.2 M140.8,294l1.9,0.2l3.9,1l4,1.4l4,2l4.1,2.5l4,2.9l4,3.3l3.8,3.8l3.7,4.1l3.4,4.4l3.3,4.7
	l3,4.9l2.6,5l2.4,5.2l2,5.2l1.6,5.3l1.2,5.1l0.9,5.1l0.4,4.9v4.7l-0.4,4.4l-0.9,4.1l-1.2,3.8l-0.4,0.8 M115.8,294.1l2.8-1.3l3.5-1.1
	l3.7-0.5h3.9l4,0.6l4.2,1.1l4.3,1.6l4.3,2.2l4.4,2.6l4.3,3.1l4.3,3.5l4.1,4l4,4.3l3.8,4.6l3.6,4.9l3.3,5.2l3,5.4l2.7,5.4l2.4,5.6
	l2.1,5.6l1.6,5.6l1.2,5.6l0.9,5.4l0.4,5.2v5l-0.4,4.8l-0.9,4.4l-1.2,4.1l-1.6,3.7l-2.1,3.3l-2.4,2.9l-2.7,2.3l-1.8,1.2 M112.8,295.9
	l0.6-0.4l3.2-1.6l3.5-1l3.7-0.5h3.8l4.1,0.6l4.2,1.1l4.3,1.6l4.3,2.1l4.4,2.7l4.3,3.1l4.3,3.5l4.1,3.9l4,4.4l3.8,4.6l3.6,4.9
	l3.3,5.2l3,5.3l2.7,5.5l2.4,5.6l2,5.6l1.7,5.6l1.2,5.5l0.9,5.4l0.4,5.3v5l-0.4,4.8l-0.9,4.4l-1.2,4.1l-1.7,3.7l-2,3.3L182,402
	l-2.7,2.4l-2.9,1.7 M86.2,366.3l-0.6-2.3l-0.8-4.3l-0.4-4.2v-4l0.4-3.8l0.8-3.3l1.3-3l1.6-2.6l2-2.1l2.3-1.6l2.7-1.1l2.8-0.5h3.1
	l3.3,0.5l3.4,1.1l3.4,1.6l3.5,2.2l3.4,2.5l3.3,3l3.2,3.4l3,3.8l2.7,4l2.5,4.2l2.2,4.3l1.8,4.5l1.4,4.4l1.1,4.4l0.6,4.3l0.2,4.1
	 M140.4,385.8l-0.2,3.9l-0.6,3.5l-1.1,3.2l-1.4,2.8l-1.8,2.4l-2.2,1.8l-2.5,1.4l-2.7,0.8l-3,0.3l-3.2-0.3l-3.3-0.9l-3.4-1.3
	l-3.5-1.9l-3.4-2.3l-3.4-2.8l-2.5-2.5 M154.3,323.5l-2.3-1.4l-2.7-0.8l-2.7-0.3l-2.8,0.3l-2.6,0.9l-2.3,1.3l-2,1.9l-1.6,2.2l-1,2.5
	l-0.5,2.6l0.2,2.7l0.7,2.6l1.3,2.3l1.8,2.1l2.2,1.6l2.5,1.1l2.7,0.5h2.8l2.7-0.6l2.5-1.1l2.2-1.6l1.8-2.1l1.3-2.3l0.7-2.6l0.2-2.7
	l-0.5-2.6l-1-2.5l-1.6-2.2L154.3,323.5 M135.1,306.6l-2.2-1l-2.4-0.4l-2.5,0.1l-2.6,0.6l-2.6,1.1l-2.3,1.5l-2,1.8l-1.6,2.1l-1.2,2.3
	l-0.6,2.3v2.3l0.5,2.2l1,1.8l1.5,1.6l2,1.1l2.3,0.7l2.5,0.1l2.6-0.3l2.6-0.8l2.4-1.3l2.2-1.7l1.8-2l1.4-2.2l0.9-2.3l0.3-2.3
	l-0.2-2.3l-0.8-2l-1.3-1.7L135.1,306.6 M115.3,300.9l-1.5-0.2L112,301l-2,0.8l-2.1,1.1l-2.1,1.6l-2,1.8l-1.9,2l-1.6,2.2l-1.2,2.2
	l-0.9,2l-0.4,1.9v1.7l0.5,1.2l0.9,0.9l1.3,0.4h1.6l1.9-0.5l2.1-1l2.1-1.4l2.1-1.7l1.9-1.9l1.8-2.1l1.4-2.2l1.1-2.1l0.6-2l0.2-1.8
	l-0.2-1.5l-0.7-1L115.3,300.9 M96.3,311.9l-1.3,2l-1.3,2.3l-1.4,2.3L91,321l-1.2,2.3l-1,2.1l-0.9,1.8l-0.6,1.5l-0.3,1v0.5h0.3
	l0.5-0.6l0.8-1l1-1.5l1.2-1.8l1.3-2.2l1.4-2.3l1.3-2.4l1.3-2.4l1.1-2.3l1-2l0.7-1.6l0.5-1.2l0.1-0.8l-0.1-0.2l-0.4,0.2l-0.7,0.8
	l-0.9,1.3L96.3,311.9 M138.9,410.5l-2,0.1l-1.6,0.2l-1,0.2l-0.5,0.2l0.2,0.2l0.7,0.3l1.3,0.2l1.8,0.2l2.2,0.2l2.5,0.1l2.7,0.1h2.8
	h2.7h2.5l2.2-0.1l1.8-0.2l1.3-0.1l0.7-0.2l0.2-0.3l-0.5-0.2l-1-0.2l-1.5-0.2l-2-0.2l-2.4-0.2l-2.6-0.1l-2.8-0.1h-2.7h-2.6
	L138.9,410.5 M148.5,405v1.3l0.6,1.1l1.1,1l1.6,0.7l2.1,0.4l2.4,0.2l2.6-0.2l2.7-0.5l2.7-0.7l2.5-0.9l2.2-1.2l1.9-1.3l1.3-1.4
	l0.9-1.3l0.3-1.4l-0.3-1.2l-0.9-1.1l-1.4-0.8l-1.8-0.6l-2.3-0.3h-2.5l-2.6,0.3l-2.7,0.6l-2.6,0.9l-2.4,1l-2.1,1.3l-1.6,1.3l-1.1,1.4
	L148.5,405 M153.9,385.9l0.3,2.2l0.9,2l1.3,1.7l1.8,1.3l2.2,0.8l2.5,0.4l2.6-0.1l2.6-0.6l2.6-1l2.3-1.5l2-1.8l1.6-2.1l1.1-2.2
	l0.6-2.4v-2.2l-0.6-2.1l-1.1-1.9l-1.6-1.5l-2-1.1l-2.3-0.6l-2.6-0.2l-2.6,0.4l-2.6,0.8l-2.5,1.3l-2.2,1.7l-1.8,1.9l-1.3,2.2
	l-0.9,2.3L153.9,385.9 M148.5,359.9l0.6,2.6l1.1,2.5l1.6,2.1l2.1,1.7l2.4,1.2l2.6,0.7h2.7l2.6-0.5l2.5-1.1l2.3-1.6l1.8-2l1.4-2.4
	l0.9-2.6l0.3-2.8l-0.3-2.7l-0.9-2.5l-1.3-2.3l-1.9-2l-2.2-1.4l-2.5-1l-2.7-0.3l-2.7,0.2l-2.6,0.8l-2.4,1.4l-2.1,1.8l-1.6,2.2
	l-1.1,2.5l-0.6,2.7V359.9 M176.4,406.1l2.9-1.7l2.7-2.4l2.4-2.8l2-3.3l1.7-3.7l1.2-4.1l0.9-4.4l0.4-4.8v-5l-0.4-5.3l-0.9-5.4
	l-1.2-5.5l-1.7-5.6l-2-5.6l-2.4-5.6l-2.7-5.5l-3-5.3l-3.3-5.2l-3.6-4.9l-3.8-4.6l-4-4.4l-4.1-3.9l-4.3-3.5l-4.3-3.1l-4.4-2.7
	l-4.3-2.1l-4.3-1.6l-4.2-1.1l-4.1-0.6h-3.8l-3.7,0.5l-3.5,1l-3.2,1.6l-0.6,0.4 M99.6,334.9h1.3l3.2,0.4l3.2,0.9l3.4,1.5l3.4,1.9
	l3.3,2.4l3.3,2.9l3.1,3.2l3,3.6l2.7,3.9l2.5,4.1l2.1,4.2l1.8,4.4l1.5,4.3l1,4.3l0.7,4.2l0.2,4 M94.2,336l-2.3,1.2l-2.2,1.8l-1.8,2.2
	l-1.5,2.7l-1,3.2l-0.7,3.5l-0.2,3.8 M138.8,385.7L138.8,385.7l-0.2-4l-0.7-4.3l-1-4.3l-1.5-4.4l-1.8-4.4l-2.2-4.3l-2.4-4.1l-2.8-3.9
	l-3-3.6l-3.2-3.3l-3.3-2.9l-3.3-2.4l-3.4-2l-2.6-1.2 M100.3,392l3,3l3.3,2.9l3.4,2.4l3.4,2l3.3,1.5l3.3,0.9l3.2,0.4l3-0.2l2.8-0.7
	l2.4-1.3l1.6-1.2 M84.5,354.4l0.2,4l0.7,4.3l1,4.3l0.6,1.9 M549.8,147.6l0.3,0.2 M544.5,143.2l0.6,0.6l2.3,2l2.4,1.8 M527.7,99.2
	l0.1,0.6l0.3,0.8l0.5,0.6l0.2,0.2 M527.5,99h-0.3h-0.5l-0.3,0.4l-0.2,0.6l0.1,0.7l0.3,0.7l0.5,0.7l0.4,0.4 M525.3,119.7v0.1v0.2v0.2
	v0.3l0.1,0.2 M533.3,134.9l1.5,2l1.7,2 M525.4,120.7l0.7,1.7 M536.5,138.9l0.2,0.2l0.2,0.1l0.2,0.1l0.2,0.1h0.1h0.2l0.1-0.1
	 M575.8,129.4l0.1,0.6l0.3,0.7l0.5,0.7l0.5,0.5 M575.6,129.2l-0.3-0.1l-0.5,0.1l-0.4,0.3l-0.1,0.6l0.1,0.7l0.3,0.8l0.5,0.7l0.5,0.4
	l0.6,0.3l0.5-0.1l0.4-0.3l0.1-0.4 M554.4,85.8v0.4l0.1,0.5l0.2,0.5l0.2,0.5l0.2,0.4l0.3,0.4l0.4,0.4l0.4,0.3 M554.5,83.6l-0.1,2.2
	 M571.8,106L571.8,106h0.3l0.2-0.1 M564.1,94.8l-0.2-0.2l-0.2-0.1l-0.2-0.2h-0.2h-0.2h-0.2 M556.2,89.2l1.8,1.4l1.9,1.6l1.8,1.7
	l0.7,0.7 M536.9,102.9l-0.5,1.9l-0.2,2.8l0.2,3l0.7,3.2l1,3.3l1.5,3.3l1.7,3.1l2.1,3l2.2,2.6l2.5,2.3l2.5,1.8 M550.6,133.2l2.6,1.4
	l2.4,0.8 M540.6,139l2.5,1.4l2.5,0.8l2.4,0.3l2.2-0.3l1.9-0.9l1.6-1.3l1.2-1.9l0.9-2.3l0.4-2.6v-3l-0.4-3.1l-0.9-3.3l-1.2-3.3
	l-1.6-3.2l-1.9-3l-2.2-2.8l-2.3-2.5l-2.5-2.1l-2.6-1.6l-2.5-1l-2.5-0.6h-2.2l-2.1,0.6l-1.7,1.1l-1.5,1.6l-1,2.1l-0.7,2.4l-0.2,2.9
	l0.2,3l0.7,3.2l1,3.3l1.4,3.3l1.8,3.1l2,3l2.3,2.6l2.5,2.3L540.6,139 M540.5,141.3l2.7,1.4l2.6,0.9l2.5,0.4l2.3-0.1l2.2-0.7l1.8-1.2
	l1.5-1.7l1.1-2.2l0.7-2.5l0.4-2.9l-0.1-3.1l-0.5-3.3l-1-3.5l-1.3-3.4l-1.6-3.4l-2-3.2l-2.2-3l-2.4-2.7l-2.6-2.4l-2.6-1.9l-2.7-1.4
	l-2.6-0.9l-2.5-0.4l-2.4,0.1l-2.1,0.7l-1.8,1.2l-1.5,1.7l-1.1,2.1l-0.8,2.6l-0.3,2.9l0.1,3.1l0.5,3.3l0.9,3.5l1.3,3.4l1.7,3.4
	l1.9,3.2l2.3,3l2.4,2.7l2.5,2.4L540.5,141.3 M571.9,106.3l-0.8-1.5l-0.9-1.5l-1-1.5l-0.9-1.5l-1-1.4l-1.1-1.4l-1.1-1.4l-1-1.3
	 M562.3,111.9l0.5,0.8l0.6,0.8l0.6,0.8l0.7,0.6l0.7,0.5l0.7,0.3l0.7,0.2l0.7,0.1 M567.5,116l5.3-0.5 M572.8,115.5h0.1l0.2-0.1
	l0.1-0.1v-0.2l0.1-0.2l-0.1-0.3v-0.2l-0.1-0.3 M573.1,114.1l-1-2.4l-1.2-2.4l-1.3-2.4l-1.3-2.3l-1.5-2.3l-1.5-2.2l-1.6-2.1l-1.7-2
	 M562,96l-0.1-0.2l-0.2-0.2l-0.2-0.1l-0.2-0.1h-0.2l-0.2,0.1l-0.1,0.1l-0.1,0.1 M560.7,95.7l-3.8,7.2 M556.9,102.9l-0.1,0.2v0.2v0.2
	l0.1,0.3l0.1,0.2l0.1,0.3l0.2,0.2l0.1,0.2 M557.4,104.7l0.7,0.8l0.7,0.8l0.7,0.9l0.6,0.9l0.6,0.9l0.6,0.9l0.5,1l0.5,1 M526.8,103.2
	l-0.4-0.4l-0.6-0.9l-0.5-1l-0.1-1l0.2-0.7l0.5-0.5l0.6-0.1l0.8,0.3 M527.3,98.9l0.8,0.7l0.6,0.9l0.4,0.8 M575.4,129.1l0.7,0.6
	l0.7,0.9l0.4,1l0.1,1l-0.2,0.8l-0.5,0.4l-0.6,0.1l-0.8-0.3l-0.8-0.7l-0.6-0.8l-0.4-1.1l-0.1-0.9l0.2-0.8l0.4-0.4l0.7-0.1
	L575.4,129.1 M557.6,101.6l-0.4-0.3l-2.5-2.4L552,97l-2.7-1.4l-2.6-0.9l-2.5-0.4l-2.3,0.1l-2.1,0.7l-0.6,0.3 M563.3,137.1l1.3-0.9
	l1.5-1.7l1.1-2.1l0.8-2.6l0.3-2.9l-0.1-3.1l-0.5-3.3l-0.9-3.5l-0.5-1.2 M549.8,144l0.1,0.2l0.1,0.5l0.1,0.4v0.5 M550.1,145.6
	l-0.1,2.3 M550,147.9v0.4l-0.2,0.3l-0.2,0.3l-0.3,0.2l-0.3,0.1l-0.4-0.1l-0.4-0.1l-0.4-0.2 M547.8,148.8l-2.4-1.8l-2.3-2.1l-2.3-2.1
	l-2.2-2.4l-1-1.1 M575.1,113l-0.3-0.9l-0.4-0.8l-0.4-0.9l-0.4-0.8l-0.4-0.8l-0.4-0.9l-0.4-0.8l-0.5-0.8 M575,114.3l0.1-0.1l0.1-0.1
	v-0.2l0.1-0.2v-0.2l-0.1-0.3l-0.1-0.2 M560.5,96l-0.8-0.9l-0.9-0.9l-0.9-0.8l-0.9-0.8l-1-0.8l-0.9-0.7l-0.9-0.7 M554.2,90.4
	l-0.4-0.3l-0.4-0.4l-0.3-0.4l-0.2-0.5l-0.2-0.5l-0.2-0.4l-0.1-0.5v-0.5 M552.4,86.9l0.1-2.2 M552.5,84.7v-0.5l0.2-0.3l0.2-0.3
	l0.3-0.2l0.3-0.1l0.4,0.1l0.4,0.1l0.4,0.3 M554.7,83.8l2.4,1.8l2.3,2l2.3,2.2l2.3,2.3l2.1,2.5l2.1,2.7l1.9,2.8l1.8,2.9 M571.9,103
	l0.3,0.5l0.2,0.5l0.1,0.5v0.5v0.4l-0.1,0.4l-0.2,0.3l-0.3,0.2 M527.4,76.1l-1.1,0.7l-2.2,2l-2,2.6l-1.5,3l-1.2,3.3l-0.8,3.8l-0.4,4
	l0.1,4.3l0.4,4.6l0.9,4.6l1.3,4.8l1.6,4.8l2,4.7l2.4,4.7l2.6,4.5l3,4.3l3.1,4.1l3.4,3.7l3.5,3.4l3.6,3l3.7,2.6 M549.8,153.6l3.7,2.1
	l3.7,1.6l3.6,1l3.5,0.6h3.3l3.1-0.5l2.9-1.1l0.5-0.3 M548.8,154.2l3.7,2.1l3.7,1.5l3.6,1.1l3.5,0.6h3.3l3.1-0.6l2.9-1l2.6-1.6l2.3-2
	l1.9-2.6l1.6-3l1.2-3.3l0.7-3.8l0.4-4v-4.3l-0.5-4.6l-0.9-4.6l-1.2-4.8l-1.7-4.8l-2-4.7l-2.4-4.7l-2.6-4.5l-2.9-4.3l-3.2-4.1
	l-3.4-3.7l-3.5-3.4l-3.6-3l-3.7-2.6l-3.7-2.1l-3.7-1.6l-3.6-1l-3.5-0.6h-3.3l-3.1,0.5l-2.9,1.1l-2.6,1.6l-2.3,2l-1.9,2.6l-1.6,2.9
	l-1.1,3.4l-0.8,3.8l-0.4,4l0.1,4.3l0.4,4.5l0.9,4.7l1.3,4.8l1.6,4.7l2,4.8l2.4,4.7l2.6,4.5l3,4.3l3.1,4.1l3.4,3.7l3.5,3.4l3.6,3
	L548.8,154.2 M580.2,161.8l0.2-0.2l2.7-1.9l2.3-2.4l2-2.9l1.5-3.3l1.2-3.7l0.8-4.1l0.4-4.3v-4.6l-0.5-4.9l-0.8-5l-1.3-5.1l-1.7-5.1
	l-2-5.1l-2.4-5.1l-2.6-5l-3-4.7l-3.3-4.6l-3.4-4.2l-3.7-4l-3.8-3.6l-3.9-3.1l-4-2.8l-4-2.2l-3.9-1.8l-3.9-1.3l-3.8-0.7l-3.6-0.2
	l-3.5,0.4l-3.2,0.9l-2.7,1.3 M457,118.1l1.5-1.7l2.4-1.9l2.6-1.5l3-0.9l3.1-0.4l3.4,0.2l3.5,0.7l3.7,1.2l3.6,1.7l3.8,2.2l3.6,2.7
	l3.6,3.1l3.5,3.5l3.3,3.8l3.1,4.2l2.9,4.3l2.6,4.6l2.2,4.7l2,4.8l1.5,4.8l1.2,4.7l0.7,4.6l0.4,4.5l-0.1,4.2l-0.4,4l-0.9,3.7
	l-1.3,3.2l-1.7,2.9 M513.8,190l-2,2.4l-2.4,2l-2.6,1.4l-3,0.9l-1.2,0.2 M259.3,247.6v-1l0.3-3.2l0.7-3.3l1.2-3.3l1.4-3.3l1.8-3.2
	l2.1-2.9l2.3-2.7l2.4-2.4l2.6-2l1.5-0.9 M287.5,218.1l-0.7-0.4l-2.1-0.6l-2.4-0.1l-2.5,0.5l-2.6,1l-2.7,1.6l-2.6,2l-2.5,2.4
	l-2.4,2.8l-2.1,3.1l-1.9,3.3l-1.5,3.4l-1.1,3.4l-0.8,3.4l-0.3,3.2l0.1,3l0.6,2.7l0.9,2.4l1.3,1.8l1.7,1.5l0.3,0.1 M347.3,254.8
	l-0.7,0.1l-2.5,0.5l-2.5,0.9l-2.6,1.5l-2.6,2l-2.4,2.3l-2.3,2.7l-2,3l-1.8,3.2l-1.5,3.3l-1.1,3.3l-0.7,3.3l-0.3,3.2l0.1,2.9l0.5,2.6
	l0.4,1.1 M340.3,294.1l2.6-1.8l2.5-2.1l2.3-2.6l2.2-2.8l1.9-3.1l1.7-3.3l1.3-3.3l0.9-3.3l0.5-3.2l0.1-3v-0.2 M351.5,255l1.1,0.8
	l1.5,1.6l1.1,2.2l0.8,2.5l0.3,2.9v1 M339.8,294.4l-2.7,1.2l-2.6,0.8l-2.4,0.2l-2.3-0.3l-1.7-0.8 M231.4,252.5l-1.3-0.5l-1.9-0.3
	L226,252l-2.3,0.8l-2.3,1.3l-2.4,1.8l-2.1,2.2l-2,2.5l-1.8,2.8l-1.4,3 M212,282.8l1.1,0.9l0.2,0.1 M208.9,263.6l-0.2-0.1l-2-0.7
	l-2.2-0.1l-2.3,0.4l-2.5,0.9l-2.5,1.4l-2.5,1.9l-2.3,2.2l-2.2,2.7l-2,2.9l-1.7,3.1l-1.4,3.2l-1,3.2l-0.6,3.1l-0.2,3l0.2,2.8l0.6,2.4
	l1,2.1l1.4,1.6l1.2,0.9 M212.1,282.6l1.4,1.3l1.8,0.8l2,0.2l2.1-0.3l2.4-0.9l2.3-1.4l2.3-1.8l2.2-2.3l1.9-2.6l1.7-2.8l1.4-3l1.1-3
	l0.6-2.9l0.2-2.9l-0.2-2.5l-0.6-2.3l-1.1-1.8l-1.4-1.3l-1.7-0.9l-1.9-0.3l-2.2,0.3l-2.3,0.8l-2.3,1.3l-2.4,1.8l-2.1,2.2l-2,2.5
	l-1.8,2.8l-1.4,3 M212.1,266.6l-1.4-1.7l-1.6-1.2l-2-0.7l-2.2-0.1l-2.3,0.4l-2.5,0.9l-2.5,1.4l-2.5,1.9l-2.3,2.3l-2.2,2.6l-2,2.9
	l-1.7,3.1l-1.4,3.2l-1,3.2l-0.6,3.2l-0.2,3l0.2,2.7l0.6,2.5l1,2l1.4,1.6l1.7,1.2l2,0.6l2.2,0.1l2.3-0.5l2.5-1l2.5-1.4l2.5-2l2.3-2.3
	l2.2-2.6l2-3l1.6-3.1l1.4-3.2 M398.8,179.7l-8.5,4.9 M411.6,221.4l8.5-4.9 M440.2,191.1l-0.9-2.2l-1-2.1l-1.1-2l-1.1-2.1l-1.2-2
	l-1.3-1.9l-1.3-1.9l-1.4-1.8 M395,152.4l-5.8-1l-6-0.5l-5.9,0.1l-5.9,0.6l-5.8,1.2l-5.7,1.7l-5.5,2.2l-5.3,2.7 M412.8,269.8l5-3.2
	l4.7-3.7l4.3-4.1l3.9-4.4l3.5-4.9l3-5.1l2.6-5.3l2-5.6 M115.8,294.1l-2,1.2 M177.5,405.6l2-1.2 M112.8,295.9l-2,1.4l-1.9,1.4
	l-1.9,1.5l-1.8,1.5l-1.7,1.6l-1.7,1.7l-1.7,1.8l-1.5,1.8 M87.2,329.1l-1.3,4.2l-0.9,4.4l-0.7,4.3l-0.3,4.4l-0.1,4.5l0.3,4.4l0.6,4.4
	l0.8,4.3 M103.9,395.6l3.3,2.9l3.5,2.7l3.7,2.4l3.8,2.2l4,1.9l4.2,1.6l4.2,1.4l4.3,1 M158.3,412.1l2.4-0.5l2.3-0.5l2.3-0.6l2.3-0.7
	l2.3-0.8l2.2-0.9l2.2-0.9l2.1-1.1 M98.8,334.6l-2.3,0.3l-2,0.7 M133.6,401.5l1-1l1.7-2.2l1.3-2.6l1-3l0.6-3.3l0.2-3.4v-0.6
	 M87,368.9l1.1,3.1l1.3,3.1l1.4,3.1l1.6,2.9l1.8,2.9l1.9,2.8l2.1,2.6l2.1,2.6 M537.6,139.3h0.1 M562.9,94.3l-2,1.2 M573,115.5l2-1.2
	 M539.2,95.4l-10,5.8 M553.3,142.9l10-5.8 M549.5,158.3l2.1,1.2l3.9,2l3.9,1.5l3.9,1.1l3.9,0.5h3.6l3.5-0.6l3.3-1l2.6-1.3
	 M526.4,68.5l-1.8,1.1l-2.6,2.2l-2.2,2.5l-1.9,2.9l-1.5,3.4l-1.2,3.6l-0.8,4l-0.4,4.3v4.4l0.4,4.7l0.7,4.8l1.2,4.8l1.4,4.9l1.9,4.9
	l2.1,4.8l2.5,4.7l2.7,4.6l3,4.4l3.2,4.1l3.4,3.9l3.6,3.5l3.7,3.3l3.8,2.8l1.9,1.2 M457,118.1l-3.1,4.5l-2.6,4.9l-2.1,5.2l-1.4,5.3
	l-0.9,5.5l-0.2,5.5l0.4,5.6l1,5.4l1.7,5.3l2.2,5.1l2.7,4.8l3.3,4.4l3.8,4.1l4.2,3.6l4.6,3.1l4.9,2.6l5.2,2l5.3,1.4l5.5,0.8l5.5,0.2
	l5.6-0.5 M264.2,258.6l63.9,36.9 M351.5,255l-64-36.9 M231.8,252.8l-0.4-0.3 M213.3,283.8l0.4,0.2 M209.3,263.9l-0.4-0.3
	 M187.7,300.5l0.4,0.2"/>
<g>
	<path d="M186.8,440.7c0.5,0.3,1.2,0.5,1.9,0.5c1.1,0,1.7-0.6,1.7-1.4c0-0.8-0.4-1.2-1.5-1.6c-1.3-0.5-2.1-1.2-2.1-2.3
		c0-1.3,1-2.2,2.6-2.2c0.8,0,1.4,0.2,1.8,0.4l-0.3,0.9c-0.3-0.1-0.8-0.4-1.5-0.4c-1.1,0-1.5,0.7-1.5,1.2c0,0.8,0.5,1.1,1.6,1.6
		c1.4,0.5,2.1,1.2,2.1,2.4c0,1.2-0.9,2.3-2.8,2.3c-0.8,0-1.6-0.2-2.1-0.5L186.8,440.7z"/>
	<path d="M193.5,439.3c0,1.4,0.9,2,2,2c0.8,0,1.2-0.1,1.6-0.3l0.2,0.8c-0.4,0.2-1,0.4-1.9,0.4c-1.8,0-2.9-1.2-2.9-2.9s1-3.1,2.7-3.1
		c1.9,0,2.4,1.7,2.4,2.7c0,0.2,0,0.4,0,0.5H193.5z M196.5,438.5c0-0.7-0.3-1.7-1.5-1.7c-1.1,0-1.5,1-1.6,1.7H196.5z"/>
	<path d="M198.9,437.8c0-0.6,0-1.1,0-1.6h0.9l0.1,1h0c0.3-0.6,1-1.1,1.9-1.1c0.8,0,2.1,0.5,2.1,2.5v3.5h-1.1v-3.3
		c0-0.9-0.3-1.7-1.3-1.7c-0.7,0-1.2,0.5-1.4,1.1c0,0.1-0.1,0.3-0.1,0.5v3.5h-1.1V437.8z"/>
	<path d="M205.4,440.9c0.3,0.2,0.9,0.4,1.4,0.4c0.8,0,1.1-0.4,1.1-0.9c0-0.5-0.3-0.8-1.1-1.1c-1-0.4-1.5-0.9-1.5-1.6
		c0-0.9,0.8-1.7,2-1.7c0.6,0,1.1,0.2,1.4,0.4l-0.3,0.8c-0.2-0.1-0.6-0.3-1.2-0.3c-0.6,0-1,0.4-1,0.8c0,0.5,0.3,0.7,1.1,1
		c1,0.4,1.5,0.9,1.5,1.8c0,1-0.8,1.7-2.2,1.7c-0.6,0-1.2-0.2-1.6-0.4L205.4,440.9z"/>
	<path d="M215.5,439c0,2.1-1.5,3.1-2.9,3.1c-1.6,0-2.8-1.2-2.8-3c0-1.9,1.3-3.1,2.9-3.1C214.4,436.1,215.5,437.3,215.5,439z
		 M210.9,439.1c0,1.3,0.7,2.2,1.8,2.2c1,0,1.8-0.9,1.8-2.3c0-1-0.5-2.2-1.7-2.2C211.5,436.9,210.9,438,210.9,439.1z"/>
	<path d="M216.9,438c0-0.7,0-1.3,0-1.8h0.9l0,1.1h0c0.3-0.8,0.9-1.3,1.6-1.3c0.1,0,0.2,0,0.3,0v1c-0.1,0-0.2,0-0.4,0
		c-0.7,0-1.3,0.6-1.4,1.4c0,0.1,0,0.3,0,0.5v3.1h-1V438z"/>
	<path d="M223.4,434c0.5-0.1,1.2-0.2,1.9-0.2c1,0,1.7,0.2,2.2,0.6c0.4,0.3,0.7,0.8,0.7,1.4c0,0.8-0.5,1.5-1.4,1.8v0
		c0.8,0.2,1.7,0.8,1.7,2c0,0.7-0.3,1.2-0.7,1.6c-0.6,0.5-1.5,0.8-2.8,0.8c-0.7,0-1.3,0-1.6-0.1V434z M224.4,437.3h0.9
		c1.1,0,1.8-0.6,1.8-1.4c0-0.9-0.7-1.3-1.8-1.3c-0.5,0-0.8,0-0.9,0.1V437.3z M224.4,441.2c0.2,0,0.5,0,0.9,0c1.1,0,2.1-0.4,2.1-1.6
		c0-1.1-0.9-1.6-2.1-1.6h-0.9V441.2z"/>
	<path d="M233.1,442l-0.1-0.7h0c-0.3,0.5-0.9,0.9-1.8,0.9c-1.2,0-1.8-0.8-1.8-1.7c0-1.4,1.2-2.2,3.5-2.2v-0.1c0-0.5-0.1-1.3-1.3-1.3
		c-0.5,0-1.1,0.2-1.5,0.4l-0.2-0.7c0.5-0.3,1.2-0.5,1.9-0.5c1.8,0,2.2,1.2,2.2,2.4v2.2c0,0.5,0,1,0.1,1.4H233.1z M232.9,439
		c-1.2,0-2.5,0.2-2.5,1.3c0,0.7,0.5,1,1,1c0.8,0,1.2-0.5,1.4-1c0-0.1,0.1-0.2,0.1-0.3V439z"/>
	<path d="M235.5,440.9c0.3,0.2,0.9,0.4,1.4,0.4c0.8,0,1.1-0.4,1.1-0.9c0-0.5-0.3-0.8-1.1-1.1c-1-0.4-1.5-0.9-1.5-1.6
		c0-0.9,0.8-1.7,2-1.7c0.6,0,1.1,0.2,1.4,0.4l-0.3,0.8c-0.2-0.1-0.6-0.3-1.2-0.3c-0.6,0-1,0.4-1,0.8c0,0.5,0.3,0.7,1.1,1
		c1,0.4,1.5,0.9,1.5,1.8c0,1-0.8,1.7-2.2,1.7c-0.6,0-1.2-0.2-1.6-0.4L235.5,440.9z"/>
	<path d="M241,439.3c0,1.4,0.9,2,2,2c0.8,0,1.2-0.1,1.6-0.3l0.2,0.8c-0.4,0.2-1,0.4-1.9,0.4c-1.8,0-2.9-1.2-2.9-2.9s1-3.1,2.7-3.1
		c1.9,0,2.4,1.7,2.4,2.7c0,0.2,0,0.4,0,0.5H241z M244.1,438.5c0-0.7-0.3-1.7-1.5-1.7c-1.1,0-1.5,1-1.6,1.7H244.1z"/>
</g>
<g>
	<path d="M117.9,216c0.5-0.1,1.2-0.2,1.9-0.2c1,0,1.7,0.2,2.2,0.6c0.4,0.3,0.7,0.8,0.7,1.4c0,0.8-0.5,1.5-1.4,1.8v0
		c0.8,0.2,1.7,0.8,1.7,2c0,0.7-0.3,1.2-0.7,1.6c-0.6,0.5-1.5,0.8-2.8,0.8c-0.7,0-1.3,0-1.6-0.1V216z M119,219.3h0.9
		c1.1,0,1.8-0.6,1.8-1.4c0-0.9-0.7-1.3-1.8-1.3c-0.5,0-0.8,0-0.9,0.1V219.3z M119,223.2c0.2,0,0.5,0,0.9,0c1.1,0,2.1-0.4,2.1-1.6
		c0-1.1-0.9-1.6-2.1-1.6H119V223.2z"/>
	<path d="M127.6,224l-0.1-0.7h0c-0.3,0.5-0.9,0.9-1.8,0.9c-1.2,0-1.8-0.8-1.8-1.7c0-1.4,1.2-2.2,3.5-2.2v-0.1c0-0.5-0.1-1.3-1.3-1.3
		c-0.5,0-1.1,0.2-1.5,0.4l-0.2-0.7c0.5-0.3,1.2-0.5,1.9-0.5c1.8,0,2.2,1.2,2.2,2.4v2.2c0,0.5,0,1,0.1,1.4H127.6z M127.4,221
		c-1.2,0-2.5,0.2-2.5,1.3c0,0.7,0.5,1,1,1c0.8,0,1.2-0.5,1.4-1c0-0.1,0.1-0.2,0.1-0.3V221z"/>
	<path d="M131.4,216.5v1.7h1.5v0.8h-1.5v3.1c0,0.7,0.2,1.1,0.8,1.1c0.3,0,0.5,0,0.6-0.1l0,0.8c-0.2,0.1-0.5,0.1-0.9,0.1
		c-0.5,0-0.9-0.2-1.1-0.4c-0.3-0.3-0.4-0.8-0.4-1.5V219h-0.9v-0.8h0.9v-1.4L131.4,216.5z"/>
	<path d="M135.4,216.5v1.7h1.5v0.8h-1.5v3.1c0,0.7,0.2,1.1,0.8,1.1c0.3,0,0.5,0,0.6-0.1l0,0.8c-0.2,0.1-0.5,0.1-0.9,0.1
		c-0.5,0-0.9-0.2-1.1-0.4c-0.3-0.3-0.4-0.8-0.4-1.5V219h-0.9v-0.8h0.9v-1.4L135.4,216.5z"/>
	<path d="M138.6,221.3c0,1.4,0.9,2,2,2c0.8,0,1.2-0.1,1.6-0.3l0.2,0.8c-0.4,0.2-1,0.4-1.9,0.4c-1.8,0-2.9-1.2-2.9-2.9s1-3.1,2.7-3.1
		c1.9,0,2.4,1.7,2.4,2.7c0,0.2,0,0.4,0,0.5H138.6z M141.7,220.5c0-0.7-0.3-1.7-1.5-1.7c-1.1,0-1.5,1-1.6,1.7H141.7z"/>
	<path d="M144,220c0-0.7,0-1.3,0-1.8h0.9l0,1.1h0c0.3-0.8,0.9-1.3,1.6-1.3c0.1,0,0.2,0,0.3,0v1c-0.1,0-0.2,0-0.4,0
		c-0.7,0-1.3,0.6-1.4,1.4c0,0.1,0,0.3,0,0.5v3.1h-1V220z"/>
	<path d="M148.6,218.2l1.3,3.4c0.1,0.4,0.3,0.8,0.4,1.2h0c0.1-0.3,0.2-0.8,0.4-1.2l1.2-3.4h1.1l-1.6,4.1c-0.8,2-1.3,3-2,3.6
		c-0.5,0.5-1,0.6-1.3,0.7l-0.3-0.9c0.3-0.1,0.6-0.3,0.9-0.5c0.3-0.2,0.6-0.6,0.9-1.2c0-0.1,0.1-0.2,0.1-0.3c0-0.1,0-0.1-0.1-0.3
		l-2.1-5.3H148.6z"/>
	<path d="M157.5,216.8H155v-0.9h6v0.9h-2.5v7.2h-1.1V216.8z"/>
	<path d="M164.3,224l-0.1-0.7h0c-0.3,0.5-0.9,0.9-1.8,0.9c-1.2,0-1.8-0.8-1.8-1.7c0-1.4,1.2-2.2,3.5-2.2v-0.1c0-0.5-0.1-1.3-1.3-1.3
		c-0.5,0-1.1,0.2-1.5,0.4l-0.2-0.7c0.5-0.3,1.2-0.5,1.9-0.5c1.8,0,2.2,1.2,2.2,2.4v2.2c0,0.5,0,1,0.1,1.4H164.3z M164.2,221
		c-1.2,0-2.5,0.2-2.5,1.3c0,0.7,0.5,1,1,1c0.8,0,1.2-0.5,1.4-1c0-0.1,0.1-0.2,0.1-0.3V221z"/>
	<path d="M166.9,224c0-0.4,0-1,0-1.5v-7h1v3.6h0c0.4-0.6,1-1.1,2-1.1c1.4,0,2.5,1.2,2.4,3c0,2.1-1.3,3.1-2.6,3.1
		c-0.8,0-1.5-0.3-1.9-1.1h0l0,1H166.9z M168,221.7c0,0.1,0,0.3,0,0.4c0.2,0.7,0.8,1.2,1.6,1.2c1.1,0,1.8-0.9,1.8-2.2
		c0-1.2-0.6-2.2-1.7-2.2c-0.7,0-1.4,0.5-1.6,1.3c0,0.1-0.1,0.3-0.1,0.4V221.7z"/>
</g>
<g>
	<path d="M323.9,333c0.5-0.1,1.2-0.2,1.9-0.2c1,0,1.7,0.2,2.2,0.6c0.4,0.3,0.7,0.8,0.7,1.4c0,0.8-0.5,1.5-1.4,1.8v0
		c0.8,0.2,1.7,0.8,1.7,2c0,0.7-0.3,1.2-0.7,1.6c-0.6,0.5-1.5,0.8-2.8,0.8c-0.7,0-1.3,0-1.6-0.1V333z M325,336.3h0.9
		c1.1,0,1.8-0.6,1.8-1.4c0-0.9-0.7-1.3-1.8-1.3c-0.5,0-0.8,0-0.9,0.1V336.3z M325,340.2c0.2,0,0.5,0,0.9,0c1.1,0,2.1-0.4,2.1-1.6
		c0-1.1-0.9-1.6-2.1-1.6H325V340.2z"/>
	<path d="M333.6,341l-0.1-0.7h0c-0.3,0.5-0.9,0.9-1.8,0.9c-1.2,0-1.8-0.8-1.8-1.7c0-1.4,1.2-2.2,3.5-2.2v-0.1c0-0.5-0.1-1.3-1.3-1.3
		c-0.5,0-1.1,0.2-1.5,0.4l-0.2-0.7c0.5-0.3,1.2-0.5,1.9-0.5c1.8,0,2.2,1.2,2.2,2.4v2.2c0,0.5,0,1,0.1,1.4H333.6z M333.4,338
		c-1.2,0-2.5,0.2-2.5,1.3c0,0.7,0.5,1,1,1c0.8,0,1.2-0.5,1.4-1c0-0.1,0.1-0.2,0.1-0.3V338z"/>
	<path d="M337.4,333.5v1.7h1.5v0.8h-1.5v3.1c0,0.7,0.2,1.1,0.8,1.1c0.3,0,0.5,0,0.6-0.1l0,0.8c-0.2,0.1-0.5,0.1-0.9,0.1
		c-0.5,0-0.9-0.2-1.1-0.4c-0.3-0.3-0.4-0.8-0.4-1.5V336h-0.9v-0.8h0.9v-1.4L337.4,333.5z"/>
	<path d="M341.4,333.5v1.7h1.5v0.8h-1.5v3.1c0,0.7,0.2,1.1,0.8,1.1c0.3,0,0.5,0,0.6-0.1l0,0.8c-0.2,0.1-0.5,0.1-0.9,0.1
		c-0.5,0-0.9-0.2-1.1-0.4c-0.3-0.3-0.4-0.8-0.4-1.5V336h-0.9v-0.8h0.9v-1.4L341.4,333.5z"/>
	<path d="M344.6,338.3c0,1.4,0.9,2,2,2c0.8,0,1.2-0.1,1.6-0.3l0.2,0.8c-0.4,0.2-1,0.4-1.9,0.4c-1.8,0-2.9-1.2-2.9-2.9s1-3.1,2.7-3.1
		c1.9,0,2.4,1.7,2.4,2.7c0,0.2,0,0.4,0,0.5H344.6z M347.7,337.5c0-0.7-0.3-1.7-1.5-1.7c-1.1,0-1.5,1-1.6,1.7H347.7z"/>
	<path d="M350,337c0-0.7,0-1.3,0-1.8h0.9l0,1.1h0c0.3-0.8,0.9-1.3,1.6-1.3c0.1,0,0.2,0,0.3,0v1c-0.1,0-0.2,0-0.4,0
		c-0.7,0-1.3,0.6-1.4,1.4c0,0.1,0,0.3,0,0.5v3.1h-1V337z"/>
	<path d="M354.6,335.2l1.3,3.4c0.1,0.4,0.3,0.8,0.4,1.2h0c0.1-0.3,0.2-0.8,0.4-1.2l1.2-3.4h1.1l-1.6,4.1c-0.8,2-1.3,3-2,3.6
		c-0.5,0.5-1,0.6-1.3,0.7l-0.3-0.9c0.3-0.1,0.6-0.3,0.9-0.5c0.3-0.2,0.6-0.6,0.9-1.2c0-0.1,0.1-0.2,0.1-0.3c0-0.1,0-0.1-0.1-0.3
		l-2.1-5.3H354.6z"/>
</g>
<g>
	<path d="M277.8,109.7c0.5,0.3,1.2,0.5,1.9,0.5c1.1,0,1.7-0.6,1.7-1.4c0-0.8-0.4-1.2-1.5-1.6c-1.3-0.5-2.1-1.2-2.1-2.3
		c0-1.3,1-2.2,2.6-2.2c0.8,0,1.4,0.2,1.8,0.4l-0.3,0.9c-0.3-0.1-0.8-0.4-1.5-0.4c-1.1,0-1.5,0.7-1.5,1.2c0,0.8,0.5,1.1,1.6,1.6
		c1.4,0.5,2.1,1.2,2.1,2.4c0,1.2-0.9,2.3-2.8,2.3c-0.8,0-1.6-0.2-2.1-0.5L277.8,109.7z"/>
	<path d="M284.5,108.3c0,1.4,0.9,2,2,2c0.8,0,1.2-0.1,1.6-0.3l0.2,0.8c-0.4,0.2-1,0.4-1.9,0.4c-1.8,0-2.9-1.2-2.9-2.9s1-3.1,2.7-3.1
		c1.9,0,2.4,1.7,2.4,2.7c0,0.2,0,0.4,0,0.5H284.5z M287.5,107.5c0-0.7-0.3-1.7-1.5-1.7c-1.1,0-1.5,1-1.6,1.7H287.5z"/>
	<path d="M289.9,106.8c0-0.6,0-1.1,0-1.6h0.9l0.1,1h0c0.3-0.6,1-1.1,1.9-1.1c0.8,0,2.1,0.5,2.1,2.5v3.5h-1.1v-3.3
		c0-0.9-0.3-1.7-1.3-1.7c-0.7,0-1.2,0.5-1.4,1.1c0,0.1-0.1,0.3-0.1,0.5v3.5h-1.1V106.8z"/>
	<path d="M296.4,109.9c0.3,0.2,0.9,0.4,1.4,0.4c0.8,0,1.1-0.4,1.1-0.9c0-0.5-0.3-0.8-1.1-1.1c-1-0.4-1.5-0.9-1.5-1.6
		c0-0.9,0.8-1.7,2-1.7c0.6,0,1.1,0.2,1.4,0.4l-0.3,0.8c-0.2-0.1-0.6-0.3-1.2-0.3c-0.6,0-1,0.4-1,0.8c0,0.5,0.3,0.7,1.1,1
		c1,0.4,1.5,0.9,1.5,1.8c0,1-0.8,1.7-2.2,1.7c-0.6,0-1.2-0.2-1.6-0.4L296.4,109.9z"/>
	<path d="M306.5,108c0,2.1-1.5,3.1-2.9,3.1c-1.6,0-2.8-1.2-2.8-3c0-1.9,1.3-3.1,2.9-3.1C305.4,105.1,306.5,106.3,306.5,108z
		 M301.9,108.1c0,1.3,0.7,2.2,1.8,2.2c1,0,1.8-0.9,1.8-2.3c0-1-0.5-2.2-1.7-2.2C302.5,105.9,301.9,107,301.9,108.1z"/>
	<path d="M307.9,107c0-0.7,0-1.3,0-1.8h0.9l0,1.1h0c0.3-0.8,0.9-1.3,1.6-1.3c0.1,0,0.2,0,0.3,0v1c-0.1,0-0.2,0-0.4,0
		c-0.7,0-1.3,0.6-1.4,1.4c0,0.1,0,0.3,0,0.5v3.1h-1V107z"/>
	<path d="M320,110.7c-0.4,0.2-1.2,0.4-2.1,0.4c-2.3,0-4-1.4-4-4.1c0-2.5,1.7-4.2,4.2-4.2c1,0,1.6,0.2,1.9,0.4l-0.3,0.9
		c-0.4-0.2-1-0.3-1.6-0.3c-1.9,0-3.2,1.2-3.2,3.3c0,2,1.1,3.3,3.1,3.3c0.6,0,1.3-0.1,1.7-0.3L320,110.7z"/>
	<path d="M326.4,108c0,2.1-1.5,3.1-2.9,3.1c-1.6,0-2.8-1.2-2.8-3c0-1.9,1.3-3.1,2.9-3.1C325.3,105.1,326.4,106.3,326.4,108z
		 M321.8,108.1c0,1.3,0.7,2.2,1.8,2.2c1,0,1.8-0.9,1.8-2.3c0-1-0.5-2.2-1.7-2.2C322.4,105.9,321.8,107,321.8,108.1z"/>
	<path d="M328.1,105.2l1.1,3.3c0.2,0.5,0.3,1,0.5,1.5h0c0.1-0.5,0.3-1,0.5-1.5l1.1-3.3h1.1l-2.3,5.8h-1l-2.2-5.8H328.1z"/>
	<path d="M333.9,108.3c0,1.4,0.9,2,2,2c0.8,0,1.2-0.1,1.6-0.3l0.2,0.8c-0.4,0.2-1,0.4-1.9,0.4c-1.8,0-2.9-1.2-2.9-2.9s1-3.1,2.7-3.1
		c1.9,0,2.4,1.7,2.4,2.7c0,0.2,0,0.4,0,0.5H333.9z M337,107.5c0-0.7-0.3-1.7-1.5-1.7c-1.1,0-1.5,1-1.6,1.7H337z"/>
	<path d="M339.3,107c0-0.7,0-1.3,0-1.8h0.9l0,1.1h0c0.3-0.8,0.9-1.3,1.6-1.3c0.1,0,0.2,0,0.3,0v1c-0.1,0-0.2,0-0.4,0
		c-0.7,0-1.3,0.6-1.4,1.4c0,0.1,0,0.3,0,0.5v3.1h-1V107z"/>
</g>
<g>
	<path d="M516.7,218.5c-0.1-1.1-0.1-2.5-0.1-3.5h0c-0.3,0.9-0.6,2-1,3.1l-1.4,3.9h-0.8l-1.3-3.9c-0.4-1.1-0.7-2.2-0.9-3.1h0
		c0,1-0.1,2.4-0.2,3.6l-0.2,3.5h-1l0.6-8.1h1.3l1.4,3.9c0.3,1,0.6,1.9,0.8,2.7h0c0.2-0.8,0.5-1.7,0.9-2.7l1.4-3.9h1.3l0.5,8.1h-1
		L516.7,218.5z"/>
	<path d="M524.8,219c0,2.1-1.5,3.1-2.9,3.1c-1.6,0-2.8-1.2-2.8-3c0-1.9,1.3-3.1,2.9-3.1C523.7,216.1,524.8,217.3,524.8,219z
		 M520.2,219.1c0,1.3,0.7,2.2,1.8,2.2c1,0,1.8-0.9,1.8-2.3c0-1-0.5-2.2-1.7-2.2C520.8,216.9,520.2,218,520.2,219.1z"/>
	<path d="M531,220.4c0,0.6,0,1.1,0,1.6h-0.9l-0.1-0.9h0c-0.3,0.5-0.9,1.1-1.9,1.1c-0.9,0-2-0.5-2-2.5v-3.4h1.1v3.2
		c0,1.1,0.3,1.8,1.3,1.8c0.7,0,1.2-0.5,1.4-1c0.1-0.2,0.1-0.3,0.1-0.5v-3.6h1.1V220.4z"/>
	<path d="M532.8,217.8c0-0.6,0-1.1,0-1.6h0.9l0.1,1h0c0.3-0.6,1-1.1,1.9-1.1c0.8,0,2.1,0.5,2.1,2.5v3.5h-1.1v-3.3
		c0-0.9-0.3-1.7-1.3-1.7c-0.7,0-1.2,0.5-1.4,1.1c0,0.1-0.1,0.3-0.1,0.5v3.5h-1.1V217.8z"/>
	<path d="M540.7,214.5v1.7h1.5v0.8h-1.5v3.1c0,0.7,0.2,1.1,0.8,1.1c0.3,0,0.5,0,0.6-0.1l0,0.8c-0.2,0.1-0.5,0.1-0.9,0.1
		c-0.5,0-0.9-0.2-1.1-0.4c-0.3-0.3-0.4-0.8-0.4-1.5V217h-0.9v-0.8h0.9v-1.4L540.7,214.5z"/>
	<path d="M548.2,213.7c-0.9,1.2-1.5,2.7-1.5,4.9c0,2.1,0.7,3.7,1.5,4.9h-0.8c-0.8-1-1.6-2.5-1.6-4.9c0-2.4,0.8-3.9,1.6-4.9H548.2z"
		/>
	<path d="M556.2,218.5c-0.1-1.1-0.1-2.5-0.1-3.5h0c-0.3,0.9-0.6,2-1,3.1l-1.4,3.9h-0.8l-1.3-3.9c-0.4-1.1-0.7-2.2-0.9-3.1h0
		c0,1-0.1,2.4-0.2,3.6l-0.2,3.5h-1l0.6-8.1h1.3l1.4,3.9c0.3,1,0.6,1.9,0.8,2.7h0c0.2-0.8,0.5-1.7,0.9-2.7l1.4-3.9h1.3l0.5,8.1h-1
		L556.2,218.5z"/>
	<path d="M562.3,222l-0.1-0.7h0c-0.3,0.5-0.9,0.9-1.8,0.9c-1.2,0-1.8-0.8-1.8-1.7c0-1.4,1.2-2.2,3.5-2.2v-0.1c0-0.5-0.1-1.3-1.3-1.3
		c-0.5,0-1.1,0.2-1.5,0.4l-0.2-0.7c0.5-0.3,1.2-0.5,1.9-0.5c1.8,0,2.2,1.2,2.2,2.4v2.2c0,0.5,0,1,0.1,1.4H562.3z M562.1,219
		c-1.2,0-2.5,0.2-2.5,1.3c0,0.7,0.5,1,1,1c0.8,0,1.2-0.5,1.4-1c0-0.1,0.1-0.2,0.1-0.3V219z"/>
	<path d="M569.8,216.2c0,0.4,0,0.9,0,1.6v3.4c0,1.3-0.3,2.1-0.8,2.7c-0.6,0.5-1.4,0.7-2.1,0.7c-0.7,0-1.5-0.2-1.9-0.5l0.3-0.8
		c0.4,0.2,1,0.5,1.7,0.5c1.1,0,1.9-0.6,1.9-2V221h0c-0.3,0.5-0.9,1-1.8,1c-1.4,0-2.5-1.2-2.5-2.8c0-2,1.3-3.1,2.6-3.1
		c1,0,1.6,0.5,1.8,1h0l0-0.9H569.8z M568.7,218.5c0-0.2,0-0.3-0.1-0.5c-0.2-0.6-0.7-1.1-1.5-1.1c-1,0-1.7,0.9-1.7,2.2
		c0,1.1,0.6,2.1,1.7,2.1c0.6,0,1.2-0.4,1.5-1.1c0.1-0.2,0.1-0.4,0.1-0.6V218.5z"/>
	<path d="M571.5,217.8c0-0.6,0-1.1,0-1.6h0.9l0.1,1h0c0.3-0.6,1-1.1,1.9-1.1c0.8,0,2.1,0.5,2.1,2.5v3.5h-1.1v-3.3
		c0-0.9-0.3-1.7-1.3-1.7c-0.7,0-1.2,0.5-1.4,1.1c0,0.1-0.1,0.3-0.1,0.5v3.5h-1.1V217.8z"/>
	<path d="M578.7,219.3c0,1.4,0.9,2,2,2c0.8,0,1.2-0.1,1.6-0.3l0.2,0.8c-0.4,0.2-1,0.4-1.9,0.4c-1.8,0-2.9-1.2-2.9-2.9s1-3.1,2.7-3.1
		c1.9,0,2.4,1.7,2.4,2.7c0,0.2,0,0.4,0,0.5H578.7z M581.8,218.5c0-0.7-0.3-1.7-1.5-1.7c-1.1,0-1.5,1-1.6,1.7H581.8z"/>
	<path d="M585.4,214.5v1.7h1.5v0.8h-1.5v3.1c0,0.7,0.2,1.1,0.8,1.1c0.3,0,0.5,0,0.6-0.1l0,0.8c-0.2,0.1-0.5,0.1-0.9,0.1
		c-0.5,0-0.9-0.2-1.1-0.4c-0.3-0.3-0.4-0.8-0.4-1.5V217h-0.9v-0.8h0.9v-1.4L585.4,214.5z"/>
	<path d="M587.5,223.5c0.9-1.2,1.5-2.7,1.5-4.9c0-2.1-0.6-3.7-1.5-4.9h0.8c0.8,1,1.6,2.5,1.6,4.9c0,2.4-0.8,3.9-1.6,4.9H587.5z"/>
</g>
<g>
	<path class="st1" d="M429.7,33.5c-0.1-1.1-0.1-2.5-0.1-3.5h0c-0.3,0.9-0.6,2-1,3.1l-1.4,3.9h-0.8l-1.3-3.9
		c-0.4-1.1-0.7-2.2-0.9-3.1h0c0,1-0.1,2.4-0.2,3.6l-0.2,3.5h-1l0.6-8.1h1.3l1.4,3.9c0.3,1,0.6,1.9,0.8,2.7h0
		c0.2-0.8,0.5-1.7,0.9-2.7l1.4-3.9h1.3l0.5,8.1h-1L429.7,33.5z"/>
	<path class="st1" d="M437.8,34c0,2.1-1.5,3.1-2.9,3.1c-1.6,0-2.8-1.2-2.8-3c0-1.9,1.3-3.1,2.9-3.1C436.7,31.1,437.8,32.3,437.8,34z
		 M433.2,34.1c0,1.3,0.7,2.2,1.8,2.2c1,0,1.8-0.9,1.8-2.3c0-1-0.5-2.2-1.7-2.2C433.8,31.9,433.2,33,433.2,34.1z"/>
	<path class="st1" d="M444,35.4c0,0.6,0,1.1,0,1.6h-0.9l-0.1-0.9h0c-0.3,0.5-0.9,1.1-1.9,1.1c-0.9,0-2-0.5-2-2.5v-3.4h1.1v3.2
		c0,1.1,0.3,1.8,1.3,1.8c0.7,0,1.2-0.5,1.4-1c0.1-0.2,0.1-0.3,0.1-0.5v-3.6h1.1V35.4z"/>
	<path class="st1" d="M445.8,32.8c0-0.6,0-1.1,0-1.6h0.9l0.1,1h0c0.3-0.6,1-1.1,1.9-1.1c0.8,0,2.1,0.5,2.1,2.5V37h-1.1v-3.3
		c0-0.9-0.3-1.7-1.3-1.7c-0.7,0-1.2,0.5-1.4,1.1c0,0.1-0.1,0.3-0.1,0.5V37h-1.1V32.8z"/>
	<path class="st1" d="M453.7,29.5v1.7h1.5V32h-1.5v3.1c0,0.7,0.2,1.1,0.8,1.1c0.3,0,0.5,0,0.6-0.1l0,0.8c-0.2,0.1-0.5,0.1-0.9,0.1
		c-0.5,0-0.9-0.2-1.1-0.4c-0.3-0.3-0.4-0.8-0.4-1.5V32h-0.9v-0.8h0.9v-1.4L453.7,29.5z"/>
	<path class="st1" d="M461.2,28.7c-0.9,1.2-1.5,2.7-1.5,4.9c0,2.1,0.7,3.7,1.5,4.9h-0.8c-0.8-1-1.6-2.5-1.6-4.9
		c0-2.4,0.8-3.9,1.6-4.9H461.2z"/>
	<path class="st1" d="M464.3,37l-2.1-8.1h1.1l1,4.1c0.2,1,0.5,2,0.6,2.8h0c0.1-0.8,0.4-1.8,0.7-2.8l1.1-4.1h1.1l1,4.1
		c0.2,1,0.4,1.9,0.6,2.8h0c0.2-0.9,0.4-1.8,0.6-2.8l1.1-4.1h1.1l-2.3,8.1h-1.1l-1-4.2c-0.3-1-0.4-1.8-0.5-2.6h0
		c-0.1,0.8-0.3,1.6-0.6,2.6l-1.2,4.2H464.3z"/>
	<path class="st1" d="M475.9,37l-0.1-0.7h0c-0.3,0.5-0.9,0.9-1.8,0.9c-1.2,0-1.8-0.8-1.8-1.7c0-1.4,1.2-2.2,3.5-2.2v-0.1
		c0-0.5-0.1-1.3-1.3-1.3c-0.5,0-1.1,0.2-1.5,0.4l-0.2-0.7c0.5-0.3,1.2-0.5,1.9-0.5c1.8,0,2.2,1.2,2.2,2.4v2.2c0,0.5,0,1,0.1,1.4
		H475.9z M475.7,34c-1.2,0-2.5,0.2-2.5,1.3c0,0.7,0.5,1,1,1c0.8,0,1.2-0.5,1.4-1c0-0.1,0.1-0.2,0.1-0.3V34z"/>
	<path class="st1" d="M478.5,28.5h1.1V37h-1.1V28.5z"/>
	<path class="st1" d="M481.3,28.5h1.1V37h-1.1V28.5z"/>
	<path class="st1" d="M493.5,33.5c-0.1-1.1-0.1-2.5-0.1-3.5h0c-0.3,0.9-0.6,2-1,3.1l-1.4,3.9h-0.8l-1.3-3.9
		c-0.4-1.1-0.7-2.2-0.9-3.1h0c0,1-0.1,2.4-0.2,3.6l-0.2,3.5h-1l0.6-8.1h1.3l1.4,3.9c0.3,1,0.6,1.9,0.8,2.7h0
		c0.2-0.8,0.5-1.7,0.9-2.7l1.4-3.9h1.3l0.5,8.1h-1L493.5,33.5z"/>
	<path class="st1" d="M501.7,34c0,2.1-1.5,3.1-2.9,3.1c-1.6,0-2.8-1.2-2.8-3c0-1.9,1.3-3.1,2.9-3.1C500.5,31.1,501.7,32.3,501.7,34z
		 M497,34.1c0,1.3,0.7,2.2,1.8,2.2c1,0,1.8-0.9,1.8-2.3c0-1-0.5-2.2-1.7-2.2C497.6,31.9,497,33,497,34.1z"/>
	<path class="st1" d="M507.8,35.4c0,0.6,0,1.1,0,1.6H507l-0.1-0.9h0c-0.3,0.5-0.9,1.1-1.9,1.1c-0.9,0-2-0.5-2-2.5v-3.4h1.1v3.2
		c0,1.1,0.3,1.8,1.3,1.8c0.7,0,1.2-0.5,1.4-1c0.1-0.2,0.1-0.3,0.1-0.5v-3.6h1.1V35.4z"/>
	<path class="st1" d="M509.6,32.8c0-0.6,0-1.1,0-1.6h0.9l0.1,1h0c0.3-0.6,1-1.1,1.9-1.1c0.8,0,2.1,0.5,2.1,2.5V37h-1.1v-3.3
		c0-0.9-0.3-1.7-1.3-1.7c-0.7,0-1.2,0.5-1.4,1.1c0,0.1-0.1,0.3-0.1,0.5V37h-1.1V32.8z"/>
	<path class="st1" d="M517.5,29.5v1.7h1.5V32h-1.5v3.1c0,0.7,0.2,1.1,0.8,1.1c0.3,0,0.5,0,0.6-0.1l0,0.8c-0.2,0.1-0.5,0.1-0.9,0.1
		c-0.5,0-0.9-0.2-1.1-0.4c-0.3-0.3-0.4-0.8-0.4-1.5V32h-0.9v-0.8h0.9v-1.4L517.5,29.5z"/>
	<path class="st1" d="M519.5,38.5c0.9-1.2,1.5-2.7,1.5-4.9c0-2.1-0.6-3.7-1.5-4.9h0.8c0.8,1,1.6,2.5,1.6,4.9c0,2.4-0.8,3.9-1.6,4.9
		H519.5z"/>
</g>
<line class="st2" x1="177.7" y1="385" x2="211" y2="425"/>
<line class="st2" x1="199" y1="273" x2="150" y2="224"/>
<line class="st2" x1="318" y1="276" x2="337.6" y2="321"/>
<line class="st2" x1="357" y1="166" x2="313" y2="118"/>
<line class="st2" x1="495" y1="179" x2="537" y2="203"/>
<line class="st2" x1="532" y1="80" x2="480" y2="47"/>
</svg>
