<?xml version="1.0" encoding="utf-8"?>
<!-- Generator: Adobe Illustrator 21.0.0, SVG Export Plug-In . SVG Version: 6.00 Build 0)  -->
<svg version="1.1" id="Layer_1" xmlns="http://www.w3.org/2000/svg" xmlns:xlink="http://www.w3.org/1999/xlink" x="0px" y="0px"
	 viewBox="0 0 1049 654" style="enable-background:new 0 0 1049 654;" xml:space="preserve">
<style type="text/css">
	.st0{fill:none;stroke:#000000;stroke-width:0.51;stroke-miterlimit:10;}
	
		.st1{fill:none;stroke:#000000;stroke-width:0.51;stroke-linecap:round;stroke-linejoin:round;stroke-miterlimit:10;stroke-dasharray:43.2,3.6,3.6,3.6;stroke-dashoffset:12;}
	
		.st2{fill:none;stroke:#000000;stroke-width:0.51;stroke-linecap:round;stroke-linejoin:round;stroke-miterlimit:10;stroke-dasharray:43.2,3.6,3.6,3.6;stroke-dashoffset:7;}
	
		.st3{fill:none;stroke:#000000;stroke-width:0.51;stroke-linecap:round;stroke-linejoin:round;stroke-miterlimit:10;stroke-dasharray:43.2,3.6,3.6,3.6;}
	
		.st4{fill:none;stroke:#000000;stroke-width:0.51;stroke-linecap:round;stroke-linejoin:round;stroke-miterlimit:10;stroke-dasharray:43.2,3.6,3.6,3.6;stroke-dashoffset:21;}
	
		.st5{fill:none;stroke:#000000;stroke-width:0.51;stroke-linecap:round;stroke-linejoin:round;stroke-miterlimit:10;stroke-dasharray:43.2,3.6,3.6,3.6;stroke-dashoffset:13;}
	
		.st6{fill:none;stroke:#000000;stroke-width:0.51;stroke-linecap:round;stroke-linejoin:round;stroke-miterlimit:10;stroke-dasharray:43.2,3.6,3.6,3.6;stroke-dashoffset:-1;}
	.st7{fill:none;stroke:#000000;stroke-width:0.709;stroke-linecap:round;stroke-linejoin:round;stroke-miterlimit:10;}
</style>
<path class="st0" d="M429.7,391.9h-2.9 M428.2,393.3v-2.8 M427.2,392.9l2-2 M427.2,390.9l2,2 M289.7,353.5h-2.8 M288.3,354.9v-2.8
	 M287.3,354.5l2-2 M287.3,352.5l2,2 M627.2,386.9h-2.8 M625.8,388.3v-2.8 M624.8,387.9l2-2 M624.8,385.9l2,2"/>
<line class="st1" x1="626" y1="386.9" x2="642" y2="206.7"/>
<line class="st2" x1="626" y1="386.9" x2="481.4" y2="511.4"/>
<line class="st3" x1="625.9" y1="386.9" x2="624.8" y2="386.4"/>
<line class="st3" x1="288.4" y1="353.4" x2="143.9" y2="395.7"/>
<line class="st4" x1="288.4" y1="353.4" x2="304.4" y2="515"/>
<line class="st3" x1="288.3" y1="353.5" x2="287.3" y2="355.1"/>
<line class="st5" x1="428.4" y1="391.8" x2="343" y2="300.3"/>
<line class="st6" x1="428.4" y1="391.8" x2="343" y2="581.9"/>
<line class="st3" x1="428.3" y1="391.9" x2="426.9" y2="392.7"/>
<path class="st7" d="M676,339.3l3.8,1.6l5.6,3.2l5.2,4.2l4.5,4.9l3.9,5.6l3.2,6.3l2.4,6.8l1.5,7.2l0.8,7.5l-0.1,7.7l-1,7.8l-1.8,7.8
	l-2.6,7.5l-3.4,7.3 M698,424.7l-4,6.8l-4.8,6.4l-5.2,5.7l-5.8,5l-6.2,4.2l-6.5,3.4l-6.7,2.4l-6.7,1.5l-6.8,0.6l-6.6-0.5l-6.4-1.4
	l-6.1-2.3l-0.7-0.4 M700.7,440.9l1.3-1.6l2.3-3.1l2.3-3.7l2.3-4 M708.9,428.5l2-4.1l1.8-4.1l1.4-3.9l1-3.5l0.1-0.4 M431.1,316.8
	l0.4-0.3l4.1-2.1l4.6-1.2l4.9-0.3l5.3,0.7l5.5,1.5l5.6,2.4l5.6,3.3l5.7,4.1l5.4,4.8l5.3,5.4l5,6l4.5,6.5l4.2,6.8l3.6,7.2l3,7.2
	l2.4,7.3l1.8,7.3l1,7l0.4,6.7 M509.4,397.1l-0.4,6.3l-1,5.8l-1.8,5.2l-2.4,4.6l-3,3.7l-3.6,3l-2.5,1.4 M514.3,331.6l-0.8-0.8
	l-1.6-1.2l-2.3-1.7l-3-2.1l-3.4-2.3l-3.8-2.5l-3.9-2.4l-3.9-2.4L488,314l-3.3-1.9l-2.8-1.5l-2-1.1l-1.3-0.5h-0.2 M525.2,390l0.1-0.8
	l0.2-1.8l0.1-2.8v-3.4 M525.6,381.2v-4.1l-0.1-4.4l-0.2-4.7l-0.2-4.6l-0.2-4.3l-0.3-3.9l-0.3-3.2l-0.4-2.5l-0.2-1.6l-0.2-0.3
	 M375.8,308.1L375.8,308.1l1.3-1.2l0.8-2l0.2-2.8l-0.2-3.4l-0.7-3.9l-1.2-4.2l-1.6-4.3l-1.9-4.2l-2.1-4l-2.3-3.4l-2.3-2.8l-2.3-2
	 M363.5,269.9l-2-1.2l-1.8-0.2l-0.7,0.1 M342.4,260.9l-0.1-2l-1.2-2.4l-2.1-2.2l-2.9-2 M336.1,252.3l-3.6-1.8l-4.1-1.3l-4.5-0.9
	l-4.6-0.5l-4.6,0.1l-4.2,0.6l-3.7,1l-3.1,1.5l-2.3,1.8l-1.3,2.1l-0.3,1.4 M336.1,252.3l2.9,2l2.1,2.2l1.2,2.4l0.1,2.3l-0.9,2.2
	l-1.8,1.9l-2.6,1.7l-3.5,1.3l-4,0.8l-4.4,0.3l-4.6-0.2l-4.6-0.6l-4.3-1.2l-3.9-1.5l-3.3-1.9l-2.5-2.2l-1.6-2.3l-0.7-2.3l0.4-2.3
	l1.3-2.1l2.3-1.8l3.1-1.5l3.7-1l4.2-0.6l4.6-0.1l4.6,0.5l4.5,0.9l4.1,1.3L336.1,252.3 M371.3,306.9l-2.2-2l-2.3-2.8l-2.3-3.4l-2.2-4
	l-1.9-4.2l-1.6-4.3l-1.1-4.2l-0.8-3.9l-0.2-3.5l0.3-2.7l0.7-2.1l1.2-1.1l1.6-0.2l2,0.7l2.1,1.6l2.3,2.4l2.3,3.1l2.3,3.7l2,4.1
	l1.8,4.3l1.3,4.3l1,4.1l0.5,3.7v3.1l-0.5,2.4l-1,1.6l-1.4,0.7l-1.8-0.2L371.3,306.9 M362.8,267.7l-0.7-0.6l-1.6-1.2l-2.3-1.7l-2.9-2
	l-3.4-2.2l-3.5-2.2l-3.6-2.3l-3.4-2l-3-1.7l-2.4-1.4l-1.8-0.8l-0.7-0.3 M261.5,276.6l0.1-0.2h0.7l1.6,0.5l2.4,1l3.1,1.5l3.9,2
	l4.6,2.5l5.1,2.9l5.7,3.3l6.1,3.5l6.4,3.9l6.6,4.1l6.7,4.2l6.8,4.2l6.7,4.3l6.5,4.2l6.1,4.1l5.8,3.9l5.3,3.6l4.7,3.4l4.1,2.9
	 M360.5,336.4l3.4,2.6l2.6,2.1l1.8,1.6l0.9,1.1l0.1,0.6l-0.1,0.1 M261.6,276.5L261.6,276.5l0.7-0.1l1.6,0.5l2.4,1l3.2,1.5l3.9,2.1
	l4.5,2.4l5.1,2.9l5.7,3.3l6.1,3.6l6.4,3.8l6.6,4.1l6.7,4.2l6.8,4.2l6.7,4.3l6.4,4.2l6.2,4.1l5.8,3.9l5.3,3.6l4.7,3.3l4.1,3l3.3,2.6
	l2.6,2.1l1.8,1.6l1,1.1l0.1,0.6 M260.1,278.9L260.1,278.9l0.7-0.1l1.6,0.5l2.4,1l3.2,1.5l3.8,2l4.6,2.5l5.1,2.9l5.7,3.3l6.1,3.6
	l6.4,3.8l6.6,4.1l6.7,4.2l6.8,4.2l6.7,4.3l6.4,4.2l6.2,4.1l5.8,3.9l5.3,3.6l4.7,3.3l4.1,3l3.3,2.6l2.6,2.1l1.8,1.6l1,1.1l0.1,0.6
	 M432.5,316l3.1-1.5l4.6-1.2l4.9-0.3l5.3,0.6l5.5,1.6l5.6,2.4l5.6,3.3l5.6,4l5.5,4.8l5.3,5.4l4.9,6l4.6,6.5l4.1,6.9l3.6,7.1l3.1,7.2
	l2.4,7.3l1.7,7.2l1.1,7.1l0.3,6.7l-0.3,6.3l-1.1,5.8l-1.7,5.2l-2.4,4.5l-3.1,3.8l-3.6,2.9l-1,0.6 M429.5,317.7l4.1-2.1l4.6-1.2
	l4.9-0.2l5.3,0.6l5.5,1.5l5.6,2.4l5.6,3.3l5.6,4.1l5.5,4.8l5.3,5.4l4.9,6l4.6,6.5l4.1,6.8l3.6,7.1l3.1,7.3l2.4,7.3l1.7,7.2l1.1,7
	l0.3,6.7l-0.3,6.4l-1.1,5.8l-1.7,5.2l-2.4,4.5l-3.1,3.7l-3.6,3l-2,1.1 M678.3,340.2l1.4,0.7l5.7,3.3l5.1,4.1l4.6,4.9l3.9,5.7
	l3.1,6.2l2.4,6.8l1.6,7.2l0.7,7.5l-0.1,7.8l-1,7.7l-1.7,7.8l-2.6,7.5l-3.4,7.3l-4.1,6.8l-4.7,6.3l-5.3,5.7l-5.7,5l-6.2,4.2l-6.5,3.4
	l-6.7,2.5l-6.7,1.5l-6.8,0.5l-6.6-0.4l-6.4-1.4l-4.6-1.7 M673.7,338.4l4.5,1.9l5.7,3.2l5.1,4.1l4.6,5l3.9,5.6l3.1,6.3l2.4,6.8
	l1.6,7.2l0.7,7.5l-0.1,7.7l-1,7.8l-1.8,7.7l-2.6,7.6l-3.3,7.2l-4.1,6.8l-4.7,6.4l-5.3,5.7l-5.8,5l-6.1,4.2l-6.5,3.4l-6.7,2.4
	l-6.7,1.5l-6.8,0.6l-6.6-0.5l-6.4-1.4l-6.1-2.3l-1.4-0.8 M255.3,331.6v-0.1l0.4-0.2l1.2,0.4l2,0.9l2.8,1.4l3.5,1.9l4.1,2.3l4.7,2.7
	l5,3l5.3,3.2l5.4,3.3l5.3,3.5l5.3,3.3l4.9,3.3l4.5,3.1l4,2.7l3.3,2.4 M317,368.7l2.6,2l1.8,1.6l0.9,1l0.1,0.4l-0.1,0.1 M300,318.2
	l-3.5-0.6l-3.4,0.3l-3.1,1.3l-2.5,2.2l-1.7,2.8l-0.7,3.3l0.2,3.5l1.1,3.3l2.1,3l2.8,2.4l3.2,1.5l3.5,0.7l3.4-0.4l3.1-1.3l2.4-2.2
	l1.7-2.8l0.8-3.3l-0.2-3.5l-1.2-3.3l-2-3l-2.8-2.4L300,318.2 M277.5,304.3l-2.7-1h-2.7l-2.5,1l-2.2,2l-1.6,2.8l-1,3.3l-0.1,3.6
	l0.6,3.5l1.3,3.3l2,2.8l2.4,1.9l2.7,1h2.7l2.6-1.1l2.1-2l1.6-2.7l1-3.3l0.1-3.6l-0.6-3.6l-1.3-3.3l-2-2.7L277.5,304.3 M260.9,295.6
	l-1.3-1l-1.5-0.1l-1.4,1l-1.3,1.9l-1.1,2.7l-0.8,3.3l-0.4,3.6v3.6l0.5,3.3l0.7,2.8l1.1,2l1.4,1.1h1.4l1.4-0.9l1.3-2l1.1-2.7l0.8-3.2
	l0.4-3.6v-3.6l-0.4-3.4l-0.8-2.8L260.9,295.6 M252.2,318.1v-0.3l-0.1-1.7l0.1-2.6l0.1-3.2l0.2-3.5l0.3-3.6l0.3-3.4l0.3-2.9l0.4-2.2
	l0.2-1.1 M336.2,370.6l1.4-0.4l2.1-0.9l2.7-1.3l3.1-1.7l3.1-1.8l3-1.8l2.6-1.8l2-1.5l1.2-1.1l0.3-0.6l-0.5-0.2l-1.4,0.4l-2.2,0.9
	l-2.7,1.4l-3,1.6l-3.2,1.8l-3,1.9l-2.6,1.7l-1.9,1.5l-1.3,1.1l-0.3,0.7L336.2,370.6 M328.8,364.7l2.1,0.9l2.8,0.3l3.1-0.4l3.4-1
	l3.3-1.6l2.9-2l2.3-2.3l1.5-2.4l0.7-2.3l-0.4-2l-1.2-1.5l-2.1-1l-2.8-0.3l-3.2,0.4l-3.3,1.1l-3.3,1.5l-2.9,2.1l-2.3,2.3l-1.6,2.4
	l-0.6,2.2l0.3,2L328.8,364.7 M310.4,351.5l2.5,2.1l3.1,1.4l3.5,0.6l3.6-0.3l3.5-1.1l3-1.8l2.3-2.5l1.4-2.8l0.4-3.1l-0.6-2.9
	l-1.6-2.7l-2.5-2.1l-3.1-1.4l-3.5-0.6l-3.6,0.3l-3.5,1.1l-3,1.9L310,340l-1.4,2.9l-0.4,3l0.6,2.9L310.4,351.5 M367.8,346.8l-0.1-0.6
	l-1-1.1l-1.8-1.6l-2.6-2.1l-3.3-2.6l-4.1-3l-4.7-3.3l-5.3-3.6l-5.8-3.9l-6.2-4.1l-6.4-4.2l-6.7-4.3l-6.8-4.2l-6.7-4.2l-6.6-4.1
	l-6.4-3.8l-6.1-3.6l-5.7-3.3l-5.1-2.9l-4.6-2.5l-3.8-2l-3.2-1.5l-2.4-1l-1.6-0.5l-0.7,0.1 M402.3,385.8l-0.5-2.3l-0.7-5.6v-5.2
	l0.7-4.7l1.4-4.2l2.1-3.4l2.8-2.6l3.2-1.7l3.7-0.8l4.1,0.1l4.3,1.1l4.5,1.9l4.5,2.8l4.5,3.6l4.2,4.3l3.9,4.9l3.5,5.3l3,5.6l2.4,5.8
	l1.8,5.9l1.1,5.6l0.3,5.5 M457.1,407.7l-0.3,4.9l-1.1,4.5l-1.8,3.8l-2.4,3l-3,2.1l-3.5,1.3l-3.9,0.4l-4.2-0.6l-4.5-1.5l-4.5-2.4
	l-4.5-3.2l-4.3-4l-0.2-0.2 M471,345.3l-3.2-1.7l-3.5-0.8l-3.6,0.3l-3.5,1.2l-2.9,2.1l-2.2,2.8l-1.3,3.3l-0.3,3.5l0.8,3.5l1.7,3.1
	l2.6,2.5l3.1,1.6l3.6,0.8l3.6-0.2l3.4-1.3l3-2.1l2.2-2.8l1.3-3.3l0.2-3.5l-0.7-3.4l-1.7-3.1L471,345.3 M451.8,328.4l-2.9-1.1
	l-3.3-0.2l-3.4,0.6l-3.3,1.5l-3,2.1l-2.2,2.7l-1.5,3l-0.5,3.1l0.4,2.9l1.4,2.5l2.3,1.8l2.8,1.1l3.3,0.3l3.4-0.7l3.4-1.5l2.9-2.1
	l2.2-2.7l1.5-3l0.5-3.1l-0.4-2.9l-1.4-2.5L451.8,328.4 M432,322.7l-2.1-0.1l-2.4,0.7l-2.8,1.4l-2.8,2.1l-2.5,2.5l-2.2,2.8l-1.7,2.9
	l-0.9,2.6l-0.1,2.3l0.6,1.7l1.4,0.9l2,0.1l2.5-0.6l2.7-1.4l2.8-2.1l2.6-2.6l2.2-2.8l1.6-2.8l0.9-2.7l0.2-2.2l-0.7-1.7L432,322.7
	 M413,333.7l-1.7,2.7l-1.8,3.1l-1.7,3.2l-1.6,3l-1.3,2.7l-0.8,2l-0.4,1.3l0.1,0.4l0.6-0.5l1.1-1.4l1.4-2.1l1.7-2.8l1.7-3l1.8-3.2
	l1.6-3.1l1.2-2.6l0.9-2l0.4-1.3l-0.1-0.4l-0.7,0.5l-1,1.4L413,333.7 M455.6,432.3l-2.6,0.2l-1.7,0.3l-0.8,0.2l0.3,0.3l1.3,0.3
	l2.2,0.3l2.9,0.2l3.5,0.2l3.6,0.1h3.5l3.2-0.1l2.6-0.2l1.7-0.2l0.7-0.3l-0.2-0.3l-1.3-0.3l-2.2-0.3l-3-0.2l-3.4-0.2l-3.6-0.1
	l-3.6,0.1H455.6 M465.2,426.8l0.1,1.7l1.1,1.4l2,1l2.8,0.5h3.3l3.5-0.5l3.5-0.9l3.2-1.4l2.6-1.7l1.8-1.8l0.9-1.8l-0.1-1.7l-1.1-1.4
	l-2.1-1l-2.7-0.5h-3.3l-3.6,0.5l-3.5,1l-3.1,1.3l-2.6,1.7L466,425L465.2,426.8 M470.6,407.7l0.5,2.9l1.5,2.4l2.2,1.8l2.9,1.1
	l3.4,0.3l3.5-0.7l3.3-1.4l2.9-2.1l2.3-2.7l1.4-2.9l0.5-3.1l-0.5-2.8l-1.4-2.5l-2.3-1.8l-2.9-1.1l-3.3-0.2l-3.5,0.6l-3.4,1.4
	l-2.9,2.2l-2.2,2.6l-1.5,3L470.6,407.7 M465.2,381.7l0.8,3.5l1.9,3l2.6,2.4l3.1,1.5l3.5,0.5l3.6-0.5l3.3-1.5l2.7-2.3l2.1-3.1
	l1.1-3.4l0.1-3.6l-0.9-3.5l-1.8-3l-2.6-2.4l-3.2-1.5l-3.5-0.5l-3.5,0.5l-3.3,1.5l-2.8,2.3l-2,3l-1.1,3.5L465.2,381.7 M493.1,427.9
	l2-1.1l3.6-3l3.1-3.7l2.4-4.5l1.7-5.2l1.1-5.8l0.3-6.4l-0.3-6.7l-1.1-7l-1.7-7.2l-2.4-7.3l-3.1-7.3l-3.6-7.1l-4.1-6.8l-4.6-6.5
	l-4.9-6l-5.3-5.4l-5.5-4.8l-5.6-4.1l-5.6-3.3l-5.6-2.4l-5.5-1.5l-5.3-0.6l-4.9,0.2l-4.6,1.2l-4.1,2.1 M654.5,403.4l-3.3,5.4l-4,4.9
	l-4.5,4.1l-4.9,3.4l-5.2,2.5l-5.4,1.5l-5.4,0.6l-5.3-0.4l-5-1.5l-4.6-2.3l-4.2-3.3l-3.5-4.1l-2.8-4.8l-2-5.3l-1.2-5.8l-0.3-6.1
	l0.5-6.2l1.4-6.2l2.2-5.9l3-5.7l3.6-5.1l4.3-4.6l4.7-3.7l5.1-3l5.3-2l5.4-1.1h5.4l5.1,0.9l4.9,1.9l4.4,2.8l3.8,3.7l3.2,4.5l2.4,5
	l1.6,5.6l0.8,6l-0.1,6.1l-1,6.3l-1.8,6.1L654.5,403.4 M688.2,357.6l-2.4-2.5l-3-2.1l-3.3-1.5l-3.2-0.7l-3.1,0.2l-2.5,0.9l-1.8,1.7
	l-1,2.3l-0.1,2.7l0.9,2.9l1.7,2.8l2.5,2.6l2.9,2.1l3.3,1.5l3.3,0.6l3-0.1l2.5-1l1.9-1.6l1-2.3v-2.7l-0.9-2.9L688.2,357.6 M672,340.5
	l-2.9-1.3l-3.4-1.1l-3.5-0.6l-3.5-0.2l-3.2,0.3l-2.5,0.8l-1.6,1.1l-0.8,1.5l0.3,1.6l1.3,1.6l2.2,1.6l2.9,1.4l3.4,1l3.6,0.7l3.5,0.1
	l3.1-0.3l2.5-0.7l1.7-1.2l0.7-1.4l-0.3-1.6l-1.3-1.7L672,340.5 M649.2,335.1l-2.9,0.2l-3.3,0.5l-3.6,0.6l-3.4,0.9l-3.2,0.9l-2.5,1
	l-1.7,0.9l-0.8,0.7l0.2,0.6l1.2,0.3l2.1,0.1l2.9-0.2l3.3-0.5l3.6-0.7l3.4-0.8l3.2-1l2.5-0.9l1.7-0.9l0.8-0.8l-0.2-0.5l-1.2-0.4
	H649.2 M606.3,355.3l0.4-0.4l1.3-1.1l2-1.6l2.6-1.9l2.8-2.1l3-2.1l2.8-1.9l2.4-1.7l1.9-1.2l1.1-0.6l0.1-0.1 M592.9,377.5l0.8-2.1
	l1.3-3l1.6-3.2l1.8-3.1l1.7-2.9l1.7-2.4l0.3-0.5 M590,408.4l-0.2-1.8l-0.1-2.7l-0.1-3.3l0.1-3.6l0.1-3.6l0.3-3.3l0.3-2.8l0.3-2
	 M593,414.6l-1.1-2l-0.8-1.2l-0.4-0.2v0.8l0.4,1.6l0.7,2.4l1.1,2.9l1.3,3.3l1.5,3.3l1.4,3.2l1.3,2.6l1.1,2l0.8,1.2l0.4,0.2V434
	l-0.4-1.7l-0.7-2.3l-1.1-3l-1.3-3.3l-1.5-3.3l-1.4-3.1L593,414.6 M608.5,432.9l-2.4-1.1l-1.9-0.5l-1.4,0.4l-0.6,1.1l0.2,1.7l0.9,2.2
	l1.6,2.6l2.2,2.7l2.5,2.6l2.8,2.3l2.6,1.7l2.5,1.2l1.9,0.4l1.4-0.3l0.6-1.1l-0.2-1.7l-0.9-2.3l-1.6-2.5l-2.2-2.7l-2.6-2.6l-2.7-2.3
	L608.5,432.9 M632,437.1l-3.2,0.1l-2.8,0.7l-2,1.3l-1.2,1.8l-0.2,2.2l0.8,2.4l1.7,2.4l2.4,2.2l3.1,1.8l3.4,1.2l3.5,0.7h3.2l2.8-0.7
	l2.1-1.4l1.1-1.8l0.3-2.2l-0.8-2.4l-1.7-2.4l-2.5-2.2l-3.1-1.7l-3.4-1.3L632,437.1 M648,430.7l-1.6,2.7l-0.6,2.9l0.4,2.9l1.4,2.6
	l2.3,2.1l3,1.5l3.4,0.7l3.6-0.1l3.5-0.9l3.1-1.7l2.5-2.3l1.6-2.7l0.6-2.9l-0.4-2.8l-1.4-2.7l-2.3-2.1l-3-1.5l-3.4-0.7l-3.7,0.1
	l-3.5,0.9l-3.1,1.7L648,430.7 M666.3,409.5l-1.2,3.4l-0.4,3.5l0.7,3.4l1.5,2.9l2.3,2.3l2.9,1.4l3.3,0.5l3.4-0.5l3.2-1.5l2.7-2.4
	l2.1-2.9l1.3-3.4l0.3-3.5l-0.6-3.4l-1.6-3l-2.3-2.2l-2.9-1.5l-3.3-0.4l-3.3,0.5l-3.2,1.5l-2.8,2.3L666.3,409.5 M673.7,381.9
	l-0.6,3.4l0.4,3.6l1.2,3.4l2,3l2.6,2.4l2.9,1.5l3.2,0.5l3-0.5l2.8-1.5l2.1-2.4l1.4-3l0.6-3.4l-0.4-3.6l-1.2-3.4l-2-3l-2.6-2.4
	l-2.9-1.4l-3.2-0.6l-3.1,0.5l-2.7,1.5l-2.1,2.4L673.7,381.9 M623.3,455l1.4,0.8l6.1,2.3l6.4,1.4l6.6,0.5l6.8-0.6l6.7-1.5l6.7-2.4
	l6.5-3.4l6.1-4.2l5.8-5l5.3-5.7l4.7-6.4l4.1-6.8l3.3-7.2l2.6-7.6l1.8-7.7l1-7.8l0.1-7.7l-0.7-7.5l-1.6-7.2l-2.4-6.8l-3.1-6.3
	l-3.9-5.6l-4.6-5l-5.1-4.1l-5.7-3.2l-4.5-1.9 M597.7,373.4l-1.4,3.5l-1.8,5.9l-0.9,6l-0.1,6l0.7,5.7l1.6,5.5l2.3,4.9l3.1,4.3
	l3.7,3.5l4.2,2.8l4.7,1.8l5,0.9l5.2-0.1l5.2-1l5.2-1.9l4.9-2.9l4.6-3.7l4.1-4.3l3.5-5l2.9-5.5l2.1-5.8l1.4-5.9l0.5-6l-0.3-5.9
	l-1.2-5.6l-2-5.2l-2.7-4.6l-3.4-3.9l-4-3.2l-4.4-2.3l-4.9-1.4l-5.1-0.4l-5.2,0.6l-5.2,1.5l-5.1,2.4l-4.7,3.2l-4.4,4.1l-3.8,4.7
	l-3.2,5.2 M320.3,373l-1.3-1.2l-2.1-1.7l-2.9-2.2l-3.6-2.5l-4.1-2.8l-4.5-3l-5-3.3l-5.1-3.3l-5.2-3.3l-5.2-3.1l-5-3.1l-4.7-2.7
	l-4.2-2.5l-3.7-2l-3.1-1.6l-2.3-1.1l-1.6-0.6l-0.7-0.1l-0.1,0.2 M320.7,373.9l0.2-0.2l-0.2-0.2 M430.9,361.5l0.4,0.3l4.4,3.4
	l4.2,4.1l3.9,4.6l3.5,5.2l3,5.5l2.4,5.7l1.8,5.8l1.1,5.6l0.3,5.3 M455.9,407v1.1 M417,413.8l3.8,3.8l4.3,3.5l4.3,2.7l4.4,1.9l4.2,1
	l3.9,0.1l3.6-0.8l3.1-1.6l2.7-2.5l2-3.3l1.4-4l0.7-4.6v-5l-0.7-5.4l-1.4-5.6l-2-5.6l-2.7-5.6l-3.1-5.3l-3.6-4.9l-3.9-4.5l-4.2-3.8
	l-4.4-3.1l-4.3-2.3l-4.3-1.5l-4.1-0.6l-3.8,0.4l-3.4,1.2l-2.9,2.1l-2.3,2.9l-1.7,3.7l-1,4.3l-0.4,4.8 M401.3,378.5l0.3,2.9l1,5.5
	l1.1,3.8 M550,374.2l3-0.7l2.5-1.1 M508.8,291.5l-1.7,1.1l-2.6,2.7 M542.8,374.6l0.8,0.1l4.3,0.2l4.1-0.8l3.5-1.7l3.1-2.5l2.5-3.3
	l1.9-4.1l1.2-4.7l0.5-5.3l-0.2-5.6l-0.9-6l-1.6-6.2l-2.2-6.3l-2.8-6.1l-3.4-5.9l-3.8-5.6l-4.3-5.2L541,301l-4.7-3.9l-4.8-3.1
	l-4.8-2.4l-4.7-1.5 M522,290.1l-4.5-0.5l-4.2,0.3l-3.9,1.2l-3.3,2.1l-2.8,3l-2.2,3.7l-0.6,1.4 M561.1,377.4l2-1.2l3.2-2.9l2.6-3.7
	l1.9-4.5l1.3-5l0.6-5.7l-0.1-6l-0.9-6.4l-1.5-6.7l-2.2-6.7l-2.8-6.6l-3.4-6.6l-3.8-6.2l-4.4-5.8L549,298l-5-4.7l-5.1-4l-5.2-3.3
	l-5.1-2.4l-5.1-1.6 M523.5,282l-4.9-0.6l-4.5,0.2l-4.2,1.2l-2.7,1.4 M717.6,470.8l2.9-0.6l2.6-1.1 M710.4,471.3l0.7,0.1l4.4,0.1
	l4-0.8l3.6-1.6l3.1-2.6l2.5-3.3l1.8-4l1.2-4.8l0.5-5.2l-0.2-5.7l-0.9-6l-1.5-6.2l-2.3-6.2l-2.8-6.2l-3.4-5.9l-3.8-5.6l-1-1.3
	 M728.6,474.1l2-1.3l3.2-2.9l2.6-3.7l2-4.4l1.2-5.1l0.6-5.6l-0.1-6.1l-0.8-6.4l-1.5-6.6l-2.2-6.7l-2.8-6.7l-3.4-6.5l-3.9-6.2
	l-4.3-5.9l-4.6-5.2 M378.7,267.2l2.9-0.6l2.6-1.1 M337.4,184.5l-1.6,1.2l-2.6,2.7 M371.5,267.7l0.8,0.1l4.3,0.1l4-0.8l3.6-1.6
	l3.1-2.6l2.5-3.3l1.8-4.1l1.2-4.7l0.6-5.2l-0.2-5.7l-0.9-6l-1.6-6.2l-2.2-6.2l-2.9-6.2l-3.3-5.9l-3.9-5.6l-4.2-5.1l-4.5-4.6
	l-4.7-3.9l-4.9-3.2l-4.8-2.3l-4.7-1.5 M350.6,183.2l-4.5-0.6l-4.2,0.3l-3.8,1.2l-3.3,2.2l-2.8,2.9l-2.2,3.7l-0.6,1.5 M389.8,270.4
	l1.9-1.2l3.2-2.9l2.6-3.7l2-4.4l1.3-5.1l0.6-5.6l-0.2-6.1l-0.8-6.4l-1.5-6.6l-2.2-6.7l-2.8-6.7l-3.4-6.5l-3.9-6.2l-4.3-5.9l-4.6-5.3
	l-5-4.7l-5.1-4.1l-5.2-3.2l-5.2-2.5l-5-1.5 M352.2,175.1l-4.9-0.7l-4.5,0.3l-4.2,1.1l-2.7,1.4 M504.5,295.3L504.5,295.3l2.9-2.9
	l1.4-0.9 M555.5,372.4l-2.9,1.2l-2.6,0.6 M333.2,188.4L333.2,188.4l2.8-2.9l1.4-1 M384.2,265.5l-2.9,1.2l-2.6,0.5 M723.1,469.1
	l-2.9,1.2l-2.6,0.5 M256.7,283.1V51.6 M257.6,283.6l-0.9-0.5 M400.8,366.3l-33.2-19.2 M807.9,601.3L500.3,423.7 M256.7,51.6
	l551.2,318.2 M276.7,40.1L828,358.3 M276.7,40.1l-20,11.5 M807.9,369.8v231.5 M828,589.7l-20.1,11.6 M828,358.3v231.4 M828,358.3
	l-20.1,11.5 M715.2,412.5l1.2-7.9l0.3-8l-0.8-7.9l-1.7-7.8l-2.7-7.6l-3.7-7.1l-4.5-6.6l-5.3-6l-6-5.3l-6.6-4.5l-7.1-3.6
	 M627.7,457.2l7.5,2.7l7.8,1.7l7.9,0.8l8-0.3l7.9-1.2l7.7-2.2l7.3-3.2l6.9-4.1l6.3-4.9l5.7-5.6 M523.5,347.6l-0.9-2.2l-0.9-2.1
	l-1.1-2l-1.1-2.1l-1.2-1.9l-1.3-2l-1.3-1.9l-1.4-1.8 M478.4,309l-5.9-1.1l-5.9-0.5l-5.9,0.1l-5.9,0.6l-5.9,1.2l-5.7,1.7l-5.5,2.2
	l-5.2,2.7 M496.2,426.3l5-3.2l4.7-3.7l4.3-4.1l3.9-4.4l3.5-4.8l3-5.2l2.6-5.3l2-5.6 M359,268.6L359,268.6 M375.8,308.1L375.8,308.1
	 M299.8,256.3L299.8,256.3 M342.4,260.9L342.4,260.9 M369.4,344.4l3.9-7.3l3-7.7l1.9-8l0.9-8.2l-0.2-8.2l-1.2-8.2l-2.3-7.9l-3.3-7.6
	l-4.2-7.1l-5.1-6.5 M333.5,249.3l-8-1.8l-8.2-0.8L309,247l-8.1,1.4l-7.9,2.4l-7.5,3.4l-7.1,4.4l-6.4,5.2l-5.6,6l-4.9,6.7
	 M261.6,276.5l-1.5,2.4 M367.8,346.8l1.5-2.4 M432.5,316l-2,1.1 M494.1,427.4l2-1.2 M678.3,340.2l-1.5-0.6 M626.2,456.4l1.5,0.7
	 M260.1,278.9l-1,1.7l-0.9,1.8l-0.8,1.8l-0.8,1.9l-0.8,1.8l-0.6,1.9l-0.7,1.9l-0.5,1.9 M252.2,318.1l0.2,1.7l0.3,1.8l0.3,1.6
	l0.4,1.7l0.4,1.7l0.5,1.7l0.5,1.6l0.5,1.7 M322.3,373.8l2-0.3l1.9-0.3l2-0.3l1.9-0.5l1.9-0.4l1.9-0.6l1.9-0.6l1.8-0.6 M356.4,359.2
	l1.6-1.4l1.6-1.4l1.5-1.5l1.4-1.5l1.4-1.6l1.4-1.6l1.3-1.7l1.2-1.7 M429.5,317.7l-2,1.4l-1.9,1.4l-1.9,1.5l-1.8,1.5l-1.8,1.7
	l-1.7,1.7l-1.6,1.7l-1.6,1.8 M403.9,350.9l-1.3,4.3l-0.9,4.3l-0.7,4.4l-0.3,4.4l-0.1,4.4l0.3,4.4l0.5,4.4l0.9,4.3 M420.5,417.4
	l3.4,2.9l3.5,2.7l3.7,2.5l3.8,2.1l4,1.9l4.1,1.7l4.3,1.3l4.3,1 M475,433.9l2.3-0.4l2.4-0.6l2.3-0.6l2.3-0.7l2.2-0.8l2.3-0.9l2.2-0.9
	l2.1-1.1 M673.7,338.4l-3.2-1l-3.3-0.8l-3.3-0.7l-3.3-0.5l-3.4-0.3l-3.4-0.1h-3.4l-3.3,0.2 M632.7,338.3l-0.7,0.2l-0.8,0.3l-0.8,0.3
	l-0.7,0.3l-0.8,0.3l-0.7,0.3l-0.8,0.3l-0.7,0.3 M606.3,355.3l-0.6,0.6l-0.5,0.6l-0.5,0.6l-0.6,0.7l-0.5,0.6l-0.5,0.6l-0.5,0.7
	l-0.5,0.6 M592.9,377.5l-0.3,0.9l-0.4,1l-0.3,1l-0.2,0.9l-0.3,1l-0.3,1l-0.2,1l-0.2,1 M590,408.4l0.1,0.5l0.1,0.5l0.1,0.5v0.5
	l0.1,0.5l0.1,0.5l0.1,0.5l0.1,0.5 M599.9,433.9l2.3,3.2l2.5,3.1l2.7,3l2.8,2.7l3.1,2.6l3.2,2.4l3.3,2.2l3.5,1.9 M255.9,333.1
	l3.4,7.5l4.4,7l5.2,6.3l5.9,5.6l6.7,4.8l7.2,4l7.6,2.9l8,2l8.2,0.9l8.2-0.2 M403.7,390.7l1.1,3.2l1.3,3.1l1.4,3l1.6,3l1.8,2.8
	l1.9,2.8l2,2.7l2.2,2.5 M528,371.7l2.5,1.8l5.1,2.8l5.1,2.1l5.1,1.3l5,0.3l4.6-0.5l4.3-1.4l1.3-0.7 M507.2,284.3l-1.9,1.2l-3.2,3
	l-2.5,3.7l-2,4.3l-1.4,4.8l-0.8,5.4v5.8l0.3,3.2 M695.5,468.3l2.5,1.8l5.1,2.9l5.2,2.1l5.1,1.2l4.9,0.4l4.7-0.5l4.2-1.4l1.3-0.8
	 M363.1,268.7l1.1,0.7l5.2,2.1l5.1,1.2l4.9,0.4l4.7-0.6l4.2-1.3l1.3-0.8 M335.9,177.3l-1.9,1.2l-3.2,3l-2.6,3.7l-2,4.3l-1.3,4.9
	l-0.8,5.3l-0.1,5.8l0.3,3.3 M525.4,371.3l3.1,1l7,1.7l7.3,0.6l7.2-0.4 M504.5,295.3l-4,6.1l-3.1,6.6l-2.1,6.9l-0.6,3.2 M361.8,266.6
	l2.4,0.5l7.3,0.6l7.2-0.5 M333.2,188.4l-4,6l-3.1,6.6l-2.1,7l-1,7.2v7.2l1.1,7.2l2.2,7l3.1,6.5l4.1,6l0.3,0.3 M677,457.7l0.3,0.4
	l5.7,4.5l6.3,3.7l6.7,2.7l7.1,1.7l7.2,0.6l7.3-0.5"/>
</svg>
