<?xml version="1.0" encoding="utf-8"?>
<!-- Generator: Adobe Illustrator 21.0.0, SVG Export Plug-In . SVG Version: 6.00 Build 0)  -->
<svg version="1.1" id="Layer_1" xmlns="http://www.w3.org/2000/svg" xmlns:xlink="http://www.w3.org/1999/xlink" x="0px" y="0px"
	 viewBox="0 0 478.5 277.5" style="enable-background:new 0 0 478.5 277.5;" xml:space="preserve">
<style type="text/css">
	.st0{fill:none;stroke:#000000;stroke-width:0.709;stroke-linecap:round;stroke-linejoin:round;stroke-miterlimit:10;}
	.st1{fill:none;stroke:#000000;stroke-miterlimit:10;}
</style>
<path class="st0" d="M211.3,175.9l0.5-0.2l0.6-0.1h0.7l0.8,0.1l0.7,0.3l0.8,0.4l0.8,0.6l0.8,0.6l0.7,0.8l0.7,0.8l0.6,0.9l0.5,1
	l0.5,1l0.3,1l0.3,1l0.2,1v0.9 M220.8,186v0.9l-0.2,0.8l-0.3,0.7L220,189l-0.5,0.4l-0.3,0.2 M309.8,65.8L309.8,65.8l0.6-0.5l0.3-0.5
	l0.3-0.6l0.1-0.7l0.1-0.8l-0.1-0.9l-0.1-0.9l-0.3-0.9l-0.3-1l-0.5-0.9l-0.5-0.9l-0.6-0.8l-0.7-0.7l-0.7-0.7l-0.7-0.5l-0.7-0.4
	l-0.7-0.3l-0.7-0.2h-0.7l-0.6,0.2l-0.4,0.1 M197.2,135.3l3.1,1.8 M212,161.5l-0.2,0.3l-0.2,0.3l-0.1,0.5 M197.2,120.8v14.5
	 M226,151.9l3.1,1.8 M226,137.3v14.6 M208.4,105.5v5.3 M213,108.2l-4.6,2.6 M208.4,110.8v0.9l0.2,0.9l0.3,0.9l0.3,1l0.5,0.9l0.5,0.9
	l0.6,0.8l0.7,0.7l0.6,0.7l0.8,0.5l0.7,0.4l0.7,0.3l0.7,0.2h0.6l0.6-0.2l0.5-0.1 M299.1,159.7l0.4-0.3l1.3-1.1l1.2-1.3l1.1-1.3l1-1.5
	l1-1.6l0.8-1.8l0.7-1.8l0.7-1.9l0.5-2l0.5-2.1l0.3-2.2l0.2-2.3l0.1-2.3v-2.4l-0.1-2.5l-0.2-2.5l-0.3-2.5l-0.5-2.6l-0.5-2.7l-0.7-2.6
	l-0.7-2.7l-0.8-2.7l-1-2.7l-1-2.7L302,105l-1.2-2.7l-1.3-2.6l-1.4-2.6l-1.5-2.6l-1.5-2.5l-1.6-2.4l-1.7-2.4l-1.7-2.3l-1.8-2.3
	l-1.9-2.2l-1.9-2.1l-1.9-2l-2-1.9l-2-1.8l-2-1.7l-2.1-1.6l-2-1.4l-2.1-1.4l-2.1-1.2l-2.1-1.1l-2.1-1l-2-0.9l-2.1-0.7l-2-0.6l-2-0.4
	l-1.9-0.3l-1.9-0.2h-1.9l-1.8,0.1l-1.8,0.3l-1.7,0.4l-1.6,0.5l-0.9,0.3 M243.8,67.2l0.6,0.1l2,0.5l2,0.6l2,0.7l2.1,0.8l2.1,1l2,1.1
	l2.1,1.2l2.1,1.4l2.1,1.5l2,1.6l2,1.7l2,1.8l2,1.9l2,2l1.8,2.1l1.9,2.1l1.8,2.3l1.7,2.3l1.7,2.4l1.6,2.5l1.5,2.5l1.5,2.5l1.4,2.6
	l1.3,2.7l1.2,2.6l1.1,2.7l1.1,2.7l0.9,2.6l0.8,2.7l0.8,2.7l0.6,2.7l0.6,2.6l0.4,2.6l0.3,2.6l0.2,2.5l0.1,2.4v2.4l-0.1,2.4l-0.2,2.2
	l-0.3,2.2l-0.4,2.1l-0.6,2l-0.6,2 M217.9,116.7L217.9,116.7v0.2l0.1,0.1h0.1 M205.1,90.3l0.7,0.1l3,0.5l3,1l2.9,1.5 M195.6,89.9
	l2.1,0.1 M296.8,144.8v-0.2v-2.4v-2.4l-0.2-2.5l-0.2-2.5l-0.4-2.6l-0.5-2.6l-0.6-2.6l-0.7-2.7l-0.7-2.7l-0.9-2.6l-1-2.7l-1.1-2.7
	l-1.1-2.6l-1.3-2.7l-1.3-2.6l-1.4-2.6l-1.5-2.5l-1.5-2.5l-1.7-2.4l-1.7-2.4l-1.7-2.3l-1.8-2.2l-1.9-2.1l-1.9-2.1l-1.9-1.9l-2-1.9
	l-2-1.8l-2-1.7l-2.1-1.5l-2-1.4l-2.1-1.4l-2.1-1.2l-2.1-1l-0.8-0.4 M225.7,103.8L225,103l-2.3-2.9l-2.6-2.7l-2.7-2.2l-2.7-1.8
	 M233.3,111.6l-3-2.8l-2.5-2.6 M235,165.5l1.1-0.8l1.2-0.9l1.1-1.1l1-1.1l0.9-1.3l0.8-1.5l0.7-1.5l0.6-1.6l0.5-1.8l0.3-1.8l0.3-1.9
	l0.2-2l0.1-2l-0.1-2.1l-0.1-2.2l-0.3-2.2l-0.4-2.3l-0.4-2.3l-0.6-2.3l-0.7-2.4l-0.8-2.3l-0.9-2.3l-1-2.4l-1-2.3l-1.2-2.3l-1.2-2.2
	l-1.3-2.2l-1.4-2.2 M229.7,108.5l2.7,3.7 M213.7,93.9l3.4,2.2l3.3,2.5l3.2,3l0.6,0.6 M203.9,90.2l3.1,0.7l3.3,1.3l3.4,1.7 M195,90.7
	l2-0.5 M195,90.7l-1.4,0.5l-1.2,0.6 M195.1,90.7l0.4-0.1l1.5-0.3l1.6-0.2h1.6l1.6,0.1l1.7,0.2l1.7,0.4l1.8,0.5l1.7,0.7l1.8,0.8
	l1.8,0.9l1.8,1l1.8,1.2l1.8,1.3l1.8,1.4l1.7,1.5l1.8,1.6l1.6,1.7l1.7,1.8l1.6,1.9l1.5,1.9l1.5,2l1.4,2.1l1.4,2.2l1.3,2.2l1.2,2.2
	l1.1,2.3l1,2.3l1,2.3l0.8,2.4l0.8,2.3l0.6,2.3l0.6,2.3l0.4,2.3l0.4,2.2l0.2,2.2l0.2,2.2v2l-0.1,2.1l-0.2,1.9l-0.3,1.9l-0.4,1.8
	l-0.5,1.7l-0.6,1.6l-0.7,1.5l-0.8,1.4l-0.9,1.3l-1,1.1l-0.5,0.5 M185,100.3l0.1-0.3l0.6-1.7l0.8-1.5l0.8-1.4l0.9-1.3l1-1.2l1.1-1.1
	l1.1-1l1.3-0.8l1.3-0.7l1.4-0.5 M214.5,163.8l-0.8-0.4 M234,111.1l1.4,2.2l1.4,2.2l1.2,2.2l1.2,2.3l1.1,2.4l1,2.3l0.9,2.4l0.8,2.3
	l0.7,2.4l0.6,2.3l0.5,2.3l0.4,2.3l0.3,2.3l0.2,2.2l0.1,2.2v2.1l-0.2,2l-0.2,2l-0.3,1.8l-0.5,1.8l-0.5,1.7l-0.7,1.6l-0.7,1.5
	l-0.9,1.4l-0.9,1.2l-1.1,1.2l-1.1,1l-1.2,0.9l-1.3,0.8l-1.3,0.6l-1.4,0.5l-1.5,0.4l-1.6,0.2l-1.6,0.1l-1.6-0.1l-1.7-0.2l-1.1-0.1
	 M187.6,88.6l1.2-0.5l1.7-0.5l1.7-0.4l1.9-0.2l1.8-0.1 M235.5,109.7l1.9,2.3l1.8,2.4l1.8,2.4l1.7,2.5l1.7,2.5l1.5,2.6l1.5,2.7
	l1.4,2.6l1.4,2.7l1.2,2.8l1.2,2.7l1,2.8l1,2.8l0.9,2.7l0.8,2.8l0.6,2.7l0.6,2.8l0.5,2.7l0.4,2.6l0.2,2.6l0.2,2.6v2.5v2.4l-0.2,2.4
	l-0.3,2.3l-0.3,2.2l-0.5,2.2l-0.6,2l-0.7,2l-0.8,1.8l-0.9,1.8l-0.9,1.6l-1.1,1.5l-1.2,1.4l-1.2,1.3l-1.4,1.2l-0.3,0.2 M313.1,86.8
	l0.6-0.3l0.6-0.2h0.6l0.5,0.1l0.2,0.1 M287,79v0.2l0.1,0.7l-0.1,0.3 M290.2,84.1l0.2-0.2l0.3-0.8l0.3-0.8l0.1-0.8l0.1-0.8
	 M291.2,76.5v4.2 M308.8,100.8l0.2-0.1l0.6-0.5l0.6-0.5l0.6-0.6l0.5-0.7l0.4-0.7l0.3-0.8l0.3-0.8l0.2-0.8v-0.7 M312.5,94.6v-0.2
	 M312.3,102.6l-0.6,0.3l-0.6,0.1h-0.5l-0.5-0.1l-0.5-0.2l-0.3-0.4l-0.3-0.5l-0.1-0.6l-0.1-0.7l0.1-0.7L309,99l0.3-0.8l0.3-0.7
	l0.5-0.8l0.5-0.7l0.5-0.6l0.6-0.5l0.6-0.4l0.6-0.3l0.6-0.2h0.6l0.5,0.1l0.4,0.3l0.4,0.3l0.2,0.5l0.2,0.6v0.7v0.7l-0.2,0.8l-0.2,0.8
	l-0.4,0.8l-0.4,0.7l-0.5,0.7l-0.6,0.6l-0.6,0.5L312.3,102.6 M316.4,103.5l-11.7,6.7 M316.4,103.5l0.6-0.4l0.6-0.5l0.6-0.7l0.5-0.7
	l0.4-0.7l0.4-0.8l0.2-0.8l0.2-0.8l0.1-0.8 M320,90.8v6.5 M320,90.8l-0.1-0.7l-0.2-0.6l-0.2-0.5l-0.4-0.4l-0.4-0.3l-0.5-0.1h-0.6
	l-0.6,0.2l-0.6,0.3 M316.4,88.7l-16.9,9.7 M316.4,88.7l-3.3-1.9 M313.1,86.8l-15.2,8.7 M211.2,176L211.2,176l0.1-0.1 M219.2,189.6
	l-0.1,0.1 M219.8,186v-0.9l-0.2-0.9l-0.3-1l-0.3-0.9l-0.5-1l-0.5-0.9l-0.6-0.8l-0.7-0.8l-0.7-0.7l-0.7-0.6l-0.8-0.4l-0.7-0.3
	l-0.7-0.2l-0.7-0.1l-0.6,0.1l-0.6,0.2l-0.5,0.3l-0.4,0.5l-0.3,0.6l-0.3,0.7l-0.1,0.8v0.9l0.1,0.9l0.3,0.9l0.3,1l0.4,0.9l0.5,1
	l0.6,0.8l0.6,0.9l0.7,0.7l0.7,0.6l0.7,0.5l0.8,0.4l0.7,0.3l0.7,0.1h0.7l0.6-0.1l0.5-0.3l0.5-0.4l0.3-0.6l0.3-0.6l0.2-0.8V186
	 M219.7,189.4l0.3-0.3l0.5-0.4l0.3-0.6l0.3-0.7l0.2-0.8v-0.9 M216.5,176.5l-0.6-0.4l-0.8-0.4l-0.7-0.3l-0.8-0.1h-0.7l-0.6,0.1
	l-0.5,0.2 M221.3,185.7v-0.9l-0.1-0.2 M216.8,190.1l0.3,0.1l0.8,0.2h0.8l0.6-0.1l0.7-0.3l0.1-0.1 M211.4,175l-0.2,0.1l-0.5,0.5
	l-0.4,0.6l-0.4,0.6l-0.2,0.8v0.2 M212.3,161.5L212.3,161.5l-0.2,0.4l-0.1,0.4 M200.3,133.5l-3.1,1.8 M197.2,135.3h-0.1l-0.1,0.1
	l-0.1,0.1h-0.2l-0.1,0.1l-0.1,0.1l-0.1,0.1h-0.1l-0.1,0.1 M196.7,120.5l-0.2-0.1l-0.1-0.1l-0.1-0.1l-0.1-0.2 M200.5,122.5l-0.1,0.1
	h-0.1 M200.5,138.4l-0.1-0.2l-0.1-0.2v-0.2v-0.1 M263.8,62.7L263.8,62.7l1.7,0.5l1.6,0.6l1.7,0.7l1.6,0.8l1.7,1l1.6,1.1l1.7,1.2
	L277,70l1.6,1.4l1.5,1.5l1.5,1.6 M229.1,150.1l-3.1,1.8 M224.9,152.5l0.1-0.1l0.2-0.1h0.1l0.1-0.1l0.2-0.1l0.1-0.1h0.1l0.2-0.1
	 M224.9,136.5l0.1,0.2l0.2,0.1l0.1,0.1l0.1,0.1 M229.1,154.3v0.1v0.2l0.1,0.2l0.1,0.2 M229.1,139.1L229.1,139.1l0.1-0.1h0.1
	 M207.4,110.8l0.1,0.1h0.1l0.1,0.1h0.2h0.1l0.2-0.1h0.1l0.1-0.1 M242.5,61.7l-0.7,0.4l-1.3,0.7 M297.2,161l0.9-0.6l1-0.7 M217.9,111
	L217.9,111v-0.1h0.1l0.1-0.1 M207.4,104.7l0.1,0.1l0.1,0.2l0.1,0.1l0.2,0.1 M195.4,87.7l3.3,0.8l3.5,0.7l3.8,0.7l3,0.8l2.9,1.2
	l2.8,1.5 M252.6,70.4l-1.2-0.6l-2.1-0.8l-1.8-0.6 M295.8,152.1l0.2-0.9l0.4-2.1l0.2-2.2l0.2-2.1 M213.7,93.9l0.3-0.2l0.3-0.1
	l0.4-0.2 M215.7,92.7l-0.3,0.2l-0.3,0.2l-0.4,0.3 M234.6,110.3l-4-3.4l-3.7-3.5l-3.6-3.6l-2.9-2.5l-2.8-2.2l-2.9-1.7 M195.6,89.9
	v-0.5l-0.1-0.4l-0.1-0.2 M234,111.1L234,111.1l-0.1,0.1l-0.3,0.1l-0.3,0.3 M233.3,111.6l-0.3,0.2l-0.2,0.1l-0.2,0.2l-0.2,0.1
	 M212,162.3l0.4,0.3l0.5,0.2l0.4,0.3l0.4,0.2l0.4,0.3l0.4,0.2 M212,162.3L212,162.3 M195,90.7l0.2-0.2l0.2-0.2l0.1-0.2l0.1-0.2
	 M210.6,162l0.2-0.4l0.3-0.3l0.4-0.2h0.4l0.6,0.1l0.5,0.3l0.5,0.5l0.5,0.5l0.3,0.6l0.4,0.7l0.1,0.7 M200.5,122.5v15.9 M200.5,138.4
	l-4.3-2.5 M196.2,135.9V120 M196.2,120l4.3,2.5 M224.9,152.5v-16 M224.9,136.5l4.4,2.5 M229.3,139v16 M229.3,155l-4.4-2.5
	 M207.4,110.8v-6.1 M207.4,104.7l10.7,6.1 M218.1,110.8v6.2 M218.1,117l-0.1,0.9l-0.2,0.7l-0.2,0.7l-0.4,0.6l-0.4,0.4l-0.6,0.3
	l-0.6,0.2h-0.7l-0.7-0.1l-0.7-0.2l-0.8-0.4l-0.7-0.5l-0.8-0.6l-0.7-0.7l-0.7-0.8l-0.6-0.9l-0.5-1l-0.5-0.9l-0.3-1l-0.3-1l-0.2-0.9
	v-1 M212,162.3l-0.5,0.3 M224.2,102.2l2.5,2.6l2.9,3.6l0.1,0.1 M197,90.2l0.8-0.2l2.9-0.2l3.1,0.3l0.1,0.1 M214.8,164.5L214.8,164.5
	v0.1l-0.1,0.1 M237.3,163.6l-0.6,0.6l-1.2,0.9l-1.2,0.8l-1.4,0.6l-1.3,0.5l-0.5,0.2 M189,94.4l0.2-0.2l1.1-1l1.2-0.8l1.3-0.7
	l1.3-0.6l1-0.4 M211.5,162.6h-0.1h-0.2l-0.2-0.1l-0.3-0.2l-0.1-0.3 M214.8,164.5l1.8,0.8l1.8,0.7l1.7,0.5l1.7,0.4l1.7,0.3l1.6,0.1
	h1.6l1.6-0.1l1.4-0.3l1.5-0.4l1.3-0.5l1.3-0.7l1.2-0.8l1.1-1l1.1-1l0.9-1.2l0.9-1.3l0.8-1.4l0.6-1.5l0.6-1.6l0.5-1.8l0.3-1.8
	l0.3-1.8l0.1-2l0.1-2l-0.1-2.1l-0.2-2.2l-0.2-2.2l-0.4-2.2l-0.5-2.2l-0.6-2.3l-0.7-2.3l-0.8-2.3l-0.9-2.3l-0.9-2.3l-1.1-2.2
	l-1.1-2.3l-1.2-2.2l-1.3-2.1l-1.4-2.1l-1.5-2.1l-1.4-1.9l-1.6-1.9l-1.6-1.9l-1.6-1.7l-1.7-1.6l-1.7-1.6l-1.8-1.4l-1.7-1.3l-1.8-1.2
	l-1.8-1.1l-1.8-1l-1.7-0.8l-1.8-0.7l-1.7-0.6l-1.7-0.4l-1.7-0.4l-1.7-0.1H199l-1.5,0.1l-1.5,0.2l-1.5,0.4l-1.3,0.5l-1.3,0.7
	l-1.2,0.8l-1.2,0.9l-1,1l-1,1.2l-0.9,1.2l-0.8,1.4l-0.7,1.5l-0.6,1.6l-0.4,1.7l-0.4,1.8l-0.3,1.9l-0.2,1.9v2v2.1l0.2,2.2l0.2,2.1
	l0.4,2.3l0.4,2.2l0.6,2.3l0.7,2.3l0.7,2.3l0.9,2.3l1,2.2l1,2.3l1.1,2.2l1.2,2.2l1.3,2.2l1.4,2.1l1.4,2.1l1.5,2l1.5,1.9l1.6,1.8
	l1.6,1.8l1.7,1.6l1.7,1.6l1.8,1.4l1.7,1.4l1.8,1.2 M221.9,187.2l-0.1,1l-0.2,0.9l-0.2,0.8l-0.4,0.7l-0.5,0.6l-0.5,0.5l-0.6,0.3
	l-0.7,0.2l-0.8,0.1l-0.8-0.1l-0.9-0.2l-0.8-0.3l-0.9-0.5l-0.9-0.6l-0.8-0.7l-0.9-0.8l-0.7-1l-0.8-0.9l-0.6-1.1l-0.6-1.1l-0.5-1.1
	l-0.5-1.1l-0.3-1.2l-0.2-1.1l-0.1-1v-1l0.1-1l0.2-0.8l0.3-0.8l0.5-0.7l0.5-0.5l0.6-0.4l0.6-0.3l0.8-0.1h0.7l0.9,0.1l0.8,0.3l0.9,0.4
	l0.9,0.6l0.8,0.6l0.9,0.8l0.8,0.8l0.8,1l0.7,1l0.6,1.1l0.5,1.1l0.5,1.1l0.4,1.1l0.2,1.2l0.2,1L221.9,187.2 M195.4,87.7l-0.1,0.5
	l0.1,0.3v0.2v0.1 M195.9,86.9l-0.1,0.1l-0.2,0.2l-0.1,0.2l-0.1,0.3 M234.6,110.3l0.3-0.1l0.2-0.2l0.2-0.2l0.2-0.1 M234,111.1
	L234,111.1V111l0.1-0.1l0.2-0.2l0.3-0.4 M195.4,88.8l-1.9,0.1l-1.8,0.2l-1.7,0.4l-1.7,0.5l-1.7,0.7l-1.5,0.8l-1.5,0.9l-1.4,1.1
	l-1.3,1.2l-1.2,1.3l-1.2,1.4l-1,1.6l-1,1.6l-0.8,1.8l-0.8,1.9l-0.6,2l-0.5,2l-0.5,2.2l-0.3,2.2l-0.2,2.4l-0.1,2.4v2.4l0.1,2.5
	l0.2,2.6l0.3,2.6l0.4,2.7l0.5,2.7l0.7,2.7l0.7,2.8l0.9,2.7l0.9,2.8l1,2.7l1.2,2.8l1.2,2.7l1.3,2.7l1.4,2.7l1.4,2.6l1.6,2.6l1.6,2.5
	l1.7,2.5l1.7,2.5l1.8,2.3l1.9,2.3l1.9,2.2l2,2.1l2,2l2,1.9l2.1,1.8l2.1,1.7l2.1,1.6l2.1,1.5l2.2,1.4l2.1,1.2l2.1,1.1l2.1,1l2.2,0.8
	l2,0.7l2.1,0.6l2,0.4l2.1,0.3l1.9,0.2h1.9l1.9-0.1l1.8-0.3l1.8-0.4l1.6-0.5l1.7-0.7l1.5-0.8l1.5-0.9l1.4-1.1l1.3-1.2l1.2-1.3
	l1.1-1.5l1-1.5l1-1.7l0.8-1.8l0.8-1.9l0.6-2l0.5-2l0.5-2.2l0.3-2.3l0.2-2.3l0.1-2.4V166l-0.1-2.5l-0.3-2.6l-0.3-2.6l-0.4-2.7
	l-0.6-2.7l-0.6-2.7l-0.8-2.7l-0.8-2.8L252,142l-1.1-2.8l-1.1-2.7l-1.3-2.8l-1.3-2.7l-1.4-2.6l-1.4-2.7l-1.6-2.6l-1.6-2.5l-1.7-2.5
	l-1.8-2.4l-1.8-2.3l-1.9-2.3 M235.5,109.7l-3.1-3.4l-3.2-3.3l-3.3-3l-3.3-2.7l-3.4-2.4l-3.5-2.2 M183.1,91.2l1-0.7l1.5-0.9l1.5-0.8
	l0.5-0.2 M248.4,193.8l-1.1,0.8l-1.5,0.9l-1.6,0.8l-0.2,0.1 M215.7,92.7l-3.4-1.8l-3.4-1.5l-3.3-1.1l-3.3-0.8l-3.2-0.5l-3.2-0.1
	 M222.3,68.3l0.4-0.2l1.6-0.8l1.6-0.6l1.7-0.5l1.8-0.4l1.9-0.2l1.8-0.1h2l2,0.2l2,0.3l2,0.5l2.1,0.6l2.1,0.7l2.1,0.8l2.2,1l2.1,1.1
	l2.2,1.3l2.1,1.3l2.2,1.5l2.1,1.6l2.1,1.7l2.1,1.8l2,2l2,2l2,2.1l2,2.2l1.9,2.3l1.8,2.3l1.8,2.4l1.7,2.5l1.6,2.6l1.6,2.6l1.5,2.6
	l1.4,2.7l1.4,2.7l1.2,2.7l1.2,2.8l1.1,2.8l0.9,2.7l0.9,2.8l0.8,2.8l0.7,2.7l0.6,2.7l0.4,2.7l0.4,2.7l0.3,2.6l0.1,2.6l0.1,2.5
	l-0.1,2.4l-0.1,2.4l-0.3,2.3l-0.4,2.3l-0.4,2.1l-0.6,2.1l-0.7,1.9l-0.8,1.9l-0.9,1.7l-0.9,1.7l-1.1,1.5l-1.2,1.4l-1.2,1.3l-1.4,1.2
	l-1.4,1l-1.1,0.7 M318.9,88.4l-3.3-1.9 M309.8,65.8l0.2-0.2l0.7-0.5l0.6-0.6l0.5-0.7l0.4-0.7l0.2-0.8l0.2-0.8l0.1-0.8l-0.1-0.9
	l-0.1-0.8l-0.3-0.9l-0.4-0.9l-0.5-0.8l-0.6-0.8l-0.7-0.8l-0.7-0.5l-0.8-0.5l-0.8-0.3l-0.8-0.2l-0.9-0.1h-0.8l-0.8,0.2l-0.9,0.3
	L303,54 M219.2,189.6l0.5-0.2 M211.8,175.6l-0.5,0.3 M211.2,176l-0.5,0.3l-0.4,0.5l-0.4,0.6l-0.2,0.6l-0.2,0.8l-0.1,0.8v0.9l0.2,0.9
	l0.2,1l0.3,0.9l0.4,1l0.5,0.9l0.5,0.9l0.7,0.8l0.6,0.8l0.7,0.6l0.8,0.6l0.7,0.5l0.8,0.3l0.8,0.3l0.7,0.1l0.8-0.1l0.6-0.1l0.4-0.2
	 M221.4,186.6v0.4l-0.1,0.8l-0.1,0.6l-0.2,0.5l-0.3,0.5l-0.3,0.3l-0.3,0.2 M211.4,175l0.5-0.2l0.4-0.1h0.5l0.6,0.1l0.7,0.3l0.7,0.3
	l0.7,0.4l0.7,0.5l0.7,0.7l0.7,0.7l0.7,0.8l0.6,0.9l0.6,0.9l0.5,0.9l0.5,1l0.3,1l0.3,1l0.2,0.9l0.1,0.9v0.6 M302.9,53.9l-26.7,15.5
	 M286.2,79.4l23.6-13.6 M212,161.5h0.2h0.2l0.3,0.1l0.3,0.2l0.4,0.3l0.4,0.4l0.3,0.5l0.3,0.5l0.2,0.5l0.1,0.5v0.2 M196.7,120.5
	l3.6,2.1 M200.3,122.6v15.1 M299.1,159.6l0.4-0.2l1.3-1.1l1.1-1.2l1.1-1.3l1.1-1.4l0.9-1.5l0.9-1.6l0.7-1.7l0.7-1.8l0.6-1.8l0.5-2
	l0.3-2l0.3-2.1l0.2-2.2l0.1-2.3v-2.3l-0.1-2.3l-0.2-2.4l-0.3-2.4l-0.4-2.5l-0.5-2.5l-0.5-2.5l-0.7-2.5l-0.8-2.5l-0.8-2.6l-1-2.5
	l-1-2.5l-1.1-2.5l-1.2-2.5l-1.2-2.5l-1.4-2.4l-1.4-2.4l-1.4-2.4l-1.6-2.3l-1.5-2.2l-1.7-2.2l-1.7-2.1l-1.7-2.1l-1.8-2l-1.8-1.9
	l-1.9-1.8l-1.9-1.7l-1.9-1.7l-2-1.5l-1.9-1.4l-2-1.4l-2-1.2l-2-1.1l-1.9-1l-2-0.9l-2-0.7l-2-0.7l-1.9-0.5l-1.9-0.4l-1.9-0.3
	l-1.9-0.1h-1.8l-1.7,0.1l-1.7,0.2l-1.7,0.4l-1.6,0.5l-1.3,0.5 M225.4,137l3.7,2.1 M229.1,139.1v15.2 M217.9,116.7l-0.1,0.4v0.7
	l-0.2,0.6l-0.2,0.4l-0.3,0.4l-0.4,0.3 M240.5,62.8l-4.9,2.8 M292.3,163.8l4.9-2.8 M217.9,111v5.7 M207.9,105.2l10,5.8 M204.9,90.3
	l-0.5-0.1l-0.4-0.1 M205.1,90.3L205.1,90.3H205h-0.1 M247.5,68.4l-4.4-1.4 M294.8,156.5l1-4.4 M227.1,103.7l-0.4-0.4l-0.1-0.1
	 M234.5,165.7l0.5-0.2 M192.4,91.8l-0.4,0.3 M214.7,164.7l1.4,0.6l1.7,0.7l1.7,0.6l1.6,0.5l1.7,0.4l1.6,0.2l1.6,0.1h1.5l1.5-0.2
	l1.5-0.3l0.4-0.1 M188.9,94.4l-0.8,0.9l-0.9,1.1l-0.8,1.3l-0.8,1.3l-0.6,1.5l-0.6,1.5l-0.5,1.7l-0.4,1.7l-0.3,1.8l-0.1,1.8l-0.1,2
	v1.9l0.1,2.1l0.2,2l0.3,2.2l0.3,2.1l0.5,2.2l0.6,2.2l0.7,2.1l0.7,2.2l0.9,2.2l0.9,2.2l1,2.2l1.1,2.1l1.1,2.1l1.2,2.1l1.3,2l1.4,2
	l1.4,1.9l1.4,1.9l1.5,1.8l1.6,1.7l1.5,1.6l1.7,1.5l1.6,1.5l1.7,1.4l1.7,1.2l1.6,1.1 M183,91.2l-0.8,0.7l-1.3,1.1l-1.2,1.3l-1.1,1.4
	l-1,1.5l-1,1.6l-0.8,1.6l-0.8,1.8l-0.7,1.9l-0.6,2l-0.5,2l-0.4,2.1l-0.3,2.2l-0.2,2.3l-0.1,2.3v2.3l0.1,2.5l0.2,2.4l0.3,2.5l0.4,2.6
	l0.5,2.6l0.5,2.6l0.7,2.6l0.8,2.6l0.8,2.6l1,2.7l1,2.6l1.1,2.6l1.1,2.6l1.3,2.6l1.3,2.5l1.4,2.5l1.5,2.5l1.6,2.4l1.6,2.4l1.6,2.3
	l1.7,2.3l1.8,2.2l1.8,2.1l1.9,2l1.8,2l2,1.9l1.9,1.8l2,1.7l2,1.6l2.1,1.5l2,1.4l2.1,1.3l2,1.2l2.1,1l2,1l2.1,0.8l2,0.7l2,0.6l2,0.5
	l2,0.4l1.9,0.2l1.9,0.1l1.9-0.1l1.8-0.1l1.8-0.3l1.7-0.4l1.6-0.6l1-0.4 M246.2,195.3l37.1-21.4 M222.3,68.3l-37,21.4"/>
<g>
	<path d="M160.3,209.1c0.5-0.1,1.2-0.2,1.9-0.2c1,0,1.7,0.2,2.2,0.6c0.4,0.3,0.7,0.8,0.7,1.4c0,0.8-0.5,1.5-1.4,1.8v0
		c0.8,0.2,1.7,0.8,1.7,2c0,0.7-0.3,1.2-0.7,1.6c-0.6,0.5-1.5,0.8-2.8,0.8c-0.7,0-1.3,0-1.6-0.1V209.1z M161.4,212.4h0.9
		c1.1,0,1.8-0.6,1.8-1.4c0-0.9-0.7-1.3-1.8-1.3c-0.5,0-0.8,0-0.9,0.1V212.4z M161.4,216.3c0.2,0,0.5,0,0.9,0c1.1,0,2.1-0.4,2.1-1.6
		c0-1.1-0.9-1.6-2.1-1.6h-0.9V216.3z"/>
	<path d="M171.6,215.5c0,0.6,0,1.1,0,1.6h-0.9l-0.1-0.9h0c-0.3,0.5-0.9,1.1-1.9,1.1c-0.9,0-2-0.5-2-2.5v-3.4h1.1v3.2
		c0,1.1,0.3,1.8,1.3,1.8c0.7,0,1.2-0.5,1.4-1c0.1-0.2,0.1-0.3,0.1-0.5v-3.6h1.1V215.5z"/>
	<path d="M174.7,209.6v1.7h1.5v0.8h-1.5v3.1c0,0.7,0.2,1.1,0.8,1.1c0.3,0,0.5,0,0.6-0.1l0,0.8c-0.2,0.1-0.5,0.1-0.9,0.1
		c-0.5,0-0.9-0.2-1.1-0.4c-0.3-0.3-0.4-0.8-0.4-1.5v-3.2h-0.9v-0.8h0.9v-1.4L174.7,209.6z"/>
	<path d="M178.6,209.6v1.7h1.5v0.8h-1.5v3.1c0,0.7,0.2,1.1,0.8,1.1c0.3,0,0.5,0,0.6-0.1l0,0.8c-0.2,0.1-0.5,0.1-0.9,0.1
		c-0.5,0-0.9-0.2-1.1-0.4c-0.3-0.3-0.4-0.8-0.4-1.5v-3.2h-0.9v-0.8h0.9v-1.4L178.6,209.6z"/>
	<path d="M186.5,214.1c0,2.1-1.5,3.1-2.9,3.1c-1.6,0-2.8-1.2-2.8-3c0-1.9,1.3-3.1,2.9-3.1C185.4,211.1,186.5,212.3,186.5,214.1z
		 M181.9,214.2c0,1.3,0.7,2.2,1.8,2.2c1,0,1.8-0.9,1.8-2.3c0-1-0.5-2.2-1.7-2.2C182.4,211.9,181.9,213.1,181.9,214.2z"/>
	<path d="M187.8,212.8c0-0.6,0-1.1,0-1.6h0.9l0.1,1h0c0.3-0.6,1-1.1,1.9-1.1c0.8,0,2.1,0.5,2.1,2.5v3.5h-1.1v-3.3
		c0-0.9-0.3-1.7-1.3-1.7c-0.7,0-1.2,0.5-1.4,1.1c0,0.1-0.1,0.3-0.1,0.5v3.5h-1.1V212.8z"/>
</g>
<g>
	<path d="M338.3,120.4c0.5-0.1,1.2-0.2,2-0.2c1,0,1.8,0.2,2.3,0.7c0.4,0.4,0.7,1,0.7,1.7c0,0.7-0.2,1.3-0.6,1.7
		c-0.6,0.6-1.5,0.9-2.5,0.9c-0.3,0-0.6,0-0.8-0.1v3.2h-1V120.4z M339.4,124.3c0.2,0.1,0.5,0.1,0.9,0.1c1.3,0,2-0.6,2-1.7
		c0-1.1-0.8-1.6-1.9-1.6c-0.5,0-0.8,0-1,0.1V124.3z"/>
	<path d="M344.6,119.9h1.1v8.5h-1.1V119.9z"/>
	<path d="M352.3,126.8c0,0.6,0,1.1,0,1.6h-0.9l-0.1-0.9h0c-0.3,0.5-0.9,1.1-1.9,1.1c-0.9,0-2-0.5-2-2.5v-3.4h1.1v3.2
		c0,1.1,0.3,1.8,1.3,1.8c0.7,0,1.2-0.5,1.4-1c0.1-0.2,0.1-0.3,0.1-0.5v-3.6h1.1V126.8z"/>
	<path d="M359,122.6c0,0.4,0,0.9,0,1.6v3.4c0,1.3-0.3,2.1-0.8,2.7c-0.6,0.5-1.4,0.7-2.1,0.7c-0.7,0-1.5-0.2-1.9-0.5l0.3-0.8
		c0.4,0.2,1,0.5,1.7,0.5c1.1,0,1.9-0.6,1.9-2v-0.6h0c-0.3,0.5-0.9,1-1.8,1c-1.4,0-2.5-1.2-2.5-2.8c0-2,1.3-3.1,2.6-3.1
		c1,0,1.6,0.5,1.8,1h0l0-0.9H359z M357.9,124.9c0-0.2,0-0.3-0.1-0.5c-0.2-0.6-0.7-1.1-1.5-1.1c-1,0-1.7,0.9-1.7,2.2
		c0,1.1,0.6,2.1,1.7,2.1c0.6,0,1.2-0.4,1.5-1.1c0.1-0.2,0.1-0.4,0.1-0.6V124.9z"/>
</g>
<g>
	<path d="M88.3,82.1c0.6-0.1,1.4-0.2,2.2-0.2c1.5,0,2.6,0.3,3.3,1c0.7,0.7,1.1,1.6,1.1,2.9c0,1.3-0.4,2.4-1.2,3.1
		c-0.8,0.8-2,1.2-3.6,1.2c-0.7,0-1.4,0-1.9-0.1V82.1z M89.4,89.2c0.3,0,0.6,0.1,1.1,0.1c2.2,0,3.4-1.2,3.4-3.4
		c0-1.9-1.1-3.1-3.3-3.1c-0.5,0-0.9,0-1.2,0.1V89.2z"/>
	<path d="M96.9,87.4c0,1.4,0.9,2,2,2c0.8,0,1.2-0.1,1.6-0.3l0.2,0.8c-0.4,0.2-1,0.4-1.9,0.4c-1.8,0-2.9-1.2-2.9-2.9
		c0-1.8,1-3.1,2.7-3.1c1.9,0,2.4,1.7,2.4,2.7c0,0.2,0,0.4,0,0.5H96.9z M100,86.6c0-0.7-0.3-1.7-1.5-1.7c-1.1,0-1.5,1-1.6,1.7H100z"
		/>
	<path d="M102.7,84.3l1.1,3.3c0.2,0.5,0.3,1,0.5,1.5h0c0.1-0.5,0.3-1,0.5-1.5l1.1-3.3h1.1l-2.3,5.8h-1l-2.2-5.8H102.7z"/>
	<path d="M109.3,82.6c0,0.4-0.3,0.6-0.7,0.6c-0.4,0-0.6-0.3-0.6-0.6c0-0.4,0.3-0.7,0.7-0.7C109,82,109.3,82.3,109.3,82.6z
		 M108.1,90.1v-5.8h1.1v5.8H108.1z"/>
	<path d="M115,89.9c-0.3,0.1-0.9,0.3-1.7,0.3c-1.8,0-2.9-1.2-2.9-3c0-1.8,1.2-3.1,3.1-3.1c0.6,0,1.2,0.2,1.5,0.3l-0.2,0.8
		c-0.3-0.1-0.6-0.3-1.2-0.3c-1.3,0-2.1,1-2.1,2.2c0,1.3,0.9,2.2,2,2.2c0.6,0,1-0.2,1.3-0.3L115,89.9z"/>
	<path d="M116.8,87.4c0,1.4,0.9,2,2,2c0.8,0,1.2-0.1,1.6-0.3l0.2,0.8c-0.4,0.2-1,0.4-1.9,0.4c-1.8,0-2.9-1.2-2.9-2.9
		c0-1.8,1-3.1,2.7-3.1c1.9,0,2.4,1.7,2.4,2.7c0,0.2,0,0.4,0,0.5H116.8z M119.9,86.6c0-0.7-0.3-1.7-1.5-1.7c-1.1,0-1.5,1-1.6,1.7
		H119.9z"/>
	<path d="M124.8,82.1c0.5-0.1,1.2-0.2,2-0.2c1,0,1.8,0.2,2.3,0.7c0.4,0.4,0.7,1,0.7,1.7c0,0.7-0.2,1.3-0.6,1.7
		c-0.6,0.6-1.5,0.9-2.5,0.9c-0.3,0-0.6,0-0.8-0.1v3.2h-1V82.1z M125.8,86c0.2,0.1,0.5,0.1,0.9,0.1c1.3,0,2-0.6,2-1.7
		c0-1.1-0.8-1.6-1.9-1.6c-0.5,0-0.8,0-1,0.1V86z"/>
	<path d="M136.1,87.1c0,2.1-1.5,3.1-2.9,3.1c-1.6,0-2.8-1.2-2.8-3c0-1.9,1.3-3.1,2.9-3.1C135,84.1,136.1,85.3,136.1,87.1z
		 M131.5,87.2c0,1.3,0.7,2.2,1.8,2.2c1,0,1.8-0.9,1.8-2.3c0-1-0.5-2.2-1.7-2.2C132,84.9,131.5,86.1,131.5,87.2z"/>
	<path d="M137.4,86.1c0-0.7,0-1.3,0-1.8h0.9l0,1.1h0c0.3-0.8,0.9-1.3,1.6-1.3c0.1,0,0.2,0,0.3,0v1c-0.1,0-0.2,0-0.4,0
		c-0.7,0-1.3,0.6-1.4,1.4c0,0.1,0,0.3,0,0.5v3.1h-1V86.1z"/>
	<path d="M142.9,82.6v1.7h1.5v0.8h-1.5v3.1c0,0.7,0.2,1.1,0.8,1.1c0.3,0,0.5,0,0.6-0.1l0,0.8c-0.2,0.1-0.5,0.1-0.9,0.1
		c-0.5,0-0.9-0.2-1.1-0.4c-0.3-0.3-0.4-0.8-0.4-1.5v-3.2H141v-0.8h0.9v-1.4L142.9,82.6z"/>
</g>
<line class="st1" x1="306.1" y1="99.4" x2="332.4" y2="122.1"/>
<line class="st1" x1="214.7" y1="183.1" x2="187.1" y2="205.4"/>
<line class="st1" x1="214.7" y1="113.4" x2="129.7" y2="94.7"/>
</svg>
