<?xml version="1.0" encoding="utf-8"?>
<!-- Generator: Adobe Illustrator 21.0.0, SVG Export Plug-In . SVG Version: 6.00 Build 0)  -->
<svg version="1.1" id="Layer_1" xmlns="http://www.w3.org/2000/svg" xmlns:xlink="http://www.w3.org/1999/xlink" x="0px" y="0px"
	 viewBox="0 0 707 359" style="enable-background:new 0 0 707 359;" xml:space="preserve">
<style type="text/css">
	.st0{fill:none;stroke:#000000;stroke-width:0.709;stroke-linecap:round;stroke-linejoin:round;stroke-miterlimit:10;}
	.st1{fill:none;stroke:#000000;stroke-miterlimit:10;}
</style>
<path class="st0" d="M510.4,141.6l59.1,34.2 M494.3,247.8l-0.5,0.3l-0.6,0.5l-0.5,0.6l-0.4,0.8l-0.2,0.8 M437.4,177.1l-0.5,0.4
	l-0.5,0.8 M488.1,243.4l1.6,2.6l2.7,1.5l0.7,0.1 M485.5,254.6l-0.1,1.1l-0.3,0.8l-0.5,0.7l-0.6,0.5 M475,259.1h-0.4l-2.1-1.8l-1.1-2
	l-0.8-2.5l-0.8-5.1l-0.2-5.7l1.1-11.1l1-5.9l1.5-6.1l2-6.3l2.6-6.6l1.8-3.5l1.5-2.7 M440.8,176.5l-2.5,2.2l-2.2,3.2l-2.8,6.2
	l-2.2,6.5l-2.5,11.7l-0.8,5.8l-0.3,5.6l0.2,5.6l0.8,5.2l0.9,2.5l1.3,2.1l0.5,0.5 M460.1,115.1l-0.5,0.3l-5.3,3.1l-4.7,3.4l-4.2,3.6
	l-3.8,3.8l-3.1,4l-2.6,4.1l-1.9,4.2l-1.3,4.2l-0.8,4.4v4.3l0.5,4.4l1.2,4.3l1.8,4.2l2.4,4.2l3,4 M598.8,180.1l1.7-1.6l3.4-3.9
	l2.8-4.1l2.3-4.1l1.6-4.3l1.1-4.3l0.4-4.3l-0.3-4.4l-0.9-4.3l-1.4-4.3l-2.1-4.2l-2.8-4l-3.2-4l-3.9-3.7l-4.4-3.6l-4.8-3.3l-4.5-2.6
	 M441,176.4l1.5,1.6 M434.1,182.2l0.8-2.9l1.1-2.7l1.4-2.2l0.8-0.6 M608.7,169l-2.4,4l-3.2,4l-3.7,3.8l-4.2,3.7l-4.8,3.4l-5.2,3.2
	l-5.6,2.9l-6.1,2.6l-6.4,2.3l-6.8,2.1l-7,1.6l-7.2,1.4l-7.4,1l-7.5,0.6l-7.6,0.2l-7.6-0.1l-7.5-0.4l-7.5-0.9l-7.3-1.1l-7.1-1.6
	 M438.2,173.8l-2.7-4.1l-1-2 M488.1,243.4l7.4,1.4l7.5,1.1l7.7,0.7l7.7,0.4l7.8-0.1l7.7-0.3l7.6-0.8l7.6-1.1l7.3-1.5l7.1-1.8
	l6.8-2.1l6.5-2.5l6.1-2.8l5.7-3l5.3-3.3l4.7-3.6l4.3-3.7l3.6-4l3.1-4.1l2.6-4.2l1.9-4.4l0.5-1.7 M117,167.2h0.1l0.7-0.3h0.8l0.9,0.2
	l1,0.4 M142.4,136.4l-0.8,2.1l-0.9,3.6l-0.2,3.6l0.4,3.6l1,3.5 M188,179.5l6.2,0.6l6.2,0.2l6.3-0.1l6.2-0.6l6.1-0.8l5.9-1.3l5.6-1.5
	l5.3-1.9l5-2.2l4.5-2.5l4.1-2.8l3.5-2.9l3-3.2l2.5-3.3l1.8-3.5l1.2-3.5l0.6-3.6l-0.1-3.7l-0.7-3.5l-1.1-3 M226.6,112.7l1.1,0.2
	l6.4,1.6l6,2l5.7,2.2l5.4,2.6l4.9,2.8l4.4,3.1l3.9,3.3l3.3,3.5l2.8,3.6l2.2,3.8l1.5,3.9l0.9,4l0.3,4l-0.4,3.9l-1,4l-1.7,3.9
	l-2.2,3.7l-2.9,3.7l-3.5,3.4l-3.9,3.3l-4.5,3l-5,2.8l-5.4,2.5l-5.8,2.2l-6.1,1.9l-6.4,1.5l-6.6,1.2l-6.7,0.9l-6.9,0.4l-6.9,0.1
	l-6.9-0.3l-6.8-0.6 M128.3,160.7l-0.7-2.8l-0.5-4l0.2-4l0.8-3.9l1.4-3.9l2.1-3.8l2.6-3.7l3.3-3.6l3.8-3.3l4.3-3.1l4.9-2.9l5.2-2.6
	l5.7-2.3l6-2l6.3-1.6l4.7-1 M161.8,248.8h0.1l0.7-0.3 M120.5,167.5L120.5,167.5l-2.3,1.2l-2.2,1.6l-3.4,3.5l-2.6,4.6l-1.3,3.4
	l-0.9,3.4l-0.8,6.1l-0.2,5.8l1,10l1.1,4.6l1.5,4.4l2.1,4l1.5,1.7 M158.5,248.3l-1.4-0.8l-2.5-3.1l-2.1-4l-2.5-8.8l-0.7-4.9l-0.4-5.3
	l0.2-5.7l0.8-6.2l0.8-3.4l1.1-3.6l2.1-4.8l2.5-4l1.7-1.9l1.8-1.5 M180.6,197.7l7,0.9l7.1,0.5l7.1,0.2l7.1-0.2l7-0.6l7-0.9l6.7-1.3
	l6.6-1.6l6.2-2l6-2.2l5.5-2.6l5.2-2.8l4.7-3.1l4.2-3.3l3.7-3.5l3.1-3.7l2.6-3.9l2-3.9l1.3-4.1l0.7-4l0.1-4.2l-0.5-4.1l-1.2-4l-1.8-4
	l-2.4-3.9l-2.9-3.7l-3.6-3.6l-4-3.3l-4.6-3.2l-5-2.9l-5.5-2.6l-5.8-2.4l-6.2-2l-6.5-1.7l-6.7-1.4l-6.9-1l-7-0.7l-7.1-0.3h-7.1
	l-7.1,0.4l-7,0.8l-6.8,1.2l-6.7,1.4l-6.4,1.8l-6.1,2.2l-5.7,2.4l-5.3,2.7l-5,3l-4.4,3.2l-3.9,3.4l-3.4,3.7l-2.8,3.7l-2.2,3.9l-1.6,4
	l-1,4.1l-0.4,4.1l0.3,4.1l0.9,4.1l1,2.9 M293.9,152.3l0.7,2.7l0.6,4.5v4.4l-0.6,4.5l-1.3,4.4l-1.8,4.4l-2.6,4.2l-3.1,4.1l-3.6,4
	l-4.3,3.7l-4.7,3.6l-5.3,3.3l-5.7,3l-6.1,2.8l-6.5,2.5l-6.8,2.1l-7.1,1.8l-7.3,1.5l-7.6,1.1l-7.6,0.7l-7.7,0.4h-7.8l-7.8-0.3
	l-7.6-0.7l-7.6-1.1l-7.3-1.5 M109.8,174.6l-0.7-1.9l-1.3-4.4l-0.6-4.5v-4.5l0.7-4.4l0.7-2.6 M511.3,110.1v-2.3 M511.3,110.1h21.3
	 M532.6,110.1v-2.3 M554.5,122.5v1.2 M512.4,135.9l-4-2.4 M508.4,133.5l-13,7.6 M508.4,133.5v-9.2 M548.5,126v1.2 M571,138.7
	l1.5,0.6l1.7,0.2l1.8-0.2l1.5-0.6l1-0.8l0.4-1.1l-0.4-1l-1-0.9l-1.5-0.5l-1.8-0.2l-1.7,0.2l-1.5,0.5l-1,0.9l-0.4,1l0.4,1.1
	L571,138.7 M570.5,131.8v0.9 M563.5,135.9v4.2 M481.4,153.8l-4.1-2.3 M477.3,151.5l-13,7.5 M477.3,151.5v-9.3 M464.3,163.6l17.1-9.8
	 M464.3,163.6v-9.2 M512.4,135.9v-9.3 M495.4,145.7l17-9.8 M495.4,145.7v-9.3 M481.4,153.8v-9.3 M510.4,141.6l2.4-1.6l2.2-2.1
	l2.1-2.5l1.8-2.7l1.5-3l1.1-3l0.7-3l0.2-2.9 M579.6,170v-4.6 M600,161.4v-2.3 M600,161.4h5.1 M438.8,161.4h5 M443.8,161.4v-2.3
	 M466.3,167.1l44.1-25.5 M548.5,187.9v-4.6 M440.8,175.6L440.8,175.6h-0.1l-0.1,0.1l-0.1,0.2 M440.5,175.9v-0.1l-0.1-0.1v-0.1
	l-0.1-0.1v-0.1 M497.4,248.2l-5.3,2.6 M437.4,177.1l0.2-0.4l0.2-0.3l0.1-0.4l0.2-0.5v-0.4l0.1-0.4v-0.5v-0.4 M440.8,176.5l-0.3-0.4
	v-0.2 M440.5,175.9l-0.3,0.1l-0.2,0.1l-0.6,0.1l-0.8,0.3l-1.2,0.6 M482.3,200l0.2-0.1l0.1-0.1h0.1 M485.5,254.6l6.6-3.8
	 M492.1,250.8l-0.7,0.1l-4.2-0.1l-3.2-2l-1.9-3.7 M482.1,245.1l-1.1-5.2l-0.6-5.5l-0.2-6l0.4-6.3 M488.1,243.4l-0.8-0.1h-0.8
	l-0.8,0.1l-0.8,0.2l-0.8,0.3l-0.7,0.3l-0.7,0.4l-0.6,0.5 M481.1,199.8L481.1,199.8l0.1-0.1l0.1-0.1 M440.8,176.5L440.8,176.5
	L440.8,176.5l0.1-0.1h0.1 M483.1,200.1H483h-0.1h-0.1h-0.1l-0.1-0.1h-0.1h-0.1h-0.1 M486.6,201.7l-0.4,0.2l-0.4,0.3l-0.4,0.2
	l-0.4,0.2l-0.4,0.3l-0.5,0.2l-0.4,0.2l-0.4,0.3 M486.7,221.8l-0.8-0.1l-0.8-0.2h-0.8h-0.9h-0.7l-0.8,0.2l-0.7,0.1l-0.6,0.3
	 M480.6,222.1l1.1-5.8l1.4-5.9l0.7-4.5l-0.3-1.7l-0.2-0.6 M483.3,203.6l-0.8-1.9l-0.3-1.2v-0.3l0.1-0.2 M482.3,200h-0.2l-0.2-0.1
	l-0.8-0.1 M484,257.7v0.1 M480.6,222.1l-2,9.9l-0.9,9.5l0.2,4.9l0.7,4.5l1.5,3.4l1.4,1.1l1.6,0.2l2.4-1 M548.5,126l-1,0.6
	 M548.5,126l16.7,9.7 M565.2,135.7l-0.7,1.3l-0.1,1.5l0.5,1.4l1.1,1.3l1.6,1.1l2.1,0.8l2.3,0.5l2.5,0.1l2.5-0.2l2.3-0.6l2-0.9
	l1.5-1.1l1-1.3l0.4-1.4l-0.3-1.5l-0.8-1.3l-1.5-1.2l-1.8-1l-2.3-0.6l-2.4-0.3h-2.5l-2.4,0.5 M570.2,132.8l-16.7-9.7 M554.5,122.5
	l-1,0.6 M570.5,131.8l-16-9.3 M563.5,135.9l-0.5,1.5v1.6l0.8,1.5l1.4,1.4l1.9,1.2l2.4,0.8l2.6,0.5l2.7,0.1l2.8-0.2l2.5-0.7l2.2-1
	l1.7-1.2l1.1-1.5l0.5-1.6l-0.2-1.6l-0.9-1.5l-1.4-1.3l-2-1.1l-2.4-0.8l-2.7-0.5h-2.8l-2.7,0.3 M547.5,126.6l16,9.3 M531.5,193.1
	l4,2.3 M531.5,193.1L523,198 M454.3,160.2l65.6,37.8 M464.3,154.4l-10,5.8 M460.3,152.1l4,2.3 M477.3,142.2l-17,9.9 M481.4,144.5
	l-4.1-2.3 M495.4,136.4l-14,8.1 M491.4,134.1l4,2.3 M508.4,124.3l-17,9.8 M512.4,126.6l-4-2.3 M522.4,120.8l-10,5.8 M522.4,120.8
	l67.2,38.8 M589.6,159.6l-10,5.8 M583.6,167.7l-4-2.3 M566.5,177.5l17.1-9.8 M562.5,175.2l4,2.3 M562.5,175.2l-14,8.1 M552.5,185.6
	l-4-2.3 M535.5,195.4l17-9.8 M567.8,136.2v0.2l-0.6,1.1l0.1,1.3l0.7,1.1l1.2,1 M569.2,140.9l1.7,0.7l2,0.4l2.1,0.1l2.1-0.4l1.8-0.6
	l1.3-0.9l0.9-1.2l0.2-1.2l-0.4-1.2l-0.2-0.3 M481.1,199.8l-6.3-2l-6.1-2.3l-5.7-2.6l-5.3-2.9l-4.9-3l-4.5-3.3l-4-3.5l-3.5-3.7
	 M603.3,146.8l-2-3.6l-2.8-3.9l-3.4-3.8l-4-3.6l-4.5-3.4l-4.9-3.1l-5.5-2.9l-5.8-2.6l-6.2-2.3l-6.6-1.9l-6.8-1.6l-7-1.3l-7.2-0.9
	l-7.3-0.6l-7.4-0.2l-7.3,0.2l-7.3,0.6l-7.2,0.9l-7,1.3l-6.9,1.6l-6.5,1.9l-6.2,2.3l-5.8,2.6l-5.5,2.9l-5,3.1l-4.4,3.4l-4,3.6
	l-3.4,3.8l-2.8,3.9l-2,3.6 M438.2,173.8l0.9,0.8l0.6,0.4l0.4,0.3l0.2,0.1 M440.3,175.4h0.2l0.1,0.1h0.2v0.1 M482.7,199.8
	L482.7,199.8l0.2,0.1l0.1,0.1l0.1,0.1 M483.1,200.1l0.2,0.2l1.3,0.6l2,0.8 M511.3,104.6l-7.3,0.7l-7.2,1.1l-7,1.4l-6.7,1.8l-6.4,2.2
	l-6.1,2.4l-5.7,2.8l-5.2,3l-4.8,3.3l-4.3,3.5l-3.7,3.7l-3.1,3.9l-2.5,4l-1.9,4.2l-1.2,4.2 M511.3,104.6v3.2 M511.3,107.8h21.3
	 M532.6,107.8v-3.2 M605.7,146.8l-1.2-4.2l-1.9-4.2l-2.5-4l-3.2-3.9l-3.7-3.7l-4.2-3.5l-4.8-3.3l-5.2-3l-5.7-2.8l-6.1-2.4l-6.4-2.2
	l-6.8-1.8l-6.9-1.4l-7.2-1.1l-7.3-0.7 M605.7,146.8H600 M600,146.8v12.3 M600,159.1h5.7 M532.6,201.3l7.3-0.7l7.2-1.1l6.9-1.5
	l6.8-1.8l6.4-2.1l6.1-2.5l5.7-2.7l5.2-3.1l4.8-3.2l4.2-3.5l3.7-3.8l3.2-3.8l2.5-4.1l1.9-4.1l1.2-4.2 M532.6,201.3V198 M532.6,198
	h-21.3 M511.3,198v3.3 M438.2,159.1l1.2,4.2l1.9,4.1l2.5,4.1l3.1,3.8l3.7,3.8l4.3,3.5l4.8,3.2l5.2,3.1l5.7,2.7l6.1,2.5l6.4,2.1
	l6.7,1.8l7,1.5l7.2,1.1l7.3,0.7 M438.2,159.1h5.6 M443.8,159.1v-12.3 M443.8,146.8h-5.6 M583.8,115.1l-0.9-0.5l-5.7-2.8l-6.2-2.5
	l-6.5-2.2l-6.8-1.9l-7-1.6l-7.3-1.2l-7.4-0.9l-7.5-0.5l-7.5-0.1l-7.5,0.2l-7.5,0.6l-7.4,1l-7.2,1.3l-7,1.6l-6.7,2l-6.4,2.3l-6.1,2.6
	l-5.1,2.6 M482.7,199.8l7,1.7l7.1,1.4l7.3,1l7.5,0.7l7.5,0.3h7.6l7.5-0.4l7.4-0.8l7.3-1.1l7.1-1.5l6.9-1.8l6.5-2.2l6.3-2.4l5.8-2.8
	l5.5-3l5-3.2l4.5-3.5l2.3-2.1 M440.8,175.6v0.3l0.2,0.5 M442.5,178l2,2.1l4,3.4l4.5,3.3l4.9,3.1l5.3,2.8l5.7,2.6l6,2.3l6.4,2
	 M481.3,199.6l0.8,0.2h0.6 M434.5,167.7l-1-2.3l-1.5-4.3l-0.8-4.3l-0.2-4.4l0.5-4.4l1.1-4.3l1.7-4.3l2.3-4.1l2.9-4.1l3.5-3.9l4-3.7
	l4.6-3.5l5.1-3.3l5.5-3l5.9-2.7l6.3-2.5l6.6-2.1l6.9-1.8l7.2-1.5l7.3-1.1l7.5-0.8l7.5-0.3l7.6-0.1l7.6,0.3l7.5,0.7l7.4,1.1l7.1,1.4
	l7,1.7l6.7,2.1l6.3,2.4l6,2.7l5.6,3l5.2,3.2l4.6,3.4l4.2,3.7l3.5,3.9l3.1,4l2.4,4.1l1.8,4.3l1.2,4.3l0.6,4.4l-0.1,4.4l-0.6,4.3
	l-1.4,4.3l-1.9,4.3l-0.1,0.1 M486.6,201.7l1.2,3.5l0.2,2.7l-0.1,2.6l-0.6,5.8l-0.6,5.5 M486.7,221.8l-0.3,9.5l0.5,6.2l1.2,5.9
	 M162.6,248.5h0.4h0.4l0.5,0.1l0.4,0.1l0.4,0.1l0.4,0.2l0.4,0.2l0.4,0.2 M165.9,249.4l-1.8-0.3l-0.7-0.2 M117.9,222.1V222
	 M141.9,152.8L141.9,152.8l0.9-0.2l1.4,0.1l1.2,0.4h0.1 M176.7,191.2l0.1,0.9l0.3,1l0.3,0.9l0.5,1l0.6,0.8l0.7,0.8l0.7,0.6l0.7,0.5
	 M159.9,236.8l0.6-0.4l0.7-0.3l0.7-0.3l0.8-0.2l0.9-0.1h0.8h0.8l0.8,0.1 M176.7,191.2l11.7-6.8 M188,179.5l-0.1-0.2l-1-1.2l-1.1-1.4
	l-0.9-0.8 M171.4,194.8l5.3-3.6 M161.4,212l0.6-0.1l0.7-0.1h0.7h0.8l0.8,0.1l0.8,0.1l0.8,0.2l0.8,0.2 M171.4,194.8l0.2,0.7l0.4,0.7
	l0.5,0.8l0.6,0.8l0.6,0.7l0.8,0.7l0.7,0.7l0.7,0.5 M159.9,236.8l-0.4-5.7l0.1-6l0.7-6.4l1.1-6.7 M161.4,212l1.1-3.7l1.4-3.4l1.8-3.3
	l2.5-3.4l2.7-2.9l0.5-0.5 M171.4,194.8l-6.6,3.8 M188.4,184.4l-1.3,3.4l-0.7,3.3l-0.5,3.1l-0.1,0.6 M142.5,136.1l-0.1,0.3
	 M188.4,184.4l0.5-1.5v-1.7l-0.6-1.3l-0.3-0.4 M185.8,194.8l-5.2,2.9 M162.6,248.5l0.3-0.4l0.1-1.1l-1.2-3.5l-1.9-6.7 M164.8,198.6
	l-2.4,1.8l-1.6,1.9l-1.4,2.9l-1.5,5.1l-0.7,5.3l-0.2,5.1l0.9,8.5l2,7.6 M164.8,198.6l-0.1-1.1l-0.3-1.2l-0.5-1.2l-0.6-1.2l-0.7-1.1
	l-0.8-1l-0.9-0.9l-1-0.6 M190.9,157.2l-0.5-0.2l-0.5-0.1l-0.6,0.1l-0.4,0.2l-0.4,0.2l-0.1,0.4l0.1,0.3l0.4,0.2l0.4,0.2l0.6,0.1
	l0.5-0.1l0.5-0.2l0.3-0.2l0.1-0.3l-0.1-0.4L190.9,157.2 M199.9,158.6l-0.5-0.2l-0.5-0.1l-0.6,0.1l-0.4,0.2l-0.3,0.2l-0.1,0.3
	l0.1,0.4l0.3,0.2l0.4,0.2l0.6,0.1l0.5-0.1l0.5-0.2l0.3-0.2l0.1-0.4l-0.1-0.3L199.9,158.6 M209.2,158.1l-0.5-0.2h-0.5h-0.5l-0.5,0.2
	l-0.3,0.3l-0.1,0.3l0.1,0.3l0.3,0.3l0.5,0.1l0.5,0.1l0.5-0.1l0.5-0.1l0.3-0.3l0.1-0.3l-0.1-0.3L209.2,158.1 M217.7,155.8l-0.5-0.2
	h-0.5h-0.6l-0.4,0.2l-0.3,0.3l-0.1,0.3l0.1,0.3l0.3,0.3l0.4,0.2h0.6h0.5l0.5-0.2l0.3-0.3l0.1-0.3l-0.1-0.3L217.7,155.8 M224.3,152
	l-0.5-0.2h-0.5h-0.5l-0.5,0.2l-0.3,0.3l-0.1,0.3l0.1,0.3l0.3,0.3l0.5,0.1l0.5,0.1l0.5-0.1l0.5-0.1l0.3-0.3l0.1-0.3l-0.1-0.3
	L224.3,152 M228.2,147.1l-0.4-0.2h-0.6h-0.5l-0.5,0.2l-0.3,0.3l-0.1,0.3l0.1,0.3l0.3,0.3l0.5,0.1l0.5,0.1l0.6-0.1l0.4-0.1l0.4-0.3
	l0.1-0.3l-0.1-0.3L228.2,147.1 M229.1,141.7l-0.5-0.1l-0.5-0.1l-0.6,0.1l-0.4,0.1l-0.3,0.3l-0.2,0.3l0.2,0.3l0.3,0.3l0.4,0.2h0.6
	h0.5l0.5-0.2l0.3-0.3l0.1-0.3l-0.1-0.3L229.1,141.7 M226.6,136.5l-0.4-0.2h-0.6h-0.5l-0.5,0.2l-0.3,0.3l-0.1,0.3l0.1,0.3l0.3,0.3
	l0.5,0.1l0.5,0.1l0.6-0.1l0.4-0.1l0.4-0.3l0.1-0.3l-0.1-0.3L226.6,136.5 M221.3,132.1l-0.5-0.2h-0.5h-0.6l-0.4,0.2l-0.3,0.3
	l-0.1,0.3l0.1,0.3l0.3,0.2l0.4,0.2l0.6,0.1l0.5-0.1l0.5-0.2l0.3-0.2l0.1-0.3l-0.1-0.3L221.3,132.1 M213.6,129l-0.4-0.2h-0.6h-0.5
	l-0.5,0.2l-0.3,0.3l-0.1,0.3l0.1,0.3l0.3,0.3l0.5,0.1l0.5,0.1l0.6-0.1l0.4-0.1l0.3-0.3l0.1-0.3l-0.1-0.3L213.6,129 M204.6,127.6
	l-0.5-0.2h-0.5H203l-0.4,0.2l-0.3,0.3l-0.1,0.3l0.1,0.3l0.3,0.3l0.4,0.1l0.6,0.1l0.5-0.1l0.5-0.1l0.3-0.3l0.1-0.3l-0.1-0.3
	L204.6,127.6 M195.3,128.1l-0.5-0.2l-0.5-0.1l-0.6,0.1l-0.4,0.2l-0.3,0.2l-0.2,0.3l0.2,0.4l0.3,0.2l0.4,0.2l0.6,0.1l0.5-0.1l0.5-0.2
	l0.3-0.2l0.1-0.4l-0.1-0.3L195.3,128.1 M186.8,130.3l-0.5-0.1l-0.5-0.1l-0.6,0.1l-0.4,0.1l-0.3,0.3l-0.1,0.3l0.1,0.3l0.3,0.3
	l0.4,0.2h0.6h0.5l0.5-0.2l0.3-0.3l0.1-0.3l-0.1-0.3L186.8,130.3 M180.2,134.2l-0.5-0.2l-0.5-0.1l-0.6,0.1l-0.4,0.2l-0.3,0.2
	l-0.1,0.3l0.1,0.4l0.3,0.2l0.4,0.2l0.6,0.1l0.5-0.1l0.5-0.2l0.3-0.2l0.1-0.4l-0.1-0.3L180.2,134.2 M176.2,139.1l-0.4-0.2l-0.6-0.1
	l-0.5,0.1l-0.5,0.2l-0.3,0.2l-0.1,0.3l0.1,0.4l0.3,0.2l0.5,0.2l0.5,0.1l0.6-0.1l0.4-0.2l0.3-0.2l0.1-0.4l-0.1-0.3L176.2,139.1
	 M175.4,144.4l-0.4-0.1l-0.6-0.1l-0.5,0.1l-0.5,0.1l-0.3,0.3L173,145l0.1,0.3l0.3,0.3l0.5,0.2h0.5h0.6l0.4-0.2l0.3-0.3l0.1-0.3
	l-0.1-0.3L175.4,144.4 M177.8,149.7l-0.4-0.2l-0.6-0.1l-0.5,0.1l-0.5,0.2l-0.3,0.2l-0.1,0.3l0.1,0.3l0.3,0.3l0.5,0.2l0.5,0.1
	l0.6-0.1l0.4-0.2l0.3-0.3l0.1-0.3l-0.1-0.3L177.8,149.7 M184.5,160.8l-0.4-0.2h-0.6H183l-0.5,0.2l-0.3,0.3l-0.1,0.3l0.1,0.3l0.3,0.3
	l0.5,0.1l0.5,0.1l0.6-0.1l0.4-0.1l0.3-0.3l0.1-0.3l-0.1-0.3L184.5,160.8 M193.1,162.8l-0.5-0.1l-0.5-0.1l-0.6,0.1l-0.4,0.1l-0.3,0.3
	l-0.2,0.3l0.2,0.3l0.3,0.3l0.4,0.2h0.6h0.5l0.5-0.2l0.3-0.3l0.1-0.3l-0.1-0.3L193.1,162.8 M202.2,163.5l-0.4-0.1l-0.6-0.1l-0.5,0.1
	l-0.5,0.1l-0.3,0.3l-0.1,0.3l0.1,0.3l0.3,0.3l0.5,0.2h0.5h0.6l0.4-0.2l0.3-0.3l0.2-0.3l-0.2-0.3L202.2,163.5 M211.4,162.8l-0.5-0.1
	l-0.5-0.1l-0.5,0.1l-0.5,0.1l-0.3,0.3l-0.1,0.3l0.1,0.3l0.3,0.3l0.5,0.2h0.5h0.5l0.5-0.2l0.3-0.3l0.1-0.3l-0.1-0.3L211.4,162.8
	 M220,160.8l-0.5-0.2H219h-0.6l-0.4,0.2l-0.4,0.3l-0.1,0.3l0.1,0.3l0.4,0.3l0.4,0.1l0.6,0.1l0.5-0.1l0.5-0.1l0.3-0.3l0.1-0.3
	l-0.1-0.3L220,160.8 M227.3,157.5l-0.5-0.1l-0.5-0.1l-0.6,0.1l-0.4,0.1l-0.3,0.3l-0.1,0.3l0.1,0.3l0.3,0.3l0.4,0.2h0.6h0.5l0.5-0.2
	l0.3-0.3l0.1-0.3l-0.1-0.3L227.3,157.5 M232.9,153.3l-0.4-0.2h-0.6h-0.5l-0.5,0.2l-0.3,0.3l-0.1,0.3l0.1,0.3l0.3,0.3l0.5,0.1
	l0.5,0.1l0.6-0.1l0.4-0.1l0.3-0.3l0.1-0.3l-0.1-0.3L232.9,153.3 M236.5,148.4l-0.5-0.2l-0.5-0.1l-0.6,0.1l-0.4,0.2l-0.3,0.2L234,149
	l0.2,0.3l0.3,0.2l0.4,0.2l0.6,0.1l0.5-0.1l0.5-0.2l0.3-0.2l0.1-0.3l-0.1-0.4L236.5,148.4 M237.7,143.1l-0.5-0.2l-0.5-0.1l-0.6,0.1
	l-0.4,0.2l-0.3,0.2l-0.1,0.4l0.1,0.3l0.3,0.2l0.4,0.2l0.6,0.1l0.5-0.1l0.5-0.2l0.3-0.2l0.1-0.3l-0.1-0.4L237.7,143.1 M236.5,137.8
	l-0.5-0.2l-0.5-0.1l-0.6,0.1l-0.4,0.2l-0.3,0.3l-0.2,0.3l0.2,0.3l0.3,0.2l0.4,0.2l0.6,0.1l0.5-0.1l0.5-0.2l0.3-0.2l0.1-0.3l-0.1-0.3
	L236.5,137.8 M232.9,132.9l-0.4-0.2l-0.6-0.1l-0.5,0.1l-0.5,0.2l-0.3,0.2l-0.1,0.3l0.1,0.3l0.3,0.3l0.5,0.2l0.5,0.1l0.6-0.1l0.4-0.2
	l0.3-0.3l0.1-0.3l-0.1-0.3L232.9,132.9 M227.3,128.6l-0.5-0.2h-0.5h-0.6l-0.4,0.2l-0.3,0.3l-0.1,0.3l0.1,0.3l0.3,0.3l0.4,0.2h0.6
	h0.5l0.5-0.2l0.3-0.3l0.1-0.3l-0.1-0.3L227.3,128.6 M220,125.4l-0.5-0.2l-0.5-0.1l-0.6,0.1l-0.4,0.2l-0.4,0.2l-0.1,0.3l0.1,0.4
	l0.4,0.2l0.4,0.2l0.6,0.1l0.5-0.1l0.5-0.2l0.3-0.2l0.1-0.4l-0.1-0.3L220,125.4 M211.4,123.3l-0.5-0.2h-0.5h-0.5l-0.5,0.2l-0.3,0.3
	l-0.1,0.3l0.1,0.3l0.3,0.3l0.5,0.2h0.5h0.5l0.5-0.2l0.3-0.3l0.1-0.3l-0.1-0.3L211.4,123.3 M202.2,122.6l-0.4-0.1l-0.6-0.1l-0.5,0.1
	l-0.5,0.1l-0.3,0.3l-0.1,0.3l0.1,0.3l0.3,0.3l0.5,0.2h0.5h0.6l0.4-0.2l0.3-0.3l0.2-0.3l-0.2-0.3L202.2,122.6 M193.1,123.3l-0.5-0.2
	h-0.5h-0.6l-0.4,0.2l-0.3,0.3l-0.2,0.3l0.2,0.3l0.3,0.3l0.4,0.2h0.6h0.5l0.5-0.2l0.3-0.3l0.1-0.3l-0.1-0.3L193.1,123.3 M184.5,125.4
	l-0.4-0.2l-0.6-0.1l-0.5,0.1l-0.5,0.2l-0.3,0.2l-0.1,0.3l0.1,0.4l0.3,0.2l0.5,0.2l0.5,0.1l0.6-0.1l0.4-0.2l0.3-0.2l0.1-0.4l-0.1-0.3
	L184.5,125.4 M177.2,128.6l-0.5-0.2h-0.5h-0.6l-0.4,0.2l-0.3,0.3l-0.1,0.3l0.1,0.3l0.3,0.3l0.4,0.2h0.6h0.5l0.5-0.2l0.3-0.3l0.1-0.3
	l-0.1-0.3L177.2,128.6 M171.6,132.9l-0.5-0.2l-0.6-0.1l-0.5,0.1l-0.5,0.2l-0.3,0.2l-0.1,0.3l0.1,0.3l0.3,0.3l0.5,0.2l0.5,0.1
	l0.6-0.1l0.5-0.2l0.3-0.3l0.1-0.3l-0.1-0.3L171.6,132.9 M168,137.8l-0.4-0.2l-0.6-0.1l-0.5,0.1l-0.5,0.2l-0.3,0.3l-0.1,0.3l0.1,0.3
	l0.3,0.2l0.5,0.2l0.5,0.1l0.6-0.1l0.4-0.2l0.3-0.2l0.1-0.3l-0.1-0.3L168,137.8 M166.8,143.1l-0.5-0.2l-0.5-0.1l-0.5,0.1l-0.5,0.2
	l-0.3,0.2l-0.1,0.4l0.1,0.3l0.3,0.2l0.5,0.2l0.5,0.1l0.5-0.1l0.5-0.2l0.3-0.2l0.1-0.3l-0.1-0.4L166.8,143.1 M168,148.4l-0.4-0.2
	l-0.6-0.1l-0.5,0.1l-0.5,0.2l-0.3,0.2l-0.1,0.4l0.1,0.3l0.3,0.2l0.5,0.2l0.5,0.1l0.6-0.1l0.4-0.2l0.3-0.2l0.1-0.3l-0.1-0.4
	L168,148.4 M171.6,153.3l-0.5-0.2h-0.6H170l-0.5,0.2l-0.3,0.3l-0.1,0.3l0.1,0.3l0.3,0.3l0.5,0.1l0.5,0.1l0.6-0.1l0.5-0.1l0.3-0.3
	l0.1-0.3l-0.1-0.3L171.6,153.3 M178.3,164.4l-0.5-0.2l-0.5-0.1l-0.5,0.1l-0.5,0.2l-0.3,0.2l-0.1,0.3l0.1,0.3l0.3,0.3l0.5,0.2
	l0.5,0.1l0.5-0.1l0.5-0.2l0.3-0.3l0.1-0.3l-0.1-0.3L178.3,164.4 M186.5,166.8l-0.5-0.2l-0.5-0.1l-0.6,0.1l-0.4,0.2l-0.3,0.2
	l-0.1,0.3l0.1,0.4l0.3,0.2l0.4,0.2l0.6,0.1l0.5-0.1l0.5-0.2l0.3-0.2l0.1-0.4l-0.1-0.3L186.5,166.8 M195.4,168.1l-0.5-0.1l-0.5-0.1
	l-0.6,0.1l-0.4,0.1l-0.3,0.3l-0.2,0.3l0.2,0.3l0.3,0.3l0.4,0.2h0.6h0.5l0.5-0.2l0.3-0.3l0.1-0.3l-0.1-0.3L195.4,168.1 M204.5,168.4
	l-0.4-0.2h-0.6H203l-0.5,0.2l-0.3,0.3l-0.1,0.3l0.1,0.3l0.3,0.3l0.5,0.1l0.5,0.1l0.6-0.1l0.4-0.1l0.3-0.3l0.2-0.3l-0.2-0.3
	L204.5,168.4 M213.6,167.6l-0.5-0.2l-0.5-0.1l-0.5,0.1l-0.5,0.2l-0.3,0.2l-0.1,0.4l0.1,0.3l0.3,0.2l0.5,0.2l0.5,0.1l0.5-0.1l0.5-0.2
	l0.3-0.2l0.1-0.3l-0.1-0.4L213.6,167.6 M222.2,165.7l-0.5-0.2l-0.5-0.1l-0.6,0.1l-0.4,0.2l-0.3,0.2l-0.1,0.4l0.1,0.3l0.3,0.2
	l0.4,0.2l0.6,0.1l0.5-0.1l0.5-0.2l0.3-0.2l0.1-0.3l-0.1-0.4L222.2,165.7 M229.9,162.8l-0.5-0.2h-0.5h-0.6l-0.4,0.2l-0.3,0.3
	l-0.1,0.3l0.1,0.3l0.3,0.3l0.4,0.1l0.6,0.1l0.5-0.1l0.5-0.1l0.3-0.3l0.1-0.3l-0.1-0.3L229.9,162.8 M236.4,159l-0.5-0.1l-0.5-0.1
	l-0.6,0.1l-0.4,0.1l-0.3,0.3l-0.1,0.3l0.1,0.3l0.3,0.3l0.4,0.2h0.6h0.5l0.5-0.2l0.3-0.3l0.1-0.3l-0.1-0.3L236.4,159 M241.4,154.6
	l-0.5-0.2h-0.5h-0.6l-0.4,0.2l-0.3,0.3l-0.1,0.3l0.1,0.3l0.3,0.3l0.4,0.1l0.6,0.1l0.5-0.1l0.5-0.1l0.3-0.3l0.1-0.3l-0.1-0.3
	L241.4,154.6 M244.7,149.6l-0.5-0.1l-0.5-0.1l-0.6,0.1l-0.4,0.1l-0.3,0.3l-0.1,0.3l0.1,0.3l0.3,0.3l0.4,0.2h0.6h0.5l0.5-0.2l0.3-0.3
	l0.1-0.3l-0.1-0.3L244.7,149.6 M246.1,144.4l-0.4-0.2h-0.6h-0.5l-0.5,0.2l-0.3,0.3l-0.1,0.3l0.1,0.3l0.3,0.3l0.5,0.1l0.5,0.1
	l0.6-0.1l0.4-0.1l0.3-0.3l0.1-0.3l-0.1-0.3L246.1,144.4 M245.6,139.1l-0.4-0.2h-0.6h-0.5l-0.5,0.2l-0.3,0.3l-0.1,0.3l0.1,0.3
	l0.3,0.3l0.5,0.1l0.5,0.1l0.6-0.1l0.4-0.1l0.3-0.3l0.1-0.3l-0.1-0.3L245.6,139.1 M243.3,134l-0.5-0.2h-0.5h-0.6l-0.4,0.2l-0.4,0.3
	l-0.1,0.3l0.1,0.3l0.4,0.3l0.4,0.1l0.6,0.1l0.5-0.1l0.5-0.1l0.3-0.3l0.1-0.3l-0.1-0.3L243.3,134 M239.1,129.3l-0.5-0.2l-0.5-0.1
	l-0.6,0.1l-0.4,0.2l-0.3,0.2l-0.1,0.3l0.1,0.4l0.3,0.2l0.4,0.2l0.6,0.1l0.5-0.1l0.5-0.2l0.3-0.2l0.1-0.4l-0.1-0.3L239.1,129.3
	 M233.3,125.1l-0.5-0.1l-0.5-0.1l-0.5,0.1l-0.5,0.1l-0.3,0.3l-0.1,0.3l0.1,0.3l0.3,0.3l0.5,0.2h0.5h0.5l0.5-0.2l0.3-0.3l0.1-0.3
	l-0.1-0.3L233.3,125.1 M226.2,121.8l-0.5-0.2h-0.5h-0.6l-0.4,0.2l-0.3,0.3l-0.2,0.3l0.2,0.3l0.3,0.3l0.4,0.1l0.6,0.1l0.5-0.1
	l0.5-0.1l0.3-0.3l0.1-0.3l-0.1-0.3L226.2,121.8 M218,119.4l-0.5-0.2H217h-0.6l-0.4,0.2l-0.3,0.3l-0.1,0.3l0.1,0.3l0.3,0.3l0.4,0.1
	l0.6,0.1l0.5-0.1l0.5-0.1l0.3-0.3l0.1-0.3l-0.1-0.3L218,119.4 M209.1,118l-0.4-0.1l-0.6-0.1l-0.5,0.1l-0.5,0.1l-0.3,0.3l-0.1,0.3
	l0.1,0.3l0.3,0.3l0.5,0.2h0.5h0.6l0.4-0.2l0.3-0.3l0.1-0.3l-0.1-0.3L209.1,118 M199.9,117.8l-0.4-0.2l-0.6-0.1l-0.5,0.1l-0.5,0.2
	l-0.3,0.2l-0.1,0.3l0.1,0.3l0.3,0.3l0.5,0.2l0.5,0.1l0.6-0.1l0.4-0.2l0.3-0.3l0.2-0.3l-0.2-0.3L199.9,117.8 M190.9,118.6l-0.5-0.2
	l-0.5-0.1l-0.6,0.1l-0.4,0.2l-0.3,0.2l-0.2,0.4l0.2,0.3l0.3,0.2l0.4,0.2l0.6,0.1l0.5-0.1l0.5-0.2l0.3-0.2l0.1-0.3l-0.1-0.4
	L190.9,118.6 M182.3,120.5l-0.5-0.2l-0.5-0.1l-0.6,0.1l-0.4,0.2l-0.3,0.2l-0.1,0.4l0.1,0.3l0.3,0.2l0.4,0.2l0.6,0.1l0.5-0.1l0.5-0.2
	l0.3-0.2l0.1-0.3l-0.1-0.4L182.3,120.5 M174.6,123.4l-0.5-0.2l-0.5-0.1l-0.6,0.1l-0.4,0.2l-0.3,0.2l-0.1,0.4l0.1,0.3l0.3,0.2
	l0.4,0.2l0.6,0.1l0.5-0.1l0.5-0.2l0.3-0.2l0.1-0.3l-0.1-0.4L174.6,123.4 M168.1,127.1l-0.5-0.2h-0.5h-0.6l-0.4,0.2l-0.3,0.3
	l-0.1,0.3l0.1,0.3l0.3,0.3l0.4,0.2h0.6h0.5l0.5-0.2l0.3-0.3l0.1-0.3l-0.1-0.3L168.1,127.1 M163.1,131.6l-0.5-0.2l-0.5-0.1l-0.6,0.1
	l-0.4,0.2l-0.3,0.2l-0.1,0.3l0.1,0.4l0.3,0.2l0.4,0.2l0.6,0.1l0.5-0.1l0.5-0.2l0.3-0.2l0.1-0.4l-0.1-0.3L163.1,131.6 M159.8,136.5
	l-0.5-0.2h-0.5h-0.5l-0.5,0.2l-0.3,0.3l-0.1,0.3l0.1,0.3l0.3,0.3l0.5,0.2h0.5h0.5l0.5-0.2l0.3-0.3l0.1-0.3l-0.1-0.3L159.8,136.5
	 M158.4,141.8l-0.5-0.2l-0.5-0.1l-0.6,0.1l-0.4,0.2L156,142l-0.1,0.3l0.1,0.3l0.4,0.3l0.4,0.2l0.6,0.1l0.5-0.1l0.5-0.2l0.3-0.3
	l0.1-0.3l-0.1-0.3L158.4,141.8 M158.8,147.1l-0.4-0.2l-0.6-0.1l-0.5,0.1l-0.5,0.2l-0.3,0.2l-0.1,0.3l0.1,0.3l0.3,0.3l0.5,0.2h0.5
	h0.6l0.4-0.2l0.3-0.3l0.2-0.3l-0.2-0.3L158.8,147.1 M161.2,152.2l-0.4-0.2l-0.6-0.1l-0.5,0.1l-0.5,0.2l-0.3,0.2l-0.1,0.4l0.1,0.3
	l0.3,0.2l0.5,0.2l0.5,0.1l0.6-0.1l0.4-0.2l0.3-0.2l0.1-0.3l-0.1-0.4L161.2,152.2 M165.4,156.9l-0.5-0.2h-0.5h-0.6l-0.4,0.2l-0.3,0.3
	l-0.1,0.3l0.1,0.3l0.3,0.3l0.4,0.1l0.6,0.1l0.5-0.1l0.5-0.1l0.3-0.3l0.1-0.3l-0.1-0.3L165.4,156.9 M183.2,154.1l-0.5-0.2l-0.5-0.1
	l-0.5,0.1l-0.5,0.2l-0.3,0.2l-0.1,0.4l0.1,0.3l0.3,0.2l0.5,0.2l0.5,0.1l0.5-0.1l0.5-0.2l0.3-0.2l0.1-0.3l-0.1-0.4L183.2,154.1
	 M177.2,157.5l-0.5-0.1l-0.5-0.1l-0.6,0.1l-0.4,0.1l-0.3,0.3l-0.1,0.3l0.1,0.3l0.3,0.3l0.4,0.2h0.6h0.5l0.5-0.2l0.3-0.3l0.1-0.3
	l-0.1-0.3L177.2,157.5 M171.2,161l-0.5-0.2h-0.5h-0.6l-0.4,0.2l-0.3,0.3l-0.1,0.3l0.1,0.3l0.3,0.3l0.4,0.2h0.6h0.5l0.5-0.2l0.3-0.3
	l0.1-0.3l-0.1-0.3L171.2,161 M159.9,190.3l25-14.4 M184.9,175.9l6,0.8l6.1,0.4l6.1,0.1l6.1-0.3l6.1-0.7l5.8-1l5.7-1.4l5.3-1.7l5-2.1
	l4.7-2.3l4.1-2.6l3.7-2.8l3.1-3.1l2.6-3.2l1.9-3.4l1.4-3.4l0.6-3.5l0.1-3.6l-0.6-3.5l-1.3-3.5l-1.8-3.3l-2.5-3.3l-3.1-3.1l-3.6-2.8
	l-4.1-2.7l-4.5-2.3l-5-2.1l-5.3-1.8l-5.6-1.4l-5.9-1.1l-6-0.7l-6.1-0.3h-6.1l-6.1,0.4l-6,0.7l-5.8,1.2l-5.6,1.4l-5.3,1.8l-4.9,2.2
	l-4.5,2.4l-4,2.6l-3.6,2.9l-3,3.1l-2.4,3.3l-1.8,3.4l-1.1,3.4l-0.5,3.6l0.1,3.5l0.8,3.5l1.4,3.5 M145.5,153.1l-25,14.4 M114,221.8
	l0.2,0.2 M158.8,248.5l-0.3-0.2 M120.5,167.5l3.4,3.6l4,3.4l4.4,3.2l4.8,3l5.2,2.8l5.6,2.5l5.9,2.3l6.1,2 M167.4,212.4l-1.5,10
	l-0.3,6.8l0.4,6.4 M166,235.6l1,7l0.3,2.4v2.1l-0.7,1.7l-0.7,0.6 M165.9,249.4l7.1,1.6l7.3,1.2l7.5,0.8l7.5,0.4l7.6,0.2l7.6-0.3
	l7.5-0.6l7.4-1l7.2-1.4l7-1.6l6.8-2.1l6.4-2.3l6-2.6l5.7-2.9l5.2-3.2l4.8-3.4l4.2-3.7l3.7-3.8l3.1-4l2.6-4.1l0.8-1.6 M180.6,197.7
	l-4.7,2.7 M175.9,200.4l-0.4,0.4l-2.3,1.9l-2.1,2.4l-2.8,4.7l-0.9,2.6 M174.3,170.4l-3-1.1l-2.9-1.2l-2.7-1.3l-2.5-1.4l-2.5-1.5
	l-2.2-1.5l-2-1.7l-1.9-1.7 M154.6,159l-2.5,0.8 M172.9,171.8l1.4-1.4 M152.1,160l2,1.8l2.2,1.8l2.3,1.6l2.5,1.6l2.8,1.5l2.8,1.3
	l3,1.3l3.2,1.1 M172.9,171.8v0.2 M152.1,159.8l2,1.8l2.2,1.8l2.3,1.6l2.5,1.6l2.8,1.4l2.8,1.4l3,1.2l3.2,1.2 M152.1,159.8v0.2
	 M172.9,172l3.3,1l3.3,0.9l3.5,0.8l3.6,0.6l3.6,0.5l3.6,0.3l3.7,0.2l3.7,0.1 M201.2,176.2v0.2 M172.9,171.8v0.2 M201.2,174.5h-3.5
	l-3.5-0.2l-3.5-0.4l-3.4-0.4l-3.4-0.6l-3.3-0.7l-3.2-0.9l-3.1-0.9 M174.3,170.4l-1.4,1.4 M172.9,171.8l3.3,1l3.3,0.9l3.5,0.7
	l3.6,0.6l3.6,0.5l3.6,0.4l3.7,0.2l3.7,0.1 M201.2,176.2v-1.7 M201.2,176.4l3.7-0.1l3.7-0.2l3.7-0.3l3.6-0.5l3.6-0.6l3.4-0.8l3.4-0.9
	l3.3-1 M229.6,171.8v0.2 M201.2,176.2v0.2 M228.2,170.4l-3.1,0.9l-3.3,0.9l-3.3,0.7l-3.3,0.6l-3.5,0.4l-3.4,0.4l-3.5,0.2h-3.6
	 M201.2,174.5v1.7 M201.2,176.2l3.7-0.1l3.7-0.2l3.7-0.4l3.6-0.5l3.6-0.6l3.4-0.7l3.4-0.9l3.3-1 M229.6,171.8l-1.4-1.4 M229.6,172
	l3.1-1.1l3-1.3l2.9-1.3l2.7-1.5l2.6-1.6l2.3-1.6l2.2-1.8l1.9-1.8 M250.3,159.8v0.2 M229.6,171.8v0.2 M247.9,159l-1.9,1.7l-2,1.7
	l-2.3,1.5l-2.4,1.5l-2.6,1.4l-2.7,1.3l-2.8,1.2l-3,1.1 M228.2,170.4l1.4,1.4 M229.6,171.8l3.1-1.2l3-1.2l2.9-1.4l2.7-1.4l2.6-1.6
	l2.3-1.6l2.2-1.8l1.9-1.8 M250.3,159.8l-2.4-0.8 M250.3,160l1.8-1.9l1.5-1.9l1.3-2l1.1-2.1l0.8-2.1l0.6-2.1l0.4-2.1l0.1-2.1
	 M257.9,143.4v0.3 M250.3,159.8v0.2 M255.1,143.4l-0.1,2.1l-0.4,2l-0.5,2l-0.8,2l-1.1,1.9l-1.2,1.9l-1.5,1.9l-1.6,1.8 M247.9,159
	l2.4,0.8 M250.3,159.8l1.8-1.9l1.5-1.9l1.3-2l1.1-2.1l0.8-2.1l0.6-2.1l0.4-2.1l0.1-2.2 M257.9,143.4h-2.8 M247.9,128.1l1.6,1.8
	l1.5,1.9l1.2,1.9l1.1,1.9l0.8,2l0.5,2l0.4,2l0.1,2.1 M247.9,127.9v0.2 M247.9,127.9l1.6,1.8l1.5,1.8l1.2,1.9l1.1,2l0.8,2l0.5,2
	l0.4,2l0.1,2 M257.9,143.4l-0.1-2.1l-0.4-2.1l-0.6-2.2l-0.8-2l-1.1-2.1l-1.3-2l-1.5-1.9l-1.8-1.9 M250.3,127.1l-2.4,0.8
	 M257.9,143.4v0.3 M255.1,143.4h2.8 M228.2,116.7l3,1.1l2.8,1.2l2.7,1.3l2.6,1.4l2.4,1.5l2.3,1.5l2,1.7l1.9,1.7 M228.2,116.5v0.2
	 M228.2,116.5l3,1.1l2.8,1.2l2.7,1.3l2.6,1.3l2.4,1.5l2.3,1.6l2,1.7l1.9,1.7 M247.9,127.9l2.4-0.8 M250.3,127.1l-1.9-1.9l-2.2-1.7
	l-2.3-1.6l-2.6-1.6l-2.7-1.5l-2.9-1.3l-3-1.3l-3.1-1.1 M229.6,115.1l-1.4,1.4 M201.2,112.6h3.6l3.5,0.2l3.4,0.4l3.5,0.4l3.3,0.6
	l3.3,0.7l3.3,0.9l3.1,0.9 M228.2,116.5v0.2 M201.2,112.3v0.3 M201.2,112.3l3.6,0.1l3.5,0.2l3.4,0.3l3.5,0.5l3.3,0.6l3.3,0.7l3.3,0.8
	l3.1,1 M228.2,116.5l1.4-1.4 M229.6,115.1l-3.3-1l-3.4-0.9l-3.4-0.8l-3.6-0.6l-3.6-0.5l-3.7-0.3l-3.7-0.2l-3.7-0.1 M201.2,110.7v1.6
	 M201.2,112.3v-1.6 M201.2,110.7l-3.7,0.1l-3.7,0.2l-3.6,0.3l-3.6,0.5l-3.6,0.6l-3.5,0.8l-3.3,0.9l-3.3,1 M172.9,115.1l1.4,1.4
	 M174.3,116.7l3.1-0.9l3.2-0.9l3.3-0.7l3.4-0.6l3.4-0.4l3.5-0.4l3.5-0.2h3.5 M201.2,112.3v0.3 M174.3,116.5l3.1-1l3.2-0.8l3.3-0.7
	l3.4-0.6l3.4-0.5l3.5-0.3l3.5-0.2l3.5-0.1 M174.3,116.5v0.2 M154.6,128.1l1.9-1.7l2-1.7l2.2-1.5l2.5-1.5l2.5-1.4l2.7-1.3l2.9-1.2
	l3-1.1 M174.3,116.5v0.2 M154.6,127.9l1.9-1.7l2-1.7l2.2-1.6l2.5-1.5l2.5-1.3l2.7-1.3l2.9-1.2l3-1.1 M174.3,116.5l-1.4-1.4
	 M172.9,115.1l-3.2,1.1l-3,1.3l-2.8,1.3l-2.8,1.5l-2.5,1.6l-2.3,1.6l-2.2,1.7l-2,1.9 M152.1,127.1l2.5,0.8 M147.4,143.7l0.1-2.1
	l0.3-2l0.6-2l0.8-2l1-1.9l1.3-1.9l1.4-1.9l1.7-1.8 M154.6,127.9v0.2 M147.4,143.4l0.1-2l0.3-2l0.6-2l0.8-2l1-2l1.3-1.9l1.4-1.8
	l1.7-1.8 M154.6,127.9l-2.5-0.8 M152.1,127.1l-1.7,1.9l-1.5,1.9l-1.3,2l-1.1,2.1l-0.9,2l-0.6,2.2l-0.3,2.1l-0.2,2.1 M144.5,143.4
	h2.9 M144.5,143.4v0.3 M144.5,143.7l0.2,2.1l0.3,2.1l0.6,2.1l0.9,2.1l1.1,2.1l1.3,2l1.5,1.9l1.7,1.9 M144.5,143.4v0.3 M154.6,159
	l-1.7-1.8l-1.4-1.9l-1.3-1.9l-1-1.9l-0.8-2l-0.6-2l-0.3-2l-0.1-2.1 M147.4,143.4h-2.9 M144.5,143.4l0.2,2.2l0.3,2.1l0.6,2.1l0.9,2.1
	l1.1,2.1l1.3,2l1.5,1.9l1.7,1.9 M152.1,159.8l2.5-0.8 M152.1,159.8v0.2 M578.9,134.8l-1-0.5l-1.9-0.5l-2-0.2l-2.1,0.3l-1.9,0.7
	l-1.5,0.9l-0.6,0.7 M580.7,136.3l-0.6-0.6l-1.2-0.9 M564.3,138v3.2 M584.2,141.2V138 M484,257.7l15.5-8.9 M436.4,178.3l-0.2,0.3
	l-1.4,2.3l-1,1.9l-1.5,3.6l-1.3,3.8l-1.2,4.1l-1.2,5.1l-1.1,6.3l-0.7,6l-0.2,5.6l0.3,5.4l0.5,3.3l0.8,2.8l1.1,2.4l1.4,2l0.3,0.4
	 M493.1,247.7l4.9,0.9l7.1,1l7.3,0.6l7.3,0.3l7.3-0.1l7.3-0.4l7.2-0.8l7.1-1.1l6.9-1.4l6.8-1.8l6.6-2.1l6.3-2.5l6-2.8l5.6-3.1
	l5.3-3.4l4.9-3.7l4.4-4.1l3.9-4.2l3.4-4.5l2.7-4.6l2.2-4.8l0.9-3.1 M474.9,259.1l0.7,0.2l2.2,0.3l2.3-0.3l2.2-0.7l1.6-0.7l0.1-0.1
	 M431.1,233.7l0.5,0.5l4.2,4.1l4.7,3.8l5,3.6l5.3,3.2l5.6,3l5.8,2.7l6.1,2.4l6.3,2.1l0.3,0.1 M434.3,139.5l-1.8,3.8l-2.4,6.6l-2,6.6
	l-1.4,6.8l-0.8,6.9l-0.3,6.9l0.2,6.9l0.9,6.9l1.4,6.8l0.5,1.9 M614.6,202l1.2-4.1l1.4-6.8l0.8-6.8l0.3-6.9l-0.3-6.9l-0.8-6.9
	l-1.4-6.8l-1.9-6.8l-2.5-6.6l-1.8-4 M161.9,248.8L161.9,248.8l1.3,0.1l0.2,0.1 M141.8,152.9l-24.7,14.3 M117,167.2l-0.2,0.1
	l-1.8,1.3l-2,1.8l-1.8,2.3l-1.6,2.5l-1,2.4l-0.9,2.7l-0.8,3.2l-0.6,3.3l-0.3,3.5l-0.1,4l0.2,5.1l0.7,5l1,4.8l1.3,4l1.4,3.6l1.4,2.6
	l1.7,2.3l0.3,0.3 M260,136.3l-0.7-1.4l-2-3.3l-2.5-3.2l-3.1-3l-3.6-2.8l-4-2.6l-4.4-2.3l-4.7-2.1l-5.1-1.8l-5.3-1.5l-5.5-1.1
	l-5.7-0.9l-5.9-0.5l-5.8-0.2l-5.9,0.1l-5.8,0.5l-5.7,0.8l-5.6,1.1l-5.4,1.5l-5.1,1.7l-4.8,2.1l-4.4,2.3l-4.1,2.5l-3.7,2.8l-3.1,3.1
	l-2.7,3.2l-2.1,3.3l-0.7,1.5 M158.5,248.2l1.3,0.3l1.8,0.1h0.2 M114,222.1l0.1,0.1l3.9,4l4.5,4l4.9,3.7l5.2,3.4l5.4,3l5.7,2.7
	l5.8,2.4l6.1,2.1l3.2,0.9 M288.9,215l1.7-3.9l2.5-6.5l2-6.7l1.4-6.8l0.8-6.8l0.3-6.9l-0.3-6.9l-0.8-6.9l-1.4-6.8l-1.3-4.4
	 M108.6,152.4l-1.2,4.1l-1.4,6.8l-0.8,6.9l-0.3,6.9l0.2,6.9l0.9,6.9v0.2 M293.8,152.2l-0.4-1.4l-1.9-4.5l-2.4-4.5l-2.9-4.3l-3.4-4.2
	l-4-3.9l-4.5-3.8l-4.9-3.5l-5.4-3.3l-5.7-3l-6.1-2.6l-6.4-2.3l-6.7-2l-6.8-1.7l-7-1.3l-7.2-1l-7.2-0.6l-7.3-0.3h-7.4l-7.2,0.5
	l-7.3,0.7l-7.1,1.1l-6.9,1.5l-6.8,1.8l-6.6,2.1l-6.3,2.4l-6,2.8l-5.6,3.1l-5.3,3.4l-4.9,3.8l-4.4,4l-3.9,4.2l-3.4,4.5l-2.7,4.7
	l-2.2,4.7l-0.9,3"/>
<g>
	<path d="M80.8,79.7c0.5,0.3,1.2,0.5,1.9,0.5c1.1,0,1.7-0.6,1.7-1.4c0-0.8-0.4-1.2-1.5-1.6c-1.3-0.5-2.1-1.2-2.1-2.3
		c0-1.3,1-2.2,2.6-2.2c0.8,0,1.4,0.2,1.8,0.4L84.8,74c-0.3-0.1-0.8-0.4-1.5-0.4c-1.1,0-1.5,0.7-1.5,1.2c0,0.8,0.5,1.1,1.6,1.6
		c1.4,0.5,2.1,1.2,2.1,2.4c0,1.2-0.9,2.3-2.8,2.3c-0.8,0-1.6-0.2-2.1-0.5L80.8,79.7z"/>
	<path d="M86.8,77.1c0-0.7,0-1.3,0-1.9h0.9l0,1h0c0.4-0.7,1.1-1.1,2.1-1.1c1.4,0,2.5,1.2,2.5,3c0,2.1-1.3,3.1-2.6,3.1
		c-0.8,0-1.4-0.3-1.8-0.9h0v3.2h-1V77.1z M87.8,78.6c0,0.2,0,0.3,0,0.4c0.2,0.7,0.8,1.2,1.6,1.2c1.1,0,1.8-0.9,1.8-2.2
		c0-1.2-0.6-2.2-1.7-2.2c-0.7,0-1.4,0.5-1.6,1.3c0,0.1-0.1,0.3-0.1,0.4V78.6z"/>
	<path d="M94.2,78.3c0,1.4,0.9,2,2,2c0.8,0,1.2-0.1,1.6-0.3l0.2,0.8c-0.4,0.2-1,0.4-1.9,0.4c-1.8,0-2.9-1.2-2.9-2.9s1-3.1,2.7-3.1
		c1.9,0,2.4,1.7,2.4,2.7c0,0.2,0,0.4,0,0.5H94.2z M97.3,77.5c0-0.7-0.3-1.7-1.5-1.7c-1.1,0-1.5,1-1.6,1.7H97.3z"/>
	<path d="M102.8,81l-0.1-0.7h0c-0.3,0.5-0.9,0.9-1.8,0.9c-1.2,0-1.8-0.8-1.8-1.7c0-1.4,1.2-2.2,3.5-2.2v-0.1c0-0.5-0.1-1.3-1.3-1.3
		c-0.5,0-1.1,0.2-1.5,0.4l-0.2-0.7c0.5-0.3,1.2-0.5,1.9-0.5c1.8,0,2.2,1.2,2.2,2.4v2.2c0,0.5,0,1,0.1,1.4H102.8z M102.7,78
		c-1.2,0-2.5,0.2-2.5,1.3c0,0.7,0.5,1,1,1c0.8,0,1.2-0.5,1.4-1c0-0.1,0.1-0.2,0.1-0.3V78z"/>
	<path d="M106.5,77.9L106.5,77.9c0.2-0.2,0.4-0.5,0.5-0.7l1.7-2h1.3l-2.2,2.4l2.6,3.4H109l-2-2.8l-0.5,0.6V81h-1v-8.5h1V77.9z"/>
	<path d="M111.6,78.3c0,1.4,0.9,2,2,2c0.8,0,1.2-0.1,1.6-0.3l0.2,0.8c-0.4,0.2-1,0.4-1.9,0.4c-1.8,0-2.9-1.2-2.9-2.9s1-3.1,2.7-3.1
		c1.9,0,2.4,1.7,2.4,2.7c0,0.2,0,0.4,0,0.5H111.6z M114.7,77.5c0-0.7-0.3-1.7-1.5-1.7c-1.1,0-1.5,1-1.6,1.7H114.7z"/>
	<path d="M117.1,77c0-0.7,0-1.3,0-1.8h0.9l0,1.1h0c0.3-0.8,0.9-1.3,1.6-1.3c0.1,0,0.2,0,0.3,0v1c-0.1,0-0.2,0-0.4,0
		c-0.7,0-1.3,0.6-1.4,1.4c0,0.1,0,0.3,0,0.5V81h-1V77z"/>
</g>
<g>
	<path d="M233.9,47.9h1v7.2h3.5V56h-4.5V47.9z"/>
	<path d="M243.8,52.2h-3.1v2.9h3.5V56h-4.5v-8.1h4.4v0.9h-3.3v2.6h3.1V52.2z"/>
	<path d="M245.5,48c0.6-0.1,1.4-0.2,2.2-0.2c1.5,0,2.6,0.3,3.3,1c0.7,0.7,1.1,1.6,1.1,2.9c0,1.3-0.4,2.4-1.2,3.1
		c-0.8,0.8-2,1.2-3.6,1.2c-0.7,0-1.4,0-1.9-0.1V48z M246.5,55.2c0.3,0,0.6,0.1,1.1,0.1c2.2,0,3.4-1.2,3.4-3.4c0-1.9-1.1-3.1-3.3-3.1
		c-0.5,0-0.9,0-1.2,0.1V55.2z"/>
	<path d="M256,48c0.5-0.1,1.3-0.2,2-0.2c1.1,0,1.8,0.2,2.3,0.7c0.4,0.4,0.6,0.9,0.6,1.5c0,1.1-0.7,1.8-1.5,2.1v0
		c0.6,0.2,1,0.8,1.2,1.6c0.3,1.1,0.5,1.9,0.6,2.2h-1.1c-0.1-0.2-0.3-0.9-0.5-1.9c-0.2-1.1-0.7-1.5-1.6-1.6h-1V56h-1V48z M257.1,51.7
		h1.1c1.1,0,1.8-0.6,1.8-1.5c0-1-0.8-1.5-1.9-1.5c-0.5,0-0.9,0-1,0.1V51.7z"/>
	<path d="M263.7,48.6c0,0.4-0.3,0.6-0.7,0.6c-0.4,0-0.6-0.3-0.6-0.6c0-0.4,0.3-0.7,0.7-0.7C263.5,47.9,263.7,48.2,263.7,48.6z
		 M262.6,56v-5.8h1.1V56H262.6z"/>
	<path d="M265.4,51.8c0-0.6,0-1.1,0-1.6h0.9l0.1,1h0c0.3-0.6,1-1.1,1.9-1.1c0.8,0,2.1,0.5,2.1,2.5V56h-1.1v-3.3
		c0-0.9-0.3-1.7-1.3-1.7c-0.7,0-1.2,0.5-1.4,1.1c0,0.1-0.1,0.3-0.1,0.5V56h-1.1V51.8z"/>
	<path d="M277,50.2c0,0.4,0,0.9,0,1.6v3.4c0,1.3-0.3,2.1-0.8,2.7c-0.6,0.5-1.4,0.7-2.1,0.7c-0.7,0-1.5-0.2-1.9-0.5l0.3-0.8
		c0.4,0.2,1,0.5,1.7,0.5c1.1,0,1.9-0.6,1.9-2V55h0c-0.3,0.5-0.9,1-1.8,1c-1.4,0-2.5-1.2-2.5-2.8c0-2,1.3-3.1,2.6-3.1
		c1,0,1.6,0.5,1.8,1h0l0-0.9H277z M275.9,52.5c0-0.2,0-0.3-0.1-0.5c-0.2-0.6-0.7-1.1-1.5-1.1c-1,0-1.7,0.9-1.7,2.2
		c0,1.1,0.6,2.1,1.7,2.1c0.6,0,1.2-0.4,1.5-1.1c0.1-0.2,0.1-0.4,0.1-0.6V52.5z"/>
</g>
<g>
	<path d="M589.6,80.7c-0.4,0.2-1.2,0.4-2.1,0.4c-2.3,0-4-1.4-4-4.1c0-2.5,1.7-4.2,4.2-4.2c1,0,1.6,0.2,1.9,0.4l-0.3,0.9
		c-0.4-0.2-1-0.3-1.6-0.3c-1.9,0-3.2,1.2-3.2,3.3c0,2,1.1,3.3,3.1,3.3c0.6,0,1.3-0.1,1.7-0.3L589.6,80.7z"/>
	<path d="M596,78c0,2.1-1.5,3.1-2.9,3.1c-1.6,0-2.8-1.2-2.8-3c0-1.9,1.3-3.1,2.9-3.1C594.8,75.1,596,76.3,596,78z M591.4,78.1
		c0,1.3,0.7,2.2,1.8,2.2c1,0,1.8-0.9,1.8-2.3c0-1-0.5-2.2-1.7-2.2C591.9,75.9,591.4,77,591.4,78.1z"/>
	<path d="M597.3,76.8c0-0.6,0-1.1,0-1.6h0.9l0.1,1h0c0.3-0.6,1-1.1,1.9-1.1c0.8,0,2.1,0.5,2.1,2.5V81h-1.1v-3.3
		c0-0.9-0.3-1.7-1.3-1.7c-0.7,0-1.2,0.5-1.4,1.1c0,0.1-0.1,0.3-0.1,0.5V81h-1.1V76.8z"/>
	<path d="M604,76.8c0-0.6,0-1.1,0-1.6h0.9l0.1,1h0c0.3-0.6,1-1.1,1.9-1.1c0.8,0,2.1,0.5,2.1,2.5V81h-1.1v-3.3c0-0.9-0.3-1.7-1.3-1.7
		c-0.7,0-1.2,0.5-1.4,1.1c0,0.1-0.1,0.3-0.1,0.5V81H604V76.8z"/>
	<path d="M611.2,78.3c0,1.4,0.9,2,2,2c0.8,0,1.2-0.1,1.6-0.3l0.2,0.8c-0.4,0.2-1,0.4-1.9,0.4c-1.8,0-2.9-1.2-2.9-2.9s1-3.1,2.7-3.1
		c1.9,0,2.4,1.7,2.4,2.7c0,0.2,0,0.4,0,0.5H611.2z M614.3,77.5c0-0.7-0.3-1.7-1.5-1.7c-1.1,0-1.5,1-1.6,1.7H614.3z"/>
	<path d="M620.8,80.8c-0.3,0.1-0.9,0.3-1.7,0.3c-1.8,0-2.9-1.2-2.9-3c0-1.8,1.2-3.1,3.1-3.1c0.6,0,1.2,0.2,1.5,0.3l-0.2,0.8
		c-0.3-0.1-0.6-0.3-1.2-0.3c-1.3,0-2.1,1-2.1,2.2c0,1.3,0.9,2.2,2,2.2c0.6,0,1-0.2,1.3-0.3L620.8,80.8z"/>
	<path d="M623.4,73.5v1.7h1.5V76h-1.5v3.1c0,0.7,0.2,1.1,0.8,1.1c0.3,0,0.5,0,0.6-0.1l0,0.8c-0.2,0.1-0.5,0.1-0.9,0.1
		c-0.5,0-0.9-0.2-1.1-0.4c-0.3-0.3-0.4-0.8-0.4-1.5V76h-0.9v-0.8h0.9v-1.4L623.4,73.5z"/>
	<path d="M628.7,73c0.5-0.1,1.2-0.2,1.9-0.2c1,0,1.7,0.2,2.2,0.6c0.4,0.3,0.7,0.8,0.7,1.4c0,0.8-0.5,1.5-1.4,1.8v0
		c0.8,0.2,1.7,0.8,1.7,2c0,0.7-0.3,1.2-0.7,1.6c-0.6,0.5-1.5,0.8-2.8,0.8c-0.7,0-1.3,0-1.6-0.1V73z M629.8,76.3h0.9
		c1.1,0,1.8-0.6,1.8-1.4c0-0.9-0.7-1.3-1.8-1.3c-0.5,0-0.8,0-0.9,0.1V76.3z M629.8,80.2c0.2,0,0.5,0,0.9,0c1.1,0,2.1-0.4,2.1-1.6
		c0-1.1-0.9-1.6-2.1-1.6h-0.9V80.2z"/>
	<path d="M640,79.4c0,0.6,0,1.1,0,1.6h-0.9l-0.1-0.9h0c-0.3,0.5-0.9,1.1-1.9,1.1c-0.9,0-2-0.5-2-2.5v-3.4h1.1v3.2
		c0,1.1,0.3,1.8,1.3,1.8c0.7,0,1.2-0.5,1.4-1c0.1-0.2,0.1-0.3,0.1-0.5v-3.6h1.1V79.4z"/>
	<path d="M643.1,73.5v1.7h1.5V76h-1.5v3.1c0,0.7,0.2,1.1,0.8,1.1c0.3,0,0.5,0,0.6-0.1l0,0.8c-0.2,0.1-0.5,0.1-0.9,0.1
		c-0.5,0-0.9-0.2-1.1-0.4c-0.3-0.3-0.4-0.8-0.4-1.5V76h-0.9v-0.8h0.9v-1.4L643.1,73.5z"/>
	<path d="M647,73.5v1.7h1.5V76H647v3.1c0,0.7,0.2,1.1,0.8,1.1c0.3,0,0.5,0,0.6-0.1l0,0.8c-0.2,0.1-0.5,0.1-0.9,0.1
		c-0.5,0-0.9-0.2-1.1-0.4c-0.3-0.3-0.4-0.8-0.4-1.5V76h-0.9v-0.8h0.9v-1.4L647,73.5z"/>
	<path d="M654.9,78c0,2.1-1.5,3.1-2.9,3.1c-1.6,0-2.8-1.2-2.8-3c0-1.9,1.3-3.1,2.9-3.1C653.8,75.1,654.9,76.3,654.9,78z M650.3,78.1
		c0,1.3,0.7,2.2,1.8,2.2c1,0,1.8-0.9,1.8-2.3c0-1-0.5-2.2-1.7-2.2C650.8,75.9,650.3,77,650.3,78.1z"/>
	<path d="M656.2,76.8c0-0.6,0-1.1,0-1.6h0.9l0.1,1h0c0.3-0.6,1-1.1,1.9-1.1c0.8,0,2.1,0.5,2.1,2.5V81h-1.1v-3.3
		c0-0.9-0.3-1.7-1.3-1.7c-0.7,0-1.2,0.5-1.4,1.1c0,0.1-0.1,0.3-0.1,0.5V81h-1.1V76.8z"/>
</g>
<g>
	<path d="M321.9,92.9c0.5-0.1,1.2-0.2,1.9-0.2c1,0,1.7,0.2,2.2,0.6c0.4,0.3,0.7,0.8,0.7,1.4c0,0.8-0.5,1.5-1.4,1.8v0
		c0.8,0.2,1.7,0.8,1.7,2c0,0.7-0.3,1.2-0.7,1.6c-0.6,0.5-1.5,0.8-2.8,0.8c-0.7,0-1.3,0-1.6-0.1V92.9z M323,96.2h0.9
		c1.1,0,1.8-0.6,1.8-1.4c0-0.9-0.7-1.3-1.8-1.3c-0.5,0-0.8,0-0.9,0.1V96.2z M323,100.1c0.2,0,0.5,0,0.9,0c1.1,0,2.1-0.4,2.1-1.6
		c0-1.1-0.9-1.6-2.1-1.6H323V100.1z"/>
	<path d="M331.6,100.9l-0.1-0.7h0c-0.3,0.5-0.9,0.9-1.8,0.9c-1.2,0-1.8-0.8-1.8-1.7c0-1.4,1.2-2.2,3.5-2.2v-0.1
		c0-0.5-0.1-1.3-1.3-1.3c-0.5,0-1.1,0.2-1.5,0.4l-0.2-0.7c0.5-0.3,1.2-0.5,1.9-0.5c1.8,0,2.2,1.2,2.2,2.4v2.2c0,0.5,0,1,0.1,1.4
		H331.6z M331.4,97.9c-1.2,0-2.5,0.2-2.5,1.3c0,0.7,0.5,1,1,1c0.8,0,1.2-0.5,1.4-1c0-0.1,0.1-0.2,0.1-0.3V97.9z"/>
	<path d="M335.4,93.4v1.7h1.5v0.8h-1.5V99c0,0.7,0.2,1.1,0.8,1.1c0.3,0,0.5,0,0.6-0.1l0,0.8c-0.2,0.1-0.5,0.1-0.9,0.1
		c-0.5,0-0.9-0.2-1.1-0.4c-0.3-0.3-0.4-0.8-0.4-1.5v-3.2h-0.9v-0.8h0.9v-1.4L335.4,93.4z"/>
	<path d="M339.4,93.4v1.7h1.5v0.8h-1.5V99c0,0.7,0.2,1.1,0.8,1.1c0.3,0,0.5,0,0.6-0.1l0,0.8c-0.2,0.1-0.5,0.1-0.9,0.1
		c-0.5,0-0.9-0.2-1.1-0.4c-0.3-0.3-0.4-0.8-0.4-1.5v-3.2h-0.9v-0.8h0.9v-1.4L339.4,93.4z"/>
	<path d="M342.6,98.2c0,1.4,0.9,2,2,2c0.8,0,1.2-0.1,1.6-0.3l0.2,0.8c-0.4,0.2-1,0.4-1.9,0.4c-1.8,0-2.9-1.2-2.9-2.9s1-3.1,2.7-3.1
		c1.9,0,2.4,1.7,2.4,2.7c0,0.2,0,0.4,0,0.5H342.6z M345.7,97.4c0-0.7-0.3-1.7-1.5-1.7c-1.1,0-1.5,1-1.6,1.7H345.7z"/>
	<path d="M348,96.9c0-0.7,0-1.3,0-1.8h0.9l0,1.1h0c0.3-0.8,0.9-1.3,1.6-1.3c0.1,0,0.2,0,0.3,0v1c-0.1,0-0.2,0-0.4,0
		c-0.7,0-1.3,0.6-1.4,1.4c0,0.1,0,0.3,0,0.5v3.1h-1V96.9z"/>
	<path d="M352.6,95.1l1.3,3.4c0.1,0.4,0.3,0.8,0.4,1.2h0c0.1-0.3,0.2-0.8,0.4-1.2l1.2-3.4h1.1l-1.6,4.1c-0.8,2-1.3,3-2,3.6
		c-0.5,0.5-1,0.6-1.3,0.7l-0.3-0.9c0.3-0.1,0.6-0.3,0.9-0.5c0.3-0.2,0.6-0.6,0.9-1.2c0-0.1,0.1-0.2,0.1-0.3c0-0.1,0-0.1-0.1-0.3
		l-2.1-5.3H352.6z"/>
	<path d="M366.1,100.6c-0.4,0.2-1.2,0.4-2.1,0.4c-2.3,0-4-1.4-4-4.1c0-2.5,1.7-4.2,4.2-4.2c1,0,1.6,0.2,1.9,0.4l-0.3,0.9
		c-0.4-0.2-1-0.3-1.6-0.3c-1.9,0-3.2,1.2-3.2,3.3c0,2,1.1,3.3,3.1,3.3c0.6,0,1.3-0.1,1.7-0.3L366.1,100.6z"/>
	<path d="M372.5,97.9c0,2.1-1.5,3.1-2.9,3.1c-1.6,0-2.8-1.2-2.8-3c0-1.9,1.3-3.1,2.9-3.1C371.4,95,372.5,96.2,372.5,97.9z M367.9,98
		c0,1.3,0.7,2.2,1.8,2.2c1,0,1.8-0.9,1.8-2.3c0-1-0.5-2.2-1.7-2.2C368.4,95.8,367.9,96.9,367.9,98z"/>
	<path d="M373.8,96.7c0-0.6,0-1.1,0-1.6h0.9l0,0.9h0c0.3-0.6,0.9-1.1,1.8-1.1c0.8,0,1.4,0.5,1.6,1.2h0c0.2-0.3,0.4-0.6,0.6-0.8
		c0.3-0.3,0.7-0.4,1.3-0.4c0.8,0,1.9,0.5,1.9,2.5v3.4h-1v-3.3c0-1.1-0.4-1.8-1.3-1.8c-0.6,0-1.1,0.4-1.2,1c0,0.1-0.1,0.3-0.1,0.5
		v3.6h-1v-3.5c0-0.9-0.4-1.6-1.2-1.6c-0.7,0-1.1,0.5-1.3,1.1c-0.1,0.2-0.1,0.3-0.1,0.5v3.5h-1V96.7z"/>
	<path d="M383.8,97c0-0.7,0-1.3,0-1.9h0.9l0,1h0c0.4-0.7,1.1-1.1,2.1-1.1c1.4,0,2.5,1.2,2.5,3c0,2.1-1.3,3.1-2.6,3.1
		c-0.8,0-1.4-0.3-1.8-0.9h0v3.2h-1V97z M384.9,98.5c0,0.2,0,0.3,0,0.4c0.2,0.7,0.8,1.2,1.6,1.2c1.1,0,1.8-0.9,1.8-2.2
		c0-1.2-0.6-2.2-1.7-2.2c-0.7,0-1.4,0.5-1.6,1.3c0,0.1-0.1,0.3-0.1,0.4V98.5z"/>
	<path d="M393.9,100.9l-0.1-0.7h0c-0.3,0.5-0.9,0.9-1.8,0.9c-1.2,0-1.8-0.8-1.8-1.7c0-1.4,1.2-2.2,3.5-2.2v-0.1
		c0-0.5-0.1-1.3-1.3-1.3c-0.5,0-1.1,0.2-1.5,0.4l-0.2-0.7c0.5-0.3,1.2-0.5,1.9-0.5c1.8,0,2.2,1.2,2.2,2.4v2.2c0,0.5,0,1,0.1,1.4
		H393.9z M393.7,97.9c-1.2,0-2.5,0.2-2.5,1.3c0,0.7,0.5,1,1,1c0.8,0,1.2-0.5,1.4-1c0-0.1,0.1-0.2,0.1-0.3V97.9z"/>
	<path d="M396.5,96.9c0-0.7,0-1.3,0-1.8h0.9l0,1.1h0c0.3-0.8,0.9-1.3,1.6-1.3c0.1,0,0.2,0,0.3,0v1c-0.1,0-0.2,0-0.4,0
		c-0.7,0-1.3,0.6-1.4,1.4c0,0.1,0,0.3,0,0.5v3.1h-1V96.9z"/>
	<path d="M401.9,93.4v1.7h1.5v0.8h-1.5V99c0,0.7,0.2,1.1,0.8,1.1c0.3,0,0.5,0,0.6-0.1l0,0.8c-0.2,0.1-0.5,0.1-0.9,0.1
		c-0.5,0-0.9-0.2-1.1-0.4c-0.3-0.3-0.4-0.8-0.4-1.5v-3.2H400v-0.8h0.9v-1.4L401.9,93.4z"/>
	<path d="M404.6,96.7c0-0.6,0-1.1,0-1.6h0.9l0,0.9h0c0.3-0.6,0.9-1.1,1.8-1.1c0.8,0,1.4,0.5,1.6,1.2h0c0.2-0.3,0.4-0.6,0.6-0.8
		c0.3-0.3,0.7-0.4,1.3-0.4c0.8,0,1.9,0.5,1.9,2.5v3.4h-1v-3.3c0-1.1-0.4-1.8-1.3-1.8c-0.6,0-1.1,0.4-1.2,1c0,0.1-0.1,0.3-0.1,0.5
		v3.6h-1v-3.5c0-0.9-0.4-1.6-1.2-1.6c-0.7,0-1.1,0.5-1.3,1.1c-0.1,0.2-0.1,0.3-0.1,0.5v3.5h-1V96.7z"/>
	<path d="M415.2,98.2c0,1.4,0.9,2,2,2c0.8,0,1.2-0.1,1.6-0.3l0.2,0.8c-0.4,0.2-1,0.4-1.9,0.4c-1.8,0-2.9-1.2-2.9-2.9s1-3.1,2.7-3.1
		c1.9,0,2.4,1.7,2.4,2.7c0,0.2,0,0.4,0,0.5H415.2z M418.3,97.4c0-0.7-0.3-1.7-1.5-1.7c-1.1,0-1.5,1-1.6,1.7H418.3z"/>
	<path d="M420.7,96.7c0-0.6,0-1.1,0-1.6h0.9l0.1,1h0c0.3-0.6,1-1.1,1.9-1.1c0.8,0,2.1,0.5,2.1,2.5v3.5h-1.1v-3.3
		c0-0.9-0.3-1.7-1.3-1.7c-0.7,0-1.2,0.5-1.4,1.1c0,0.1-0.1,0.3-0.1,0.5v3.5h-1.1V96.7z"/>
	<path d="M428.5,93.4v1.7h1.5v0.8h-1.5V99c0,0.7,0.2,1.1,0.8,1.1c0.3,0,0.5,0,0.6-0.1l0,0.8c-0.2,0.1-0.5,0.1-0.9,0.1
		c-0.5,0-0.9-0.2-1.1-0.4c-0.3-0.3-0.4-0.8-0.4-1.5v-3.2h-0.9v-0.8h0.9v-1.4L428.5,93.4z"/>
</g>
<g>
	<path d="M201.2,283l-0.8,2.5h-1.1l2.7-8.1h1.3l2.8,8.1h-1.1l-0.9-2.5H201.2z M203.9,282.1l-0.8-2.3c-0.2-0.5-0.3-1-0.4-1.5h0
		c-0.1,0.5-0.3,1-0.4,1.5l-0.8,2.3H203.9z"/>
	<path d="M207,284.9c0-0.4,0.3-0.8,0.7-0.8s0.7,0.3,0.7,0.8c0,0.4-0.3,0.8-0.7,0.8C207.3,285.6,207,285.3,207,284.9z"/>
</g>
<g>
	<path d="M521.9,277.5c0.5-0.1,1.2-0.2,1.9-0.2c1,0,1.7,0.2,2.2,0.6c0.4,0.3,0.7,0.8,0.7,1.4c0,0.8-0.5,1.5-1.4,1.8v0
		c0.8,0.2,1.7,0.8,1.7,2c0,0.7-0.3,1.2-0.7,1.6c-0.6,0.5-1.5,0.8-2.8,0.8c-0.7,0-1.3,0-1.6-0.1V277.5z M523,280.8h0.9
		c1.1,0,1.8-0.6,1.8-1.4c0-0.9-0.7-1.3-1.8-1.3c-0.5,0-0.8,0-0.9,0.1V280.8z M523,284.7c0.2,0,0.5,0,0.9,0c1.1,0,2.1-0.4,2.1-1.6
		c0-1.1-0.9-1.6-2.1-1.6H523V284.7z"/>
	<path d="M528,284.9c0-0.4,0.3-0.8,0.7-0.8c0.4,0,0.7,0.3,0.7,0.8c0,0.4-0.3,0.8-0.7,0.8C528.3,285.6,528,285.3,528,284.9z"/>
</g>
<line class="st1" x1="180.3" y1="127.7" x2="102.7" y2="83.7"/>
<line class="st1" x1="250.7" y1="58" x2="259.2" y2="145.7"/>
<line class="st1" x1="509.7" y1="162" x2="386.7" y2="105.7"/>
<line class="st1" x1="574" y1="136.7" x2="624" y2="86.3"/>
</svg>
