<?xml version="1.0" encoding="utf-8"?>
<!-- Generator: Adobe Illustrator 21.0.0, SVG Export Plug-In . SVG Version: 6.00 Build 0)  -->
<svg version="1.1" id="Layer_1" xmlns="http://www.w3.org/2000/svg" xmlns:xlink="http://www.w3.org/1999/xlink" x="0px" y="0px"
	 viewBox="0 0 714 451" style="enable-background:new 0 0 714 451;" xml:space="preserve">
<style type="text/css">
	.st0{fill:none;stroke:#000000;stroke-width:0.709;stroke-linecap:round;stroke-linejoin:round;stroke-miterlimit:10;}
	.st1{fill:none;}
	.st2{fill:none;stroke:#000000;stroke-miterlimit:10;}
</style>
<path class="st0" d="M365.7,72.6L365.7,72.6l0.4-0.2h0.6l0.6,0.1l0.6,0.3 M382.5,52.2l-0.5,1.3l-0.6,2.3l-0.2,2.4l0.3,2.5l0.7,2.3
	 M413,80.8l4.1,0.4l4.1,0.1l4.2-0.1l4.1-0.3l4.1-0.6l3.9-0.8l3.8-1.1l3.5-1.2l3.3-1.5l3-1.6l2.8-1.9l2.3-2l2-2.1l1.7-2.2l1.2-2.3
	l0.8-2.4l0.4-2.4l-0.1-2.4l-0.5-2.4l-0.7-1.9 M438.8,36.3l0.6,0.1l4.3,1.1l4,1.3l3.8,1.5l3.6,1.7l3.2,1.9l3,2l2.6,2.2l2.2,2.3
	l1.8,2.5l1.5,2.5l1,2.6l0.6,2.7l0.2,2.6l-0.3,2.7l-0.6,2.6l-1.1,2.6l-1.5,2.5l-2,2.4l-2.3,2.3l-2.6,2.2l-3,2l-3.3,1.9l-3.6,1.6
	l-3.9,1.5l-4,1.3l-4.3,1l-4.4,0.8l-4.5,0.5l-4.6,0.4h-4.6l-4.6-0.2l-4.5-0.4 M373.2,68.3l-0.5-1.9l-0.3-2.6l0.1-2.7l0.5-2.6l1-2.6
	l1.3-2.6l1.8-2.4l2.2-2.4l2.5-2.2l2.9-2.1l3.2-1.9l3.5-1.7l3.8-1.6l4-1.3l4.2-1.1l1.4-0.3 M395.5,127L395.5,127l0.5-0.2 M367.9,72.8
	L367.9,72.8l-3,1.9l-2.2,2.3l-1.8,3.1l-0.8,2.2l-0.6,2.3l-0.6,4.1l-0.1,3.9l0.7,6.6l1.7,6l1.4,2.7l0.9,1 M393.3,126.7l-0.9-0.5
	l-1.7-2.1l-1.4-2.7l-1.7-5.8l-0.7-6.8l0.1-3.9l0.5-4.1l0.6-2.3l0.7-2.3l1.4-3.3l1.7-2.6l2.3-2.3 M408,93l4.8,0.6l4.7,0.3l4.9,0.1
	l4.8-0.2l4.8-0.4l4.7-0.6l4.5-0.9l4.4-1.1l4.3-1.4l4-1.6l3.7-1.7l3.4-2l3.1-2.1l2.8-2.3l2.4-2.4l2-2.5l1.7-2.7l1.2-2.7l0.7-2.7
	l0.4-2.8l-0.1-2.8l-0.5-2.8l-1-2.7l-1.4-2.7l-1.7-2.5l-2.2-2.5l-2.6-2.4l-2.9-2.2l-3.3-2.1l-3.5-1.8l-3.9-1.7l-4.1-1.5l-4.3-1.3
	l-4.5-1l-4.6-0.8l-4.7-0.6l-4.8-0.3h-4.8l-4.9,0.2l-4.7,0.4l-4.7,0.7l-4.5,1l-4.4,1.1L393,37l-4,1.6l-3.6,1.8l-3.4,2l-3.1,2.2
	l-2.7,2.3l-2.4,2.4l-1.9,2.6l-1.6,2.6l-1.1,2.7l-0.7,2.8l-0.3,2.7l0.2,2.8l0.6,2.8l0.7,2 M483.6,62.8l0.1,0.5l0.6,3l0.2,3.1l-0.3,3
	l-0.7,3l-1.2,3l-1.5,2.9l-2,2.8l-2.4,2.7l-2.8,2.6l-3.1,2.4l-3.5,2.3l-3.8,2.1l-4.1,1.9l-4.3,1.7l-4.6,1.5l-4.8,1.2l-4.9,1l-5.1,0.8
	l-5.2,0.6l-5.2,0.2l-5.3,0.1l-5.2-0.3l-5.2-0.4l-5.1-0.8l-5-0.9 M360.8,77.6l-0.5-1.4l-0.8-3l-0.4-3v-3.1l0.5-3l0.4-1.3
	 M375.2,384.3v-0.1l1.4-2.5l1.8-2.4l2.2-2.3l2.6-2.2l2.9-2.1l3.3-1.8l3.5-1.7l3.8-1.5l4-1.3l4.2-1l4.4-0.8l4.5-0.6l4.5-0.3l4.6-0.1
	l4.6,0.2l4.5,0.5l4.4,0.6l4.3,1l4.2,1.1l3.9,1.4l3.6,1.6l3.4,1.8 M387,410.7l-2.4-1.6l-2.7-2.1l-2.4-2.2l-2-2.4l-1.6-2.5l-1.2-2.6
	l-0.8-2.6l-0.1-0.7 M469.8,394l-0.5,2l-1,2.6l-1.4,2.6l-1.8,2.4l-2.2,2.3l-2.6,2.2l-2.9,2l-0.9,0.6 M455.8,371.8l3.1,1.9l2.8,2.1
	l2.4,2.3l2,2.4l1.6,2.5l0.6,1.3 M423.2,323.5h-0.5l-0.9-0.3l-0.8-0.6l-0.4-1l-0.2-1.3l0.2-1.4l0.4-1.5l0.8-1.5l0.9-1.4l1.1-1.1
	l1.1-0.9l1.2-0.5l1.1-0.1l0.9,0.3l0.7,0.7l0.3,0.4 M416.8,331l-0.5-0.3l-1.1-1.1l-0.8-1.4l-0.6-1.8l-0.2-2l0.1-2.2l0.4-2.3l0.7-2.4
	l0.9-2.4l1.3-2.4l1.4-2.2l1.7-2l1.7-1.7l1.9-1.4l1.8-1.1l1.9-0.7l1.7-0.3l1.7,0.1l1.4,0.5l0.2,0.1 M415.8,329.4L415.8,329.4l1.1,1.1
	l1.3,0.7l1.5,0.3l1.7-0.1l1.7-0.5l1.8-0.8 M435.5,309.9l-0.3-1.7l-0.7-1.6l-1-1.2l-1.2-0.9l-1.4-0.5l-1.6-0.1H429 M442.5,314
	L442.5,314l1.1,1.1l1.4,0.7l1.5,0.3l1.6-0.1l1.8-0.5l1.8-0.9 M462.3,294.4l-0.4-1.6l-0.7-1.6l-0.9-1.2l-1.2-0.9l-1.4-0.5l-1.6-0.1
	h-0.4 M443.5,315.6l-0.4-0.3l-1.2-1.1l-0.8-1.5l-0.5-1.7l-0.3-2l0.1-2.2l0.4-2.4l0.7-2.4l1-2.4l1.2-2.3l1.5-2.2l1.6-2l1.8-1.7
	l1.8-1.5l1.9-1l1.8-0.7l1.8-0.3l1.6,0.1l1.5,0.5l0.1,0.1 M396,126.8h0.3h0.3h0.2l0.3,0.1l0.3,0.1l0.3,0.1l0.3,0.2l0.2,0.1
	 M365.5,72.7l0.2-0.1 M398.2,127.4l-1.2-0.2l-0.5-0.1 M366.3,109.2L366.3,109.2 M382.2,63L382.2,63l0.6-0.1h0.9l0.9,0.3 M405.4,88.6
	l0.1,0.6l0.1,0.7l0.3,0.6l0.3,0.6l0.4,0.6l0.5,0.5l0.4,0.4L408,93 M394.2,119l0.4-0.3l0.5-0.2l0.5-0.1l0.5-0.2l0.5-0.1h0.6h0.5
	l0.6,0.1 M405.4,88.6l7.8-4.5 M413,80.8L413,80.8l-0.8-1l-0.7-0.8l-0.6-0.6 M401.8,91l3.6-2.4 M395.2,102.5l0.4-0.1l0.5-0.1h0.5h0.5
	l0.5,0.1l0.6,0.1l0.5,0.1l0.5,0.2 M401.8,91l0.2,0.5l0.3,0.5l0.3,0.5L403,93l0.4,0.5l0.5,0.5l0.5,0.4l0.5,0.4 M394.2,119l-0.2-3.8
	v-4l0.5-4.3l0.7-4.4 M395.2,102.5l0.7-2.5l1-2.3l1.2-2.2l1.6-2.2l1.8-2l0.3-0.3 M401.8,91l-4.4,2.6 M413.2,84.1l-0.8,2.3l-0.5,2.1
	l-0.4,2.1V91 M382.8,51.5l-0.3,0.7 M461,52.1l-0.2-0.4v-0.1 M413.2,84.1l0.4-1l-0.1-1.1l-0.3-0.9l-0.2-0.3 M411.5,91l-3.5,2
	 M396,126.8l0.2-0.2l0.1-0.8l-0.8-2.4l-1.3-4.4 M397.4,93.6l-1.5,1.2l-1.1,1.2l-0.9,1.9l-1,3.5l-0.5,3.5l-0.1,3.3l0.6,5.7l1.3,5.1
	 M397.4,93.6v-0.8l-0.2-0.8l-0.3-0.8l-0.4-0.8l-0.5-0.8l-0.5-0.6l-0.6-0.6l-0.7-0.4 M414.8,65.9l-0.3-0.1h-0.3h-0.4l-0.3,0.1
	l-0.2,0.2l-0.1,0.2l0.1,0.2l0.2,0.2l0.3,0.1l0.4,0.1l0.3-0.1l0.3-0.1l0.3-0.2v-0.2v-0.2L414.8,65.9 M420.9,66.9l-0.3-0.2h-0.4h-0.4
	l-0.3,0.2l-0.2,0.1v0.2v0.2l0.2,0.2l0.3,0.1l0.4,0.1l0.4-0.1l0.3-0.1l0.2-0.2v-0.2V67L420.9,66.9 M427.1,66.5l-0.3-0.1h-0.4h-0.3
	l-0.4,0.1l-0.2,0.2v0.2v0.2l0.2,0.2l0.4,0.1l0.3,0.1l0.4-0.1l0.3-0.1l0.2-0.2l0.1-0.2l-0.1-0.2L427.1,66.5 M432.7,65l-0.3-0.1h-0.3
	h-0.4l-0.3,0.1l-0.2,0.2l-0.1,0.2l0.1,0.2l0.2,0.2l0.3,0.1h0.4h0.3l0.3-0.1l0.2-0.2l0.1-0.2l-0.1-0.2L432.7,65 M437.1,62.5l-0.3-0.1
	l-0.3-0.1l-0.4,0.1l-0.3,0.1l-0.2,0.1l-0.1,0.3l0.1,0.2l0.2,0.1l0.3,0.2h0.4h0.3l0.3-0.2l0.2-0.1l0.1-0.2l-0.1-0.3L437.1,62.5
	 M439.8,59.2l-0.3-0.1h-0.4h-0.4l-0.3,0.1l-0.2,0.2v0.2v0.2l0.2,0.2l0.3,0.1h0.4h0.4l0.3-0.1l0.2-0.2l0.1-0.2l-0.1-0.2L439.8,59.2
	 M440.3,55.6l-0.3-0.1h-0.3h-0.4l-0.3,0.1l-0.2,0.2l-0.1,0.2l0.1,0.2l0.2,0.2l0.3,0.1l0.4,0.1l0.3-0.1l0.3-0.1l0.2-0.2l0.1-0.2
	l-0.1-0.2L440.3,55.6 M438.7,52.1l-0.3-0.1H438h-0.3l-0.3,0.1l-0.2,0.2l-0.1,0.2l0.1,0.2l0.2,0.2l0.3,0.1l0.3,0.1l0.4-0.1l0.3-0.1
	l0.2-0.2l0.1-0.2l-0.1-0.2L438.7,52.1 M435.1,49.2l-0.3-0.1l-0.3-0.1l-0.4,0.1l-0.3,0.1l-0.2,0.2l-0.1,0.2l0.1,0.2l0.2,0.2l0.3,0.1
	h0.4h0.3l0.3-0.1l0.2-0.2l0.1-0.2l-0.1-0.2L435.1,49.2 M430,47.1l-0.3-0.1h-0.3H429l-0.3,0.1l-0.2,0.2l-0.1,0.2l0.1,0.2l0.2,0.2
	L429,48l0.4,0.1l0.3-0.1l0.3-0.1l0.2-0.2l0.1-0.2l-0.1-0.2L430,47.1 M424,46.2l-0.3-0.1l-0.4-0.1l-0.3,0.1l-0.3,0.1l-0.2,0.2
	l-0.1,0.2l0.1,0.2l0.2,0.2l0.3,0.1h0.3h0.4L424,47l0.2-0.2l0.1-0.2l-0.1-0.2L424,46.2 M417.8,46.5l-0.3-0.1h-0.4h-0.3l-0.3,0.1
	l-0.3,0.2v0.2v0.2l0.3,0.2l0.3,0.1h0.3h0.4l0.3-0.1l0.2-0.2l0.1-0.2l-0.1-0.2L417.8,46.5 M412.1,48l-0.3-0.1h-0.3h-0.4l-0.3,0.1
	l-0.2,0.2l-0.1,0.2l0.1,0.2l0.2,0.2l0.3,0.1l0.4,0.1l0.3-0.1l0.3-0.1l0.2-0.2l0.1-0.2l-0.1-0.2L412.1,48 M407.7,50.6l-0.3-0.1
	l-0.3-0.1l-0.4,0.1l-0.3,0.1l-0.2,0.2l-0.1,0.2l0.1,0.2l0.2,0.2l0.3,0.1h0.4h0.3l0.3-0.1l0.2-0.2L408,51l-0.1-0.2L407.7,50.6
	 M405.1,53.8l-0.3-0.1h-0.4h-0.3l-0.3,0.1l-0.2,0.2l-0.1,0.2l0.1,0.2l0.2,0.2l0.3,0.1l0.3,0.1l0.4-0.1l0.3-0.1l0.2-0.2l0.1-0.2
	l-0.1-0.2L405.1,53.8 M404.6,57.4l-0.4-0.1h-0.3h-0.4l-0.3,0.1l-0.2,0.2l-0.1,0.2L403,58l0.2,0.2l0.3,0.1l0.4,0.1l0.3-0.1l0.4-0.1
	l0.2-0.2v-0.2v-0.2L404.6,57.4 M406.2,60.9l-0.3-0.1l-0.4-0.1l-0.4,0.1l-0.3,0.1l-0.2,0.2v0.2v0.2l0.2,0.2l0.3,0.1h0.4h0.4l0.3-0.1
	l0.2-0.2v-0.2v-0.2L406.2,60.9 M410.6,68.3l-0.3-0.1H410h-0.4l-0.3,0.1l-0.2,0.2l-0.1,0.2l0.1,0.2l0.2,0.2l0.3,0.1l0.4,0.1l0.3-0.1
	l0.3-0.1l0.2-0.2l0.1-0.2l-0.1-0.2L410.6,68.3 M416.3,69.7l-0.3-0.1l-0.3-0.1l-0.4,0.1l-0.3,0.1l-0.2,0.2l-0.1,0.2l0.1,0.2l0.2,0.2
	l0.3,0.1h0.4h0.3l0.3-0.1l0.2-0.2l0.1-0.2l-0.1-0.2L416.3,69.7 M422.4,70.2l-0.3-0.2h-0.3h-0.4l-0.3,0.2l-0.2,0.1l-0.1,0.3l0.1,0.2
	l0.2,0.1l0.3,0.2h0.4h0.3l0.3-0.2l0.2-0.1l0.1-0.2l-0.1-0.3L422.4,70.2 M428.6,69.7l-0.4-0.1l-0.3-0.1l-0.4,0.1l-0.3,0.1l-0.2,0.2
	l-0.1,0.2l0.1,0.2l0.2,0.2l0.3,0.1h0.4h0.3l0.4-0.1l0.2-0.2v-0.2v-0.2L428.6,69.7 M434.2,68.3l-0.3-0.1h-0.3h-0.4l-0.3,0.1l-0.2,0.2
	l-0.1,0.2l0.1,0.2l0.2,0.2l0.3,0.1l0.4,0.1l0.3-0.1l0.3-0.1l0.3-0.2v-0.2v-0.2L434.2,68.3 M439.1,66.2l-0.3-0.1l-0.3-0.1l-0.4,0.1
	l-0.3,0.1l-0.2,0.1l-0.1,0.3l0.1,0.2l0.2,0.1l0.3,0.2h0.4h0.3l0.3-0.2l0.2-0.1l0.1-0.2l-0.1-0.3L439.1,66.2 M442.9,63.3l-0.3-0.1
	h-0.4h-0.3l-0.3,0.1l-0.2,0.2l-0.1,0.2l0.1,0.2l0.2,0.2l0.3,0.1l0.3,0.1l0.4-0.1l0.3-0.1l0.2-0.2l0.1-0.2l-0.1-0.2L442.9,63.3
	 M445.3,60.1l-0.4-0.2h-0.3h-0.4l-0.3,0.2l-0.2,0.1l-0.1,0.2l0.1,0.3l0.2,0.1l0.3,0.1l0.4,0.1l0.3-0.1l0.4-0.1l0.2-0.1v-0.3v-0.2
	L445.3,60.1 M446.1,56.5l-0.3-0.1h-0.4H445l-0.3,0.1l-0.2,0.2l-0.1,0.2l0.1,0.2l0.2,0.2l0.3,0.1l0.4,0.1l0.4-0.1l0.3-0.1l0.2-0.2
	v-0.2v-0.2L446.1,56.5 M445.3,53l-0.4-0.1l-0.3-0.1l-0.4,0.1l-0.3,0.1l-0.2,0.2l-0.1,0.2l0.1,0.2l0.2,0.2l0.3,0.1h0.4h0.3l0.4-0.1
	l0.2-0.2v-0.2v-0.2L445.3,53 M442.9,49.7l-0.3-0.1l-0.4-0.1l-0.3,0.1l-0.3,0.1l-0.2,0.2l-0.1,0.2l0.1,0.2l0.2,0.2l0.3,0.1h0.3h0.4
	l0.3-0.1l0.2-0.2l0.1-0.2l-0.1-0.2L442.9,49.7 M439.1,46.9l-0.3-0.1l-0.3-0.1l-0.4,0.1l-0.3,0.1l-0.2,0.2l-0.1,0.2l0.1,0.2l0.2,0.2
	l0.3,0.1h0.4h0.3l0.3-0.1l0.2-0.2l0.1-0.2l-0.1-0.2L439.1,46.9 M434.2,44.7l-0.3-0.1h-0.3h-0.4l-0.3,0.1l-0.2,0.2l-0.1,0.2l0.1,0.2
	l0.2,0.2l0.3,0.1h0.4h0.3l0.3-0.1l0.3-0.2v-0.2v-0.2L434.2,44.7 M428.6,43.4l-0.4-0.2h-0.3h-0.4l-0.3,0.2l-0.2,0.1l-0.1,0.2L427,44
	l0.2,0.1l0.3,0.1l0.4,0.1l0.3-0.1l0.4-0.1l0.2-0.1v-0.3v-0.2L428.6,43.4 M422.4,42.9l-0.3-0.1l-0.3-0.1l-0.4,0.1l-0.3,0.1l-0.2,0.2
	l-0.1,0.2l0.1,0.2l0.2,0.2l0.3,0.1h0.4h0.3l0.3-0.1l0.2-0.2l0.1-0.2l-0.1-0.2L422.4,42.9 M416.3,43.4l-0.3-0.2h-0.3h-0.4l-0.3,0.2
	l-0.2,0.1l-0.1,0.2l0.1,0.3l0.2,0.1l0.3,0.1l0.4,0.1l0.3-0.1l0.3-0.1l0.2-0.1l0.1-0.3l-0.1-0.2L416.3,43.4 M410.6,44.7l-0.3-0.1H410
	h-0.4l-0.3,0.1l-0.2,0.2l-0.1,0.2l0.1,0.2l0.2,0.2l0.3,0.1h0.4h0.3l0.3-0.1l0.2-0.2l0.1-0.2l-0.1-0.2L410.6,44.7 M405.7,46.9
	l-0.3-0.1l-0.3-0.1l-0.4,0.1l-0.3,0.1l-0.2,0.2l-0.1,0.2l0.1,0.2l0.2,0.2l0.3,0.1h0.4h0.3l0.3-0.1l0.2-0.2l0.1-0.2l-0.1-0.2
	L405.7,46.9 M402,49.7l-0.3-0.1l-0.4-0.1l-0.4,0.1l-0.3,0.1l-0.2,0.2v0.2v0.2l0.2,0.2l0.3,0.1h0.4h0.4l0.3-0.1l0.2-0.2l0.1-0.2
	l-0.1-0.2L402,49.7 M399.6,53l-0.3-0.1l-0.3-0.1l-0.4,0.1l-0.3,0.1l-0.2,0.2l-0.1,0.2l0.1,0.2l0.2,0.2l0.3,0.1h0.4h0.3l0.3-0.1
	l0.2-0.2l0.1-0.2l-0.1-0.2L399.6,53 M398.8,56.5l-0.3-0.1h-0.4h-0.3l-0.3,0.1l-0.2,0.2l-0.1,0.2l0.1,0.2l0.2,0.2l0.3,0.1l0.3,0.1
	l0.4-0.1l0.3-0.1l0.2-0.2l0.1-0.2l-0.1-0.2L398.8,56.5 M399.6,60.1l-0.3-0.2H399h-0.4l-0.3,0.2l-0.2,0.1l-0.1,0.2l0.1,0.3l0.2,0.1
	l0.3,0.1L399,61l0.3-0.1l0.3-0.1l0.2-0.1l0.1-0.3l-0.1-0.2L399.6,60.1 M402,63.3l-0.3-0.1h-0.4h-0.4l-0.3,0.1l-0.2,0.2v0.2v0.2
	l0.2,0.2l0.3,0.1l0.4,0.1l0.4-0.1l0.3-0.1l0.2-0.2l0.1-0.2l-0.1-0.2L402,63.3 M406.5,70.7l-0.3-0.1l-0.4-0.1l-0.3,0.1l-0.4,0.1
	l-0.2,0.2v0.2v0.2l0.2,0.2l0.4,0.1h0.3h0.4l0.3-0.1l0.2-0.2l0.1-0.2l-0.1-0.2L406.5,70.7 M411.9,72.3l-0.3-0.1h-0.3h-0.4l-0.3,0.1
	l-0.2,0.2l-0.1,0.2l0.1,0.2l0.2,0.2l0.3,0.1h0.4h0.3l0.3-0.1l0.2-0.2l0.1-0.2l-0.1-0.2L411.9,72.3 M417.9,73.2l-0.4-0.1h-0.3h-0.4
	l-0.3,0.1l-0.2,0.2l-0.1,0.2l0.1,0.2l0.2,0.2l0.3,0.1l0.4,0.1l0.3-0.1l0.4-0.1l0.2-0.2v-0.2v-0.2L417.9,73.2 M424,73.4l-0.3-0.1
	h-0.4h-0.4l-0.3,0.1l-0.2,0.2v0.2V74l0.2,0.2l0.3,0.1h0.4h0.4l0.3-0.1l0.2-0.2v-0.2v-0.2L424,73.4 M430,72.9l-0.3-0.2h-0.4H429
	l-0.3,0.2l-0.2,0.1l-0.1,0.2l0.1,0.3l0.2,0.1l0.3,0.2h0.3h0.4l0.3-0.2l0.2-0.1l0.1-0.3l-0.1-0.2L430,72.9 M435.7,71.6l-0.3-0.1
	l-0.3-0.1l-0.4,0.1l-0.3,0.1l-0.2,0.2l-0.1,0.2l0.1,0.2l0.2,0.2l0.3,0.1h0.4h0.3l0.3-0.1l0.2-0.2L436,72l-0.1-0.2L435.7,71.6
	 M440.9,69.7l-0.3-0.1l-0.4-0.1l-0.4,0.1l-0.3,0.1l-0.2,0.1v0.3v0.2l0.2,0.1l0.3,0.2h0.4h0.4l0.3-0.2l0.2-0.1v-0.2v-0.3L440.9,69.7
	 M445.2,67.2l-0.3-0.1l-0.4-0.1l-0.3,0.1l-0.3,0.1l-0.2,0.1l-0.1,0.3l0.1,0.2l0.2,0.1l0.3,0.2h0.3h0.4l0.3-0.2l0.2-0.1l0.1-0.2
	l-0.1-0.3L445.2,67.2 M448.5,64.2l-0.3-0.1l-0.3-0.1l-0.4,0.1l-0.3,0.1l-0.2,0.2l-0.1,0.2l0.1,0.2l0.2,0.2l0.3,0.1h0.4h0.3l0.3-0.1
	l0.2-0.2l0.1-0.2l-0.1-0.2L448.5,64.2 M450.7,60.9l-0.3-0.1l-0.3-0.1l-0.4,0.1l-0.3,0.1l-0.2,0.2l-0.1,0.2l0.1,0.2l0.2,0.2l0.3,0.1
	h0.4h0.3l0.3-0.1l0.2-0.2l0.1-0.2l-0.1-0.2L450.7,60.9 M451.7,57.4l-0.3-0.1H451h-0.3l-0.3,0.1l-0.3,0.2v0.2V58l0.3,0.2l0.3,0.1h0.3
	h0.4l0.3-0.1l0.2-0.2l0.1-0.2l-0.1-0.2L451.7,57.4 M451.4,53.9l-0.3-0.1l-0.4-0.1l-0.4,0.1l-0.3,0.1l-0.2,0.2v0.2v0.2l0.2,0.2
	l0.3,0.1h0.4h0.4l0.3-0.1l0.2-0.2v-0.2v-0.2L451.4,53.9 M449.8,50.5l-0.3-0.2h-0.4h-0.3l-0.4,0.2l-0.2,0.1v0.3v0.2l0.2,0.1l0.4,0.2
	h0.3h0.4l0.3-0.2l0.2-0.1l0.1-0.2l-0.1-0.3L449.8,50.5 M447,47.3l-0.3-0.1h-0.4H446l-0.3,0.1l-0.2,0.2l-0.1,0.2l0.1,0.2l0.2,0.2
	l0.3,0.1h0.3h0.4l0.3-0.1l0.2-0.2l0.1-0.2l-0.1-0.2L447,47.3 M443.1,44.6l-0.3-0.1l-0.3-0.1l-0.4,0.1l-0.3,0.1l-0.2,0.1l-0.1,0.3
	l0.1,0.2l0.2,0.1l0.3,0.2h0.4h0.3l0.3-0.2l0.3-0.1V45v-0.3L443.1,44.6 M438.4,42.3l-0.3-0.1h-0.4h-0.3l-0.3,0.1l-0.3,0.2v0.2v0.2
	l0.3,0.2l0.3,0.1l0.3,0.1l0.4-0.1l0.3-0.1l0.2-0.2l0.1-0.2l-0.1-0.2L438.4,42.3 M432.9,40.7l-0.3-0.1h-0.3h-0.4l-0.3,0.1l-0.2,0.2
	l-0.1,0.2l0.1,0.2l0.2,0.2l0.3,0.1l0.4,0.1l0.3-0.1l0.3-0.1l0.2-0.2l0.1-0.2l-0.1-0.2L432.9,40.7 M427,39.8l-0.3-0.1h-0.3H426
	l-0.3,0.1l-0.2,0.2l-0.1,0.2l0.1,0.2l0.2,0.2l0.3,0.1l0.4,0.1l0.3-0.1l0.3-0.1l0.2-0.2l0.1-0.2l-0.1-0.2L427,39.8 M420.9,39.6
	l-0.3-0.1h-0.4h-0.3l-0.3,0.1l-0.2,0.2l-0.1,0.2l0.1,0.2l0.2,0.2l0.3,0.1l0.3,0.1l0.4-0.1l0.3-0.1l0.2-0.2l0.1-0.2l-0.1-0.2
	L420.9,39.6 M414.9,40.2l-0.4-0.1l-0.3-0.1l-0.4,0.1l-0.3,0.1l-0.2,0.2l-0.1,0.2l0.1,0.2l0.2,0.2l0.3,0.1h0.4h0.3l0.4-0.1l0.2-0.2
	v-0.2v-0.2L414.9,40.2 M409.1,41.5l-0.3-0.2h-0.3h-0.4l-0.3,0.2l-0.2,0.1l-0.1,0.2l0.1,0.3l0.2,0.1l0.3,0.2h0.4h0.3l0.3-0.2l0.2-0.1
	l0.1-0.3l-0.1-0.2L409.1,41.5 M404,43.4l-0.3-0.1l-0.4-0.1l-0.3,0.1l-0.3,0.1l-0.2,0.2l-0.1,0.2l0.1,0.2l0.2,0.2l0.3,0.1h0.3h0.4
	l0.3-0.1l0.2-0.2l0.1-0.2l-0.1-0.2L404,43.4 M399.7,45.9l-0.3-0.1l-0.4-0.1l-0.4,0.1l-0.3,0.1l-0.2,0.2v0.2v0.2l0.2,0.2l0.3,0.1h0.4
	h0.4l0.3-0.1l0.2-0.2v-0.2v-0.2L399.7,45.9 M396.3,48.9l-0.3-0.2h-0.3h-0.4l-0.3,0.2l-0.2,0.1l-0.1,0.2l0.1,0.2l0.2,0.2l0.3,0.1
	l0.4,0.1l0.3-0.1l0.3-0.1l0.2-0.2l0.1-0.2l-0.1-0.2L396.3,48.9 M394.1,52.2l-0.3-0.2h-0.3h-0.4l-0.3,0.2l-0.2,0.1l-0.1,0.2l0.1,0.2
	l0.2,0.2l0.3,0.1l0.4,0.1l0.3-0.1l0.3-0.1l0.2-0.2l0.1-0.2l-0.1-0.2L394.1,52.2 M393.2,55.6l-0.3-0.1h-0.4h-0.3l-0.4,0.1l-0.2,0.2
	V56v0.2l0.2,0.2l0.4,0.1l0.3,0.1l0.4-0.1l0.3-0.1l0.2-0.2l0.1-0.2l-0.1-0.2L393.2,55.6 M393.5,59.2l-0.3-0.1l-0.4-0.1l-0.3,0.1
	l-0.3,0.1l-0.2,0.2l-0.1,0.2l0.1,0.2l0.2,0.1l0.3,0.2h0.3h0.4l0.3-0.2l0.2-0.1l0.1-0.2l-0.1-0.2L393.5,59.2 M395.1,62.6l-0.3-0.1
	l-0.4-0.1l-0.3,0.1l-0.3,0.1l-0.3,0.2V63v0.2l0.3,0.2l0.3,0.1h0.3h0.4l0.3-0.1l0.2-0.2l0.1-0.2l-0.1-0.2L395.1,62.6 M397.9,65.7
	l-0.3-0.1h-0.4h-0.4l-0.3,0.1l-0.2,0.2v0.2v0.2l0.2,0.2l0.3,0.1l0.4,0.1l0.4-0.1l0.3-0.1l0.2-0.2v-0.2v-0.2L397.9,65.7 M409.7,63.9
	l-0.3-0.2h-0.3h-0.4l-0.3,0.2l-0.2,0.1l-0.1,0.2l0.1,0.3l0.2,0.1l0.3,0.1l0.4,0.1l0.3-0.1l0.3-0.1l0.2-0.1l0.1-0.3l-0.1-0.2
	L409.7,63.9 M405.7,66.2l-0.3-0.1l-0.3-0.1l-0.4,0.1l-0.3,0.1l-0.2,0.1l-0.1,0.3l0.1,0.2l0.2,0.1l0.3,0.2h0.4h0.3l0.3-0.2l0.2-0.1
	l0.1-0.2l-0.1-0.3L405.7,66.2 M401.7,68.5l-0.3-0.1l-0.3-0.1l-0.4,0.1l-0.3,0.1l-0.2,0.2l-0.1,0.2l0.1,0.2l0.2,0.2l0.3,0.1h0.4h0.3
	l0.3-0.1l0.2-0.2l0.1-0.2l-0.1-0.2L401.7,68.5 M394.2,88l16.7-9.6 M410.9,78.4l4,0.5l4,0.3l4.1,0.1l4.1-0.2l4-0.5l3.9-0.7l3.8-0.9
	l3.6-1.1l3.3-1.4l3.1-1.6l2.8-1.7l2.4-1.9l2.1-2l1.7-2.2l1.3-2.2l0.9-2.3l0.4-2.4l0.1-2.3l-0.4-2.4l-0.9-2.3L458,49l-1.7-2.2l-2-2
	l-2.4-1.9l-2.7-1.8l-3.1-1.6l-3.3-1.4l-3.5-1.1l-3.8-1l-3.9-0.7l-4-0.5l-4-0.2h-4.1l-4.1,0.3l-4,0.5l-3.9,0.7l-3.7,1l-3.5,1.2
	l-3.3,1.4l-3,1.6l-2.7,1.8L389,45l-2,2.1l-1.6,2.2l-1.2,2.2l-0.8,2.3l-0.4,2.4l0.1,2.3l0.5,2.4l1,2.3 M384.6,63.2l-16.7,9.6
	 M363.5,108.9l0.2,0.2 M393.5,126.8l-0.2-0.1 M367.9,72.8l2.3,2.4l2.7,2.3l2.9,2.1l3.2,2l3.5,1.9l3.7,1.6l3.9,1.6l4.1,1.3
	 M399.2,102.8l-1,6.6l-0.2,4.5l0.3,4.3 M398.3,118.2l0.6,4.7l0.2,1.6v1.4l-0.4,1.1l-0.5,0.4 M398.2,127.4l4.8,1.1l5,0.8l5,0.5
	l5.1,0.3l5.2,0.1l5.1-0.2l5.1-0.5l5-0.7l4.8-0.9l4.8-1.2l4.5-1.4l4.3-1.6l4.1-1.8l3.7-2l3.5-2.2l3.1-2.4l2.8-2.5l2.4-2.6l2-2.7
	l1.6-2.8l0.1-0.2 M408,93l-3.1,1.8 M404.9,94.8l-0.3,0.2l-1.5,1.3l-1.4,1.6l-1.9,3.1l-0.6,1.8 M483.5,62.7L483.5,62.7 M360,62.8
	L360,62.8 M471.8,389.9v0.3l-0.2,2.7l-0.7,2.7l-1.2,2.6l-1.6,2.6l-1.9,2.5l-2.4,2.3l-2.7,2.2l-3.1,2.1l-3.4,1.8l-3.7,1.7l-3.9,1.5
	l-4.2,1.2l-4.3,1l-4.5,0.8l-4.6,0.6l-4.7,0.3H420l-4.7-0.2l-4.6-0.5l-4.5-0.7l-4.4-1l-4.2-1.2l-4-1.4l-3.8-1.6l-3.4-1.9
	 M428.9,361.3l1.6,0.1l4.6,0.6l4.5,0.9l4.3,1.1l4.1,1.3l3.9,1.5l3.6,1.7l3.3,1.9l3,2.1l2.6,2.3l2.3,2.3l1.9,2.5l1.4,2.6l0.9,2.1
	 M372.6,384.3l0.6-1.5l1.4-2.5l1.7-2.6l2.2-2.4l2.5-2.2l3-2.2l3.2-1.9l3.5-1.8l3.9-1.6l4-1.3l4.3-1.2l4.4-0.9l4.6-0.6l2.8-0.3
	 M386.4,410.3l-3.2-2l-2.8-2.1l-2.5-2.3l-2.1-2.5l-1.6-2.5l-1.3-2.6l-0.8-2.7l-0.4-2.7v-1 M428.9,360.2l2.9,0.3l4.6,0.6l4.4,0.9
	l4.4,1.1l4.1,1.3l3.9,1.6l3.6,1.7l3.3,2l3.1,2.1l2.7,2.2l2.3,2.4l1.9,2.5l1.5,2.6l1.2,2.6l0.7,2.7l0.2,2.8l-0.1,2.7L473,395l-1,2.7
	l-1.5,2.6l-1.8,2.5l-2.2,2.4l-2.6,2.3l-3,2.1l-3.2,2l-3.6,1.8l-3.8,1.6l-4.1,1.4l-4.3,1.1l-4.4,1l-4.6,0.7l-4.6,0.5l-4.8,0.2
	l-4.7-0.1l-4.7-0.2l-4.6-0.6l-4.6-0.7l-4.4-1l-4.2-1.3l-4-1.4l-3.8-1.7l-3.5-1.8 M385,411.1l-3.2-2l-2.8-2.2l-2.5-2.3l-2.2-2.4
	l-1.7-2.6l-1.3-2.6l-0.9-2.7l-0.5-2.7l-0.1-2.7l0.4-2.8l0.8-2.6l1.2-2.7l1.7-2.5l2-2.5l2.4-2.4l2.8-2.2l3.1-2l3.4-1.9l3.7-1.7l4-1.5
	l4.1-1.3l4.4-1.1l4.5-0.8l4.6-0.6l1.8-0.1 M403.8,74.7l-2-0.7l-1.9-0.8l-1.8-0.9l-1.7-0.9l-1.6-1l-1.5-1l-1.4-1.1l-1.2-1.2
	 M390.7,67.1l-1.7,0.6 M402.9,75.7l0.9-1 M389,67.8l1.3,1.2l1.5,1.2l1.6,1.1l1.6,1l1.8,1l2,0.9l2,0.9l2.1,0.7 M402.9,75.7
	L402.9,75.7 M389,67.7l1.3,1.2l1.5,1.1l1.6,1.1l1.6,1.1l1.8,1l2,0.9l2,0.8l2.1,0.8 M389,67.7L389,67.7 M402.9,75.8l2.2,0.7l2.2,0.6
	l2.3,0.5L412,78l2.4,0.3l2.4,0.2l2.5,0.2h2.5 M421.8,78.6L421.8,78.6 M402.9,75.7L402.9,75.7 M421.8,77.5l-2.4-0.1l-2.3-0.1
	l-2.3-0.2l-2.3-0.3l-2.3-0.4l-2.2-0.5l-2.1-0.6l-2.1-0.6 M403.8,74.7l-0.9,1 M402.9,75.7l2.2,0.6l2.2,0.6l2.3,0.5l2.4,0.4l2.4,0.4
	l2.4,0.2l2.5,0.1l2.5,0.1 M421.8,78.6v-1.1 M421.8,78.7h2.4l2.5-0.2l2.4-0.2l2.5-0.3l2.3-0.4l2.3-0.5l2.3-0.6l2.2-0.7 M440.7,75.7
	L440.7,75.7 M421.8,78.6L421.8,78.6 M439.7,74.7l-2.1,0.6l-2.1,0.6l-2.2,0.5l-2.2,0.4l-2.3,0.3l-2.3,0.2l-2.4,0.1l-2.3,0.1
	 M421.8,77.5v1.1 M421.8,78.6l2.4-0.1l2.5-0.1l2.4-0.2l2.5-0.4l2.3-0.4l2.3-0.5l2.3-0.6l2.2-0.6 M440.7,75.7l-1-1 M440.7,75.8
	l2.1-0.7l2-0.9l1.9-0.9l1.8-1l1.7-1l1.6-1.1l1.4-1.2l1.3-1.2 M454.5,67.7L454.5,67.7 M440.7,75.7L440.7,75.7 M452.9,67.1l-1.3,1.2
	l-1.3,1.1l-1.5,1l-1.6,1l-1.8,0.9l-1.8,0.9l-1.9,0.8l-2,0.7 M439.7,74.7l1,1 M440.7,75.7l2.1-0.8l2-0.8l1.9-0.9l1.8-1l1.7-1.1
	l1.6-1.1l1.4-1.1l1.3-1.2 M454.5,67.7l-1.6-0.6 M454.5,67.8l1.2-1.2l1-1.3l0.9-1.4l0.7-1.3l0.5-1.4l0.4-1.4l0.3-1.5l0.1-1.4
	 M459.6,56.8v0.1 M454.5,67.7L454.5,67.7 M457.7,56.8l-0.1,1.3l-0.2,1.4l-0.4,1.3l-0.5,1.3l-0.7,1.3l-0.9,1.3l-0.9,1.2l-1.1,1.2
	 M452.9,67.1l1.6,0.6 M454.5,67.7l1.2-1.3l1-1.3l0.9-1.3l0.7-1.4l0.5-1.4l0.4-1.4l0.3-1.4l0.1-1.4 M459.6,56.8h-1.9 M452.9,46.5
	l1.1,1.2l0.9,1.3l0.9,1.3l0.7,1.2l0.5,1.4l0.4,1.3l0.2,1.4l0.1,1.3 M452.9,46.4L452.9,46.4 M459.6,56.8v0.1 M452.9,46.4l1.1,1.2
	l0.9,1.2l0.9,1.3l0.7,1.3l0.5,1.3l0.4,1.4l0.2,1.3l0.1,1.4 M457.7,56.8h1.9 M459.6,56.8l-0.1-1.5l-0.3-1.4l-0.4-1.4l-0.5-1.4
	l-0.7-1.4l-0.9-1.3l-1-1.3l-1.2-1.2 M454.5,45.9l-1.6,0.5 M439.7,39l2,0.7l1.9,0.8l1.8,0.8l1.8,1l1.6,0.9l1.5,1.1l1.3,1.1l1.3,1.1
	 M439.7,38.8V39 M439.7,38.8l2,0.7l1.9,0.8l1.8,0.9l1.8,0.9l1.6,1l1.5,1l1.3,1.1l1.3,1.2 M454.5,45.9l-1.3-1.3l-1.4-1.1l-1.6-1.1
	l-1.7-1.1l-1.8-0.9l-1.9-1l-2-0.8l-2.1-0.7 M440.7,37.9l-1,0.9 M452.9,46.4l1.6-0.5 M439.7,38.8l1-0.9 M440.7,37.9l-2.2-0.7
	l-2.3-0.6l-2.3-0.5l-2.3-0.4l-2.5-0.3l-2.4-0.3l-2.5-0.1l-2.4-0.1 M421.8,34.9V36 M421.8,36.2h2.3l2.4,0.2l2.3,0.2l2.3,0.3l2.2,0.4
	l2.2,0.5l2.1,0.5l2.1,0.7 M439.7,38.8V39 M421.8,36l2.3,0.1l2.4,0.1l2.3,0.2l2.3,0.3l2.2,0.4l2.2,0.5l2.1,0.6l2.1,0.6 M421.8,36v0.2
	 M403.8,39l2.1-0.7l2.1-0.5l2.2-0.5l2.3-0.4l2.3-0.3l2.3-0.2l2.3-0.2h2.4 M421.8,36v0.2 M403.8,38.8V39 M403.8,38.8l2.1-0.6l2.1-0.6
	l2.2-0.5l2.3-0.4l2.3-0.3l2.3-0.2l2.3-0.1l2.4-0.1 M421.8,36v-1.1 M421.8,34.9l-2.5,0.1l-2.5,0.1l-2.4,0.3l-2.4,0.3l-2.4,0.4
	l-2.3,0.5l-2.2,0.6l-2.2,0.7 M402.9,37.9l0.9,0.9 M390.7,46.5l1.2-1.1l1.4-1.1l1.5-1.1l1.6-0.9l1.7-1l1.8-0.8l1.9-0.8l2-0.7
	 M403.8,38.8V39 M390.7,46.4l1.2-1.2l1.4-1.1l1.5-1l1.6-1l1.7-0.9l1.8-0.9l1.9-0.8l2-0.7 M403.8,38.8l-0.9-0.9 M402.9,37.9l-2.1,0.7
	l-2,0.8l-2,1l-1.8,0.9l-1.6,1.1l-1.6,1.1l-1.5,1.1l-1.3,1.3 M389,45.9l1.7,0.5 M385.9,56.9v-1.3l0.3-1.4l0.4-1.3l0.5-1.4l0.7-1.2
	l0.8-1.3l1-1.3l1.1-1.2 M390.7,46.4L390.7,46.4 M385.9,56.8v-1.4l0.3-1.3l0.4-1.4l0.5-1.3l0.7-1.3l0.8-1.3l1-1.2l1.1-1.2
	 M390.7,46.4l-1.7-0.5 M389,45.9l-1.1,1.2l-1.1,1.3l-0.8,1.3l-0.7,1.4l-0.6,1.4l-0.4,1.4l-0.2,1.4l-0.1,1.5 M384,56.8h1.9 M384,56.8
	v0.1 M384,56.9l0.1,1.4l0.2,1.5l0.4,1.4l0.6,1.4l0.7,1.3l0.8,1.4l1.1,1.3l1.1,1.2 M384,56.8v0.1 M389,67.7L389,67.7 M390.7,67.1
	l-1.1-1.2l-1-1.2l-0.8-1.3l-0.7-1.3l-0.5-1.3l-0.4-1.3l-0.3-1.4v-1.3 M385.9,56.8H384 M384,56.8l0.1,1.4l0.2,1.4l0.4,1.4l0.6,1.4
	l0.7,1.4l0.8,1.3l1.1,1.3l1.1,1.3 M389,67.7l1.7-0.6 M428.9,361.9v-2.2 M428.9,359.7l-1.8-0.1l-1.8-0.1h-1.8l-1.7-0.1l-1.8,0.1h-1.8
	l-1.8,0.1l-1.7,0.1 M414.7,359.7v2.2 M414.7,363.5h14.2 M428.9,361.9v1.6 M414.7,361.9h14.2 M414.7,361.9v1.6 M471.3,394l0.3-1
	l0.1-1.1l0.1-1v-1 M467.6,394h3.7 M471.3,392.4v1.6 M467.6,392.4v1.6 M471.3,392.4l0.3-1l0.1-1l0.1-1v-1.1v-1l-0.1-1l-0.1-1l-0.3-1
	 M471.3,384.3h-3.7 M467.6,384.3v8.1 M467.6,392.4h3.7 M371.7,389.9v1l0.1,1l0.2,1.1l0.2,1 M372.2,384.3l-0.2,1l-0.2,1l-0.1,1v1v1.1
	l0.1,1l0.2,1l0.2,1 M376,392.4v-8.1 M376,384.3h-3.8 M372.2,394h3.8 M376,392.4v1.6 M372.2,392.4h3.8 M372.2,392.4v1.6 M414.7,418.5
	l1.7,0.1l1.8,0.1l1.8,0.1h1.8h1.7l1.8-0.1l1.8-0.1l1.8-0.1 M428.9,417v1.5 M414.7,417v1.5 M428.9,417v-2.2 M428.9,414.8h-14.2
	 M414.7,414.8v2.2 M414.7,417l1.7,0.1l1.8,0.1h1.8l1.8,0.1l1.7-0.1h1.8l1.8-0.1l1.8-0.1 M371,299.1v-1.8l0.4-2.3l0.7-2.3l1-2.4
	l1.2-2.2l1.4-2.2l1.5-1.9l1.8-1.7l1.7-1.4l1.1-0.6 M428.2,312.8l-0.3-0.2l-1-0.1l-1.1,0.3l-1.1,0.7l-1.1,0.9l-1,1.3l-0.7,1.4
	l-0.6,1.5l-0.2,1.4l0.1,1.2l0.4,1.1l0.6,0.7h0.1 M426,323.5l-0.8,0.3l-1.1,0.1l-0.9-0.4l-0.6-0.7l-0.4-1l-0.1-1.2l0.2-1.5l0.6-1.4
	l0.7-1.4l1-1.3l1.1-1l1.1-0.6l1.1-0.3l1,0.1l0.8,0.5l0.5,0.9l0.2,1.1l0.1,0.2 M426.6,323.1l1.1-0.8l1-1.1l0.8-1.3l0.6-1.4l0.3-1.4
	v-1.3l-0.3-1l-0.6-0.7l-0.8-0.4l-1,0.1l-1.1,0.4l-1.1,0.8l-1,1.1l-0.8,1.3l-0.6,1.4l-0.3,1.4v1.3l0.3,1l0.6,0.8l0.8,0.3h1
	L426.6,323.1 M389.8,279.4l-0.2-0.1l-1.4-0.5l-1.7-0.1l-1.7,0.3l-1.9,0.7l-1.9,1.1l-1.8,1.4l-1.8,1.7l-1.6,2l-1.4,2.2l-1.3,2.4
	l-1,2.4l-0.7,2.4l-0.4,2.3v2.2l0.2,2l0.6,1.8l0.8,1.4l1.1,1.1l0.5,0.3 M432.4,304l1.1,0.8l1,1.3l0.6,1.6l0.4,1.9l0.1,1.7
	 M424.6,330.2l-1.9,0.9l-1.8,0.5l-1.7,0.1l-1.5-0.3l-0.9-0.4 M429,303.9l-1.4,0.3l-1.8,0.7l-1.8,1l-1.8,1.4l-1.7,1.7l-1.5,1.9
	l-1.5,2.2l-1.2,2.2l-0.9,2.4l-0.7,2.3l-0.4,2.3v2.1l0.2,1.9l0.5,1.7l0.8,1.4 M424.9,330.1l1.8-1.3l1.8-1.5l1.7-1.8l1.5-2.1l1.3-2.2
	l1-2.3l0.9-2.3l0.5-2.3l0.2-2.2l-0.1-2.1v-0.1 M397.7,283.7l0.1-1.9l0.4-2.2l0.6-2.4l1-2.3l1.2-2.3l1.4-2.1l1.6-1.9l1.7-1.7l1.8-1.4
	l1-0.6 M416.5,264l-0.2-0.1l-1.4-0.5l-1.7-0.1l-1.7,0.3l-1.9,0.7l-1.8,1l-1.9,1.5l-1.7,1.7l-1.7,2l-1.4,2.2l-1.3,2.3l-0.9,2.4
	l-0.7,2.4l-0.4,2.4l-0.1,1.8 M455.7,288.5l-1.3,0.3l-1.8,0.7l-1.8,1l-1.8,1.4l-1.7,1.7l-1.6,1.9l-1.4,2.1l-1.2,2.3l-1,2.3l-0.7,2.4
	l-0.3,2.2L441,309l0.2,1.9l0.5,1.7l0.8,1.4 M451.7,314.6l1.8-1.2l1.7-1.5l1.7-1.9l1.5-2l1.3-2.2l1.1-2.3l0.8-2.3l0.5-2.4l0.2-2.2v-2
	v-0.2 M459.1,288.6l1.1,0.8l1,1.3l0.7,1.6l0.4,1.9l0.1,1.7 M451.3,314.8l-1.8,0.9l-1.8,0.5l-1.7,0.1l-1.6-0.3l-0.9-0.4 M399.6,186.5
	l-0.7-0.4l-1-1.2l-0.7-1.4l-0.4-1.8l-0.1-1.9l0.2-2.2l0.5-2.3l0.8-2.3l1.1-2.2l1.3-2.2l1.5-1.9 M411.7,161.4l1.1,0.2l1,0.4
	 M400.7,166.2l-0.9-0.8l-0.8-1.1l-0.6-1.5l-0.2-1.7l0.1-1.9l0.4-2l0.6-2.1l1-2.1l1.1-1.9l1.4-1.8l1.5-1.6l1.6-1.3l1.6-0.9l1.6-0.6
	l1.5-0.1l1.4,0.2l0.7,0.3 M402.3,166.8l-1.2-0.4l-1.1-0.8l-0.8-1.2l-0.5-1.4l-0.2-1.7l0.1-1.9l0.3-2.1l0.7-2.1l0.9-2l1.2-2l1.4-1.8
	l1.5-1.5l1.6-1.3l1.6-0.9l1.6-0.6l1.5-0.2l1.3,0.3l1.2,0.6l0.9,0.9l0.7,1.3l0.4,1.6l0.1,1.9l-0.3,1.9l-0.5,2.1l-0.8,2.1l-1,2
	l-1.3,1.9 M411.6,161.5l1.5,0.2l1.3,0.7l1.1,1l0.8,1.3l0.5,1.7l0.2,1.9l-0.1,2.1l-0.4,2.3l-0.8,2.3l-1,2.2l-1.2,2.2l-1.4,2.1
	l-1.6,1.8l-1.8,1.5L407,186l-1.8,0.8l-1.7,0.5h-1.6l-1.5-0.3l-1.2-0.8l-1-1.1l-0.7-1.5l-0.4-1.7l-0.1-2l0.2-2.2l0.5-2.2l0.8-2.3
	l1-2.3l1.3-2.1l1.5-2 M419.5,228.9l-0.7-0.5l-1-1.1l-0.7-1.5l-0.4-1.7l-0.1-2l0.2-2.2l0.5-2.2l0.8-2.3l1.1-2.3l1.3-2.1l1.5-2
	 M431.6,203.7l1.1,0.2l1,0.4 M420.6,208.5l-0.9-0.7l-0.8-1.2l-0.6-1.4l-0.2-1.7l0.1-1.9l0.4-2.1l0.6-2.1l1-2l1.2-2l1.3-1.8l1.5-1.5
	l1.6-1.3l1.6-0.9l1.6-0.6l1.5-0.2l1.4,0.2l0.7,0.4 M422.3,209.2l-1.3-0.4l-1.1-0.9l-0.8-1.1l-0.5-1.5l-0.2-1.7l0.1-1.9l0.3-2
	l0.7-2.1l1-2.1l1.1-1.9l1.4-1.8l1.5-1.6l1.6-1.3l1.6-0.9l1.6-0.5l1.5-0.2l1.3,0.2l1.2,0.6l0.9,1l0.7,1.3l0.4,1.6l0.1,1.8l-0.2,2
	l-0.6,2l-0.8,2.1l-1,2.1l-1.3,1.8 M431.5,203.8l1.5,0.3l1.3,0.6l1.1,1l0.8,1.4l0.5,1.7l0.2,1.9l-0.1,2.1l-0.4,2.2l-0.8,2.3l-0.9,2.3
	l-1.3,2.2l-1.4,2l-1.6,1.8l-1.8,1.5l-1.7,1.3l-1.8,0.8l-1.7,0.4l-1.6,0.1l-1.5-0.4l-1.2-0.7l-1-1.2l-0.7-1.4l-0.4-1.8l-0.1-1.9
	l0.2-2.2l0.5-2.3l0.8-2.3l1.1-2.2l1.3-2.2l1.5-1.9 M395.5,127L395.5,127l0.9,0.1h0.1 M382.2,63.1l-16.5,9.5 M365.6,72.7l-0.2,0.1
	l-1.5,1.2l-1.3,1.2l-1.1,1.4l-0.9,1.6l-0.6,1.5l-0.6,1.7l-0.6,2.2l-0.3,2.2l-0.2,2.4l-0.1,2.7l0.2,3.4l0.4,3.4l0.8,3.2l1,3.1
	l0.9,2.1l1,1.8l0.9,1.1 M460.7,51.6l-0.5-1.1l-1.4-2.2l-1.9-2.1l-2.1-2l-2.5-1.8l-2.8-1.7l-3-1.5l-3.3-1.4l-3.5-1.1l-3.6-1l-3.8-0.7
	l-3.8-0.5l-4-0.2l-3.9-0.1l-4,0.2l-3.9,0.4l-3.8,0.6l-3.7,0.9l-3.5,1l-3.4,1.3l-3.1,1.5l-2.9,1.6l-2.6,1.8l-2.3,2l-2,2.1l-1.6,2.2
	l-0.9,1.7 M393.3,126.6l0.6,0.2l1.3,0.1h0.3 M363.6,109.2l1,1.1l2.8,2.7l3.2,2.7l3.4,2.4l3.6,2.1l3.7,1.9l3.8,1.8l4,1.5l4.1,1.3
	l0.3,0.1 M480.2,104.5l1.2-2.6l1.6-4.4l1.3-4.6l1-4.5l0.5-4.7l0.2-4.6l-0.2-4.7l-0.6-4.6l-1-4.6l-0.7-2.4 M360,62.8l-0.8,2.8
	l-0.9,4.6l-0.6,4.6l-0.2,4.7l0.2,4.6l0.6,4.4 M483.5,62.6l-0.6-1.8l-1.4-3.1l-1.7-2.9l-2.1-2.9l-2.4-2.8l-2.8-2.6l-3.2-2.5l-3.4-2.3
	l-3.7-2.1l-4-1.9L454,36l-4.4-1.5l-4.5-1.3l-4.7-1l-4.7-0.8l-4.9-0.6l-4.9-0.3l-4.9-0.1l-4.9,0.2l-4.9,0.4l-4.8,0.6l-4.8,0.9
	l-4.6,1.1l-4.5,1.3l-4.3,1.6l-4.2,1.7l-3.9,2l-3.7,2.3l-3.4,2.4l-3.1,2.6l-2.8,2.8l-2.3,3l-2.1,3.1l-1.6,3.2l-1.1,3 M473.6,391.8
	l0.1-0.7v-1 M369.9,390.3v1.6l0.5,2.7l0.8,2.7l1.2,2.6l1.6,2.6l1.9,2.5l2.3,2.3l2.7,2.2l2.9,2.1l3.2,1.9l3.5,1.8l3.8,1.5l3.9,1.3
	l4.1,1.1l4.2,0.9l4.3,0.7l4.4,0.4l4.5,0.3h4.5l4.4-0.3l4.4-0.4l4.4-0.7l4.2-1l4.1-1.1l3.9-1.3l3.7-1.6l3.5-1.7l3.2-1.9l2.9-2.2
	l2.7-2.2l2.3-2.5l1.9-2.5l1.6-2.7l1.2-2.7l0.7-2.8l0.3-1.8 M471.8,389.9v-1.6 M371.7,388.3v1.6 M429.2,313.4l-1-0.6 M422.3,323
	l1,0.6 M426.5,323.3l0.6-0.4l1-0.9l1-1.1l0.6-1.2 M429.7,319.7l0.1-0.2l0.5-1.3l0.3-1.4v-0.7 M426.2,323.4h0.2 M432.4,304
	l-42.6-24.6 M374.2,306.4l42.6,24.6 M435.6,311l7.9,4.6 M459.1,288.6L416.5,264 M399.6,186.5l0.3,0.2 M414.1,162.2l-0.3-0.2
	 M400.7,166.2l0.3,0.1 M413,145.5l-0.3-0.2 M419.5,228.9l0.3,0.2 M434,204.5l-0.3-0.2 M420.6,208.5l0.3,0.2 M432.9,187.8l-0.3-0.1"
	/>
<g>
	<rect x="253.3" y="81" class="st1" width="68.3" height="12.7"/>
	<path d="M261,86c-0.1-1.1-0.1-2.5-0.1-3.5h0c-0.3,0.9-0.6,2-1,3.1l-1.4,3.9h-0.8l-1.3-3.9c-0.4-1.1-0.7-2.2-0.9-3.1h0
		c0,1-0.1,2.4-0.2,3.6l-0.2,3.5h-1l0.6-8.1h1.3l1.4,3.9c0.3,1,0.6,1.9,0.8,2.7h0c0.2-0.8,0.5-1.7,0.9-2.7l1.4-3.9h1.3l0.5,8.1h-1
		L261,86z"/>
	<path d="M267.1,89.5l-0.1-0.7h0c-0.3,0.5-0.9,0.9-1.8,0.9c-1.2,0-1.8-0.8-1.8-1.7c0-1.4,1.2-2.2,3.5-2.2v-0.1
		c0-0.5-0.1-1.3-1.3-1.3c-0.5,0-1.1,0.2-1.5,0.4l-0.2-0.7c0.5-0.3,1.2-0.5,1.9-0.5c1.8,0,2.2,1.2,2.2,2.4v2.2c0,0.5,0,1,0.1,1.4
		H267.1z M267,86.6c-1.2,0-2.5,0.2-2.5,1.3c0,0.7,0.5,1,1,1c0.8,0,1.2-0.5,1.4-1c0-0.1,0.1-0.2,0.1-0.3V86.6z"/>
	<path d="M270.9,82.1c0,0.4-0.3,0.6-0.7,0.6c-0.4,0-0.6-0.3-0.6-0.6c0-0.4,0.3-0.7,0.7-0.7C270.6,81.4,270.9,81.7,270.9,82.1z
		 M269.7,89.5v-5.8h1.1v5.8H269.7z"/>
	<path d="M272.5,85.3c0-0.6,0-1.1,0-1.6h0.9l0.1,1h0c0.3-0.6,1-1.1,1.9-1.1c0.8,0,2.1,0.5,2.1,2.5v3.5h-1.1v-3.3
		c0-0.9-0.3-1.7-1.3-1.7c-0.7,0-1.2,0.5-1.4,1.1c0,0.1-0.1,0.3-0.1,0.5v3.5h-1.1V85.3z"/>
	<path d="M281.7,81.5c0.5-0.1,1.2-0.2,1.9-0.2c1,0,1.7,0.2,2.2,0.6c0.4,0.3,0.7,0.8,0.7,1.4c0,0.8-0.5,1.5-1.4,1.8v0
		c0.8,0.2,1.7,0.8,1.7,2c0,0.7-0.3,1.2-0.7,1.6c-0.6,0.5-1.5,0.8-2.8,0.8c-0.7,0-1.3,0-1.6-0.1V81.5z M282.8,84.9h0.9
		c1.1,0,1.8-0.6,1.8-1.4c0-0.9-0.7-1.3-1.8-1.3c-0.5,0-0.8,0-0.9,0.1V84.9z M282.8,88.7c0.2,0,0.5,0,0.9,0c1.1,0,2.1-0.4,2.1-1.6
		c0-1.1-0.9-1.6-2.1-1.6h-0.9V88.7z"/>
	<path d="M293.5,86.6c0,2.1-1.5,3.1-2.9,3.1c-1.6,0-2.8-1.2-2.8-3c0-1.9,1.3-3.1,2.9-3.1C292.4,83.6,293.5,84.8,293.5,86.6z
		 M288.9,86.6c0,1.3,0.7,2.2,1.8,2.2c1,0,1.8-0.9,1.8-2.3c0-1-0.5-2.2-1.7-2.2C289.4,84.4,288.9,85.5,288.9,86.6z"/>
	<path d="M299.8,81v7c0,0.5,0,1.1,0,1.5h-0.9l0-1h0c-0.3,0.6-1,1.1-2,1.1c-1.4,0-2.5-1.2-2.5-3c0-1.9,1.2-3.1,2.6-3.1
		c0.9,0,1.5,0.4,1.8,0.9h0V81H299.8z M298.8,86.1c0-0.1,0-0.3,0-0.4c-0.2-0.7-0.7-1.2-1.5-1.2c-1.1,0-1.7,1-1.7,2.2
		c0,1.2,0.6,2.1,1.7,2.1c0.7,0,1.4-0.5,1.5-1.3c0-0.1,0-0.3,0-0.5V86.1z"/>
	<path d="M302,83.7l1.3,3.4c0.1,0.4,0.3,0.8,0.4,1.2h0c0.1-0.3,0.2-0.8,0.4-1.2l1.2-3.4h1.1l-1.6,4.1c-0.8,2-1.3,3-2,3.6
		c-0.5,0.5-1,0.6-1.3,0.7l-0.3-0.9c0.3-0.1,0.6-0.3,0.9-0.5c0.3-0.2,0.6-0.6,0.9-1.2c0-0.1,0.1-0.2,0.1-0.3c0-0.1,0-0.1-0.1-0.3
		l-2.1-5.3H302z"/>
</g>
<g>
	<rect x="253.3" y="169.7" class="st1" width="68.3" height="13.3"/>
	<path d="M254.2,170.2c0.5-0.1,1.2-0.2,1.9-0.2c1,0,1.7,0.2,2.2,0.6c0.4,0.3,0.7,0.8,0.7,1.4c0,0.8-0.5,1.5-1.4,1.8v0
		c0.8,0.2,1.7,0.8,1.7,2c0,0.7-0.3,1.2-0.7,1.6c-0.6,0.5-1.5,0.8-2.8,0.8c-0.7,0-1.3,0-1.6-0.1V170.2z M255.3,173.5h0.9
		c1.1,0,1.8-0.6,1.8-1.4c0-0.9-0.7-1.3-1.8-1.3c-0.5,0-0.8,0-0.9,0.1V173.5z M255.3,177.4c0.2,0,0.5,0,0.9,0c1.1,0,2.1-0.4,2.1-1.6
		c0-1.1-0.9-1.6-2.1-1.6h-0.9V177.4z"/>
	<path d="M263.9,178.2l-0.1-0.7h0c-0.3,0.5-0.9,0.9-1.8,0.9c-1.2,0-1.8-0.8-1.8-1.7c0-1.4,1.2-2.2,3.5-2.2v-0.1
		c0-0.5-0.1-1.3-1.3-1.3c-0.5,0-1.1,0.2-1.5,0.4l-0.2-0.7c0.5-0.3,1.2-0.5,1.9-0.5c1.8,0,2.2,1.2,2.2,2.4v2.2c0,0.5,0,1,0.1,1.4
		H263.9z M263.7,175.2c-1.2,0-2.5,0.2-2.5,1.3c0,0.7,0.5,1,1,1c0.8,0,1.2-0.5,1.4-1c0-0.1,0.1-0.2,0.1-0.3V175.2z"/>
	<path d="M267.7,170.7v1.7h1.5v0.8h-1.5v3.1c0,0.7,0.2,1.1,0.8,1.1c0.3,0,0.5,0,0.6-0.1l0,0.8c-0.2,0.1-0.5,0.1-0.9,0.1
		c-0.5,0-0.9-0.2-1.1-0.4c-0.3-0.3-0.4-0.8-0.4-1.5v-3.2h-0.9v-0.8h0.9V171L267.7,170.7z"/>
	<path d="M271.7,170.7v1.7h1.5v0.8h-1.5v3.1c0,0.7,0.2,1.1,0.8,1.1c0.3,0,0.5,0,0.6-0.1l0,0.8c-0.2,0.1-0.5,0.1-0.9,0.1
		c-0.5,0-0.9-0.2-1.1-0.4c-0.3-0.3-0.4-0.8-0.4-1.5v-3.2h-0.9v-0.8h0.9V171L271.7,170.7z"/>
	<path d="M274.9,175.5c0,1.4,0.9,2,2,2c0.8,0,1.2-0.1,1.6-0.3l0.2,0.8c-0.4,0.2-1,0.4-1.9,0.4c-1.8,0-2.9-1.2-2.9-2.9
		c0-1.8,1-3.1,2.7-3.1c1.9,0,2.4,1.7,2.4,2.7c0,0.2,0,0.4,0,0.5H274.9z M278,174.7c0-0.7-0.3-1.7-1.5-1.7c-1.1,0-1.5,1-1.6,1.7H278z
		"/>
	<path d="M280.3,174.2c0-0.7,0-1.3,0-1.8h0.9l0,1.1h0c0.3-0.8,0.9-1.3,1.6-1.3c0.1,0,0.2,0,0.3,0v1c-0.1,0-0.2,0-0.4,0
		c-0.7,0-1.3,0.6-1.4,1.4c0,0.1,0,0.3,0,0.5v3.1h-1V174.2z"/>
	<path d="M284.9,172.4l1.3,3.4c0.1,0.4,0.3,0.8,0.4,1.2h0c0.1-0.3,0.2-0.8,0.4-1.2l1.2-3.4h1.1l-1.6,4.1c-0.8,2-1.3,3-2,3.6
		c-0.5,0.5-1,0.6-1.3,0.7l-0.3-0.9c0.3-0.1,0.6-0.3,0.9-0.5c0.3-0.2,0.6-0.6,0.9-1.2c0-0.1,0.1-0.2,0.1-0.3c0-0.1,0-0.1-0.1-0.3
		l-2.1-5.3H284.9z"/>
	<path d="M293.8,171h-2.5v-0.9h6v0.9h-2.5v7.2h-1.1V171z"/>
	<path d="M300.6,178.2l-0.1-0.7h0c-0.3,0.5-0.9,0.9-1.8,0.9c-1.2,0-1.8-0.8-1.8-1.7c0-1.4,1.2-2.2,3.5-2.2v-0.1
		c0-0.5-0.1-1.3-1.3-1.3c-0.5,0-1.1,0.2-1.5,0.4l-0.2-0.7c0.5-0.3,1.2-0.5,1.9-0.5c1.8,0,2.2,1.2,2.2,2.4v2.2c0,0.5,0,1,0.1,1.4
		H300.6z M300.5,175.2c-1.2,0-2.5,0.2-2.5,1.3c0,0.7,0.5,1,1,1c0.8,0,1.2-0.5,1.4-1c0-0.1,0.1-0.2,0.1-0.3V175.2z"/>
	<path d="M303.2,178.2c0-0.4,0-1,0-1.5v-7h1v3.6h0c0.4-0.6,1-1.1,2-1.1c1.4,0,2.5,1.2,2.4,3c0,2.1-1.3,3.1-2.6,3.1
		c-0.8,0-1.5-0.3-1.9-1.1h0l0,1H303.2z M304.3,175.9c0,0.1,0,0.3,0,0.4c0.2,0.7,0.8,1.2,1.6,1.2c1.1,0,1.8-0.9,1.8-2.2
		c0-1.2-0.6-2.2-1.7-2.2c-0.7,0-1.4,0.5-1.6,1.3c0,0.1-0.1,0.3-0.1,0.4V175.9z"/>
	<path d="M309.9,177.1c0.3,0.2,0.9,0.4,1.4,0.4c0.8,0,1.1-0.4,1.1-0.9c0-0.5-0.3-0.8-1.1-1.1c-1-0.4-1.5-0.9-1.5-1.6
		c0-0.9,0.8-1.7,2-1.7c0.6,0,1.1,0.2,1.4,0.4l-0.3,0.8c-0.2-0.1-0.6-0.3-1.2-0.3c-0.6,0-1,0.4-1,0.8c0,0.5,0.3,0.7,1.1,1
		c1,0.4,1.5,0.9,1.5,1.8c0,1-0.8,1.7-2.2,1.7c-0.6,0-1.2-0.2-1.6-0.4L309.9,177.1z"/>
</g>
<g>
	<rect x="275" y="259" class="st1" width="151.3" height="18.7"/>
	<path d="M275.9,259.5c0.5-0.1,1.2-0.2,1.9-0.2c1,0,1.7,0.2,2.2,0.6c0.4,0.3,0.7,0.8,0.7,1.4c0,0.8-0.5,1.5-1.4,1.8v0
		c0.8,0.2,1.7,0.8,1.7,2c0,0.7-0.3,1.2-0.7,1.6c-0.6,0.5-1.5,0.8-2.8,0.8c-0.7,0-1.3,0-1.6-0.1V259.5z M276.9,262.9h0.9
		c1.1,0,1.8-0.6,1.8-1.4c0-0.9-0.7-1.3-1.8-1.3c-0.5,0-0.8,0-0.9,0.1V262.9z M276.9,266.7c0.2,0,0.5,0,0.9,0c1.1,0,2.1-0.4,2.1-1.6
		c0-1.1-0.9-1.6-2.1-1.6h-0.9V266.7z"/>
	<path d="M285.6,267.5l-0.1-0.7h0c-0.3,0.5-0.9,0.9-1.8,0.9c-1.2,0-1.8-0.8-1.8-1.7c0-1.4,1.2-2.2,3.5-2.2v-0.1
		c0-0.5-0.1-1.3-1.3-1.3c-0.5,0-1.1,0.2-1.5,0.4l-0.2-0.7c0.5-0.3,1.2-0.5,1.9-0.5c1.8,0,2.2,1.2,2.2,2.4v2.2c0,0.5,0,1,0.1,1.4
		H285.6z M285.4,264.6c-1.2,0-2.5,0.2-2.5,1.3c0,0.7,0.5,1,1,1c0.8,0,1.2-0.5,1.4-1c0-0.1,0.1-0.2,0.1-0.3V264.6z"/>
	<path d="M289.4,260v1.7h1.5v0.8h-1.5v3.1c0,0.7,0.2,1.1,0.8,1.1c0.3,0,0.5,0,0.6-0.1l0,0.8c-0.2,0.1-0.5,0.1-0.9,0.1
		c-0.5,0-0.9-0.2-1.1-0.4c-0.3-0.3-0.4-0.8-0.4-1.5v-3.2h-0.9v-0.8h0.9v-1.4L289.4,260z"/>
	<path d="M293.3,260v1.7h1.5v0.8h-1.5v3.1c0,0.7,0.2,1.1,0.8,1.1c0.3,0,0.5,0,0.6-0.1l0,0.8c-0.2,0.1-0.5,0.1-0.9,0.1
		c-0.5,0-0.9-0.2-1.1-0.4c-0.3-0.3-0.4-0.8-0.4-1.5v-3.2h-0.9v-0.8h0.9v-1.4L293.3,260z"/>
	<path d="M296.5,264.8c0,1.4,0.9,2,2,2c0.8,0,1.2-0.1,1.6-0.3l0.2,0.8c-0.4,0.2-1,0.4-1.9,0.4c-1.8,0-2.9-1.2-2.9-2.9s1-3.1,2.7-3.1
		c1.9,0,2.4,1.7,2.4,2.7c0,0.2,0,0.4,0,0.5H296.5z M299.6,264.1c0-0.7-0.3-1.7-1.5-1.7c-1.1,0-1.5,1-1.6,1.7H299.6z"/>
	<path d="M302,263.5c0-0.7,0-1.3,0-1.8h0.9l0,1.1h0c0.3-0.8,0.9-1.3,1.6-1.3c0.1,0,0.2,0,0.3,0v1c-0.1,0-0.2,0-0.4,0
		c-0.7,0-1.3,0.6-1.4,1.4c0,0.1,0,0.3,0,0.5v3.1h-1V263.5z"/>
	<path d="M307.1,260.1c0,0.4-0.3,0.6-0.7,0.6c-0.4,0-0.6-0.3-0.6-0.6c0-0.4,0.3-0.7,0.7-0.7C306.9,259.4,307.1,259.7,307.1,260.1z
		 M305.9,267.5v-5.8h1.1v5.8H305.9z"/>
	<path d="M309.3,264.8c0,1.4,0.9,2,2,2c0.8,0,1.2-0.1,1.6-0.3l0.2,0.8c-0.4,0.2-1,0.4-1.9,0.4c-1.8,0-2.9-1.2-2.9-2.9s1-3.1,2.7-3.1
		c1.9,0,2.4,1.7,2.4,2.7c0,0.2,0,0.4,0,0.5H309.3z M312.4,264.1c0-0.7-0.3-1.7-1.5-1.7c-1.1,0-1.5,1-1.6,1.7H312.4z"/>
	<path d="M314.6,266.4c0.3,0.2,0.9,0.4,1.4,0.4c0.8,0,1.1-0.4,1.1-0.9c0-0.5-0.3-0.8-1.1-1.1c-1-0.4-1.5-0.9-1.5-1.6
		c0-0.9,0.8-1.7,2-1.7c0.6,0,1.1,0.2,1.4,0.4l-0.3,0.8c-0.2-0.1-0.6-0.3-1.2-0.3c-0.6,0-1,0.4-1,0.8c0,0.5,0.3,0.7,1.1,1
		c1,0.4,1.5,0.9,1.5,1.8c0,1-0.8,1.7-2.2,1.7c-0.6,0-1.2-0.2-1.6-0.4L314.6,266.4z"/>
</g>
<g>
	<rect x="253.3" y="350.3" class="st1" width="151.3" height="18.7"/>
	<path d="M254.2,350.9c0.5-0.1,1.2-0.2,1.9-0.2c1,0,1.7,0.2,2.2,0.6c0.4,0.3,0.7,0.8,0.7,1.4c0,0.8-0.5,1.5-1.4,1.8v0
		c0.8,0.2,1.7,0.8,1.7,2c0,0.7-0.3,1.2-0.7,1.6c-0.6,0.5-1.5,0.8-2.8,0.8c-0.7,0-1.3,0-1.6-0.1V350.9z M255.3,354.2h0.9
		c1.1,0,1.8-0.6,1.8-1.4c0-0.9-0.7-1.3-1.8-1.3c-0.5,0-0.8,0-0.9,0.1V354.2z M255.3,358.1c0.2,0,0.5,0,0.9,0c1.1,0,2.1-0.4,2.1-1.6
		c0-1.1-0.9-1.6-2.1-1.6h-0.9V358.1z"/>
	<path d="M263.9,358.9l-0.1-0.7h0c-0.3,0.5-0.9,0.9-1.8,0.9c-1.2,0-1.8-0.8-1.8-1.7c0-1.4,1.2-2.2,3.5-2.2V355
		c0-0.5-0.1-1.3-1.3-1.3c-0.5,0-1.1,0.2-1.5,0.4l-0.2-0.7c0.5-0.3,1.2-0.5,1.9-0.5c1.8,0,2.2,1.2,2.2,2.4v2.2c0,0.5,0,1,0.1,1.4
		H263.9z M263.7,355.9c-1.2,0-2.5,0.2-2.5,1.3c0,0.7,0.5,1,1,1c0.8,0,1.2-0.5,1.4-1c0-0.1,0.1-0.2,0.1-0.3V355.9z"/>
	<path d="M270.6,358.6c-0.3,0.1-0.9,0.3-1.7,0.3c-1.8,0-2.9-1.2-2.9-3c0-1.8,1.2-3.1,3.1-3.1c0.6,0,1.2,0.2,1.5,0.3l-0.2,0.8
		c-0.3-0.1-0.6-0.3-1.2-0.3c-1.3,0-2.1,1-2.1,2.2c0,1.3,0.9,2.2,2,2.2c0.6,0,1-0.2,1.3-0.3L270.6,358.6z"/>
	<path d="M272.9,355.7L272.9,355.7c0.2-0.2,0.4-0.5,0.5-0.7l1.7-2h1.3l-2.2,2.4l2.6,3.4h-1.3l-2-2.8l-0.5,0.6v2.2h-1v-8.5h1V355.7z"
		/>
	<path d="M285.7,358.6c-0.4,0.2-1.2,0.4-2.1,0.4c-2.3,0-4-1.4-4-4.1c0-2.5,1.7-4.2,4.2-4.2c1,0,1.6,0.2,1.9,0.4l-0.3,0.9
		c-0.4-0.2-1-0.3-1.6-0.3c-1.9,0-3.2,1.2-3.2,3.3c0,2,1.1,3.3,3.1,3.3c0.6,0,1.3-0.1,1.7-0.3L285.7,358.6z"/>
	<path d="M292.1,355.9c0,2.1-1.5,3.1-2.9,3.1c-1.6,0-2.8-1.2-2.8-3c0-1.9,1.3-3.1,2.9-3.1C291,352.9,292.1,354.1,292.1,355.9z
		 M287.5,356c0,1.3,0.7,2.2,1.8,2.2c1,0,1.8-0.9,1.8-2.3c0-1-0.5-2.2-1.7-2.2C288,353.7,287.5,354.9,287.5,356z"/>
	<path d="M293.8,353l1.1,3.3c0.2,0.5,0.3,1,0.5,1.5h0c0.1-0.5,0.3-1,0.5-1.5l1.1-3.3h1.1l-2.3,5.8h-1l-2.2-5.8H293.8z"/>
	<path d="M299.6,356.1c0,1.4,0.9,2,2,2c0.8,0,1.2-0.1,1.6-0.3l0.2,0.8c-0.4,0.2-1,0.4-1.9,0.4c-1.8,0-2.9-1.2-2.9-2.9
		c0-1.8,1-3.1,2.7-3.1c1.9,0,2.4,1.7,2.4,2.7c0,0.2,0,0.4,0,0.5H299.6z M302.7,355.4c0-0.7-0.3-1.7-1.5-1.7c-1.1,0-1.5,1-1.6,1.7
		H302.7z"/>
	<path d="M305,354.9c0-0.7,0-1.3,0-1.8h0.9l0,1.1h0c0.3-0.8,0.9-1.3,1.6-1.3c0.1,0,0.2,0,0.3,0v1c-0.1,0-0.2,0-0.4,0
		c-0.7,0-1.3,0.6-1.4,1.4c0,0.1,0,0.3,0,0.5v3.1h-1V354.9z"/>
</g>
<line class="st2" x1="408.3" y1="169.7" x2="329" y2="175.8"/>
<line class="st2" x1="426.3" y1="219" x2="329" y2="175.8"/>
<line class="st2" x1="418.3" y1="277.7" x2="321.6" y2="265"/>
<line class="st2" x1="388.3" y1="301" x2="321.6" y2="265"/>
<line class="st2" x1="399.6" y1="382.3" x2="317" y2="359.7"/>
<line class="st2" x1="370" y1="90.3" x2="315.6" y2="87.3"/>
</svg>
