<?xml version="1.0" encoding="utf-8"?>
<!-- Generator: Adobe Illustrator 21.0.0, SVG Export Plug-In . SVG Version: 6.00 Build 0)  -->
<svg version="1.1" id="Layer_1" xmlns="http://www.w3.org/2000/svg" xmlns:xlink="http://www.w3.org/1999/xlink" x="0px" y="0px"
	 viewBox="0 0 368.5 198.5" style="enable-background:new 0 0 368.5 198.5;" xml:space="preserve">
<style type="text/css">
	.st0{fill:#FFFFFF;stroke:#000000;stroke-miterlimit:10;}
	.st1{fill:#FFFFFF;stroke:#000000;stroke-width:0.5;stroke-miterlimit:10;}
	.st2{fill:#FFFFFF;stroke:#000000;stroke-width:0.75;stroke-miterlimit:10;}
	.st3{fill:none;stroke:#A7A9AC;stroke-width:0.5;stroke-miterlimit:10;}
	.st4{fill:none;stroke:#030202;stroke-width:0.5;stroke-miterlimit:10;}
	.st5{fill:none;stroke:#000000;stroke-miterlimit:10;}
	.st6{fill:none;stroke:#000000;stroke-width:2.5;stroke-miterlimit:10;}
</style>
<g>
	<path class="st0" d="M122.3,110.1h12c6.6,0,12,1,12-4.7V31.5c0-5.7-5.4-4.7-12-4.7h-12c-6.6,0-12-1-12,4.7v73.9
		C110.3,111.1,115.7,110.1,122.3,110.1z"/>
	<path class="st0" d="M120.7,30.6h13.6c7.5,0,13.7,0.1,13.7-0.4v-6.9c0-0.5-6.1-0.4-13.7-0.4h-13.6c-7.5,0-13.7-0.1-13.7,0.4v6.9
		C107.1,30.7,113.2,30.6,120.7,30.6z"/>
	<rect x="105.6" y="38.2" class="st1" width="3.9" height="8.2"/>
	<path class="st0" d="M145.5,121H33.7c-3,0-5.4-2.4-5.4-5.4v0c0-3,2.4-5.4,5.4-5.4h111.9c3,0,2.4,2.4,2.4,5.4v0
		C148,118.6,148.5,121,145.5,121z"/>
	<path class="st0" d="M107.2,108.6H35.5c-1.7,0-3.1-1.4-3.1-3.1v0c0-1.7,1.4-3.1,3.1-3.1h73.4c0.8,0,1.4,0.6,1.4,1.4v1.7
		C110.3,107.3,108.9,108.6,107.2,108.6z"/>
	<path class="st2" d="M108.9,102.5c0,0-61.4,0-69,0c-2.9,0,11.8-6.5,30.3-6.5S108.9,102.5,108.9,102.5z"/>
	<path class="st0" d="M128.2,175.5H39.5V168c0,0,24.5-6.1,26.5-11.7c2.2-6.2-3.4-14.2-8-19.5c-1.7-2-18.5-15.7-18.5-15.7h106.1
		c0,0-9.8,5.6-12,8.4c-4,5-6,19.5-6,24.4C127.5,157.6,128.2,175.5,128.2,175.5z"/>
	<rect x="101.8" y="40.6" class="st1" width="3.6" height="3.6"/>
</g>
<rect x="151" y="11.5" class="st2" width="6.5" height="164"/>
<path class="st3" d="M105.6,175.8c-1.3,0.1-9.2,4.9-2,5.7c14.8,1.6,52.7,1.8,38.8-1.1c-7.4-1.5,5.6,0.5,5.6-1.6
	c0-1.7-9.6-2.6-15.3-2.6c-3.6,0,7.2,0.4-2.2,0C122.7,176,109.3,175.5,105.6,175.8z"/>
<g>
	<rect x="138.3" y="176.3" class="st1" width="0.7" height="0.7"/>
	<path class="st1" d="M144.2,176.7h-11.3c-1.1,0-2-0.9-2-2l0,0c0-1.1,0.9-2,2-2h11.3c1.1,0,2,0.9,2,2l0,0
		C146.2,175.8,145.3,176.7,144.2,176.7z"/>
	<rect x="133.2" y="176.7" class="st1" width="0.7" height="0.7"/>
	<rect x="143.1" y="176.7" class="st1" width="0.7" height="0.7"/>
	<path class="st4" d="M131.1,173.5c0,0.2,3,0.4,7.5,0.4c2.9,0,4.6,0,7.4-0.4"/>
</g>
<g>
	<path d="M52.9,179.4h1v7.2h3.5v0.9h-4.5V179.4z"/>
	<path d="M59,184.8c0,1.4,0.9,2,2,2c0.8,0,1.2-0.1,1.6-0.3l0.2,0.8c-0.4,0.2-1,0.4-1.9,0.4c-1.8,0-2.9-1.2-2.9-2.9s1-3.1,2.7-3.1
		c1.9,0,2.4,1.7,2.4,2.7c0,0.2,0,0.4,0,0.5H59z M62.1,184c0-0.7-0.3-1.7-1.5-1.7c-1.1,0-1.5,1-1.6,1.7H62.1z"/>
	<path d="M67.6,187.5l-0.1-0.7h0c-0.3,0.5-0.9,0.9-1.8,0.9c-1.2,0-1.8-0.8-1.8-1.7c0-1.4,1.2-2.2,3.5-2.2v-0.1
		c0-0.5-0.1-1.3-1.3-1.3c-0.5,0-1.1,0.2-1.5,0.4l-0.2-0.7c0.5-0.3,1.2-0.5,1.9-0.5c1.8,0,2.2,1.2,2.2,2.4v2.2c0,0.5,0,1,0.1,1.4
		H67.6z M67.4,184.5c-1.2,0-2.5,0.2-2.5,1.3c0,0.7,0.5,1,1,1c0.8,0,1.2-0.5,1.4-1c0-0.1,0.1-0.2,0.1-0.3V184.5z"/>
	<path d="M71.2,184.4L71.2,184.4c0.2-0.2,0.4-0.5,0.5-0.7l1.7-2h1.3l-2.2,2.4l2.6,3.4h-1.3l-2-2.8l-0.5,0.6v2.2h-1V179h1V184.4z"/>
</g>
<g>
	<path d="M72.6,136c-0.1-1.1-0.1-2.5-0.1-3.5h0c-0.3,0.9-0.6,2-1,3.1l-1.4,3.9h-0.8l-1.3-3.8c-0.4-1.1-0.7-2.2-0.9-3.1h0
		c0,1-0.1,2.4-0.2,3.6l-0.2,3.5h-1l0.6-8.1h1.3l1.4,3.9c0.3,1,0.6,1.9,0.8,2.7h0c0.2-0.8,0.5-1.7,0.9-2.7l1.4-3.9h1.3l0.5,8.1h-1
		L72.6,136z"/>
	<path d="M78.6,139.5l-0.1-0.7h0c-0.3,0.5-0.9,0.9-1.8,0.9c-1.2,0-1.8-0.8-1.8-1.7c0-1.4,1.2-2.2,3.5-2.2v-0.1
		c0-0.5-0.1-1.3-1.3-1.3c-0.5,0-1.1,0.2-1.5,0.4l-0.2-0.7c0.5-0.3,1.2-0.5,1.9-0.5c1.8,0,2.2,1.2,2.2,2.4v2.2c0,0.5,0,1,0.1,1.4
		H78.6z M78.5,136.5c-1.2,0-2.5,0.2-2.5,1.3c0,0.7,0.5,1,1,1c0.8,0,1.2-0.5,1.4-1c0-0.1,0.1-0.2,0.1-0.3V136.5z"/>
	<path d="M82.4,132.1c0,0.4-0.3,0.6-0.7,0.6c-0.4,0-0.6-0.3-0.6-0.6c0-0.4,0.3-0.7,0.7-0.7C82.1,131.4,82.4,131.7,82.4,132.1z
		 M81.2,139.5v-5.8h1.1v5.8H81.2z"/>
	<path d="M84,135.3c0-0.6,0-1.1,0-1.6h0.9l0.1,1h0c0.3-0.6,1-1.1,1.9-1.1c0.8,0,2.1,0.5,2.1,2.5v3.5h-1.1v-3.3
		c0-0.9-0.3-1.7-1.3-1.7c-0.7,0-1.2,0.5-1.4,1.1c0,0.1-0.1,0.3-0.1,0.5v3.5H84V135.3z"/>
	<path d="M93.1,138.2c0.5,0.3,1.2,0.5,1.9,0.5c1.1,0,1.7-0.6,1.7-1.4c0-0.8-0.4-1.2-1.5-1.6c-1.3-0.5-2.1-1.2-2.1-2.3
		c0-1.3,1-2.2,2.6-2.2c0.8,0,1.4,0.2,1.8,0.4l-0.3,0.9c-0.3-0.1-0.8-0.4-1.5-0.4c-1.1,0-1.5,0.7-1.5,1.2c0,0.8,0.5,1.1,1.6,1.6
		c1.4,0.5,2.1,1.2,2.1,2.4c0,1.2-0.9,2.3-2.8,2.3c-0.8,0-1.6-0.2-2.1-0.5L93.1,138.2z"/>
	<path d="M99.8,136.8c0,1.4,0.9,2,2,2c0.8,0,1.2-0.1,1.6-0.3l0.2,0.8c-0.4,0.2-1,0.4-1.9,0.4c-1.8,0-2.9-1.2-2.9-2.9s1-3.1,2.7-3.1
		c1.9,0,2.4,1.7,2.4,2.7c0,0.2,0,0.4,0,0.5H99.8z M102.9,136c0-0.7-0.3-1.7-1.5-1.7c-1.1,0-1.5,1-1.6,1.7H102.9z"/>
	<path d="M105.2,135.3c0-0.6,0-1.1,0-1.6h0.9l0.1,1h0c0.3-0.6,1-1.1,1.9-1.1c0.8,0,2.1,0.5,2.1,2.5v3.5h-1.1v-3.3
		c0-0.9-0.3-1.7-1.3-1.7c-0.7,0-1.2,0.5-1.4,1.1c0,0.1-0.1,0.3-0.1,0.5v3.5h-1.1V135.3z"/>
	<path d="M111.7,138.4c0.3,0.2,0.9,0.4,1.4,0.4c0.8,0,1.1-0.4,1.1-0.9c0-0.5-0.3-0.8-1.1-1.1c-1-0.4-1.5-0.9-1.5-1.6
		c0-0.9,0.8-1.7,2-1.7c0.6,0,1.1,0.2,1.4,0.4l-0.3,0.8c-0.2-0.1-0.6-0.3-1.2-0.3c-0.6,0-1,0.4-1,0.8c0,0.5,0.3,0.7,1.1,1
		c1,0.4,1.5,0.9,1.5,1.8c0,1-0.8,1.7-2.2,1.7c-0.6,0-1.2-0.2-1.6-0.4L111.7,138.4z"/>
	<path d="M121.9,136.5c0,2.1-1.5,3.1-2.9,3.1c-1.6,0-2.8-1.2-2.8-3c0-1.9,1.3-3.1,2.9-3.1C120.8,133.6,121.9,134.8,121.9,136.5z
		 M117.3,136.6c0,1.3,0.7,2.2,1.8,2.2c1,0,1.8-0.9,1.8-2.3c0-1-0.5-2.2-1.7-2.2C117.8,134.4,117.3,135.5,117.3,136.6z"/>
	<path d="M123.2,135.5c0-0.7,0-1.3,0-1.8h0.9l0,1.1h0c0.3-0.8,0.9-1.3,1.6-1.3c0.1,0,0.2,0,0.3,0v1c-0.1,0-0.2,0-0.4,0
		c-0.7,0-1.3,0.6-1.4,1.4c0,0.1,0,0.3,0,0.5v3.1h-1V135.5z"/>
</g>
<line class="st5" x1="139" y1="175.5" x2="120.8" y2="143.5"/>
<line class="st5" x1="113.5" y1="180.3" x2="83.5" y2="183.8"/>
<polygon class="st0" points="321.2,182 216.5,182 216.5,68.1 308.2,68.1 315.6,49.8 321.2,49.8 321.2,68.1 "/>
<rect x="219.9" y="183.1" class="st5" width="7.2" height="2"/>
<rect x="334.2" y="11.5" class="st1" width="5.2" height="173.6"/>
<rect x="310.1" y="183.1" class="st5" width="7.2" height="2"/>
<g>
	<g>
		<path class="st0" d="M332.2,74.9L332.2,74.9c1.1,0,2-0.9,2-2V62.7c0-1.1-0.9-2-2-2l0,0c-1.1,0-2,0.9-2,2v10.2
			C330.2,74,331.1,74.9,332.2,74.9z"/>
		<path class="st1" d="M331.8,67.8c0,1.3,2.4,3.7,2.4,2.3c0-2.4,0-3.2,0-4.7C334.2,64.4,331.8,66.5,331.8,67.8z"/>
	</g>
	<path class="st5" d="M332.9,74.9c0,39-0.7,86.1-0.7,107.1c0,13.4-27.6,3.2-29.9,3.2"/>
	<g>
		<line class="st6" x1="294.4" y1="185.1" x2="302.3" y2="185.1"/>
		<line class="st5" x1="295.9" y1="185.1" x2="295.9" y2="186.3"/>
		<line class="st5" x1="300.3" y1="185.1" x2="300.3" y2="186.3"/>
	</g>
</g>
<g>
	<path d="M229.4,151.5c0.5-0.1,1.3-0.2,2-0.2c1.1,0,1.8,0.2,2.3,0.7c0.4,0.4,0.6,0.9,0.6,1.5c0,1.1-0.7,1.8-1.5,2.1v0
		c0.6,0.2,1,0.8,1.2,1.6c0.3,1.1,0.5,1.9,0.6,2.2h-1.1c-0.1-0.2-0.3-0.9-0.5-1.9c-0.2-1.1-0.7-1.5-1.6-1.6h-1v3.5h-1V151.5z
		 M230.5,155.2h1.1c1.1,0,1.8-0.6,1.8-1.5c0-1-0.8-1.5-1.9-1.5c-0.5,0-0.9,0-1,0.1V155.2z"/>
	<path d="M236.5,156.8c0,1.4,0.9,2,2,2c0.8,0,1.2-0.1,1.6-0.3l0.2,0.8c-0.4,0.2-1,0.4-1.9,0.4c-1.8,0-2.9-1.2-2.9-2.9s1-3.1,2.7-3.1
		c1.9,0,2.4,1.7,2.4,2.7c0,0.2,0,0.4,0,0.5H236.5z M239.6,156c0-0.7-0.3-1.7-1.5-1.7c-1.1,0-1.5,1-1.6,1.7H239.6z"/>
	<path d="M241.9,155.3c0-0.6,0-1.1,0-1.6h0.9l0,0.9h0c0.3-0.6,0.9-1.1,1.8-1.1c0.8,0,1.4,0.5,1.6,1.2h0c0.2-0.3,0.4-0.6,0.6-0.8
		c0.3-0.3,0.7-0.4,1.3-0.4c0.8,0,1.9,0.5,1.9,2.5v3.4h-1v-3.3c0-1.1-0.4-1.8-1.3-1.8c-0.6,0-1.1,0.4-1.2,1c0,0.1-0.1,0.3-0.1,0.5
		v3.6h-1V156c0-0.9-0.4-1.6-1.2-1.6c-0.7,0-1.1,0.5-1.3,1.1c-0.1,0.2-0.1,0.3-0.1,0.5v3.5h-1V155.3z"/>
	<path d="M257.2,156.5c0,2.1-1.5,3.1-2.9,3.1c-1.6,0-2.8-1.2-2.8-3c0-1.9,1.3-3.1,2.9-3.1C256,153.6,257.2,154.8,257.2,156.5z
		 M252.5,156.6c0,1.3,0.7,2.2,1.8,2.2c1,0,1.8-0.9,1.8-2.3c0-1-0.5-2.2-1.7-2.2C253.1,154.4,252.5,155.5,252.5,156.6z"/>
	<path d="M259.8,152v1.7h1.5v0.8h-1.5v3.1c0,0.7,0.2,1.1,0.8,1.1c0.3,0,0.5,0,0.6-0.1l0,0.8c-0.2,0.1-0.5,0.1-0.9,0.1
		c-0.5,0-0.9-0.2-1.1-0.4c-0.3-0.3-0.4-0.8-0.4-1.5v-3.2h-0.9v-0.8h0.9v-1.4L259.8,152z"/>
	<path d="M263,156.8c0,1.4,0.9,2,2,2c0.8,0,1.2-0.1,1.6-0.3l0.2,0.8c-0.4,0.2-1,0.4-1.9,0.4c-1.8,0-2.9-1.2-2.9-2.9s1-3.1,2.7-3.1
		c1.9,0,2.4,1.7,2.4,2.7c0,0.2,0,0.4,0,0.5H263z M266.1,156c0-0.7-0.3-1.7-1.5-1.7c-1.1,0-1.5,1-1.6,1.7H266.1z"/>
	<path d="M270.8,158.2c0.5,0.3,1.2,0.5,1.9,0.5c1.1,0,1.7-0.6,1.7-1.4c0-0.8-0.4-1.2-1.5-1.6c-1.3-0.5-2.1-1.2-2.1-2.3
		c0-1.3,1-2.2,2.6-2.2c0.8,0,1.4,0.2,1.8,0.4l-0.3,0.9c-0.3-0.1-0.8-0.4-1.5-0.4c-1.1,0-1.5,0.7-1.5,1.2c0,0.8,0.5,1.1,1.6,1.6
		c1.4,0.5,2.1,1.2,2.1,2.4c0,1.2-0.9,2.3-2.8,2.3c-0.8,0-1.6-0.2-2.1-0.5L270.8,158.2z"/>
	<path d="M277.5,156.8c0,1.4,0.9,2,2,2c0.8,0,1.2-0.1,1.6-0.3l0.2,0.8c-0.4,0.2-1,0.4-1.9,0.4c-1.8,0-2.9-1.2-2.9-2.9s1-3.1,2.7-3.1
		c1.9,0,2.4,1.7,2.4,2.7c0,0.2,0,0.4,0,0.5H277.5z M280.6,156c0-0.7-0.3-1.7-1.5-1.7c-1.1,0-1.5,1-1.6,1.7H280.6z"/>
	<path d="M282.9,155.3c0-0.6,0-1.1,0-1.6h0.9l0.1,1h0c0.3-0.6,1-1.1,1.9-1.1c0.8,0,2.1,0.5,2.1,2.5v3.5h-1.1v-3.3
		c0-0.9-0.3-1.7-1.3-1.7c-0.7,0-1.2,0.5-1.4,1.1c0,0.1-0.1,0.3-0.1,0.5v3.5h-1.1V155.3z"/>
	<path d="M289.5,158.4c0.3,0.2,0.9,0.4,1.4,0.4c0.8,0,1.1-0.4,1.1-0.9c0-0.5-0.3-0.8-1.1-1.1c-1-0.4-1.5-0.9-1.5-1.6
		c0-0.9,0.8-1.7,2-1.7c0.6,0,1.1,0.2,1.4,0.4l-0.3,0.8c-0.2-0.1-0.6-0.3-1.2-0.3c-0.6,0-1,0.4-1,0.8c0,0.5,0.3,0.7,1.1,1
		c1,0.4,1.5,0.9,1.5,1.8c0,1-0.8,1.7-2.2,1.7c-0.6,0-1.2-0.2-1.6-0.4L289.5,158.4z"/>
	<path d="M299.6,156.5c0,2.1-1.5,3.1-2.9,3.1c-1.6,0-2.8-1.2-2.8-3c0-1.9,1.3-3.1,2.9-3.1C298.5,153.6,299.6,154.8,299.6,156.5z
		 M295,156.6c0,1.3,0.7,2.2,1.8,2.2c1,0,1.8-0.9,1.8-2.3c0-1-0.5-2.2-1.7-2.2C295.5,154.4,295,155.5,295,156.6z"/>
	<path d="M300.9,155.5c0-0.7,0-1.3,0-1.8h0.9l0,1.1h0c0.3-0.8,0.9-1.3,1.6-1.3c0.1,0,0.2,0,0.3,0v1c-0.1,0-0.2,0-0.4,0
		c-0.7,0-1.3,0.6-1.4,1.4c0,0.1,0,0.3,0,0.5v3.1h-1V155.5z"/>
	<path d="M229.4,165.9c0.5-0.1,1.2-0.2,2-0.2c1,0,1.8,0.2,2.3,0.7c0.4,0.4,0.7,1,0.7,1.7c0,0.7-0.2,1.3-0.6,1.7
		c-0.6,0.6-1.5,0.9-2.5,0.9c-0.3,0-0.6,0-0.8-0.1v3.2h-1V165.9z M230.5,169.8c0.2,0.1,0.5,0.1,0.9,0.1c1.3,0,2-0.6,2-1.7
		c0-1.1-0.8-1.6-1.9-1.6c-0.5,0-0.8,0-1,0.1V169.8z"/>
	<path d="M235.6,169.9c0-0.7,0-1.3,0-1.8h0.9l0,1.1h0c0.3-0.8,0.9-1.3,1.6-1.3c0.1,0,0.2,0,0.3,0v1c-0.1,0-0.2,0-0.4,0
		c-0.7,0-1.3,0.6-1.4,1.4c0,0.1,0,0.3,0,0.5v3.1h-1V169.9z"/>
	<path d="M244.6,171c0,2.1-1.5,3.1-2.9,3.1c-1.6,0-2.8-1.2-2.8-3c0-1.9,1.3-3.1,2.9-3.1C243.5,168,244.6,169.2,244.6,171z M240,171
		c0,1.3,0.7,2.2,1.8,2.2c1,0,1.8-0.9,1.8-2.3c0-1-0.5-2.2-1.7-2.2C240.6,168.8,240,169.9,240,171z"/>
	<path d="M245.9,173.9c0-0.4,0-1,0-1.5v-7h1v3.6h0c0.4-0.6,1-1.1,2-1.1c1.4,0,2.5,1.2,2.4,3c0,2.1-1.3,3.1-2.6,3.1
		c-0.8,0-1.5-0.3-1.9-1.1h0l0,1H245.9z M247,171.6c0,0.1,0,0.3,0,0.4c0.2,0.7,0.8,1.2,1.6,1.2c1.1,0,1.8-0.9,1.8-2.2
		c0-1.2-0.6-2.2-1.7-2.2c-0.7,0-1.4,0.5-1.6,1.3c0,0.1-0.1,0.3-0.1,0.4V171.6z"/>
	<path d="M253.4,171.2c0,1.4,0.9,2,2,2c0.8,0,1.2-0.1,1.6-0.3l0.2,0.8c-0.4,0.2-1,0.4-1.9,0.4c-1.8,0-2.9-1.2-2.9-2.9s1-3.1,2.7-3.1
		c1.9,0,2.4,1.7,2.4,2.7c0,0.2,0,0.4,0,0.5H253.4z M256.5,170.4c0-0.7-0.3-1.7-1.5-1.7c-1.1,0-1.5,1-1.6,1.7H256.5z"/>
</g>
<g>
	<path d="M233.3,39.3c0.5,0.3,1.2,0.5,1.9,0.5c1.1,0,1.7-0.6,1.7-1.4c0-0.8-0.4-1.2-1.5-1.6c-1.3-0.5-2.1-1.2-2.1-2.3
		c0-1.3,1-2.2,2.6-2.2c0.8,0,1.4,0.2,1.8,0.4l-0.3,0.9c-0.3-0.1-0.8-0.4-1.5-0.4c-1.1,0-1.5,0.7-1.5,1.2c0,0.8,0.5,1.1,1.6,1.6
		c1.4,0.5,2.1,1.2,2.1,2.4c0,1.2-0.9,2.3-2.8,2.3c-0.8,0-1.6-0.2-2.1-0.5L233.3,39.3z"/>
	<path d="M240,37.9c0,1.4,0.9,2,2,2c0.8,0,1.2-0.1,1.6-0.3l0.2,0.8c-0.4,0.2-1,0.4-1.9,0.4c-1.8,0-2.9-1.2-2.9-2.9s1-3.1,2.7-3.1
		c1.9,0,2.4,1.7,2.4,2.7c0,0.2,0,0.4,0,0.5H240z M243,37.1c0-0.7-0.3-1.7-1.5-1.7c-1.1,0-1.5,1-1.6,1.7H243z"/>
	<path d="M245.4,36.4c0-0.6,0-1.1,0-1.6h0.9l0.1,1h0c0.3-0.6,1-1.1,1.9-1.1c0.8,0,2.1,0.5,2.1,2.5v3.5h-1.1v-3.3
		c0-0.9-0.3-1.7-1.3-1.7c-0.7,0-1.2,0.5-1.4,1.1c0,0.1-0.1,0.3-0.1,0.5v3.5h-1.1V36.4z"/>
	<path d="M251.9,39.5c0.3,0.2,0.9,0.4,1.4,0.4c0.8,0,1.1-0.4,1.1-0.9c0-0.5-0.3-0.8-1.1-1.1c-1-0.4-1.5-0.9-1.5-1.6
		c0-0.9,0.8-1.7,2-1.7c0.6,0,1.1,0.2,1.4,0.4l-0.3,0.8c-0.2-0.1-0.6-0.3-1.2-0.3c-0.6,0-1,0.4-1,0.8c0,0.5,0.3,0.7,1.1,1
		c1,0.4,1.5,0.9,1.5,1.8c0,1-0.8,1.7-2.2,1.7c-0.6,0-1.2-0.2-1.6-0.4L251.9,39.5z"/>
	<path d="M262,37.6c0,2.1-1.5,3.1-2.9,3.1c-1.6,0-2.8-1.2-2.8-3c0-1.9,1.3-3.1,2.9-3.1C260.9,34.7,262,35.9,262,37.6z M257.4,37.7
		c0,1.3,0.7,2.2,1.8,2.2c1,0,1.8-0.9,1.8-2.3c0-1-0.5-2.2-1.7-2.2C258,35.4,257.4,36.6,257.4,37.7z"/>
	<path d="M263.4,36.6c0-0.7,0-1.3,0-1.8h0.9l0,1.1h0c0.3-0.8,0.9-1.3,1.6-1.3c0.1,0,0.2,0,0.3,0v1c-0.1,0-0.2,0-0.4,0
		c-0.7,0-1.3,0.6-1.4,1.4c0,0.1,0,0.3,0,0.5v3.1h-1V36.6z"/>
	<path d="M271.2,38.1l-0.8,2.5h-1.1l2.7-8.1h1.3l2.8,8.1h-1.1l-0.9-2.5H271.2z M273.8,37.2l-0.8-2.3c-0.2-0.5-0.3-1-0.4-1.5h0
		c-0.1,0.5-0.3,1-0.4,1.5l-0.8,2.3H273.8z"/>
	<path d="M277,39.5c0.3,0.2,0.9,0.4,1.4,0.4c0.8,0,1.1-0.4,1.1-0.9c0-0.5-0.3-0.8-1.1-1.1c-1-0.4-1.5-0.9-1.5-1.6
		c0-0.9,0.8-1.7,2-1.7c0.6,0,1.1,0.2,1.4,0.4l-0.3,0.8c-0.2-0.1-0.6-0.3-1.2-0.3c-0.6,0-1,0.4-1,0.8c0,0.5,0.3,0.7,1.1,1
		c1,0.4,1.5,0.9,1.5,1.8c0,1-0.8,1.7-2.2,1.7c-0.6,0-1.2-0.2-1.6-0.4L277,39.5z"/>
	<path d="M281.7,39.5c0.3,0.2,0.9,0.4,1.4,0.4c0.8,0,1.1-0.4,1.1-0.9c0-0.5-0.3-0.8-1.1-1.1c-1-0.4-1.5-0.9-1.5-1.6
		c0-0.9,0.8-1.7,2-1.7c0.6,0,1.1,0.2,1.4,0.4l-0.3,0.8c-0.2-0.1-0.6-0.3-1.2-0.3c-0.6,0-1,0.4-1,0.8c0,0.5,0.3,0.7,1.1,1
		c1,0.4,1.5,0.9,1.5,1.8c0,1-0.8,1.7-2.2,1.7c-0.6,0-1.2-0.2-1.6-0.4L281.7,39.5z"/>
	<path d="M287.2,37.9c0,1.4,0.9,2,2,2c0.8,0,1.2-0.1,1.6-0.3l0.2,0.8c-0.4,0.2-1,0.4-1.9,0.4c-1.8,0-2.9-1.2-2.9-2.9s1-3.1,2.7-3.1
		c1.9,0,2.4,1.7,2.4,2.7c0,0.2,0,0.4,0,0.5H287.2z M290.3,37.1c0-0.7-0.3-1.7-1.5-1.7c-1.1,0-1.5,1-1.6,1.7H290.3z"/>
	<path d="M292.6,36.4c0-0.6,0-1.1,0-1.6h0.9l0,0.9h0c0.3-0.6,0.9-1.1,1.8-1.1c0.8,0,1.4,0.5,1.6,1.2h0c0.2-0.3,0.4-0.6,0.6-0.8
		c0.3-0.3,0.7-0.4,1.3-0.4c0.8,0,1.9,0.5,1.9,2.5v3.4h-1v-3.3c0-1.1-0.4-1.8-1.3-1.8c-0.6,0-1.1,0.4-1.2,1c0,0.1-0.1,0.3-0.1,0.5
		v3.6h-1v-3.5c0-0.9-0.4-1.6-1.2-1.6c-0.7,0-1.1,0.5-1.3,1.1c-0.1,0.2-0.1,0.3-0.1,0.5v3.5h-1V36.4z"/>
	<path d="M302.6,40.6c0-0.4,0-1,0-1.5v-7h1v3.6h0c0.4-0.6,1-1.1,2-1.1c1.4,0,2.5,1.2,2.4,3c0,2.1-1.3,3.1-2.6,3.1
		c-0.8,0-1.5-0.3-1.9-1.1h0l0,1H302.6z M303.7,38.3c0,0.1,0,0.3,0,0.4c0.2,0.7,0.8,1.2,1.6,1.2c1.1,0,1.8-0.9,1.8-2.2
		c0-1.2-0.6-2.2-1.7-2.2c-0.7,0-1.4,0.5-1.6,1.3c0,0.1-0.1,0.3-0.1,0.4V38.3z"/>
	<path d="M309.5,32.1h1.1v8.5h-1.1V32.1z"/>
	<path d="M312.7,34.8l1.3,3.4c0.1,0.4,0.3,0.8,0.4,1.2h0c0.1-0.3,0.2-0.8,0.4-1.2l1.2-3.4h1.1l-1.6,4.1c-0.8,2-1.3,3-2,3.6
		c-0.5,0.5-1,0.6-1.3,0.7l-0.3-0.9c0.3-0.1,0.6-0.3,0.9-0.5c0.3-0.2,0.6-0.6,0.9-1.2c0-0.1,0.1-0.2,0.1-0.3c0-0.1,0-0.1-0.1-0.3
		l-2.1-5.3H312.7z"/>
</g>
<g>
	<path d="M239.4,109.9h1v7.2h3.5v0.9h-4.5V109.9z"/>
	<path d="M245.5,115.3c0,1.4,0.9,2,2,2c0.8,0,1.2-0.1,1.6-0.3l0.2,0.8c-0.4,0.2-1,0.4-1.9,0.4c-1.8,0-2.9-1.2-2.9-2.9s1-3.1,2.7-3.1
		c1.9,0,2.4,1.7,2.4,2.7c0,0.2,0,0.4,0,0.5H245.5z M248.6,114.5c0-0.7-0.3-1.7-1.5-1.7c-1.1,0-1.5,1-1.6,1.7H248.6z"/>
	<path d="M254.1,118l-0.1-0.7h0c-0.3,0.5-0.9,0.9-1.8,0.9c-1.2,0-1.8-0.8-1.8-1.7c0-1.4,1.2-2.2,3.5-2.2v-0.1c0-0.5-0.1-1.3-1.3-1.3
		c-0.5,0-1.1,0.2-1.5,0.4l-0.2-0.7c0.5-0.3,1.2-0.5,1.9-0.5c1.8,0,2.2,1.2,2.2,2.4v2.2c0,0.5,0,1,0.1,1.4H254.1z M253.9,115
		c-1.2,0-2.5,0.2-2.5,1.3c0,0.7,0.5,1,1,1c0.8,0,1.2-0.5,1.4-1c0-0.1,0.1-0.2,0.1-0.3V115z"/>
	<path d="M261.7,109.5v7c0,0.5,0,1.1,0,1.5h-0.9l0-1h0c-0.3,0.6-1,1.1-2,1.1c-1.4,0-2.5-1.2-2.5-3c0-1.9,1.2-3.1,2.6-3.1
		c0.9,0,1.5,0.4,1.8,0.9h0v-3.5H261.7z M260.6,114.6c0-0.1,0-0.3,0-0.4c-0.2-0.7-0.7-1.2-1.5-1.2c-1.1,0-1.7,1-1.7,2.2
		c0,1.2,0.6,2.1,1.7,2.1c0.7,0,1.4-0.5,1.5-1.3c0-0.1,0-0.3,0-0.5V114.6z"/>
</g>
<line class="st5" x1="332.2" y1="63.8" x2="288.4" y2="45"/>
<line class="st5" x1="332.7" y1="121" x2="265.5" y2="115.6"/>
<line class="st5" x1="297.5" y1="185.1" x2="275" y2="166.3"/>
<g>
</g>
<g>
</g>
<g>
</g>
<g>
</g>
<g>
</g>
<g>
</g>
</svg>
