<?xml version="1.0" encoding="utf-8"?>
<!-- Generator: Adobe Illustrator 21.0.0, SVG Export Plug-In . SVG Version: 6.00 Build 0)  -->
<svg version="1.1" id="Layer_1" xmlns="http://www.w3.org/2000/svg" xmlns:xlink="http://www.w3.org/1999/xlink" x="0px" y="0px"
	 viewBox="0 0 813.9 542.6" style="enable-background:new 0 0 813.9 542.6;" xml:space="preserve">
<style type="text/css">
	.st0{fill:none;stroke:#000000;stroke-width:0.709;stroke-linecap:round;stroke-linejoin:round;stroke-miterlimit:10;}
	.st1{fill:none;stroke:#000000;stroke-miterlimit:10;}
</style>
<path class="st0" d="M568.7,119.5l0.1,0.9l-0.7,4l-1.9,3.9l-3.3,3.6l-4.6,3.3 M312.5,313.4l13.9,8.2 M324.6,316.8l-12.1-7.1
	 M346.5,271.7l0.2,0.4l0.5,0.4 M560.9,272.5l0.5-0.4l0.2-0.4 M347.5,273.1l-0.2-0.2l-0.1-0.4 M560.6,273.1l0.3-0.2v-0.4
	 M475.9,321.6l-0.1,0.4l-0.2,0.2 M473,322.2l-0.2-0.2l-0.1-0.4 M435.4,321.6l-0.1,0.4l-0.2,0.2 M432.5,322.2l-0.2-0.2l-0.1-0.4
	 M347.2,272.5l-0.4-4.3 M560.9,272.5l0.4-4.5 M472.7,321.6l-2.1-1.2 M437.4,320.5l-2,1.1 M435.4,321.6v-2.3 M432.2,321.6v-4.1
	 M472.7,319.2v2.4 M475.9,317.4v4.2 M491,331l0.1,0.6l0.3,0.6l0.5,0.6l0.7,0.5 M674.8,397.3l0.7-0.5l0.5-0.5l0.4-0.6l0.1-0.7
	 M492.6,326.4v6.9 M492.6,333.3l141.5,82.6 M642.1,416l32.7-18.7 M674.8,390.4v6.9 M634.1,409v6.9 M634.1,415.9l0.9,0.5l0.9,0.3
	l1.1,0.2h1.1h1.1l1.1-0.2l1-0.3l0.8-0.4 M642.1,409v7 M506.8,320l2.5-1.1l2.9-0.7l3.1-0.2l3.1,0.2l2.9,0.7l2.5,1.1l1.9,1.5l1.2,1.6
	l0.4,1.8l-0.4,1.8l-1.2,1.7l-1.9,1.5l-2.5,1.1l-2.9,0.7l-3.1,0.2l-3.1-0.2l-2.9-0.7l-2.5-1.1l-1.9-1.5l-1.2-1.7l-0.5-1.8l0.5-1.8
	l1.2-1.6L506.8,320 M628.3,391l2.5-1.1l2.9-0.7l3.2-0.2l3.1,0.2l2.9,0.7l2.5,1.1l1.9,1.5l1.2,1.6l0.4,1.8l-0.4,1.8l-1.2,1.7
	l-1.9,1.5l-2.5,1.1l-2.9,0.7l-3.1,0.2l-3.2-0.2l-2.9-0.7l-2.5-1.1l-1.9-1.5l-1.2-1.7l-0.4-1.8l0.4-1.8l1.2-1.6L628.3,391
	 M614.6,363.2l2.5-1.1l2.9-0.7l3.1-0.2l3.1,0.2l2.9,0.7l2.5,1.1l1.9,1.4l1.2,1.7l0.4,1.8l-0.4,1.8l-1.2,1.7l-1.9,1.4l-2.5,1.1
	l-2.9,0.7l-3.1,0.3l-3.1-0.3l-2.9-0.7l-2.5-1.1l-1.9-1.4l-1.2-1.7l-0.4-1.8l0.4-1.8l1.2-1.7L614.6,363.2 M554.8,328.3l2.5-1.1
	l2.9-0.7l3.1-0.3l3.1,0.3l2.9,0.7l2.5,1.1l2,1.4l1.2,1.7l0.4,1.8L575,335l-1.2,1.7l-2,1.4l-2.5,1.1l-2.9,0.7l-3.1,0.3l-3.1-0.3
	l-2.9-0.7l-2.5-1.1l-1.9-1.4l-1.2-1.7l-0.4-1.8l0.4-1.8l1.2-1.7L554.8,328.3 M492.7,321.7l32.6-18.6 M492.6,326.4l-0.7-0.5l-0.5-0.6
	l-0.3-0.6l-0.1-0.6l0.1-0.7l0.3-0.6l0.6-0.6l0.7-0.5 M634.1,409l-141.5-82.6 M642.1,409l-0.8,0.4l-1,0.3l-1.1,0.2l-1.1,0.1l-1.1-0.1
	l-1.1-0.2l-0.9-0.3l-0.9-0.4 M674.8,390.4L642.1,409 M674.8,385.8l0.7,0.5l0.6,0.5l0.3,0.6l0.1,0.7l-0.1,0.6l-0.4,0.6l-0.5,0.6
	l-0.7,0.5 M533.4,303.1l141.4,82.7 M525.3,303.1l0.9-0.4l1-0.3l1-0.2h1.2h1.1l1,0.2l1,0.3l0.9,0.4 M532.3,112v1.1 M350.3,245.1
	l1-0.6 M322.5,249.3v0.6l0.4,2l1,1.9l1.6,1.8l2.3,1.6 M421.6,286.2l1-0.6 M342.8,117.4l3.5-4.2l3.7-3.7l3.7-3.1l3.8-2.5
	 M342.8,117.4l-3.8,7.5l-1.7,8.2v8.4l1.5,8.2 M568.3,264l3.6-2.4l3-2.8l2.1-3l1.4-3.2l0.4-3.2v-1 M375.6,114.3l-3.8,2.5l-3.7,3.2
	l-3.6,3.6l-3.3,4.2l-3,4.4l-2.6,4.8l-2.1,4.9l-1.7,4.9l-1.1,4.8l-0.5,4.7 M345.5,236l1.1-0.5 M534.4,115.5l-0.1-0.2l-0.4-0.8
	l-0.7-0.7l-0.9-0.7 M532.3,113.1L461.1,72 M461.1,72l-1.1-0.5l-1.3-0.4l-1.3-0.2l-1.4-0.1l-1.4,0.1l-1.4,0.2l-1.2,0.4l-1.1,0.5
	 M375.6,115.5L450.9,72 M471.3,113.3l-2.2,1.6l-1.5,1.8l-0.8,2v2l0.8,2l1.5,1.8l2.2,1.6l2.7,1.2l3.2,0.9l3.4,0.4h3.5l3.4-0.4
	l3.1-0.9l2.7-1.2l2.2-1.6l1.5-1.8l0.8-2v-2l-0.8-2l-1.5-1.8l-2.2-1.6l-2.7-1.2l-3.1-0.9l-3.4-0.4h-3.5l-3.4,0.4l-3.2,0.9
	L471.3,113.3 M430.6,98.4l-1.6,1.3l-0.8,1.4v1.6l0.8,1.4l1.6,1.3l2.2,0.9l2.5,0.4h2.6l2.6-0.4l2.1-0.9l1.6-1.3l0.8-1.4v-1.6
	l-0.8-1.4l-1.6-1.3l-2.1-0.9l-2.6-0.5h-2.6l-2.5,0.5L430.6,98.4 M422.6,285.6l1,0.5l0.9,0.2l1-0.1h0.2 M346.6,235.5l4.6-79.7
	 M346.6,235.5v1.2l0.2,1.3l0.4,1.3l0.6,1.3l0.7,1.2l0.9,1.1l0.9,0.9l1,0.7 M351.3,244.5l71.3,41.1 M457,161.3l75.3-43.4 M461.1,70.8
	l-1.1-0.5l-1.3-0.4l-1.3-0.2l-1.4-0.1l-1.4,0.1l-1.4,0.2l-1.2,0.4l-1.1,0.5 M532.3,112l-71.2-41.2 M532.3,117.9l0.9-0.7l0.7-0.7
	l0.4-0.8l0.2-0.8l-0.2-0.8l-0.4-0.8l-0.7-0.7l-0.9-0.6 M553.2,103.2l3.3,2.3l2.7,2.8l1.8,3.2l0.6,3.4l-0.6,3.4l-1.8,3.2l-2.7,2.9
	l-3.3,2.3 M476.3,58.8l76.9,44.4 M435.6,58.8l4-1.9l4.9-1.6l5.5-1l5.9-0.4l5.9,0.4l5.6,1l4.8,1.6l4.1,1.9 M357.5,103.9l78.1-45.1
	 M450.9,70.8l-75.3,43.5 M553.2,126.7l-78.1,45.1 M351.2,155.8l0.5-4.5l1.1-4.6l1.6-4.8l2-4.7l2.5-4.5l2.9-4.3l3.1-4l3.5-3.5l3.5-3
	l3.7-2.4 M427,283.1l4.6-79.8 M327.8,257.2l11-107.5 M327.8,257.2l113.4,65.5 M421.6,286.2l1,0.5l0.9,0.2l1-0.1l0.8-0.3l0.7-0.6
	l0.5-0.7l0.3-1l0.2-1.1 M350.3,245.1l71.3,41.1 M345.5,236l0.1,1.3l0.2,1.3l0.4,1.3l0.6,1.3l0.7,1.2l0.9,1.1l0.9,0.9l1,0.7
	 M350.2,156.3l-4.7,79.7 M558.3,135.2l10,128.8 M480.2,180.3l78.1-45.1 M468.8,191.3l5.4-6.4l6-4.6 M568.3,264l-101.6,58.7
	 M475.1,171.8l-3.7,2.5l-3.7,3.1l-3.6,3.8l-3.3,4.3 M457,161.3l-3.8,2.6l-3.7,3.1l-3.5,3.7l-3.3,4.1l-3,4.5l-2.6,4.7l-2.1,4.9
	l-1.7,4.9l-1.1,4.9l-0.6,4.6 M443,209.9l3.4-5.4l4.4-5.9l4.9-6.3l5.1-6.8 M443,209.9l-1.8,112.8 M441.2,322.7l2.8,1.3l3.1,1l3.3,0.6
	l3.5,0.1l3.5-0.2l3.4-0.5l3.1-1l2.8-1.3 M466.7,322.7l2.1-131.4 M641.3,425.7L465.8,323.2 M675.6,406.1v-4.6 M641.3,425.7v-4.6
	 M675.6,406.1l-34.3,19.6 M675.6,401.5l-34.3,19.6 M671.6,399.2l4,2.3 M507.9,303.6l8.2,4.8 M641.3,421.1L469.8,320.9 M208.9,263
	l1,3.5l0.7,2.3l0.7,1.3l0.9,0.8 M208.9,263l-0.8-2.1l-0.5-2V257l0.2-0.6 M208.9,263l-4,2.3 M212.2,270.9l20,11.8 M208.8,270.6
	l3.4,0.3 M228.8,282.4l3.4,0.3 M269.1,298.3l0.9,3.5l0.8,2.3l0.7,1.3l0.8,0.8 M269.1,298.3l-0.9-2.1l-0.4-2v-1.9l0.1-0.5
	 M269.1,298.3l-4,2.4 M312.5,314.7l20.8,12.2 M272.3,306.2l16.1,9.4l3.8,2.3 M272.3,306.2l-3.4-0.3 M188.3,255.6l-0.7-0.5l-0.6-0.6
	l-0.3-0.6l-0.1-0.7 M292.5,318.1l0.4,0.1 M289.1,317.8l3.4,0.3 M293.9,317.6l-1.4,0.6l-1.8,0.1l-1.6-0.5 M268.9,305.9l20.2,11.9
	 M268.9,305.9l-1-0.7l-1.4-1.9l-1.3-2.3l-0.1-0.3 M233.8,282.3l-1.4,0.6l-1.8,0.1l-1.8-0.6 M228.8,282.4l-20-11.8 M208.8,270.6
	l-1.6-1.4l-1.3-1.9l-1-2 M187.3,259.1l0.2-0.5l0.2-0.4l0.2-0.5l0.1-0.4l0.1-0.5l0.1-0.4l0.1-0.4v-0.4 M180.4,272.5l6.9-13.4
	 M300.7,343.1l-120.3-70.6 M307.6,329.7l-120.3-70.6 M328.6,280.5v33.9 M326.4,321.6l-0.4-0.4l-0.4-0.5l-0.3-0.5l-0.2-0.6l-0.3-0.6
	l-0.1-0.7l-0.1-0.7v-0.8 M333.3,326.9l-6.9-5.3 M333.3,326.9l3.1-4.7 M336.4,322.2l-6.9-5.4 M329.5,316.8l-0.2-0.2l-0.2-0.2
	l-0.1-0.3l-0.2-0.3l-0.1-0.3l-0.1-0.3v-0.4v-0.4 M312.5,323.8v-52.7 M307.6,329.7l0.2-0.5l0.2-0.4l0.2-0.4l0.1-0.5l0.1-0.4l0.1-0.5
	v-0.4v-0.4 M307.6,329.7l-6.9,13.4 M300.7,343.1l3.1,1.2 M310.7,330.8l-6.9,13.5 M312.5,323.8v0.9l-0.1,0.8l-0.1,0.9l-0.2,0.9
	l-0.3,0.9l-0.3,0.9l-0.4,0.9l-0.4,0.8 M324.6,278.2v38.6 M204.3,145.5v-14.2 M325.9,216.8l-133.6-78.4 M204.3,131.3l122.9,72.2
	 M327.7,199.1L208.3,129 M200.3,129l0.9-0.4l0.9-0.3l1.1-0.2l1.1-0.1l1.1,0.1l1.1,0.2l1,0.3l0.8,0.4 M200.3,129l-12,7 M188.3,140.7
	l-0.7-0.5l-0.6-0.5l-0.3-0.7l-0.1-0.6l0.1-0.7l0.3-0.6l0.6-0.6l0.7-0.5 M192.3,138.4l12-7.1 M204.9,265.3l-0.8-2l-0.5-2.1v-1.8
	l0.5-1.5l0.9-1.1l1.2-0.5l1.5,0.1l1.6,0.7 M229.4,268.9l-20.1-11.8 M229.4,268.9l1.6,1.2l1.4,1.6l1.3,2l0.9,2l0.4,2.1l0.1,1.9
	l-0.5,1.5l-0.8,1.1 M233.8,282.3l31.3,18.4 M265.1,300.7l-0.9-2.1l-0.4-2.1v-1.8l0.4-1.5l0.9-1.1l1.3-0.4l1.4,0.1l1.7,0.6
	 M289.5,304.2l-20-11.8 M289.5,304.2l1.6,1.2l1.5,1.6l1.2,2l0.9,2.1l0.5,2v1.9l-0.5,1.5l-0.8,1.1 M293.9,317.6l14.6,8.6
	 M308.5,268.7v57.5 M308.5,268.7l67.9,39.9 M390.6,310.2l-1.5,0.7l-1.6,0.4l-1.6,0.1l-1.8-0.1l-1.9-0.3l-1.9-0.6l-1.9-0.8l-2-1
	 M398.9,305.6l-8.3,4.6 M401,304l-0.8,0.7l-1.3,0.9 M188.3,140.7l137.1,80.6 M188.3,255.6V140.7 M188.3,255.6l16.6,9.7 M347.2,272.5
	l85,49.1 M475.9,321.6l85-49.1 M432.2,321.6l0.7,0.3l0.9,0.1l0.9-0.1l0.7-0.3 M472.7,321.6l0.7,0.3l0.9,0.1l0.9-0.1l0.7-0.3
	 M675.9,496.4L675.9,496.4l1.2-1l1-1.5l0.5-1.8l0.2-2.2 M533.7,363.9L533.7,363.9l0.7-0.7 M593.5,398.8l0.1-0.1l0.5-0.6
	 M674.8,492.2l-0.2,2.2l-0.6,1.8l-0.9,1.5l-1.2,1l-1.5,0.6h-1.8l-1.8-0.4l-2-0.9 M664.8,498l-26.5-15.5 M678.8,408.9l-2.2-1.3
	 M674.8,412.4v79.8 M678.8,489.9l-4,2.3 M678.8,489.9v-81 M678.8,408.9l-2.2,1.3 M515.9,358v4.7 M515.9,362.7l91.3,53.3
	 M600.4,401.7l-2.3-0.3l-2.9-1.2l-2-1.7l-0.4-1.1 M540.4,366.7l-2-0.2l-3-1.2l-2-1.7l-0.4-1.2 M515.9,358l4.9-2.7 M607.6,411.6
	L515.9,358 M612.4,408.8l-4.8,2.8 M607.6,411.6v3.6 M489.3,114.9v0.2 M488.3,115.1v-0.2 M486.2,116v0.3 M486.2,116.3L486.2,116.3
	l-0.1,0.1v0.1 M489.4,115.3L489.4,115.3l-0.1-0.2 M489.3,115.1L489.3,115.1L489,115h-0.1h-0.1h-0.2h-0.1l-0.1,0.1h-0.1 M488.3,115.1
	l-2.1,1.2 M491.3,118.5v-0.2 M492.1,118.9v-0.1l-0.1-0.1h-0.1l-0.1-0.1h-0.1l-0.1-0.1h-0.2h-0.1 M491.3,118.5l-0.1,0.1H491l-0.1,0.1
	l-0.1,0.1h-0.1 M473.8,119.7l0.1,0.8l0.8,1.4l1.6,1.3l2.1,0.9l2.6,0.4l2.6,0.1l2.5-0.5l2.2-0.9l1.6-1.2l0.8-1.5l0.1-0.8
	 M484.3,114.3L484.3,114.3L484.3,114.3l-0.2-0.2H484h-0.1l-0.2-0.1 M492.1,118.7v0.2 M492.2,119.6l-0.1-0.7 M483.7,114H481l-2.7,0.5
	l-2.3,0.8l-1.9,1.2l-1.2,1.4l-0.5,1.5v0.2 M483.7,114v-0.2 M483.7,113.8H481l-2.7,0.4l-2.3,0.9l-1.9,1.1l-1.2,1.4l-0.5,1.6l0.3,1.6
	l0.9,1.5l1.7,1.2l2.2,1l2.6,0.5l2.7,0.2l2.7-0.3l2.4-0.7l2.1-1.1l1.4-1.3l0.7-1.6v-1.5 M483.7,113.8h0.2l0.1,0.1h0.1l0.1,0.1h0.1
	v0.1v0.1v0.1 M484.3,114.3v0.1h-0.1l-0.1,0.1H484l-0.1,0.1h-0.1h-0.1h-0.2 M483.5,114.6h-2.6l-2.5,0.5l-2.1,0.9l-1.6,1.3l-0.8,1.4
	v1.6l0.8,1.4l1.6,1.2l2.1,0.9l2.6,0.5h2.6l2.5-0.4l2.2-0.9l1.6-1.3l0.8-1.4v-1.5 M490.7,118.8L490.7,118.8v-0.2l0.1-0.1h0.1v-0.1
	h0.1l0.2-0.1h0.1 M491.3,118.3h0.1h0.2h0.1l0.1,0.1h0.1l0.1,0.1l0.1,0.1v0.1 M488.3,114.9l-2.1,1.1 M488.3,114.9l0.1-0.1h0.1h0.1
	h0.2h0.1h0.1h0.2l0.1,0.1 M489.3,114.9h0.1v0.1l0.1,0.1v0.1l-0.1,0.1v0.1l-0.1,0.1 M489.3,115.5l-2.1,1.1 M487.2,116.6l-0.1,0.1H487
	h-0.1h-0.2h-0.1h-0.1h-0.2l-0.1-0.1 M486.2,116.6L486.2,116.6l-0.1-0.1l-0.1-0.1v-0.1l0.1-0.1l0.1-0.1V116 M471.3,125.8l2.7,1.3
	l3.2,0.9l3.4,0.4h3.5l3.4-0.4l3.1-0.9l2.7-1.3l2.2-1.5l1.5-1.9l0.8-1.9v-2l-0.8-2l-1.5-1.8l-2.2-1.6l-2.7-1.2l-3.1-0.9l-3.4-0.5
	h-3.5l-3.4,0.5l-3.2,0.9l-2.7,1.2l-2.2,1.6l-1.5,1.8l-0.8,2v2l0.8,1.9l1.5,1.9L471.3,125.8 M430.6,105.4l2.2,0.9l2.5,0.4h2.6
	l2.6-0.4l2.1-0.9l1.6-1.3l0.8-1.4v-1.6l-0.8-1.4l-1.6-1.3l-2.1-0.9l-2.6-0.5h-2.6l-2.5,0.5l-2.2,0.9l-1.6,1.3l-0.8,1.4v1.6l0.8,1.4
	L430.6,105.4 M509.3,348.6L509.3,348.6l-3-1.2l-2-1.7 M488.8,341.3l4.1-2.3 M516.7,357.6l-27.9-16.3 M488.8,341.3l-0.8,0.5l-0.7,0.7
	l-0.7,0.8l-0.6,1l-0.5,1l-0.4,1l-0.2,1l-0.1,0.9 M516.7,357.6l-1.5,1.2l-1.3,1.8l-0.9,2l-0.3,1.9 M635.3,520.7h0.1l1.2-1l0.9-1.5
	l0.6-1.8l0.2-2.2 M512.7,364.5l3.2-1.8 M559.5,408.1v64.8 M569.5,490.3l-1.9-1.4l-1.9-1.7l-1.7-2.1l-1.6-2.3l-1.2-2.5l-0.9-2.6
	l-0.6-2.5l-0.2-2.3 M624.3,522.3l-54.8-32 M634.3,516.5l-0.2,2.2l-0.6,1.8l-0.9,1.5l-1.3,1l-1.5,0.6h-1.7l-1.9-0.4l-1.9-0.9
	 M606.4,419.2l-93.7-54.7 M512.7,364.5l-27.9-16.3 M484.8,364.4v-16.2 M559.5,408.1l-74.7-43.7 M630.9,419.6h-0.1l-2.9-1.2l-2-1.7
	 M676.6,406.7l-1-0.6 M614.4,410l-4,2.3 M638.3,428.6l-27.9-16.3 M610.4,412.3l-1.6,1.2l-1.3,1.8l-0.8,2l-0.3,1.9 M634.3,435.5
	l-27.9-16.3 M634.3,435.5v81 M634.3,516.5l4-2.3 M638.3,514.2v-81 M638.3,433.2l38.3-21.9 M676.6,406.7v4.6 M676.6,406.7l-38.3,21.9
	 M638.3,428.6l-1.6,1.2l-1.3,1.8l-0.8,2l-0.3,1.9 M567.4,330.3v-0.7 M559.3,330.3l-0.1-0.7 M565.6,334.2l-0.2-3.4 M563.3,335.1v-3.8
	 M561.1,334.2l0.2-3.4 M566.3,336.2l0.3-3 M560.3,336.2l-0.3-3 M567.3,336.7l0.2-2.3 M559.3,336.7l-0.2-2.3 M567.4,330.3l0.3,0.1
	l0.2,0.1l0.3,0.2l0.3,0.1l0.2,0.2l0.3,0.1v0.1 M565.6,334.2l1.8-3.9 M564.4,335.4l0.6-0.5l0.6-0.7 M561.1,334.2l1.2,1.2
	 M559.3,330.3l1.8,3.9 M557.6,331.2l0.1-0.1l0.2-0.1l0.3-0.2l0.2-0.1l0.3-0.2l0.3-0.1l0.3-0.1 M567.4,329.6l-2,1.2 M569.6,330.8
	l-0.3-0.2l-0.2-0.1l-0.2-0.2l-0.3-0.2l-0.3-0.1l-0.2-0.1l-0.3-0.2l-0.4-0.1 M567.5,332l2.1-1.2 M566.6,333.2l0.9-1.2 M567.5,334.4
	l-0.9-1.2 M569.6,335.6l-2.1-1.2 M567.4,336.8l0.4-0.1l0.3-0.1l0.2-0.2l0.3-0.1l0.3-0.2l0.2-0.2l0.2-0.1l0.3-0.2 M565.4,335.6l2,1.2
	 M563.3,335.1l2.1,0.5 M561.3,335.6l2-0.5 M559.2,336.8l2.1-1.2 M557.1,335.6l0.2,0.2l0.2,0.1l0.3,0.2l0.2,0.2l0.3,0.1l0.3,0.2
	l0.3,0.1l0.3,0.1 M559.1,334.4l-2,1.2 M560,333.2l-0.9,1.2 M559.1,332l0.9,1.2 M557.1,330.8l2,1.2 M559.2,329.6l-0.3,0.1l-0.3,0.2
	l-0.3,0.1l-0.3,0.1l-0.2,0.2l-0.3,0.2l-0.2,0.1l-0.2,0.2 M561.3,330.8l-2.1-1.2 M563.3,331.3l-2-0.5 M565.4,330.8l-2.1,0.5
	 M555.4,328.6l2.3-1l2.7-0.7l2.9-0.2l2.9,0.2l2.7,0.7l2.4,1l1.7,1.4l1.2,1.5l0.4,1.7l-0.4,1.7l-1.2,1.5l-1.7,1.4l-2.4,1l-2.7,0.7
	l-2.9,0.2l-2.9-0.2l-2.7-0.7l-2.3-1l-1.8-1.4l-1.1-1.5l-0.4-1.7l0.4-1.7l1.1-1.5L555.4,328.6 M627.1,365.2l0.1-0.7 M619.1,365.2
	l-0.1-0.7 M625.4,369.1l-0.2-3.4 M623.1,370v-3.8 M620.8,369.1l0.2-3.4 M626.1,371.1l0.3-3 M620.1,371.1l-0.3-3 M627.1,371.6
	l0.2-2.3 M619.1,371.6l-0.2-2.3 M627.1,365.2l0.3,0.1l0.3,0.2l0.3,0.1l0.3,0.1l0.2,0.2l0.2,0.1l0.1,0.1 M625.4,369.1l1.7-3.9
	 M624.2,370.3l0.5-0.5l0.7-0.7 M620.8,369.1l1.2,1.2 M619.1,365.2l1.7,3.9 M617.4,366.1l0.1-0.1l0.2-0.1l0.2-0.2l0.3-0.1l0.3-0.1
	l0.3-0.2l0.3-0.1 M627.2,364.5l-2,1.2 M629.3,365.7l-0.2-0.1l-0.2-0.2l-0.2-0.2l-0.3-0.1l-0.3-0.2l-0.3-0.1l-0.3-0.2l-0.3-0.1
	 M627.3,366.9l2-1.2 M626.4,368.1l0.9-1.2 M627.3,369.3l-0.9-1.2 M629.3,370.5l-2-1.2 M627.2,371.7l0.3-0.1l0.3-0.1l0.3-0.2l0.3-0.1
	l0.3-0.2l0.2-0.1l0.2-0.2l0.2-0.2 M625.2,370.5l2,1.2 M623.1,370l2.1,0.5 M621,370.5l2.1-0.5 M619,371.7l2-1.2 M616.9,370.5l0.2,0.2
	l0.2,0.2l0.2,0.1l0.3,0.2l0.3,0.1l0.3,0.2l0.3,0.1l0.3,0.1 M618.9,369.3l-2,1.2 M619.8,368.1l-0.9,1.2 M618.9,366.9l0.9,1.2
	 M616.9,365.7l2,1.2 M619,364.5l-0.3,0.1l-0.3,0.2l-0.3,0.1l-0.3,0.2l-0.3,0.1l-0.2,0.2l-0.2,0.2l-0.2,0.1 M621,365.7l-2-1.2
	 M623.1,366.2l-2.1-0.5 M625.2,365.7l-2.1,0.5 M615.2,363.5l2.3-1l2.7-0.6l2.9-0.3l2.9,0.3l2.7,0.6l2.3,1l1.8,1.4l1.1,1.5l0.4,1.7
	l-0.4,1.7l-1.1,1.6l-1.8,1.3l-2.3,1l-2.7,0.7l-2.9,0.2l-2.9-0.2l-2.7-0.7l-2.3-1l-1.8-1.3l-1.1-1.6l-0.4-1.7l0.4-1.7l1.1-1.5
	L615.2,363.5 M632.8,393l-0.1-0.7 M640.9,393l0.1-0.7 M639.1,396.9l-0.2-3.4 M636.9,397.9V394 M634.6,396.9l0.2-3.4 M639.8,398.9
	l0.4-3 M633.9,398.9l-0.4-3 M640.8,399.5l0.2-2.4 M632.9,399.5l-0.2-2.4 M640.9,393l0.3,0.1l0.3,0.2l0.2,0.1l0.3,0.2l0.3,0.1
	l0.2,0.2 M639.1,396.9l1.8-3.9 M638,398.1l0.5-0.5l0.6-0.7 M634.6,396.9l1.2,1.2 M632.8,393l1.8,3.9 M631.2,393.9L631.2,393.9
	l0.2-0.2l0.3-0.1l0.3-0.2l0.2-0.1l0.3-0.2l0.3-0.1 M641,392.3l-2.1,1.2 M643.1,393.6l-0.2-0.2l-0.2-0.2l-0.3-0.2l-0.3-0.1l-0.2-0.2
	l-0.3-0.1l-0.3-0.1l-0.3-0.2 M641,394.7l2.1-1.1 M640.2,395.9l0.8-1.2 M641,397.1l-0.8-1.2 M643.1,398.3l-2.1-1.2 M641,399.5
	l0.3-0.1l0.3-0.1l0.3-0.2l0.2-0.1l0.3-0.2l0.3-0.1l0.2-0.2l0.2-0.2 M638.9,398.4l2.1,1.1 M636.9,397.9l2,0.5 M634.8,398.4l2.1-0.5
	 M632.7,399.5l2.1-1.1 M630.6,398.3l0.2,0.2l0.3,0.2l0.2,0.1l0.3,0.2l0.2,0.1l0.3,0.2l0.3,0.1l0.3,0.1 M632.7,397.1l-2.1,1.2
	 M633.5,395.9l-0.8,1.2 M632.7,394.7l0.8,1.2 M630.6,393.6l2.1,1.1 M632.7,392.3l-0.3,0.2l-0.3,0.1l-0.3,0.1l-0.2,0.2l-0.3,0.1
	l-0.2,0.2l-0.3,0.2l-0.2,0.2 M634.8,393.5l-2.1-1.2 M636.9,394l-2.1-0.5 M638.9,393.5l-2,0.5 M628.9,391.4l2.3-1.1l2.7-0.6l3-0.2
	l2.9,0.2l2.7,0.6l2.3,1.1l1.8,1.3l1.1,1.6l0.4,1.6l-0.4,1.7l-1.1,1.6l-1.8,1.3l-2.3,1.1l-2.7,0.6l-2.9,0.2l-3-0.2l-2.7-0.6l-2.3-1.1
	l-1.8-1.3l-1.1-1.6l-0.4-1.7l0.4-1.6l1.1-1.6L628.9,391.4 M511.3,322l-0.1-0.7 M519.3,322l0.1-0.7 M517.6,325.9l-0.2-3.4
	 M515.3,326.9V323 M513,325.9l0.2-3.4 M518.3,327.9l0.3-3 M512.3,327.9l-0.3-3 M519.3,328.5l0.2-2.4 M511.3,328.5l-0.2-2.4
	 M519.3,322l0.3,0.2l0.3,0.1l0.3,0.1l0.3,0.2l0.2,0.1l0.2,0.2h0.1 M517.6,325.9l1.7-3.9 M516.4,327.1l0.5-0.5l0.7-0.7 M513,325.9
	l1.2,1.2 M511.3,322l1.7,3.9 M509.6,322.9h0.1l0.2-0.2l0.2-0.1l0.3-0.2l0.3-0.1l0.3-0.1l0.3-0.2 M519.4,321.3l-2,1.2 M521.5,322.6
	l-0.2-0.2l-0.2-0.2l-0.2-0.2l-0.3-0.1l-0.3-0.2l-0.3-0.1l-0.3-0.1l-0.3-0.2 M519.5,323.8l2-1.2 M518.6,324.9l0.9-1.1 M519.5,326.1
	l-0.9-1.2 M521.5,327.3l-2-1.2 M519.4,328.5l0.3-0.1l0.3-0.1l0.3-0.2l0.3-0.1l0.3-0.2l0.2-0.1l0.2-0.2l0.2-0.2 M517.4,327.4l2,1.1
	 M515.3,326.9l2.1,0.5 M513.2,327.4l2.1-0.5 M511.2,328.5l2-1.1 M509,327.3l0.3,0.2l0.2,0.2l0.2,0.1l0.3,0.2l0.3,0.1l0.3,0.2
	l0.3,0.1l0.3,0.1 M511.1,326.1l-2.1,1.2 M512,324.9l-0.9,1.2 M511.1,323.8l0.9,1.1 M509,322.6l2.1,1.2 M511.2,321.3l-0.3,0.2
	l-0.3,0.1l-0.3,0.1l-0.3,0.2l-0.3,0.1l-0.2,0.2l-0.2,0.2l-0.3,0.2 M513.2,322.5l-2-1.2 M515.3,323l-2.1-0.5 M517.4,322.5l-2.1,0.5
	 M507.4,320.4l2.3-1.1l2.7-0.6l2.9-0.2l2.9,0.2l2.7,0.6l2.3,1.1l1.8,1.3l1.1,1.6l0.4,1.6l-0.4,1.7l-1.1,1.6l-1.8,1.3l-2.3,1.1
	l-2.7,0.6l-2.9,0.2l-2.9-0.2l-2.7-0.6l-2.3-1.1l-1.8-1.3l-1.2-1.6l-0.3-1.7l0.3-1.6l1.2-1.6L507.4,320.4 M491,324.1v6.9 M676.5,395
	v-6.9 M479.9,58.5l-6.6-3l-6.2-1.7l-5.5-0.9l-4.4-0.3l-4.9,0.1l-6.1,0.8l-7,1.7l-3.6,1.4l-3.6,1.8 M556.8,102.8l-76.9-44.3
	 M432,58.4l-78.1,45.1 M353.9,103.5l-3.7,2.5l-3.6,3l-3.4,3.4l-3.2,3.8 M340,116.2l-2.2,3.5l-1.5,3.6l-1.6,7.2 M334.7,130.5
	l-12.2,118.8 M568.8,119.5l-1.5-5.6l-2.9-4.7l-3.7-3.7l-3.9-2.7 M578.8,248.4l-10-128.9 M186.6,138.4v114.8 M399.1,305.5l2.2-1.3
	 M346.5,271.6l0.1,0.5l0.2,0.4l0.3,0.4l0.4,0.2 M560.6,273.1l0.4-0.2l0.3-0.4l0.2-0.4l0.1-0.5 M346.2,267.8l0.3,4 M561.6,271.8
	l0.4-4.1 M435.1,322.2l2.6-1.5 M347.5,273.1l85,49.1 M475.6,322.2l85.1-49.1 M470.3,320.6l2.7,1.6 M473,322.2l0.6,0.2l0.7,0.1
	l0.7-0.1l0.6-0.2 M432.5,322.2l0.6,0.2l0.3,0.1h0.4h0.4l0.4-0.1l0.5-0.2 M671.9,498.7l4-2.3 M490.8,119.7v-0.2 M473.8,119.5v0.2
	 M466.7,119.5v0.2 M497.9,119.7v-0.2 M631.3,523l4-2.3 M569.5,339.2l2.7-2 M554.5,337.2l2.6,2 M629.3,374.1l2.7-2 M614.2,372.1
	l2.7,2 M643,401.9l2.7-2 M628,399.9l2.7,2 M521.5,330.9l2.7-2 M506.4,328.9l2.7,2"/>
<g>
	<path d="M90.1,73.8c-0.1-1.1-0.1-2.5-0.1-3.5h0c-0.3,0.9-0.6,2-1,3.1l-1.4,3.9h-0.8l-1.3-3.9c-0.4-1.1-0.7-2.2-0.9-3.1h0
		c0,1-0.1,2.4-0.2,3.6L84,77.3h-1l0.6-8.1h1.3l1.4,3.9c0.3,1,0.6,1.9,0.8,2.7h0c0.2-0.8,0.5-1.7,0.9-2.7l1.4-3.9h1.3l0.5,8.1h-1
		L90.1,73.8z"/>
	<path d="M98.2,74.4c0,2.1-1.5,3.1-2.9,3.1c-1.6,0-2.8-1.2-2.8-3c0-1.9,1.3-3.1,2.9-3.1C97.1,71.4,98.2,72.6,98.2,74.4z M93.6,74.4
		c0,1.3,0.7,2.2,1.8,2.2c1,0,1.8-0.9,1.8-2.3c0-1-0.5-2.2-1.7-2.2C94.1,72.2,93.6,73.3,93.6,74.4z"/>
	<path d="M104.4,75.7c0,0.6,0,1.1,0,1.6h-0.9l-0.1-0.9h0c-0.3,0.5-0.9,1.1-1.9,1.1c-0.9,0-2-0.5-2-2.5v-3.4h1.1v3.2
		c0,1.1,0.3,1.8,1.3,1.8c0.7,0,1.2-0.5,1.4-1c0.1-0.2,0.1-0.3,0.1-0.5v-3.6h1.1V75.7z"/>
	<path d="M106.1,73.1c0-0.6,0-1.1,0-1.6h0.9l0.1,1h0c0.3-0.6,1-1.1,1.9-1.1c0.8,0,2.1,0.5,2.1,2.5v3.5H110V74c0-0.9-0.3-1.7-1.3-1.7
		c-0.7,0-1.2,0.5-1.4,1.1c0,0.1-0.1,0.3-0.1,0.5v3.5h-1.1V73.1z"/>
	<path d="M114,69.8v1.7h1.5v0.8H114v3.1c0,0.7,0.2,1.1,0.8,1.1c0.3,0,0.5,0,0.6-0.1l0,0.8c-0.2,0.1-0.5,0.1-0.9,0.1
		c-0.5,0-0.9-0.2-1.1-0.4c-0.3-0.3-0.4-0.8-0.4-1.5v-3.2h-0.9v-0.8h0.9v-1.4L114,69.8z"/>
	<path d="M117.9,69.9c0,0.4-0.3,0.6-0.7,0.6c-0.4,0-0.6-0.3-0.6-0.6c0-0.4,0.3-0.7,0.7-0.7C117.7,69.2,117.9,69.5,117.9,69.9z
		 M116.7,77.3v-5.8h1.1v5.8H116.7z"/>
	<path d="M119.5,73.1c0-0.6,0-1.1,0-1.6h0.9l0.1,1h0c0.3-0.6,1-1.1,1.9-1.1c0.8,0,2.1,0.5,2.1,2.5v3.5h-1.1V74
		c0-0.9-0.3-1.7-1.3-1.7c-0.7,0-1.2,0.5-1.4,1.1c0,0.1-0.1,0.3-0.1,0.5v3.5h-1.1V73.1z"/>
	<path d="M131.2,71.5c0,0.4,0,0.9,0,1.6v3.4c0,1.3-0.3,2.1-0.8,2.7c-0.6,0.5-1.4,0.7-2.1,0.7c-0.7,0-1.5-0.2-1.9-0.5l0.3-0.8
		c0.4,0.2,1,0.5,1.7,0.5c1.1,0,1.9-0.6,1.9-2v-0.6h0c-0.3,0.5-0.9,1-1.8,1c-1.4,0-2.5-1.2-2.5-2.8c0-2,1.3-3.1,2.6-3.1
		c1,0,1.6,0.5,1.8,1h0l0-0.9H131.2z M130.1,73.8c0-0.2,0-0.3-0.1-0.5c-0.2-0.6-0.7-1.1-1.5-1.1c-1,0-1.7,0.9-1.7,2.2
		c0,1.1,0.6,2.1,1.7,2.1c0.6,0,1.2-0.4,1.5-1.1c0.1-0.2,0.1-0.4,0.1-0.6V73.8z"/>
	<path d="M135.5,69.3c0.5-0.1,1.2-0.2,1.9-0.2c1,0,1.7,0.2,2.2,0.6c0.4,0.3,0.7,0.8,0.7,1.4c0,0.8-0.5,1.5-1.4,1.8v0
		c0.8,0.2,1.7,0.8,1.7,2c0,0.7-0.3,1.2-0.7,1.6c-0.6,0.5-1.5,0.8-2.8,0.8c-0.7,0-1.3,0-1.6-0.1V69.3z M136.5,72.6h0.9
		c1.1,0,1.8-0.6,1.8-1.4c0-0.9-0.7-1.3-1.8-1.3c-0.5,0-0.8,0-0.9,0.1V72.6z M136.5,76.5c0.2,0,0.5,0,0.9,0c1.1,0,2.1-0.4,2.1-1.6
		c0-1.1-0.9-1.6-2.1-1.6h-0.9V76.5z"/>
	<path d="M142,73.3c0-0.7,0-1.3,0-1.8h0.9l0,1.1h0c0.3-0.8,0.9-1.3,1.6-1.3c0.1,0,0.2,0,0.3,0v1c-0.1,0-0.2,0-0.4,0
		c-0.7,0-1.3,0.6-1.4,1.4c0,0.1,0,0.3,0,0.5v3.1h-1V73.3z"/>
	<path d="M149,77.3l-0.1-0.7h0c-0.3,0.5-0.9,0.9-1.8,0.9c-1.2,0-1.8-0.8-1.8-1.7c0-1.4,1.2-2.2,3.5-2.2v-0.1c0-0.5-0.1-1.3-1.3-1.3
		c-0.5,0-1.1,0.2-1.5,0.4l-0.2-0.7c0.5-0.3,1.2-0.5,1.9-0.5c1.8,0,2.2,1.2,2.2,2.4v2.2c0,0.5,0,1,0.1,1.4H149z M148.9,74.3
		c-1.2,0-2.5,0.2-2.5,1.3c0,0.7,0.5,1,1,1c0.8,0,1.2-0.5,1.4-1c0-0.1,0.1-0.2,0.1-0.3V74.3z"/>
	<path d="M155.7,77.1c-0.3,0.1-0.9,0.3-1.7,0.3c-1.8,0-2.9-1.2-2.9-3c0-1.8,1.2-3.1,3.1-3.1c0.6,0,1.2,0.2,1.5,0.3l-0.2,0.8
		c-0.3-0.1-0.6-0.3-1.2-0.3c-1.3,0-2.1,1-2.1,2.2c0,1.3,0.9,2.2,2,2.2c0.6,0,1-0.2,1.3-0.3L155.7,77.1z"/>
	<path d="M158,74.2L158,74.2c0.2-0.2,0.4-0.5,0.5-0.7l1.7-2h1.3l-2.2,2.4l2.6,3.4h-1.3l-2-2.8l-0.5,0.6v2.2h-1v-8.5h1V74.2z"/>
	<path d="M163.2,74.6c0,1.4,0.9,2,2,2c0.8,0,1.2-0.1,1.6-0.3l0.2,0.8c-0.4,0.2-1,0.4-1.9,0.4c-1.8,0-2.9-1.2-2.9-2.9s1-3.1,2.7-3.1
		c1.9,0,2.4,1.7,2.4,2.7c0,0.2,0,0.4,0,0.5H163.2z M166.3,73.8c0-0.7-0.3-1.7-1.5-1.7c-1.1,0-1.5,1-1.6,1.7H166.3z"/>
	<path d="M169.9,69.8v1.7h1.5v0.8h-1.5v3.1c0,0.7,0.2,1.1,0.8,1.1c0.3,0,0.5,0,0.6-0.1l0,0.8c-0.2,0.1-0.5,0.1-0.9,0.1
		c-0.5,0-0.9-0.2-1.1-0.4c-0.3-0.3-0.4-0.8-0.4-1.5v-3.2H168v-0.8h0.9v-1.4L169.9,69.8z"/>
</g>
<g>
	<path d="M346.3,32.2h1v7.2h3.5v0.9h-4.5V32.2z"/>
	<path d="M356.1,36.5H353v2.9h3.5v0.9h-4.5v-8.1h4.4v0.9H353v2.6h3.1V36.5z"/>
	<path d="M357.8,32.3c0.6-0.1,1.4-0.2,2.2-0.2c1.5,0,2.6,0.3,3.3,1c0.7,0.7,1.1,1.6,1.1,2.9c0,1.3-0.4,2.4-1.2,3.1
		c-0.8,0.8-2,1.2-3.6,1.2c-0.7,0-1.4,0-1.9-0.1V32.3z M358.9,39.5c0.3,0,0.6,0.1,1.1,0.1c2.2,0,3.4-1.2,3.4-3.4
		c0-1.9-1.1-3.1-3.3-3.1c-0.5,0-0.9,0-1.2,0.1V39.5z"/>
	<path d="M369.4,32.2v8.1h-1v-8.1H369.4z"/>
	<path d="M371.3,36.1c0-0.6,0-1.1,0-1.6h0.9l0.1,1h0c0.3-0.6,1-1.1,1.9-1.1c0.8,0,2.1,0.5,2.1,2.5v3.5h-1.1V37
		c0-0.9-0.3-1.7-1.3-1.7c-0.7,0-1.2,0.5-1.4,1.1c0,0.1-0.1,0.3-0.1,0.5v3.5h-1.1V36.1z"/>
	<path d="M383,31.8v7c0,0.5,0,1.1,0,1.5h-0.9l0-1h0c-0.3,0.6-1,1.1-2,1.1c-1.4,0-2.5-1.2-2.5-3c0-1.9,1.2-3.1,2.6-3.1
		c0.9,0,1.5,0.4,1.8,0.9h0v-3.5H383z M381.9,36.9c0-0.1,0-0.3,0-0.4c-0.2-0.7-0.7-1.2-1.5-1.2c-1.1,0-1.7,1-1.7,2.2
		c0,1.2,0.6,2.1,1.7,2.1c0.7,0,1.4-0.5,1.5-1.3c0-0.1,0-0.3,0-0.5V36.9z"/>
	<path d="M385.9,32.9c0,0.4-0.3,0.6-0.7,0.6c-0.4,0-0.6-0.3-0.6-0.6c0-0.4,0.3-0.7,0.7-0.7C385.7,32.2,385.9,32.5,385.9,32.9z
		 M384.7,40.3v-5.8h1.1v5.8H384.7z"/>
	<path d="M391.7,40.1c-0.3,0.1-0.9,0.3-1.7,0.3c-1.8,0-2.9-1.2-2.9-3c0-1.8,1.2-3.1,3.1-3.1c0.6,0,1.2,0.2,1.5,0.3l-0.2,0.8
		c-0.3-0.1-0.6-0.3-1.2-0.3c-1.3,0-2.1,1-2.1,2.2c0,1.3,0.9,2.2,2,2.2c0.6,0,1-0.2,1.3-0.3L391.7,40.1z"/>
	<path d="M396.1,40.3l-0.1-0.7h0c-0.3,0.5-0.9,0.9-1.8,0.9c-1.2,0-1.8-0.8-1.8-1.7c0-1.4,1.2-2.2,3.5-2.2v-0.1
		c0-0.5-0.1-1.3-1.3-1.3c-0.5,0-1.1,0.2-1.5,0.4l-0.2-0.7c0.5-0.3,1.2-0.5,1.9-0.5c1.8,0,2.2,1.2,2.2,2.4v2.2c0,0.5,0,1,0.1,1.4
		H396.1z M396,37.3c-1.2,0-2.5,0.2-2.5,1.3c0,0.7,0.5,1,1,1c0.8,0,1.2-0.5,1.4-1c0-0.1,0.1-0.2,0.1-0.3V37.3z"/>
	<path d="M399.9,32.8v1.7h1.5v0.8h-1.5v3.1c0,0.7,0.2,1.1,0.8,1.1c0.3,0,0.5,0,0.6-0.1l0,0.8c-0.2,0.1-0.5,0.1-0.9,0.1
		c-0.5,0-0.9-0.2-1.1-0.4c-0.3-0.3-0.4-0.8-0.4-1.5v-3.2H398v-0.8h0.9v-1.4L399.9,32.8z"/>
	<path d="M407.8,37.4c0,2.1-1.5,3.1-2.9,3.1c-1.6,0-2.8-1.2-2.8-3c0-1.9,1.3-3.1,2.9-3.1C406.7,34.4,407.8,35.6,407.8,37.4z
		 M403.2,37.4c0,1.3,0.7,2.2,1.8,2.2c1,0,1.8-0.9,1.8-2.3c0-1-0.5-2.2-1.7-2.2C403.7,35.2,403.2,36.3,403.2,37.4z"/>
	<path d="M409.2,36.3c0-0.7,0-1.3,0-1.8h0.9l0,1.1h0c0.3-0.8,0.9-1.3,1.6-1.3c0.1,0,0.2,0,0.3,0v1c-0.1,0-0.2,0-0.4,0
		c-0.7,0-1.3,0.6-1.4,1.4c0,0.1,0,0.3,0,0.5v3.1h-1V36.3z"/>
</g>
<g>
	<path d="M528.2,48.2c0,2.8-1.7,4.3-3.8,4.3c-2.1,0-3.6-1.7-3.6-4.1c0-2.6,1.6-4.2,3.8-4.2C526.7,44.1,528.2,45.8,528.2,48.2z
		 M521.9,48.3c0,1.7,0.9,3.3,2.6,3.3c1.7,0,2.6-1.5,2.6-3.4c0-1.6-0.8-3.3-2.6-3.3C522.8,44.9,521.9,46.5,521.9,48.3z"/>
	<path d="M529.5,48.4c0-0.7,0-1.3,0-1.9h0.9l0,1h0c0.4-0.7,1.1-1.1,2.1-1.1c1.4,0,2.5,1.2,2.5,3c0,2.1-1.3,3.1-2.6,3.1
		c-0.8,0-1.4-0.3-1.8-0.9h0v3.2h-1V48.4z M530.5,49.9c0,0.2,0,0.3,0,0.4c0.2,0.7,0.8,1.2,1.6,1.2c1.1,0,1.8-0.9,1.8-2.2
		c0-1.2-0.6-2.2-1.7-2.2c-0.7,0-1.4,0.5-1.6,1.3c0,0.1-0.1,0.3-0.1,0.4V49.9z"/>
	<path d="M536.9,49.6c0,1.4,0.9,2,2,2c0.8,0,1.2-0.1,1.6-0.3l0.2,0.8c-0.4,0.2-1,0.4-1.9,0.4c-1.8,0-2.9-1.2-2.9-2.9s1-3.1,2.7-3.1
		c1.9,0,2.4,1.7,2.4,2.7c0,0.2,0,0.4,0,0.5H536.9z M540,48.8c0-0.7-0.3-1.7-1.5-1.7c-1.1,0-1.5,1-1.6,1.7H540z"/>
	<path d="M542.3,48.1c0-0.6,0-1.1,0-1.6h0.9l0.1,1h0c0.3-0.6,1-1.1,1.9-1.1c0.8,0,2.1,0.5,2.1,2.5v3.5h-1.1V49
		c0-0.9-0.3-1.7-1.3-1.7c-0.7,0-1.2,0.5-1.4,1.1c0,0.1-0.1,0.3-0.1,0.5v3.5h-1.1V48.1z"/>
	<path d="M548.1,52.8l3.3-8.7h0.8l-3.4,8.7H548.1z"/>
	<path d="M558.8,52c-0.4,0.2-1.2,0.4-2.1,0.4c-2.3,0-4-1.4-4-4.1c0-2.5,1.7-4.2,4.2-4.2c1,0,1.6,0.2,1.9,0.4l-0.3,0.9
		c-0.4-0.2-1-0.3-1.6-0.3c-1.9,0-3.2,1.2-3.2,3.3c0,2,1.1,3.3,3.1,3.3c0.6,0,1.3-0.1,1.7-0.3L558.8,52z"/>
	<path d="M560.1,43.8h1.1v8.5h-1.1V43.8z"/>
	<path d="M568.2,49.4c0,2.1-1.5,3.1-2.9,3.1c-1.6,0-2.8-1.2-2.8-3c0-1.9,1.3-3.1,2.9-3.1C567,46.4,568.2,47.6,568.2,49.4z
		 M563.5,49.4c0,1.3,0.7,2.2,1.8,2.2c1,0,1.8-0.9,1.8-2.3c0-1-0.5-2.2-1.7-2.2C564.1,47.2,563.5,48.3,563.5,49.4z"/>
	<path d="M569.3,51.2c0.3,0.2,0.9,0.4,1.4,0.4c0.8,0,1.1-0.4,1.1-0.9c0-0.5-0.3-0.8-1.1-1.1c-1-0.4-1.5-0.9-1.5-1.6
		c0-0.9,0.8-1.7,2-1.7c0.6,0,1.1,0.2,1.4,0.4l-0.3,0.8c-0.2-0.1-0.6-0.3-1.2-0.3c-0.6,0-1,0.4-1,0.8c0,0.5,0.3,0.7,1.1,1
		c1,0.4,1.5,0.9,1.5,1.8c0,1-0.8,1.7-2.2,1.7c-0.6,0-1.2-0.2-1.6-0.4L569.3,51.2z"/>
	<path d="M574.8,49.6c0,1.4,0.9,2,2,2c0.8,0,1.2-0.1,1.6-0.3l0.2,0.8c-0.4,0.2-1,0.4-1.9,0.4c-1.8,0-2.9-1.2-2.9-2.9s1-3.1,2.7-3.1
		c1.9,0,2.4,1.7,2.4,2.7c0,0.2,0,0.4,0,0.5H574.8z M577.9,48.8c0-0.7-0.3-1.7-1.5-1.7c-1.1,0-1.5,1-1.6,1.7H577.9z"/>
	<path d="M582.8,44.3c0.5-0.1,1.2-0.2,1.9-0.2c1,0,1.7,0.2,2.2,0.6c0.4,0.3,0.7,0.8,0.7,1.4c0,0.8-0.5,1.5-1.4,1.8v0
		c0.8,0.2,1.7,0.8,1.7,2c0,0.7-0.3,1.2-0.7,1.6c-0.6,0.5-1.5,0.8-2.8,0.8c-0.7,0-1.3,0-1.6-0.1V44.3z M583.9,47.6h0.9
		c1.1,0,1.8-0.6,1.8-1.4c0-0.9-0.7-1.3-1.8-1.3c-0.5,0-0.8,0-0.9,0.1V47.6z M583.9,51.5c0.2,0,0.5,0,0.9,0c1.1,0,2.1-0.4,2.1-1.6
		c0-1.1-0.9-1.6-2.1-1.6h-0.9V51.5z"/>
	<path d="M594.2,50.7c0,0.6,0,1.1,0,1.6h-0.9l-0.1-0.9h0c-0.3,0.5-0.9,1.1-1.9,1.1c-0.9,0-2-0.5-2-2.5v-3.4h1.1v3.2
		c0,1.1,0.3,1.8,1.3,1.8c0.7,0,1.2-0.5,1.4-1c0.1-0.2,0.1-0.3,0.1-0.5v-3.6h1.1V50.7z"/>
	<path d="M597.2,44.8v1.7h1.5v0.8h-1.5v3.1c0,0.7,0.2,1.1,0.8,1.1c0.3,0,0.5,0,0.6-0.1l0,0.8c-0.2,0.1-0.5,0.1-0.9,0.1
		c-0.5,0-0.9-0.2-1.1-0.4c-0.3-0.3-0.4-0.8-0.4-1.5v-3.2h-0.9v-0.8h0.9v-1.4L597.2,44.8z"/>
	<path d="M601.2,44.8v1.7h1.5v0.8h-1.5v3.1c0,0.7,0.2,1.1,0.8,1.1c0.3,0,0.5,0,0.6-0.1l0,0.8c-0.2,0.1-0.5,0.1-0.9,0.1
		c-0.5,0-0.9-0.2-1.1-0.4c-0.3-0.3-0.4-0.8-0.4-1.5v-3.2h-0.9v-0.8h0.9v-1.4L601.2,44.8z"/>
	<path d="M609,49.4c0,2.1-1.5,3.1-2.9,3.1c-1.6,0-2.8-1.2-2.8-3c0-1.9,1.3-3.1,2.9-3.1C607.9,46.4,609,47.6,609,49.4z M604.4,49.4
		c0,1.3,0.7,2.2,1.8,2.2c1,0,1.8-0.9,1.8-2.3c0-1-0.5-2.2-1.7-2.2C605,47.2,604.4,48.3,604.4,49.4z"/>
	<path d="M610.4,48.1c0-0.6,0-1.1,0-1.6h0.9l0.1,1h0c0.3-0.6,1-1.1,1.9-1.1c0.8,0,2.1,0.5,2.1,2.5v3.5h-1.1V49
		c0-0.9-0.3-1.7-1.3-1.7c-0.7,0-1.2,0.5-1.4,1.1c0,0.1-0.1,0.3-0.1,0.5v3.5h-1.1V48.1z"/>
</g>
<g>
	<path d="M624.1,170.8c-0.1-1.1-0.1-2.5-0.1-3.5h0c-0.3,0.9-0.6,2-1,3.1l-1.4,3.9h-0.8l-1.3-3.9c-0.4-1.1-0.7-2.2-0.9-3.1h0
		c0,1-0.1,2.4-0.2,3.6l-0.2,3.5h-1l0.6-8.1h1.3l1.4,3.9c0.3,1,0.6,1.9,0.8,2.7h0c0.2-0.8,0.5-1.7,0.9-2.7l1.4-3.9h1.3l0.5,8.1h-1
		L624.1,170.8z"/>
	<path d="M632.2,171.4c0,2.1-1.5,3.1-2.9,3.1c-1.6,0-2.8-1.2-2.8-3c0-1.9,1.3-3.1,2.9-3.1C631.1,168.4,632.2,169.6,632.2,171.4z
		 M627.6,171.4c0,1.3,0.7,2.2,1.8,2.2c1,0,1.8-0.9,1.8-2.3c0-1-0.5-2.2-1.7-2.2C628.1,169.2,627.6,170.3,627.6,171.4z"/>
	<path d="M634.8,166.8v1.7h1.5v0.8h-1.5v3.1c0,0.7,0.2,1.1,0.8,1.1c0.3,0,0.5,0,0.6-0.1l0,0.8c-0.2,0.1-0.5,0.1-0.9,0.1
		c-0.5,0-0.9-0.2-1.1-0.4c-0.3-0.3-0.4-0.8-0.4-1.5v-3.2h-0.9v-0.8h0.9v-1.4L634.8,166.8z"/>
	<path d="M642.7,171.4c0,2.1-1.5,3.1-2.9,3.1c-1.6,0-2.8-1.2-2.8-3c0-1.9,1.3-3.1,2.9-3.1C641.6,168.4,642.7,169.6,642.7,171.4z
		 M638.1,171.4c0,1.3,0.7,2.2,1.8,2.2c1,0,1.8-0.9,1.8-2.3c0-1-0.5-2.2-1.7-2.2C638.6,169.2,638.1,170.3,638.1,171.4z"/>
	<path d="M644,170.3c0-0.7,0-1.3,0-1.8h0.9l0,1.1h0c0.3-0.8,0.9-1.3,1.6-1.3c0.1,0,0.2,0,0.3,0v1c-0.1,0-0.2,0-0.4,0
		c-0.7,0-1.3,0.6-1.4,1.4c0,0.1,0,0.3,0,0.5v3.1h-1V170.3z"/>
	<path d="M651.8,171.8l-0.8,2.5h-1.1l2.7-8.1h1.3l2.8,8.1h-1.1l-0.9-2.5H651.8z M654.5,170.9l-0.8-2.3c-0.2-0.5-0.3-1-0.4-1.5h0
		c-0.1,0.5-0.3,1-0.4,1.5l-0.8,2.3H654.5z"/>
	<path d="M657.6,173.2c0.3,0.2,0.9,0.4,1.4,0.4c0.8,0,1.1-0.4,1.1-0.9c0-0.5-0.3-0.8-1.1-1.1c-1-0.4-1.5-0.9-1.5-1.6
		c0-0.9,0.8-1.7,2-1.7c0.6,0,1.1,0.2,1.4,0.4l-0.3,0.8c-0.2-0.1-0.6-0.3-1.2-0.3c-0.6,0-1,0.4-1,0.8c0,0.5,0.3,0.7,1.1,1
		c1,0.4,1.5,0.9,1.5,1.8c0,1-0.8,1.7-2.2,1.7c-0.6,0-1.2-0.2-1.6-0.4L657.6,173.2z"/>
	<path d="M662.4,173.2c0.3,0.2,0.9,0.4,1.4,0.4c0.8,0,1.1-0.4,1.1-0.9c0-0.5-0.3-0.8-1.1-1.1c-1-0.4-1.5-0.9-1.5-1.6
		c0-0.9,0.8-1.7,2-1.7c0.6,0,1.1,0.2,1.4,0.4l-0.3,0.8c-0.2-0.1-0.6-0.3-1.2-0.3c-0.6,0-1,0.4-1,0.8c0,0.5,0.3,0.7,1.1,1
		c1,0.4,1.5,0.9,1.5,1.8c0,1-0.8,1.7-2.2,1.7c-0.6,0-1.2-0.2-1.6-0.4L662.4,173.2z"/>
	<path d="M667.8,171.6c0,1.4,0.9,2,2,2c0.8,0,1.2-0.1,1.6-0.3l0.2,0.8c-0.4,0.2-1,0.4-1.9,0.4c-1.8,0-2.9-1.2-2.9-2.9s1-3.1,2.7-3.1
		c1.9,0,2.4,1.7,2.4,2.7c0,0.2,0,0.4,0,0.5H667.8z M670.9,170.8c0-0.7-0.3-1.7-1.5-1.7c-1.1,0-1.5,1-1.6,1.7H670.9z"/>
	<path d="M673.3,170.1c0-0.6,0-1.1,0-1.6h0.9l0,0.9h0c0.3-0.6,0.9-1.1,1.8-1.1c0.8,0,1.4,0.5,1.6,1.2h0c0.2-0.3,0.4-0.6,0.6-0.8
		c0.3-0.3,0.7-0.4,1.3-0.4c0.8,0,1.9,0.5,1.9,2.5v3.4h-1V171c0-1.1-0.4-1.8-1.3-1.8c-0.6,0-1.1,0.4-1.2,1c0,0.1-0.1,0.3-0.1,0.5v3.6
		h-1v-3.5c0-0.9-0.4-1.6-1.2-1.6c-0.7,0-1.1,0.5-1.3,1.1c-0.1,0.2-0.1,0.3-0.1,0.5v3.5h-1V170.1z"/>
	<path d="M683.2,174.3c0-0.4,0-1,0-1.5v-7h1v3.6h0c0.4-0.6,1-1.1,2-1.1c1.4,0,2.5,1.2,2.4,3c0,2.1-1.3,3.1-2.6,3.1
		c-0.8,0-1.5-0.3-1.9-1.1h0l0,1H683.2z M684.3,172c0,0.1,0,0.3,0,0.4c0.2,0.7,0.8,1.2,1.6,1.2c1.1,0,1.8-0.9,1.8-2.2
		c0-1.2-0.6-2.2-1.7-2.2c-0.7,0-1.4,0.5-1.6,1.3c0,0.1-0.1,0.3-0.1,0.4V172z"/>
	<path d="M690.1,165.8h1.1v8.5h-1.1V165.8z"/>
	<path d="M693.3,168.5l1.3,3.4c0.1,0.4,0.3,0.8,0.4,1.2h0c0.1-0.3,0.2-0.8,0.4-1.2l1.2-3.4h1.1l-1.6,4.1c-0.8,2-1.3,3-2,3.6
		c-0.5,0.5-1,0.6-1.3,0.7l-0.3-0.9c0.3-0.1,0.6-0.3,0.9-0.5c0.3-0.2,0.6-0.6,0.9-1.2c0-0.1,0.1-0.2,0.1-0.3c0-0.1,0-0.1-0.1-0.3
		l-2.1-5.3H693.3z"/>
</g>
<g>
	<path d="M644.9,319c-0.4,0.2-1.2,0.4-2.1,0.4c-2.3,0-4-1.4-4-4.1c0-2.5,1.7-4.2,4.2-4.2c1,0,1.6,0.2,1.9,0.4l-0.3,0.9
		c-0.4-0.2-1-0.3-1.6-0.3c-1.9,0-3.2,1.2-3.2,3.3c0,2,1.1,3.3,3.1,3.3c0.6,0,1.3-0.1,1.7-0.3L644.9,319z"/>
	<path d="M651.3,316.4c0,2.1-1.5,3.1-2.9,3.1c-1.6,0-2.8-1.2-2.8-3c0-1.9,1.3-3.1,2.9-3.1C650.2,313.4,651.3,314.6,651.3,316.4z
		 M646.7,316.4c0,1.3,0.7,2.2,1.8,2.2c1,0,1.8-0.9,1.8-2.3c0-1-0.5-2.2-1.7-2.2C647.2,314.2,646.7,315.3,646.7,316.4z"/>
	<path d="M652.6,315.1c0-0.6,0-1.1,0-1.6h0.9l0.1,1h0c0.3-0.6,1-1.1,1.9-1.1c0.8,0,2.1,0.5,2.1,2.5v3.5h-1.1V316
		c0-0.9-0.3-1.7-1.3-1.7c-0.7,0-1.2,0.5-1.4,1.1c0,0.1-0.1,0.3-0.1,0.5v3.5h-1.1V315.1z"/>
	<path d="M660.5,311.8v1.7h1.5v0.8h-1.5v3.1c0,0.7,0.2,1.1,0.8,1.1c0.3,0,0.5,0,0.6-0.1l0,0.8c-0.2,0.1-0.5,0.1-0.9,0.1
		c-0.5,0-0.9-0.2-1.1-0.4c-0.3-0.3-0.4-0.8-0.4-1.5v-3.2h-0.9v-0.8h0.9v-1.4L660.5,311.8z"/>
	<path d="M663.2,315.3c0-0.7,0-1.3,0-1.8h0.9l0,1.1h0c0.3-0.8,0.9-1.3,1.6-1.3c0.1,0,0.2,0,0.3,0v1c-0.1,0-0.2,0-0.4,0
		c-0.7,0-1.3,0.6-1.4,1.4c0,0.1,0,0.3,0,0.5v3.1h-1V315.3z"/>
	<path d="M672.3,316.4c0,2.1-1.5,3.1-2.9,3.1c-1.6,0-2.8-1.2-2.8-3c0-1.9,1.3-3.1,2.9-3.1C671.2,313.4,672.3,314.6,672.3,316.4z
		 M667.7,316.4c0,1.3,0.7,2.2,1.8,2.2c1,0,1.8-0.9,1.8-2.3c0-1-0.5-2.2-1.7-2.2C668.2,314.2,667.7,315.3,667.7,316.4z"/>
	<path d="M673.6,310.8h1.1v8.5h-1.1V310.8z"/>
	<path d="M680.3,316.8l-0.8,2.5h-1.1l2.7-8.1h1.3l2.8,8.1h-1.1l-0.9-2.5H680.3z M683,315.9l-0.8-2.3c-0.2-0.5-0.3-1-0.4-1.5h0
		c-0.1,0.5-0.3,1-0.4,1.5l-0.8,2.3H683z"/>
	<path d="M686.3,315.3c0-0.7,0-1.3,0-1.8h0.9l0,1.1h0c0.3-0.8,0.9-1.3,1.6-1.3c0.1,0,0.2,0,0.3,0v1c-0.1,0-0.2,0-0.4,0
		c-0.7,0-1.3,0.6-1.4,1.4c0,0.1,0,0.3,0,0.5v3.1h-1V315.3z"/>
	<path d="M690.3,315.1c0-0.6,0-1.1,0-1.6h0.9l0,0.9h0c0.3-0.6,0.9-1.1,1.8-1.1c0.8,0,1.4,0.5,1.6,1.2h0c0.2-0.3,0.4-0.6,0.6-0.8
		c0.3-0.3,0.7-0.4,1.3-0.4c0.8,0,1.9,0.5,1.9,2.5v3.4h-1V316c0-1.1-0.4-1.8-1.3-1.8c-0.6,0-1.1,0.4-1.2,1c0,0.1-0.1,0.3-0.1,0.5v3.6
		h-1v-3.5c0-0.9-0.4-1.6-1.2-1.6c-0.7,0-1.1,0.5-1.3,1.1c-0.1,0.2-0.1,0.3-0.1,0.5v3.5h-1V315.1z"/>
</g>
<line class="st1" x1="205.3" y1="169.3" x2="127.3" y2="89.3"/>
<line class="st1" x1="436.7" y1="102.6" x2="384.7" y2="47.3"/>
<line class="st1" x1="482" y1="120" x2="546.7" y2="71.3"/>
<line class="st1" x1="540" y1="218.6" x2="648" y2="186"/>
<line class="st1" x1="588.7" y1="364.6" x2="670" y2="329.3"/>
</svg>
