<?xml version="1.0" encoding="utf-8"?>
<!-- Generator: Adobe Illustrator 21.0.0, SVG Export Plug-In . SVG Version: 6.00 Build 0)  -->
<svg version="1.1" id="Layer_1" xmlns="http://www.w3.org/2000/svg" xmlns:xlink="http://www.w3.org/1999/xlink" x="0px" y="0px"
	 viewBox="0 0 727 523" style="enable-background:new 0 0 727 523;" xml:space="preserve">
<style type="text/css">
	.st0{fill:none;stroke:#000000;stroke-width:0.709;stroke-linecap:round;stroke-linejoin:round;stroke-miterlimit:10;}
	.st1{fill:none;}
	.st2{fill:none;stroke:#000000;stroke-miterlimit:10;}
</style>
<path class="st0" d="M499.9,426.4l-0.8,0.4 M425,316.7L425,316.7l-0.1-0.1v-0.1 M424.9,316.5L424.9,316.5l0.1-0.2v-0.1l0.1-0.1
	l0.1-0.1l0.1-0.1h0.1v0.1 M384.3,98.5l-2-2.5l-1.8-2.6l-1.3-2.8l-1.1-2.7l-0.6-2.8l-0.2-2.8l0.1-2.7L378,77l0.9-2.4l0.2-0.4
	 M390.2,62.4l0.3-0.2l1.9-0.7l2.2-0.4h2.3l2.4,0.5l2.5,0.9l2.6,1.3 M422.8,144.3L422.8,144.3l-0.1-0.1l-0.1-0.1l-0.1-0.2v-0.2
	 M422.1,143.1v0.2l0.1,0.1l0.1,0.2l0.2,0.1 M422.5,136.7l-0.2-0.1l-0.1-0.1l-0.1-0.2v-0.1 M418.6,62.4l-0.9-0.5l-1.9-0.6l-2.1-0.2
	l-2.2,0.1l-2.3,0.5l-2.4,0.9l-2.4,1.2 M482.7,109l2.4-1.2l2.4-0.9l2.3-0.5l2.2-0.1l2.1,0.2l1.9,0.6l0.9,0.5 M509.7,123.6l0.1,0.6
	l-0.1,1.1l-0.6,1.1l-0.9,1.3l-1.3,1.3l-1.7,1.4l-1.9,1.4l-2.3,1.4 M474.9,232.6l-0.7-0.5l-0.8-1l-0.6-1.3l-0.3-1.6v-1.7l0.3-1.9
	l0.6-2l0.8-1.9l1-1.9l1.3-1.8l1.4-1.5l1.4-1.3l1.6-0.9l1.5-0.6l1.4-0.3l1.3,0.1l1,0.4 M478.2,233.2l-1.5,0.5l-1.5,0.1l-1.3-0.2
	l-1.2-0.7l-1-0.9l-0.7-1.3l-0.4-1.5l-0.1-1.8 M470.5,227.4l0.1-2l0.4-2l0.7-2.1l1-2.1l1.2-1.9l1.3-1.8l1.5-1.6l1.6-1.4l1.6-1
	l1.6-0.6l1.5-0.4l1.5,0.1l1.2,0.4l1.1,0.8l0.8,1.2l0.6,1.4l0.2,0.9 M440.3,176.6l-0.7-0.3l-1.6-0.5l-1.8-0.1l-1.9,0.3l-1.9,0.6l-2,1
	l-2,1.3l-2,1.7l-1.9,1.8l-1.7,2.2l-1.6,2.3l-1.4,2.4l-1.2,2.6l-1,2.6l-0.7,2.5l-0.4,2.5l-0.2,2.4 M416.3,201.9l0.2,2.2l0.4,2.1
	l0.7,1.7l1,1.5l1.2,1.2l0.7,0.4 M468.6,238.8l-0.7-0.5l-1.2-1.1l-1-1.5l-0.7-1.8l-0.4-2l-0.2-2.2 M464.4,229.7l0.2-2.4l0.4-2.5
	l0.7-2.6l1-2.6l1.2-2.5l1.4-2.4l1.6-2.4l1.8-2.1l1.8-1.9l2-1.6l2-1.3l2-1l1.9-0.6l1.9-0.3l1.8,0.1l1.6,0.4l0.6,0.4 M393.2,349.4
	v-3.1 M390.2,347.7l-0.2-0.1l-0.1-0.1l-0.1-0.2l-0.2-0.2V347l-0.1-0.2l-0.1-0.2v-0.2 M390.2,347.7l5.3,3.1 M378.1,354.7l12.1-7
	 M374.4,343.9l-2,1.9 M386.7,338.2L386.7,338.2l2.7,0.1 M377.4,353.3l12-6.9 M389.4,346.4v-4.6 M389.4,341.8v-3.5 M389.4,338.3
	l-2.9,0.9l-3.1,1.5l-3,2l-3,2.5 M378.1,354.7l5.4,3 M378.1,354.7l-0.1-0.2l-0.1-0.1l-0.2-0.1l-0.1-0.2l-0.1-0.2v-0.2l-0.1-0.2v-0.2
	 M377.4,353.3v-4.6 M377.4,345.2v3.5 M372.4,345.8l2.4-0.6h2.6 M372.4,345.8l2.5,1.5 M374.9,351.9v-4.6 M376.4,356L376.4,356
	l-0.6-0.9l-0.4-0.8l-0.3-0.8l-0.1-0.8l-0.1-0.8 M415.3,345.8v4.6 M374,362.5v0.1l0.2,1.6l0.4,1.6l0.8,1.5l1.1,1.5l1.3,1.4l1.6,1.3
	l1.9,1.2 M415.3,348.2l-1-0.6l-2.3-0.9l-2.4-0.8l-2.5-0.6l-2.7-0.4l-2.7-0.3l-2.8-0.1l-2.7,0.1 M396.2,344.6l-3,1.7 M398.2,349.2
	l-5-2.9 M382.2,358.5l16-9.3 M377.1,355.6l5.1,2.9 M377.1,355.6l-3,1.7 M374.1,357.3l-0.1,1.6l0.2,1.6l0.4,1.6l0.8,1.5l1.1,1.5
	l1.3,1.4l1.6,1.3l1.9,1.1 M415.3,350.4l16.1,9.3 M431.7,373.2l-0.6-0.3l-1.4-0.5l-1.5-0.2l-1.5,0.1l-1.5,0.2l-1.3,0.5l-0.2,0.2
	 M437.4,358.5v4.7 M487.5,392.1l-50.1-28.9 M437.4,363.2l-1,0.5 M419.7,384.2l-2,1.1 M430.1,390.2l-10.4-6 M430.1,390.2v4.6
	 M428.1,391.4l2-1.2 M430.4,362.6v3.6 M474.2,397.7l-0.6-0.3l-1.4-0.4l-1.5-0.2h-1.5l-1.5,0.3l-1.3,0.4l-0.2,0.2 M447.1,400v4.6
	 M445.1,401.1l2-1.1 M447.1,400l-10.5-6 M436.6,394l-2,1.1 M470.7,390.5l-34.5-20 M480.5,396.1l-1.9-1 M419.2,375.8v-0.3
	 M436.2,375.5l-0.1,0.6l-0.4,1l-0.8,1l-1.2,0.9l-1.5,0.6l-1.7,0.5l-1.8,0.3h-1.6 M419.2,373.7l-1.9,1 M461.7,400.3V400 M411.3,373.6
	v4.6 M445.1,405.8l2-1.2 M411.3,378.2l50.1,28.9 M404.3,382.3l7-4.1 M428.1,396l2-1.2 M493.5,390.9v4.7 M517.5,420.7L517.5,420.7
	l0.4-0.4l0.3-0.5l0.1-0.6l0.1-0.6 M423.7,373.2l1.2,0.5l1.4,0.3l1.6,0.1l1.5-0.1l1.4-0.4l1.1-0.6l0.9-0.7l0.5-0.9v-0.9l-0.4-0.8
	l-0.7-0.8l-1.1-0.7l-1.4-0.4l-1.5-0.2h-1.5l-1.5,0.3l-1.3,0.5l-1,0.7l-0.6,0.8l-0.3,0.8l0.2,0.9l0.5,0.9L423.7,373.2 M423.4,366.6
	l1.7-0.4l1.9-0.2h1.8l1.9,0.3l1.6,0.5l1.5,0.6l1.1,0.9l0.8,1l0.4,1.1v1l-0.4,1.1l-0.8,1l-1.2,0.8l-1.5,0.7l-1.7,0.5l-1.8,0.2h-1.9
	l-1.8-0.2l-1.7-0.4l-1.5-0.7l-1.2-0.8l-0.9-1l-0.5-1.1v-1.1l0.4-1l0.7-1 M430.4,362.6l-7,4 M484.5,393.8l-54.1-31.2 M477.5,397.9
	l7-4.1 M474.4,399.6l-1.7,0.5l-1.8,0.2l-1.9-0.1l-1.8-0.2l-1.7-0.5l-1.5-0.7l-1.1-0.9l-0.8-1l-0.4-1v-1.1l0.4-1.1l0.9-0.9l1.1-0.9
	l1.5-0.7l1.7-0.4l1.8-0.3h1.9l1.9,0.2l1.7,0.5l1.5,0.7l1.2,0.8l0.8,1l0.5,1v1.1l-0.3,1.1l-0.8,1 M467.5,403.7l6.9-4.1 M413.3,372.4
	l54.2,31.3 M420.3,368.4l-7,4 M417.3,344.6l-2,1.2 M415.3,345.8l20.1,11.6 M435.4,357.4l-31.1,17.9 M404.3,375.3l-20-11.6
	 M384.3,363.7l-2,1.2 M404.3,377.6l7-4 M411.3,373.6l54.2,31.2 M465.5,404.8l-7.1,4.1 M482.5,420.4l-20.1-11.5 M462.4,408.9l31.1-18
	 M493.5,390.9l16.4,9.5 M512.1,399.4l-94.8-54.8 M437.4,358.5l-5,2.9 M491.5,389.8l-54.1-31.3 M486.5,392.7l5-2.9 M432.4,361.4
	l54.1,31.3 M466.2,397.7l1.2,0.5l1.4,0.4l1.6,0.1l1.5-0.2l1.4-0.4l1.1-0.6l0.9-0.7l0.4-0.9l0.1-0.8l-0.4-0.9l-0.7-0.8l-1.1-0.6
	l-1.4-0.5l-1.5-0.2l-1.5,0.1l-1.5,0.2l-1.3,0.5l-1,0.7l-0.6,0.8l-0.3,0.9l0.2,0.9l0.5,0.8L466.2,397.7 M482.5,420.4v4.7
	 M480.5,421.6l2-1.2 M381.3,372.7l100.2,57.8 M480.5,421.6v4.6 M458.4,408.9l22.1,12.7 M458.4,408.9v4.6 M445.1,405.8l13.3,7.7
	 M445.1,401.1v4.7 M434.6,395.1l10.5,6 M434.6,395.1v4.7 M428.1,396l6.5,3.8 M428.1,391.4v4.6 M417.7,385.3l10.4,6.1 M417.7,385.3
	v4.7 M404.3,382.3l13.4,7.7 M404.3,377.6v4.7 M382.3,364.9l22,12.7 M382.3,364.9v4.6 M381.3,368.9l1,0.6 M381.3,368.9v3.8
	 M499.9,425.2l-1.8,1 M518.4,417.4l3.8-2.2 M522.2,411.5v3.7 M490.1,433.7l8-4.6 M481.5,430.5l0.9,0.5l1,0.5l1,0.5l1.1,0.4l1.1,0.4
	l1.1,0.3l1.2,0.4l1.2,0.2 M490.1,430v3.7 M481.5,426.8v3.7 M493.5,395.6l12.4,7.1 M466.5,411.2l27-15.6 M480.5,426.2l2-1.1
	 M480.5,426.2l1,0.6 M481.5,426.8l0.9,0.5l1,0.5l1,0.5l1.1,0.4l1.1,0.4l1.1,0.3l1.2,0.3l1.2,0.3 M518.4,413.7l3.8-2.2 M490.1,430
	l9.8-5.6 M522.2,411.5l-0.5-0.7l-0.6-0.6l-0.6-0.7l-0.1-0.1 M502.4,427.8l16-9.2 M518.4,418.6v-7.1 M498.1,426.2v2.9 M499.1,429.7
	l-1-0.6 M499.1,429.7l0.6,0.3l0.7,0.1h0.5l0.5-0.2l0.4-0.3l0.3-0.5l0.2-0.6l0.1-0.7 M502.4,427.8v-10.4 M502.4,417.4l2,1.1
	 M499.9,415.9v-8.1 M499.9,426.4v-10.5 M499.1,426.8l0.2,0.1h0.1h0.1l0.1-0.1h0.1l0.1-0.1l0.1-0.2v-0.1 M499.1,426.8l-1-0.6
	 M504.4,418.5l3.5-0.9l3.4-1.3l3.5-1.8l3-2.2l2.6-3 M520.4,409.3l-0.7-3l-1-2.8l-1.3-2.6l-1.5-2.3 M499.9,407.8l3.9-3.7l4.1-2.8
	l4.1-1.9l3.9-0.8 M504.4,418.5l-0.7-3l-1-2.8l-1.3-2.5l-1.5-2.4 M432.4,287.8v1.2 M429.7,278.1l-1,1.5 M387.2,298.6l0.2,1.8l0.7,1.8
	l1,1.7l1.4,1.6l1.7,1.6l2.1,1.3 M422,294.3l2-1.2 M394.3,308.4l4,2.3 M394.3,305.2v3.2 M398.3,310.7l1-0.5 M400.3,306.3v1.2
	 M398.3,307.5v3.2 M430.5,278.5l-6.3,3.7 M429.9,277.9l1,0.6 M429.9,277.9l-0.2,0.2 M429.7,278.1l0.8,0.4 M424.6,292.5l-0.3,0.4
	l-0.3,0.2 M424,293.1l0.1-0.1 M422,294.3l-0.4,0.1H421l-0.7-0.3l-0.8-0.6l-0.2-0.4l-0.1-0.5l0.1-0.5l0.1-0.3 M422.1,294.2l-0.1,0.1
	 M418.3,285.7l0.3,0.1l0.3,0.1l0.2,0.2l0.3,0.3l0.4,0.8l0.2,0.8l0.2,2l-0.7,1.6l-0.1,0.2 M419.4,291.8l0.6-0.8 M424.2,282.2
	l-6.1,3.4 M418.1,285.6h0.3l0.3,0.1l0.3,0.2l0.3,0.3l0.5,0.7l0.3,0.9l0.2,1.8L420,291 M420,291l-0.5,0.9l-0.2,0.5v0.4l0.1,0.3
	l0.3,0.5l0.8,0.5l0.8,0.2h0.5l0.3-0.1 M424.1,293l-2,1.2 M424.1,293l0.5-0.4l0.4-0.7l0.3-1l-0.1-1v-0.5l0.1-0.3l0.5-1.1l0.2-0.4
	 M424.2,282.2l0.3-0.1l0.3,0.1l0.3,0.2l0.2,0.3l0.5,0.8l0.3,0.8l0.3,1.8l-0.4,1.5 M410.8,288.9l-8,12.1 M402.8,301v0.4 M418.1,285.6
	l0.2,0.1 M418.1,285.6l-6.3,3.7 M411.8,289.3l-0.8-0.5 M411,288.8l-0.2,0.1 M411.8,289.5l-1-0.6 M430.4,299.2l-15.3,8.8
	 M430.9,278.5v17.1 M430.9,278.5l-6.3,3.6 M418.3,285.7l-6.5,3.8 M411.8,289.5v17.1 M503.5,328.9v1.2 M472.9,323.7l-42.5-24.5
	 M430.4,295.9v3.3 M451.8,331.2L451.8,331.2h-0.2l-0.1,0.1l-0.1,0.1l-0.1,0.1v0.1v0.1 M451.3,331.7v0.1v0.1h0.1 M453.2,334.8v0.1
	h0.1l0.1,0.1 M491,313.2l-6.5,3.8 M492,313.8l-1-0.6 M491.8,313.9l-0.8-0.4 M499.6,334.8l-7.8-20.9 M492,313.8l8,21.1 M491.8,313.9
	l0.2-0.1 M478.5,320.5l-0.3-0.4l-0.3-0.1l-0.2-0.1h-0.2l-0.4,0.4l-0.3,0.5l-0.1,0.7 M478.7,320.6l-0.3-0.4l-0.3-0.3l-0.3-0.1h-0.3
	l-0.4,0.2l-0.3,0.5l-0.2,1.1 M484.7,317.1l-0.3-0.4l-0.3-0.3l-0.3-0.1h-0.3l-0.2,0.1 M481.2,346v0.4 M399.3,311.3l70.2,40.5
	 M399.3,308.1v3.2 M469.5,351.8l1-0.6 M471.5,347.4v1.2 M469.5,348.6v3.2 M491,313.5v17.1 M491,313.5l-6.3,3.6 M484.7,317.1l-6,3.5
	 M472.4,324.2l0.8,0.5 M478.7,320.6l-6.3,3.6 M478.7,320.6l-0.2-0.1 M478.5,320.5l-6.5,3.7 M470.5,352.4l4,2.3 M470.5,349.2v3.2
	 M495.7,337.1l0.9,0.4l1.1,0.1l1.1-0.1l0.9-0.4l0.6-0.5l0.3-0.6l-0.3-0.7l-0.6-0.5l-0.9-0.3l-1.1-0.2l-1.1,0.2l-0.9,0.3l-0.6,0.5
	l-0.2,0.7l0.2,0.6L495.7,337.1 M505.7,338.3v6.9 M497.7,342.9v7 M489.7,338.3v6.9 M495.7,334.8l-6,3.5 M497.7,333.7l-1.9,1.1
	 M489.7,338.3l8,4.6 M497.7,342.9l8-4.6 M499.7,334.8l-2-1.1 M505.7,338.3l-5.9-3.5 M494.9,338.3l0.2,0.6l0.6,0.5 M495.7,339.4
	l0.9,0.4l1.1,0.1l1.1-0.1l0.9-0.4l0.6-0.5l0.3-0.6 M481,346.1v0.5 M472,324.2l1,0.6 M472,324.2v17.1 M481,346.1l-8-21.3 M481.2,346
	l-0.2,0.1 M473.2,324.7l8,21.3 M473,324.8l0.2-0.1 M474.5,354.7l2.3,1.2l2.7,1l2.8,0.8l3,0.6l3.1,0.4l3.1,0.1l3.2-0.1l3-0.4l3-0.6
	l2.9-0.8l2.6-1l2.3-1.2l2.1-1.4l1.8-1.5l1.4-1.6l1-1.7l0.6-1.8l0.2-1.8 M474.5,351.5v3.2 M422.7,317.2L422.7,317.2v0.1l0.1,0.1
	 M422.8,317.4h0.2h0.1h0.2h0.1l0.1-0.1v-0.1 M475.7,322.1l-45.3-26.2 M497,334.1l-6-3.5 M491,330.6l-12.8,7.4 M481,346.6l0.2-0.2
	 M472,341.3l9,5.3 M412.3,306.3l59.7,34.5 M412.3,306.3l-0.5,0.3 M411.8,306.6l-9-5.2 M430.9,295.6l-0.5,0.3 M422.6,283.1l-2-0.6
	l-3-0.6l-3.1-0.3l-3.2-0.2l-3.1,0.2l-3.1,0.3l-3,0.6l-2.8,0.8l-2.6,1l-2.4,1.2l-2.1,1.4l-1.7,1.5l-1.4,1.6l-1,1.8l-0.7,1.7l-0.2,1.9
	l0.2,1.8l0.7,1.8l1,1.7l1.4,1.6l1.7,1.5l2.1,1.4 M394.3,305.2l4,2.3 M398.3,307.5l2-1.2 M400.3,306.3l1,0.6 M401.3,306.9l-2,1.2
	 M399.3,308.1l70.2,40.5 M469.5,348.6l2-1.2 M471.5,347.4l1,0.6 M472.5,348l-2,1.2 M470.5,349.2l4,2.3 M474.5,351.5l2.3,1.2l2.7,1
	l2.8,0.8l3,0.6l3.1,0.3l3.1,0.1l3.2-0.1l3-0.3l3-0.6l2.9-0.8l2.6-1l2.3-1.2l2.1-1.4l1.8-1.5l1.4-1.6l1-1.8l0.6-1.7l0.2-1.9l-0.2-1.8
	l-0.6-1.8l-1-1.7l-1.4-1.6l-1.8-1.5l-2.1-1.4 M508.5,331.8l-4-2.3 M504.5,329.5l-2,1.1 M502.5,330.6l-1-0.5 M501.5,330.1l2-1.2
	 M482.6,316.8l-49.2-28.4 M503.5,328.9l-7.4-4.3 M433.4,288.4l-2,1.2 M431.4,289.6l-0.5-0.3 M430.9,288.7l1.5-0.9 M432.4,287.8
	l-1.5-0.8 M489.7,345.2l8,4.7 M497.7,349.9l8-4.7 M453.4,335l0.1,0.1h0.2h0.1l0.2-0.1l0.1-0.1v-0.1v-0.1H454 M375.3,116.4l-2.5-1.6
	l-2.2-1.7l-1.8-1.9l-1.4-2l-1-2l-0.6-2.1l-0.2-2l0.3-2.1l0.7-2l0.1-0.3 M422.5,143.7v-7 M422.5,143.7l0.2,0.1l0.2,0.1h0.3h0.3h0.3
	h0.2l0.3-0.1l0.2-0.1 M424.5,136.7l-0.2,0.1l-0.3,0.1l-0.2,0.1h-0.3h-0.3l-0.3-0.1l-0.2-0.1l-0.2-0.1 M422.5,136.7v-0.2l0.1-0.3
	l0.1-0.2l0.1-0.3l0.1-0.2l0.2-0.2l0.2-0.2l0.2-0.1 M496.8,164.9l1.7-0.2l3.5-0.9l3.3-1.1l2.8-1.4 M517.4,155.1l-2.6-1.5
	 M501.7,146.3v4.9 M501.7,151.2l11,6.4 M423.9,144.5l47.8,27.6 M375.3,116.4l46.8,27.1 M422.8,134.9h0.1h0.2h0.2l0.2,0.1 M423.5,135
	l0.2,0.1l0.2,0.2l0.1,0.2l0.2,0.2l0.1,0.3l0.1,0.2l0.1,0.3v0.2 M424.5,143.7v-7 M424.5,143.7v0.2l-0.1,0.2l-0.1,0.1l-0.1,0.1
	 M384.3,98.5l-9,17.9 M508.1,161.3l2.5-1.6l1.9-1.9l1.4-2l0.9-2.2 M512.9,140.9l-1.6,0.5l-2,0.7l-2.2,1.1l-2.5,1.4 M517.4,155.1
	l-4.5-14.2 M510.3,162.6l2.4-1.6l2.1-1.8l1.5-2l1.1-2.1 M521,158.9l0.3,1.4l0.2,2l-0.3,2.1l-0.7,2l-1.1,1.9l-1.6,1.7l-1.9,1.7
	l-2.2,1.5 M462.6,143.7l-78.3-45.2 M404.4,63.8l78.3,45.2 M404.4,63.8l-2.4,1.6l-2.4,1.8l-2.3,2.2l-2.2,2.4l-2.1,2.7l-1.9,2.8
	l-1.7,3l-1.5,3l-1.3,3.1l-1,3.1l-0.7,3.1l-0.4,3l-0.2,2.9 M462.6,143.7l0.2-2.9l0.4-3l0.7-3l1-3.2l1.3-3.1l1.5-3l1.7-3l1.9-2.8
	l2.1-2.7l2.2-2.4l2.3-2.2l2.4-1.8l2.4-1.6 M501,133.2l-1.2-3.3l-1.5-3.3l-1.7-3.1l-2-3.1l-2.1-2.8l-2.3-2.6l-2.5-2.3l-2.5-2
	l-2.5-1.7 M504.6,144.6l-2.7,1.7l-2.9,1.8l-3.1,2.1l-3.1,2.3 M501,133.2l3.6,11.4 M501,133.2l-2.6,1.4l-2.8,1.3l-2.9,1.3l-3.1,1.3
	l-3.3,1.1l-3.2,1l-3.3,0.9l-3.2,0.8l-3.2,0.6l-3,0.4l-2.8,0.3l-2.6,0.2l-2.4-0.1 M471.7,172.1l-9.1-28.4 M513.7,173.2l-2.6,1.3
	l-2.8,1.1l-3.1,0.9l-3.3,0.6l-3.5,0.4l-3.5,0.2l-3.6-0.1l-3.6-0.4l-3.5-0.6l-3.4-0.8l-3.3-1l-3-1.3l-2.8-1.4 M510.3,162.6l3.4,10.6
	 M497.3,166.7l3.7-0.7l3.4-0.9l3.1-1.1l2.8-1.4 M492.8,152.5l4.5,14.2 M488.5,219.3l-0.1-1.6l-0.5-1.3l-0.7-1l-0.9-0.7l-1.1-0.4
	h-1.3l-1.4,0.4l-1.4,0.7l-1.4,1.1l-1.3,1.3l-1.2,1.6l-1,1.7l-0.8,1.8l-0.6,1.9l-0.3,1.7v1.7l0.3,1.4l0.6,1.2l0.8,0.9l1,0.5l1.2,0.2
	l1.3-0.2l1.4-0.6l1.4-0.9l1.4-1.2l1.3-1.4l1.1-1.7l0.9-1.8l0.7-1.8l0.5-1.8L488.5,219.3 M486.1,212.9l0.2,0.1 M475,232.7l-0.1-0.1
	 M466.5,229.7l0.1,2.1l0.4,1.9l0.7,1.7l0.9,1.3l1.2,1.1l1.3,0.7l1.6,0.4l1.7,0.1l1.8-0.4l1.9-0.7l1.9-1l1.8-1.3l1.9-1.6l1.7-1.9
	l1.7-2.1l1.4-2.2l1.3-2.4l1-2.4l0.9-2.5l0.5-2.4l0.3-2.3v-2.2l-0.3-2l-0.5-1.8l-0.9-1.6l-1-1.2l-1.3-0.9l-1.4-0.5l-1.7-0.2l-1.7,0.1
	l-1.9,0.5l-1.8,0.9l-1.9,1.1l-1.9,1.5l-1.8,1.8l-1.7,1.9l-1.6,2.2l-1.3,2.3l-1.2,2.4l-0.9,2.5L467,225l-0.4,2.4L466.5,229.7
	 M468.7,238.8h-0.1 M447.2,287.2l0.3,0.4l0.6,0.4l1,0.2l1.3,0.1l1.6-0.1l1.9-0.2l2.2-0.4l2.3-0.6l2.6-0.6l2.6-0.9l2.7-0.9l2.7-1
	l1.9-0.8 M486.4,273.6L486.4,273.6l0.4-0.8l0.1-0.7v-0.3 M471.1,284.2l0.2,0.3l0.6,0.4l1,0.2h1.3l1.6-0.1l1.9-0.3l2.2-0.5l2.3-0.6
	l2.5-0.7l2.5-0.9l2.5-1l2.5-1l2.5-1.1l2.2-1.1l2-1.1l1.8-1.1l1.5-1.1l1.2-0.9l0.8-0.9l0.5-0.8l0.1-0.6l-0.1-0.2 M471.5,282l-0.5,0.8
	l-0.2,0.6l0.3,0.6l0.6,0.3l1,0.2l1.3,0.1l1.6-0.2l1.9-0.2l2.2-0.5l2.3-0.6l2.5-0.8l2.5-0.8l2.5-1l2.5-1l2.4-1.1l2.3-1.1l2-1.1
	l1.8-1.1l1.5-1.1l1.2-1l0.8-0.8l0.5-0.8l0.1-0.7l-0.4-0.4l-0.7-0.4l-1-0.2h-1.4l-1.7,0.2l-2,0.3l-2.1,0.5l-2.4,0.7l-2.5,0.7
	l-2.5,0.9l-2.6,1 M485.3,274l0.9-0.9l0.4-0.9l0.1-0.7l-0.2-0.5l-0.7-0.4l-1-0.3h-1.3h-1.6l-1.9,0.3l-2.2,0.4l-2.3,0.5l-2.6,0.7
	l-2.6,0.8l-2.7,0.9l-2.7,1.1l-2.7,1.1l-2.6,1.1l-2.4,1.2l-2.3,1.2l-2,1.2l-1.8,1.1l-1.5,1.1l-1.2,1l-0.8,1l-0.5,0.8l-0.1,0.7
	l0.3,0.5l0.6,0.4l1,0.3l1.3,0.1l1.6-0.1l1.9-0.2l2.2-0.4l2.3-0.6l2.6-0.7l2.6-0.8l2.7-0.9l2.7-1l2.7-1.1 M386.7,338.2l-3.1,0.6
	l-3.2,1.1l-3.1,1.8l-2.9,2.2 M374,358.8v3.7 M419.2,370.9v4.6 M436.2,375.5v-4.6 M461.7,395.4v4.6 M478.7,397.2v-1.8 M501.4,429.9
	l16.1-9.2 M387.2,295.4v3.2 M424.6,292.6l0.1-0.1 M425.4,316l-1.1-0.5l-0.5-0.1l-0.4,0.1l-0.3,0.2l-0.2,0.4l-0.2,0.5v0.6
	 M423.5,317.2l0.1-0.6l0.1-0.2l0.1-0.1l0.2-0.1l0.2,0.1l0.8,0.4 M451.8,331.2l-12.8-7.4l-13.6-7.8 M425,316.7l12.8,7.4l13.6,7.8
	 M454.1,334.8l-0.1-0.9l-0.2-0.6l-0.3-0.6l-0.3-0.5l-0.5-0.4l-0.9-0.6 M451.4,331.9l0.7,0.5l0.4,0.3l0.3,0.4l0.2,0.4l0.1,0.4
	l0.1,0.9 M483.3,316.4l-3,1.7l-3,1.8 M494.9,336v2.3 M500.6,338.3V336 M515.6,344.9v-3.3 M418.6,62.4l-3.4-1.7l-3.5-1.1l-3.6-0.8
	l-3.7-0.2l-3.7,0.2l-3.7,0.8l-3.5,1.1l-3.3,1.7 M379.1,74.2l-12.4,24.5 M390.2,62.4l-1.7,1.1l-1.7,1.2l-1.6,1.3l-1.4,1.5l-1.4,1.5
	l-1.2,1.7l-1.2,1.7l-0.9,1.8 M422.1,143.1v0.2v0.2l0.1,0.1l0.1,0.2l0.1,0.2l0.1,0.1l0.1,0.1l0.2,0.1 M422.8,144.3l0.1,0.1l0.2,0.1
	h0.2h0.2h0.2h0.2l0.1-0.1l0.2-0.1 M422.1,136.2v6.9 M422.8,134.9l-0.2,0.1l-0.1,0.2l-0.1,0.1l-0.1,0.1l-0.1,0.2l-0.1,0.2v0.2v0.2
	 M496.9,107.6l-78.3-45.2 M509.7,123.6l-0.9-2.5l-1.1-2.4l-1.4-2.2l-1.5-2.1l-1.8-2l-1.9-1.8l-2-1.6l-2.2-1.4 M521,158.9l-11.3-35.3
	 M415.9,201.3l0.1,1.2l0.2,2.1l0.6,1.9l0.8,1.7l1.1,1.4l1.3,1.1l0.7,0.4 M440.3,176.7l-0.5-0.3l-1.5-0.6l-1.7-0.2l-1.8,0.1l-1.8,0.4
	l-1.9,0.7l-2,1.1l-1.9,1.3l-1.8,1.6l-1.8,1.8l-1.6,2l-1.5,2.2l-1.3,2.3l-1.1,2.4l-0.9,2.4l-0.7,2.4l-0.4,2.4l-0.2,2.2v0.4
	 M488.9,218.7v-0.9l-0.3-1.6l-0.6-1.4l-0.8-1l-1.1-0.9 M474.9,232.6l0.3,0.2l1.2,0.3l1.4,0.1l1.4-0.2l1.4-0.6l1.5-0.9l1.4-1.2
	l1.3-1.4l1.2-1.6l1.1-1.7l0.8-1.8l0.6-1.8l0.3-1.9l0.1-1.4 M420.5,211l48.1,27.8 M488.4,204.4l-48.1-27.8 M468.7,238.8l0.8,0.4
	l1.6,0.5l1.7,0.1l1.8-0.2l1.9-0.5l1.9-0.8l1.9-1.2l1.9-1.4l1.9-1.7l1.7-1.8l1.6-2.1l1.4-2.2l1.2-2.4l1.1-2.4l0.8-2.4l0.6-2.4
	l0.3-2.4l0.1-2.3l-0.2-2.1l-0.4-2l-0.8-1.8l-1-1.5l-1.2-1.2l-1-0.6 M447,286.7l0.2,0.5 M486.9,271.8l-0.2-0.5 M470.9,283.7l0.2,0.5
	 M504.7,271.1l-0.2-0.5"/>
<path class="st0" d="M229.2,371.6v-0.1v-0.1v-0.1 M215.4,383.1l-0.5,0.6l-0.6,0.7l-0.5,0.9l-0.2,0.9 M213.6,386.2h0.1 M213.7,386.2
	h-0.1 M213.6,386.3L213.6,386.3l-0.1,0.1 M229.2,371.6l-3.3,5.8 M238.4,373.1l-3.9-2.3 M239.7,373.3h-0.1h-0.1 M224.1,376.6h0.1
	v-0.1h0.1h0.1 M229,379.5v-0.1l0.1-0.1h0.1 M234.7,374.2L234.7,374.2h-0.1 M229.8,379.1l-0.1-0.1 M269.8,402.2l-0.1,0.1v0.2v0.1
	 M269.8,402.2v0.5 M279.4,411.1v-14.5 M285.3,399.6l-0.3-0.1 M235.1,370.6l-0.3-0.1 M285.9,427.8h-0.3l-0.2-0.1 M285.2,427.4
	l0.7,0.4 M295.5,422.3l-15.2-8.7 M285.4,400.3l-0.7-0.5 M289.9,406.6l-0.1-0.4 M279.8,397v15 M280.1,413l15,8.6 M269.7,402.7
	L269.7,402.7h-0.1l-0.1,0.1 M274.6,405.5L274.6,405.5h-0.1h-0.1v0.1h-0.1 M290.4,406.4V406v-0.3 M279.9,412.4L279.9,412.4v0.1h-0.1
	h-0.1 M285.2,427.4h-0.1v0.1H285v0.1h-0.1 M223.7,313.4l0.1-0.1l0.9-0.3l0.9-0.2l0.9-0.1l1.1,0.1l1,0.3l1.1,0.4l1.1,0.6
	 M220.8,331.4l-0.9-1.1l-0.7-1.2l-0.7-1.2l-0.5-1.2l-0.3-1.2l-0.2-1.3l-0.1-1.2l0.1-1.2l0.2-1.1l0.4-1.1l0.5-1 M230.8,314.1l1.1-0.6
	l1-0.4l1-0.3l1-0.1h0.9l0.9,0.2l0.8,0.3l0.4,0.2 M278.6,341.6l1-0.5l1.1-0.4l1-0.3l1-0.1h0.9l0.9,0.1l0.8,0.3l0.4,0.2 M287.5,353.2
	l1-0.6l0.9-0.6l0.8-0.6l0.6-0.6l0.5-0.5l0.4-0.5l0.2-0.5l0.1-0.4v-0.3 M213.6,386.2L213.6,386.2h-0.1h-0.1v0.1 M234.2,370.2l0.6,0.3
	 M234.5,370.8l-0.8-0.4l-0.8-0.2l-0.8-0.1h-0.7l-0.7,0.1l-0.5,0.4l-0.5,0.4l-0.5,0.6 M234.5,370.8L234.5,370.8v-0.1v-0.1h0.1v-0.1
	h0.1h0.1 M215.4,395.5l-0.9-0.6l-0.9-0.7l-0.7-0.7l-0.6-0.7l-0.4-0.8l-0.3-0.7l-0.2-0.8v-0.8l0.2-0.7l0.3-0.8l0.1-0.2 M218.8,377.4
	l-5.3,9 M213.4,386.3L213.4,386.3v0.2h0.1v-0.1 M213.4,386.3l0.1-0.8l0.3-0.7l0.5-0.7l0.6-0.6l0.7-0.6 M218.8,377.4L218.8,377.4
	 M224.1,376.6l-0.8-0.4l-0.8-0.2l-0.8-0.2l-0.7,0.1l-0.7,0.1l-0.6,0.3l-0.5,0.5l-0.4,0.6 M218.8,377.4l-0.1,0.9v1l0.2,1l0.3,1l0.4,1
	l0.5,1l0.6,0.9l0.7,0.9 M215.4,395.5l27.6,16 M221.4,385.1l-6,10.4 M243,411.5l0.5-0.3 M243,397.6v13.9 M243.5,411.2l6.6,3.7
	 M243.5,394.1v17.1 M279.8,397L279.8,397L279.8,397l-0.2-0.1l-0.1-0.2l-0.1-0.1 M295.1,421.6l0.1,0.1l0.1,0.2l0.1,0.3l0.1,0.1
	 M283.8,422.6h-0.3 M280.1,396.7L280.1,396.7H280h-0.1v0.1l-0.1,0.1v0.1 M279.3,396.3L279.3,396.3L279.3,396.3l0.1,0.2v0.1
	 M295.7,422.4L295.7,422.4l-0.1-0.1h-0.1 M285,399.5L285,399.5h-0.1l-0.1,0.1l-0.1,0.1v0.1 M285,399.5l0.8,0.5l0.8,0.7l0.8,0.7
	l0.8,0.9l0.6,1l0.6,1l0.5,1l0.5,1.1 M279.4,396.6l-0.5-0.1l-0.6-0.1l-0.5,0.1h-0.7l-0.6,0.2l-0.6,0.2l-0.6,0.3l-0.7,0.3
	 M274.4,397.2L274.4,397.2h0.1v0.1l0.1,0.1v0.1 M269.8,402.2L269.8,402.2l-0.1-0.1h-0.1V402h-0.1 M274.6,397.5l-0.6,0.4l-0.7,0.5
	l-0.6,0.5l-0.6,0.6l-0.6,0.6l-0.6,0.7l-0.6,0.7l-0.5,0.7 M239.7,373.4h0.1v-0.1L239.7,373.4 M239.7,373.4l-0.6-0.2h-0.6h-0.6h-0.6
	l-0.6,0.2l-0.7,0.2l-0.6,0.3l-0.7,0.3 M274.4,397.2l0.7-0.4l0.6-0.3l0.7-0.2l0.6-0.1l0.6-0.1h0.6h0.6l0.5,0.2 M280.1,396.7v-0.1
	h-0.2l-0.1-0.1l-0.3-0.2h-0.2 M280.1,396.7l4.9,2.8 M234.8,370.5l4.9,2.8 M290.4,406.4L290.4,406.4l-0.2,0.1h-0.1H290v0.1h-0.1
	 M295.6,421.4L295.6,421.4l-0.1,0.1h-0.1l-0.1,0.1h-0.1h-0.1 M283.5,422.7L283.5,422.7l0.8-0.2l0.7-0.2l0.6-0.3l0.5-0.4l0.3-0.4
	l0.2-0.5l0.1-0.5l-0.1-0.4l-0.3-0.5l-0.4-0.4l-0.5-0.3 M285.4,418.6l-0.6-0.3l-0.7-0.3l-0.8-0.1l-0.8-0.1l-0.7,0.1 M292.5,426.1
	l1-0.6l0.8-0.7l0.6-0.8l0.4-0.8l0.2-0.9 M285.9,427.8L285.9,427.8v0.2v0.1 M292.5,426.1v0.1h0.1v0.1h0.1v0.1 M285.9,427.8l1.5-0.1
	l1.4-0.2l1.4-0.4l1.2-0.4l1.1-0.6 M295.1,421.6l-5.2-15 M289.8,406.2l-0.3-0.7l-0.5-1l-0.6-1l-0.7-0.9l-0.7-0.8l-0.7-0.8l-0.8-0.6
	l-0.1-0.1 M284.7,399.8l-4.9-2.8 M269.7,402.7L269.7,402.7 M250.1,415.5v-13.9 M250.1,415.5l27.6,15.9 M250.1,401.6v-0.4v-0.4v-0.5
	l0.1-0.4v-0.4l0.1-0.5l0.1-0.4l0.2-0.5 M271.7,414.1l-21.6-12.5 M274.3,405.6l-4.8-2.8 M269.5,402l-0.1,0.2l-0.1,0.2v0.2l0.1,0.1
	l0.1,0.1 M269.5,402l0.5-0.8l0.6-0.7l0.6-0.7l0.6-0.6l0.6-0.6l0.7-0.6l0.6-0.4l0.7-0.4 M234.7,374.2l39.7,23 M234.7,374.2l-0.6,0.5
	l-0.7,0.4l-0.7,0.6l-0.6,0.6l-0.6,0.6l-0.6,0.7l-0.6,0.7l-0.5,0.8 M229,379.5L229,379.5h0.2l0.1-0.1l0.3-0.1l0.2-0.2 M229,379.5
	l-4.9-2.9 M224.1,376.6l-0.6,1.1l-0.5,1l-0.5,1.1l-0.4,1.1l-0.3,1.1l-0.2,1.1l-0.1,1l-0.1,1 M243,397.6l-21.6-12.5 M243.5,394.1
	l-0.1,0.4l-0.1,0.5l-0.1,0.4v0.5l-0.1,0.4v0.4l-0.1,0.4v0.5 M250.6,398.1l-7.1-4 M295.7,422.4L295.7,422.4v-0.5l-0.1-0.3v-0.2
	 M295.7,422.4l-0.1,0.8l-0.3,0.7l-0.5,0.7l-0.6,0.6l-0.7,0.6l-0.8,0.6 M297.5,426.2v0.2l0.2,0.8v0.8l-0.2,0.7l-0.3,0.8l-0.4,0.7
	l-0.6,0.6l-0.7,0.6l-0.9,0.6 M290.4,406.4l5.2,15 M279.7,412.5l-0.4-1l-0.6-1.1l-0.6-1l-0.6-0.9l-0.8-0.9l-0.7-0.8l-0.8-0.6
	l-0.9-0.6 M274.3,405.6l-0.6,1.1l-0.5,1l-0.5,1.1l-0.3,1.1L272,411l-0.2,1.1l-0.1,1v1 M292.7,426.4l1.9,5.6 M292.7,426.4l-0.9,0.4
	l-1.1,0.5l-1.1,0.3l-1.2,0.3l-1.2,0.1l-1.3,0.1 M284.9,427.6L284.9,427.6l0.1,0.2l0.3,0.2l0.3,0.1h0.3 M284.9,427.6l-5.2-15.1
	 M271.7,414.1h0.8l0.8-0.1l1-0.1l1-0.2l1-0.2l1.1-0.3l1.1-0.3l1.2-0.4 M277.7,431.4l-6-17.3 M294.6,432l-0.9,0.5l-1.1,0.4l-1.1,0.3
	l-1.2,0.3l-1.3,0.2h-1.3h-1.3H285l-1.3-0.2l-1.4-0.3l-1.2-0.3l-1.2-0.4l-1.2-0.5l-1-0.6 M215.8,340.1l-1.1-0.7l-0.9-0.7L213,338
	l-0.7-0.8l-0.6-0.8l-0.4-0.9l-0.3-0.8l-0.2-0.9V333l0.1-0.8l0.3-0.9l0.3-0.5 M243.8,356.7L243.8,356.7 M243.8,356.7v-8.1
	 M243.8,356.7l0.3,0.2l0.3,0.2l0.3,0.1h0.3l0.2-0.1 M244.2,347.2l-0.2,0.2l-0.1,0.2l-0.1,0.3v0.3v0.4 M243.8,348.6l0.3-0.2l0.3-0.1
	l0.3-0.2l0.3-0.2l0.2-0.1 M245.2,357.1l28.4,16.4 M215.8,340.1l28,16.2 M245.2,347.8l-1-0.6 M245.2,357.1v-9.3 M220.8,331.4l-5,8.7
	 M268.6,359l-47.8-27.6 M230.8,314.1l47.8,27.5 M220.8,331.4l0.1-1.2l0.1-1.3l0.3-1.3l0.4-1.4l0.5-1.3l0.5-1.4l0.7-1.3l0.7-1.3
	l0.8-1.2l0.9-1.2l1-1.1l0.9-1l1-0.9l1.1-0.8l1-0.6 M298.3,366.9l0.1,0.4l0.2,0.9v0.8l-0.1,0.8l-0.3,0.8l-0.4,0.8l-0.6,0.8l-0.7,0.7
	l-0.8,0.6l-0.9,0.6 M278.6,341.6l1.1,0.7l1.1,0.9l1,0.9l1.1,1.1l0.9,1.2l1,1.3l0.8,1.3l0.7,1.4l0.7,1.4l0.5,1.4 M268.6,359v-1.3
	l0.2-1.2l0.2-1.4l0.4-1.3l0.5-1.4l0.6-1.3l0.6-1.3l0.8-1.3l0.8-1.3l0.9-1.1l0.9-1.1l1-1l1-0.9l1-0.8l1.1-0.7 M273.6,373.5l-5-14.5
	 M294.8,374.1l-1,0.6l-1.2,0.4l-1.2,0.4l-1.3,0.4l-1.4,0.2l-1.4,0.2h-1.4h-1.5l-1.5-0.1l-1.4-0.1l-1.5-0.3l-1.4-0.3l-1.4-0.4
	l-1.3-0.5l-1.2-0.5l-1.1-0.6 M287.5,353.2l7.3,20.9 M268.6,359h0.9l1.1-0.1l1.2-0.2l1.3-0.2l1.3-0.3l1.3-0.3l1.4-0.4l1.4-0.4
	l1.4-0.5l1.4-0.5l1.4-0.5l1.3-0.6l1.3-0.6l1.1-0.6l1.1-0.6 M213.6,386.3L213.6,386.3 M229.2,371.3l-3.5,6 M235.1,370.6H235l-0.1-0.1
	h-0.1l-0.1-0.1l-0.2-0.1h-0.1l-0.1-0.1h-0.1 M234.5,370.3h-0.1l-0.8-0.4l-0.7-0.2h-0.8h-0.7l-0.6,0.2l-0.6,0.3l-0.5,0.4l-0.4,0.5
	l-0.1,0.2 M218.8,377.3l-5.2,9 M239.7,373.4L239.7,373.4l-0.1-0.1 M213.9,384.7L212,388 M224.4,376.5l-0.4-0.2l-0.8-0.3l-0.8-0.3
	h-0.7H221l-0.6,0.2l-0.6,0.3l-0.5,0.4l-0.4,0.5l-0.1,0.2 M239.6,373.3l-0.4-0.1l-0.7-0.1h-0.1 M238.4,373.1l-0.8,0.1l-0.8,0.1
	l-0.9,0.3L235,374l-0.4,0.2 M229.2,379.3l-4.8-2.8 M229.7,379l-0.1,0.1l-0.1,0.1l-0.1,0.1h-0.1h-0.1 M234.6,374.2l-0.5,0.3l-0.9,0.6
	l-0.8,0.8l-0.9,0.8l-0.8,0.9l-0.7,1l-0.3,0.4 M290.4,405.7l-0.4-0.9l-0.4-0.9L289,403l-0.6-0.8l-0.7-0.7l-0.7-0.7l-0.8-0.6l-0.9-0.6
	 M269.7,402.7L269.7,402.7v-0.1 M285.3,399.6l-50.2-29 M285.4,427.7l-0.1-0.1l-0.1-0.1v-0.1h-0.1 M274.6,405.5l-4.9-2.8
	 M279.9,412.4l-0.2-0.5l-0.4-1l-0.5-1l-0.6-0.9l-0.6-0.8l-0.7-0.8l-0.7-0.7l-0.8-0.7l-0.7-0.4l-0.1-0.1 M297.5,426.2l-7.1-20.5
	 M285.2,427.4l-5.3-15 M237.9,313.4l-1.3-0.7l-1.4-0.5l-1.4-0.4l-1.5-0.3h-1.5h-1.5l-1.4,0.3l-1.4,0.4l-1.4,0.5l-1.4,0.7
	 M218.6,318.6l-7.1,12.2 M223.7,313.4l-0.7,0.5l-0.8,0.5l-0.7,0.6l-0.7,0.6l-0.6,0.7l-0.6,0.7l-0.6,0.8l-0.4,0.8 M243.8,356.7
	l0.4,0.3 M243.8,348.1v8.6 M285.7,340.9l-47.8-27.5 M292,348.6l-0.5-1.2l-0.6-1.1l-0.6-1.1l-0.8-1l-0.8-1l-1-0.8l-1-0.8l-1-0.7
	 M298.3,366.9l-6.3-18.3"/>
<g>
	<rect x="551" y="80" class="st1" width="101" height="15"/>
	<path d="M551.8,87.2c0.5,0.3,1.2,0.5,1.9,0.5c1.1,0,1.7-0.6,1.7-1.4s-0.4-1.2-1.5-1.6c-1.3-0.5-2.1-1.2-2.1-2.3
		c0-1.3,1-2.2,2.6-2.2c0.8,0,1.4,0.2,1.8,0.4l-0.3,0.9c-0.3-0.1-0.8-0.4-1.5-0.4c-1.1,0-1.5,0.7-1.5,1.2c0,0.8,0.5,1.1,1.6,1.6
		c1.4,0.5,2.1,1.2,2.1,2.4c0,1.2-0.9,2.3-2.8,2.3c-0.8,0-1.6-0.2-2.1-0.5L551.8,87.2z"/>
	<path d="M558.5,85.8c0,1.4,0.9,2,2,2c0.8,0,1.2-0.1,1.6-0.3l0.2,0.8c-0.4,0.2-1,0.4-1.9,0.4c-1.8,0-2.9-1.2-2.9-2.9
		c0-1.8,1-3.1,2.7-3.1c1.9,0,2.4,1.7,2.4,2.7c0,0.2,0,0.4,0,0.5L558.5,85.8L558.5,85.8z M561.5,85.1c0-0.7-0.3-1.7-1.5-1.7
		c-1.1,0-1.5,1-1.6,1.7H561.5z"/>
	<path d="M563.9,84.3c0-0.6,0-1.1,0-1.6h0.9l0.1,1l0,0c0.3-0.6,1-1.1,1.9-1.1c0.8,0,2.1,0.5,2.1,2.5v3.5h-1.1v-3.3
		c0-0.9-0.3-1.7-1.3-1.7c-0.7,0-1.2,0.5-1.4,1.1c0,0.1-0.1,0.3-0.1,0.5v3.5h-1.1V84.3z"/>
	<path d="M570.4,87.4c0.3,0.2,0.9,0.4,1.4,0.4c0.8,0,1.1-0.4,1.1-0.9s-0.3-0.8-1.1-1.1c-1-0.4-1.5-0.9-1.5-1.6c0-0.9,0.8-1.7,2-1.7
		c0.6,0,1.1,0.2,1.4,0.4l-0.3,0.8c-0.2-0.1-0.6-0.3-1.2-0.3c-0.6,0-1,0.4-1,0.8c0,0.5,0.3,0.7,1.1,1c1,0.4,1.5,0.9,1.5,1.8
		c0,1-0.8,1.7-2.2,1.7c-0.6,0-1.2-0.2-1.6-0.4L570.4,87.4z"/>
	<path d="M580.5,85.6c0,2.1-1.5,3.1-2.9,3.1c-1.6,0-2.8-1.2-2.8-3c0-1.9,1.3-3.1,2.9-3.1C579.4,82.6,580.5,83.8,580.5,85.6z
		 M575.9,85.6c0,1.3,0.7,2.2,1.8,2.2c1,0,1.8-0.9,1.8-2.3c0-1-0.5-2.2-1.7-2.2C576.5,83.4,575.9,84.5,575.9,85.6z"/>
	<path d="M581.9,84.5c0-0.7,0-1.3,0-1.8h0.9v1.1l0,0c0.3-0.8,0.9-1.3,1.6-1.3c0.1,0,0.2,0,0.3,0v1c-0.1,0-0.2,0-0.4,0
		c-0.7,0-1.3,0.6-1.4,1.4c0,0.1,0,0.3,0,0.5v3.1h-1V84.5z"/>
	<path d="M594,88.3c-0.4,0.2-1.2,0.4-2.1,0.4c-2.3,0-4-1.4-4-4.1c0-2.5,1.7-4.2,4.2-4.2c1,0,1.6,0.2,1.9,0.4l-0.3,0.9
		c-0.4-0.2-1-0.3-1.6-0.3c-1.9,0-3.2,1.2-3.2,3.3c0,2,1.1,3.3,3.1,3.3c0.6,0,1.3-0.1,1.7-0.3L594,88.3z"/>
	<path d="M600.4,85.6c0,2.1-1.5,3.1-2.9,3.1c-1.6,0-2.8-1.2-2.8-3c0-1.9,1.3-3.1,2.9-3.1C599.3,82.6,600.4,83.8,600.4,85.6z
		 M595.8,85.6c0,1.3,0.7,2.2,1.8,2.2c1,0,1.8-0.9,1.8-2.3c0-1-0.5-2.2-1.7-2.2C596.4,83.4,595.8,84.5,595.8,85.6z"/>
	<path d="M602.1,82.7l1.1,3.3c0.2,0.5,0.3,1,0.5,1.5l0,0c0.1-0.5,0.3-1,0.5-1.5l1.1-3.3h1.1l-2.3,5.8h-1l-2.2-5.8H602.1z"/>
	<path d="M607.9,85.8c0,1.4,0.9,2,2,2c0.8,0,1.2-0.1,1.6-0.3l0.2,0.8c-0.4,0.2-1,0.4-1.9,0.4c-1.8,0-2.9-1.2-2.9-2.9
		c0-1.8,1-3.1,2.7-3.1c1.9,0,2.4,1.7,2.4,2.7c0,0.2,0,0.4,0,0.5L607.9,85.8L607.9,85.8z M611,85.1c0-0.7-0.3-1.7-1.5-1.7
		c-1.1,0-1.5,1-1.6,1.7H611z"/>
	<path d="M613.3,84.5c0-0.7,0-1.3,0-1.8h0.9v1.1l0,0c0.3-0.8,0.9-1.3,1.6-1.3c0.1,0,0.2,0,0.3,0v1c-0.1,0-0.2,0-0.4,0
		c-0.7,0-1.3,0.6-1.4,1.4c0,0.1,0,0.3,0,0.5v3.1h-1L613.3,84.5L613.3,84.5z"/>
</g>
<g>
	<rect x="546" y="209.5" class="st1" width="101" height="15"/>
	<path d="M546.9,210c0.5-0.1,1.2-0.2,1.9-0.2c1,0,1.7,0.2,2.2,0.6c0.4,0.3,0.7,0.8,0.7,1.4c0,0.8-0.5,1.5-1.4,1.8l0,0
		c0.8,0.2,1.7,0.8,1.7,2c0,0.7-0.3,1.2-0.7,1.6c-0.6,0.5-1.5,0.8-2.8,0.8c-0.7,0-1.3,0-1.6-0.1V210L546.9,210z M548,213.4h0.9
		c1.1,0,1.8-0.6,1.8-1.4c0-0.9-0.7-1.3-1.8-1.3c-0.5,0-0.8,0-0.9,0.1V213.4z M548,217.2c0.2,0,0.5,0,0.9,0c1.1,0,2.1-0.4,2.1-1.6
		c0-1.1-0.9-1.6-2.1-1.6H548V217.2z"/>
	<path d="M556.6,218l-0.1-0.7l0,0c-0.3,0.5-0.9,0.9-1.8,0.9c-1.2,0-1.8-0.8-1.8-1.7c0-1.4,1.2-2.2,3.5-2.2v-0.1
		c0-0.5-0.1-1.3-1.3-1.3c-0.5,0-1.1,0.2-1.5,0.4l-0.2-0.7c0.5-0.3,1.2-0.5,1.9-0.5c1.8,0,2.2,1.2,2.2,2.4v2.2c0,0.5,0,1,0.1,1.4
		L556.6,218L556.6,218z M556.4,215.1c-1.2,0-2.5,0.2-2.5,1.3c0,0.7,0.5,1,1,1c0.8,0,1.2-0.5,1.4-1c0-0.1,0.1-0.2,0.1-0.3V215.1z"/>
	<path d="M560.4,210.5v1.7h1.5v0.8h-1.5v3.1c0,0.7,0.2,1.1,0.8,1.1c0.3,0,0.5,0,0.6-0.1v0.8c-0.2,0.1-0.5,0.1-0.9,0.1
		c-0.5,0-0.9-0.2-1.1-0.4c-0.3-0.3-0.4-0.8-0.4-1.5V213h-0.9v-0.8h0.9v-1.4L560.4,210.5z"/>
	<path d="M564.4,210.5v1.7h1.5v0.8h-1.5v3.1c0,0.7,0.2,1.1,0.8,1.1c0.3,0,0.5,0,0.6-0.1v0.8c-0.2,0.1-0.5,0.1-0.9,0.1
		c-0.5,0-0.9-0.2-1.1-0.4c-0.3-0.3-0.4-0.8-0.4-1.5V213h-0.9v-0.8h0.9v-1.4L564.4,210.5z"/>
	<path d="M567.6,215.3c0,1.4,0.9,2,2,2c0.8,0,1.2-0.1,1.6-0.3l0.2,0.8c-0.4,0.2-1,0.4-1.9,0.4c-1.8,0-2.9-1.2-2.9-2.9
		c0-1.8,1-3.1,2.7-3.1c1.9,0,2.4,1.7,2.4,2.7c0,0.2,0,0.4,0,0.5L567.6,215.3L567.6,215.3z M570.7,214.6c0-0.7-0.3-1.7-1.5-1.7
		c-1.1,0-1.5,1-1.6,1.7H570.7z"/>
	<path d="M573,214c0-0.7,0-1.3,0-1.8h0.9v1.1l0,0c0.3-0.8,0.9-1.3,1.6-1.3c0.1,0,0.2,0,0.3,0v1c-0.1,0-0.2,0-0.4,0
		c-0.7,0-1.3,0.6-1.4,1.4c0,0.1,0,0.3,0,0.5v3.1h-1V214z"/>
	<path d="M577.6,212.2l1.3,3.4c0.1,0.4,0.3,0.8,0.4,1.2l0,0c0.1-0.3,0.2-0.8,0.4-1.2l1.2-3.4h1.1l-1.6,4.1c-0.8,2-1.3,3-2,3.6
		c-0.5,0.5-1,0.6-1.3,0.7l-0.3-0.9c0.3-0.1,0.6-0.3,0.9-0.5s0.6-0.6,0.9-1.2c0-0.1,0.1-0.2,0.1-0.3s0-0.1-0.1-0.3l-2.1-5.3
		L577.6,212.2L577.6,212.2z"/>
</g>
<g>
	<rect x="541" y="271" class="st1" width="101" height="15"/>
	<path d="M541.9,271.5c0.5-0.1,1.2-0.2,1.9-0.2c1,0,1.7,0.2,2.2,0.6c0.4,0.3,0.7,0.8,0.7,1.4c0,0.8-0.5,1.5-1.4,1.8l0,0
		c0.8,0.2,1.7,0.8,1.7,2c0,0.7-0.3,1.2-0.7,1.6c-0.6,0.5-1.5,0.8-2.8,0.8c-0.7,0-1.3,0-1.6-0.1V271.5L541.9,271.5z M543,274.9h0.9
		c1.1,0,1.8-0.6,1.8-1.4c0-0.9-0.7-1.3-1.8-1.3c-0.5,0-0.8,0-0.9,0.1V274.9z M543,278.7c0.2,0,0.5,0,0.9,0c1.1,0,2.1-0.4,2.1-1.6
		c0-1.1-0.9-1.6-2.1-1.6H543V278.7z"/>
	<path d="M551.6,279.5l-0.1-0.7l0,0c-0.3,0.5-0.9,0.9-1.8,0.9c-1.2,0-1.8-0.8-1.8-1.7c0-1.4,1.2-2.2,3.5-2.2v-0.1
		c0-0.5-0.1-1.3-1.3-1.3c-0.5,0-1.1,0.2-1.5,0.4l-0.2-0.7c0.5-0.3,1.2-0.5,1.9-0.5c1.8,0,2.2,1.2,2.2,2.4v2.2c0,0.5,0,1,0.1,1.4
		L551.6,279.5L551.6,279.5z M551.4,276.6c-1.2,0-2.5,0.2-2.5,1.3c0,0.7,0.5,1,1,1c0.8,0,1.2-0.5,1.4-1c0-0.1,0.1-0.2,0.1-0.3V276.6z
		"/>
	<path d="M555.4,272v1.7h1.5v0.8h-1.5v3.1c0,0.7,0.2,1.1,0.8,1.1c0.3,0,0.5,0,0.6-0.1v0.8c-0.2,0.1-0.5,0.1-0.9,0.1
		c-0.5,0-0.9-0.2-1.1-0.4c-0.3-0.3-0.4-0.8-0.4-1.5v-3.2h-0.9v-0.8h0.9v-1.4L555.4,272z"/>
	<path d="M559.4,272v1.7h1.5v0.8h-1.5v3.1c0,0.7,0.2,1.1,0.8,1.1c0.3,0,0.5,0,0.6-0.1v0.8c-0.2,0.1-0.5,0.1-0.9,0.1
		c-0.5,0-0.9-0.2-1.1-0.4c-0.3-0.3-0.4-0.8-0.4-1.5v-3.2h-0.9v-0.8h0.9v-1.4L559.4,272z"/>
	<path d="M562.6,276.8c0,1.4,0.9,2,2,2c0.8,0,1.2-0.1,1.6-0.3l0.2,0.8c-0.4,0.2-1,0.4-1.9,0.4c-1.8,0-2.9-1.2-2.9-2.9
		c0-1.8,1-3.1,2.7-3.1c1.9,0,2.4,1.7,2.4,2.7c0,0.2,0,0.4,0,0.5h-4.1V276.8z M565.7,276.1c0-0.7-0.3-1.7-1.5-1.7
		c-1.1,0-1.5,1-1.6,1.7H565.7z"/>
	<path d="M568,275.5c0-0.7,0-1.3,0-1.8h0.9v1.1l0,0c0.3-0.8,0.9-1.3,1.6-1.3c0.1,0,0.2,0,0.3,0v1c-0.1,0-0.2,0-0.4,0
		c-0.7,0-1.3,0.6-1.4,1.4c0,0.1,0,0.3,0,0.5v3.1h-1V275.5z"/>
	<path d="M572.6,273.7l1.3,3.4c0.1,0.4,0.3,0.8,0.4,1.2l0,0c0.1-0.3,0.2-0.8,0.4-1.2l1.2-3.4h1.1l-1.6,4.1c-0.8,2-1.3,3-2,3.6
		c-0.5,0.5-1,0.6-1.3,0.7l-0.3-0.9c0.3-0.1,0.6-0.3,0.9-0.5s0.6-0.6,0.9-1.2c0-0.1,0.1-0.2,0.1-0.3c0-0.1,0-0.1-0.1-0.3l-2.1-5.3
		L572.6,273.7L572.6,273.7z"/>
	<path d="M581.5,272.3H579v-0.9h6v0.9h-2.5v7.2h-1.1L581.5,272.3L581.5,272.3z"/>
	<path d="M588.3,279.5l-0.1-0.7l0,0c-0.3,0.5-0.9,0.9-1.8,0.9c-1.2,0-1.8-0.8-1.8-1.7c0-1.4,1.2-2.2,3.5-2.2v-0.1
		c0-0.5-0.1-1.3-1.3-1.3c-0.5,0-1.1,0.2-1.5,0.4l-0.2-0.7c0.5-0.3,1.2-0.5,1.9-0.5c1.8,0,2.2,1.2,2.2,2.4v2.2c0,0.5,0,1,0.1,1.4
		L588.3,279.5L588.3,279.5z M588.2,276.6c-1.2,0-2.5,0.2-2.5,1.3c0,0.7,0.5,1,1,1c0.8,0,1.2-0.5,1.4-1c0-0.1,0.1-0.2,0.1-0.3V276.6z
		"/>
	<path d="M590.9,279.5c0-0.4,0-1,0-1.5v-7h1v3.6l0,0c0.4-0.6,1-1.1,2-1.1c1.4,0,2.5,1.2,2.4,3c0,2.1-1.3,3.1-2.6,3.1
		c-0.8,0-1.5-0.3-1.9-1.1l0,0v1H590.9z M592,277.2c0,0.1,0,0.3,0,0.4c0.2,0.7,0.8,1.2,1.6,1.2c1.1,0,1.8-0.9,1.8-2.2
		c0-1.2-0.6-2.2-1.7-2.2c-0.7,0-1.4,0.5-1.6,1.3c0,0.1-0.1,0.3-0.1,0.4V277.2L592,277.2z"/>
</g>
<g>
	<rect x="546" y="332.5" class="st1" width="101" height="15"/>
	<path d="M546.8,339.7c0.5,0.3,1.2,0.5,1.9,0.5c1.1,0,1.7-0.6,1.7-1.4s-0.4-1.2-1.5-1.6c-1.3-0.5-2.1-1.2-2.1-2.3
		c0-1.3,1-2.2,2.6-2.2c0.8,0,1.4,0.2,1.8,0.4l-0.3,0.9c-0.3-0.1-0.8-0.4-1.5-0.4c-1.1,0-1.5,0.7-1.5,1.2c0,0.8,0.5,1.1,1.6,1.6
		c1.4,0.5,2.1,1.2,2.1,2.4c0,1.2-0.9,2.3-2.8,2.3c-0.8,0-1.6-0.2-2.1-0.5L546.8,339.7z"/>
	<path d="M553.5,338.3c0,1.4,0.9,2,2,2c0.8,0,1.2-0.1,1.6-0.3l0.2,0.8c-0.4,0.2-1,0.4-1.9,0.4c-1.8,0-2.9-1.2-2.9-2.9
		c0-1.8,1-3.1,2.7-3.1c1.9,0,2.4,1.7,2.4,2.7c0,0.2,0,0.4,0,0.5h-4.1V338.3z M556.5,337.6c0-0.7-0.3-1.7-1.5-1.7
		c-1.1,0-1.5,1-1.6,1.7H556.5z"/>
	<path d="M558.9,336.8c0-0.6,0-1.1,0-1.6h0.9l0.1,1l0,0c0.3-0.6,1-1.1,1.9-1.1c0.8,0,2.1,0.5,2.1,2.5v3.5h-1.1v-3.3
		c0-0.9-0.3-1.7-1.3-1.7c-0.7,0-1.2,0.5-1.4,1.1c0,0.1-0.1,0.3-0.1,0.5v3.5h-1.1V336.8z"/>
	<path d="M565.4,339.9c0.3,0.2,0.9,0.4,1.4,0.4c0.8,0,1.1-0.4,1.1-0.9s-0.3-0.8-1.1-1.1c-1-0.4-1.5-0.9-1.5-1.6c0-0.9,0.8-1.7,2-1.7
		c0.6,0,1.1,0.2,1.4,0.4l-0.3,0.8c-0.2-0.1-0.6-0.3-1.2-0.3c-0.6,0-1,0.4-1,0.8c0,0.5,0.3,0.7,1.1,1c1,0.4,1.5,0.9,1.5,1.8
		c0,1-0.8,1.7-2.2,1.7c-0.6,0-1.2-0.2-1.6-0.4L565.4,339.9z"/>
	<path d="M575.5,338.1c0,2.1-1.5,3.1-2.9,3.1c-1.6,0-2.8-1.2-2.8-3c0-1.9,1.3-3.1,2.9-3.1C574.4,335.1,575.5,336.3,575.5,338.1z
		 M570.9,338.1c0,1.3,0.7,2.2,1.8,2.2c1,0,1.8-0.9,1.8-2.3c0-1-0.5-2.2-1.7-2.2C571.5,335.9,570.9,337,570.9,338.1z"/>
	<path d="M576.9,337c0-0.7,0-1.3,0-1.8h0.9v1.1l0,0c0.3-0.8,0.9-1.3,1.6-1.3c0.1,0,0.2,0,0.3,0v1c-0.1,0-0.2,0-0.4,0
		c-0.7,0-1.3,0.6-1.4,1.4c0,0.1,0,0.3,0,0.5v3.1h-1V337z"/>
	<path d="M583.4,333c0.5-0.1,1.2-0.2,1.9-0.2c1,0,1.7,0.2,2.2,0.6c0.4,0.3,0.7,0.8,0.7,1.4c0,0.8-0.5,1.5-1.4,1.8l0,0
		c0.8,0.2,1.7,0.8,1.7,2c0,0.7-0.3,1.2-0.7,1.6c-0.6,0.5-1.5,0.8-2.8,0.8c-0.7,0-1.3,0-1.6-0.1V333L583.4,333z M584.4,336.4h0.9
		c1.1,0,1.8-0.6,1.8-1.4c0-0.9-0.7-1.3-1.8-1.3c-0.5,0-0.8,0-0.9,0.1V336.4z M584.4,340.2c0.2,0,0.5,0,0.9,0c1.1,0,2.1-0.4,2.1-1.6
		c0-1.1-0.9-1.6-2.1-1.6h-0.9V340.2z"/>
	<path d="M595.1,338.1c0,2.1-1.5,3.1-2.9,3.1c-1.6,0-2.8-1.2-2.8-3c0-1.9,1.3-3.1,2.9-3.1C594,335.1,595.1,336.3,595.1,338.1z
		 M590.5,338.1c0,1.3,0.7,2.2,1.8,2.2c1,0,1.8-0.9,1.8-2.3c0-1-0.5-2.2-1.7-2.2C591.1,335.9,590.5,337,590.5,338.1z"/>
	<path d="M601.5,332.5v7c0,0.5,0,1.1,0,1.5h-0.9v-1l0,0c-0.3,0.6-1,1.1-2,1.1c-1.4,0-2.5-1.2-2.5-3c0-1.9,1.2-3.1,2.6-3.1
		c0.9,0,1.5,0.4,1.8,0.9l0,0v-3.5h1V332.5z M600.4,337.6c0-0.1,0-0.3,0-0.4c-0.2-0.7-0.7-1.2-1.5-1.2c-1.1,0-1.7,1-1.7,2.2
		s0.6,2.1,1.7,2.1c0.7,0,1.4-0.5,1.5-1.3c0-0.1,0-0.3,0-0.5V337.6z"/>
	<path d="M603.6,335.2l1.3,3.4c0.1,0.4,0.3,0.8,0.4,1.2l0,0c0.1-0.3,0.2-0.8,0.4-1.2l1.2-3.4h1.1l-1.6,4.1c-0.8,2-1.3,3-2,3.6
		c-0.5,0.5-1,0.6-1.3,0.7l-0.3-0.9c0.3-0.1,0.6-0.3,0.9-0.5c0.3-0.2,0.6-0.6,0.9-1.2c0-0.1,0.1-0.2,0.1-0.3c0-0.1,0-0.1-0.1-0.3
		l-2.1-5.3L603.6,335.2L603.6,335.2z"/>
</g>
<g>
	<rect x="546" y="439.7" class="st1" width="101" height="15"/>
	<path d="M546.8,446.9c0.5,0.3,1.2,0.5,1.9,0.5c1.1,0,1.7-0.6,1.7-1.4s-0.4-1.2-1.5-1.6c-1.3-0.5-2.1-1.2-2.1-2.3
		c0-1.3,1-2.2,2.6-2.2c0.8,0,1.4,0.2,1.8,0.4l-0.3,0.9c-0.3-0.1-0.8-0.4-1.5-0.4c-1.1,0-1.5,0.7-1.5,1.2c0,0.8,0.5,1.1,1.6,1.6
		c1.4,0.5,2.1,1.2,2.1,2.4c0,1.2-0.9,2.3-2.8,2.3c-0.8,0-1.6-0.2-2.1-0.5L546.8,446.9z"/>
	<path d="M553.5,445.5c0,1.4,0.9,2,2,2c0.8,0,1.2-0.1,1.6-0.3l0.2,0.8c-0.4,0.2-1,0.4-1.9,0.4c-1.8,0-2.9-1.2-2.9-2.9
		c0-1.8,1-3.1,2.7-3.1c1.9,0,2.4,1.7,2.4,2.7c0,0.2,0,0.4,0,0.5h-4.1V445.5z M556.5,444.8c0-0.7-0.3-1.7-1.5-1.7
		c-1.1,0-1.5,1-1.6,1.7H556.5z"/>
	<path d="M558.9,444c0-0.6,0-1.1,0-1.6h0.9l0.1,1l0,0c0.3-0.6,1-1.1,1.9-1.1c0.8,0,2.1,0.5,2.1,2.5v3.5h-1.1V445
		c0-0.9-0.3-1.7-1.3-1.7c-0.7,0-1.2,0.5-1.4,1.1c0,0.1-0.1,0.3-0.1,0.5v3.5h-1.1V444z"/>
	<path d="M565.4,447.1c0.3,0.2,0.9,0.4,1.4,0.4c0.8,0,1.1-0.4,1.1-0.9s-0.3-0.8-1.1-1.1c-1-0.4-1.5-0.9-1.5-1.6c0-0.9,0.8-1.7,2-1.7
		c0.6,0,1.1,0.2,1.4,0.4l-0.3,0.8c-0.2-0.1-0.6-0.3-1.2-0.3c-0.6,0-1,0.4-1,0.8c0,0.5,0.3,0.7,1.1,1c1,0.4,1.5,0.9,1.5,1.8
		c0,1-0.8,1.7-2.2,1.7c-0.6,0-1.2-0.2-1.6-0.4L565.4,447.1z"/>
	<path d="M575.5,445.3c0,2.1-1.5,3.1-2.9,3.1c-1.6,0-2.8-1.2-2.8-3c0-1.9,1.3-3.1,2.9-3.1C574.4,442.3,575.5,443.5,575.5,445.3z
		 M570.9,445.3c0,1.3,0.7,2.2,1.8,2.2c1,0,1.8-0.9,1.8-2.3c0-1-0.5-2.2-1.7-2.2C571.5,443.1,570.9,444.2,570.9,445.3z"/>
	<path d="M576.9,444.2c0-0.7,0-1.3,0-1.8h0.9v1.1l0,0c0.3-0.8,0.9-1.3,1.6-1.3c0.1,0,0.2,0,0.3,0v1c-0.1,0-0.2,0-0.4,0
		c-0.7,0-1.3,0.6-1.4,1.4c0,0.1,0,0.3,0,0.5v3.1h-1V444.2z"/>
	<path d="M583.4,440.2c0.5-0.1,1.2-0.2,1.9-0.2c1,0,1.7,0.2,2.2,0.6c0.4,0.3,0.7,0.8,0.7,1.4c0,0.8-0.5,1.5-1.4,1.8l0,0
		c0.8,0.2,1.7,0.8,1.7,2c0,0.7-0.3,1.2-0.7,1.6c-0.6,0.5-1.5,0.8-2.8,0.8c-0.7,0-1.3,0-1.6-0.1V440.2L583.4,440.2z M584.4,443.6h0.9
		c1.1,0,1.8-0.6,1.8-1.4c0-0.9-0.7-1.3-1.8-1.3c-0.5,0-0.8,0-0.9,0.1V443.6z M584.4,447.4c0.2,0,0.5,0,0.9,0c1.1,0,2.1-0.4,2.1-1.6
		c0-1.1-0.9-1.6-2.1-1.6h-0.9V447.4z"/>
	<path d="M593.1,448.2l-0.1-0.7l0,0c-0.3,0.5-0.9,0.9-1.8,0.9c-1.2,0-1.8-0.8-1.8-1.7c0-1.4,1.2-2.2,3.5-2.2v-0.1
		c0-0.5-0.1-1.3-1.3-1.3c-0.5,0-1.1,0.2-1.5,0.4l-0.2-0.7c0.5-0.3,1.2-0.5,1.9-0.5c1.8,0,2.2,1.2,2.2,2.4v2.2c0,0.5,0,1,0.1,1.4
		L593.1,448.2L593.1,448.2z M592.9,445.3c-1.2,0-2.5,0.2-2.5,1.3c0,0.7,0.5,1,1,1c0.8,0,1.2-0.5,1.4-1c0-0.1,0.1-0.2,0.1-0.3V445.3z
		"/>
	<path d="M595.5,447.1c0.3,0.2,0.9,0.4,1.4,0.4c0.8,0,1.1-0.4,1.1-0.9s-0.3-0.8-1.1-1.1c-1-0.4-1.5-0.9-1.5-1.6c0-0.9,0.8-1.7,2-1.7
		c0.6,0,1.1,0.2,1.4,0.4l-0.3,0.8c-0.2-0.1-0.6-0.3-1.2-0.3c-0.6,0-1,0.4-1,0.8c0,0.5,0.3,0.7,1.1,1c1,0.4,1.5,0.9,1.5,1.8
		c0,1-0.8,1.7-2.2,1.7c-0.6,0-1.2-0.2-1.6-0.4L595.5,447.1z"/>
	<path d="M601,445.5c0,1.4,0.9,2,2,2c0.8,0,1.2-0.1,1.6-0.3l0.2,0.8c-0.4,0.2-1,0.4-1.9,0.4c-1.8,0-2.9-1.2-2.9-2.9
		c0-1.8,1-3.1,2.7-3.1c1.9,0,2.4,1.7,2.4,2.7c0,0.2,0,0.4,0,0.5H601V445.5z M604.1,444.8c0-0.7-0.3-1.7-1.5-1.7
		c-1.1,0-1.5,1-1.6,1.7H604.1z"/>
</g>
<g>
	<rect x="109.8" y="392" class="st1" width="101" height="15"/>
	<path d="M117.5,397c-0.1-1.1-0.1-2.5-0.1-3.5l0,0c-0.3,0.9-0.6,2-1,3.1l-1.4,3.9h-0.8l-1.3-3.9c-0.4-1.1-0.7-2.2-0.9-3.1l0,0
		c0,1-0.1,2.4-0.2,3.6l-0.2,3.5h-1l0.6-8.1h1.3l1.4,3.9c0.3,1,0.6,1.9,0.8,2.7l0,0c0.2-0.8,0.5-1.7,0.9-2.7l1.4-3.9h1.3l0.5,8.1h-1
		L117.5,397z"/>
	<path d="M123.6,400.5l-0.1-0.7l0,0c-0.3,0.5-0.9,0.9-1.8,0.9c-1.2,0-1.8-0.8-1.8-1.7c0-1.4,1.2-2.2,3.5-2.2v-0.1
		c0-0.5-0.1-1.3-1.3-1.3c-0.5,0-1.1,0.2-1.5,0.4l-0.2-0.7c0.5-0.3,1.2-0.5,1.9-0.5c1.8,0,2.2,1.2,2.2,2.4v2.2c0,0.5,0,1,0.1,1.4
		L123.6,400.5L123.6,400.5z M123.5,397.6c-1.2,0-2.5,0.2-2.5,1.3c0,0.7,0.5,1,1,1c0.8,0,1.2-0.5,1.4-1c0-0.1,0.1-0.2,0.1-0.3V397.6z
		"/>
	<path d="M131.2,394.7c0,0.4,0,0.9,0,1.6v3.4c0,1.3-0.3,2.1-0.8,2.7c-0.6,0.5-1.4,0.7-2.1,0.7s-1.5-0.2-1.9-0.5l0.3-0.8
		c0.4,0.2,1,0.5,1.7,0.5c1.1,0,1.9-0.6,1.9-2v-0.6l0,0c-0.3,0.5-0.9,1-1.8,1c-1.4,0-2.5-1.2-2.5-2.8c0-2,1.3-3.1,2.6-3.1
		c1,0,1.6,0.5,1.8,1l0,0v-0.9h0.8V394.7z M130.1,397c0-0.2,0-0.3-0.1-0.5c-0.2-0.6-0.7-1.1-1.5-1.1c-1,0-1.7,0.9-1.7,2.2
		c0,1.1,0.6,2.1,1.7,2.1c0.6,0,1.2-0.4,1.5-1.1c0.1-0.2,0.1-0.4,0.1-0.6V397z"/>
	<path d="M132.8,396.3c0-0.6,0-1.1,0-1.6h0.9l0.1,1l0,0c0.3-0.6,1-1.1,1.9-1.1c0.8,0,2.1,0.5,2.1,2.5v3.5h-1.1v-3.3
		c0-0.9-0.3-1.7-1.3-1.7c-0.7,0-1.2,0.5-1.4,1.1c0,0.1-0.1,0.3-0.1,0.5v3.5h-1.1C132.8,400.7,132.8,396.3,132.8,396.3z"/>
	<path d="M140.1,397.8c0,1.4,0.9,2,2,2c0.8,0,1.2-0.1,1.6-0.3l0.2,0.8c-0.4,0.2-1,0.4-1.9,0.4c-1.8,0-2.9-1.2-2.9-2.9
		c0-1.8,1-3.1,2.7-3.1c1.9,0,2.4,1.7,2.4,2.7c0,0.2,0,0.4,0,0.5h-4.1V397.8z M143.2,397.1c0-0.7-0.3-1.7-1.5-1.7
		c-1.1,0-1.5,1-1.6,1.7H143.2z"/>
	<path d="M146.8,393v1.7h1.5v0.8h-1.5v3.1c0,0.7,0.2,1.1,0.8,1.1c0.3,0,0.5,0,0.6-0.1v0.8c-0.2,0.1-0.5,0.1-0.9,0.1
		c-0.5,0-0.9-0.2-1.1-0.4c-0.3-0.3-0.4-0.8-0.4-1.5v-3.2h-0.9v-0.8h0.9v-1.4L146.8,393z"/>
	<path d="M152,392.5c0.5-0.1,1.2-0.2,1.9-0.2c1,0,1.7,0.2,2.2,0.6c0.4,0.3,0.7,0.8,0.7,1.4c0,0.8-0.5,1.5-1.4,1.8l0,0
		c0.8,0.2,1.7,0.8,1.7,2c0,0.7-0.3,1.2-0.7,1.6c-0.6,0.5-1.5,0.8-2.8,0.8c-0.7,0-1.3,0-1.6-0.1C152,400.4,152,392.5,152,392.5z
		 M153.1,395.9h0.9c1.1,0,1.8-0.6,1.8-1.4c0-0.9-0.7-1.3-1.8-1.3c-0.5,0-0.8,0-0.9,0.1V395.9z M153.1,399.7c0.2,0,0.5,0,0.9,0
		c1.1,0,2.1-0.4,2.1-1.6c0-1.1-0.9-1.6-2.1-1.6h-0.9V399.7z"/>
	<path d="M161.7,400.5l-0.1-0.7l0,0c-0.3,0.5-0.9,0.9-1.8,0.9c-1.2,0-1.8-0.8-1.8-1.7c0-1.4,1.2-2.2,3.5-2.2v-0.1
		c0-0.5-0.1-1.3-1.3-1.3c-0.5,0-1.1,0.2-1.5,0.4l-0.2-0.7c0.5-0.3,1.2-0.5,1.9-0.5c1.8,0,2.2,1.2,2.2,2.4v2.2c0,0.5,0,1,0.1,1.4
		L161.7,400.5L161.7,400.5z M161.6,397.6c-1.2,0-2.5,0.2-2.5,1.3c0,0.7,0.5,1,1,1c0.8,0,1.2-0.5,1.4-1c0-0.1,0.1-0.2,0.1-0.3V397.6z
		"/>
	<path d="M164.1,399.4c0.3,0.2,0.9,0.4,1.4,0.4c0.8,0,1.1-0.4,1.1-0.9s-0.3-0.8-1.1-1.1c-1-0.4-1.5-0.9-1.5-1.6c0-0.9,0.8-1.7,2-1.7
		c0.6,0,1.1,0.2,1.4,0.4l-0.3,0.8c-0.2-0.1-0.6-0.3-1.2-0.3c-0.6,0-1,0.4-1,0.8c0,0.5,0.3,0.7,1.1,1c1,0.4,1.5,0.9,1.5,1.8
		c0,1-0.8,1.7-2.2,1.7c-0.6,0-1.2-0.2-1.6-0.4L164.1,399.4z"/>
	<path d="M169.6,397.8c0,1.4,0.9,2,2,2c0.8,0,1.2-0.1,1.6-0.3l0.2,0.8c-0.4,0.2-1,0.4-1.9,0.4c-1.8,0-2.9-1.2-2.9-2.9
		c0-1.8,1-3.1,2.7-3.1c1.9,0,2.4,1.7,2.4,2.7c0,0.2,0,0.4,0,0.5h-4.1V397.8z M172.7,397.1c0-0.7-0.3-1.7-1.5-1.7
		c-1.1,0-1.5,1-1.6,1.7H172.7z"/>
</g>
<g>
	<rect x="117.8" y="295" class="st1" width="82.2" height="15.9"/>
	<path d="M125.5,300c-0.1-1.1-0.1-2.5-0.1-3.5l0,0c-0.3,0.9-0.6,2-1,3.1l-1.4,3.9h-0.8l-1.3-3.9c-0.4-1.1-0.7-2.2-0.9-3.1l0,0
		c0,1-0.1,2.4-0.2,3.6l-0.2,3.5h-1l0.6-8.1h1.3l1.4,3.9c0.3,1,0.6,1.9,0.8,2.7l0,0c0.2-0.8,0.5-1.7,0.9-2.7l1.4-3.9h1.3l0.5,8.1h-1
		L125.5,300z"/>
	<path d="M131.6,303.6l-0.1-0.7l0,0c-0.3,0.5-0.9,0.9-1.8,0.9c-1.2,0-1.8-0.8-1.8-1.7c0-1.4,1.2-2.2,3.5-2.2v-0.1
		c0-0.5-0.1-1.3-1.3-1.3c-0.5,0-1.1,0.2-1.5,0.4l-0.2-0.7c0.5-0.3,1.2-0.5,1.9-0.5c1.8,0,2.2,1.2,2.2,2.4v2.2c0,0.5,0,1,0.1,1.4
		L131.6,303.6L131.6,303.6z M131.5,300.6c-1.2,0-2.5,0.2-2.5,1.3c0,0.7,0.5,1,1,1c0.8,0,1.2-0.5,1.4-1c0-0.1,0.1-0.2,0.1-0.3V300.6z
		"/>
	<path d="M139.2,297.7c0,0.4,0,0.9,0,1.6v3.4c0,1.3-0.3,2.1-0.8,2.7c-0.6,0.5-1.4,0.7-2.1,0.7s-1.5-0.2-1.9-0.5l0.3-0.8
		c0.4,0.2,1,0.5,1.7,0.5c1.1,0,1.9-0.6,1.9-2v-0.6l0,0c-0.3,0.5-0.9,1-1.8,1c-1.4,0-2.5-1.2-2.5-2.8c0-2,1.3-3.1,2.6-3.1
		c1,0,1.6,0.5,1.8,1l0,0v-0.9h0.8V297.7z M138.1,300c0-0.2,0-0.3-0.1-0.5c-0.2-0.6-0.7-1.1-1.5-1.1c-1,0-1.7,0.9-1.7,2.2
		c0,1.1,0.6,2.1,1.7,2.1c0.6,0,1.2-0.4,1.5-1.1c0.1-0.2,0.1-0.4,0.1-0.6V300z"/>
	<path d="M140.8,299.3c0-0.6,0-1.1,0-1.6h0.9l0.1,1l0,0c0.3-0.6,1-1.1,1.9-1.1c0.8,0,2.1,0.5,2.1,2.5v3.5h-1.1v-3.3
		c0-0.9-0.3-1.7-1.3-1.7c-0.7,0-1.2,0.5-1.4,1.1c0,0.1-0.1,0.3-0.1,0.5v3.5h-1.1C140.8,303.7,140.8,299.3,140.8,299.3z"/>
	<path d="M148.1,300.8c0,1.4,0.9,2,2,2c0.8,0,1.2-0.1,1.6-0.3l0.2,0.8c-0.4,0.2-1,0.4-1.9,0.4c-1.8,0-2.9-1.2-2.9-2.9
		c0-1.8,1-3.1,2.7-3.1c1.9,0,2.4,1.7,2.4,2.7c0,0.2,0,0.4,0,0.5h-4.1V300.8z M151.2,300.1c0-0.7-0.3-1.7-1.5-1.7
		c-1.1,0-1.5,1-1.6,1.7H151.2z"/>
	<path d="M154.8,296.1v1.7h1.5v0.8h-1.5v3.1c0,0.7,0.2,1.1,0.8,1.1c0.3,0,0.5,0,0.6-0.1v0.8c-0.2,0.1-0.5,0.1-0.9,0.1
		c-0.5,0-0.9-0.2-1.1-0.4c-0.3-0.3-0.4-0.8-0.4-1.5v-3.2h-0.9v-0.8h0.9v-1.4L154.8,296.1z"/>
	<path d="M165.7,303.3c-0.4,0.2-1.2,0.4-2.1,0.4c-2.3,0-4-1.4-4-4.1c0-2.5,1.7-4.2,4.2-4.2c1,0,1.6,0.2,1.9,0.4l-0.3,0.9
		c-0.4-0.2-1-0.3-1.6-0.3c-1.9,0-3.2,1.2-3.2,3.3c0,2,1.1,3.3,3.1,3.3c0.6,0,1.3-0.1,1.7-0.3L165.7,303.3z"/>
	<path d="M172.1,300.6c0,2.1-1.5,3.1-2.9,3.1c-1.6,0-2.8-1.2-2.8-3c0-1.9,1.3-3.1,2.9-3.1C171,297.6,172.1,298.8,172.1,300.6z
		 M167.5,300.7c0,1.3,0.7,2.2,1.8,2.2c1,0,1.8-0.9,1.8-2.3c0-1-0.5-2.2-1.7-2.2C168,298.4,167.5,299.6,167.5,300.7z"/>
	<path d="M173.7,297.7l1.1,3.3c0.2,0.5,0.3,1,0.5,1.5l0,0c0.1-0.5,0.3-1,0.5-1.5l1.1-3.3h1.1l-2.3,5.8h-1l-2.2-5.8H173.7z"/>
	<path d="M179.6,300.8c0,1.4,0.9,2,2,2c0.8,0,1.2-0.1,1.6-0.3l0.2,0.8c-0.4,0.2-1,0.4-1.9,0.4c-1.8,0-2.9-1.2-2.9-2.9
		c0-1.8,1-3.1,2.7-3.1c1.9,0,2.4,1.7,2.4,2.7c0,0.2,0,0.4,0,0.5h-4.1V300.8z M182.7,300.1c0-0.7-0.3-1.7-1.5-1.7
		c-1.1,0-1.5,1-1.6,1.7H182.7z"/>
	<path d="M185,299.6c0-0.7,0-1.3,0-1.8h0.9v1.1l0,0c0.3-0.8,0.9-1.3,1.6-1.3c0.1,0,0.2,0,0.3,0v1c-0.1,0-0.2,0-0.4,0
		c-0.7,0-1.3,0.6-1.4,1.4c0,0.1,0,0.3,0,0.5v3.1h-1V299.6z"/>
</g>
<line class="st2" x1="546" y1="87.5" x2="498" y2="116"/>
<line class="st2" x1="487.9" y1="222.8" x2="541" y2="217"/>
<line class="st2" x1="478" y1="278.5" x2="536" y2="278.5"/>
<line class="st2" x1="505.7" y1="345.2" x2="541" y2="340"/>
<line class="st2" x1="494" y1="420" x2="541" y2="441.2"/>
<line class="st2" x1="183" y1="399.5" x2="233.3" y2="392"/>
<line class="st1" x1="200" y1="303" x2="232" y2="324"/>
<line class="st2" x1="200" y1="303" x2="232" y2="324"/>
</svg>
