<?xml version="1.0" encoding="utf-8"?>
<!-- Generator: Adobe Illustrator 21.0.0, SVG Export Plug-In . SVG Version: 6.00 Build 0)  -->
<svg version="1.1" id="Layer_1" xmlns="http://www.w3.org/2000/svg" xmlns:xlink="http://www.w3.org/1999/xlink" x="0px" y="0px"
	 viewBox="0 0 610 419" style="enable-background:new 0 0 610 419;" xml:space="preserve">
<style type="text/css">
	
		.st0{fill:none;stroke:#808080;stroke-width:0.51;stroke-linecap:round;stroke-linejoin:round;stroke-miterlimit:10;stroke-dasharray:43.2,3.6,3.6,3.6;stroke-dashoffset:3;}
	.st1{fill:none;stroke:#000000;stroke-width:0.709;stroke-linecap:round;stroke-linejoin:round;stroke-miterlimit:10;}
</style>
<line class="st0" x1="198.4" y1="278.4" x2="198.4" y2="368.2"/>
<line class="st0" x1="238.5" y1="255.3" x2="238.5" y2="345"/>
<line class="st0" x1="400.5" y1="268.6" x2="400.5" y2="358.3"/>
<line class="st0" x1="323.2" y1="313.2" x2="323.2" y2="402.9"/>
<path class="st1" d="M408.2,277.7v-16.8 M417.5,266.6l-1.4-0.8 M390.4,302.1L390.4,302.1l-0.1,0.1 M401.8,306.2L401.8,306.2
	L401.8,306.2h-0.2 M362.6,323L362.6,323L362.6,323l-0.2-0.2l-0.1,0.1h-0.1 M370,324.5L370,324.5L370,324.5 M334.5,338.9l0.1-0.1h0.1
	h0.1l0.1,0.1v0.1 M337.2,341.5l-3.2-1.2l-4.4-2.9 M329.6,337.4l-1.3-1.3 M317.7,330.1l14.3-8.3 M342.4,340.4h-0.1v0.1 M270.1,356.6
	L270.1,356.6l0.1,0.3l0.3,0.3 M270.7,357.6h-0.1v-0.1l-0.1-0.1v-0.1v-0.1 M279.6,361.8l0.1-0.1l0.1-0.1v-0.2 M277.9,361.8
	L277.9,361.8v-0.1l-0.1-0.1v-0.1v-0.1 M279.2,340.2L279.2,340.2h-0.1l-0.2,0.1 M284.9,358.4l-5.1,3 M328.2,333.8l0.3,0.3
	 M330.1,336.8l-1.9-1.8 M329.6,345.9l8.6-5 M339.4,341l-9.7,5.6 M329.9,348.1l13.4-7.8 M430.4,290l-100.5,58.1 M330.6,356.6
	l105.5-60.9 M409.2,260.9v9.3 M330.7,321.7l-5,2.9 M342.7,314.8l-9.6,5.5 M280.5,355.9v0.7 M279.5,356.6v-1.3 M304.6,362.8v0.4
	 M280,343.6L280,343.6v0.1h0.1v0.1 M279.5,344.6l0.1-0.1l0.5-0.7 M280,343.5L280,343.5v0.1h0.1l0.1,0.1 M279.8,344.5l-0.2,0.1h-0.1
	 M278.1,345.5L278.1,345.5l0.4-0.2 M280.3,341.2L280.3,341.2v0.1h0.1v0.1h0.1 M281,339.2L281,339.2L281,339.2l0.2,0.1 M307.6,351.3
	l4.3,2.5 M291.8,361.9v0.3l0.1,0.3h0.1 M307.2,352l4.2,2.4 M281.2,339.3l0.8-1.3l0.9-1l1-0.9l0.9-0.6 M304.2,346.3L304.2,346.3v0.1
	l-0.1,0.1l-0.1,0.1 M433.4,290.9l-103.2,59.6 M327.9,339.8l-0.1-7.7 M330.6,355.7L435.7,295 M321,222.4l-0.6,0.2 M313.6,208.7
	l0.9-0.2l1.3,0.1l1.5,0.6l1.4,1.1l1.3,1.4l1.2,1.6l0.8,1.9l0.6,1.8l0.2,1.8l-0.2,1.5l-0.6,1.2l-0.8,0.8 M325.2,218.5l-0.5-3
	l-0.6-1.7l-0.8-1.7l-1-1.6l-1.2-1.3l-2.4-2l-2.4-0.8h-1.2l-1,0.4l-0.9,0.7l-0.6,1l-0.2,1.2 M319.8,222.7l1.3,0.5l1.2-0.1l1-0.3
	l0.8-0.8l0.6-1l0.5-2.5 M310,196.1V196l1.7-0.7l2-0.2l2.1,0.2l2.2,0.7l2.3,1.1l2.3,1.5l2.2,1.9l2.1,2.2l1.9,2.5l1.8,2.7l1.4,2.9
	l1.2,2.9l0.9,2.9l0.5,2.9l0.2,2.7l-0.2,2.6l-0.5,2.2l-0.9,1.9l-1.2,1.6l-1.4,1.1l-0.1,0.1 M450.5,78.2v0.1v0.1l-0.1,0.1l-0.1,0.1
	 M309.9,159.7L309.9,159.7v-0.1l0.1-0.1v-0.1v-0.1 M285,92.6l-2.8-1.3l-2.8-0.6l-2.7,0.1l-2.4,0.8l-0.2,0.1 M257.6,285.7v-0.1h0.1
	v-0.1l0.1-0.1v-0.2 M244.3,282.2l0.1-0.2l0.7-0.6 M245,282.1l0.1,0.5l0.5,0.5l0.8,0.3l0.1,0.1 M176.8,322.9L176.8,322.9l0.1,0.2v0.1
	l0.1,0.1 M184.3,327.5L184.3,327.5L184.3,327.5l-0.1-0.2l-0.1-0.1v-0.1 M185.3,327.1v0.1v0.1l-0.1,0.1l-0.1,0.1 M186.8,315.7
	l0.2,0.4l0.4,0.5l0.8,0.4h0.1 M185.7,213.5v0.2v0.1l-0.1,0.1h-0.1 M175.8,180.6l1-0.2l1.1,0.4 M326.2,295.8l-0.3-0.1 M326.2,294
	l-0.3-0.1 M326.2,292.2l-0.3-0.2 M326.2,290.3l-0.3-0.1 M326.2,288.5l-0.3-0.1 M326.2,286.7l-0.3-0.1 M326.2,284.9l-0.3-0.2
	 M326.2,283l-0.3-0.1 M326.2,281.2l-0.3-0.1 M326.2,279.4l-0.3-0.1 M320.2,277.5l0.8-0.6 M325.3,277l-0.5,0.3l-1,0.2h-1l-1-0.2
	l-0.7-0.3 M407.1,267.4L407.1,267.4 M408.5,257.1l-0.1,0.8 M407,268.5v-0.4l0.1-0.3v-0.4 M407.4,259.5l-0.1-0.3l-0.1-0.2v-0.2
	l0.1-0.1v-0.1l0.1-0.1 M408.9,260l-0.3-0.5 M408,260.5l-0.3-0.5 M408.6,259.5l-0.2-0.2l-0.1-0.3l-0.2-0.1l-0.2-0.2 M407.4,259.6
	v-0.1 M407.4,259.6l0.2,0.2l0.1,0.2 M408.9,260l0.1,0.2l0.1,0.3v0.2l0.1,0.2 M408.2,260.9l-0.1-0.2l-0.1-0.2 M410.9,256.5l-0.6-0.4
	 M410.3,256.1l-1.8,1 M408.5,257.1l0.6,0.4 M409.1,257.5l-1.7,1 M407.4,258.5l0.5,0.2 M411.2,256.3l0.2-0.1h0.3h0.2 M411.2,256.3
	l-0.3,0.2 M418.4,260.8v0.1 M417.5,281.9l-1.2-0.7 M418.8,255.7l0.4-0.2h0.2l0.1,0.1 M421.7,257.8l-0.3-0.9 M421.4,256.9l-0.1-0.3
	l-0.2-0.1h-0.3l-0.3,0.1 M417.8,260.6l1.5,0.9 M416.3,264.4l1.5-3.8 M446.7,291.7l0.2,0.2l0.1,0.1l0.1,0.2v0.1v0.2l-0.1,0.1
	l-0.1,0.2l-0.2,0.1 M440.6,288.2l6.1,3.5 M395.5,299.8l2.1-1.2 M397.6,298.6v2.1 M422.6,288.1l0.3-18.3 M422.9,269.8l0.1-0.7
	l0.2-0.7 M424.8,264.5l-0.1,0.1 M419.4,261.4l-0.1,0.1 M414.4,286.9v-25.6 M419.3,261.5l-1.5,3.8 M417.8,265.3l-0.2,0.7l-0.1,0.6
	 M417.5,266.6v15.3 M417.5,281.9l-1.2,0.6 M416.3,282.5l-0.3-22.2 M423.2,268.4l1.5-3.8 M424.7,264.6l1.5,0.8 M426.2,265.4l-1.5,3.9
	 M424.7,269.3l-0.2,0.7l-0.1,0.6 M424.4,270.6v18.5 M426.3,265.4L426.3,265.4 M397.6,298.6l1.1-0.5l1.3-0.2l1.4,0.1l1.3,0.3l1,0.6
	l0.6,0.7l0.1,0.8l-0.1,0.3 M432.9,263.8l0.3-0.2h0.3l0.1,0.1 M410.8,284.9v-5.4 M435.8,265.9l-0.3-0.9 M434.5,264.7l0.3-0.1h0.3
	l0.2,0.1l0.2,0.3 M433.1,269.4l-1.4-0.8 M394.5,301.9l-0.1-0.5l0.3-0.9l0.8-0.7 M383.1,295.1l-0.1,0.4l-0.1,0.3 M440.7,289.7v-0.4
	v-0.4l-0.1-0.4 M437.5,275.8l1.7,1 M417.9,260.6l1.5,0.8 M417.9,260.7v-0.1 M431.8,268.5l1.4,0.9 M415.4,256.1v3.9 M419.4,261.4V284
	 M424.8,264.5l1.5,0.9 M426.3,265.4V288 M439.2,276.8l1.4,11.7 M439.2,276.8l-1.7,1 M438.7,289.6l0.1,0.4v0.4v0.4 M438.7,289.6
	l-1.2-11.8 M437.5,277.8l-1.8-1 M384.3,295.3v-0.2l-0.1-0.1v-0.1h-0.1H384h-0.1 M431.4,269.2l0.3-0.6 M431.8,268.5l-0.1,0.1
	 M395.9,295.4l-2,1.1 M395.9,295.4l1.4-0.6l1.7-0.4l1.8-0.1l1.8,0.2l1.6,0.5l1.3,0.7l0.8,0.9l0.4,1.1l-0.2,1l-0.6,1l-1.2,0.8
	 M404.7,300.5l-1.9,1.1 M402.8,301.6l-1.5,0.6l-1.6,0.4l-1.8,0.1l-1.7-0.2l-1.6-0.5l-1.2-0.8l-0.9-0.9l-0.4-1l0.2-1l0.6-0.9l1-0.9
	 M410,299.4l0.4-1.2l-0.2-1.4l-0.8-1.4l-1.2-1.1l-1.8-1l-2.1-0.7l-2.3-0.4h-2.4l-2.4,0.3 M397.2,292.5l-8.1,4.7 M392.8,303.8
	l1.4,0.4l2.3,0.5l2.5,0.1l2.1-0.2 M389.1,297.2l-0.5,1.3v1.4l0.6,1.2 M426.3,288l0.2,0.1 M424.4,289.1l1.9-1.1 M422.6,288.1l1.8,1
	 M419.4,284l3.2,1.9 M414.4,286.9l5-2.9 M410.8,284.9l3.6,2 M397.8,292.4l13-7.5 M386.9,298.6l2-1.1 M426.8,268.4l-0.3,22.5
	 M434.5,264.7L434,265 M432.4,264l0.5-0.2 M432.4,264l-12.4-7.1 M420.5,256.6l-0.5,0.3 M420.5,256.6l-1.7-0.9 M418.4,255.9l0.4-0.2
	 M415.4,254.2l3,1.7 M409.8,257.4l-0.2,0.2l-0.1,0.1l-0.1,0.1l-0.1,0.2l0.1,0.2l0.1,0.1l0.1,0.2l0.2,0.1 M414.4,261.3l-4.6-2.7
	 M414.4,261.3l1.6-1 M416,260.3l-4-2.3 M415.4,256.1L412,258 M415.4,256.1l20.4,11.7 M432.4,269.8l3.4-2 M432.4,269.8l-4-2.3
	 M426.8,268.4l1.6-0.9 M426.8,268.4l4.6,2.7 M438.1,268.4l0.1-0.1l0.2-0.1V268l0.1-0.2l-0.1-0.1v-0.2l-0.2-0.1l-0.1-0.1
	 M438.1,267.3L434,265 M398.4,306.3v-0.1v-0.1h-0.1v0.1 M433.4,271.1l-0.2,0.1l-0.2,0.1h-0.3h-0.3h-0.2h-0.3l-0.3-0.1l-0.2-0.1
	 M431.4,271.1v19.4 M426.8,291.6v0.5 M384.3,295.3l2.7,3.4l3.4,3.4 M426.8,291.6v-0.1v-0.1l-0.1-0.1l-0.1-0.2l-0.1-0.1h-0.1
	l-0.1-0.1 M399.9,306.3h-0.1l-0.3,0.1 M407.5,277l0.4,0.8 M382.8,300.5v0.2l0.1,0.2l0.2,0.2l0.1,0.1 M383.2,301.2l0.7,0.4
	 M382.8,296.2V296l0.1-0.2 M382.8,300.5v-4.3 M388,303.5l0.1,0.2v0.2l0.2,0.2l0.1,0.1 M386.1,300.4L386.1,300.4l0.1-0.1h0.1l0.1-0.1
	h0.3l0.3,0.1 M388,302.4v1.1 M388,302.2v0.2 M352.6,313.3l0.1,0.1v0.2 M388,302.2l0.1-0.2v-0.2v-0.2l0.1-0.2 M332.8,312.4l-0.2-0.1
	h-0.1 M340.4,307.7L340.4,307.7h0.2l0.1,0.1 M409.1,277.3v-0.1v-0.1 M345.6,313.8L345.6,313.8l0.2-0.1l0.1,0.1 M331.1,313.3
	l-0.2-0.1h-0.1l-0.1,0.1l-0.1,0.1 M351,313.7l0.1,0.1v0.1v0.1v0.1 M342.1,315.8l0.9-1.5 M357.9,319.6l-0.1-0.1l-0.1-0.1l-0.2-0.1
	l-0.2-0.1 M388.4,304.2l6.6,3.9 M342.7,314.8l-0.3-2.9 M330.9,313.3l0.1-0.1l0.1,0.1 M397.2,306.8L397.2,306.8l0.3-0.1 M366.7,324.4
	L366.7,324.4l-0.1,0.1 M332.8,312.4l-0.1-0.1 M331.1,313.3L331.1,313.3 M341.4,308.1l-0.7-0.3 M341.8,308.7l-0.1-0.2l-0.1-0.1
	l-0.1-0.2l-0.1-0.1 M342.4,311.9l-0.6-3.2 M342.4,311.9l-17,9.8 M324.8,318.5l0.6,3.2 M324.4,317.9l0.2,0.1l0.1,0.2l0.1,0.1v0.2
	 M324.4,317.9l-0.6-0.4 M323.4,317.8v-0.2l0.1-0.1h0.1h0.2 M323.3,324.3l0.1-6.5 M325.7,324.6l-0.3-2.9 M398.8,307.6v0.1l0.1,0.1
	 M343.8,314.8L343.8,314.8h0.1l0.1,0.1 M333.6,320.7L333.6,320.7h0.1h0.2 M368.2,324.6h-0.1h-0.3 M331,321.2l-0.9,1.5 M415.4,254.2
	l-5.6,3.2 M351.1,318.8l0.1,0.2l0.1,0.2l0.1,0.2l0.1,0.1 M351.5,319.5l0.8,0.4 M351.1,314.1v4.7 M356.4,321.8v0.2l0.1,0.2l0.1,0.2
	l0.2,0.1 M356.4,320.5v1.3 M324.9,329.2l-0.2-0.1l-0.2-0.1 M356.4,320.5l-0.1-0.1v-0.2l-0.1-0.2l-0.1-0.1 M328.3,333.8l0.1-0.1
	l0.1,0.1v0.3 M330.3,335.6l-0.1-0.1l-0.2-0.2h-0.1l-0.3-0.1 M356.8,322.5l6.6,3.8 M365.2,325.5v-0.2l0.1-0.1h0.1h0.1 M339,340.4
	L339,340.4L339,340.4 M329.6,337.4h0.1v-0.1l0.1-0.1v-0.1l0.1-0.1l0.1-0.1l0.1-0.1 M340.6,340.6L340.6,340.6h-0.5 M332,321.8
	L332,321.8h-0.3 M332,321.8l-1-0.6 M409.8,278l-0.3-0.2 M409.1,277.3l0.1,0.3l0.3,0.2 M409.1,277.3l-63.2,36.5 M345.9,313.8l-1-0.6
	 M343,314.3l1.9-1.1 M344,314.9l-1-0.6 M344,314.9l-10.1,5.8 M332.9,320.1l1,0.6 M332.9,320.1l-1.9,1.1 M409.8,278h0.1v0.1l0.1,0.1
	l0.1,0.1 M329,341.2l0.4,1l-0.1,1 M332.1,340l-3.8-2.2 M332.7,344L332.7,344l0.4-1.4l-0.2-1.3l-0.8-1.3 M338.2,340.9l-0.3,0.1
	l-0.1,0.1l-0.2,0.2v0.1 M324.5,325l0.4,0.7 M407.5,277l-64.8,37.5 M407.2,276.9l0.3,0.1 M407,276.4v0.2v0.1l0.2,0.2 M299.5,339.4
	l-2.4,1.3 M324.5,325l-7.8,4.5 M323.3,324.3l1.2,0.7 M332.4,340.4l3.3,1.9 M342.3,311.3l64.4-37.2 M313.7,327.8l9.6-5.6 M294.2,339
	l5.4-3.1 M406.7,274.1l0.3-5.6 M278.9,340.3l-0.1-0.1h-0.1l-0.1-0.1l-0.1,0.1h-0.1 M277,341.2l-0.2-0.1l-0.1,0.1 M270.7,353.7
	l-0.2,3.5 M277.8,361.4l-7.3-4.2 M275.9,340.9l0.1-0.1h0.3l0.3,0.1 M435.7,295v0.1l0.1,0.1v0.1l0.1,0.1v0.1l0.1,0.1h0.1v0.1
	 M277.8,361.4l0.1-3.5 M277.8,361.4l0.3,0.1l0.4,0.1h0.3h0.3l0.4-0.1l0.3-0.1 M279.8,361.4l0.1-3.5 M273.8,342.4l0.1-0.3l0.2-0.2
	h0.3l0.4,0.1 M273.8,342.4l-1.2,7 M272.6,349.4l-0.1,1.3 M272.5,350.7l-0.1,0.9 M383.1,295.1l-31,17.9 M351,313.7L324.5,329
	 M367.8,324.6l2.1-0.1 M398.7,306.8l-30.9,17.8 M400.8,306.7l-2.1,0.1 M402.7,306.1l-1.9,0.6 M371.7,323.9l31-17.8 M369.9,324.5
	l1.8-0.6 M340.1,340.6l2.2-0.1 M367,325.1l-26.9,15.5 M369.2,324.9l-2.2,0.2 M371,324.3l-1.8,0.6 M344.1,339.9l26.9-15.6
	 M342.3,340.5l1.8-0.6 M356.1,319.9l-26.5,15.3 M365.5,325.2l-2.3-0.6l-2.4-1.2l-2.4-1.5l-2.3-2 M339,340.5l26.5-15.3 M334.5,338.9
	l4.5,1.6 M329.6,335.2l2.5,2.1l2.4,1.6 M328.5,334.1l26.4-15.3 M354.9,318.8l-1.3-1.6l-1.4-1.7l-1.2-1.8 M387,300.3l-2.1-2.6
	 M356.1,318.1l30.9-17.8 M353.9,315.6l2.2,2.5 M352.1,313l1.8,2.6 M384.9,297.7l-1.8-2.6 M362.2,322.9l4.4,1.6 M357.3,319.2l2.4,2.1
	l2.5,1.6 M388.2,301.4l-30.9,17.8 M393.1,305l-2.5-1.5l-2.4-2.1 M397.5,306.7l-2.2-0.6l-2.2-1.1 M322.2,330.6l-1.8,1 M338.2,340.9
	l-4-1.4l-4.1-2.7 M341.5,340.9l-2.1,0.1 M343.3,340.3l-1.8,0.6 M430.2,290.1l0.2-0.1 M403.4,305.6l26.8-15.5 M401.6,306.2l1.8-0.6
	 M399.5,306.4l2.1-0.2 M426.3,290.9l-26.8,15.5 M426.5,290.9h-0.2 M390.3,302.2l4,2.7l4,1.3 M410.8,279.5l-26.9,15.4 M410.1,278.3
	l0.2,0.4l0.2,0.4l0.3,0.4 M278.9,340.3l-1.7,1 M277.2,341.3l-0.1-0.1 M277.1,341.2l-0.1-0.1 M430.7,290.1l-0.1-0.1h-0.1h-0.1
	 M436.1,295.7l2.9,1.6 M305.8,319.3v3.9 M310.8,321.1v5 M309.8,325.5v-3.9 M431.4,290.5l-0.7-0.4 M431.4,290.5l0.3,0.1l0.2,0.1h0.3
	 M307.2,336.8l-1.8-1.1 M433.4,290.9L433.4,290.9h-0.2l-0.4-0.1l-0.4-0.1h-0.2 M303.5,338.3l0.2-0.5l0.3-0.5l0.3-0.5l0.3-0.4
	l0.4-0.4l0.4-0.3 M305.4,335.7l0.4-0.2 M275.2,342.2l0.8,0.1l0.6,0.2 M325.7,324.6v0.7 M305.3,339.3l-1.8-1 M302,343.5l1.5-5.2
	 M276.6,340.9l0.4,0.2 M276.6,340.9l-1.8,1.1 M275.2,342.2l-0.4-0.2 M275.2,342.2l1.8-1.1 M307.2,352L307.2,352l0.1-0.2h0.1v-0.1
	l0.1-0.1v-0.1v-0.1l0.1-0.1 M307.6,336.6l-0.4,0.2 M307.2,336.8l-0.4,0.2l-0.4,0.4l-0.3,0.4l-0.3,0.5l-0.3,0.5l-0.2,0.5
	 M305.3,339.3l-1.6,5.8 M280,343.4L280,343.4 M330.5,353.3v-0.4l-0.1-0.4v-0.4 M327.2,339.4l1.7,1 M322.2,328.8l-0.1,3.8
	 M305.2,348.4l-0.8-0.5 M328.9,340.4l1.5,11.7 M327.2,341.4l1.7-1 M328.6,354.4V354l-0.1-0.4v-0.4 M328.5,353.2l-1.3-11.8
	 M327.2,341.4l-1.7-1 M304.5,348.6L304.5,348.6v0.1l-0.1,0.1 M395.5,301.9l-0.4,0.3 M403.8,301L403.8,301l-1.1-0.6l-1.3-0.3L400,300
	l-1.3,0.2l-1.1,0.5 M397.6,300.7l-2.1,1.2 M295.6,357.4l8.9,5.1 M277.1,353.4L277.1,353.4 M291.8,361.9L291.8,361.9 M294.9,360.8
	v0.2v0.2l-0.2,0.3h-0.1 M304.1,318.4l-3.9,2.3 M300.2,320.7l-0.2,0.1l-0.1,0.1l-0.1,0.2v0.1v0.2l0.1,0.2l0.1,0.1l0.2,0.1
	 M327.8,332.1l0.2-0.1l0.1-0.2l0.1-0.1v-0.2v-0.2l-0.1-0.1L328,331l-0.2-0.1 M327.8,330.9l-4.6-2.7 M323.2,328.2l-1,0.6
	 M326.2,331.1l-4-2.3 M326.2,331.1l-3.3,1.9 M302.5,321.2l20.4,11.8 M302.5,321.2l3.3-1.9 M309.8,321.6l-4-2.3 M309.8,321.6l1-0.5
	 M306.1,318.4l4.7,2.7 M306.1,318.4l-0.2-0.1l-0.2-0.1h-0.3h-0.3h-0.3h-0.2l-0.3,0.1l-0.2,0.1 M305.8,335.5l1.8,1.1 M307.6,351.3
	v-14.7 M322.9,334.9l-22.7-13.1 M325.5,359.1l3.3,1.9 M304.8,368.7l2.1,1.1 M306.6,352.3l0.6-0.3 M280.5,356.6l0.6-0.4 M279.5,356.6
	l0.2,0.1h0.3h0.3l0.2-0.1 M274.3,353.6l5.2,3 M274.1,353.1v0.2v0.2l0.2,0.1 M272.4,351.6l1.7,1 M270.7,352.6l1.7-1 M270.7,353.7
	l-0.1-0.1l-0.2-0.1v-0.2l-0.1-0.1l0.1-0.2v-0.1l0.2-0.2l0.1-0.1 M277.9,357.9l-7.2-4.2 M279.9,357.9l-0.2,0.1l-0.2,0.1h-0.2H279
	h-0.2h-0.2h-0.3l-0.2-0.1l-0.2-0.1 M279.9,357.9l2-1.2 M304.5,362.7l0.1,0.1 M304.6,363.2h0.1v-0.1l0.1-0.1h-0.1v-0.1v-0.1h-0.1
	 M304.6,363.2l-7.7,4.5 M296.9,368.8l-0.2-0.1l-0.1-0.1l-0.1-0.1v-0.2v-0.1v-0.1l0.1-0.2l0.1-0.1l0.2-0.1 M305,373.5l-8.1-4.7
	 M307,373.5l-0.2,0.1l-0.2,0.1l-0.3,0.1H306h-0.2l-0.3-0.1l-0.3-0.1l-0.2-0.1 M302.1,348.1l-1.9-1.1 M291.9,357.1l-0.1,4.8
	 M295.2,352.5l-0.1,0.9l-0.3,1.2 M277.8,346.3l-0.1,0.3 M292.4,354.7l-0.1,0.3 M291.9,357.1l0.1-1l0.3-1.1 M295.2,352.3v0.2
	 M290.3,347.1l2.5,2.3l2.4,2.9 M285.7,344.4l1.5,0.7l1.4,0.8l1.7,1.2 M280.2,343.7l2.8,0.1l2.7,0.6 M280.1,343.8l0.1-0.1
	 M279.8,344.5h0.1l0.1-0.1v-0.1l0.1-0.1v-0.1V344v-0.1v-0.1 M441,296.2l-0.3-6.5 M438.8,290.8l0.2,6.5 M439,297.3l-108.2,62.5
	 M330.8,359.8l-0.3-6.5 M328.6,354.4l0.2,6.6 M328.8,361L307,373.5 M446.7,292.9l-5.7,3.3 M292.3,354.2l0.1,0.2v0.3 M277.8,346.3
	l0.2-0.2l0.2-0.1 M284.8,335.5h0.1l1.2-0.4l1.3,0.1l0.3,0.2 M278.2,346l2.9-0.2l2.6,0.4l1.2,0.4l1.1,0.5l1,0.6l1,0.8l2.3,2.4l2,3.3
	 M279.8,344.5l-1.3,0.8 M304,346.1L304,346.1l0.1,0.1l0.1,0.1 M304.9,365.2l-0.1,3.5 M304.9,365.2V365l0.1-0.3l0.1-0.2l0.1-0.3
	 M294.9,359.9l0.1-0.5l0.1-0.5 M297.9,349.8l-2.8,9.1 M302.1,348.1v-0.4l-0.2-0.3l-0.2-0.3l-0.3-0.1l-0.4-0.1h-0.3l-0.4,0.1
	l-0.4,0.2l-0.4,0.3l-0.4,0.4l-0.4,0.4l-0.3,0.5l-0.3,0.5l-0.2,0.5 M304.5,362.5l-2.4-14.4 M304.5,362.7v-0.2 M304.5,362.7l2.6-1.5
	 M305.2,348.4l3.6,10.2 M304.4,348.8l0.8-0.4 M304,346.6l0.4,2.2 M296.9,348.3l1.1-1.7l1.3-1.2l1.4-0.8l1.2-0.2l0.8,0.2l0.7,0.5
	l0.4,0.7l0.2,0.8 M296.3,350.2l0.2-0.9l0.4-1 M296,352.4l0.3-2.2 M295.9,352.6l0.1-0.2 M294.8,354.6l0.7-1.1l0.3-0.4l0.1-0.5
	 M294.9,359.9v0.9 M305.2,364.2l16-25.1 M322.9,340.1l-1.7-1 M438.1,268.4l-4.7,2.7 M327.8,332.1l-4.9,2.8 M322.9,334.9v5.2
	 M322.9,340.1l-15.7,25.2 M307.2,365.3l-0.2,0.3l-0.1,0.2v0.3v0.3 M306.9,366.4v3.4 M306.9,369.8l18.6-10.7 M325.5,340.4v18.7
	 M325.5,340.4l1.7-1 M435.7,276.8V295 M435.7,276.8l1.8-1 M321.2,222.3l-0.2,0.1 M313.4,208.8l0.2-0.1 M320.8,218.8l-0.3,1.7
	l-0.5,0.7l-0.5,0.5l-0.8,0.2l-0.8,0.1l-1.6-0.6l-1.7-1.4l-0.8-0.9l-0.7-1.1l-0.6-1.2l-0.4-1.1l-0.3-2.1 M311.8,213.6l0.3-1.8
	l0.4-0.7l0.6-0.5l0.7-0.2h0.8l1.7,0.6l1.6,1.3l0.8,0.9l0.8,1.1l0.5,1.2l0.5,1.2l0.3,2.1 M330.5,231.7l-1.1,0.5 M309.4,196.4l0.6-0.3
	 M330.8,222.2l-0.2,2.5l-0.7,2.4l-1.1,1.9l-1.7,1.3l-2,0.8h-2.2l-2.3-0.6l-2.3-1l-2.3-1.6l-2.3-2.1l-2.3-2.6l-2-3.1l-1.6-3.2
	l-1.2-3.3l-0.6-3.1l-0.3-2.7 M305.7,207.8l0.3-2.5l0.6-2.3l1.2-2l1.6-1.3l2-0.8h2.3l2.3,0.6l2.3,1l2.3,1.6l2.3,2.1l2.2,2.7l2,3
	l1.7,3.2l1.1,3.3l0.7,3.1l0.2,2.7 M450.5,78.2l0.8-0.6l0.5-0.6l0.4-1.2l-0.1-0.1 M274.1,91.7l-0.6,0.4l-0.7,0.6l-0.1,0.2 M285,92.6
	l10.5,6.1 M310,124.2v35.1 M293.3,140.8l-13.2-7.7 M279,131.2l0.2-5.9 M280.1,133.1l-0.2-0.1l-0.2-0.2l-0.2-0.2l-0.2-0.3l-0.1-0.3
	l-0.1-0.3l-0.1-0.2v-0.3 M276.6,124.6l4,0.4l3.9,1.6l4.2,3l4.2,4.4 M292.9,134l0.3,0.5l0.3,0.6l0.2,0.6v0.6 M293.7,136.3l-0.3,6.7
	 M293.4,143l-0.1,0.7l-0.4,0.4l-0.6,0.1H292l-0.3-0.2 M291.7,144l-14.7-8.5 M277,135.5l-0.6-0.5l-0.5-0.7l-0.4-0.9l-0.1-0.4v-0.4
	 M275.4,132.6l0.3-6.7 M275.7,125.9v-0.5l0.2-0.4l0.3-0.3l0.4-0.1 M295.5,98.7l2.6,1.8l2.7,2.4l1.7,1.9l1.6,2.2l1.5,2.3l0.8,1.6
	l0.9,1.7l0.8,1.9l0.6,1.9l0.9,3.5l0.4,4.3 M257.8,285.2l0.1-0.1l0.1-0.1v-0.2l-0.1-0.1 M251.1,289.1v0.1v0.1v0.1l-0.1,0.1
	 M257.8,285.2l-6.7,3.9 M257.8,285.2l-0.6-6.8 M250,279.6l0.6,0.5l0.7,0.5h0.1 M243.5,281.6l1.5-0.8 M248.1,291.3l3-2.2 M251,282.1
	l0.1,7 M248.1,291.3v0.1v0.1v0.1l-0.1,0.1h-0.1 M238.1,297.1v0.1v0.1l-0.1,0.1l-0.1,0.1 M231.6,289v-3.5 M235.1,287.2v-0.3l0.2-0.8
	l0.8-0.6l1.1-0.4l1.3-0.2l1.3,0.2l1.1,0.4l0.7,0.6l0.3,0.8l-0.1,0.3 M248.1,291.3l-10,5.8 M248.1,291.3l-0.1-7 M231.6,289l0.2,0.5
	l0.5,0.5l0.5,0.5l0.3,0.2 M229,290.4l2.6-1.4 M234.3,298.8l3.8-1.7 M238,290l0.1,7.1 M224.8,288.3L224.8,288.3h0.1h0.2h0.2l0.2,0.1
	 M225.5,288.4l5.1,3 M225.5,288.4l-1.6,0.9 M230.6,291.4l0.2,0.1l0.2,0.2l0.2,0.2l0.1,0.2l0.2,0.2l0.1,0.3 M229,292.3l1.6-0.9
	 M229,292.3l-5.1-3 M223.9,289.3l-0.2-0.1h-0.2h-0.2h-0.1l-0.2,0.1l-0.1,0.2 M230,293.5l-0.1-0.2l-0.2-0.3l-0.1-0.2l-0.2-0.2
	l-0.2-0.2l-0.2-0.1 M223.8,290v3.5 M226.1,294.8l-2.3-1.3 M211.4,300.6l12.4-7.1 M234.3,298.8v0.1v0.1l-0.1,0.1v0.1h-0.1
	 M207.1,298.5L207.1,298.5l0.2-0.1h0.1l0.2,0.1l0.2,0.1 M207.8,298.6l5.2,3 M207.8,298.6l-1.6,0.9 M211.1,312.2l-0.1,0.1v0.1v0.1
	l-0.1,0.1 M213,301.6l0.2,0.1l0.2,0.2l0.2,0.2l0.1,0.2l0.1,0.2l0.1,0.3 M211.4,302.5l1.6-0.9 M211.4,302.5l-5.2-3 M206.2,299.5
	l-0.2-0.1h-0.1h-0.2h-0.2l-0.1,0.1l-0.1,0.2 M206.2,300.1v3.6 M212.3,303.7l-0.1-0.2l-0.1-0.3L212,303l-0.2-0.2l-0.2-0.2l-0.2-0.1
	 M208.4,305l-2.2-1.3 M203.8,305l2.4-1.3 M234.3,298.8l-23.2,13.4 M234.3,298.8l-0.1-7 M208,314.4l3.1-2.2 M210.9,305.2l0.2,7
	 M208,314.4L208,314.4v0.2v0.1l-0.1,0.1 M198,320.2v0.1v0.1v0.1l-0.1,0.1h-0.1 M195,310.3V310l0.3-0.7l0.7-0.7l1.1-0.4l1.3-0.2
	l1.3,0.2l1.1,0.4l0.7,0.7l0.3,0.7l-0.1,0.3 M208,314.4l-10,5.8 M208,314.4l-0.1-7 M194.2,321.9l3.8-1.7 M197.9,313.2l0.1,7
	 M176.6,322.5L176.6,322.5 M176.6,322.5v0.1v0.1h0.1v0.1h0.1v0.1 M194.2,321.9v0.2v0.1h-0.1v0.1 M184.3,327.5L184.3,327.5
	 M185.1,327.5L185.1,327.5 M191.9,312.8l0.1,0.2l0.6,0.6l0.8,0.5 M186.2,314.7l0.6-0.4 M183.6,311.9l0.2-0.1h0.2h0.1h0.2
	 M183.6,311.9l-2,1.1 M185.1,312.8l-1.5-0.9 M180.6,317.1v-2.4 M182.2,315.7l-1.6-1 M183.2,313.9l-1.6-0.9 M180.6,314.7v-0.2
	l0.1-0.2l0.1-0.3l0.1-0.2l0.1-0.3l0.2-0.2l0.2-0.1l0.2-0.2 M183.2,313.9l1.9-1.1 M183.2,313.9l-0.2,0.2l-0.2,0.1l-0.2,0.2l-0.2,0.3
	l-0.1,0.2l-0.1,0.3v0.2v0.3 M182.2,315.7v2.3 M186.2,318.3l-0.1-4.9 M186.1,313.4v-0.3L186,313v-0.2l-0.2-0.1h-0.1h-0.2h-0.2
	l-0.2,0.1 M177.1,315.9l-0.3,7 M184.1,327.1l-7.3-4.2 M194.2,321.9l-8.9,5.2 M194.2,321.9l-0.1-7 M184.1,327.1V320 M184.1,327.1h0.1
	l0.1,0.1h0.1h0.1h0.1h0.1 M184.7,327.2L184.7,327.2h0.2h0.1h0.1l0.1-0.1h0.1 M185.3,320v7.1 M231.6,285.5l-5.6,3.2 M236.9,288.5
	l-1-0.1l-0.9-0.3l-0.8-0.3l-0.7-0.4l-0.7-0.4l-0.5-0.5l-0.4-0.5l-0.3-0.5 M231.2,291.8l5.7-3.3 M230,293.5l1.6-0.9 M229.1,293
	l0.9,0.5 M213.5,302l15.6-9 M212.3,303.7l1.6-0.9 M211.5,303.2l0.8,0.5 M205.3,306.8l6.2-3.6 M200,303.7l0.9,0.2l0.9,0.2l0.9,0.3
	l0.7,0.4l0.7,0.4l0.5,0.5l0.4,0.5l0.3,0.6 M206.2,300.1l-6.2,3.6 M205.3,299.7l0.9,0.4 M223.8,290l-15.4,8.9 M222.9,289.5l0.9,0.5
	 M234.5,286.9l-1-0.8l-0.6-0.9l-0.1-1l0.5-1l0.9-0.8l1.3-0.6l1.5-0.4l1.7-0.1l1.7,0.2l1.4,0.4l1.2,0.7l0.8,0.9l0.3,0.9l-0.1,1
	l-0.7,0.9l-1.1,0.7l-1.5,0.6l-1.6,0.2h-1.7l-1.6-0.4L234.5,286.9 M180.6,317.1l1.6,0.9 M178.6,315.6l2,1.1 M180.6,314.4l-2,1.2
	 M186.9,310.8l-2.2,1.3 M197.5,311.8l-1.2-0.2l-1-0.2l-1-0.4l-0.9-0.4l-0.8-0.5l-0.6-0.6l-0.2-0.2 M184.7,319.1l12.8-7.3
	 M182.5,317.8l2.2,1.3 M182.2,318l0.3-0.2 M245.5,284l9.8-5.6 M239.4,280.5l1.1,0.1l1.1,0.3l1,0.3l0.9,0.5l0.7,0.5l0.6,0.5l0.5,0.7
	l0.2,0.6 M245,277.3l-5.6,3.2 M255.3,278.4l-1.1-0.2l-1-0.3l-1-0.3l-0.8-0.5l-0.8-0.5l-0.6-0.5V276 M194.4,310l-1-0.8l-0.6-0.9v-1
	l0.4-0.9l0.9-0.8l1.3-0.7l1.5-0.4l1.7-0.1l1.7,0.2l1.5,0.5l1.2,0.7l0.7,0.8l0.4,1l-0.2,0.9l-0.7,0.9l-1.1,0.8l-1.4,0.5L199,311
	l-1.7-0.1l-1.6-0.3L194.4,310 M197.9,313.2l-3.8,1.7 M207.9,307.4l-10,5.8 M210.9,305.2l-3,2.2 M234.2,291.8l-23.3,13.4 M238,290
	l-3.8,1.8 M248,284.3l-10,5.7 M251,282.1l-3,2.2 M257.2,278.4l-6.2,3.7 M256.7,277.6h0.3l0.2,0.1l0.2,0.2l0.1,0.1v0.2l-0.1,0.1
	l-0.2,0.1 M256.7,277.6l-1.2-0.1l-1.1-0.2l-1.1-0.3l-0.9-0.5l-0.8-0.5l-0.6-0.6l-0.3-0.7l-0.2-0.6 M250,273.6l0.1,0.1l0.2,0.1
	l0.2,0.1v0.2 M242.8,277.3l2.2-1.2 M239,279.1l3.8-1.8 M229,284.9l10-5.8 M226,287.1l3-2.2 M202.7,300.5l23.3-13.4 M198.9,302.2
	l3.8-1.7 M191.8,306.3l7.1-4.1 M185.9,310.2l1-0.7 M177.1,315.2l8.8-5 M177.1,315.9L177.1,315.9l-0.1-0.1l-0.1-0.1v-0.1v-0.1
	l0.1-0.1v-0.1l0.1-0.1 M184.1,320l-7-4.1 M185.3,320L185.3,320l-0.3,0.1h-0.1h-0.2h-0.2h-0.1l-0.2-0.1h-0.1 M194.1,314.9l-8.8,5.1
	 M182.8,183.6l-4.9-2.8 M185.7,188.8v24.7 M182.8,183.6l1.1,0.9l0.9,1.3l0.6,1.3l0.2,0.8l0.1,0.9 M322.2,298.7l-0.9-0.1l-0.6-0.4
	l-0.3-0.3 M321,298.4L321,298.4l-0.1,0.4l0.2,0.3l0.4,0.3l0.6,0.2l0.8,0.1l0.8-0.1l0.8-0.2l0.7-0.4l0.4-0.5l0.3-0.6l-0.1-0.4
	 M325,299.7l0.1-0.2 M325.2,299.2l-0.1,0.2l-0.5,0.5l-0.6,0.3l-0.7,0.2l-0.6,0.1 M322.8,302.5l0.1,0.1h0.1h0.1h0.2h0.1l0.1-0.1
	 M320.6,296.4l-0.3,0.3l-0.2,0.5l0.2,0.5l0.1,0.2 M323,272.1l0.1-1.3 M322.7,300.5h0.3h0.4h0.4l0.3-0.1l0.3-0.1l0.3-0.2l0.2-0.2
	l0.1-0.2 M325,299.5v0.2 M324.7,298.3l-0.4,0.4l-0.7,0.3l-0.7,0.1h-0.7l-0.6-0.2l-0.3-0.3v-0.2 M324.7,296.5l-0.4,0.4l-0.7,0.3
	l-0.7,0.1l-0.7-0.1l-0.6-0.1l-0.3-0.3v-0.2 M324.7,294.7l-0.4,0.3l-0.7,0.3l-0.7,0.2l-0.7-0.1l-0.6-0.2l-0.3-0.2v-0.2 M324.7,292.9
	l-0.4,0.3l-0.7,0.3l-0.7,0.1h-0.7l-0.6-0.2l-0.3-0.3V293 M324.7,291l-0.4,0.4l-0.7,0.3l-0.7,0.1h-0.7l-0.6-0.2l-0.3-0.3v-0.2
	 M324.7,289.2l-0.4,0.4l-0.7,0.3l-0.7,0.1h-0.7l-0.6-0.2l-0.3-0.3v-0.2 M324.7,287.4l-0.4,0.3l-0.7,0.3l-0.7,0.2l-0.7-0.1l-0.6-0.1
	l-0.3-0.3v-0.2 M324.7,285.6l-0.4,0.3l-0.7,0.3l-0.7,0.1h-0.7l-0.6-0.2l-0.3-0.2v-0.2 M324.7,283.7l-0.4,0.4l-0.7,0.3l-0.7,0.1h-0.7
	l-0.6-0.2l-0.3-0.3v-0.1 M324.7,281.9l-0.4,0.4l-0.7,0.3l-0.7,0.1h-0.7l-0.6-0.2l-0.3-0.3V282 M323.2,272.7l0.2-1 M324.7,280.1
	l-0.4,0.4l-0.7,0.2l-0.7,0.2l-0.7-0.1l-0.6-0.1l-0.3-0.3v-0.2 M324,273.3l0.1-1.1 M325.3,273.3l-0.1-1 M322.1,272.9l-0.2-1
	 M321.9,273.6l-0.2-1.1 M326.3,273.1l0.4-1 M320.9,273.8l-0.1-0.9 M324.6,278.4l-0.4,0.3l-0.6,0.2l-0.7,0.2l-0.7-0.1l-0.6-0.2
	l-0.3-0.2v-0.1 M326.2,276.5v0.3l-0.4,0.8l-0.8,0.6l-1.1,0.4l-1.2,0.1l-1.1-0.1l-0.9-0.4l-0.5-0.5 M326,277.2l0.3,0.6l-0.1,0.6
	L326,279l-0.6,0.5l-0.7,0.4l-0.8,0.3l-0.9,0.1h-0.9l-0.8-0.2l-0.6-0.3l-0.4-0.4l-0.2-0.4l0.1-0.4l0.4-0.4 M320.2,277.5l-0.1-0.4
	l0.1-0.3l0.2-0.3 M326.2,279.9v0.3l-0.4,0.8l-0.8,0.6l-1.1,0.4l-1.2,0.1l-1.1-0.1l-0.9-0.4l-0.5-0.5l-0.1-0.6l0.5-0.5 M326.2,281.7
	v0.3l-0.4,0.8l-0.8,0.6l-1.1,0.4l-1.2,0.2l-1.1-0.2l-0.9-0.3l-0.5-0.6l-0.1-0.5l0.5-0.6 M326.2,283.5v0.4l-0.4,0.7l-0.8,0.6
	l-1.1,0.4l-1.2,0.2l-1.1-0.2l-0.9-0.3l-0.5-0.5l-0.1-0.6l0.5-0.6 M326.2,285.3v0.4l-0.4,0.7l-0.8,0.7l-1.1,0.4l-1.2,0.1l-1.1-0.1
	l-0.9-0.4l-0.5-0.5l-0.1-0.6l0.5-0.5v-0.1 M326.2,287.2v0.3l-0.4,0.8l-0.8,0.6l-1.1,0.4l-1.2,0.1l-1.1-0.1l-0.9-0.4l-0.5-0.5
	l-0.1-0.6l0.5-0.5 M326.2,289v0.3l-0.4,0.8l-0.8,0.6l-1.1,0.4l-1.2,0.1l-1.1-0.1l-0.9-0.3l-0.5-0.6l-0.1-0.6l0.5-0.5 M326.2,290.8
	v0.3l-0.4,0.8l-0.8,0.6l-1.1,0.4l-1.2,0.2l-1.1-0.2l-0.9-0.3l-0.5-0.5l-0.1-0.6l0.5-0.6 M326.2,292.6v0.4l-0.4,0.7l-0.8,0.7
	l-1.1,0.4l-1.2,0.1l-1.1-0.1l-0.9-0.4l-0.5-0.5l-0.1-0.6l0.5-0.5v-0.1 M326.2,294.4v0.4l-0.4,0.8l-0.8,0.6l-1.1,0.4l-1.2,0.1
	l-1.1-0.1l-0.9-0.4l-0.5-0.5l-0.1-0.6l0.5-0.5 M326.2,296.3v0.3l-0.4,0.8L325,298l-1.1,0.4l-1.2,0.1l-1.1-0.1l-0.9-0.4l-0.3-0.1
	 M320.4,297.9l0.2,0.1l0.2,0.2l0.2,0.1l0.2,0.1l0.2,0.1l0.3,0.1l0.2,0.1h0.3 M326.2,296.5v0.3l-0.4,0.8l-0.8,0.6l-1.1,0.4l-0.9,0.2
	l-0.8-0.1 M326.2,294.7v0.3l-0.4,0.8l-0.8,0.6l-1.1,0.4l-1.2,0.1l-1.1-0.1l-0.9-0.4l-0.5-0.5l-0.1-0.3 M326.2,292.9v0.3l-0.4,0.8
	l-0.8,0.6l-1.1,0.4l-1.2,0.1l-1.1-0.1l-0.9-0.4l-0.5-0.5l-0.1-0.3 M326.2,291v0.4l-0.4,0.7l-0.8,0.7l-1.1,0.4l-1.2,0.1l-1.1-0.1
	l-0.9-0.4l-0.5-0.5l-0.1-0.4 M326.2,289.2v0.3l-0.4,0.8l-0.8,0.6l-1.1,0.4l-1.2,0.2l-1.1-0.2l-0.9-0.3l-0.5-0.5l-0.1-0.4
	 M326.2,287.4v0.3l-0.4,0.8l-0.8,0.6l-1.1,0.4l-1.2,0.2l-1.1-0.2l-0.9-0.3l-0.5-0.6l-0.1-0.3 M326.2,285.6v0.3l-0.4,0.8l-0.8,0.6
	l-1.1,0.4l-1.2,0.1l-1.1-0.1l-0.9-0.4l-0.5-0.5l-0.1-0.3 M326.2,283.7v0.4l-0.4,0.8l-0.8,0.6l-1.1,0.4l-1.2,0.1l-1.1-0.1l-0.9-0.4
	l-0.5-0.5l-0.1-0.4 M326.2,281.9v0.3l-0.4,0.8l-0.8,0.6l-1.1,0.4l-1.2,0.2l-1.1-0.1l-0.9-0.4l-0.5-0.5l-0.1-0.4 M326.2,280.1v0.3
	l-0.4,0.8l-0.8,0.6l-1.1,0.4l-1.2,0.2l-1.1-0.2l-0.9-0.3l-0.5-0.6l-0.1-0.3 M326.2,278.3v0.3l-0.4,0.8L325,280l-1.1,0.4l-1.2,0.1
	l-1.1-0.1l-0.9-0.4l-0.5-0.5l-0.1-0.3 M320.2,277.7l-0.1-0.3 M319.8,274l-0.5-0.9 M321.1,276.9l0.2,0.3l0.5,0.3l0.6,0.2h0.8l0.8-0.1
	l0.7-0.3l0.6-0.3 M326.2,276.2v0.4l-0.4,0.7l-0.8,0.6l-1.1,0.5l-1.2,0.1l-1.1-0.1l-0.9-0.4l-0.5-0.5 M325,273.4l-1-0.1 M324,273.3
	l-0.8-0.6 M323.2,272.7l-0.2-0.6 M323,272.1L323,272.1h-0.3l-0.1,0.1h-0.2h-0.1h-0.1H322v0.1 M322.1,272.9l-0.2,0.7 M321.9,273.6
	l-0.5,0.2 M324.3,275.2l0.2-1 M319.7,274l1.4-0.2 M319.3,273.1v0.1v0.1l0.1,0.1v0.2l0.1,0.1v0.1l0.1,0.1l0.1,0.1 M320.8,272.9
	l-1.5,0.2 M321.7,272.5l-0.9,0.4 M321.9,271.9l-0.2,0.6 M321.6,271l0.3,0.9 M323.1,270.8h-0.2h-0.2h-0.2l-0.2,0.1h-0.2h-0.2
	l-0.2,0.1h-0.1 M323.4,271.7l-0.3-0.9 M324.1,272.2l-0.7-0.5 M325.2,272.3l-1.1-0.1 M326.7,272.1l-1.5,0.2 M327.1,273L327.1,273
	l-0.1-0.2v-0.2v-0.1l-0.1-0.1v-0.1l-0.1-0.1l-0.1-0.1 M325.6,273.2l1.5-0.2 M324.7,273.6l0.9-0.4 M324.5,274.2l0.2-0.6 M324.8,275.1
	l-0.3-0.9 M323.3,275.3h0.2h0.2h0.2l0.2-0.1h0.2h0.1l0.2-0.1h0.2 M323,274.4l0.3,0.9 M322.3,273.9l0.7,0.5 M321.1,273.8l1.2,0.1
	 M317.5,273.8l-0.1-1l0.3-1l0.9-0.8l1.3-0.7l1.5-0.5l1.8-0.1l1.7,0.1l1.5,0.5l1.3,0.6l0.9,0.9l0.4,1l-0.1,1l-0.6,0.9l-1.1,0.8
	l-1.5,0.6l-1.6,0.3h-1.8l-1.6-0.3l-1.5-0.6l-1-0.8L317.5,273.8 M197,265.3L197,265.3 M200.9,263.5l-0.4,0.6l-0.6,0.4l-0.9,0.3
	l-0.8,0.2h-0.8l-0.6-0.2 M196,262.8l-0.2,0.3v0.4l0.3,0.4l0.4,0.3 M197,265.3l0.6,0.2h0.6l0.7-0.1l0.6-0.2l0.6-0.3l0.4-0.5l0.1-0.4
	 M196.6,264.9l0.2,0.3l0.2,0.1 M196.8,264.8l-0.4-0.3l-0.1-0.1 M198,267.7L198,267.7l0.1,0.1h0.2l0.1,0.1l0.1-0.1h0.1 M198.6,267.8
	l0.1-0.1 M196.5,264.2l0.6-0.8 M196.5,264.2l0.6,0.2l0.9,0.1l0.9-0.1l0.9-0.2l0.8-0.4l0.5-0.6l0.3-0.6l-0.1-0.6l-0.1-0.2
	 M196.2,262.7l0.9-1.1 M196.2,260.9l0.9-1.1 M196.2,259l0.9-1 M196.2,257.2l0.9-1 M196.2,255.4l0.9-1.1 M196.2,253.6l0.9-1.1
	 M196.2,251.7l0.9-1 M196.2,249.9l0.9-1 M196.5,237.7l-0.3-1.3 M200.3,237.7l0.2-1.3 M197.2,238.1l0.1-1.1 M198.4,238.4v-1.1
	 M199.6,238.1l-0.1-1.1 M196.5,264.6v0.1l0.1,0.2 M197.1,265.3L197.1,265.3l-0.3-0.2l-0.2-0.2 M200.1,264.3l-0.4,0.5l-0.6,0.4
	l-0.7,0.2h-0.7l-0.6-0.1 M199.9,262.8l-0.2,0.2l-0.6,0.3l-0.7,0.2l-0.7,0.1l-0.6-0.2 M199.9,261l-0.2,0.2l-0.6,0.3l-0.7,0.2h-0.7
	l-0.6-0.1 M199.9,259.2l-0.2,0.1l-0.6,0.4l-0.7,0.2h-0.7l-0.6-0.1 M199.9,257.3l-0.2,0.2l-0.6,0.4l-0.7,0.2h-0.7l-0.6-0.1
	 M199.9,255.5l-0.2,0.2l-0.6,0.4l-0.7,0.1l-0.7,0.1l-0.6-0.1 M199.9,253.7l-0.2,0.2l-0.6,0.3l-0.7,0.2l-0.7,0.1l-0.6-0.2
	 M199.9,251.9l-0.2,0.2l-0.6,0.3l-0.7,0.2h-0.7l-0.6-0.1 M199.9,250l-0.2,0.2l-0.6,0.4l-0.7,0.2h-0.7l-0.6-0.1 M199.9,248.2
	l-0.2,0.2l-0.6,0.4l-0.7,0.2h-0.7l-0.6-0.1 M199.9,246.4l-0.2,0.2l-0.6,0.3l-0.7,0.2l-0.7,0.1l-0.6-0.2 M197.1,245.2L197.1,245.2
	l-0.4-0.2l-0.1-0.2 M196.2,248.1l0.9-1.1 M196.9,239.3l-0.2-1 M199.9,239.3l0.2-1 M199.6,242.9l0.6-0.3l0.5-0.5l0.1-0.2 M196.1,242
	l0.2,0.4l0.5,0.3l0.4,0.2 M196.5,243L196.5,243l0.3,0.3l0.4,0.2l0.6,0.1l0.6-0.1l0.7-0.1l0.6-0.3l0.4-0.4l0.3-0.3 M199.9,244.6
	l-0.2,0.2l-0.6,0.3l-0.7,0.2h-0.7l-0.6-0.1 M196.2,246.3l0.9-1.1 M199.6,242.9l-1.2,0.3l-1.2-0.1l-1-0.2l-0.7-0.5l-0.2-0.6
	 M197.2,242.9l0.3,0.1h0.3h0.3h0.3h0.3h0.3h0.3l0.3-0.1 M197.2,242.9l-1-0.3l-0.7-0.4l-0.2-0.6 M201.2,243.6l0.2,0.1l0.1,0.6
	l-0.1,0.6l-0.4,0.6l-0.6,0.5l-0.8,0.3l-0.9,0.2l-0.9,0.1l-0.9-0.1l-0.7-0.2 M201.2,241.7l0.1,0.2l0.2,0.5l-0.1,0.7l-0.6,0.7
	l-0.4,0.3l-0.6,0.3l-0.6,0.2l-0.8,0.2h-0.9l-0.8-0.2l-0.7-0.2l-0.5-0.4l-0.2-0.4l0.1-0.5l0.3-0.4l0.1-0.1 M201.3,245.4L201.3,245.4
	l0.2,0.8l-0.2,0.8l-0.7,0.6l-1,0.5l-1.2,0.3h-1.2l-1-0.3 M196.2,246.3l-0.7-0.5l-0.2-0.6l0.2-0.5l0.4-0.3 M201.3,247.2L201.3,247.2
	l0.2,0.8l-0.2,0.8l-0.7,0.7l-1,0.5l-1.2,0.2h-1.2l-1-0.3 M196.2,248.1l-0.7-0.5l-0.2-0.5l0.2-0.6l0.5-0.3 M201.3,249L201.3,249
	l0.2,0.8l-0.2,0.8l-0.7,0.7l-1,0.5l-1.2,0.2h-1.2l-1-0.3 M196.2,249.9l-0.7-0.4l-0.2-0.6l0.2-0.6l0.5-0.3 M201.3,250.8L201.3,250.8
	l0.2,0.8l-0.2,0.8l-0.7,0.7l-1,0.5l-1.2,0.3l-1.2-0.1l-1-0.2 M196.2,251.7l-0.7-0.4l-0.2-0.6l0.2-0.6l0.5-0.3 M201.3,252.6
	L201.3,252.6l0.2,0.8l-0.2,0.8l-0.7,0.7l-1,0.5l-1.2,0.3h-1.2l-1-0.3 M196.2,253.6l-0.7-0.5l-0.2-0.6l0.2-0.5l0.5-0.3 M201.3,254.5
	L201.3,254.5l0.2,0.8l-0.2,0.8l-0.7,0.7l-1,0.5l-1.2,0.2h-1.2l-1-0.3 M196.2,255.4l-0.7-0.5l-0.2-0.5l0.2-0.6l0.5-0.3 M201.3,256.3
	L201.3,256.3l0.2,0.8l-0.2,0.8l-0.7,0.7l-1,0.5l-1.2,0.2h-1.2l-1-0.3 M196.2,257.2l-0.7-0.4l-0.2-0.6l0.2-0.6l0.5-0.3 M201.3,258.1
	L201.3,258.1l0.2,0.8l-0.2,0.8l-0.7,0.7l-1,0.5l-1.2,0.3l-1.2-0.1l-1-0.2 M196.2,259l-0.7-0.4l-0.2-0.6l0.2-0.6l0.5-0.3
	 M201.3,259.9L201.3,259.9l0.2,0.8l-0.2,0.8l-0.7,0.7l-1,0.5l-1.2,0.3h-1.2l-1-0.3 M196.2,260.9l-0.7-0.5l-0.2-0.6l0.2-0.5l0.5-0.4
	 M196.2,262.7l-0.7-0.5l-0.2-0.6l0.2-0.5l0.5-0.3 M196.2,262.9L196.2,262.9l-0.7-0.5l-0.2-0.5 M201.5,261L201.5,261l-0.2,0.8
	l-0.7,0.7l-1,0.5l-1.2,0.2h-1.2l-1-0.3 M196.2,261.1L196.2,261.1l-0.7-0.5l-0.2-0.5 M201.5,259.1v0.1l-0.2,0.7l-0.7,0.7l-1,0.5
	l-1.2,0.3h-1.2l-1-0.3 M196.2,259.3L196.2,259.3l-0.7-0.5l-0.2-0.6 M201.5,257.3L201.5,257.3l-0.2,0.8l-0.7,0.7l-1,0.5l-1.2,0.3
	l-1.2-0.1l-1-0.2 M196.2,257.4L196.2,257.4l-0.7-0.4l-0.2-0.6 M201.5,255.5L201.5,255.5l-0.2,0.8l-0.7,0.7l-1,0.5l-1.2,0.2h-1.2
	l-1-0.3 M196.2,255.6L196.2,255.6l-0.7-0.4l-0.2-0.6 M201.5,253.7L201.5,253.7l-0.2,0.8l-0.7,0.7l-1,0.5l-1.2,0.2h-1.2l-1-0.3
	 M196.2,253.8L196.2,253.8l-0.7-0.5l-0.2-0.5 M201.5,251.9L201.5,251.9l-0.2,0.7l-0.7,0.7l-1,0.6l-1.2,0.2h-1.2l-1-0.3 M196.2,252
	L196.2,252l-0.7-0.5l-0.2-0.6 M201.5,250L201.5,250l-0.2,0.8l-0.7,0.7l-1,0.5l-1.2,0.3h-1.2l-1-0.3 M196.2,250.2L196.2,250.2
	l-0.7-0.5l-0.2-0.6 M201.5,248.2L201.5,248.2l-0.2,0.8l-0.7,0.7l-1,0.5l-1.2,0.2h-1.2l-1-0.2 M196.2,248.3L196.2,248.3l-0.7-0.4
	l-0.2-0.6 M201.5,246.4L201.5,246.4l-0.2,0.8l-0.7,0.7l-1,0.5l-1.2,0.2h-1.2l-1-0.3 M196.2,246.5L196.2,246.5l-0.7-0.5l-0.2-0.5
	 M201.5,244.6L201.5,244.6l-0.2,0.7l-0.7,0.8l-1,0.5l-1.2,0.2h-1.2l-1-0.3 M201.5,242.7v0.1l-0.2,0.7l-0.7,0.7l-1,0.5l-1.2,0.3h-1.2
	l-1-0.3l-0.7-0.5l-0.2-0.5 M196.4,239.9l-0.2-1 M200.4,239.9l0.2-1 M200.5,237.8l-0.1-0.1h-0.1 M200.3,237.7l-0.7,0.4 M199.6,238.1
	l-1.2,0.3 M198.4,238.4l-1.2-0.3 M197.2,238.1l-0.7-0.4 M196.5,237.7L196.5,237.7l-0.2,0.1 M196.9,239.3l-0.5,0.6 M196.4,239.9
	l-0.2,0.2 M200.6,240.1l-0.2-0.2 M200.4,239.9l-0.5-0.6 M200.5,242.2l-0.1,0.1l-0.6,0.3l-0.7,0.1l-0.7,0.1l-0.8-0.1l-0.6-0.2
	l-0.6-0.2l-0.1-0.1 M200.5,236.4l-1,0.6 M201.6,237L201.6,237l-0.2-0.2h-0.1l-0.2-0.1l-0.1-0.1l-0.1-0.1h-0.2l-0.2-0.1 M200.6,237.6
	l1-0.6 M200.1,238.3l0.5-0.7 M200.6,238.9l-0.5-0.6 M201.6,239.5l-1-0.6 M200.5,240.1h0.2l0.2-0.1l0.1-0.1l0.1-0.1h0.2l0.1-0.1
	l0.1-0.1l0.1-0.1 M199.5,239.5l1,0.6 M198.4,239.3l1.1,0.2 M197.3,239.5l1.1-0.2 M196.2,240.1l1.1-0.6 M195.1,239.5l0.2,0.1l0.1,0.1
	l0.1,0.1h0.1l0.2,0.1l0.1,0.1l0.2,0.1h0.1 M196.2,238.9l-1.1,0.6 M196.7,238.3l-0.5,0.6 M196.2,237.6l0.5,0.7 M195.1,237l1.1,0.6
	 M196.2,236.4l-0.1,0.1h-0.2l-0.1,0.1l-0.2,0.1l-0.1,0.1h-0.1l-0.1,0.1l-0.2,0.1 M197.3,237l-1.1-0.6 M198.4,237.3l-1.1-0.3
	 M199.5,237l-1.1,0.3 M202.5,235.9l1,0.8l0.6,0.9l0.1,1l-0.5,1l-0.9,0.9l-1.3,0.6l-1.6,0.4l-1.7,0.1l-1.7-0.2l-1.6-0.4l-1.2-0.7
	l-0.8-0.9l-0.3-1l0.2-1l0.7-0.9l1.1-0.8l1.5-0.5l1.6-0.3l1.8,0.1l1.6,0.3L202.5,235.9 M237.1,242.2v-0.1 M241,240.4l-0.4,0.5
	l-0.6,0.5l-0.9,0.3l-0.8,0.1h-0.8l-0.6-0.2 M236.1,239.7l-0.2,0.2v0.4l0.3,0.5l0.4,0.2 M237.1,242.2l0.6,0.1l0.6,0.1l0.7-0.1
	l0.6-0.2l0.6-0.4l0.4-0.4l0.1-0.5 M236.7,241.8l0.2,0.3l0.2,0.1 M236.9,241.6l-0.4-0.2l-0.1-0.1 M238.1,244.6L238.1,244.6l0.1,0.1
	h0.1h0.2h0.1h0.1 M238.7,244.7l0.1-0.1 M236.6,241l0.5-0.7 M236.6,241l0.6,0.2l0.8,0.1h1l0.9-0.3l0.7-0.4l0.6-0.5l0.2-0.6v-0.7
	l-0.1-0.1 M236.3,239.5l0.8-1 M236.3,237.7l0.8-1 M236.3,235.9l0.8-1.1 M236.3,234.1l0.8-1.1 M236.3,232.3l0.8-1.1 M236.3,230.4
	l0.8-1 M236.3,228.6l0.8-1.1 M236.3,226.8l0.8-1.1 M236.6,214.6l-0.3-1.4 M240.4,214.6l0.2-1.4 M239.7,215l-0.1-1.1 M237.3,215
	l0.1-1.1 M238.5,215.3v-1.2 M236.6,241.5v0.1l0.1,0.2 M237.1,242.1L237.1,242.1l-0.2-0.1l-0.2-0.2 M240.2,241.2l-0.4,0.5l-0.6,0.3
	l-0.7,0.2h-0.7l-0.7-0.1 M240,239.7l-0.2,0.1l-0.6,0.4l-0.7,0.2h-0.7l-0.7-0.1 M240,237.8l-0.2,0.2l-0.6,0.4l-0.7,0.2h-0.7l-0.7-0.1
	 M240,236l-0.2,0.2l-0.6,0.4l-0.7,0.1l-0.7,0.1l-0.7-0.1 M240,234.2l-0.2,0.2l-0.6,0.3l-0.7,0.2l-0.7,0.1l-0.7-0.2 M240,232.4
	l-0.2,0.2l-0.6,0.3l-0.7,0.2h-0.7l-0.7-0.1 M240,230.5l-0.2,0.2l-0.6,0.4l-0.7,0.2h-0.7l-0.7-0.1 M240,228.7l-0.2,0.2l-0.6,0.4
	l-0.7,0.2h-0.7l-0.7-0.1 M240,226.9l-0.2,0.2l-0.6,0.3l-0.7,0.2l-0.7,0.1l-0.7-0.2 M240,225.1l-0.2,0.2l-0.6,0.3l-0.7,0.2h-0.7
	l-0.7-0.1 M237.1,223.9L237.1,223.9l-0.4-0.2l-0.1-0.2 M240,223.3l-0.2,0.1l-0.6,0.4l-0.7,0.2h-0.7l-0.7-0.1 M237.1,222.1
	L237.1,222.1l-0.4-0.3l-0.1-0.2 M236.3,225l0.8-1.1 M240,216.1l0.2-1 M237,216.1l-0.2-1 M239.7,219.8l0.6-0.3l0.5-0.5l0.1-0.2
	 M236.2,218.9l0.2,0.3l0.5,0.4l0.4,0.2 M236.6,219.8v0.1l0.3,0.2l0.4,0.2l0.5,0.1h0.7l0.7-0.1l0.6-0.3l0.4-0.4l0.2-0.3 M240,221.4
	l-0.2,0.2l-0.6,0.4l-0.7,0.2h-0.7l-0.7-0.1 M236.3,223.1l0.8-1 M239.7,219.8l-1.2,0.2h-1.2l-1-0.3l-0.7-0.4l-0.2-0.6 M237.3,219.8
	h0.3l0.3,0.1h0.3h0.3h0.3h0.3l0.3-0.1h0.3 M237.3,219.8l-1-0.3l-0.7-0.5l-0.2-0.5 M241.3,220.4l0.1,0.2l0.2,0.6l-0.2,0.6l-0.3,0.6
	l-0.7,0.4l-0.7,0.4l-0.9,0.2l-0.9,0.1l-0.9-0.1l-0.7-0.3 M241.3,218.5l0.1,0.2l0.2,0.6l-0.1,0.6l-0.6,0.7l-0.4,0.4l-0.6,0.3
	l-0.6,0.2l-0.8,0.1h-0.9l-0.8-0.1l-0.7-0.3l-0.5-0.3l-0.2-0.5V220l0.4-0.4l0.1-0.1 M241.3,222.2L241.3,222.2l0.3,0.8l-0.3,0.8
	l-0.6,0.7l-1,0.5l-1.2,0.3l-1.2-0.1l-1-0.2 M236.3,223.1l-0.7-0.4l-0.2-0.6l0.2-0.6l0.3-0.2 M241.3,224L241.3,224l0.3,0.8l-0.3,0.8
	l-0.6,0.7l-1,0.5l-1.2,0.3h-1.2l-1-0.3 M236.3,225l-0.7-0.5l-0.2-0.6l0.2-0.5l0.5-0.4 M241.3,225.9L241.3,225.9l0.3,0.8l-0.3,0.8
	l-0.6,0.7l-1,0.5l-1.2,0.2h-1.2l-1-0.3 M236.3,226.8l-0.7-0.5l-0.2-0.6l0.2-0.5l0.5-0.3 M241.3,227.7L241.3,227.7l0.3,0.8l-0.3,0.8
	l-0.6,0.7l-1,0.5l-1.2,0.2h-1.2l-1-0.3 M236.3,228.6l-0.7-0.5l-0.2-0.5l0.2-0.6l0.5-0.3 M241.3,229.5L241.3,229.5l0.3,0.8l-0.3,0.8
	l-0.6,0.7l-1,0.5l-1.2,0.2h-1.2l-1-0.2 M236.3,230.4l-0.7-0.4l-0.2-0.6l0.2-0.6l0.5-0.3 M241.3,231.3L241.3,231.3l0.3,0.8l-0.3,0.8
	l-0.6,0.7l-1,0.5l-1.2,0.3l-1.2-0.1l-1-0.2 M236.3,232.3l-0.7-0.5l-0.2-0.6l0.2-0.6l0.5-0.3 M241.3,233.1v0.1l0.3,0.7l-0.3,0.8
	l-0.6,0.7l-1,0.5l-1.2,0.3h-1.2l-1-0.3 M236.3,234.1l-0.7-0.5l-0.2-0.6l0.2-0.5l0.5-0.3 M241.3,235L241.3,235l0.3,0.8l-0.3,0.8
	l-0.6,0.7l-1,0.5l-1.2,0.2h-1.2l-1-0.3 M236.3,235.9l-0.7-0.5l-0.2-0.5l0.2-0.6l0.5-0.3 M241.3,236.8L241.3,236.8l0.3,0.8l-0.3,0.8
	l-0.6,0.7l-1,0.5l-1.2,0.2h-1.2l-1-0.3 M236.3,237.7l-0.7-0.4l-0.2-0.6l0.2-0.6l0.5-0.3 M236.3,239.5l-0.7-0.4l-0.2-0.6l0.2-0.6
	l0.5-0.3 M236.3,239.8L236.3,239.8l-0.7-0.5l-0.2-0.6 M241.6,237.8L241.6,237.8l-0.3,0.8l-0.6,0.7l-1,0.5l-1.2,0.3l-1.2-0.1l-1-0.2
	 M236.3,237.9L236.3,237.9l-0.7-0.4l-0.2-0.6 M241.6,236L241.6,236l-0.3,0.8l-0.6,0.7l-1,0.5l-1.2,0.2h-1.2l-1-0.3 M236.3,236.1
	L236.3,236.1l-0.7-0.4l-0.2-0.6 M241.6,234.2L241.6,234.2l-0.3,0.8l-0.6,0.7l-1,0.5l-1.2,0.2h-1.2l-1-0.3 M236.3,234.3L236.3,234.3
	l-0.7-0.5l-0.2-0.5 M241.6,232.4L241.6,232.4l-0.3,0.7l-0.6,0.7l-1,0.6l-1.2,0.2h-1.2l-1-0.3 M236.3,232.5L236.3,232.5l-0.7-0.5
	l-0.2-0.6 M241.6,230.5L241.6,230.5l-0.3,0.8l-0.6,0.7l-1,0.5l-1.2,0.3h-1.2l-1-0.3 M236.3,230.7L236.3,230.7l-0.7-0.5l-0.2-0.6
	 M241.6,228.7L241.6,228.7l-0.3,0.8l-0.6,0.7l-1,0.5l-1.2,0.2h-1.2l-1-0.2 M236.3,228.8L236.3,228.8l-0.7-0.4l-0.2-0.6 M241.6,226.9
	L241.6,226.9l-0.3,0.8l-0.6,0.7l-1,0.5l-1.2,0.2h-1.2l-1-0.3 M236.3,227L236.3,227l-0.7-0.5l-0.2-0.5 M241.6,225.1L241.6,225.1
	l-0.3,0.8l-0.6,0.7l-1,0.5l-1.2,0.2h-1.2l-1-0.3 M236.3,225.2L236.3,225.2l-0.7-0.5l-0.2-0.5 M241.6,223.2v0.1l-0.3,0.7l-0.6,0.7
	l-1,0.5l-1.2,0.3h-1.2l-1-0.3 M236.3,223.4L236.3,223.4l-0.7-0.5l-0.2-0.6 M241.6,221.4L241.6,221.4l-0.3,0.8l-0.6,0.7l-1,0.5
	l-1.2,0.3l-1.2-0.1l-1-0.2 M241.6,219.6L241.6,219.6l-0.3,0.8l-0.6,0.7l-1,0.5l-1.2,0.2h-1.2l-1-0.3l-0.7-0.4l-0.2-0.6 M236.5,216.8
	l-0.2-1.1 M240.5,216.8l0.2-1.1 M240.6,214.6L240.6,214.6h-0.2 M240.4,214.6l-0.7,0.4 M239.7,215l-1.2,0.3 M238.5,215.3l-1.2-0.3
	 M237.3,215l-0.7-0.4 M236.6,214.6L236.6,214.6h-0.2 M237,216.1l-0.5,0.7 M236.5,216.8l-0.3,0.2 M240.7,217l-0.2-0.2 M240.5,216.8
	l-0.5-0.7 M240.6,219.1h-0.2l-0.5,0.3l-0.7,0.2h-0.7h-0.8l-0.7-0.2l-0.5-0.3h-0.1 M240.6,213.2l-1,0.7 M241.7,213.9l-0.1-0.1
	l-0.1-0.1l-0.1-0.1l-0.2-0.1h-0.1l-0.2-0.1l-0.1-0.1l-0.2-0.1 M240.7,214.5l1-0.6 M240.2,215.1l0.5-0.6 M240.7,215.7l-0.5-0.6
	 M241.7,216.4l-1-0.7 M240.6,217l0.2-0.1h0.1l0.2-0.1l0.1-0.1l0.2-0.1l0.1-0.1l0.1-0.1h0.1 M239.6,216.4l1,0.6 M238.5,216.1l1.1,0.3
	 M237.4,216.4l1.1-0.3 M236.3,217l1.1-0.6 M235.2,216.4L235.2,216.4l0.3,0.1l0.1,0.1l0.1,0.1l0.2,0.1l0.1,0.1h0.2l0.1,0.1
	 M236.3,215.7l-1.1,0.7 M236.8,215.1l-0.5,0.6 M236.3,214.5l0.5,0.6 M235.2,213.9l1.1,0.6 M236.3,213.2l-0.1,0.1l-0.2,0.1l-0.1,0.1
	h-0.2l-0.1,0.1l-0.1,0.1l-0.2,0.1l-0.1,0.1 M237.4,213.9l-1.1-0.7 M238.5,214.1l-1.1-0.2 M239.6,213.9l-1.1,0.2 M242.6,212.7l1,0.8
	l0.6,1l0.1,1l-0.5,1l-0.9,0.8l-1.3,0.7l-1.6,0.4l-1.7,0.1l-1.7-0.2l-1.6-0.5l-1.2-0.7l-0.8-0.9l-0.3-1l0.1-1l0.7-0.9l1.2-0.7
	l1.4-0.6l1.7-0.2h1.8l1.6,0.3L242.6,212.7 M399.1,255.5L399.1,255.5 M403,253.7l-0.4,0.5l-0.7,0.5l-0.8,0.3l-0.9,0.2l-0.7-0.1
	l-0.7-0.1 M398.1,253l-0.2,0.2v0.5l0.3,0.4l0.3,0.2 M399.1,255.5l0.5,0.2h0.7l0.7-0.1l0.6-0.2l0.6-0.3l0.3-0.5l0.2-0.5 M398.6,255.1
	l0.3,0.3l0.2,0.1 M398.8,255l-0.4-0.3v-0.1 M400.1,257.9L400.1,257.9l0.1,0.1h0.1h0.2h0.1h0.1 M400.7,258L400.7,258 M398.5,254.3
	l0.6-0.7 M398.5,254.3l0.7,0.3l0.8,0.1l1-0.1l0.8-0.2l0.8-0.4l0.6-0.6l0.2-0.6l-0.1-0.7V252 M398.3,252.9l0.8-1.1 M398.3,251l0.8-1
	 M398.3,249.2l0.8-1 M398.3,247.4l0.8-1.1 M398.3,245.6l0.8-1.1 M398.3,243.8l0.8-1.1 M398.3,241.9l0.8-1 M398.3,240.1l0.8-1.1
	 M402.4,227.9l0.2-1.3 M398.5,227.9l-0.2-1.3 M401.6,228.3l-0.1-1.1 M399.3,228.3l0.1-1.1 M400.5,228.6v-1.2 M398.6,254.8v0.1v0.2
	 M399.1,255.4L399.1,255.4l-0.3-0.1l-0.2-0.2 M402.2,254.5l-0.4,0.5l-0.6,0.3l-0.7,0.2l-0.8,0.1l-0.6-0.2 M401.9,253l-0.1,0.2
	l-0.6,0.3l-0.7,0.2h-0.8l-0.6-0.1 M401.9,251.2l-0.1,0.1l-0.6,0.4l-0.7,0.2h-0.8l-0.6-0.1 M401.9,249.3l-0.1,0.2l-0.6,0.4l-0.7,0.2
	h-0.8l-0.6-0.1 M401.9,247.5l-0.1,0.2l-0.6,0.4l-0.7,0.1l-0.8,0.1l-0.6-0.1 M401.9,245.7l-0.1,0.2l-0.6,0.3l-0.7,0.2l-0.8,0.1
	l-0.6-0.2 M401.9,243.9l-0.1,0.2l-0.6,0.3l-0.7,0.2h-0.8l-0.6-0.1 M401.9,242l-0.1,0.2l-0.6,0.4l-0.7,0.2h-0.8l-0.6-0.1
	 M401.9,240.2l-0.1,0.2l-0.6,0.4l-0.7,0.2h-0.8l-0.6-0.1 M401.9,238.4l-0.1,0.2l-0.6,0.3l-0.7,0.2l-0.8,0.1l-0.6-0.2 M401.9,236.6
	l-0.1,0.2l-0.6,0.3l-0.7,0.2h-0.8l-0.6-0.1 M399.1,235.4L399.1,235.4l-0.4-0.2l-0.1-0.2 M398.3,238.3l0.8-1.1 M399,229.4l-0.3-1
	 M401.9,229.4l0.3-1 M401.7,233.1l0.5-0.3l0.5-0.5l0.1-0.2 M398.1,232.2l0.3,0.3l0.5,0.4l0.4,0.2 M398.6,233.1v0.1l0.2,0.2l0.5,0.2
	l0.5,0.1h0.7l0.6-0.1l0.6-0.3l0.5-0.4l0.2-0.3 M401.9,234.8l-0.1,0.1l-0.6,0.4l-0.7,0.2h-0.8l-0.6-0.1 M398.3,236.5l0.8-1.1
	 M401.7,233.1l-1.2,0.2h-1.2l-1-0.3l-0.7-0.4l-0.2-0.6 M399.3,233.1l0.3,0.1h0.3h0.3h0.3h0.3h0.3l0.3-0.1h0.3 M399.3,233.1l-1-0.3
	l-0.7-0.4l-0.2-0.6 M403.3,233.7l0.1,0.2l0.1,0.6l-0.1,0.6l-0.4,0.6l-0.6,0.5l-0.8,0.3l-0.8,0.2l-1,0.1l-0.8-0.1l-0.7-0.2
	 M403.3,231.9l0.1,0.2l0.1,0.5l-0.1,0.7l-0.5,0.7l-0.4,0.3l-0.6,0.3l-0.7,0.2l-0.7,0.1h-0.9l-0.9-0.1l-0.6-0.3l-0.5-0.3l-0.2-0.4
	v-0.5l0.3-0.4l0.2-0.1 M403.3,235.5L403.3,235.5l0.2,0.8l-0.2,0.8l-0.7,0.7l-1,0.5l-1.1,0.3h-1.2l-1-0.3 M398.3,236.5l-0.7-0.5
	l-0.2-0.6l0.2-0.5l0.3-0.3 M403.3,237.4L403.3,237.4l0.2,0.8l-0.2,0.8l-0.7,0.6l-1,0.6l-1.1,0.2h-1.2l-1-0.3 M398.3,238.3l-0.7-0.5
	l-0.2-0.6l0.2-0.5l0.4-0.3 M403.3,239.2L403.3,239.2l0.2,0.8l-0.2,0.8l-0.7,0.7l-1,0.5l-1.1,0.2h-1.2l-1-0.3 M398.3,240.1l-0.7-0.5
	l-0.2-0.5l0.2-0.6l0.4-0.3 M403.3,241L403.3,241l0.2,0.8l-0.2,0.8l-0.7,0.7l-1,0.5l-1.1,0.2h-1.2l-1-0.2 M398.3,241.9l-0.7-0.4
	l-0.2-0.6l0.2-0.6l0.4-0.3 M403.3,242.8L403.3,242.8l0.2,0.8l-0.2,0.8l-0.7,0.7l-1,0.5l-1.1,0.3l-1.2-0.1l-1-0.2 M398.3,243.8
	l-0.7-0.5l-0.2-0.6l0.2-0.6l0.4-0.3 M403.3,244.6v0.1l0.2,0.7l-0.2,0.8l-0.7,0.7l-1,0.5l-1.1,0.3h-1.2l-1-0.3 M398.3,245.6l-0.7-0.5
	l-0.2-0.6l0.2-0.5l0.4-0.3 M403.3,246.5L403.3,246.5l0.2,0.8l-0.2,0.8l-0.7,0.7l-1,0.5l-1.1,0.2h-1.2l-1-0.3 M398.3,247.4l-0.7-0.5
	l-0.2-0.5l0.2-0.6l0.4-0.3 M403.3,248.3L403.3,248.3l0.2,0.8l-0.2,0.8l-0.7,0.7l-1,0.5l-1.1,0.2h-1.2l-1-0.3 M398.3,249.2l-0.7-0.4
	l-0.2-0.6l0.2-0.6l0.4-0.3 M403.3,250.1L403.3,250.1l0.2,0.8l-0.2,0.8l-0.7,0.7l-1,0.5l-1.1,0.3l-1.2-0.1l-1-0.2 M398.3,251
	l-0.7-0.4l-0.2-0.6l0.2-0.6l0.4-0.3 M398.3,252.9l-0.7-0.5l-0.2-0.6l0.2-0.5l0.4-0.4 M398.3,253.1L398.3,253.1l-0.7-0.5l-0.2-0.5
	 M403.5,251.1v0.1l-0.2,0.7l-0.7,0.7l-1,0.5l-1.1,0.3h-1.2l-1-0.3 M398.3,251.3L398.3,251.3l-0.7-0.5l-0.2-0.6 M403.5,249.3
	L403.5,249.3l-0.2,0.8l-0.7,0.7l-1,0.5l-1.1,0.3l-1.2-0.1l-1-0.2 M398.3,249.4L398.3,249.4l-0.7-0.4l-0.2-0.6 M403.5,247.5
	L403.5,247.5l-0.2,0.8l-0.7,0.7l-1,0.5l-1.1,0.2h-1.2l-1-0.3 M398.3,247.6L398.3,247.6l-0.7-0.4l-0.2-0.6 M403.5,245.7L403.5,245.7
	l-0.2,0.8l-0.7,0.7l-1,0.5l-1.1,0.2h-1.2l-1-0.3 M398.3,245.8L398.3,245.8l-0.7-0.5l-0.2-0.5 M403.5,243.9L403.5,243.9l-0.2,0.7
	l-0.7,0.7l-1,0.6l-1.1,0.2h-1.2l-1-0.3 M398.3,244L398.3,244l-0.7-0.5l-0.2-0.6 M403.5,242L403.5,242l-0.2,0.8l-0.7,0.7l-1,0.5
	l-1.1,0.3h-1.2l-1-0.3 M398.3,242.2L398.3,242.2l-0.7-0.5l-0.2-0.6 M403.5,240.2L403.5,240.2l-0.2,0.8l-0.7,0.7l-1,0.5l-1.1,0.2
	h-1.2l-1-0.2 M398.3,240.3L398.3,240.3l-0.7-0.4l-0.2-0.6 M403.5,238.4L403.5,238.4l-0.2,0.8l-0.7,0.7l-1,0.5l-1.1,0.2h-1.2l-1-0.3
	 M398.3,238.5L398.3,238.5l-0.7-0.5l-0.2-0.5 M403.5,236.6L403.5,236.6l-0.2,0.8l-0.7,0.7l-1,0.5l-1.1,0.2h-1.2l-1-0.3 M398.3,236.7
	L398.3,236.7l-0.7-0.5l-0.2-0.5 M403.5,234.7v0.1l-0.2,0.7l-0.7,0.7l-1,0.5l-1.1,0.3h-1.2l-1-0.3 M403.5,232.9L403.5,232.9l-0.2,0.8
	l-0.7,0.7l-1,0.5l-1.1,0.3l-1.2-0.1l-1-0.2l-0.7-0.5l-0.2-0.6 M398.5,230.1l-0.2-1 M402.4,230.1l0.2-1 M402.5,227.9L402.5,227.9
	L402.5,227.9 M402.4,227.9l-0.8,0.4 M401.6,228.3l-1.1,0.3 M400.5,228.6l-1.2-0.3 M399.3,228.3l-0.8-0.4 M398.5,227.9L398.5,227.9
	 M399,229.4l-0.5,0.7 M398.5,230.1l-0.3,0.2 M402.7,230.3l-0.3-0.2 M402.4,230.1l-0.5-0.7 M402.5,232.4L402.5,232.4l-0.6,0.3
	l-0.7,0.2l-0.8,0.1l-0.7-0.1l-0.7-0.2l-0.5-0.3h-0.1 M402.6,226.6l-1.1,0.6 M403.7,227.2l-0.1-0.1l-0.1-0.1l-0.2-0.1h-0.1l-0.1-0.1
	l-0.2-0.1l-0.1-0.1h-0.2 M402.6,227.8l1.1-0.6 M402.2,228.4l0.4-0.6 M402.6,229.1l-0.4-0.7 M403.7,229.7l-1.1-0.6 M402.6,230.3
	l0.2-0.1h0.1l0.2-0.1l0.1-0.1l0.1-0.1h0.2l0.1-0.1l0.1-0.1 M401.5,229.7l1.1,0.6 M400.5,229.4l1,0.3 M399.4,229.7l1.1-0.3
	 M398.3,230.3l1.1-0.6 M397.2,229.7l0.1,0.1l0.1,0.1h0.2l0.1,0.1l0.1,0.1l0.2,0.1h0.1l0.2,0.1 M398.3,229.1l-1.1,0.6 M398.7,228.4
	l-0.4,0.7 M398.3,227.8l0.4,0.6 M397.2,227.2l1.1,0.6 M398.3,226.6h-0.2l-0.1,0.1l-0.2,0.1l-0.1,0.1h-0.1l-0.2,0.1l-0.1,0.1
	l-0.1,0.1 M399.4,227.2l-1.1-0.6 M400.5,227.4l-1.1-0.2 M401.5,227.2l-1,0.2 M404.6,226.1l1,0.8l0.6,0.9v1l-0.4,1l-0.9,0.8l-1.3,0.7
	l-1.6,0.4l-1.8,0.1l-1.7-0.2l-1.5-0.5l-1.2-0.7l-0.9-0.8l-0.3-1l0.2-1l0.7-1l1.1-0.7l1.5-0.5l1.7-0.3h1.7l1.7,0.4L404.6,226.1
	 M407.2,258.7l-0.2,17.9 M446.8,296.7l0.3-0.1l0.2-0.3l0.1-0.3v-0.3 M447.4,295.8l-0.3-3.5 M421.2,256.5l-1.7-0.9 M409.3,258
	l-0.2,19.2 M410.4,298.1v-0.2 M435.2,264.6l-1.6-0.9 M438.6,276.4l-0.1-8.6 M388.5,299v0.3 M426.4,290l-28,16.1 M401.8,306.2
	l-2.1,0.1 M430.2,290.1l-26.8,15.5 M340.4,307.7l-7.9,4.6 M332.3,312.3l-1.6,0.9 M330.9,313.2l-7.4,4.3 M397.2,306.8l-30.5,17.6
	 M370.1,324.5l-2.1,0.1 M402.7,306.1l-31,17.8 M324.9,329.2l-0.2-0.3 M328.7,334l-0.5-0.5 M339.3,340.4l-2.2-0.5l-2.3-1.1
	 M342.5,340.4l-2.1,0.2 M371,324.3l-27,15.6 M333.1,342.7v-0.2 M270.1,356.6v0.3l0.1,0.3l0.2,0.2l0.3,0.2 M270.3,353.1l-0.2,3.5
	 M279.6,361.8l5.6-3.2 M270.7,357.6l7.2,4.2 M277.9,361.8l0.4,0.2h0.5h0.4l0.4-0.2 M279.7,340.7l-0.2-0.2l-0.3-0.3 M280.2,341.8
	v-0.1l-0.1-0.2 M280.1,341.5l-0.4-0.8 M278.4,340.2l-1.5,0.9 M275.9,340.8l-1.8,1.1 M343.3,340.3l-13.4,7.8 M274.9,342.2l-0.3,0.2
	 M274.2,343l-0.1,10.3 M274.6,342.4L274.6,342.4l-0.2,0.1v0.1h-0.1v0.1v0.1l-0.1,0.1v0.1 M299.8,321.2l-0.3,20.9 M294.9,360.9l6.9,4
	 M279.7,344.3l-3.1-1.8 M276.8,353l0.1,0.4l0.1,0.3l0.2,0.3l0.3,0.1 M280,343.5v0.1 M280,343.6l-0.2,0.5l-0.3,0.5 M277,348.3
	l-0.2,4.8 M296.4,371.8v0.3l0.1,0.3l0.2,0.2l0.3,0.2 M280.3,341.2l-0.3,2.2 M279.6,344.6l-1.4,0.8 M277.7,345.9l-0.3,0.4
	 M277.4,346.3l-0.2,1l-0.2,1 M278.1,345.5L278.1,345.5l-0.3,0.2l-0.1,0.2 M281,339.2l-0.4,1l-0.3,1 M296.5,368.3l-0.1,3.6
	 M328.3,340l-0.1-8.5 M304.5,348.6l-0.3-2.3 M306.9,377.5l139.9-80.8 M297,372.8l8.2,4.7 M305.2,377.5l0.4,0.2h0.4h0.5l0.4-0.2
	 M277.4,354.1l14.7,8.5 M292.7,362.6l2-1.2 M292,362.5L292,362.5l0.2,0.1h0.1h0.2l0.3-0.1 M302.7,344l-14.9-8.7 M424.9,177.1l1-0.6
	l1.5-1.5l1-1.7l0.8-1.9l0.5-2.2l0.1-2.3l-0.1-2.3l-0.3-2.4l-0.6-2.2l-0.6-2.1l-0.7-1.5l-0.7-1.7l-1-1.8 M425.8,152.9l-1.6-2.5
	l-0.8-1l-1.3-1.6l-1.3-1.5l-1.6-1.4l-1.7-1.3l-1.7-1.1l-1.9-0.9l-1.8-0.7l-1.9-0.4h-1.9l-1.8,0.2l-1.8,0.7l-0.6,0.4 M321.2,222.3
	l0.4-0.2 M313.8,208.6l-0.4,0.2 M313.4,208.8l-1,0.9l-0.6,1l-0.5,2.3l0.3,2.1l0.7,2l1.1,1.8l1.6,1.9l1.2,1l1.5,0.7l1.8,0.3l1.7-0.5
	 M314.6,220.5l0.2,0.3l1,1.1l1.1,1l1.2,0.9l1.2,0.8l1.3,0.5l1.3,0.3l1.3,0.1l1.3-0.3l0.8-0.4 M313,204.2L313,204.2l-1.2,1.1
	l-0.7,1.3l-0.4,1.4l-0.2,1.6l0.1,1.6l0.3,1.9l0.4,1.4l0.5,1.2v0.1 M330.6,231.6l94.2-54.3 M404.2,141.7L310,196 M309,220.4l1.6,2.6
	l0.7,1l1.3,1.5l1.4,1.5l1.6,1.4l1.6,1.3l1.8,1.1l1.8,0.9l1.9,0.7l1.9,0.4h1.8l1.9-0.2l1.7-0.7l0.5-0.3 M310,196.1l-1.1,0.7l-1.5,1.5
	l-1.1,1.7l-0.7,2l-0.5,2.1l-0.2,2.3l0.1,2.3l0.4,2.4l0.5,2.2l0.7,2.1l0.6,1.5l0.8,1.7l1,1.8 M450.3,78.6l0.8-0.6l0.6-0.7l0.4-0.8
	l0.1-0.8 M424.9,13.3l-3.6-1.6l-3.7-0.7l-3.4,0.3l-2.5,1.1 M435.3,19.3l-10.4-6.1 M452.2,75.7L449.6,42 M449.6,42l-0.6-3.5l-1.1-3.6
	l-1.5-3.4l-1.9-3.2l-2.1-2.9l-2.3-2.4l-2.4-2.1l-2.4-1.6 M265.3,136.6l0.1,0.8l0.3,0.8l0.6,0.7l0.9,0.6 M277.2,125.2L277.2,125.2
	 M277.1,125.2h0.2 M267.9,102.9l-2.6,33.7 M309.8,159.7l140.5-81.1 M267.2,139.5l35,20.2 M293.2,142.6v0.3l-0.1,0.2 M302.2,159.7
	l1.7,0.7l2.1,0.2l2.1-0.2l1.8-0.7 M411.5,12.4L274.2,91.7 M274.2,91.8l-2.1,1.5L270,96l-1.5,3.3l-0.6,3.6 M257.6,285.6l0.2-0.1
	l0.2-0.3v-0.3 M258,284.8l-0.5-6.8 M251,289.5l6.6-3.8 M248,291.7l3-2.2 M245.1,270.4l-0.1,11.7 M250,281.4l-0.1-11 M249.9,270.4
	l-0.1-0.7 M245.2,269.7l-0.1,0.2v0.5 M237.9,297.5l10-5.8 M245.5,267.5l-0.3,2.1 M249.9,269.6l-0.4-2.1 M248.6,266.3l-0.5-0.2
	l-0.7-0.1l-0.8,0.2l-0.6,0.4l-0.3,0.5l-0.2,0.4 M249.5,267.5l-0.2-0.4l-0.3-0.5l-0.4-0.3 M234.1,299.2l3.8-1.7 M224.8,288.3
	l-1.6,0.9 M207.1,298.5l-1.6,0.9 M210.9,312.6l23.2-13.4 M207.9,314.8l3-2.2 M197.9,320.6l10-5.8 M194,322.3l3.8-1.7 M176.6,322.5
	v0.1v0.1v0.1l0.1,0.2l0.1,0.1l0.1,0.1l0.1,0.1 M176.9,315.6l-0.3,6.9 M185.1,327.5l9-5.2 M177,323.3l7.3,4.2 M184.3,327.5h0.1
	l0.3,0.1 M184.7,327.6l0.3-0.1h0.1 M185.8,312.7l-1.5-0.9 M187,303.9l-0.2,11.8 M191.9,315l-0.1-11.1 M191.8,303.9l-0.1-0.7
	 M187.1,303.2l-0.1,0.2v0.5 M187.4,301.1l-0.4,2.1 M191.7,303.2l-0.4-2.1 M190.5,299.9l-0.6-0.3h-0.7l-0.8,0.2l-0.5,0.3l-0.4,0.5
	l-0.1,0.5 M191.3,301l-0.1-0.4l-0.3-0.4l-0.4-0.3 M263.7,168.8l0.2-0.2l0.2-0.2l0.1-0.3v-0.3 M254.8,136.8l-0.8-0.3l-0.7-0.2
	l-0.8,0.1l-0.6,0.3 M259.7,139.6l-4.9-2.8 M264.3,167.9l-1.8-23.8 M262.5,144.1l-0.3-1.3l-0.7-1.3l-0.8-1.1l-1.1-0.8 M172.6,206.7
	l0.1,0.3l0.1,0.3l0.2,0.3l0.2,0.2 M185.5,213.9l78.2-45.1 M173.2,207.8l10.7,6.1 M183.9,213.9l0.4,0.2h0.4h0.5l0.3-0.2 M174.4,183
	l-1.8,23.8 M252,136.6l-76.3,44.1 M175.9,180.6l-0.6,0.4l-0.4,0.6l-0.3,0.6l-0.2,0.8 M323.5,302.5l1.5-2.8 M325.3,299.2l0.4-0.8
	 M320.3,297.6l0.1,0.3 M321,299l1.8,3.5 M325.3,277L325.3,277 M321.1,277L321.1,277l0.1,0.2 M320.1,277.1v0.3 M320.1,279v0.2
	 M320.1,280.8v0.2 M320.1,282.6v0.2 M320.1,284.4v0.3 M320.1,286.2v0.3 M320.1,288.1v0.2 M320.1,289.9v0.2 M320.1,291.7v0.2
	 M320.1,293.5v0.3 M320.1,295.4v0.2 M326.3,296.5v-0.2 M326.3,294.7v-0.3 M326.3,292.9v-0.3 M326.3,291v-0.2 M326.3,289.2V289
	 M326.3,287.4v-0.2 M326.3,285.6v-0.3 M326.3,283.7v-0.2 M326.3,281.9v-0.2 M326.3,280.1v-0.2 M326.3,278.3V278 M326.3,276.4v-0.2
	 M325.3,277l2.5-1.9 M318.6,275.1l2.5,1.9 M198.7,267.7l1.8-3.3 M201,263.5l0.2-0.4 M195.9,263.6l0.4,0.8 M196.6,265l1.4,2.7
	 M195.3,241.6v0.2 M195.3,243.4v0.3 M195.3,245.2v0.3 M195.3,247.1v0.2 M195.3,248.9v0.2 M195.3,250.7v0.2 M195.3,252.5v0.3
	 M195.3,254.4v0.2 M195.3,256.2v0.2 M195.3,258v0.2 M195.3,259.8v0.3 M195.3,261.6v0.3 M201.5,261v-0.3 M201.5,259.1v-0.2
	 M201.5,257.3v-0.2 M201.5,255.5v-0.2 M201.5,253.7v-0.3 M201.5,251.9v-0.3 M201.5,250v-0.2 M201.5,248.2V248 M201.5,246.4v-0.2
	 M201.5,244.6v-0.3 M201.5,242.7v-0.2 M200.5,242.2l2.5-1.9 M193.8,240.3l2.5,1.9 M238.8,244.6l1.8-3.3 M241,240.4l0.3-0.5
	 M236,240.5l0.4,0.8 M236.7,241.8l1.4,2.8 M235.4,218.5v0.2 M235.4,220.3v0.2 M235.4,222.1v0.2 M235.4,223.9v0.3 M235.4,225.7v0.3
	 M235.4,227.6v0.2 M235.4,229.4v0.2 M235.4,231.2v0.2 M235.4,233v0.3 M235.4,234.9v0.2 M235.4,236.7v0.2 M235.4,238.5v0.2
	 M241.6,237.8v-0.2 M241.6,236v-0.2 M241.6,234.2v-0.3 M241.6,232.4v-0.3 M241.6,230.5v-0.2 M241.6,228.7v-0.2 M241.6,226.9v-0.2
	 M241.6,225.1v-0.3 M241.6,223.2V223 M241.6,221.4v-0.2 M241.6,219.6v-0.2 M240.6,219.1l2.5-1.9 M233.9,217.2l2.5,1.9 M400.8,257.9
	l1.7-3.3 M403,253.7l0.3-0.4 M397.9,253.8l0.5,0.8 M398.6,255.1l1.5,2.8 M397.4,231.8v0.2 M397.4,233.6v0.2 M397.4,235.4v0.3
	 M397.4,237.2v0.3 M397.4,239.1v0.2 M397.4,240.9v0.2 M397.4,242.7v0.2 M397.4,244.5v0.3 M397.4,246.4v0.2 M397.4,248.2v0.2
	 M397.4,250v0.2 M397.4,251.8v0.3 M403.5,251.1v-0.2 M403.5,249.3v-0.2 M403.5,247.5v-0.2 M403.5,245.7v-0.3 M403.5,243.9v-0.3
	 M403.5,242v-0.2 M403.5,240.2V240 M403.5,238.4v-0.2 M403.5,236.6v-0.3 M403.5,234.7v-0.2 M403.5,232.9v-0.2 M402.5,232.4l2.6-1.9
	 M395.9,230.5l2.5,1.9"/>
</svg>
