<?xml version="1.0" encoding="utf-8"?>
<!-- Generator: Adobe Illustrator 21.0.0, SVG Export Plug-In . SVG Version: 6.00 Build 0)  -->
<svg version="1.1" id="Layer_1" xmlns="http://www.w3.org/2000/svg" xmlns:xlink="http://www.w3.org/1999/xlink" x="0px" y="0px"
	 viewBox="0 0 900 335" style="enable-background:new 0 0 900 335;" xml:space="preserve">
<style type="text/css">
	.st0{fill:none;stroke:#000000;stroke-width:0.709;stroke-linecap:round;stroke-linejoin:round;stroke-miterlimit:10;}
	.st1{fill:none;stroke:#000000;stroke-miterlimit:10;}
</style>
<path class="st0" d="M454.9,206.3l-0.4,1.1l0.1,1.1l0.5,1l0.8,0.7l1.1,0.4l1.1-0.1l1-0.5l0.7-0.8 M459.8,209.2l0.4-1.1l-0.1-1.1
	l-0.5-1l-0.8-0.7l-1.1-0.4h-0.4 M457.3,111.6l-0.3,0.1l-1.1,0.3l-0.8,0.7l-0.5,1l-0.1,1.1l0.4,1.1 M454.9,115.9l0.7,0.8l1,0.5
	l1.1,0.1l1.1-0.4l0.8-0.7l0.5-1l0.1-1.1l-0.4-1 M461,209.9l-1,1.2l-1.4,0.7l-1.5,0.2l-1.5-0.4l-1.3-0.9l-0.9-1.3l-0.3-1.5l0.2-1.6
	l0.8-1.3l1.2-1l1.5-0.5l1.6,0.1l1.4,0.7l1.1,1.1l0.6,1.5l0.1,1.5L461,209.9 M453.7,116.6l-0.6-1.5l0.1-1.5l0.6-1.5l1.1-1.1l1.4-0.6
	l1.6-0.1l1.5,0.4l1.2,1l0.8,1.4l0.2,1.5l-0.3,1.5l-0.9,1.3l-1.3,0.9l-1.5,0.4l-1.5-0.2l-1.4-0.7L453.7,116.6 M454.9,206.3l0.7-0.8
	l1-0.5l1.1-0.1l1.1,0.4l0.8,0.7l0.5,1l0.1,1.1l-0.4,1.1l-0.7,0.8l-1,0.5l-1.1,0.1l-1.1-0.4l-0.8-0.7l-0.5-1l-0.1-1.1L454.9,206.3
	 M459.8,113.1l0.4,1l-0.1,1.1l-0.5,1l-0.8,0.7l-1.1,0.4l-1.1-0.1l-1-0.5l-0.7-0.8l-0.4-1.1l0.1-1.1l0.5-1l0.8-0.7l1.1-0.3h1.1l1,0.5
	L459.8,113.1 M538.1,164l-1-0.3l-1-0.6l-0.6-0.9l-0.2-1.1l0.2-1.1l0.6-0.9l1-0.6l1-0.2l1.1,0.2l0.9,0.6l0.7,0.9l0.2,1.1l-0.2,1.1
	l-0.7,0.9l-0.9,0.6L538.1,164 M538.1,156.9l1.6,0.3l1.3,0.8l0.9,1.2l0.5,1.5l-0.2,1.6l-0.7,1.4l-1.1,1l-1.5,0.6h-1.5l-1.5-0.6
	l-1.2-1l-0.7-1.4l-0.1-1.6l0.4-1.5l1-1.2l1.3-0.8L538.1,156.9 M141.1,195.4h-12.8 M141.1,195.1h-12.8 M128.3,195.1v0.3 M142.8,169.3
	h-1.7 M142.5,169.6h-1.4 M142.5,195.1v-25.5 M141.1,195.1h1.4 M141.1,195.1v0.3 M141.1,195.4h1.7 M142.8,195.4v-26.1 M128.3,169.3
	v0.3 M128.3,169.6h12.8 M141.1,169.3v0.3 M128.3,169.3h12.8 M223.3,195.1H236 M223.3,194.8H236 M236,194.8v0.3 M236,169.9h-12.7
	 M236,169.6v0.3 M236,169.6h-12.7 M223.3,195.1h-1.4 M223.3,195.1v-0.3 M223.3,194.8h-1.2 M222.1,194.8v-24.9 M222.1,169.9h1.2
	 M223.3,169.9v-0.3 M221.9,169.6h1.4 M221.9,195.1v-25.5 M136.8,115.8v17 M136.8,132.8h17 M153.8,132.8v-17 M153.8,115.8h-17
	 M145.3,128.5l1.6-0.3l1.3-0.8l0.9-1.2l0.4-1.5l-0.1-1.6l-0.7-1.4l-1.1-1l-1.5-0.6h-1.6l-1.4,0.6l-1.2,1l-0.7,1.4l-0.1,1.6l0.4,1.5
	l1,1.2l1.3,0.8L145.3,128.5 M182.2,216h0.4l0.3-0.3l0.2-0.3l0.1-0.4l-0.1-0.4l-0.2-0.4l-0.3-0.2l-0.4-0.1l-0.4,0.1l-0.4,0.2
	l-0.2,0.4l-0.1,0.4l0.1,0.4l0.2,0.3l0.4,0.3H182.2 M182.2,226.3l2.5-0.3l2.4-0.8l2.1-1.4l1.8-1.8l1.4-2.1l0.8-2.4l0.3-2.5l-0.3-2.5
	l-0.8-2.4l-1.4-2.2l-1.8-1.8l-2.1-1.3l-2.4-0.9l-2.5-0.3l-2.6,0.3l-2.4,0.9l-2.1,1.3l-1.8,1.8l-1.3,2.2l-0.9,2.4l-0.3,2.5l0.3,2.5
	l0.9,2.4l1.3,2.1l1.8,1.8l2.1,1.4l2.4,0.8L182.2,226.3 M182.2,111.5l-2-0.3l-1.9-0.8l-1.5-1.3l-1.1-1.7l-0.5-2v-2l0.5-1.9l1.1-1.7
	l1.5-1.3l1.9-0.9l2-0.3l2,0.3l1.8,0.9l1.5,1.3l1.1,1.7l0.6,1.9v2l-0.6,2l-1.1,1.7l-1.5,1.3l-1.8,0.8L182.2,111.5 M182.2,105.8
	l0.5-0.1l0.5-0.3l0.3-0.4l0.1-0.6l-0.1-0.5l-0.3-0.5l-0.5-0.3l-0.5-0.1l-0.6,0.1l-0.4,0.3l-0.3,0.5l-0.2,0.5l0.2,0.6l0.3,0.4
	l0.4,0.3L182.2,105.8 M182.2,229.1l6.1-0.2l6-0.8l6-1.4l5.8-1.9l5.6-2.4l5.4-2.9l5.1-3.3l4.7-3.8l4.4-4.3l4.1-4.6l3.5-4.9l3.2-5.2
	l2.6-5.5l2.2-5.8l1.6-5.8l1.1-6.1l0.5-6v-6.1l-0.5-6.1l-1.1-6l-1.6-5.9l-2.2-5.7l-2.6-5.5l-3.2-5.3l-3.5-4.9l-4.1-4.6l-4.4-4.2
	l-4.7-3.8l-5.1-3.4l-5.4-2.9l-5.6-2.4l-5.8-1.9l-6-1.3l-6-0.8l-6.1-0.3l-6.1,0.3l-6.1,0.8l-5.9,1.3l-5.8,1.9l-5.7,2.4l-5.3,2.9
	l-5.1,3.4l-4.8,3.8l-4.4,4.2l-4,4.6l-3.6,4.9l-3.1,5.3l-2.7,5.5l-2.1,5.7l-1.7,5.9l-1,6l-0.6,6.1v6.1l0.6,6l1,6.1l1.7,5.8l2.1,5.8
	l2.7,5.5l3.1,5.2l3.6,4.9l4,4.6l4.4,4.3l4.8,3.8l5.1,3.3l5.3,2.9l5.7,2.4l5.8,1.9l5.9,1.4l6.1,0.8L182.2,229.1 M146.7,196.6h70.9
	 M146.7,196.6v-28.4 M146.7,168.2h70.9 M217.6,196.6v-28.4 M393.6,159.7l-0.4,0.2l-0.3,0.5l-0.2,0.6 M392.7,161.2L392.7,161.2
	l0.2,0.7l0.3,0.4l0.4,0.2 M392.7,161.2v-0.1V161 M484.3,251.8l-7.1-0.2l-6.9-0.9l-6.9-1.3l-6.8-1.9l-6.6-2.4l-6.4-2.9l-6.2-3.4
	l-5.9-3.9l-5.5-4.3l-5.2-4.7l-4.9-5.1l-4.4-5.5l-4-5.8l-3.5-6.1l-3-6.4l-2.5-6.5l-2.1-6.8l-1.5-6.8l-0.9-7l-0.4-7l0.1-7.1l0.7-7
	l1.2-6.9l1.8-6.8l2.3-6.7l2.7-6.4l3.3-6.2l3.8-6l4.2-5.6l4.6-5.3l5-5l5.4-4.5l5.7-4.1l6.1-3.6l6.2-3.2l6.6-2.6l6.7-2.2l6.8-1.6
	l6.9-1.1l7.1-0.5h7l7,0.5l7,1.1l6.8,1.6l6.7,2.2l6.5,2.6l6.3,3.2l6,3.6l5.7,4.1l5.4,4.5l5.1,5l4.6,5.3l4.2,5.6l3.7,6l3.3,6.2
	l2.8,6.4l2.3,6.7l1.7,6.8l1.3,6.9l0.6,7l0.2,7.1l-0.4,7l-1,7l-1.5,6.8l-2,6.8l-2.5,6.5l-3.1,6.4l-3.5,6.1l-4,5.8l-4.4,5.5l-4.8,5.1
	l-5.2,4.7l-5.6,4.3l-5.9,3.9l-6.1,3.4l-6.4,2.9l-6.6,2.4l-6.8,1.9l-6.9,1.3l-7,0.9L484.3,251.8 M484.3,233.4l-6.2-0.3l-6.2-0.8
	l-6.1-1.3l-5.9-1.8l-5.8-2.4l-5.5-2.8l-5.3-3.3l-5-3.8l-4.6-4.1l-4.2-4.6l-3.9-4.8l-3.4-5.2l-3-5.5l-2.4-5.7l-2-5.9l-1.5-6.1
	l-0.9-6.1l-0.4-6.2l0.1-6.2l0.7-6.2l1.2-6.1l1.7-6l2.3-5.8l2.7-5.6l3.2-5.4l3.6-5l4-4.7l4.5-4.4l4.8-3.9l5.1-3.5l5.4-3.1l5.7-2.6
	l5.8-2.1l6-1.6l6.2-1.1l6.2-0.5h6.2l6.2,0.5l6.1,1.1l6,1.6l5.9,2.1l5.6,2.6l5.4,3.1l5.2,3.5l4.8,3.9l4.4,4.4l4.1,4.7l3.6,5l3.2,5.4
	l2.7,5.6l2.2,5.8l1.7,6l1.2,6.1l0.7,6.2l0.1,6.2l-0.4,6.2l-0.9,6.1l-1.4,6.1l-2,5.9l-2.5,5.7l-2.9,5.5l-3.5,5.2l-3.8,4.8l-4.3,4.6
	l-4.6,4.1l-5,3.8L520,224l-5.6,2.8l-5.7,2.4l-6,1.8l-6,1.3l-6.2,0.8L484.3,233.4 M182.2,231.5l6.1-0.3l6.1-0.8l6-1.3l5.8-1.9
	l5.7-2.3l5.4-2.9l5.2-3.3l4.9-3.7l4.5-4.1l4.2-4.6l3.7-4.8l3.3-5.2l2.8-5.4l2.4-5.7l1.8-5.9l1.4-6l0.8-6.1l0.2-6.1l-0.2-6.1
	l-0.8-6.1l-1.4-6l-1.8-5.8l-2.4-5.7l-2.8-5.5l-3.3-5.1l-3.7-4.9l-4.2-4.5l-4.5-4.2l-4.9-3.7l-5.2-3.3l-5.4-2.8l-5.7-2.4l-5.8-1.8
	l-6-1.4l-6.1-0.8l-6.1-0.2L176,91l-6.1,0.8l-5.9,1.4l-5.9,1.8l-5.7,2.4l-5.4,2.8l-5.2,3.3l-4.9,3.7l-4.5,4.2l-4.1,4.5l-3.8,4.9
	l-3.3,5.1l-2.8,5.5l-2.3,5.7l-1.9,5.8l-1.3,6l-0.8,6.1l-0.3,6.1l0.3,6.1l0.8,6.1l1.3,6l1.9,5.9l2.3,5.7l2.8,5.4l3.3,5.2l3.8,4.8
	l4.1,4.6l4.5,4.1l4.9,3.7l5.2,3.3l5.4,2.9l5.7,2.3l5.9,1.9l5.9,1.3l6.1,0.8L182.2,231.5 M91.6,165.4l0.6,6.9l1.1,6.9l1.6,6.8
	l2.2,6.6l2.7,6.5l3.1,6.2l3.7,5.9l4,5.7l4.5,5.3l4.9,5l5.3,4.6l5.6,4.2l5.9,3.7l6.2,3.2l6.4,2.8l6.6,2.3l6.7,1.7l6.9,1.3l7,0.7
	l6.9,0.1l7-0.4l6.9-0.9l6.8-1.4l6.7-2l6.6-2.4l6.3-3 M223.8,80.5l-6.3-2.9l-6.6-2.5l-6.7-2l-6.8-1.4l-6.9-0.9l-7-0.4l-6.9,0.2
	l-7,0.7l-6.9,1.2l-6.7,1.8l-6.6,2.2l-6.4,2.8l-6.2,3.3l-5.9,3.7l-5.6,4.1L120,95l-4.9,5l-4.5,5.3l-4,5.7l-3.7,5.9l-3.1,6.3l-2.7,6.4
	l-2.2,6.6l-1.6,6.8l-1.1,6.9l-0.6,7 M272.9,159.7l-0.5-7.4l-1-7.4l-1.6-7.3l-2.2-7.1l-2.8-6.9l-3.4-6.6l-3.9-6.4l-4.4-6l-4.8-5.6
	l-5.3-5.2l-5.8-4.8l-6-4.2 M231.2,237.5l6-4.3l5.8-4.8l5.3-5.2l4.8-5.6l4.4-6l3.9-6.4l3.4-6.6l2.8-6.9l2.2-7.1l1.6-7.3l1-7.3
	l0.5-7.5 M273.7,161.2v0.2v0.2l-0.1,0.2l-0.1,0.2l-0.1,0.2l-0.2,0.1l-0.2,0.1l-0.1,0.1 M272.9,159.7l0.1,0.1l0.2,0.1l0.2,0.2
	l0.1,0.1l0.1,0.2l0.1,0.2v0.2v0.2 M182.2,246.2l6.7-0.3l6.7-0.8l6.7-1.4l6.5-1.8l6.3-2.4l6.1-2.8l5.9-3.4l5.6-3.8l5.3-4.2l4.9-4.7
	l4.5-5l4.2-5.3l3.6-5.7l3.3-5.9l2.7-6.2l2.3-6.4l1.7-6.5l1.2-6.7l0.7-6.7l0.1-6.8l-0.4-6.7l-1-6.7l-1.4-6.6l-2-6.5l-2.5-6.3l-3-6
	l-3.4-5.8l-4-5.6l-4.3-5.2l-4.7-4.8l-5.1-4.4l-5.5-4l-5.7-3.6l-6-3.1l-6.2-2.6l-6.5-2.1l-6.5-1.6l-6.7-1.1l-6.8-0.6h-6.7l-6.8,0.6
	l-6.6,1.1l-6.6,1.6l-6.4,2.1l-6.3,2.6l-6,3.1l-5.7,3.6l-5.4,4l-5.1,4.4l-4.8,4.8l-4.3,5.2l-3.9,5.6l-3.5,5.8l-3,6l-2.5,6.3l-1.9,6.5
	l-1.5,6.6l-1,6.7l-0.4,6.7l0.2,6.8l0.6,6.7l1.3,6.7l1.7,6.5l2.2,6.4l2.8,6.2l3.2,5.9l3.7,5.7l4.1,5.3l4.5,5l5,4.7l5.2,4.2l5.6,3.8
	l5.9,3.4l6.1,2.8l6.4,2.4l6.5,1.8l6.6,1.4l6.7,0.8L182.2,246.2 M273.7,161v0.2 M91.6,156.9l-0.1,0.2v0.7v1.1v1.3v1.4v1.4v1.1v0.9
	l0.1,0.3v0.1 M91.6,156.9l1.6,0.3l1.3,0.9l0.9,1.4l0.3,1.6l-0.3,1.6l-0.9,1.4l-1.3,0.9l-1.6,0.4 M231.2,84.8l-0.2-0.2l-0.6-0.3
	l-0.9-0.6l-1.2-0.7l-1.2-0.7l-1.2-0.7l-1-0.5l-0.7-0.4l-0.4-0.2 M231.2,84.8L230,86l-1.4,0.7l-1.7,0.1l-1.5-0.6l-1.2-1l-0.8-1.5
	l-0.1-1.6l0.5-1.6 M223.8,241.7l0.2-0.1l0.6-0.3l1-0.5l1.1-0.7l1.2-0.7l1.2-0.7l1-0.6l0.7-0.4l0.3-0.2h0.1 M223.8,241.7l-0.5-1.5
	l0.1-1.7l0.8-1.4l1.2-1.1l1.5-0.5l1.7,0.1l1.4,0.7l1.2,1.2 M749,165.4l-1.6-0.3l-1.3-0.8l-1-1.3l-0.4-1.5l0.2-1.5l0.7-1.4l1.1-1.1
	l1.5-0.6h1.5l1.5,0.6l1.1,1.1l0.7,1.4l0.2,1.5l-0.4,1.5l-1,1.3l-1.3,0.8L749,165.4 M754.6,211.8h-0.3h-0.8h-1.2h-1.6H749h-1.8h-1.6
	h-1.2h-0.8h-0.3 M702.3,191.6l1.4-0.3l1.1-0.7l0.8-1.2l0.3-1.4l-0.3-1.3l-0.8-1.2l-1.1-0.7l-1.4-0.3l-1.3,0.3l-1.2,0.7l-0.8,1.2
	l-0.2,1.3l0.2,1.4l0.8,1.2l1.2,0.7L702.3,191.6 M795.6,191.6l1.3-0.3l1.2-0.7l0.8-1.2l0.2-1.4l-0.2-1.3l-0.8-1.2l-1.2-0.7l-1.3-0.3
	l-1.4,0.3l-1.1,0.7l-0.8,1.2L792,188l0.3,1.4l0.8,1.2l1.1,0.7L795.6,191.6 M749,110.8l1.3-0.3l1.2-0.7l0.7-1.2l0.3-1.3l-0.3-1.4
	l-0.7-1.1l-1.2-0.8l-1.3-0.3l-1.4,0.3l-1.2,0.8l-0.7,1.1l-0.3,1.4l0.3,1.3l0.7,1.2l1.2,0.7L749,110.8 M820.5,172.4l-6.7-6.4
	l-6.4-6.7l-5.9-7.2l-5.4-7.5l-4.9-7.9l-4.3-8.2l-3.8-8.4l-3.3-8.7l-2.7-8.9l-2.1-9 M703.4,217.5l8.9-2.7l9-2.1l9.2-1.5l9.2-0.9
	l9.3-0.3l9.2,0.3l9.2,0.9l9.2,1.5l9,2.1l8.9,2.7 M722.9,93.5l-2.1,9l-2.7,8.9l-3.3,8.7l-3.8,8.4l-4.3,8.2l-4.9,7.9l-5.4,7.5
	l-5.9,7.2l-6.4,6.7l-6.7,6.4 M795.6,192.3l1.5-0.3l1.4-0.8l0.9-1.3l0.4-1.5l-0.1-1.5l-0.7-1.4l-1.2-1.1l-1.4-0.5h-1.6l-1.4,0.5
	l-1.2,1.1l-0.7,1.4l-0.1,1.5l0.4,1.5l0.9,1.3l1.4,0.8L795.6,192.3 M702.3,192.3l1.5-0.3l1.4-0.8l0.9-1.3l0.4-1.5l-0.1-1.5l-0.7-1.4
	l-1.2-1.1l-1.4-0.5h-1.6l-1.4,0.5l-1.2,1.1l-0.7,1.4l-0.1,1.5l0.4,1.5l0.9,1.3l1.4,0.8L702.3,192.3 M749,111.5l1.5-0.3l1.3-0.8
	l1-1.2l0.4-1.5l-0.2-1.6l-0.7-1.4l-1.1-1.1l-1.5-0.5h-1.5l-1.5,0.5l-1.1,1.1l-0.7,1.4l-0.2,1.6l0.4,1.5l1,1.2l1.3,0.8L749,111.5
	 M749,169.6l2.1-0.2l1.9-0.8l1.8-1.3l1.3-1.6l0.9-2l0.4-2l-0.1-2.2l-0.7-2l-1.1-1.8l-1.6-1.5l-1.8-1l-2.1-0.5h-2.1l-2.1,0.5l-1.8,1
	l-1.6,1.5l-1.1,1.8l-0.7,2l-0.1,2.2l0.4,2l0.9,2l1.3,1.6l1.8,1.3l1.9,0.8L749,169.6 M775,93.5l-1.6-10.1l-0.9-10.1 M725.4,73.3
	l-0.8,10.1l-1.7,10.1 M775,93.5l-6.3-2.1l-6.5-1.5l-6.6-0.9l-6.6-0.3l-6.7,0.3l-6.6,0.9l-6.5,1.5l-6.3,2.1 M836.7,184.6l-8.2-5.7
	l-8-6.5 M794.5,217.5l9.6,3.6l9.1,4.3 M794.5,217.5l5-4.4l4.5-4.9l4.1-5.3l3.6-5.6l3.1-5.9l2.5-6.1l1.9-6.4l1.3-6.5 M684.7,225.4
	l9.1-4.3l9.6-3.6 M677.4,172.4l-8,6.4l-8.2,5.8 M677.4,172.4l1.3,6.5l1.9,6.4l2.6,6.1l3,5.9l3.6,5.6l4.1,5.3l4.5,4.9l5,4.4
	 M677.7,224.2l-0.2-0.2l-0.5-0.7 M684.5,225.4l-0.8,0.4l-0.9,0.2l-1,0.1l-0.9-0.1l-0.9-0.3l-0.8-0.4l-0.8-0.5l-0.7-0.6 M683.7,224.4
	l0.6,0.5l0.4,0.5 M683.7,224.4l0.1,0.1l0.5,0.7l0.2,0.2 M684.7,225.4L684.7,225.4L684.7,225.4h-0.2 M813.2,225.4l0.2-0.3l0.7-0.6
	l0.1-0.1 M813.4,225.4h-0.1h-0.1 M820.9,223.3v0.1l-0.7,0.8 M813.4,225.4l0.8,0.4l0.9,0.2l1,0.1l0.9-0.1l0.9-0.3l0.8-0.4l0.8-0.5
	l0.7-0.6 M813.4,225.4l0.2-0.2l0.6-0.8 M839.2,191.3l-0.1,0.2l-0.3,0.8 M836.9,184.7l0.7,0.6l0.6,0.7l0.6,0.8l0.3,0.8l0.3,0.9l0.1,1
	l-0.1,0.9l-0.2,0.9 M836.4,186l0.2-0.8l0.1-0.6 M836.4,186v-0.1l0.3-0.9l0.2-0.3 M836.7,184.6v0.1h0.1h0.1 M766.9,67.7L766.9,67.7
	l1,0.2 M767.9,67.9l0.9,0.3l0.9,0.4l0.7,0.5l0.7,0.7l0.5,0.7l0.5,0.9l0.2,0.8l0.2,1 M772.5,73.3h-0.3l-1-0.3h-0.1 M772.5,73.2
	L772.5,73.2v0.1 M772.5,73.2l-0.4-0.1l-1-0.1 M659.1,192.3L659.1,192.3l-0.4-1 M658.7,191.3l-0.2-0.9l-0.1-0.9l0.1-1l0.3-0.9
	l0.3-0.8l0.6-0.8l0.6-0.7l0.7-0.6 M661.2,184.6l0.1,0.3l0.2,1v0.1 M661,184.7h0.1h0.1v-0.1 M661,184.7l0.2,0.3l0.3,1 M726.8,73
	l-0.8,0.2l-0.6,0.1 M725.4,73.3L725.4,73.3v-0.1 M730,67.9h0.2l0.8-0.2 M730,67.9l-0.9,0.3l-0.9,0.4l-0.7,0.5l-0.7,0.7l-0.5,0.7
	l-0.5,0.9l-0.2,0.8l-0.2,1 M726.8,73L726.8,73l-1,0.1l-0.4,0.1 M750.7,73.1L750.7,73.1h-0.2h-0.3h-0.5h-0.6h-0.6H748h-0.4h-0.3h-0.1
	 M824.3,206.6L824.3,206.6l0.1-0.1l0.2-0.3l0.2-0.4l0.3-0.5l0.3-0.5l0.3-0.5l0.2-0.3l0.1-0.3l0.1-0.1 M671.8,203.6L671.8,203.6
	l0.1,0.2l0.2,0.3l0.2,0.4l0.3,0.5l0.3,0.5l0.3,0.5l0.2,0.3l0.1,0.3h0.1 M670.6,207.2l-0.1-0.2l-0.1-0.1l-0.1-0.2v-0.1l-0.1-0.2
	l-0.1-0.1l-0.1-0.2l-0.1-0.1 M666.9,209.3l-0.1-0.2V209l-0.1-0.2l-0.1-0.1l-0.1-0.2l-0.1-0.1l-0.1-0.2l-0.1-0.2 M828,206L828,206
	l-0.2,0.3l-0.1,0.1l-0.1,0.2v0.1l-0.1,0.2l-0.1,0.1l-0.1,0.2 M831.7,208l-0.1,0.2l-0.1,0.2l-0.1,0.1l-0.1,0.2l-0.1,0.1l-0.1,0.2v0.1
	l-0.1,0.2 M748.3,70.2h0.1h0.2h0.2h0.2h0.1h0.2h0.2h0.1 M748.2,66h0.2h0.2h0.2h0.2h0.1h0.2h0.2h0.2 M670.6,207.2l2,3.2l2,3l2.1,2.8
	l1.9,2.5l1.9,2.2l1.6,1.8l1.6,1.7 M677,223.3l0.7,0.7l0.7,0.5l0.8,0.3l0.9,0.3h0.9l1-0.1l0.9-0.2l0.8-0.4 M666.9,209.3L666.9,209.3
	l0.3-0.1l0.3-0.2l0.5-0.3l0.5-0.3l0.6-0.4l0.7-0.4l0.8-0.4 M677,223.3l-0.8-0.9l-1.1-1.4l-2.9-3.6l-1.6-2.3l-1.7-2.6l-2-3.2
	 M748.3,70.2l-3.8,0.2l-3.7,0.2l-3.4,0.4l-3.2,0.4l-2.8,0.6l-2.3,0.4l-2.3,0.6 M731,67.7l-0.8,0.2l-0.8,0.4l-0.8,0.6l-0.6,0.6
	l-0.5,0.8l-0.4,0.8l-0.2,1l-0.1,0.9 M748.2,66v0.1v0.2v0.4v0.5v0.6v0.7l0.1,0.9v0.8 M731,67.7l1.3-0.2l1.7-0.3l4.6-0.6l2.8-0.3
	l3-0.2l3.8-0.1 M828,206l1.8-3.4l1.6-3.3l1.4-3.1l1.2-3l0.9-2.7l0.8-2.3l0.7-2.2 M828,206l0.8,0.4l0.7,0.4l0.6,0.4l0.6,0.3l0.4,0.2
	l0.3,0.2l0.2,0.1h0.1 M838.8,192.3l-0.4,1.2l-0.6,1.6l-1.8,4.3l-1.2,2.6l-1.3,2.7l-1.8,3.3 M836.4,186l0.7,0.5l0.7,0.7l0.5,0.7
	l0.4,0.9l0.3,0.8l0.1,0.9l-0.1,0.9l-0.2,0.9 M666.2,208L666.2,208l0.3-0.1l0.3-0.2l0.4-0.2l0.6-0.3l0.6-0.4l0.7-0.4l0.8-0.4
	 M661.5,186l0.5,1.4l0.6,1.9l0.8,2.5l1.1,2.8l1.3,3.2l1.6,3.4l2.5,4.8 M659.1,192.3l-0.2-0.9l-0.1-0.9l0.1-0.9l0.3-0.8l0.4-0.9
	l0.5-0.7l0.7-0.7l0.7-0.5 M666.2,208l-1.8-3.3l-1.3-2.7l-1.2-2.6l-1.8-4.3l-0.9-2.4l-0.1-0.4 M771.1,73l-1.4-0.4l-2-0.4l-2.5-0.5
	l-3-0.5l-3.4-0.4l-3.7-0.3l-5.5-0.3 M749.7,66v0.1v0.2v0.4v0.5v0.6v0.7v0.9l-0.1,0.8 M766.9,67.7l0.8,0.2l0.8,0.4l0.8,0.6l0.6,0.6
	l0.5,0.8l0.4,0.8l0.2,1l0.1,0.9 M749.7,66l3.8,0.1l3,0.2l2.8,0.3l4.6,0.6l2.6,0.4l0.4,0.1 M814.2,224.4l1-1.1l1.3-1.5l1.8-1.9
	l1.9-2.4l2.1-2.7l2.1-3.1l2.9-4.5 M814.2,224.4l0.8,0.4l0.9,0.2l1,0.1h0.9l0.9-0.3l0.8-0.3l0.7-0.5l0.7-0.7 M831,209.3l-2,3.2
	l-1.7,2.5l-1.6,2.4l-2.9,3.6l-1.6,2l-0.3,0.3 M827.3,207.2l0.8,0.4l0.7,0.4l0.6,0.4l0.5,0.3l0.5,0.3l0.3,0.2l0.2,0.1h0.1
	 M754.6,211.8v-1.7 M743.3,210.1v1.7 M836.8,184.7L836.8,184.7 M684.6,225.4L684.6,225.4 M725.4,73.2v0.1 M750.7,73.1l0.6-0.1
	l0.6-0.1l0.6-0.2l0.6-0.3l0.4-0.4l0.5-0.5l0.3-0.5l0.3-0.6 M747.2,73.1l-0.6-0.1l-0.6-0.1l-0.6-0.2l-0.5-0.3l-0.5-0.4l-0.5-0.5
	l-0.3-0.5l-0.3-0.5 M824.3,206.6l-0.2,0.6l-0.2,0.6l-0.1,0.6v0.6l0.1,0.7l0.1,0.6l0.3,0.5l0.3,0.5 M826.1,203.6l0.3-0.5l0.4-0.4
	l0.5-0.4l0.6-0.4l0.6-0.2l0.6-0.1l0.6-0.1l0.6,0.1 M671.8,203.6l-0.3-0.5l-0.4-0.4l-0.5-0.4L670,202l-0.5-0.3l-0.6-0.1l-0.7-0.1
	l-0.6,0.1 M673.6,206.6l0.2,0.6l0.2,0.6l0.1,0.6v0.7l-0.1,0.6l-0.1,0.6l-0.3,0.6l-0.4,0.5"/>
<g>
	<path d="M179.6,310.8l-0.8,2.5h-1.1l2.7-8.1h1.3l2.8,8.1h-1.1l-0.9-2.5H179.6z M182.2,310l-0.8-2.3c-0.2-0.5-0.3-1-0.4-1.5h0
		c-0.1,0.5-0.3,1-0.4,1.5l-0.8,2.3H182.2z"/>
	<path d="M185.3,312.7c0-0.4,0.3-0.8,0.7-0.8s0.7,0.3,0.7,0.8c0,0.4-0.3,0.8-0.7,0.8C185.6,313.5,185.3,313.1,185.3,312.7z"/>
</g>
<g>
	<path d="M480.2,305.4c0.5-0.1,1.2-0.2,1.9-0.2c1,0,1.7,0.2,2.2,0.6c0.4,0.3,0.7,0.8,0.7,1.4c0,0.8-0.5,1.5-1.4,1.8v0
		c0.8,0.2,1.7,0.8,1.7,2c0,0.7-0.3,1.2-0.7,1.6c-0.6,0.5-1.5,0.8-2.8,0.8c-0.7,0-1.3,0-1.6-0.1V305.4z M481.3,308.7h0.9
		c1.1,0,1.8-0.6,1.8-1.4c0-0.9-0.7-1.3-1.8-1.3c-0.5,0-0.8,0-0.9,0.1V308.7z M481.3,312.5c0.2,0,0.5,0,0.9,0c1.1,0,2.1-0.4,2.1-1.6
		c0-1.1-0.9-1.6-2.1-1.6h-0.9V312.5z"/>
	<path d="M486.3,312.7c0-0.4,0.3-0.8,0.7-0.8s0.7,0.3,0.7,0.8c0,0.4-0.3,0.8-0.7,0.8C486.6,313.5,486.3,313.1,486.3,312.7z"/>
</g>
<g>
	<path d="M751.6,313.1c-0.4,0.2-1.2,0.4-2.1,0.4c-2.3,0-4-1.4-4-4.1c0-2.5,1.7-4.2,4.2-4.2c1,0,1.6,0.2,1.9,0.4l-0.3,0.9
		c-0.4-0.2-1-0.3-1.6-0.3c-1.9,0-3.2,1.2-3.2,3.3c0,2,1.1,3.3,3.1,3.3c0.6,0,1.3-0.1,1.7-0.3L751.6,313.1z"/>
	<path d="M752.6,312.7c0-0.4,0.3-0.8,0.7-0.8s0.7,0.3,0.7,0.8c0,0.4-0.3,0.8-0.7,0.8C752.9,313.5,752.6,313.1,752.6,312.7z"/>
</g>
<g>
	<path d="M17.2,75.7c-0.4,0.2-1.2,0.4-2.1,0.4c-2.3,0-4-1.4-4-4.1c0-2.5,1.7-4.2,4.2-4.2c1,0,1.6,0.2,1.9,0.4L17,69
		c-0.4-0.2-1-0.3-1.6-0.3c-1.9,0-3.2,1.2-3.2,3.3c0,2,1.1,3.3,3.1,3.3c0.6,0,1.3-0.1,1.7-0.3L17.2,75.7z"/>
	<path d="M23.6,73c0,2.1-1.5,3.1-2.9,3.1c-1.6,0-2.8-1.2-2.8-3c0-1.9,1.3-3.1,2.9-3.1C22.5,70.1,23.6,71.3,23.6,73z M19,73.1
		c0,1.3,0.7,2.2,1.8,2.2c1,0,1.8-0.9,1.8-2.3c0-1-0.5-2.2-1.7-2.2C19.6,70.9,19,72,19,73.1z"/>
	<path d="M25,71.8c0-0.6,0-1.1,0-1.6h0.9l0.1,1h0c0.3-0.6,1-1.1,1.9-1.1c0.8,0,2.1,0.5,2.1,2.5V76h-1.1v-3.3c0-0.9-0.3-1.7-1.3-1.7
		c-0.7,0-1.2,0.5-1.4,1.1c0,0.1-0.1,0.3-0.1,0.5V76H25V71.8z"/>
	<path d="M31.6,71.8c0-0.6,0-1.1,0-1.6h0.9l0.1,1h0c0.3-0.6,1-1.1,1.9-1.1c0.8,0,2.1,0.5,2.1,2.5V76h-1.1v-3.3
		c0-0.9-0.3-1.7-1.3-1.7c-0.7,0-1.2,0.5-1.4,1.1c0,0.1-0.1,0.3-0.1,0.5V76h-1.1V71.8z"/>
	<path d="M38.9,73.3c0,1.4,0.9,2,2,2c0.8,0,1.2-0.1,1.6-0.3l0.2,0.8c-0.4,0.2-1,0.4-1.9,0.4c-1.8,0-2.9-1.2-2.9-2.9s1-3.1,2.7-3.1
		c1.9,0,2.4,1.7,2.4,2.7c0,0.2,0,0.4,0,0.5H38.9z M42,72.5c0-0.7-0.3-1.7-1.5-1.7c-1.1,0-1.5,1-1.6,1.7H42z"/>
	<path d="M48.4,75.8c-0.3,0.1-0.9,0.3-1.7,0.3c-1.8,0-2.9-1.2-2.9-3c0-1.8,1.2-3.1,3.1-3.1c0.6,0,1.2,0.2,1.5,0.3l-0.2,0.8
		C48,71,47.6,70.9,47,70.9c-1.3,0-2.1,1-2.1,2.2c0,1.3,0.9,2.2,2,2.2c0.6,0,1-0.2,1.3-0.3L48.4,75.8z"/>
	<path d="M51.1,68.5v1.7h1.5V71h-1.5v3.1c0,0.7,0.2,1.1,0.8,1.1c0.3,0,0.5,0,0.6-0.1l0,0.8c-0.2,0.1-0.5,0.1-0.9,0.1
		c-0.5,0-0.9-0.2-1.1-0.4c-0.3-0.3-0.4-0.8-0.4-1.5V71h-0.9v-0.8h0.9v-1.4L51.1,68.5z"/>
	<path d="M56.4,68c0.5-0.1,1.2-0.2,1.9-0.2c1,0,1.7,0.2,2.2,0.6c0.4,0.3,0.7,0.8,0.7,1.4c0,0.8-0.5,1.5-1.4,1.8v0
		c0.8,0.2,1.7,0.8,1.7,2c0,0.7-0.3,1.2-0.7,1.6c-0.6,0.5-1.5,0.8-2.8,0.8c-0.7,0-1.3,0-1.6-0.1V68z M57.4,71.3h0.9
		c1.1,0,1.8-0.6,1.8-1.4c0-0.9-0.7-1.3-1.8-1.3c-0.5,0-0.8,0-0.9,0.1V71.3z M57.4,75.2c0.2,0,0.5,0,0.9,0c1.1,0,2.1-0.4,2.1-1.6
		c0-1.1-0.9-1.6-2.1-1.6h-0.9V75.2z"/>
	<path d="M67.7,74.4c0,0.6,0,1.1,0,1.6h-0.9l-0.1-0.9h0c-0.3,0.5-0.9,1.1-1.9,1.1c-0.9,0-2-0.5-2-2.5v-3.4h1.1v3.2
		c0,1.1,0.3,1.8,1.3,1.8c0.7,0,1.2-0.5,1.4-1c0.1-0.2,0.1-0.3,0.1-0.5v-3.6h1.1V74.4z"/>
	<path d="M70.7,68.5v1.7h1.5V71h-1.5v3.1c0,0.7,0.2,1.1,0.8,1.1c0.3,0,0.5,0,0.6-0.1l0,0.8c-0.2,0.1-0.5,0.1-0.9,0.1
		c-0.5,0-0.9-0.2-1.1-0.4c-0.3-0.3-0.4-0.8-0.4-1.5V71h-0.9v-0.8h0.9v-1.4L70.7,68.5z"/>
	<path d="M74.7,68.5v1.7h1.5V71h-1.5v3.1c0,0.7,0.2,1.1,0.8,1.1c0.3,0,0.5,0,0.6-0.1l0,0.8c-0.2,0.1-0.5,0.1-0.9,0.1
		c-0.5,0-0.9-0.2-1.1-0.4c-0.3-0.3-0.4-0.8-0.4-1.5V71h-0.9v-0.8h0.9v-1.4L74.7,68.5z"/>
	<path d="M82.6,73c0,2.1-1.5,3.1-2.9,3.1c-1.6,0-2.8-1.2-2.8-3c0-1.9,1.3-3.1,2.9-3.1C81.5,70.1,82.6,71.3,82.6,73z M78,73.1
		c0,1.3,0.7,2.2,1.8,2.2c1,0,1.8-0.9,1.8-2.3c0-1-0.5-2.2-1.7-2.2C78.5,70.9,78,72,78,73.1z"/>
	<path d="M83.9,71.8c0-0.6,0-1.1,0-1.6h0.9l0.1,1h0c0.3-0.6,1-1.1,1.9-1.1c0.8,0,2.1,0.5,2.1,2.5V76h-1.1v-3.3
		c0-0.9-0.3-1.7-1.3-1.7c-0.7,0-1.2,0.5-1.4,1.1c0,0.1-0.1,0.3-0.1,0.5V76h-1.1V71.8z"/>
</g>
<g>
	<path d="M186,23.3v8.1h-1v-8.1H186z"/>
	<path d="M187.9,27.1c0-0.6,0-1.1,0-1.6h0.9l0.1,1h0c0.3-0.6,1-1.1,1.9-1.1c0.8,0,2.1,0.5,2.1,2.5v3.5h-1.1V28
		c0-0.9-0.3-1.7-1.3-1.7c-0.7,0-1.2,0.5-1.4,1.1c0,0.1-0.1,0.3-0.1,0.5v3.5h-1.1V27.1z"/>
	<path d="M199.5,22.8v7c0,0.5,0,1.1,0,1.5h-0.9l0-1h0c-0.3,0.6-1,1.1-2,1.1c-1.4,0-2.5-1.2-2.5-3c0-1.9,1.2-3.1,2.6-3.1
		c0.9,0,1.5,0.4,1.8,0.9h0v-3.5H199.5z M198.5,27.9c0-0.1,0-0.3,0-0.4c-0.2-0.7-0.7-1.2-1.5-1.2c-1.1,0-1.7,1-1.7,2.2
		c0,1.2,0.6,2.1,1.7,2.1c0.7,0,1.4-0.5,1.5-1.3c0-0.1,0-0.3,0-0.5V27.9z"/>
	<path d="M202.5,23.9c0,0.4-0.3,0.6-0.7,0.6c-0.4,0-0.6-0.3-0.6-0.6c0-0.4,0.3-0.7,0.7-0.7C202.2,23.2,202.5,23.5,202.5,23.9z
		 M201.3,31.3v-5.8h1.1v5.8H201.3z"/>
	<path d="M208.2,31.1c-0.3,0.1-0.9,0.3-1.7,0.3c-1.8,0-2.9-1.2-2.9-3c0-1.8,1.2-3.1,3.1-3.1c0.6,0,1.2,0.2,1.5,0.3l-0.2,0.8
		c-0.3-0.1-0.6-0.3-1.2-0.3c-1.3,0-2.1,1-2.1,2.2c0,1.3,0.9,2.2,2,2.2c0.6,0,1-0.2,1.3-0.3L208.2,31.1z"/>
	<path d="M212.7,31.3l-0.1-0.7h0c-0.3,0.5-0.9,0.9-1.8,0.9c-1.2,0-1.8-0.8-1.8-1.7c0-1.4,1.2-2.2,3.5-2.2v-0.1
		c0-0.5-0.1-1.3-1.3-1.3c-0.5,0-1.1,0.2-1.5,0.4l-0.2-0.7c0.5-0.3,1.2-0.5,1.9-0.5c1.8,0,2.2,1.2,2.2,2.4v2.2c0,0.5,0,1,0.1,1.4
		H212.7z M212.5,28.4c-1.2,0-2.5,0.2-2.5,1.3c0,0.7,0.5,1,1,1c0.8,0,1.2-0.5,1.4-1c0-0.1,0.1-0.2,0.1-0.3V28.4z"/>
	<path d="M216.5,23.9v1.7h1.5v0.8h-1.5v3.1c0,0.7,0.2,1.1,0.8,1.1c0.3,0,0.5,0,0.6-0.1l0,0.8c-0.2,0.1-0.5,0.1-0.9,0.1
		c-0.5,0-0.9-0.2-1.1-0.4c-0.3-0.3-0.4-0.8-0.4-1.5v-3.2h-0.9v-0.8h0.9v-1.4L216.5,23.9z"/>
	<path d="M224.4,28.4c0,2.1-1.5,3.1-2.9,3.1c-1.6,0-2.8-1.2-2.8-3c0-1.9,1.3-3.1,2.9-3.1C223.2,25.4,224.4,26.6,224.4,28.4z
		 M219.8,28.4c0,1.3,0.7,2.2,1.8,2.2c1,0,1.8-0.9,1.8-2.3c0-1-0.5-2.2-1.7-2.2C220.3,26.2,219.8,27.3,219.8,28.4z"/>
	<path d="M225.7,27.3c0-0.7,0-1.3,0-1.8h0.9l0,1.1h0c0.3-0.8,0.9-1.3,1.6-1.3c0.1,0,0.2,0,0.3,0v1c-0.1,0-0.2,0-0.4,0
		c-0.7,0-1.3,0.6-1.4,1.4c0,0.1,0,0.3,0,0.5v3.1h-1V27.3z"/>
	<path d="M232.2,23.3h1v7.2h3.5v0.9h-4.5V23.3z"/>
	<path d="M242.1,27.5h-3.1v2.9h3.5v0.9h-4.5v-8.1h4.4v0.9h-3.3v2.6h3.1V27.5z"/>
	<path d="M243.8,23.4c0.6-0.1,1.4-0.2,2.2-0.2c1.5,0,2.6,0.3,3.3,1c0.7,0.7,1.1,1.6,1.1,2.9c0,1.3-0.4,2.4-1.2,3.1
		c-0.8,0.8-2,1.2-3.6,1.2c-0.7,0-1.4,0-1.9-0.1V23.4z M244.8,30.5c0.3,0,0.6,0.1,1.1,0.1c2.2,0,3.4-1.2,3.4-3.4
		c0-1.9-1.1-3.1-3.3-3.1c-0.5,0-0.9,0-1.2,0.1V30.5z"/>
</g>
<g>
	<path d="M34.8,240.7c0.5,0.3,1.2,0.5,1.9,0.5c1.1,0,1.7-0.6,1.7-1.4c0-0.8-0.4-1.2-1.5-1.6c-1.3-0.5-2.1-1.2-2.1-2.3
		c0-1.3,1-2.2,2.6-2.2c0.8,0,1.4,0.2,1.8,0.4l-0.3,0.9c-0.3-0.1-0.8-0.4-1.5-0.4c-1.1,0-1.5,0.7-1.5,1.2c0,0.8,0.5,1.1,1.6,1.6
		c1.4,0.5,2.1,1.2,2.1,2.4c0,1.2-0.9,2.3-2.8,2.3c-0.8,0-1.6-0.2-2.1-0.5L34.8,240.7z"/>
	<path d="M40.8,238.1c0-0.7,0-1.3,0-1.9h0.9l0,1h0c0.4-0.7,1.1-1.1,2.1-1.1c1.4,0,2.5,1.2,2.5,3c0,2.1-1.3,3.1-2.6,3.1
		c-0.8,0-1.4-0.3-1.8-0.9h0v3.2h-1V238.1z M41.8,239.6c0,0.2,0,0.3,0,0.4c0.2,0.7,0.8,1.2,1.6,1.2c1.1,0,1.8-0.9,1.8-2.2
		c0-1.2-0.6-2.2-1.7-2.2c-0.7,0-1.4,0.5-1.6,1.3c0,0.1-0.1,0.3-0.1,0.4V239.6z"/>
	<path d="M48.2,239.3c0,1.4,0.9,2,2,2c0.8,0,1.2-0.1,1.6-0.3l0.2,0.8c-0.4,0.2-1,0.4-1.9,0.4c-1.8,0-2.9-1.2-2.9-2.9s1-3.1,2.7-3.1
		c1.9,0,2.4,1.7,2.4,2.7c0,0.2,0,0.4,0,0.5H48.2z M51.3,238.5c0-0.7-0.3-1.7-1.5-1.7c-1.1,0-1.5,1-1.6,1.7H51.3z"/>
	<path d="M56.8,242l-0.1-0.7h0c-0.3,0.5-0.9,0.9-1.8,0.9c-1.2,0-1.8-0.8-1.8-1.7c0-1.4,1.2-2.2,3.5-2.2v-0.1c0-0.5-0.1-1.3-1.3-1.3
		c-0.5,0-1.1,0.2-1.5,0.4l-0.2-0.7c0.5-0.3,1.2-0.5,1.9-0.5c1.8,0,2.2,1.2,2.2,2.4v2.2c0,0.5,0,1,0.1,1.4H56.8z M56.7,239
		c-1.2,0-2.5,0.2-2.5,1.3c0,0.7,0.5,1,1,1c0.8,0,1.2-0.5,1.4-1c0-0.1,0.1-0.2,0.1-0.3V239z"/>
	<path d="M60.5,238.9L60.5,238.9c0.2-0.2,0.4-0.5,0.5-0.7l1.7-2H64l-2.2,2.4l2.6,3.4H63l-2-2.8l-0.5,0.6v2.2h-1v-8.5h1V238.9z"/>
	<path d="M65.6,239.3c0,1.4,0.9,2,2,2c0.8,0,1.2-0.1,1.6-0.3l0.2,0.8c-0.4,0.2-1,0.4-1.9,0.4c-1.8,0-2.9-1.2-2.9-2.9s1-3.1,2.7-3.1
		c1.9,0,2.4,1.7,2.4,2.7c0,0.2,0,0.4,0,0.5H65.6z M68.7,238.5c0-0.7-0.3-1.7-1.5-1.7c-1.1,0-1.5,1-1.6,1.7H68.7z"/>
	<path d="M71.1,238c0-0.7,0-1.3,0-1.8h0.9l0,1.1h0c0.3-0.8,0.9-1.3,1.6-1.3c0.1,0,0.2,0,0.3,0v1c-0.1,0-0.2,0-0.4,0
		c-0.7,0-1.3,0.6-1.4,1.4c0,0.1,0,0.3,0,0.5v3.1h-1V238z"/>
</g>
<g>
	<path d="M639.1,85.8c-0.1-1.1-0.1-2.5-0.1-3.5h0c-0.3,0.9-0.6,2-1,3.1l-1.4,3.9h-0.8l-1.3-3.9c-0.4-1.1-0.7-2.2-0.9-3.1h0
		c0,1-0.1,2.4-0.2,3.6l-0.2,3.5h-1l0.6-8.1h1.3l1.4,3.9c0.3,1,0.6,1.9,0.8,2.7h0c0.2-0.8,0.5-1.7,0.9-2.7l1.4-3.9h1.3l0.5,8.1h-1
		L639.1,85.8z"/>
	<path d="M642.5,86.6c0,1.4,0.9,2,2,2c0.8,0,1.2-0.1,1.6-0.3l0.2,0.8c-0.4,0.2-1,0.4-1.9,0.4c-1.8,0-2.9-1.2-2.9-2.9s1-3.1,2.7-3.1
		c1.9,0,2.4,1.7,2.4,2.7c0,0.2,0,0.4,0,0.5H642.5z M645.6,85.9c0-0.7-0.3-1.7-1.5-1.7c-1.1,0-1.5,1-1.6,1.7H645.6z"/>
	<path d="M649.2,81.9v1.7h1.5v0.8h-1.5v3.1c0,0.7,0.2,1.1,0.8,1.1c0.3,0,0.5,0,0.6-0.1l0,0.8c-0.2,0.1-0.5,0.1-0.9,0.1
		c-0.5,0-0.9-0.2-1.1-0.4c-0.3-0.3-0.4-0.8-0.4-1.5v-3.2h-0.9v-0.8h0.9v-1.4L649.2,81.9z"/>
	<path d="M655.1,89.3l-0.1-0.7h0c-0.3,0.5-0.9,0.9-1.8,0.9c-1.2,0-1.8-0.8-1.8-1.7c0-1.4,1.2-2.2,3.5-2.2v-0.1
		c0-0.5-0.1-1.3-1.3-1.3c-0.5,0-1.1,0.2-1.5,0.4l-0.2-0.7c0.5-0.3,1.2-0.5,1.9-0.5c1.8,0,2.2,1.2,2.2,2.4v2.2c0,0.5,0,1,0.1,1.4
		H655.1z M655,86.4c-1.2,0-2.5,0.2-2.5,1.3c0,0.7,0.5,1,1,1c0.8,0,1.2-0.5,1.4-1c0-0.1,0.1-0.2,0.1-0.3V86.4z"/>
	<path d="M657.7,80.8h1.1v8.5h-1.1V80.8z"/>
	<path d="M663.1,81.3h4.4v0.9h-3.3v2.7h3.1v0.9h-3.1v3.7h-1V81.3z"/>
	<path d="M669.1,86.6c0,1.4,0.9,2,2,2c0.8,0,1.2-0.1,1.6-0.3l0.2,0.8c-0.4,0.2-1,0.4-1.9,0.4c-1.8,0-2.9-1.2-2.9-2.9s1-3.1,2.7-3.1
		c1.9,0,2.4,1.7,2.4,2.7c0,0.2,0,0.4,0,0.5H669.1z M672.2,85.9c0-0.7-0.3-1.7-1.5-1.7c-1.1,0-1.5,1-1.6,1.7H672.2z"/>
	<path d="M675.1,86.6c0,1.4,0.9,2,2,2c0.8,0,1.2-0.1,1.6-0.3l0.2,0.8c-0.4,0.2-1,0.4-1.9,0.4c-1.8,0-2.9-1.2-2.9-2.9s1-3.1,2.7-3.1
		c1.9,0,2.4,1.7,2.4,2.7c0,0.2,0,0.4,0,0.5H675.1z M678.2,85.9c0-0.7-0.3-1.7-1.5-1.7c-1.1,0-1.5,1-1.6,1.7H678.2z"/>
	<path d="M681.8,81.9v1.7h1.5v0.8h-1.5v3.1c0,0.7,0.2,1.1,0.8,1.1c0.3,0,0.5,0,0.6-0.1l0,0.8c-0.2,0.1-0.5,0.1-0.9,0.1
		c-0.5,0-0.9-0.2-1.1-0.4c-0.3-0.3-0.4-0.8-0.4-1.5v-3.2h-0.9v-0.8h0.9v-1.4L681.8,81.9z"/>
</g>
<g>
	<path d="M361.7,20.5c-0.1-1.1-0.1-2.5-0.1-3.5h0c-0.3,0.9-0.6,2-1,3.1l-1.4,3.9h-0.8l-1.3-3.9c-0.4-1.1-0.7-2.2-0.9-3.1h0
		c0,1-0.1,2.4-0.2,3.6l-0.2,3.5h-1l0.6-8.1h1.3l1.4,3.9c0.3,1,0.6,1.9,0.8,2.7h0c0.2-0.8,0.5-1.7,0.9-2.7l1.4-3.9h1.3l0.5,8.1h-1
		L361.7,20.5z"/>
	<path d="M365.2,21.3c0,1.4,0.9,2,2,2c0.8,0,1.2-0.1,1.6-0.3l0.2,0.8c-0.4,0.2-1,0.4-1.9,0.4c-1.8,0-2.9-1.2-2.9-2.9s1-3.1,2.7-3.1
		c1.9,0,2.4,1.7,2.4,2.7c0,0.2,0,0.4,0,0.5H365.2z M368.3,20.5c0-0.7-0.3-1.7-1.5-1.7c-1.1,0-1.5,1-1.6,1.7H368.3z"/>
	<path d="M371.9,16.5v1.7h1.5V19h-1.5v3.1c0,0.7,0.2,1.1,0.8,1.1c0.3,0,0.5,0,0.6-0.1l0,0.8c-0.2,0.1-0.5,0.1-0.9,0.1
		c-0.5,0-0.9-0.2-1.1-0.4c-0.3-0.3-0.4-0.8-0.4-1.5V19h-0.9v-0.8h0.9v-1.4L371.9,16.5z"/>
	<path d="M377.8,24l-0.1-0.7h0c-0.3,0.5-0.9,0.9-1.8,0.9c-1.2,0-1.8-0.8-1.8-1.7c0-1.4,1.2-2.2,3.5-2.2v-0.1c0-0.5-0.1-1.3-1.3-1.3
		c-0.5,0-1.1,0.2-1.5,0.4l-0.2-0.7c0.5-0.3,1.2-0.5,1.9-0.5c1.8,0,2.2,1.2,2.2,2.4v2.2c0,0.5,0,1,0.1,1.4H377.8z M377.6,21
		c-1.2,0-2.5,0.2-2.5,1.3c0,0.7,0.5,1,1,1c0.8,0,1.2-0.5,1.4-1c0-0.1,0.1-0.2,0.1-0.3V21z"/>
	<path d="M380.4,15.5h1.1V24h-1.1V15.5z"/>
	<path d="M385.8,15.9h4.4v0.9h-3.3v2.7h3.1v0.9h-3.1V24h-1V15.9z"/>
	<path d="M391.8,21.3c0,1.4,0.9,2,2,2c0.8,0,1.2-0.1,1.6-0.3l0.2,0.8c-0.4,0.2-1,0.4-1.9,0.4c-1.8,0-2.9-1.2-2.9-2.9s1-3.1,2.7-3.1
		c1.9,0,2.4,1.7,2.4,2.7c0,0.2,0,0.4,0,0.5H391.8z M394.9,20.5c0-0.7-0.3-1.7-1.5-1.7c-1.1,0-1.5,1-1.6,1.7H394.9z"/>
	<path d="M397.8,21.3c0,1.4,0.9,2,2,2c0.8,0,1.2-0.1,1.6-0.3l0.2,0.8c-0.4,0.2-1,0.4-1.9,0.4c-1.8,0-2.9-1.2-2.9-2.9s1-3.1,2.7-3.1
		c1.9,0,2.4,1.7,2.4,2.7c0,0.2,0,0.4,0,0.5H397.8z M400.9,20.5c0-0.7-0.3-1.7-1.5-1.7c-1.1,0-1.5,1-1.6,1.7H400.9z"/>
	<path d="M404.5,16.5v1.7h1.5V19h-1.5v3.1c0,0.7,0.2,1.1,0.8,1.1c0.3,0,0.5,0,0.6-0.1l0,0.8c-0.2,0.1-0.5,0.1-0.9,0.1
		c-0.5,0-0.9-0.2-1.1-0.4c-0.3-0.3-0.4-0.8-0.4-1.5V19h-0.9v-0.8h0.9v-1.4L404.5,16.5z"/>
</g>
<g>
	<path d="M827.4,97.4c0.5,0.3,1.2,0.5,1.9,0.5c1.1,0,1.7-0.6,1.7-1.4c0-0.8-0.4-1.2-1.5-1.6c-1.3-0.5-2.1-1.2-2.1-2.3
		c0-1.3,1-2.2,2.6-2.2c0.8,0,1.4,0.2,1.8,0.4l-0.3,0.9c-0.3-0.1-0.8-0.4-1.5-0.4c-1.1,0-1.5,0.7-1.5,1.2c0,0.8,0.5,1.1,1.6,1.6
		c1.4,0.5,2.1,1.2,2.1,2.4c0,1.2-0.9,2.3-2.8,2.3c-0.8,0-1.6-0.2-2.1-0.5L827.4,97.4z"/>
	<path d="M837.7,98.5c-0.3,0.1-0.9,0.3-1.7,0.3c-1.8,0-2.9-1.2-2.9-3c0-1.8,1.2-3.1,3.1-3.1c0.6,0,1.2,0.2,1.5,0.3l-0.2,0.8
		c-0.3-0.1-0.6-0.3-1.2-0.3c-1.3,0-2.1,1-2.1,2.2c0,1.3,0.9,2.2,2,2.2c0.6,0,1-0.2,1.3-0.3L837.7,98.5z"/>
	<path d="M838.9,94.7c0-0.7,0-1.3,0-1.8h0.9l0,1.1h0c0.3-0.8,0.9-1.3,1.6-1.3c0.1,0,0.2,0,0.3,0v1c-0.1,0-0.2,0-0.4,0
		c-0.7,0-1.3,0.6-1.4,1.4c0,0.1,0,0.3,0,0.5v3.1h-1V94.7z"/>
	<path d="M843.3,96c0,1.4,0.9,2,2,2c0.8,0,1.2-0.1,1.6-0.3l0.2,0.8c-0.4,0.2-1,0.4-1.9,0.4c-1.8,0-2.9-1.2-2.9-2.9s1-3.1,2.7-3.1
		c1.9,0,2.4,1.7,2.4,2.7c0,0.2,0,0.4,0,0.5H843.3z M846.4,95.2c0-0.7-0.3-1.7-1.5-1.7c-1.1,0-1.5,1-1.6,1.7H846.4z"/>
	<path d="M849.1,92.9l0.8,3c0.2,0.6,0.3,1.2,0.4,1.8h0c0.1-0.6,0.3-1.2,0.5-1.8l0.9-3h0.9l0.9,2.9c0.2,0.7,0.4,1.3,0.5,1.9h0
		c0.1-0.6,0.3-1.2,0.4-1.9l0.8-2.9h1l-1.9,5.8h-1l-0.9-2.8c-0.2-0.6-0.4-1.2-0.5-1.9h0c-0.1,0.7-0.3,1.3-0.5,1.9l-0.9,2.8h-1
		l-1.8-5.8H849.1z"/>
	<path d="M861.2,90.6V94h3.9v-3.4h1.1v8.1h-1.1v-3.8h-3.9v3.8h-1v-8.1H861.2z"/>
	<path d="M873.2,95.7c0,2.1-1.5,3.1-2.9,3.1c-1.6,0-2.8-1.2-2.8-3c0-1.9,1.3-3.1,2.9-3.1C872,92.7,873.2,93.9,873.2,95.7z
		 M868.6,95.8c0,1.3,0.7,2.2,1.8,2.2c1,0,1.8-0.9,1.8-2.3c0-1-0.5-2.2-1.7-2.2C869.1,93.5,868.6,94.7,868.6,95.8z"/>
	<path d="M874.5,90.2h1.1v8.5h-1.1V90.2z"/>
	<path d="M877.9,96c0,1.4,0.9,2,2,2c0.8,0,1.2-0.1,1.6-0.3l0.2,0.8c-0.4,0.2-1,0.4-1.9,0.4c-1.8,0-2.9-1.2-2.9-2.9s1-3.1,2.7-3.1
		c1.9,0,2.4,1.7,2.4,2.7c0,0.2,0,0.4,0,0.5H877.9z M881,95.2c0-0.7-0.3-1.7-1.5-1.7c-1.1,0-1.5,1-1.6,1.7H881z"/>
</g>
<line class="st1" x1="210" y1="37.7" x2="183.5" y2="103.9"/>
<line class="st1" x1="144.7" y1="123.7" x2="74.7" y2="82.3"/>
<line class="st1" x1="177.3" y1="211.7" x2="84.7" y2="237"/>
<line class="st1" x1="458" y1="114" x2="395.8" y2="28"/>
<line class="st1" x1="538.3" y1="161.5" x2="395.8" y2="28"/>
<line class="st1" x1="458" y1="208" x2="395.8" y2="28"/>
<line class="st1" x1="749.3" y1="106.7" x2="674.3" y2="94.8"/>
<line class="st1" x1="702.7" y1="188.3" x2="674.3" y2="94.8"/>
<line class="st1" x1="796.3" y1="188.3" x2="674.3" y2="94.8"/>
<line class="st1" x1="748.3" y1="161" x2="826.7" y2="103.7"/>
</svg>
