<?xml version="1.0" encoding="utf-8"?>
<!-- Generator: Adobe Illustrator 21.0.0, SVG Export Plug-In . SVG Version: 6.00 Build 0)  -->
<svg version="1.1" id="Layer_1" xmlns="http://www.w3.org/2000/svg" xmlns:xlink="http://www.w3.org/1999/xlink" x="0px" y="0px"
	 viewBox="0 0 824 352" style="enable-background:new 0 0 824 352;" xml:space="preserve">
<style type="text/css">
	.st0{fill:#808080;}
	.st1{fill:none;stroke:#000000;stroke-width:0.51;stroke-miterlimit:10;}
	.st2{fill:none;stroke:#808080;stroke-width:0.51;stroke-miterlimit:10;}
	
		.st3{fill:none;stroke:#000000;stroke-width:0.51;stroke-linecap:round;stroke-linejoin:round;stroke-miterlimit:10;stroke-dasharray:43.2,3.6,3.6,3.6;stroke-dashoffset:15;}
	
		.st4{fill:none;stroke:#000000;stroke-width:0.51;stroke-linecap:round;stroke-linejoin:round;stroke-miterlimit:10;stroke-dasharray:43.2,3.6,3.6,3.6;}
	.st5{fill:none;stroke:#000000;stroke-width:0.709;stroke-linecap:round;stroke-linejoin:round;stroke-miterlimit:10;}
</style>
<g>
	<path class="st0" d="M143.1,105.7h1.7v8.6h-0.9v-7.8h-1.4L143.1,105.7z"/>
	<path class="st0" d="M149.7,105.7h1.7v8.6h-0.9v-7.8h-1.4L149.7,105.7z"/>
	<path class="st0" d="M154.5,110c0-1.1,0.1-2,0.4-2.6s0.6-1.1,1-1.4s0.9-0.5,1.5-0.5c0.6,0,1.1,0.2,1.5,0.5c0.5,0.3,0.8,0.8,1.1,1.5
		s0.4,1.5,0.4,2.6c0,1.1-0.1,1.9-0.4,2.6s-0.6,1.1-1.1,1.5c-0.5,0.3-1,0.5-1.5,0.5c-0.6,0-1-0.2-1.5-0.5s-0.8-0.8-1-1.4
		S154.5,111.1,154.5,110z M155.4,110c0,1,0.1,1.7,0.3,2.2c0.2,0.5,0.4,0.9,0.8,1.1c0.3,0.3,0.7,0.4,1.1,0.4c0.4,0,0.7-0.1,1.1-0.4
		c0.3-0.3,0.6-0.6,0.8-1.1c0.2-0.6,0.3-1.4,0.3-2.2c0-0.9-0.1-1.6-0.3-2.1s-0.5-1-0.8-1.2c-0.3-0.3-0.7-0.4-1.1-0.4
		c-0.4,0-0.7,0.1-1.1,0.4c-0.3,0.3-0.6,0.6-0.8,1.1C155.4,108.3,155.4,109.1,155.4,110z"/>
	<path class="st0" d="M162.6,113c0.2,0,0.4,0.1,0.5,0.2s0.2,0.3,0.2,0.5c0,0.2-0.1,0.4-0.2,0.5s-0.3,0.2-0.5,0.2s-0.4-0.1-0.5-0.2
		s-0.2-0.3-0.2-0.5c0-0.2,0.1-0.4,0.2-0.5S162.4,113,162.6,113z"/>
	<path class="st0" d="M164.5,110c0-1.1,0.1-2,0.4-2.6s0.6-1.1,1-1.4s0.9-0.5,1.5-0.5c0.6,0,1.1,0.2,1.5,0.5c0.5,0.3,0.8,0.8,1.1,1.5
		s0.4,1.5,0.4,2.6c0,1.1-0.1,1.9-0.4,2.6s-0.6,1.1-1.1,1.5c-0.5,0.3-1,0.5-1.5,0.5c-0.6,0-1-0.2-1.5-0.5s-0.8-0.8-1-1.4
		S164.5,111.1,164.5,110z M165.3,110c0,1,0.1,1.7,0.3,2.2c0.2,0.5,0.4,0.9,0.8,1.1c0.3,0.3,0.7,0.4,1.1,0.4c0.4,0,0.7-0.1,1.1-0.4
		c0.3-0.3,0.6-0.6,0.8-1.1c0.2-0.6,0.3-1.4,0.3-2.2c0-0.9-0.1-1.6-0.3-2.1s-0.5-1-0.8-1.2c-0.3-0.3-0.7-0.4-1.1-0.4
		c-0.4,0-0.7,0.1-1.1,0.4c-0.3,0.3-0.6,0.6-0.8,1.1C165.4,108.3,165.3,109.1,165.3,110z"/>
	<path class="st0" d="M171.2,110c0-1.1,0.1-2,0.4-2.6s0.6-1.1,1-1.4s0.9-0.5,1.5-0.5c0.6,0,1.1,0.2,1.5,0.5c0.5,0.3,0.8,0.8,1.1,1.5
		s0.4,1.5,0.4,2.6c0,1.1-0.1,1.9-0.4,2.6s-0.6,1.1-1.1,1.5c-0.5,0.3-1,0.5-1.5,0.5c-0.6,0-1-0.2-1.5-0.5s-0.8-0.8-1-1.4
		S171.2,111.1,171.2,110z M172,110c0,1,0.1,1.7,0.3,2.2c0.2,0.5,0.4,0.9,0.8,1.1c0.3,0.3,0.7,0.4,1.1,0.4c0.4,0,0.7-0.1,1.1-0.4
		c0.3-0.3,0.6-0.6,0.8-1.1c0.2-0.6,0.3-1.4,0.3-2.2c0-0.9-0.1-1.6-0.3-2.1s-0.5-1-0.8-1.2c-0.3-0.3-0.7-0.4-1.1-0.4
		c-0.4,0-0.7,0.1-1.1,0.4c-0.3,0.3-0.6,0.6-0.8,1.1C172.1,108.3,172,109.1,172,110z"/>
	<path class="st0" d="M181.9,107.5c0,0.6-0.2,1-0.6,1.4s-0.9,0.6-1.4,0.6c-0.6,0-1-0.2-1.4-0.6c-0.4-0.4-0.6-0.9-0.6-1.4
		c0-0.6,0.2-1,0.6-1.4c0.4-0.4,0.9-0.6,1.4-0.6c0.6,0,1,0.2,1.4,0.6S181.9,106.9,181.9,107.5z M181.2,107.5c0-0.4-0.1-0.7-0.4-1
		c-0.3-0.3-0.6-0.4-0.9-0.4c-0.4,0-0.7,0.1-0.9,0.4c-0.3,0.3-0.4,0.6-0.4,1c0,0.4,0.1,0.7,0.4,1c0.3,0.3,0.6,0.4,0.9,0.4
		s0.7-0.1,0.9-0.4C181,108.2,181.2,107.9,181.2,107.5z"/>
</g>
<path class="st1" d="M200.4,153.1h-2.8 M199,154.6v-2.9 M198,154.1l2-2 M198,152.1l2,2"/>
<path class="st2" d="M154.6,117l-1.2,1.4l-1,1.5l-1.1,1.5l-1,1.5l-0.9,1.6l-0.9,1.5l-0.8,1.7l-0.8,1.6l-0.7,1.7l-0.7,1.6l-0.6,1.8
	l-0.6,1.7l-0.5,1.7l-0.5,1.8l-0.4,1.8l-0.3,1.7l-0.3,1.8l-0.3,1.8l-0.1,1.8l-0.2,1.9v1.8v1.8v1.8l0.1,1.8l0.2,1.8 M212.8,97.5
	l-1.7-0.4l-1.8-0.4l-1.9-0.3l-1.8-0.2l-1.8-0.2l-1.8-0.1l-1.9-0.1h-1.8l-1.9,0.1l-1.8,0.1l-1.8,0.2l-1.9,0.2l-1.8,0.3l-1.8,0.3
	l-1.8,0.4l-1.7,0.5l-1.8,0.5l-1.8,0.6l-1.7,0.6l-1.7,0.7l-1.7,0.8l-1.6,0.7l-1.7,0.9 M142,159.4l-1.7-9.3l2.9-0.1L142,159.4
	 M212.8,97.5l-9.4-0.1l0.4-2.8L212.8,97.5"/>
<line class="st3" x1="199.2" y1="153.2" x2="227.9" y2="36.4"/>
<line class="st3" x1="199.2" y1="153.2" x2="79.6" y2="166.1"/>
<line class="st4" x1="199.1" y1="153.1" x2="197.8" y2="151.6"/>
<path class="st0" d="M142,159.4l-1.7-9.3l2.9-0.1 M212.8,97.5l-9.4-0.1l0.4-2.8"/>
<path class="st5" d="M289.2,220.8l0.1-0.2l0.1-0.5l0.1-0.8l0.2-1.1l0.2-1.5l0.2-1.7l0.3-1.9l0.3-2.2l0.3-2.3l0.4-2.5l0.3-2.6
	l0.4-2.6l0.4-2.7l0.3-2.6l0.4-2.6l0.3-2.5l0.3-2.4l0.3-2.1l0.2-2l0.2-1.7l0.2-1.4l0.1-1.1l0.1-0.9v-0.5v-0.1 M245.7,239.6l0.8,0.7
	l1.4,1.1l1.6,0.9l1.9,0.6l2,0.3h2.2l2.2-0.2l2.3-0.5l2.4-0.8l2.3-1.1l2.3-1.2l2.2-1.5l2.1-1.7 M271.4,236.2l2-1.9l1.7-2l1.6-2.1
	l1.3-2.1l1.1-2.3l0.8-2.2l0.5-2.2l0.3-2.1l-0.1-2l-0.3-1.9l-0.7-1.7l-0.9-1.6l-0.5-0.6 M280.6,149.6h-0.1l-0.3,0.2l-0.5,0.5
	l-0.8,0.7l-1.1,0.8l-1.3,1.1l-1.5,1.3l-1.8,1.5l-1.9,1.7l-2.2,1.9l-2.4,2l-2.5,2.3l-2.7,2.3l-2.9,2.5l-3,2.6l-3.2,2.7l-3.2,2.9
	l-3.3,2.9l-3.4,2.9l-3.5,3l-3.5,3.1l-3.5,3 M232,191.5l-3.5,3.1l-3.5,3.1l-3.4,3l-3.4,2.9l-3.3,2.9l-3.2,2.9l-3.1,2.7l-2.9,2.6
	l-2.9,2.5l-2.6,2.3l-2.5,2.3l-2.3,2l-2.1,1.9l-1.9,1.7l-1.7,1.5l-1.5,1.3l-1.2,1.1l-0.9,0.8l-0.8,0.7l-0.4,0.5l-0.2,0.2h-0.1
	 M289.2,220.8v-0.2l0.1-0.5v-0.8l0.2-1.1l0.2-1.5l0.2-1.7l0.2-1.9l0.3-2.2l0.3-2.3l0.3-2.5l0.3-2.6l0.4-2.6l0.4-2.7l0.3-2.6l0.4-2.6
	l0.3-2.5l0.3-2.4l0.3-2.1l0.3-2l0.3-1.7l0.2-1.4l0.2-1.1l0.1-0.9l0.1-0.5v-0.1v0.1v0.5l-0.1,0.9l-0.1,1.1l-0.2,1.4l-0.2,1.7l-0.2,2
	l-0.3,2.1l-0.3,2.4l-0.3,2.5l-0.4,2.6l-0.3,2.6l-0.4,2.7l-0.4,2.6l-0.3,2.6l-0.4,2.5l-0.3,2.3l-0.3,2.2l-0.3,1.9l-0.2,1.7l-0.2,1.5
	l-0.2,1.1l-0.1,0.8l-0.1,0.5L289.2,220.8 M252.5,214.9l2.1-1.7l2.2-1.5l2.3-1.2l2.4-1.1l2.3-0.8l2.3-0.5l2.3-0.2h2.2l2,0.3l1.8,0.6
	l1.7,0.9l1.4,1.1l1.2,1.3l0.9,1.6l0.7,1.7l0.3,1.9l0.1,2l-0.3,2.1l-0.5,2.2l-0.8,2.2l-1.1,2.3l-1.3,2.1l-1.6,2.1l-1.7,2l-2,1.9
	l-2.1,1.7l-2.2,1.5l-2.3,1.2l-2.3,1.1l-2.4,0.8l-2.3,0.5l-2.2,0.2h-2.2l-2-0.3l-1.9-0.6l-1.6-0.9l-1.4-1.1l-1.2-1.3l-1-1.6l-0.6-1.7
	l-0.4-1.9v-2l0.2-2.1l0.5-2.2l0.8-2.3l1.1-2.2l1.3-2.1l1.6-2.1l1.8-2L252.5,214.9 M273.1,237.6l-1.8,1.7l-1.9,1.5l-1.7,1.6l-1.6,1.4
	l-1.6,1.3l-1.3,1.2l-1.2,1l-0.9,0.8l-0.7,0.6l-0.5,0.4l-0.2,0.1l0.3-0.3l0.6-0.5l0.8-0.7l1-0.9l1.2-1.1l1.4-1.2l1.6-1.4l1.6-1.5
	l1.8-1.5l1.8-1.6l1.9-1.7l1.8-1.6l1.8-1.5l1.7-1.5l1.6-1.4l1.4-1.2l1.3-1.1l1-0.9l0.9-0.7l0.5-0.5l0.4-0.3h0.1l-0.2,0.1l-0.4,0.4
	l-0.7,0.6L284,228l-1.1,1l-1.3,1.2l-1.5,1.3l-1.6,1.4l-1.8,1.6l-1.8,1.5L273.1,237.6 M280.5,149.6L280.5,149.6l-0.2,0.2l-0.5,0.4
	l-0.8,0.6l-0.9,0.8l-1.3,1.1l-1.4,1.2l-1.7,1.5l-1.9,1.6l-2.2,1.8l-2.3,2l-2.5,2.2l-2.7,2.3l-2.8,2.5l-3,2.6l-3.1,2.7l-3.2,2.7
	l-3.3,2.9l-3.4,3l-3.4,3l-3.5,3l-3.5,3.1l-3.5,3l-3.5,3.1l-3.4,3l-3.4,3l-3.3,2.9l-3.3,2.8l-3.1,2.8l-3,2.6l-2.8,2.5l-2.7,2.4
	l-2.6,2.3l-2.3,2.1l-2.2,1.9l-1.9,1.7l-1.8,1.6l-1.5,1.3l-1.2,1.2l-1.1,0.9l-0.8,0.7l-0.5,0.5l-0.3,0.3 M278.7,147.5L278.7,147.5
	l-0.3,0.2l-0.5,0.4l-0.7,0.6l-1,0.8l-1.2,1l-1.5,1.3l-1.7,1.4l-1.9,1.7l-2.1,1.8l-2.3,2l-2.6,2.2l-2.6,2.3l-2.9,2.4l-2.9,2.6
	l-3.1,2.7l-3.3,2.8l-3.3,2.9l-3.3,2.9l-3.5,3l-3.5,3.1l-3.5,3l-3.4,3.1l-3.5,3l-3.5,3.1l-3.4,2.9l-3.3,3l-3.2,2.8l-3.1,2.7l-3,2.7
	l-2.9,2.5l-2.7,2.4l-2.5,2.2l-2.4,2.1L192,223l-2,1.8l-1.7,1.5l-1.5,1.4l-1.3,1.1l-1,1l-0.8,0.7l-0.5,0.5l-0.3,0.3h-0.1
	 M229.7,127.9L229.7,127.9l-0.3,0.2l-0.6,0.4l-0.7,0.7l-1,0.8l-1.3,1.1l-1.5,1.3l-1.6,1.4l-1.9,1.6l-2.1,1.8l-2.2,1.9l-2.3,2.1
	l-2.5,2.1l-2.6,2.2l-2.6,2.4 M206.5,147.9l-2.7,2.3l-2.8,2.4l-2.8,2.5l-2.7,2.4l-2.7,2.3l-2.7,2.4l-2.5,2.2l-2.5,2.2l-2.3,2l-2.2,2
	l-2,1.8l-1.9,1.6l-1.6,1.5l-1.5,1.3l-1.2,1.1l-1,0.8l-0.7,0.7l-0.5,0.5l-0.3,0.2 M265.3,138.7l-0.2-0.6l-0.6-0.7l-0.8-0.8l-1.1-0.9
	l-1.4-0.8l-1.6-0.9l-1.8-0.9l-1.9-0.8l-2-0.7l-2-0.7l-1.9-0.5l-1.9-0.5l-1.7-0.3l-1.6-0.1h-1.3l-1,0.1l-0.8,0.3l-0.4,0.4l-0.1,0.5
	l0.2,0.6l0.5,0.8l0.9,0.8l1.1,0.8l1.4,0.9l1.6,0.8l1.8,0.9l1.9,0.8l1.9,0.8l2,0.6l2,0.6l1.9,0.4l1.7,0.3l1.5,0.2h1.3l1.1-0.2
	l0.7-0.2l0.5-0.4L265.3,138.7 M169.9,192.7l-0.3,0.5l-0.3,0.8l-0.1,1.1v1.4l0.1,1.6l0.2,1.8l0.2,2l0.4,2l0.4,2.1l0.6,2l0.5,2
	l0.6,1.8l0.6,1.6l0.6,1.4l0.7,1.2l0.5,0.8l0.6,0.5l0.4,0.2l0.4-0.2l0.3-0.5l0.3-0.8l0.1-1.1v-1.4l-0.1-1.6l-0.2-1.8l-0.2-1.9
	l-0.4-2.1l-0.5-2l-0.5-2.1l-0.5-1.9l-0.6-1.9l-0.6-1.6l-0.7-1.4l-0.6-1.1l-0.5-0.9l-0.6-0.5l-0.4-0.2L169.9,192.7 M180.7,183.5
	l-1.2,0.6l-1.1,1l-0.9,1.2l-0.9,1.5l-0.6,1.7l-0.5,1.9l-0.2,2v2.1l0.1,2.1l0.4,2.1l0.6,1.9l0.8,1.8l0.9,1.6l1,1.4l1.2,1.1l1.2,0.7
	l1.3,0.5h1.3l1.2-0.2l1.2-0.6l1.1-1l1-1.2l0.8-1.5l0.6-1.7l0.5-1.9l0.2-2l0.1-2.1l-0.2-2.1l-0.4-2.1l-0.6-1.9l-0.7-1.9l-0.9-1.6
	l-1.1-1.3l-1.2-1.1l-1.2-0.7l-1.3-0.5H182L180.7,183.5 M193,172.7l-1.1,1.8l-0.9,2l-0.5,2l-0.3,2.1l0.1,2l0.3,2l0.6,1.9l1,1.6
	l1.1,1.5l1.4,1.2l1.5,0.9l1.7,0.5l1.8,0.3l1.8-0.1l1.8-0.5l1.8-0.8l1.7-1l1.5-1.4l1.3-1.6l1.1-1.8l0.8-1.9l0.5-2.1l0.3-2v-2.1
	l-0.4-2l-0.6-1.8l-0.9-1.7l-1.2-1.4l-1.4-1.2l-1.5-0.9l-1.7-0.6l-1.8-0.2l-1.8,0.1l-1.8,0.4l-1.8,0.8l-1.6,1.1l-1.5,1.3L193,172.7
	 M214.3,153.5l-1.4,1.5l-1.2,1.6l-0.8,1.7l-0.6,1.8l-0.1,1.9l0.1,1.8l0.5,1.7l0.8,1.7l1.1,1.4l1.4,1.3l1.7,1l1.8,0.7l1.9,0.5
	l2.1,0.2l2.1-0.2l2-0.4l2-0.8l1.9-1l1.6-1.2l1.5-1.5l1.1-1.6l0.9-1.7l0.5-1.8l0.2-1.9l-0.2-1.8l-0.4-1.7l-0.9-1.7l-1.1-1.4l-1.4-1.3
	l-1.6-1l-1.8-0.7l-2-0.5l-2-0.2l-2.1,0.2l-2.1,0.4l-2,0.8l-1.8,1L214.3,153.5 M233.5,137.4l-1.5,0.8l-1.2,1l-0.9,1.1l-0.5,1.3
	l-0.2,1.3l0.1,1.4l0.4,1.4l0.8,1.3l1.1,1.3l1.4,1.2l1.6,1.1l1.8,0.9l2,0.7l2,0.5l2.1,0.2l2.1,0.1l2-0.2l1.8-0.4l1.7-0.6l1.5-0.9
	l1.1-0.9l0.9-1.2l0.6-1.2l0.2-1.4l-0.1-1.4l-0.4-1.3l-0.8-1.4l-1.1-1.3l-1.4-1.2l-1.6-1l-1.8-0.9l-2-0.7l-2-0.5l-2.1-0.3H239l-2,0.1
	l-1.8,0.5L233.5,137.4 M182.8,231.3h0.1l0.3-0.3l0.5-0.5l0.8-0.7l1-1l1.3-1.1l1.5-1.4l1.7-1.5l2-1.8l2.1-1.9l2.4-2.1l2.5-2.2
	l2.7-2.4l2.9-2.5l3-2.7l3.1-2.7l3.2-2.8l3.3-3l3.4-2.9l3.5-3.1l3.5-3l3.4-3.1l3.5-3l3.5-3.1l3.5-3l3.3-2.9l3.3-2.9l3.3-2.8l3.1-2.7
	l2.9-2.6l2.9-2.4l2.6-2.3l2.6-2.2l2.3-2l2.1-1.8l1.9-1.7l1.7-1.4l1.5-1.3l1.2-1l1-0.8l0.7-0.6l0.5-0.4l0.2-0.2h0.1 M170.2,178.5
	L170.2,178.5l0.2-0.2l0.4-0.3l0.7-0.6l0.9-0.9l1.1-1l1.4-1.2l1.5-1.4l1.8-1.6l2-1.7l2.1-1.9l2.3-2l2.4-2.1l2.5-2.2l2.6-2.3l2.6-2.3
	l2.7-2.4l2.7-2.3l2.7-2.4l2.7-2.3l2.6-2.3l2.5-2.2l2.5-2.1l2.3-2l2.1-1.9l2-1.7l1.9-1.6l1.6-1.4l1.4-1.2l1.2-1l1-0.8l0.7-0.6
	l0.5-0.4l0.2-0.2 M93.1,279.9h283.5 M376.6,251.6v28.3 M93.1,251.6h283.5 M93.1,251.6v28.3 M294.9,178.3L294.9,178.3 M289.2,220.8
	L289.2,220.8 M278.2,211.5L278.2,211.5 M245.7,239.6L245.7,239.6 M184.6,233.5l2.8,3l3,2.7l3.1,2.6l3.2,2.4l3.5,2.2l3.5,1.9l3.7,1.8
	l3.8,1.5 M254.1,251.6l0.7-0.3l0.7-0.3l0.7-0.3l0.7-0.2l0.7-0.3l0.7-0.3l0.7-0.3l0.7-0.4 M286.2,226.1l0.4-0.7l0.4-0.6l0.4-0.7
	l0.4-0.6l0.3-0.7l0.4-0.7l0.4-0.6l0.3-0.7 M294.9,178.3l-0.9-4l-1.2-3.8l-1.5-3.8l-1.7-3.7l-1.9-3.5l-2.2-3.5l-2.4-3.3l-2.5-3.1
	 M280.5,149.6l-1.8-2.1 M182.8,231.3l1.9,2.1 M278.7,147.5l-3.6-3.4l-3.8-3.2l-4-2.8l-4.3-2.6l-4.4-2.1l-4.6-1.9l-4.7-1.5l-4.9-1.1
	l-4.9-0.7l-4.9-0.3h-4.9 M169.9,180.1l-0.5,3l-0.3,3.1l-0.2,3v3l0.1,3.1l0.3,3l0.3,3l0.6,3 M170.8,206.8l0.9,3.4l1.1,3.2l1.2,3.2
	l1.5,3.1l1.6,3.1l1.7,2.9l2,2.9l2,2.7 M228,128l-4.8,0.5l-4.8,0.9l-4.6,1.3l-4.6,1.6l-4.4,1.9l-4.3,2.3l-4.1,2.6l-3.9,2.9l-3.6,3.2
	l-3.4,3.5l-3.1,3.7l-2.9,3.9l-2.5,4.1l-2.2,4.3l-1.9,4.5l-1.5,4.6l-1.2,4.7 M228.6,128.7L228.6,128.7v-0.2l-0.1-0.2l-0.1-0.2
	l-0.2-0.1"/>
<path class="st5" d="M619.1,160.8l0.5,0.4l1.8,1.4l1.7,1.6l1.4,1.8l1.3,2l1.1,2.1l0.9,2.2l0.7,2.4l0.4,2.4l0.3,2.5v2.6l-0.2,2.6
	l-0.4,2.7l-0.7,2.6l-0.8,2.6l-1,2.6l-1.3,2.5l-1.4,2.4 M623.4,200.2l-1.6,2.4l-1.8,2.2l-1.9,2l-2,1.9l-2.2,1.8l-2.2,1.5l-2.4,1.4
	l-2.4,1.1l-2.4,1l-2.5,0.7l-2.5,0.5l-2.5,0.2l-2.4,0.1l-2.4-0.2l-2.4-0.5l-2.2-0.7l-2.1-0.9l-2-1.1l-1.9-1.3l-0.4-0.3 M622.4,210.8
	l0.8-0.8l0.9-1l1-1.1l0.9-1.2l1-1.3l0.9-1.4 M627.9,204l0.8-1.4l0.8-1.4l0.7-1.3l0.6-1.3l0.4-1.1l0.1-0.3 M620,161.5l1.1,0.9
	l1.7,1.5l1.5,1.8l1.3,1.9l1.1,2.1l0.9,2.2l0.7,2.3l0.5,2.5l0.3,2.5l0.1,2.5l-0.2,2.7l-0.4,2.6l-0.5,2.6l-0.8,2.6l-1,2.6l-1.3,2.5
	l-1.3,2.5l-1.6,2.3l-1.7,2.2l-1.9,2.1l-2,2l-2.2,1.7l-2.2,1.6l-2.3,1.4l-2.4,1.2l-2.5,1l-2.5,0.7l-2.4,0.6l-2.5,0.3H595l-2.4-0.1
	l-2.3-0.4l-2.3-0.6l-2.1-0.9l-2-1.1l-1.8-1.1 M618.1,160.1l0.5,0.4l1.8,1.4l1.7,1.6l1.5,1.7l1.3,1.9l1.1,2.1l0.9,2.2l0.8,2.3
	l0.5,2.5l0.2,2.5l0.1,2.5l-0.1,2.7l-0.4,2.6l-0.6,2.6l-0.8,2.7l-1,2.5l-1.2,2.5l-1.4,2.5l-1.6,2.3l-1.7,2.2l-1.9,2.1l-2,2l-2.1,1.7
	l-2.3,1.6l-2.3,1.4l-2.4,1.2l-2.5,1l-2.4,0.7l-2.5,0.6l-2.5,0.3h-2.4l-2.4-0.1l-2.4-0.4l-2.2-0.6l-2.2-0.9l-2-1.1l-1.9-1.2l-1.1-0.9
	 M605.4,182.4l-0.9,2l-1.1,2l-1.2,1.8l-1.5,1.7l-1.5,1.6l-1.7,1.4l-1.8,1.2l-1.9,1l-1.9,0.8l-2,0.6l-1.9,0.4l-2,0.1l-1.9-0.1
	l-1.8-0.3l-1.8-0.6l-1.6-0.8l-1.5-1l-1.4-1.1l-1.2-1.4l-1-1.6l-0.8-1.7l-0.6-1.8l-0.4-1.9l-0.1-2v-2.1l0.3-2l0.5-2.1l0.7-2.1l0.8-2
	l1.1-1.9l1.3-1.9l1.4-1.7l1.6-1.5l1.7-1.4l1.8-1.3l1.8-1l1.9-0.8l2-0.6l2-0.3l1.9-0.2l1.9,0.1l1.9,0.4l1.7,0.5l1.6,0.8l1.5,1
	l1.4,1.2l1.2,1.4l1,1.5l0.8,1.7l0.6,1.8l0.4,2l0.2,2l-0.1,2l-0.2,2.1l-0.5,2.1L605.4,182.4 M617.7,161.8l-0.9-0.7l-1.1-0.7l-1.1-0.6
	l-1.2-0.4l-1.1-0.3l-1-0.2h-1l-0.8,0.2l-0.7,0.3l-0.4,0.4l-0.2,0.5l-0.1,0.7l0.2,0.7l0.5,0.8l0.6,0.8l0.8,0.8l0.9,0.7l1.1,0.7
	l1.1,0.5l1.1,0.5l1.2,0.3l1,0.2h1l0.8-0.2l0.6-0.3l0.5-0.4l0.2-0.6v-0.6l-0.2-0.7l-0.4-0.8l-0.6-0.8L617.7,161.8 M607.8,156l-1-0.2
	l-1.2-0.2l-1.3-0.2l-1.2-0.1h-1.2h-1.1l-1,0.1l-0.8,0.1l-0.7,0.1l-0.4,0.3l-0.1,0.2v0.3l0.4,0.3l0.5,0.3l0.8,0.3l0.9,0.2l1.1,0.3
	l1.2,0.2l1.2,0.1l1.2,0.1l1.2,0.1l1.2-0.1h1l0.8-0.1l0.6-0.2l0.4-0.2l0.2-0.3l-0.1-0.3l-0.3-0.2l-0.6-0.3l-0.7-0.3L607.8,156
	 M585.6,159.3L585.6,159.3l0.3-0.1l0.4-0.2l0.7-0.2l0.9-0.3l1-0.3l1.1-0.4l1.2-0.4l1.2-0.3l1.2-0.4l1-0.4l1-0.3l0.8-0.2l0.7-0.2
	l0.4-0.1l0.2-0.1 M575.9,167.6l0.1-0.2l0.6-0.7l0.8-0.8l0.8-0.8l0.9-0.9l0.9-0.9l0.9-0.8l0.9-0.7l0.8-0.6l0.5-0.4 M569.8,181.3
	l0.1-0.7l0.3-1l0.3-1l0.3-1.2l0.5-1.1l0.4-1.2l0.4-1.1l0.5-1l0.4-0.9l0.4-0.7v-0.1 M569.9,191.1l0.1,1.2l0.1,1.1l0.1,1l0.2,0.7v0.6
	l0.1,0.4l0.1,0.1v-0.1v-0.4v-0.5v-0.8l-0.1-1l-0.1-1.1l-0.1-1.2l-0.1-1.2l-0.1-1.3l-0.1-1.2l-0.1-1.1l-0.1-0.9l-0.1-0.8l-0.1-0.6
	l-0.1-0.4l-0.1-0.1v0.1v0.4v0.6l0.1,0.7v1l0.1,1.1l0.1,1.2l0.1,1.2L569.9,191.1 M573.2,196.2l-0.6-0.4l-0.5-0.3h-0.4l-0.3,0.1
	l-0.2,0.4v0.6l0.1,0.8l0.2,0.9l0.3,1l0.5,1.1l0.5,1.1l0.6,1.1l0.6,1.1l0.7,0.9l0.6,0.8l0.6,0.7l0.6,0.5l0.5,0.2l0.4,0.1l0.3-0.2
	l0.2-0.4v-0.6l-0.1-0.8l-0.2-0.9l-0.3-1l-0.4-1.1l-0.5-1.1l-0.6-1.1l-0.7-1.1l-0.6-0.9l-0.7-0.8L573.2,196.2 M582.8,202.6l-1-0.1
	h-0.9l-0.7,0.2l-0.6,0.4l-0.4,0.5l-0.2,0.7v0.8l0.2,0.9l0.4,1l0.6,0.9l0.8,1l0.9,0.8l1,0.8l1,0.7l1,0.5l1.1,0.3l1,0.2h0.8l0.8-0.2
	l0.6-0.4l0.4-0.6l0.2-0.7v-0.8l-0.2-0.9l-0.5-0.9l-0.6-1l-0.7-0.9l-0.9-0.9l-1-0.8l-1-0.6l-1.1-0.5L582.8,202.6 M595.5,201.8
	l-1.2,0.2l-1.1,0.4l-0.9,0.5l-0.8,0.7l-0.5,0.8l-0.4,0.9l-0.1,1l0.2,1l0.4,0.9l0.6,0.9l0.8,0.8l1,0.7l1.1,0.5l1.2,0.4l1.2,0.2h1.2
	l1.2-0.2l1.1-0.4l0.9-0.6l0.8-0.7l0.6-0.8l0.3-0.9l0.1-0.9l-0.2-1l-0.3-1l-0.7-0.9l-0.8-0.8l-0.9-0.6l-1.2-0.6L598,202l-1.3-0.2
	H595.5 M603.4,196.9l-0.6,1.1l-0.3,1.2l-0.1,1.1l0.2,1.1l0.4,1.1l0.6,0.9l0.8,0.8l0.9,0.6l1.1,0.4l1.2,0.2l1.2-0.1l1.2-0.2l1.2-0.5
	l1-0.7l0.9-0.8l0.8-1l0.5-1.1l0.3-1.1l0.1-1.2l-0.1-1.1l-0.4-1l-0.6-1l-0.8-0.7l-1-0.6l-1-0.4l-1.2-0.2h-1.2l-1.2,0.3l-1.2,0.5
	l-1,0.6l-1,0.9L603.4,196.9 M611.5,185.1l-0.4,1.1l-0.1,1.3l0.1,1.2l0.3,1.2l0.4,1.2l0.7,0.9l0.8,0.9l1,0.6l1,0.4l1.1,0.1l1.1-0.1
	l1-0.3l1-0.6l0.9-0.8l0.7-0.9l0.5-1.1l0.4-1.2l0.1-1.2l-0.1-1.3l-0.3-1.2l-0.4-1.1l-0.7-1l-0.8-0.8l-1-0.6l-1-0.4l-1.1-0.2l-1.1,0.1
	l-1,0.4l-1,0.5l-0.8,0.8l-0.8,1L611.5,185.1 M613.3,171.7l-0.1,1l0.1,1.2l0.4,1.1l0.5,1.1l0.7,1.1l0.9,0.9l0.9,0.8l1,0.6l1.1,0.4
	l1,0.1h1l0.9-0.2l0.7-0.5l0.6-0.7l0.5-0.8l0.2-1l0.1-1.1l-0.2-1.1l-0.3-1.1l-0.5-1.1l-0.7-1.1l-0.9-0.9l-0.9-0.8l-1-0.6l-1.1-0.4
	l-1-0.2l-1,0.1l-0.9,0.2l-0.7,0.5l-0.6,0.7l-0.5,0.8L613.3,171.7 M580.2,211.2l1.1,0.9l1.9,1.2l2,1.1l2.2,0.9l2.2,0.6l2.4,0.4
	l2.4,0.1h2.4l2.5-0.3l2.5-0.6l2.4-0.7l2.5-1l2.4-1.2l2.3-1.4l2.3-1.6l2.1-1.7l2-2l1.9-2.1l1.7-2.2l1.6-2.3l1.4-2.5l1.2-2.5l1-2.5
	l0.8-2.7l0.6-2.6l0.4-2.6l0.1-2.7l-0.1-2.5l-0.2-2.5l-0.5-2.5l-0.8-2.3l-0.9-2.2l-1.1-2.1l-1.3-1.9l-1.5-1.7l-1.7-1.6l-1.8-1.4
	l-0.5-0.4 M599.3,162l-1.1-0.5l-1.6-0.7l-1.8-0.4l-1.9-0.1H591l-1.9,0.3l-1.9,0.6l-1.9,0.7l-1.9,1l-1.8,1.1l-1.7,1.4l-1.5,1.5
	l-1.4,1.7l-1.3,1.7 M575.7,170.3l-1.1,1.9l-0.9,2l-0.7,2l-0.5,2.1l-0.2,2l-0.1,2.1l0.2,1.9l0.4,1.9l0.6,1.8l0.8,1.7l1,1.5l1.2,1.3
	v0.1 M605.9,155.6l-5.2-3 M700.9,210.5L626,167.2 M577,166.3l-76.5,44.2 M600.7,152.6l-6.9,4 M500.5,222l100.2,57.9 M500.5,210.5
	l100.2,57.8 M500.5,210.5V222 M600.7,279.9L700.9,222 M700.9,210.5V222 M600.7,268.3l100.2-57.8 M600.7,268.3v11.6 M631.3,197.2
	l0.8-2.8l0.5-2.8l0.3-2.8v-2.9l-0.2-2.8l-0.5-2.8l-0.7-2.8l-1-2.7l-1.2-2.5l-1.5-2.5l-1.6-2.3l-1.9-2.2l-2-2l-2.2-1.8 M582.1,212.7
	l2.4,1.6l2.6,1.4l2.6,1.2l2.8,0.9l2.8,0.7l2.9,0.3l2.9,0.2l2.9-0.2l2.9-0.4l2.9-0.6l2.7-1l2.7-1.1l2.5-1.4l2.4-1.7l2.3-1.8
	 M620,161.5l-0.6-0.5 M581.5,212.2l0.6,0.5 M618.1,160.1l-2.3-1.3l-2.5-1.1l-2.4-0.9l-2.6-0.7l-2.6-0.5l-2.7-0.3h-2.6l-2.7,0.1
	 M585.6,159.3l-0.4,0.2l-0.3,0.1l-0.3,0.2l-0.3,0.2l-0.3,0.2l-0.3,0.2l-0.3,0.2l-0.3,0.2 M575.9,167.6l-0.3,0.4l-0.4,0.5l-0.3,0.4
	l-0.3,0.5l-0.3,0.5l-0.3,0.5l-0.3,0.4l-0.3,0.5 M569.8,181.3l-0.1,0.3v0.3l-0.1,0.3v0.3l-0.1,0.2v0.3l-0.1,0.3v0.3 M570.5,196.1
	l0.7,2.2l0.9,2.1l1,2l1.2,2l1.3,1.8l1.4,1.8l1.6,1.6l1.6,1.6 M602.8,186.3l0.1-0.1 M602.9,186.2l0.5-0.8l0.9-1.8l0.8-1.9l0.6-1.9
	l0.4-2l0.2-1.9V174l-0.2-1.9l-0.4-1.7l-0.5-1.7l-0.8-1.6l-0.9-1.5l-1.1-1.3l-1.2-1.1l-1.4-1l-0.4-0.2 M576.5,192.7l0.3,0.4l1.4,1
	l1.4,0.9l1.6,0.6l1.6,0.5l1.8,0.3h1.7l1.8-0.1l1.9-0.4l1.8-0.5l1.8-0.8l1.7-0.9l1.7-1.1l1.6-1.3l1.4-1.5l1.4-1.5l1.1-1.6l0.2-0.2
	 M602.7,186.5l0.1-0.2"/>
</svg>
