<?xml version="1.0" encoding="utf-8"?>
<!-- Generator: Adobe Illustrator 21.0.0, SVG Export Plug-In . SVG Version: 6.00 Build 0)  -->
<svg version="1.1" xmlns="http://www.w3.org/2000/svg" xmlns:xlink="http://www.w3.org/1999/xlink" x="0px" y="0px"
	 viewBox="0 0 2777.8 1334" style="enable-background:new 0 0 2777.8 1334;" xml:space="preserve">
<style type="text/css">
	.st0{fill:none;stroke:#010101;stroke-miterlimit:10;}
	.st1{fill:#FFFFFF;}
	.st2{fill:none;}
	.st3{fill:#12A04A;stroke:#010101;stroke-miterlimit:10;}
	.st4{display:none;fill:#FFFFFF;}
	.st5{clip-path:url(#SVGID_4_);fill:none;stroke:#010101;stroke-miterlimit:10;}
	.st6{clip-path:url(#SVGID_4_);fill:#FFFFFF;stroke:#010101;stroke-miterlimit:10;}
	.st7{clip-path:url(#SVGID_4_);fill:#FFFFFF;}
	.st8{clip-path:url(#SVGID_6_);fill:none;stroke:#010101;stroke-miterlimit:10;}
	.st9{fill:#119F49;stroke:#119E49;stroke-width:5;stroke-miterlimit:10;}
	.st10{fill:#EE3135;stroke:#010101;stroke-miterlimit:10;}
	.st11{clip-path:url(#SVGID_10_);fill:none;stroke:#010101;stroke-miterlimit:10;}
	.st12{clip-path:url(#SVGID_10_);fill:#FFFFFF;stroke:#010101;stroke-miterlimit:10;}
	.st13{clip-path:url(#SVGID_10_);fill:#FFFFFF;}
	.st14{clip-path:url(#SVGID_12_);fill:none;stroke:#010101;stroke-miterlimit:10;}
	.st15{fill:#EE3236;stroke:#EE3336;stroke-width:5;stroke-miterlimit:10;}
	.st16{fill:none;stroke:#000000;stroke-width:5;stroke-miterlimit:10;}
	.st17{fill:none;stroke:#000000;stroke-width:3;stroke-miterlimit:10;}
</style>
<g id="Layer_3">
	<g id="Layer_2">
		<g>
			<path class="st0" d="M656.6,682h-73.4c-4.6,0-8.3-3.7-8.3-8.3v-16c0-4.6,3.7-8.3,8.3-8.3h73.4c4.6,0,8.3,3.7,8.3,8.3v16
				C665,678.3,661.2,682,656.6,682z"/>
			<path class="st0" d="M558.7,782v-54.5h116v50h50.5c0,0,54,99,0,241h-178l-43-37h-106c0,0-17-64,0-166h108l36-31.5L558.7,782z"/>
			<path class="st1" d="M489.8,630.1c0,0,44.1,50.4,67.1,59.4c8,3.1,12.8,11.6,10.5,19.9c-0.2,0.6-0.4,1.3-0.6,1.9
				c-4,10.3,4.7,55,4.7,55l35-0.7l-1-27.2c-0.2-6.1,1.9-12,5.9-16.6c6.1-6.8,15.3-15.8,22.1-16.6c11-1.3,53.8-5,53.8-5
				s5.4-1,5.4,7.3V757l8-1.3V692c0,0-4.5-10.4-21.2-9.8c-16.7,0.7-108,0.3-108,0.3h-20.3c0,0-8.7,0.8-25.2-14.8s-72-76.5-72-76.5
				s-19.8-23.8-45.8-22.3c-22.6,1.3-301.2,0.3-373.5,0.1c-8.1,0-13.6,8.2-10.5,15.7c12.5,11.4,28.9,17.8,45.9,17.8h342.8
				c9.1,0,17.9,3.7,24.3,10.2l83,84.3c0,0,13.5,10.5,37,10.5h11"/>
			<path class="st0" d="M489.8,630.1c0,0,44.1,50.4,67.1,59.4c8,3.1,12.8,11.6,10.5,19.9c-0.2,0.6-0.4,1.3-0.6,1.9
				c-4,10.3,4.7,55,4.7,55l35-0.7l-1-27.2c-0.2-6.1,1.9-12,5.9-16.6c6.1-6.8,15.3-15.8,22.1-16.6c11-1.3,53.8-5,53.8-5
				s5.4-1,5.4,7.3V757l8-1.3V692c0,0-4.5-10.4-21.2-9.8c-16.7,0.7-108,0.3-108,0.3h-20.3c0,0-8.7,0.8-25.2-14.8s-72-76.5-72-76.5
				s-19.8-23.8-45.8-22.3c-22.6,1.3-301.2,0.3-373.5,0.1c-8.1,0-13.6,8.2-10.5,15.7c12.5,11.4,28.9,17.8,45.9,17.8h342.8
				c9.1,0,17.9,3.7,24.3,10.2l83,84.3c0,0,13.5,10.5,37,10.5h11"/>
			<path class="st0" d="M596.9,649.3l-2.1-2c-0.7-0.7-0.6-1.8,0.2-2.4l4-2.9l-3.2-1.7c-1-0.6-1.1-2.1-0.1-2.7l3.3-2.1h38.3l4.5,1.6
				c0.6,0.2,0.9,1,0.5,1.5l-1,1.4l2.7,1.5c0.8,0.5,1,1.6,0.4,2.3l-4.6,5.5"/>
			<line class="st1" x1="619.7" y1="649" x2="619.7" y2="682"/>
			<line class="st0" x1="619.7" y1="649" x2="619.7" y2="682"/>
			<polyline class="st0" points="611.2,721.5 619.2,721.5 666.7,721 666.7,707.9 625.9,708.6 			"/>
			<line class="st1" x1="648.7" y1="704" x2="648.7" y2="708"/>
			<line class="st0" x1="648.7" y1="704" x2="648.7" y2="708"/>
			<line class="st1" x1="660.7" y1="721" x2="660.7" y2="728"/>
			<line class="st0" x1="660.7" y1="721" x2="660.7" y2="728"/>
			<path class="st0" d="M542.2,784c0,0-10,113,5,234.5"/>
			<path class="st0" d="M504.2,981.5c0,0-6.7-101.2,2-166"/>
			<path class="st0" d="M737.2,807.5h29.1c0,0,1.1,2.8,2.7,8c7.5,24.1,26.3,99.1-2.8,174h-31"/>
			<path class="st0" d="M769.2,981.5h79c0,0,30.7-93.8-5-163h-74"/>
			<line class="st1" x1="1207.2" y1="830.5" x2="847.2" y2="830.5"/>
			<line class="st0" x1="1299.1" y1="830.5" x2="847.2" y2="830.5"/>
			<line class="st1" x1="1207.2" y1="978.5" x2="850.2" y2="978.5"/>
			<line class="st0" x1="1299.9" y1="978.5" x2="850.2" y2="978.5"/>
			<line class="st1" x1="-11.8" y1="822.5" x2="397.2" y2="822.5"/>
			<line class="st0" x1="-11.8" y1="822.5" x2="397.2" y2="822.5"/>
			<line class="st1" x1="-11.8" y1="968.5" x2="395.2" y2="968.5"/>
			<line class="st0" x1="-11.8" y1="968.5" x2="395.2" y2="968.5"/>
			<rect x="-60" y="160" class="st2" width="1299.1" height="1334"/>
		</g>
	</g>
	<path class="st3" d="M656.6,682h-73.4c-4.6,0-8.3-3.7-8.3-8.3v-16c0-4.6,3.7-8.3,8.3-8.3h73.4c4.6,0,8.3,3.7,8.3,8.3v16
		C665,678.3,661.2,682,656.6,682z M639.7,649.3l4.6-5.5c0.6-0.7,0.4-1.8-0.4-2.3l-2.7-1.5l1-1.4c0.4-0.6,0.1-1.3-0.5-1.5l-4.5-1.6
		H599l-3.3,2.1c-1,0.6-1,2.1,0.1,2.7l3.2,1.7l-4,2.9c-0.8,0.6-0.9,1.7-0.2,2.4l2.1,2 M619.7,649v33"/>
</g>
<g id="Layer_1">
	<g>
		<defs>
			<rect id="SVGID_1_" x="13.2" y="-84.6" width="1299.1" height="1334"/>
		</defs>
		<clipPath id="SVGID_2_">
			<use xlink:href="#SVGID_1_"  style="overflow:visible;"/>
		</clipPath>
	</g>
	<rect x="13.2" y="-245.6" class="st4" width="1299.1" height="1334"/>
	<g>
		<defs>
			<rect id="SVGID_3_" x="13.2" y="-84.6" width="1299.1" height="1334"/>
		</defs>
		<clipPath id="SVGID_4_">
			<use xlink:href="#SVGID_3_"  style="overflow:visible;"/>
		</clipPath>
		<path class="st5" d="M695.4,528.9h127.5v-6h458v271h-332v-137H762.4c0,0-19-0.5-34-16.5s-32-27-33-48S695.4,528.9,695.4,528.9z"/>
		<rect x="949.4" y="793.9" class="st5" width="318" height="36.5"/>
		<path class="st5" d="M1052.2,793.9h-51.5c-7.9,0-14.3-6.4-14.3-14.3s6.4-14.3,14.3-14.3h51.5c7.9,0,14.3,6.4,14.3,14.3
			S1060,793.9,1052.2,793.9z"/>
		<path class="st5" d="M1211.7,793.9h-51.5c-7.9,0-14.3-6.4-14.3-14.3s6.4-14.3,14.3-14.3h51.5c7.9,0,14.3,6.4,14.3,14.3
			S1219.6,793.9,1211.7,793.9z"/>
		<circle class="st5" cx="800.2" cy="561.2" r="15.8"/>
		<circle class="st5" cx="724.4" cy="561.2" r="15.8"/>
		<path class="st6" d="M50.9,501.9h402v64h-202v146.3c0,15.8-12.8,28.7-28.7,28.7H79.6c-15.8,0-28.7-12.8-28.7-28.7V501.9z"/>
		<rect x="563" y="527.4" class="st5" width="115" height="18"/>
		<path class="st5" d="M772.4,196.4H525.5c-29.5,0-53.5,23.6-54.1,53l-5,252.5h365l-5-252.5C825.9,220,801.8,196.4,772.4,196.4z"/>
		<rect x="608.4" y="576.9" class="st7" width="26.2" height="15.9"/>
		<rect x="608.4" y="576.9" class="st5" width="26.2" height="15.9"/>
		<path class="st7" d="M625.4,608.7c0,0,4-1,3.9-3.5s0-28.3,0-28.3h-15.4v22.5"/>
		<path class="st5" d="M625.4,608.7c0,0,4-1,3.9-3.5s0-28.3,0-28.3h-15.4v22.5"/>
		<path class="st7" d="M627.7,606.2L627.7,606.2c0,1.4-1.1,2.7-2.5,2.7L519,612.4c-1.4,0-2.7-1.1-2.7-2.5c0-1.4,1.1-2.7,2.5-2.7
			l106.2-3.5C626.4,603.6,627.6,604.7,627.7,606.2"/>
		<path class="st5" d="M627.7,606.2L627.7,606.2c0,1.4-1.1,2.7-2.5,2.7L519,612.4c-1.4,0-2.7-1.1-2.7-2.5c0-1.4,1.1-2.7,2.5-2.7
			l106.2-3.5C626.4,603.6,627.6,604.7,627.7,606.2z"/>
		<path class="st7" d="M518.8,602.1c0,0-2.7-2.6,0.5-4.2c0.7-0.4,1.6-0.5,2.4-0.5l103.3,1.2"/>
		<path class="st5" d="M518.8,602.1c0,0-2.7-2.6,0.5-4.2c0.7-0.4,1.6-0.5,2.4-0.5l103.3,1.2"/>
		<path class="st7" d="M627.7,601.2L627.7,601.2c0,1.4-1.1,2.7-2.5,2.7L519,607.4c-1.4,0-2.7-1.1-2.7-2.5c0-1.4,1.1-2.7,2.5-2.7
			l106.2-3.5C626.4,598.6,627.6,599.7,627.7,601.2"/>
		<path class="st5" d="M627.7,601.2L627.7,601.2c0,1.4-1.1,2.7-2.5,2.7L519,607.4c-1.4,0-2.7-1.1-2.7-2.5c0-1.4,1.1-2.7,2.5-2.7
			l106.2-3.5C626.4,598.6,627.6,599.7,627.7,601.2z"/>
		<rect x="596.3" y="573.9" class="st7" width="50.7" height="3"/>
		<rect x="596.3" y="573.9" class="st5" width="50.7" height="3"/>
		<path class="st7" d="M518.2,511.4h-19c-2.6,0-4.7-2.1-4.7-4.7v-4.8h28.5v4.8C522.9,509.3,520.8,511.4,518.2,511.4"/>
		<path class="st5" d="M518.2,511.4h-19c-2.6,0-4.7-2.1-4.7-4.7v-4.8h28.5v4.8C522.9,509.3,520.8,511.4,518.2,511.4z"/>
		<path class="st7" d="M800.2,511.4h-19c-2.6,0-4.7-2.1-4.7-4.7v-4.8h28.5v4.8C804.9,509.3,802.8,511.4,800.2,511.4"/>
		<path class="st5" d="M800.2,511.4h-19c-2.6,0-4.7-2.1-4.7-4.7v-4.8h28.5v4.8C804.9,509.3,802.8,511.4,800.2,511.4z"/>
		<path class="st7" d="M830.9,502.2c0,0,8-2.3,15,9.3v12"/>
		<path class="st5" d="M830.9,502.2c0,0,8-2.3,15,9.3v12"/>
		<path class="st5" d="M698.6,605.9c0,0-20.7-9.5-20.7-26.5v-34l-25.5,28.5h-62.5l-27.2-28"/>
		<line class="st5" x1="476.9" y1="502.4" x2="476.9" y2="529.4"/>
		<line class="st5" x1="530.9" y1="502.4" x2="530.9" y2="527.4"/>
		<line class="st5" x1="524.9" y1="527.4" x2="524.9" y2="502.4"/>
		<line class="st5" x1="513.9" y1="527.4" x2="513.9" y2="511.4"/>
		<polygon class="st5" points="563,539.1 452.9,539.1 452.9,529.4 478.4,529.4 478.8,527.4 563,527.4 		"/>
	</g>
	<rect x="994.7" y="790.8" class="st1" width="61.2" height="203.1"/>
	<rect x="994.7" y="790.8" class="st0" width="61.2" height="203.1"/>
	<rect x="1155.4" y="790.8" class="st1" width="61.2" height="203.1"/>
	<rect x="1155.4" y="790.8" class="st0" width="61.2" height="203.1"/>
	<g>
		<defs>
			<rect id="SVGID_5_" x="13.2" y="-84.6" width="1299.1" height="1334"/>
		</defs>
		<clipPath id="SVGID_6_">
			<use xlink:href="#SVGID_5_"  style="overflow:visible;"/>
		</clipPath>
		<path class="st8" d="M1041.4,790.8h-31V776c0-5.8,4.7-10.5,10.5-10.5h9.9c5.8,0,10.5,4.7,10.5,10.5V790.8z"/>
		<path class="st8" d="M1201.5,790.8h-31V776c0-5.8,4.7-10.5,10.5-10.5h9.9c5.8,0,10.5,4.7,10.5,10.5V790.8z"/>
		<path class="st8" d="M1045.9,899.3l-38.1,12.2c-1.6,0.5-3.4-0.4-3.9-2c-0.5-1.6,0.4-3.4,2-3.9l38.1-12.2c1.6-0.5,3.4,0.4,3.9,2
			C1048.5,897,1047.6,898.7,1045.9,899.3z"/>
		<path class="st8" d="M1045.9,915.5l-38.1,12.2c-1.6,0.5-3.4-0.4-3.9-2c-0.5-1.6,0.4-3.4,2-3.9l38.1-12.2c1.6-0.5,3.4,0.4,3.9,2
			C1048.5,913.2,1047.6,915,1045.9,915.5z"/>
		<path class="st8" d="M1045.9,930.6l-38.1,12.2c-1.6,0.5-3.4-0.4-3.9-2c-0.5-1.6,0.4-3.4,2-3.9l38.1-12.2c1.6-0.5,3.4,0.4,3.9,2
			C1048.5,928.4,1047.6,930.1,1045.9,930.6z"/>
		<path class="st8" d="M1045.9,851.5l-38.1,12.2c-1.6,0.5-3.4-0.4-3.9-2c-0.5-1.6,0.4-3.4,2-3.9l38.1-12.2c1.6-0.5,3.4,0.4,3.9,2
			C1048.5,849.2,1047.6,851,1045.9,851.5z"/>
		<path class="st8" d="M1045.9,867.8l-38.1,12.2c-1.6,0.5-3.4-0.4-3.9-2c-0.5-1.6,0.4-3.4,2-3.9l38.1-12.2c1.6-0.5,3.4,0.4,3.9,2
			C1048.5,865.5,1047.6,867.3,1045.9,867.8z"/>
		<path class="st8" d="M1045.9,882.9l-38.1,12.2c-1.6,0.5-3.4-0.4-3.9-2c-0.5-1.6,0.4-3.4,2-3.9L1044,877c1.6-0.5,3.4,0.4,3.9,2
			C1048.5,880.6,1047.6,882.4,1045.9,882.9z"/>
		<path class="st8" d="M1045.9,804.9l-38.1,12.2c-1.6,0.5-3.4-0.4-3.9-2c-0.5-1.6,0.4-3.4,2-3.9L1044,799c1.6-0.5,3.4,0.4,3.9,2
			C1048.5,802.6,1047.6,804.4,1045.9,804.9z"/>
		<path class="st8" d="M1045.9,821.2l-38.1,12.2c-1.6,0.5-3.4-0.4-3.9-2c-0.5-1.6,0.4-3.4,2-3.9l38.1-12.2c1.6-0.5,3.4,0.4,3.9,2
			C1048.5,818.9,1047.6,820.6,1045.9,821.2z"/>
		<path class="st8" d="M1045.9,836.3l-38.1,12.2c-1.6,0.5-3.4-0.4-3.9-2c-0.5-1.6,0.4-3.4,2-3.9l38.1-12.2c1.6-0.5,3.4,0.4,3.9,2
			C1048.5,834,1047.6,835.8,1045.9,836.3z"/>
		<path class="st8" d="M1045.9,944.1l-38.1,12.2c-1.6,0.5-3.4-0.4-3.9-2c-0.5-1.6,0.4-3.4,2-3.9l38.1-12.2c1.6-0.5,3.4,0.4,3.9,2
			C1048.5,941.9,1047.6,943.6,1045.9,944.1z"/>
		<path class="st8" d="M1045.9,958.9l-38.1,12.2c-1.6,0.5-3.4-0.4-3.9-2c-0.5-1.6,0.4-3.4,2-3.9L1044,953c1.6-0.5,3.4,0.4,3.9,2
			C1048.5,956.7,1047.6,958.4,1045.9,958.9z"/>
		<path class="st8" d="M1046.9,973.8l-38.1,12.2c-1.6,0.5-3.4-0.4-3.9-2c-0.5-1.6,0.4-3.4,2-3.9l38.1-12.2c1.6-0.5,3.4,0.4,3.9,2
			C1049.4,971.5,1048.5,973.3,1046.9,973.8z"/>
		<path class="st8" d="M1205.5,899.3l-38.1,12.2c-1.6,0.5-3.4-0.4-3.9-2c-0.5-1.6,0.4-3.4,2-3.9l38.1-12.2c1.6-0.5,3.4,0.4,3.9,2
			C1208,897,1207.1,898.7,1205.5,899.3z"/>
		<path class="st8" d="M1205.5,915.5l-38.1,12.2c-1.6,0.5-3.4-0.4-3.9-2c-0.5-1.6,0.4-3.4,2-3.9l38.1-12.2c1.6-0.5,3.4,0.4,3.9,2
			C1208,913.2,1207.1,915,1205.5,915.5z"/>
		<path class="st8" d="M1205.5,930.6l-38.1,12.2c-1.6,0.5-3.4-0.4-3.9-2c-0.5-1.6,0.4-3.4,2-3.9l38.1-12.2c1.6-0.5,3.4,0.4,3.9,2
			C1208,928.4,1207.1,930.1,1205.5,930.6z"/>
		<path class="st8" d="M1205.5,851.5l-38.1,12.2c-1.6,0.5-3.4-0.4-3.9-2c-0.5-1.6,0.4-3.4,2-3.9l38.1-12.2c1.6-0.5,3.4,0.4,3.9,2
			C1208,849.2,1207.1,851,1205.5,851.5z"/>
		<path class="st8" d="M1205.5,867.8l-38.1,12.2c-1.6,0.5-3.4-0.4-3.9-2c-0.5-1.6,0.4-3.4,2-3.9l38.1-12.2c1.6-0.5,3.4,0.4,3.9,2
			C1208,865.5,1207.1,867.3,1205.5,867.8z"/>
		<path class="st8" d="M1205.5,882.9l-38.1,12.2c-1.6,0.5-3.4-0.4-3.9-2c-0.5-1.6,0.4-3.4,2-3.9l38.1-12.2c1.6-0.5,3.4,0.4,3.9,2
			C1208,880.6,1207.1,882.4,1205.5,882.9z"/>
		<path class="st8" d="M1205.5,804.9l-38.1,12.2c-1.6,0.5-3.4-0.4-3.9-2c-0.5-1.6,0.4-3.4,2-3.9l38.1-12.2c1.6-0.5,3.4,0.4,3.9,2
			C1208,802.6,1207.1,804.4,1205.5,804.9z"/>
		<path class="st8" d="M1205.5,821.2l-38.1,12.2c-1.6,0.5-3.4-0.4-3.9-2c-0.5-1.6,0.4-3.4,2-3.9l38.1-12.2c1.6-0.5,3.4,0.4,3.9,2
			C1208,818.9,1207.1,820.6,1205.5,821.2z"/>
		<path class="st8" d="M1205.5,836.3l-38.1,12.2c-1.6,0.5-3.4-0.4-3.9-2c-0.5-1.6,0.4-3.4,2-3.9l38.1-12.2c1.6-0.5,3.4,0.4,3.9,2
			C1208,834,1207.1,835.8,1205.5,836.3z"/>
		<path class="st8" d="M1205.5,944.1l-38.1,12.2c-1.6,0.5-3.4-0.4-3.9-2c-0.5-1.6,0.4-3.4,2-3.9l38.1-12.2c1.6-0.5,3.4,0.4,3.9,2
			C1208,941.9,1207.1,943.6,1205.5,944.1z"/>
		<path class="st8" d="M1205.5,958.9l-38.1,12.2c-1.6,0.5-3.4-0.4-3.9-2c-0.5-1.6,0.4-3.4,2-3.9l38.1-12.2c1.6-0.5,3.4,0.4,3.9,2
			C1208,956.7,1207.1,958.4,1205.5,958.9z"/>
		<path class="st8" d="M1206.4,973.8l-38.1,12.2c-1.6,0.5-3.4-0.4-3.9-2c-0.5-1.6,0.4-3.4,2-3.9l38.1-12.2c1.6-0.5,3.4,0.4,3.9,2
			C1209,971.5,1208.1,973.3,1206.4,973.8z"/>
	</g>
	<path class="st3" d="M583.3,528.4h73.4c4.6,0,8.3,3.7,8.3,8.3v16c0,4.6-3.7,8.3-8.3,8.3h-73.4c-4.6,0-8.3-3.7-8.3-8.3v-16
		C574.9,532.2,578.7,528.4,583.3,528.4z M600.2,561.1l-4.6,5.5c-0.6,0.7-0.4,1.8,0.4,2.3l2.7,1.5l-1,1.4c-0.4,0.6-0.1,1.3,0.5,1.5
		l4.5,1.6h38.3l3.3-2.1c1-0.6,1-2.1-0.1-2.7l-3.2-1.7l4-2.9c0.8-0.6,0.9-1.7,0.2-2.4l-2.1-2 M620.2,561.4v-33"/>
	<path class="st9" d="M272.6,134.6L164.7,242.4l-7.8-7.8l-56-56l7.7-7.7l55.4,55.4l112.1-112.1l8.4,8.4L176.7,230.4"/>
	<g>
		<path class="st0" d="M2029,692h-73.4c-4.6,0-8.3-3.7-8.3-8.3v-16c0-4.6,3.7-8.3,8.3-8.3h73.4c4.6,0,8.3,3.7,8.3,8.3v16
			C2037.3,688.3,2033.5,692,2029,692z"/>
		<path class="st0" d="M1931.1,792v-54.5h116v50h50.5c0,0,54,99,0,241h-178l-43-37h-106c0,0-17-64,0-166h108l36-31.5L1931.1,792z"/>
		<path class="st1" d="M1862.1,640.1c0,0,44.1,50.4,67.1,59.4c8,3.1,12.8,11.6,10.5,19.9c-0.2,0.6-0.4,1.3-0.6,1.9
			c-4,10.3,4.7,55,4.7,55l35-0.7l-1-27.2c-0.2-6.1,1.9-12,5.9-16.6c6.1-6.8,15.3-15.8,22.1-16.6c11-1.3,53.8-5,53.8-5s5.4-1,5.4,7.3
			V767l8-1.3V702c0,0-4.5-10.4-21.2-9.8c-16.7,0.7-108,0.3-108,0.3h-20.3c0,0-8.7,0.8-25.2-14.8s-72-76.5-72-76.5
			s-19.8-23.8-45.8-22.3c-22.6,1.3-301.2,0.3-373.5,0.1c-8.1,0-13.6,8.2-10.5,15.7c12.5,11.4,28.9,17.8,45.9,17.8h342.8
			c9.1,0,17.9,3.7,24.3,10.2l83,84.3c0,0,13.5,10.5,37,10.5h11"/>
		<path class="st0" d="M1862.1,640.1c0,0,44.1,50.4,67.1,59.4c8,3.1,12.8,11.6,10.5,19.9c-0.2,0.6-0.4,1.3-0.6,1.9
			c-4,10.3,4.7,55,4.7,55l35-0.7l-1-27.2c-0.2-6.1,1.9-12,5.9-16.6c6.1-6.8,15.3-15.8,22.1-16.6c11-1.3,53.8-5,53.8-5s5.4-1,5.4,7.3
			V767l8-1.3V702c0,0-4.5-10.4-21.2-9.8c-16.7,0.7-108,0.3-108,0.3h-20.3c0,0-8.7,0.8-25.2-14.8s-72-76.5-72-76.5
			s-19.8-23.8-45.8-22.3c-22.6,1.3-301.2,0.3-373.5,0.1c-8.1,0-13.6,8.2-10.5,15.7c12.5,11.4,28.9,17.8,45.9,17.8h342.8
			c9.1,0,17.9,3.7,24.3,10.2l83,84.3c0,0,13.5,10.5,37,10.5h11"/>
		<path class="st0" d="M1969.2,659.3l-2.1-2c-0.7-0.7-0.6-1.8,0.2-2.4l4-2.9l-3.2-1.7c-1-0.6-1.1-2.1-0.1-2.7l3.3-2.1h38.3l4.5,1.6
			c0.6,0.2,0.9,1,0.5,1.5l-1,1.4l2.7,1.5c0.8,0.5,1,1.6,0.4,2.3l-4.6,5.5"/>
		<line class="st1" x1="1992.1" y1="659" x2="1992.1" y2="692"/>
		<line class="st0" x1="1992.1" y1="659" x2="1992.1" y2="692"/>
		<polyline class="st0" points="1983.6,731.5 1991.6,731.5 2039.1,731 2039.1,717.9 1998.2,718.6 		"/>
		<line class="st1" x1="2021.1" y1="714" x2="2021.1" y2="718"/>
		<line class="st0" x1="2021.1" y1="714" x2="2021.1" y2="718"/>
		<line class="st1" x1="2033.1" y1="731" x2="2033.1" y2="738"/>
		<line class="st0" x1="2033.1" y1="731" x2="2033.1" y2="738"/>
		<path class="st0" d="M1914.6,794c0,0-10,113,5,234.5"/>
		<path class="st0" d="M1876.6,991.5c0,0-6.7-101.2,2-166"/>
		<path class="st0" d="M2109.6,817.5h29.1c0,0,1.1,2.8,2.7,8c7.5,24.1,26.3,99.1-2.8,174h-31"/>
		<path class="st0" d="M2141.6,991.5h79c0,0,30.7-93.8-5-163h-74"/>
		<line class="st1" x1="2579.6" y1="840.5" x2="2219.6" y2="840.5"/>
		<line class="st0" x1="2777.8" y1="840.5" x2="2219.6" y2="840.5"/>
		<line class="st1" x1="2579.6" y1="988.5" x2="2222.6" y2="988.5"/>
		<line class="st0" x1="2777.8" y1="988.5" x2="2222.6" y2="988.5"/>
		<line class="st1" x1="1360.6" y1="832.5" x2="1769.6" y2="832.5"/>
		<line class="st0" x1="1322.3" y1="832.5" x2="1769.6" y2="832.5"/>
		<line class="st1" x1="1360.6" y1="978.5" x2="1767.6" y2="978.5"/>
		<line class="st0" x1="1322.3" y1="978.5" x2="1767.6" y2="978.5"/>
		<rect x="1312.3" y="170" class="st2" width="1299.1" height="1334"/>
	</g>
	<g>
	</g>
	<path class="st10" d="M2029,692h-73.4c-4.6,0-8.3-3.7-8.3-8.3v-16c0-4.6,3.7-8.3,8.3-8.3h73.4c4.6,0,8.3,3.7,8.3,8.3v16
		C2037.3,688.3,2033.5,692,2029,692z M2012.1,659.3l4.6-5.5c0.6-0.7,0.4-1.8-0.4-2.3l-2.7-1.5l1-1.4c0.4-0.6,0.1-1.3-0.5-1.5
		l-4.5-1.6h-38.3l-3.3,2.1c-1,0.6-1,2.1,0.1,2.7l3.2,1.7l-4,2.9c-0.8,0.6-0.9,1.7-0.2,2.4l2.1,2 M1992.1,659v33"/>
	<g>
		<defs>
			<rect id="SVGID_7_" x="1478.7" y="-74.6" width="1299.1" height="1334"/>
		</defs>
		<clipPath id="SVGID_8_">
			<use xlink:href="#SVGID_7_"  style="overflow:visible;"/>
		</clipPath>
	</g>
	<g>
		<defs>
			<rect id="SVGID_9_" x="1478.7" y="-74.6" width="1299.1" height="1334"/>
		</defs>
		<clipPath id="SVGID_10_">
			<use xlink:href="#SVGID_9_"  style="overflow:visible;"/>
		</clipPath>
		<path class="st11" d="M2160.9,538.9h127.5v-6h458v271h-332v-137h-186.5c0,0-19-0.5-34-16.5s-32-27-33-48
			S2160.9,538.9,2160.9,538.9z"/>
		<rect x="2414.9" y="803.9" class="st11" width="318" height="36.5"/>
		<path class="st11" d="M2517.7,803.9h-51.5c-7.9,0-14.3-6.4-14.3-14.3s6.4-14.3,14.3-14.3h51.5c7.9,0,14.3,6.4,14.3,14.3
			S2525.5,803.9,2517.7,803.9z"/>
		<path class="st11" d="M2677.2,803.9h-51.5c-7.9,0-14.3-6.4-14.3-14.3s6.4-14.3,14.3-14.3h51.5c7.9,0,14.3,6.4,14.3,14.3
			S2685.1,803.9,2677.2,803.9z"/>
		<circle class="st11" cx="2265.7" cy="571.2" r="15.8"/>
		<circle class="st11" cx="2189.9" cy="571.2" r="15.8"/>
		<path class="st12" d="M1516.4,511.9h402v64h-202v146.3c0,15.8-12.8,28.7-28.7,28.7h-142.7c-15.8,0-28.7-12.8-28.7-28.7V511.9z"/>
		<rect x="2028.4" y="537.4" class="st11" width="115" height="18"/>
		<path class="st11" d="M2237.9,206.4H1991c-29.5,0-53.5,23.6-54.1,53l-5,252.5h365l-5-252.5C2291.4,230,2267.3,206.4,2237.9,206.4z
			"/>
		<rect x="2073.9" y="586.9" class="st13" width="26.2" height="15.9"/>
		<rect x="2073.9" y="586.9" class="st11" width="26.2" height="15.9"/>
		<path class="st13" d="M2090.9,618.7c0,0,4-1,3.9-3.5s0-28.3,0-28.3h-15.4v22.5"/>
		<path class="st11" d="M2090.9,618.7c0,0,4-1,3.9-3.5s0-28.3,0-28.3h-15.4v22.5"/>
		<path class="st13" d="M2093.2,616.2L2093.2,616.2c0,1.4-1.1,2.7-2.5,2.7l-106.2,3.5c-1.4,0-2.7-1.1-2.7-2.5c0-1.4,1.1-2.7,2.5-2.7
			l106.2-3.5C2091.9,613.6,2093.1,614.7,2093.2,616.2"/>
		<path class="st11" d="M2093.2,616.2L2093.2,616.2c0,1.4-1.1,2.7-2.5,2.7l-106.2,3.5c-1.4,0-2.7-1.1-2.7-2.5c0-1.4,1.1-2.7,2.5-2.7
			l106.2-3.5C2091.9,613.6,2093.1,614.7,2093.2,616.2z"/>
		<path class="st13" d="M1984.3,612.1c0,0-2.7-2.6,0.5-4.2c0.7-0.4,1.6-0.5,2.4-0.5l103.3,1.2"/>
		<path class="st11" d="M1984.3,612.1c0,0-2.7-2.6,0.5-4.2c0.7-0.4,1.6-0.5,2.4-0.5l103.3,1.2"/>
		<path class="st13" d="M2093.2,611.2L2093.2,611.2c0,1.4-1.1,2.7-2.5,2.7l-106.2,3.5c-1.4,0-2.7-1.1-2.7-2.5c0-1.4,1.1-2.7,2.5-2.7
			l106.2-3.5C2091.9,608.6,2093.1,609.7,2093.2,611.2"/>
		<path class="st11" d="M2093.2,611.2L2093.2,611.2c0,1.4-1.1,2.7-2.5,2.7l-106.2,3.5c-1.4,0-2.7-1.1-2.7-2.5c0-1.4,1.1-2.7,2.5-2.7
			l106.2-3.5C2091.9,608.6,2093.1,609.7,2093.2,611.2z"/>
		<rect x="2061.7" y="583.9" class="st13" width="50.7" height="3"/>
		<rect x="2061.7" y="583.9" class="st11" width="50.7" height="3"/>
		<path class="st13" d="M1983.7,521.4h-19c-2.6,0-4.7-2.1-4.7-4.7v-4.8h28.5v4.8C1988.4,519.3,1986.3,521.4,1983.7,521.4"/>
		<path class="st11" d="M1983.7,521.4h-19c-2.6,0-4.7-2.1-4.7-4.7v-4.8h28.5v4.8C1988.4,519.3,1986.3,521.4,1983.7,521.4z"/>
		<path class="st13" d="M2265.7,521.4h-19c-2.6,0-4.7-2.1-4.7-4.7v-4.8h28.5v4.8C2270.4,519.3,2268.3,521.4,2265.7,521.4"/>
		<path class="st11" d="M2265.7,521.4h-19c-2.6,0-4.7-2.1-4.7-4.7v-4.8h28.5v4.8C2270.4,519.3,2268.3,521.4,2265.7,521.4z"/>
		<path class="st13" d="M2296.4,512.2c0,0,8-2.3,15,9.3v12"/>
		<path class="st11" d="M2296.4,512.2c0,0,8-2.3,15,9.3v12"/>
		<path class="st11" d="M2164.1,615.9c0,0-20.7-9.5-20.7-26.5v-34l-25.5,28.5h-62.5l-27.2-28"/>
		<line class="st11" x1="1942.4" y1="512.4" x2="1942.4" y2="539.4"/>
		<line class="st11" x1="1996.4" y1="512.4" x2="1996.4" y2="537.4"/>
		<line class="st11" x1="1990.4" y1="537.4" x2="1990.4" y2="512.4"/>
		<line class="st11" x1="1979.4" y1="537.4" x2="1979.4" y2="521.4"/>
		<polygon class="st11" points="2028.4,549.1 1918.4,549.1 1918.4,539.4 1943.9,539.4 1944.2,537.4 2028.4,537.4 		"/>
	</g>
	<rect x="2460.2" y="800.8" class="st1" width="61.2" height="203.1"/>
	<rect x="2460.2" y="800.8" class="st0" width="61.2" height="203.1"/>
	<rect x="2620.9" y="800.8" class="st1" width="61.2" height="203.1"/>
	<rect x="2620.9" y="800.8" class="st0" width="61.2" height="203.1"/>
	<g>
		<defs>
			<rect id="SVGID_11_" x="1478.7" y="-74.6" width="1299.1" height="1334"/>
		</defs>
		<clipPath id="SVGID_12_">
			<use xlink:href="#SVGID_11_"  style="overflow:visible;"/>
		</clipPath>
		<path class="st14" d="M2506.9,800.8h-31V786c0-5.8,4.7-10.5,10.5-10.5h9.9c5.8,0,10.5,4.7,10.5,10.5V800.8z"/>
		<path class="st14" d="M2666.9,800.8h-31V786c0-5.8,4.7-10.5,10.5-10.5h9.9c5.8,0,10.5,4.7,10.5,10.5V800.8z"/>
		<path class="st14" d="M2511.4,909.3l-38.1,12.2c-1.6,0.5-3.4-0.4-3.9-2c-0.5-1.6,0.4-3.4,2-3.9l38.1-12.2c1.6-0.5,3.4,0.4,3.9,2
			C2513.9,907,2513,908.7,2511.4,909.3z"/>
		<path class="st14" d="M2511.4,925.5l-38.1,12.2c-1.6,0.5-3.4-0.4-3.9-2c-0.5-1.6,0.4-3.4,2-3.9l38.1-12.2c1.6-0.5,3.4,0.4,3.9,2
			C2513.9,923.2,2513,925,2511.4,925.5z"/>
		<path class="st14" d="M2511.4,940.6l-38.1,12.2c-1.6,0.5-3.4-0.4-3.9-2c-0.5-1.6,0.4-3.4,2-3.9l38.1-12.2c1.6-0.5,3.4,0.4,3.9,2
			C2513.9,938.4,2513,940.1,2511.4,940.6z"/>
		<path class="st14" d="M2511.4,861.5l-38.1,12.2c-1.6,0.5-3.4-0.4-3.9-2c-0.5-1.6,0.4-3.4,2-3.9l38.1-12.2c1.6-0.5,3.4,0.4,3.9,2
			C2513.9,859.2,2513,861,2511.4,861.5z"/>
		<path class="st14" d="M2511.4,877.8l-38.1,12.2c-1.6,0.5-3.4-0.4-3.9-2c-0.5-1.6,0.4-3.4,2-3.9l38.1-12.2c1.6-0.5,3.4,0.4,3.9,2
			C2513.9,875.5,2513,877.3,2511.4,877.8z"/>
		<path class="st14" d="M2511.4,892.9l-38.1,12.2c-1.6,0.5-3.4-0.4-3.9-2c-0.5-1.6,0.4-3.4,2-3.9l38.1-12.2c1.6-0.5,3.4,0.4,3.9,2
			C2513.9,890.6,2513,892.4,2511.4,892.9z"/>
		<path class="st14" d="M2511.4,814.9l-38.1,12.2c-1.6,0.5-3.4-0.4-3.9-2c-0.5-1.6,0.4-3.4,2-3.9l38.1-12.2c1.6-0.5,3.4,0.4,3.9,2
			C2513.9,812.6,2513,814.4,2511.4,814.9z"/>
		<path class="st14" d="M2511.4,831.2l-38.1,12.2c-1.6,0.5-3.4-0.4-3.9-2c-0.5-1.6,0.4-3.4,2-3.9l38.1-12.2c1.6-0.5,3.4,0.4,3.9,2
			C2513.9,828.9,2513,830.6,2511.4,831.2z"/>
		<path class="st14" d="M2511.4,846.3l-38.1,12.2c-1.6,0.5-3.4-0.4-3.9-2c-0.5-1.6,0.4-3.4,2-3.9l38.1-12.2c1.6-0.5,3.4,0.4,3.9,2
			C2513.9,844,2513,845.8,2511.4,846.3z"/>
		<path class="st14" d="M2511.4,954.1l-38.1,12.2c-1.6,0.5-3.4-0.4-3.9-2c-0.5-1.6,0.4-3.4,2-3.9l38.1-12.2c1.6-0.5,3.4,0.4,3.9,2
			C2513.9,951.9,2513,953.6,2511.4,954.1z"/>
		<path class="st14" d="M2511.4,968.9l-38.1,12.2c-1.6,0.5-3.4-0.4-3.9-2c-0.5-1.6,0.4-3.4,2-3.9l38.1-12.2c1.6-0.5,3.4,0.4,3.9,2
			C2513.9,966.7,2513,968.4,2511.4,968.9z"/>
		<path class="st14" d="M2512.4,983.8l-38.1,12.2c-1.6,0.5-3.4-0.4-3.9-2c-0.5-1.6,0.4-3.4,2-3.9l38.1-12.2c1.6-0.5,3.4,0.4,3.9,2
			C2514.9,981.5,2514,983.3,2512.4,983.8z"/>
		<path class="st14" d="M2671,909.3l-38.1,12.2c-1.6,0.5-3.4-0.4-3.9-2c-0.5-1.6,0.4-3.4,2-3.9l38.1-12.2c1.6-0.5,3.4,0.4,3.9,2
			C2673.5,907,2672.6,908.7,2671,909.3z"/>
		<path class="st14" d="M2671,925.5l-38.1,12.2c-1.6,0.5-3.4-0.4-3.9-2c-0.5-1.6,0.4-3.4,2-3.9l38.1-12.2c1.6-0.5,3.4,0.4,3.9,2
			C2673.5,923.2,2672.6,925,2671,925.5z"/>
		<path class="st14" d="M2671,940.6l-38.1,12.2c-1.6,0.5-3.4-0.4-3.9-2c-0.5-1.6,0.4-3.4,2-3.9l38.1-12.2c1.6-0.5,3.4,0.4,3.9,2
			C2673.5,938.4,2672.6,940.1,2671,940.6z"/>
		<path class="st14" d="M2671,861.5l-38.1,12.2c-1.6,0.5-3.4-0.4-3.9-2c-0.5-1.6,0.4-3.4,2-3.9l38.1-12.2c1.6-0.5,3.4,0.4,3.9,2
			C2673.5,859.2,2672.6,861,2671,861.5z"/>
		<path class="st14" d="M2671,877.8l-38.1,12.2c-1.6,0.5-3.4-0.4-3.9-2c-0.5-1.6,0.4-3.4,2-3.9l38.1-12.2c1.6-0.5,3.4,0.4,3.9,2
			C2673.5,875.5,2672.6,877.3,2671,877.8z"/>
		<path class="st14" d="M2671,892.9l-38.1,12.2c-1.6,0.5-3.4-0.4-3.9-2c-0.5-1.6,0.4-3.4,2-3.9l38.1-12.2c1.6-0.5,3.4,0.4,3.9,2
			C2673.5,890.6,2672.6,892.4,2671,892.9z"/>
		<path class="st14" d="M2671,814.9l-38.1,12.2c-1.6,0.5-3.4-0.4-3.9-2c-0.5-1.6,0.4-3.4,2-3.9l38.1-12.2c1.6-0.5,3.4,0.4,3.9,2
			C2673.5,812.6,2672.6,814.4,2671,814.9z"/>
		<path class="st14" d="M2671,831.2l-38.1,12.2c-1.6,0.5-3.4-0.4-3.9-2c-0.5-1.6,0.4-3.4,2-3.9l38.1-12.2c1.6-0.5,3.4,0.4,3.9,2
			C2673.5,828.9,2672.6,830.6,2671,831.2z"/>
		<path class="st14" d="M2671,846.3l-38.1,12.2c-1.6,0.5-3.4-0.4-3.9-2c-0.5-1.6,0.4-3.4,2-3.9l38.1-12.2c1.6-0.5,3.4,0.4,3.9,2
			C2673.5,844,2672.6,845.8,2671,846.3z"/>
		<path class="st14" d="M2671,954.1l-38.1,12.2c-1.6,0.5-3.4-0.4-3.9-2c-0.5-1.6,0.4-3.4,2-3.9l38.1-12.2c1.6-0.5,3.4,0.4,3.9,2
			C2673.5,951.9,2672.6,953.6,2671,954.1z"/>
		<path class="st14" d="M2671,968.9l-38.1,12.2c-1.6,0.5-3.4-0.4-3.9-2c-0.5-1.6,0.4-3.4,2-3.9l38.1-12.2c1.6-0.5,3.4,0.4,3.9,2
			C2673.5,966.7,2672.6,968.4,2671,968.9z"/>
		<path class="st14" d="M2671.9,983.8l-38.1,12.2c-1.6,0.5-3.4-0.4-3.9-2c-0.5-1.6,0.4-3.4,2-3.9l38.1-12.2c1.6-0.5,3.4,0.4,3.9,2
			C2674.4,981.5,2673.5,983.3,2671.9,983.8z"/>
	</g>
	<path class="st10" d="M2048.7,538.4h73.4c4.6,0,8.3,3.7,8.3,8.3v16c0,4.6-3.7,8.3-8.3,8.3h-73.4c-4.6,0-8.3-3.7-8.3-8.3v-16
		C2040.4,542.2,2044.1,538.4,2048.7,538.4z M2065.6,571.1l-4.6,5.5c-0.6,0.7-0.4,1.8,0.4,2.3l2.7,1.5l-1,1.4
		c-0.4,0.6-0.1,1.3,0.5,1.5l4.5,1.6h38.3l3.3-2.1c1-0.6,1-2.1-0.1-2.7l-3.2-1.7l4-2.9c0.8-0.6,0.9-1.7,0.2-2.4l-2.1-2 M2085.6,571.4
		v-33"/>
	<path class="st15" d="M1634.4,163.4l62.7-62.7l6.6,6.6L1641,170l2.8,2.8l59.9,59.9l-6.6,6.6l-55.7-55.7l-7-7l-62.7,62.7l-6.6-6.6
		l62.7-62.7 M1634.4,163.4l-62.7-62.7l-6.6,6.6l62.7,62.7"/>
	<line class="st16" x1="619.9" y1="437.8" x2="619.9" y2="892.4"/>
	<g>
		<path d="M725.6,436.8c-1.5,0.7-4.4,1.5-8.1,1.5c-8.6,0-15.1-5.5-15.1-15.5c0-9.6,6.5-16.1,16-16.1c3.8,0,6.2,0.8,7.3,1.4l-1,3.2
			c-1.5-0.7-3.6-1.3-6.2-1.3c-7.2,0-12,4.6-12,12.6c0,7.5,4.3,12.3,11.8,12.3c2.4,0,4.9-0.5,6.5-1.3L725.6,436.8z"/>
		<path d="M732.2,427.5c0.1,5.4,3.5,7.6,7.5,7.6c2.9,0,4.6-0.5,6.1-1.1l0.7,2.9c-1.4,0.6-3.8,1.4-7.3,1.4c-6.8,0-10.8-4.5-10.8-11.1
			s3.9-11.9,10.3-11.9c7.2,0,9.1,6.3,9.1,10.4c0,0.8-0.1,1.5-0.1,1.9H732.2z M743.9,424.7c0-2.5-1-6.5-5.5-6.5c-4,0-5.8,3.7-6.1,6.5
			H743.9z"/>
		<path d="M752.7,421.8c0-2.3,0-4.1-0.2-6h3.5l0.2,3.6h0.1c1.1-2.1,3.6-4.1,7.3-4.1c3,0,7.8,1.8,7.8,9.4v13.1h-4v-12.7
			c0-3.5-1.3-6.5-5.1-6.5c-2.6,0-4.7,1.9-5.4,4.1c-0.2,0.5-0.3,1.2-0.3,1.9v13.2h-4V421.8z"/>
		<path d="M782.6,409.5v6.3h5.7v3h-5.7v11.9c0,2.7,0.8,4.3,3,4.3c1,0,1.8-0.1,2.3-0.3l0.2,3c-0.8,0.3-2,0.5-3.5,0.5
			c-1.9,0-3.4-0.6-4.3-1.7c-1.1-1.2-1.5-3.1-1.5-5.7v-12h-3.4v-3h3.4v-5.3L782.6,409.5z"/>
		<path d="M794.8,427.5c0.1,5.4,3.5,7.6,7.5,7.6c2.9,0,4.6-0.5,6.1-1.1l0.7,2.9c-1.4,0.6-3.8,1.4-7.3,1.4c-6.8,0-10.8-4.5-10.8-11.1
			s3.9-11.9,10.3-11.9c7.2,0,9.1,6.3,9.1,10.4c0,0.8-0.1,1.5-0.1,1.9H794.8z M806.5,424.7c0-2.5-1-6.5-5.5-6.5c-4,0-5.8,3.7-6.1,6.5
			H806.5z"/>
		<path d="M815.3,422.7c0-2.6,0-4.8-0.2-6.9h3.5l0.1,4.3h0.2c1-3,3.4-4.8,6.1-4.8c0.5,0,0.8,0,1.1,0.1v3.8c-0.4-0.1-0.8-0.1-1.4-0.1
			c-2.8,0-4.8,2.1-5.4,5.1c-0.1,0.5-0.2,1.2-0.2,1.9v11.7h-4V422.7z"/>
		<path d="M829.6,433.7c1.2,0.8,3.3,1.6,5.3,1.6c2.9,0,4.3-1.5,4.3-3.3c0-1.9-1.1-3-4.1-4c-4-1.4-5.8-3.6-5.8-6.2
			c0-3.5,2.9-6.5,7.6-6.5c2.2,0,4.2,0.6,5.4,1.4l-1,2.9c-0.9-0.5-2.5-1.3-4.5-1.3c-2.4,0-3.7,1.4-3.7,3c0,1.8,1.3,2.6,4.2,3.7
			c3.8,1.5,5.8,3.4,5.8,6.6c0,3.9-3,6.6-8.2,6.6c-2.4,0-4.6-0.6-6.2-1.5L829.6,433.7z"/>
		<path d="M870,437.8l-0.3-2.8h-0.1c-1.2,1.7-3.6,3.3-6.7,3.3c-4.5,0-6.7-3.1-6.7-6.3c0-5.3,4.7-8.2,13.2-8.2v-0.5
			c0-1.8-0.5-5.1-5-5.1c-2,0-4.2,0.6-5.7,1.6l-0.9-2.6c1.8-1.2,4.5-2,7.2-2c6.7,0,8.4,4.6,8.4,9v8.2c0,1.9,0.1,3.8,0.4,5.3H870z
			 M869.4,426.6c-4.4-0.1-9.3,0.7-9.3,5c0,2.6,1.7,3.8,3.8,3.8c2.9,0,4.7-1.8,5.3-3.7c0.1-0.4,0.2-0.9,0.2-1.3V426.6z"/>
		<path d="M879.7,422.7c0-2.6,0-4.8-0.2-6.9h3.5l0.1,4.3h0.2c1-3,3.4-4.8,6.1-4.8c0.5,0,0.8,0,1.1,0.1v3.8c-0.4-0.1-0.8-0.1-1.4-0.1
			c-2.8,0-4.8,2.1-5.4,5.1c-0.1,0.5-0.2,1.2-0.2,1.9v11.7h-4V422.7z"/>
		<path d="M896.3,427.5c0.1,5.4,3.5,7.6,7.5,7.6c2.9,0,4.6-0.5,6.1-1.1l0.7,2.9c-1.4,0.6-3.8,1.4-7.3,1.4c-6.8,0-10.8-4.5-10.8-11.1
			s3.9-11.9,10.3-11.9c7.2,0,9.1,6.3,9.1,10.4c0,0.8-0.1,1.5-0.1,1.9H896.3z M908.1,424.7c0-2.5-1-6.5-5.5-6.5c-4,0-5.8,3.7-6.1,6.5
			H908.1z"/>
		<path d="M931.6,428.2l-3.2,9.6h-4.1l10.4-30.6h4.8l10.5,30.6h-4.2l-3.3-9.6H931.6z M941.7,425.1l-3-8.8c-0.7-2-1.1-3.8-1.6-5.6
			H937c-0.5,1.8-1,3.7-1.5,5.5l-3,8.9H941.7z"/>
		<path d="M954.2,405.5h4v32.3h-4V405.5z"/>
		<path d="M969.4,409.6c0,1.4-1,2.5-2.5,2.5c-1.4,0-2.4-1.1-2.4-2.5c0-1.4,1-2.5,2.5-2.5C968.4,407.1,969.4,408.2,969.4,409.6z
			 M964.9,437.8v-22h4v22H964.9z"/>
		<path d="M994.5,415.8c-0.1,1.6-0.2,3.4-0.2,6v12.8c0,5-1,8.1-3.1,10c-2.1,2-5.2,2.6-8,2.6c-2.6,0-5.5-0.6-7.3-1.8l1-3
			c1.5,0.9,3.7,1.7,6.5,1.7c4.1,0,7.1-2.1,7.1-7.7V434h-0.1c-1.2,2-3.6,3.7-7,3.7c-5.5,0-9.4-4.6-9.4-10.7c0-7.5,4.9-11.7,9.9-11.7
			c3.8,0,5.9,2,6.9,3.8h0.1l0.2-3.3H994.5z M990.4,424.5c0-0.7,0-1.3-0.2-1.8c-0.7-2.3-2.7-4.2-5.6-4.2c-3.8,0-6.5,3.2-6.5,8.3
			c0,4.3,2.2,7.9,6.5,7.9c2.5,0,4.7-1.5,5.5-4.1c0.2-0.7,0.3-1.5,0.3-2.1V424.5z"/>
		<path d="M1000.7,421.8c0-2.3,0-4.1-0.2-6h3.5l0.2,3.6h0.1c1.1-2.1,3.6-4.1,7.3-4.1c3,0,7.8,1.8,7.8,9.4v13.1h-4v-12.7
			c0-3.5-1.3-6.5-5.1-6.5c-2.6,0-4.7,1.9-5.4,4.1c-0.2,0.5-0.3,1.2-0.3,1.9v13.2h-4V421.8z"/>
		<path d="M1028.2,427.5c0.1,5.4,3.5,7.6,7.5,7.6c2.9,0,4.6-0.5,6.1-1.1l0.7,2.9c-1.4,0.6-3.8,1.4-7.3,1.4
			c-6.8,0-10.8-4.5-10.8-11.1s3.9-11.9,10.3-11.9c7.2,0,9.1,6.3,9.1,10.4c0,0.8-0.1,1.5-0.1,1.9H1028.2z M1039.9,424.7
			c0-2.5-1-6.5-5.5-6.5c-4,0-5.8,3.7-6.1,6.5H1039.9z"/>
		<path d="M1067.7,405.5v26.6c0,2,0,4.2,0.2,5.7h-3.6l-0.2-3.8h-0.1c-1.2,2.5-3.9,4.3-7.5,4.3c-5.3,0-9.4-4.5-9.4-11.2
			c0-7.3,4.5-11.8,9.9-11.8c3.4,0,5.6,1.6,6.6,3.4h0.1v-13.1H1067.7z M1063.7,424.8c0-0.5,0-1.2-0.2-1.7c-0.6-2.5-2.8-4.6-5.8-4.6
			c-4.1,0-6.6,3.6-6.6,8.5c0,4.5,2.2,8.1,6.5,8.1c2.7,0,5.1-1.8,5.9-4.8c0.1-0.5,0.2-1.1,0.2-1.7V424.8z"/>
	</g>
	<line class="st17" x1="619.7" y1="649" x2="814.9" y2="467.8"/>
</g>
</svg>
