<?xml version="1.0" encoding="utf-8"?>
<!-- Generator: Adobe Illustrator 21.0.0, SVG Export Plug-In . SVG Version: 6.00 Build 0)  -->
<svg version="1.1" xmlns="http://www.w3.org/2000/svg" xmlns:xlink="http://www.w3.org/1999/xlink" x="0px" y="0px"
	 viewBox="0 0 1299.1 1088.4" style="enable-background:new 0 0 1299.1 1088.4;" xml:space="preserve">
<style type="text/css">
	.st0{fill:none;stroke:#010101;stroke-miterlimit:10;}
	.st1{fill:#FFFFFF;}
	.st2{fill:none;}
	.st3{fill:none;stroke:#010101;stroke-width:3;stroke-miterlimit:10;}
	.st4{display:none;fill:#FFFFFF;}
	.st5{clip-path:url(#SVGID_4_);fill:none;stroke:#010101;stroke-miterlimit:10;}
	.st6{clip-path:url(#SVGID_4_);fill:#FFFFFF;stroke:#010101;stroke-miterlimit:10;}
	.st7{clip-path:url(#SVGID_4_);fill:#FFFFFF;}
	.st8{clip-path:url(#SVGID_6_);fill:none;stroke:#010101;stroke-miterlimit:10;}
	.st9{fill:#FFFFFF;stroke:#010101;stroke-miterlimit:10;}
</style>
<g id="Layer_3">
	<g id="Layer_2">
		<g>
			<path class="st0" d="M656.6,521h-73.4c-4.6,0-8.3-3.7-8.3-8.3v-16c0-4.6,3.7-8.3,8.3-8.3h73.4c4.6,0,8.3,3.7,8.3,8.3v16
				C665,517.3,661.2,521,656.6,521z"/>
			<path class="st0" d="M558.7,621v-54.5h116v50h50.5c0,0,54,99,0,241h-178l-43-37h-106c0,0-17-64,0-166h108l36-31.5L558.7,621z"/>
			<path class="st1" d="M489.8,469.1c0,0,44.1,50.4,67.1,59.4c8,3.1,12.8,11.6,10.5,19.9c-0.2,0.6-0.4,1.3-0.6,1.9
				c-4,10.3,4.7,55,4.7,55l35-0.7l-1-27.2c-0.2-6.1,1.9-12,5.9-16.6c6.1-6.8,15.3-15.8,22.1-16.6c11-1.3,53.8-5,53.8-5
				s5.4-1,5.4,7.3V596l8-1.3V531c0,0-4.5-10.4-21.2-9.8c-16.7,0.7-108,0.3-108,0.3h-20.3c0,0-8.7,0.8-25.2-14.8s-72-76.5-72-76.5
				s-19.8-23.8-45.8-22.3c-22.6,1.3-301.2,0.3-373.5,0.1c-8.1,0-13.6,8.2-10.5,15.7c12.5,11.4,28.9,17.8,45.9,17.8h342.8
				c9.1,0,17.9,3.7,24.3,10.2l83,84.3c0,0,13.5,10.5,37,10.5h11"/>
			<path class="st0" d="M489.8,469.1c0,0,44.1,50.4,67.1,59.4c8,3.1,12.8,11.6,10.5,19.9c-0.2,0.6-0.4,1.3-0.6,1.9
				c-4,10.3,4.7,55,4.7,55l35-0.7l-1-27.2c-0.2-6.1,1.9-12,5.9-16.6c6.1-6.8,15.3-15.8,22.1-16.6c11-1.3,53.8-5,53.8-5
				s5.4-1,5.4,7.3V596l8-1.3V531c0,0-4.5-10.4-21.2-9.8c-16.7,0.7-108,0.3-108,0.3h-20.3c0,0-8.7,0.8-25.2-14.8s-72-76.5-72-76.5
				s-19.8-23.8-45.8-22.3c-22.6,1.3-301.2,0.3-373.5,0.1c-8.1,0-13.6,8.2-10.5,15.7c12.5,11.4,28.9,17.8,45.9,17.8h342.8
				c9.1,0,17.9,3.7,24.3,10.2l83,84.3c0,0,13.5,10.5,37,10.5h11"/>
			<path class="st0" d="M596.9,488.3l-2.1-2c-0.7-0.7-0.6-1.8,0.2-2.4l4-2.9l-3.2-1.7c-1-0.6-1.1-2.1-0.1-2.7l3.3-2.1h38.3l4.5,1.6
				c0.6,0.2,0.9,1,0.5,1.5l-1,1.4l2.7,1.5c0.8,0.5,1,1.6,0.4,2.3l-4.6,5.5"/>
			<line class="st1" x1="619.7" y1="488" x2="619.7" y2="521"/>
			<line class="st0" x1="619.7" y1="488" x2="619.7" y2="521"/>
			<polyline class="st0" points="611.2,560.5 619.2,560.5 666.7,560 666.7,546.9 625.9,547.6 			"/>
			<line class="st1" x1="648.7" y1="543" x2="648.7" y2="547"/>
			<line class="st0" x1="648.7" y1="543" x2="648.7" y2="547"/>
			<line class="st1" x1="660.7" y1="560" x2="660.7" y2="567"/>
			<line class="st0" x1="660.7" y1="560" x2="660.7" y2="567"/>
			<path class="st0" d="M542.2,623c0,0-10,113,5,234.5"/>
			<path class="st0" d="M504.2,820.5c0,0-6.7-101.2,2-166"/>
			<path class="st0" d="M737.2,646.5h29.1c0,0,1.1,2.8,2.7,8c7.5,24.1,26.3,99.1-2.8,174h-31"/>
			<path class="st0" d="M769.2,820.5h79c0,0,30.7-93.8-5-163h-74"/>
			<line class="st1" x1="1207.2" y1="669.5" x2="847.2" y2="669.5"/>
			<line class="st0" x1="1299.1" y1="669.5" x2="847.2" y2="669.5"/>
			<line class="st1" x1="1207.2" y1="817.5" x2="850.2" y2="817.5"/>
			<line class="st0" x1="1299.9" y1="817.5" x2="850.2" y2="817.5"/>
			<line class="st1" x1="-11.8" y1="661.5" x2="397.2" y2="661.5"/>
			<line class="st0" x1="-11.8" y1="661.5" x2="397.2" y2="661.5"/>
			<line class="st1" x1="-11.8" y1="807.5" x2="395.2" y2="807.5"/>
			<line class="st0" x1="-11.8" y1="807.5" x2="395.2" y2="807.5"/>
			<rect x="-60" y="-1" class="st2" width="1299.1" height="1334"/>
		</g>
		<path class="st3" d="M620,947.5v51 M1268.4,948v51 M620,973.5h240.6 M1026,973.5h240.6"/>
	</g>
</g>
<g id="Layer_1">
	<g>
		<defs>
			<rect id="SVGID_1_" x="13.2" y="-245.6" width="1299.1" height="1334"/>
		</defs>
		<clipPath id="SVGID_2_">
			<use xlink:href="#SVGID_1_"  style="overflow:visible;"/>
		</clipPath>
	</g>
	<rect x="13.2" y="-245.6" class="st4" width="1299.1" height="1334"/>
	<g>
		<defs>
			<rect id="SVGID_3_" x="13.2" y="-245.6" width="1299.1" height="1334"/>
		</defs>
		<clipPath id="SVGID_4_">
			<use xlink:href="#SVGID_3_"  style="overflow:visible;"/>
		</clipPath>
		<path class="st5" d="M695.4,367.9h127.5v-6h458v271h-332v-137H762.4c0,0-19-0.5-34-16.5s-32-27-33-48S695.4,367.9,695.4,367.9z"/>
		<rect x="949.4" y="632.9" class="st5" width="318" height="36.5"/>
		<path class="st5" d="M1052.2,632.9h-51.5c-7.9,0-14.3-6.4-14.3-14.3s6.4-14.3,14.3-14.3h51.5c7.9,0,14.3,6.4,14.3,14.3
			S1060,632.9,1052.2,632.9z"/>
		<path class="st5" d="M1211.7,632.9h-51.5c-7.9,0-14.3-6.4-14.3-14.3s6.4-14.3,14.3-14.3h51.5c7.9,0,14.3,6.4,14.3,14.3
			S1219.6,632.9,1211.7,632.9z"/>
		<circle class="st5" cx="800.2" cy="400.2" r="15.8"/>
		<circle class="st5" cx="724.4" cy="400.2" r="15.8"/>
		<path class="st6" d="M50.9,340.9h402v64h-202v146.3c0,15.8-12.8,28.7-28.7,28.7H79.6c-15.8,0-28.7-12.8-28.7-28.7V340.9z"/>
		<rect x="563" y="366.4" class="st5" width="115" height="18"/>
		<path class="st5" d="M772.4,35.4H525.5c-29.5,0-53.5,23.6-54.1,53l-5,252.5h365l-5-252.5C825.9,59,801.8,35.4,772.4,35.4z"/>
		<rect x="608.4" y="415.9" class="st7" width="26.2" height="15.9"/>
		<rect x="608.4" y="415.9" class="st5" width="26.2" height="15.9"/>
		<path class="st7" d="M625.4,447.7c0,0,4-1,3.9-3.5s0-28.3,0-28.3h-15.4v22.5"/>
		<path class="st5" d="M625.4,447.7c0,0,4-1,3.9-3.5s0-28.3,0-28.3h-15.4v22.5"/>
		<path class="st7" d="M627.7,445.2L627.7,445.2c0,1.4-1.1,2.7-2.5,2.7L519,451.4c-1.4,0-2.7-1.1-2.7-2.5c0-1.4,1.1-2.7,2.5-2.7
			l106.2-3.5C626.4,442.6,627.6,443.7,627.7,445.2"/>
		<path class="st5" d="M627.7,445.2L627.7,445.2c0,1.4-1.1,2.7-2.5,2.7L519,451.4c-1.4,0-2.7-1.1-2.7-2.5c0-1.4,1.1-2.7,2.5-2.7
			l106.2-3.5C626.4,442.6,627.6,443.7,627.7,445.2z"/>
		<path class="st7" d="M518.8,441.1c0,0-2.7-2.6,0.5-4.2c0.7-0.4,1.6-0.5,2.4-0.5l103.3,1.2"/>
		<path class="st5" d="M518.8,441.1c0,0-2.7-2.6,0.5-4.2c0.7-0.4,1.6-0.5,2.4-0.5l103.3,1.2"/>
		<path class="st7" d="M627.7,440.2L627.7,440.2c0,1.4-1.1,2.7-2.5,2.7L519,446.4c-1.4,0-2.7-1.1-2.7-2.5c0-1.4,1.1-2.7,2.5-2.7
			l106.2-3.5C626.4,437.6,627.6,438.7,627.7,440.2"/>
		<path class="st5" d="M627.7,440.2L627.7,440.2c0,1.4-1.1,2.7-2.5,2.7L519,446.4c-1.4,0-2.7-1.1-2.7-2.5c0-1.4,1.1-2.7,2.5-2.7
			l106.2-3.5C626.4,437.6,627.6,438.7,627.7,440.2z"/>
		<rect x="596.3" y="412.9" class="st7" width="50.7" height="3"/>
		<rect x="596.3" y="412.9" class="st5" width="50.7" height="3"/>
		<path class="st7" d="M518.2,350.4h-19c-2.6,0-4.7-2.1-4.7-4.7v-4.8h28.5v4.8C522.9,348.3,520.8,350.4,518.2,350.4"/>
		<path class="st5" d="M518.2,350.4h-19c-2.6,0-4.7-2.1-4.7-4.7v-4.8h28.5v4.8C522.9,348.3,520.8,350.4,518.2,350.4z"/>
		<path class="st7" d="M800.2,350.4h-19c-2.6,0-4.7-2.1-4.7-4.7v-4.8h28.5v4.8C804.9,348.3,802.8,350.4,800.2,350.4"/>
		<path class="st5" d="M800.2,350.4h-19c-2.6,0-4.7-2.1-4.7-4.7v-4.8h28.5v4.8C804.9,348.3,802.8,350.4,800.2,350.4z"/>
		<path class="st7" d="M830.9,341.2c0,0,8-2.3,15,9.3v12"/>
		<path class="st5" d="M830.9,341.2c0,0,8-2.3,15,9.3v12"/>
		<path class="st5" d="M698.6,444.9c0,0-20.7-9.5-20.7-26.5v-34l-25.5,28.5h-62.5l-27.2-28"/>
		<line class="st5" x1="476.9" y1="341.4" x2="476.9" y2="368.4"/>
		<line class="st5" x1="530.9" y1="341.4" x2="530.9" y2="366.4"/>
		<line class="st5" x1="524.9" y1="366.4" x2="524.9" y2="341.4"/>
		<line class="st5" x1="513.9" y1="366.4" x2="513.9" y2="350.4"/>
		<polygon class="st5" points="563,378.1 452.9,378.1 452.9,368.4 478.4,368.4 478.8,366.4 563,366.4 		"/>
	</g>
	<rect x="994.7" y="629.8" class="st1" width="61.2" height="203.1"/>
	<rect x="994.7" y="629.8" class="st0" width="61.2" height="203.1"/>
	<rect x="1155.4" y="629.8" class="st1" width="61.2" height="203.1"/>
	<rect x="1155.4" y="629.8" class="st0" width="61.2" height="203.1"/>
	<g>
		<defs>
			<rect id="SVGID_5_" x="13.2" y="-245.6" width="1299.1" height="1334"/>
		</defs>
		<clipPath id="SVGID_6_">
			<use xlink:href="#SVGID_5_"  style="overflow:visible;"/>
		</clipPath>
		<path class="st8" d="M1041.4,629.8h-31V615c0-5.8,4.7-10.5,10.5-10.5h9.9c5.8,0,10.5,4.7,10.5,10.5V629.8z"/>
		<path class="st8" d="M1201.5,629.8h-31V615c0-5.8,4.7-10.5,10.5-10.5h9.9c5.8,0,10.5,4.7,10.5,10.5V629.8z"/>
		<path class="st8" d="M1045.9,738.3l-38.1,12.2c-1.6,0.5-3.4-0.4-3.9-2c-0.5-1.6,0.4-3.4,2-3.9l38.1-12.2c1.6-0.5,3.4,0.4,3.9,2
			C1048.5,736,1047.6,737.7,1045.9,738.3z"/>
		<path class="st8" d="M1045.9,754.5l-38.1,12.2c-1.6,0.5-3.4-0.4-3.9-2c-0.5-1.6,0.4-3.4,2-3.9l38.1-12.2c1.6-0.5,3.4,0.4,3.9,2
			C1048.5,752.2,1047.6,754,1045.9,754.5z"/>
		<path class="st8" d="M1045.9,769.6l-38.1,12.2c-1.6,0.5-3.4-0.4-3.9-2c-0.5-1.6,0.4-3.4,2-3.9l38.1-12.2c1.6-0.5,3.4,0.4,3.9,2
			C1048.5,767.4,1047.6,769.1,1045.9,769.6z"/>
		<path class="st8" d="M1045.9,690.5l-38.1,12.2c-1.6,0.5-3.4-0.4-3.9-2c-0.5-1.6,0.4-3.4,2-3.9l38.1-12.2c1.6-0.5,3.4,0.4,3.9,2
			C1048.5,688.2,1047.6,690,1045.9,690.5z"/>
		<path class="st8" d="M1045.9,706.8l-38.1,12.2c-1.6,0.5-3.4-0.4-3.9-2c-0.5-1.6,0.4-3.4,2-3.9l38.1-12.2c1.6-0.5,3.4,0.4,3.9,2
			C1048.5,704.5,1047.6,706.3,1045.9,706.8z"/>
		<path class="st8" d="M1045.9,721.9l-38.1,12.2c-1.6,0.5-3.4-0.4-3.9-2c-0.5-1.6,0.4-3.4,2-3.9L1044,716c1.6-0.5,3.4,0.4,3.9,2
			C1048.5,719.6,1047.6,721.4,1045.9,721.9z"/>
		<path class="st8" d="M1045.9,643.9l-38.1,12.2c-1.6,0.5-3.4-0.4-3.9-2c-0.5-1.6,0.4-3.4,2-3.9L1044,638c1.6-0.5,3.4,0.4,3.9,2
			C1048.5,641.6,1047.6,643.4,1045.9,643.9z"/>
		<path class="st8" d="M1045.9,660.2l-38.1,12.2c-1.6,0.5-3.4-0.4-3.9-2c-0.5-1.6,0.4-3.4,2-3.9l38.1-12.2c1.6-0.5,3.4,0.4,3.9,2
			C1048.5,657.9,1047.6,659.6,1045.9,660.2z"/>
		<path class="st8" d="M1045.9,675.3l-38.1,12.2c-1.6,0.5-3.4-0.4-3.9-2c-0.5-1.6,0.4-3.4,2-3.9l38.1-12.2c1.6-0.5,3.4,0.4,3.9,2
			C1048.5,673,1047.6,674.8,1045.9,675.3z"/>
		<path class="st8" d="M1045.9,783.1l-38.1,12.2c-1.6,0.5-3.4-0.4-3.9-2c-0.5-1.6,0.4-3.4,2-3.9l38.1-12.2c1.6-0.5,3.4,0.4,3.9,2
			C1048.5,780.9,1047.6,782.6,1045.9,783.1z"/>
		<path class="st8" d="M1045.9,797.9l-38.1,12.2c-1.6,0.5-3.4-0.4-3.9-2c-0.5-1.6,0.4-3.4,2-3.9L1044,792c1.6-0.5,3.4,0.4,3.9,2
			C1048.5,795.7,1047.6,797.4,1045.9,797.9z"/>
		<path class="st8" d="M1046.9,812.8l-38.1,12.2c-1.6,0.5-3.4-0.4-3.9-2c-0.5-1.6,0.4-3.4,2-3.9l38.1-12.2c1.6-0.5,3.4,0.4,3.9,2
			C1049.4,810.5,1048.5,812.3,1046.9,812.8z"/>
		<path class="st8" d="M1205.5,738.3l-38.1,12.2c-1.6,0.5-3.4-0.4-3.9-2c-0.5-1.6,0.4-3.4,2-3.9l38.1-12.2c1.6-0.5,3.4,0.4,3.9,2
			C1208,736,1207.1,737.7,1205.5,738.3z"/>
		<path class="st8" d="M1205.5,754.5l-38.1,12.2c-1.6,0.5-3.4-0.4-3.9-2c-0.5-1.6,0.4-3.4,2-3.9l38.1-12.2c1.6-0.5,3.4,0.4,3.9,2
			C1208,752.2,1207.1,754,1205.5,754.5z"/>
		<path class="st8" d="M1205.5,769.6l-38.1,12.2c-1.6,0.5-3.4-0.4-3.9-2c-0.5-1.6,0.4-3.4,2-3.9l38.1-12.2c1.6-0.5,3.4,0.4,3.9,2
			C1208,767.4,1207.1,769.1,1205.5,769.6z"/>
		<path class="st8" d="M1205.5,690.5l-38.1,12.2c-1.6,0.5-3.4-0.4-3.9-2c-0.5-1.6,0.4-3.4,2-3.9l38.1-12.2c1.6-0.5,3.4,0.4,3.9,2
			C1208,688.2,1207.1,690,1205.5,690.5z"/>
		<path class="st8" d="M1205.5,706.8l-38.1,12.2c-1.6,0.5-3.4-0.4-3.9-2c-0.5-1.6,0.4-3.4,2-3.9l38.1-12.2c1.6-0.5,3.4,0.4,3.9,2
			C1208,704.5,1207.1,706.3,1205.5,706.8z"/>
		<path class="st8" d="M1205.5,721.9l-38.1,12.2c-1.6,0.5-3.4-0.4-3.9-2c-0.5-1.6,0.4-3.4,2-3.9l38.1-12.2c1.6-0.5,3.4,0.4,3.9,2
			C1208,719.6,1207.1,721.4,1205.5,721.9z"/>
		<path class="st8" d="M1205.5,643.9l-38.1,12.2c-1.6,0.5-3.4-0.4-3.9-2c-0.5-1.6,0.4-3.4,2-3.9l38.1-12.2c1.6-0.5,3.4,0.4,3.9,2
			C1208,641.6,1207.1,643.4,1205.5,643.9z"/>
		<path class="st8" d="M1205.5,660.2l-38.1,12.2c-1.6,0.5-3.4-0.4-3.9-2c-0.5-1.6,0.4-3.4,2-3.9l38.1-12.2c1.6-0.5,3.4,0.4,3.9,2
			C1208,657.9,1207.1,659.6,1205.5,660.2z"/>
		<path class="st8" d="M1205.5,675.3l-38.1,12.2c-1.6,0.5-3.4-0.4-3.9-2c-0.5-1.6,0.4-3.4,2-3.9l38.1-12.2c1.6-0.5,3.4,0.4,3.9,2
			C1208,673,1207.1,674.8,1205.5,675.3z"/>
		<path class="st8" d="M1205.5,783.1l-38.1,12.2c-1.6,0.5-3.4-0.4-3.9-2c-0.5-1.6,0.4-3.4,2-3.9l38.1-12.2c1.6-0.5,3.4,0.4,3.9,2
			C1208,780.9,1207.1,782.6,1205.5,783.1z"/>
		<path class="st8" d="M1205.5,797.9l-38.1,12.2c-1.6,0.5-3.4-0.4-3.9-2c-0.5-1.6,0.4-3.4,2-3.9l38.1-12.2c1.6-0.5,3.4,0.4,3.9,2
			C1208,795.7,1207.1,797.4,1205.5,797.9z"/>
		<path class="st8" d="M1206.4,812.8l-38.1,12.2c-1.6,0.5-3.4-0.4-3.9-2c-0.5-1.6,0.4-3.4,2-3.9l38.1-12.2c1.6-0.5,3.4,0.4,3.9,2
			C1209,810.5,1208.1,812.3,1206.4,812.8z"/>
	</g>
	<path class="st9" d="M583.3,367.4h73.4c4.6,0,8.3,3.7,8.3,8.3v16c0,4.6-3.7,8.3-8.3,8.3h-73.4c-4.6,0-8.3-3.7-8.3-8.3v-16
		C574.9,371.2,578.7,367.4,583.3,367.4z M600.2,400.1l-4.6,5.5c-0.6,0.7-0.4,1.8,0.4,2.3l2.7,1.5l-1,1.4c-0.4,0.6-0.1,1.3,0.5,1.5
		l4.5,1.6h38.3l3.3-2.1c1-0.6,1-2.1-0.1-2.7l-3.2-1.7l4-2.9c0.8-0.6,0.9-1.7,0.2-2.4l-2.1-2 M620.2,400.4v-33"/>
	<path class="st3" d="M160.6,738.2h51 M161.1,35.4h51 M186.6,738.2V319.6 M186.6,199.6V37.5"/>
	<g>
		<path d="M198.5,244.3h-21.7l-2.2,14.6c1.3-0.2,2.5-0.3,4.6-0.3c4.4,0,8.8,1,12.3,3.1c4.5,2.5,8.1,7.4,8.1,14.6
			c0,11.1-8.8,19.4-21.2,19.4c-6.2,0-11.5-1.8-14.2-3.5l1.9-5.9c2.4,1.4,7,3.2,12.2,3.2c7.3,0,13.5-4.7,13.5-12.3
			c-0.1-7.4-5-12.6-16.4-12.6c-3.2,0-5.8,0.4-7.9,0.6l3.7-27.3h27.2V244.3z"/>
		<path d="M221.5,234.7c-2,7.4-5.8,16.7-8.1,20.8l-4.9,0.6c1.8-5.2,4.2-14.3,5.2-20.6L221.5,234.7z M234.5,234.7
			c-2,7.4-5.8,16.7-8.1,20.8l-4.9,0.6c1.9-5.2,4.2-14.3,5.2-20.6L234.5,234.7z"/>
		<path d="M265.4,248.1v20.6h19.8v5.3h-19.8v20.8h-5.6V274H240v-5.3h19.8v-20.6H265.4z"/>
	</g>
	<g>
		<path d="M949.5,948.5h-21.7l-2.2,14.6c1.3-0.2,2.5-0.3,4.6-0.3c4.4,0,8.8,1,12.3,3.1c4.5,2.5,8.1,7.4,8.1,14.6
			c0,11.1-8.8,19.4-21.2,19.4c-6.2,0-11.5-1.8-14.2-3.5l1.9-5.9c2.4,1.4,7,3.2,12.2,3.2c7.3,0,13.5-4.7,13.5-12.3
			c-0.1-7.4-5-12.6-16.4-12.6c-3.2,0-5.8,0.4-7.9,0.6l3.7-27.3h27.2V948.5z"/>
		<path d="M972.5,939c-2,7.4-5.8,16.7-8.1,20.8l-4.9,0.6c1.8-5.2,4.2-14.3,5.2-20.6L972.5,939z M985.5,939c-2,7.4-5.8,16.7-8.1,20.8
			l-4.9,0.6c1.9-5.2,4.2-14.3,5.2-20.6L985.5,939z"/>
	</g>
</g>
</svg>
