<?xml version="1.0" encoding="utf-8"?>
<!-- Generator: Adobe Illustrator 21.0.0, SVG Export Plug-In . SVG Version: 6.00 Build 0)  -->
<svg version="1.1" id="Layer_1" xmlns="http://www.w3.org/2000/svg" xmlns:xlink="http://www.w3.org/1999/xlink" x="0px" y="0px"
	 viewBox="0 0 824 581" style="enable-background:new 0 0 824 581;" xml:space="preserve">
<style type="text/css">
	.st0{fill:none;stroke:#808080;stroke-width:0.51;stroke-miterlimit:10;}
	.st1{fill:none;stroke:#000000;stroke-width:0.709;stroke-linecap:round;stroke-linejoin:round;stroke-miterlimit:10;}
	.st2{fill:none;stroke:#000000;stroke-miterlimit:10;}
</style>
<path class="st0" d="M625.5,424.9h-2.8 M624.1,426.3v-2.8 M623.1,425.9l2-2 M623.1,423.9l2,2 M617.2,428.8h-2.9 M615.7,430.2v-2.8
	 M614.7,429.8l2-2 M614.7,427.8l2,2"/>
<path class="st1" d="M329.6,284.7l0.1,0.4l0.5,0.4 M544,285.5l0.5-0.4l0.1-0.4 M330.5,286.1l-0.2-0.2l-0.1-0.4 M543.7,286.1l0.2-0.2
	l0.1-0.4 M459,334.6l-0.1,0.4l-0.2,0.2 M456.1,335.2l-0.3-0.2v-0.4 M418.5,334.6l-0.1,0.4l-0.2,0.2 M415.6,335.2l-0.2-0.2l-0.1-0.4
	 M330.2,285.5l-0.4-4.3 M544,285.5l0.4-4.5 M455.8,334.6l-2.1-1.2 M420.4,333.5l-1.9,1.1 M418.5,334.6v-2.2 M415.3,334.6v-4.1
	 M455.8,332.2v2.4 M459,330.4v4.2 M192.9,283.7l2.4,0.2 M213.2,295.5l2.1,0.2 M182.7,279.3l-12.3-7.2 M202.9,291.2l-2.3-1.4
	 M242.5,314.4L212,296.5 M290.7,342.7l-18.9-11.1 M307.6,329.8l-12-7.1 M216.8,295.3l28.3,16.6 M171.3,268.6l14.1,8.2 M459.3,71.8
	l1-0.4l0.9-0.3l0.9,0.1l0.8,0.2v0.1 M418.6,71.8l-0.9-0.4l-0.9-0.3l-0.9,0.1l-0.8,0.2H415 M337,116.5h0.1l0.7-0.3h0.9l0.9,0.2l1,0.5
	 M323,129.2l0.2-0.1l0.4,0.1l0.6,0.3l0.8,0.4l0.9,0.5 M321.9,162.7l-3.2-8.4l-1.1-8.6l0.4-2.1 M539.8,115.8L539.8,115.8l-0.8-0.3
	h-0.9l-0.9,0.3l-1,0.4 M551.7,132.5l0.2,1l-0.7,3.9l-2,3.9l-3.3,3.6l-4.6,3.3 M334.2,168.8l80.6,46.5 M439.1,174.9l-80.5-46.4
	 M567.3,345.9V343 M421.8,334.3l-28.7,16.9 M462.3,359.8l5.1-3 M435.4,375.6l21.6-12.7 M453.8,368.6l-12.8,7.5 M496.4,377.1
	l90.2,52.1 M477.4,366.1l6.3,3.7 M488.9,368.2l-9-5.2 M590.6,426.9l-90.2-52 M504.4,372.6l90.2,52 M483.9,360.7l9,5.2 M599.2,435.3
	h0.3l4,0.7l4.1,0.2l4.2-0.2l4-0.7l1.8-0.6 M594.6,424.6l-0.4,0.3h-0.1 M611.8,431.4L611.8,431.4l-4.2,0.2h-1.9 M371.4,434.8l9.5,5.5
	 M376.8,427.9l-0.2-0.3 M376.7,427.7L376.7,427.7l-0.1-0.1 M377.3,429.1h-0.1l-0.1-0.1l-0.1-0.1v-0.1 M376.7,427.6l-0.1-0.1
	l-0.1-0.1l-0.1-0.1l-0.1-0.1 M376.8,428.3L376.8,428.3L376.8,428.3l0.2,0.2h0.1h0.1 M392,387.4h0.1l0.1,0.1h0.1h0.1h0.1h0.1
	 M392,387.4l2.4-1.5 M392.8,387.3L392.8,387.3L392.8,387.3L392.8,387.3l0.2,0.2l0.1,0.1l0.1,0.1 M395.5,384.8h0.1h0.1h0.1l0.2,0.1
	l0.2,0.1 M377.6,420.6h-0.1l0.1,0.2l0.1,0.1l0.1,0.1l0.2,0.2 M387.2,395.3L387.2,395.3h0.1l0.1,0.1l0.2,0.1l0.1,0.1 M376.5,423
	l0.2,0.1l0.1,0.1v0.1h0.1l0.1,0.1v0.1 M388.5,391.6l0.2,0.1l0.1,0.1l0.1,0.1l0.1,0.1v0.1 M387.5,394.5l1-2.9 M376.5,423l0.8-2
	 M401.7,380.1l-0.6,0.5l-2.5,2.1l-2.4,2.3 M421.5,452.3v-4.6l0.7-5.5l1.4-5.7l2.1-5.8l2.7-5.6l3.3-5.4l3.7-5.1l4.1-4.4l4.3-3.8
	 M472.8,408.3l-1.7-2.4l-2.6-2.4l-3.2-1.5l-3.7-0.6l-3.9,0.4l-4.2,1.2 M423.8,455.4l0.4,1.8l1.5,3.9l2,3.1l2.7,2.4l3.2,1.5l3.6,0.6
	h0.8 M228.2,378.9l-0.3,1.6l-1.2,1.9l-2.2,1.7l-2.8,1.2l-3.4,0.7l-3.6,0.2l-3.5-0.4l-3.1-1l-2.6-1.5l-1.7-1.8l-0.7-2l-0.1-0.6
	 M168.1,344.2l-0.3,1.6l-1.2,1.9l-2.2,1.7l-2.9,1.2l-3.3,0.7l-3.6,0.2l-3.5-0.5l-3.1-1l-2.6-1.4l-1.7-1.8l-0.8-2.1v-0.5 M229,431.2
	L229,431.2l0.2-0.2l0.1-0.1v-0.2l0.1-0.3 M232,431.2L232,431.2l-0.2-0.2l-0.1-0.1v-0.2l-0.1-0.3 M200.8,368.5l-0.2-0.1h-0.2h-0.2
	H200 M199.7,370.5l-0.2-0.1l-0.2-0.2l-0.1-0.2v-0.2 M238.6,434L238.6,434l0.1-0.1l0.1-0.2l0.1-0.2v-0.2 M236.9,434L236.9,434
	l-0.1-0.1l-0.1-0.2l-0.1-0.2v-0.2 M199.7,370.5v7.8 M203.3,372.6l-3.6-2.1 M227.7,431.9l0.1-0.1l0.1-0.1l0.1-0.3v-0.2 M198.2,424.1
	l0.2,1.8l1.3,2.3l2.2,2.1l3,1.7l3.6,1.3l4,0.7l4.2,0.1l4.1-0.4l3.9-1l3.3-1.5 M203.6,374.7h0.2h0.2h0.2l0.2,0.1 M228,389.7l-3.3,1.5
	l-3.9,1l-4.1,0.5l-4.2-0.2l-4-0.7l-3.6-1.2l-3-1.8l-2.2-2l-1.3-2.4l-0.2-2 M202,367.8l-1.2,0.7 M200.8,368.5l1.6,0.9 M204.7,374.6
	l-0.3,0.2 M168.9,396.4L168.9,396.4l0.1-0.1l0.1-0.1l0.1-0.3v-0.2 M171.9,396.4L171.9,396.4l-0.2-0.1l-0.1-0.1l-0.1-0.3v-0.2
	 M140.7,333.8l-0.2-0.1h-0.2h-0.2h-0.2 M139.6,335.8l-0.2-0.1l-0.2-0.2l-0.1-0.2v-0.2 M178.4,399.3L178.4,399.3l0.2-0.1l0.1-0.2
	v-0.2l0.1-0.2 M176.8,399.3L176.8,399.3l-0.1-0.1l-0.1-0.2l-0.1-0.2v-0.2 M139.6,335.8v7.7 M143.2,337.9l-3.6-2.1 M167.5,397.2
	l0.2-0.1l0.1-0.2v-0.2l0.1-0.2 M138,389.3l0.3,1.9l1.3,2.3l2.1,2.1l3,1.7l3.6,1.2l4.1,0.8l4.2,0.1l4.1-0.4l3.8-1l3.4-1.5 M143.5,340
	h0.2h0.2h0.2l0.2,0.1 M167.9,355l-3.4,1.5l-3.8,1l-4.1,0.5l-4.2-0.2l-4.1-0.7l-3.6-1.3l-3-1.7l-2.1-2.1l-1.3-2.3l-0.3-2
	 M141.9,333.1l-1.2,0.7 M140.7,333.8l1.5,0.9 M144.6,339.9l-0.3,0.2 M313.9,395l0.4,0.3 M328.3,330.2l0.7-0.6 M326.8,325.4l0.5-0.5
	 M245.2,432.5l-0.3,0.9 M257.2,438.7l-0.2,0.7 M239.9,385.8l0.4,0.3 M253.8,360.3l0.4,0.3 M185,397.8l-0.3,0.9 M197.1,404l-0.3,0.7
	 M179.7,351.1l0.5,0.3 M474.1,344l0.1,0.6l0.3,0.7l0.5,0.5l0.7,0.5 M657.8,410.3l0.8-0.5l0.5-0.5l0.3-0.6l0.1-0.7 M475.7,339.4v6.9
	 M475.7,346.3l141.5,82.6 M625.2,429l32.6-18.7 M657.8,403.4v6.9 M617.2,422v6.9 M617.2,428.9l0.8,0.5l1,0.3l1.1,0.2h1.1h1.1l1-0.2
	l1-0.3l0.9-0.4 M625.2,422v7 M489.8,333l2.9-1.2l3.4-0.7l3.6-0.1l3.5,0.6l3,1.1l2.4,1.5l1.4,1.9l0.4,2.1l-0.7,2l-1.7,1.9l-2.5,1.4
	l-3.2,1l-3.5,0.4l-3.6-0.2l-3.3-0.9l-2.7-1.3l-1.9-1.8l-0.9-2l0.1-2l1.2-2L489.8,333 M611.4,404l2.9-1.2l3.4-0.7l3.6-0.1l3.4,0.6
	l3.1,1.1l2.3,1.5l1.4,1.9l0.4,2.1l-0.6,2l-1.7,1.9l-2.5,1.4l-3.2,1l-3.5,0.4l-3.6-0.2l-3.3-0.9l-2.7-1.3l-1.9-1.8l-1-2l0.2-2.1
	l1.2-1.9L611.4,404 M597.6,376.2l2.9-1.2l3.4-0.7l3.6-0.1l3.5,0.5l3,1.2l2.4,1.5l1.4,1.9l0.4,2.1l-0.7,2l-1.6,1.9l-2.6,1.4l-3.2,1
	l-3.5,0.4l-3.6-0.3l-3.3-0.8l-2.7-1.3l-1.9-1.8l-0.9-2l0.1-2.1l1.2-1.9L597.6,376.2 M537.9,341.3l2.8-1.2l3.4-0.7l3.6-0.1l3.5,0.5
	l3,1.1l2.4,1.6l1.4,1.9l0.4,2.1l-0.7,2l-1.6,1.8l-2.6,1.5l-3.1,1l-3.6,0.4l-3.5-0.3l-3.3-0.8l-2.8-1.4l-1.9-1.7l-0.9-2l0.1-2.1
	l1.2-1.9L537.9,341.3 M475.7,334.7l32.7-18.6 M475.7,339.4l-0.7-0.5l-0.5-0.6l-0.3-0.6l-0.1-0.6l0.1-0.7l0.3-0.6l0.5-0.6l0.7-0.5
	 M617.2,422l-141.5-82.6 M625.2,422l-0.9,0.4l-1,0.3l-1,0.2l-1.1,0.1l-1.1-0.1l-1.1-0.2l-1-0.3l-0.8-0.4 M657.8,403.4L625.2,422
	 M657.9,398.8l0.7,0.5l0.5,0.5l0.3,0.6l0.1,0.7l-0.1,0.6l-0.3,0.6l-0.5,0.6l-0.8,0.5 M516.4,316.1l141.5,82.7 M508.4,316.1l0.9-0.4
	l0.9-0.3l1.1-0.2h1.1h1.1l1.1,0.2l1,0.3l0.8,0.4 M330.2,285.5l85.1,49.1 M459,334.6l85-49.1 M415.3,334.6l0.7,0.3l0.9,0.1l0.8-0.1
	l0.8-0.3 M455.8,334.6l0.7,0.3l0.9,0.1l0.8-0.1l0.8-0.3 M194,282.3l0.4,0.8l0.9,0.8 M190.8,272.4l-0.1-0.5V270l0.1-0.5 M213.9,294.8
	l1.4,0.9 M195.3,283.9l6.9,4.1 M253.8,317.1l0.7,1.3l0.9,0.8 M250.8,307.2v-1.9l0.2-0.5 M273.9,330.1l1.2,0.7 M255.4,319.2l9.2,5.4
	 M255.4,319.2l-1.5-0.1 M171.3,268.6l-0.7-0.5l-0.5-0.6l-0.3-0.6l-0.1-0.7 M272.1,330.8l3.5,0.3 M276.9,330.6l-1.3,0.6l-1.8,0.1
	l-1.7-0.5 M258.5,322.8l5.2,3 M216.8,295.3l-1.4,0.6l-1.8,0.1l-0.4-0.2 M204.1,290.8l-8.6-5 M170.4,272.1l0.2-0.5l0.2-0.4l0.2-0.5
	l0.1-0.4l0.1-0.5l0.1-0.4V269v-0.4 M163.5,285.5l6.9-13.4 M172.4,290.7l-8.9-5.2 M232.2,325.9l-30.5-18 M283.8,356.1l-22.3-13
	 M311.6,293.5v33.9 M308.8,333.9l-0.1-0.2l-0.3-0.5l-0.3-0.6l-0.2-0.6l-0.1-0.7l-0.1-0.7l-0.1-0.8 M317.5,338.1l2-2.9 M319.5,335.2
	l-6.9-5.4 M312.6,329.8l-0.2-0.2l-0.2-0.2l-0.2-0.3l-0.1-0.2l-0.1-0.4l-0.1-0.3v-0.4l-0.1-0.4 M295.6,336.8v-52.7 M290.7,342.7
	l0.2-0.4l0.2-0.5l0.1-0.4l0.2-0.5l0.1-0.4V340l0.1-0.4v-0.4 M290.7,342.7l-6.9,13.4 M283.8,356.1l3,1.2 M293.7,343.8l-6.9,13.5
	 M295.6,336.8v0.9l-0.1,0.8l-0.2,0.9l-0.2,0.9l-0.2,0.9l-0.4,0.9l-0.3,0.9l-0.5,0.8 M307.6,291.2v38.6 M187.4,158.5v-14.2
	 M308.9,229.9l-133.6-78.5 M187.4,144.3l122.9,72.2 M310.7,212.1L191.4,142 M183.4,142l0.8-0.4l1-0.3l1.1-0.2l1.1-0.1l1.1,0.1l1,0.2
	l1,0.3l0.9,0.4 M183.4,142l-12.1,7 M171.3,153.8l-0.7-0.6l-0.5-0.5l-0.3-0.7l-0.1-0.6l0.1-0.7l0.3-0.6l0.5-0.6l0.7-0.5 M175.3,151.4
	l12.1-7.1 M186.9,275.5l-0.2-1.3v-1.8l0.5-1.5l0.9-1.1l1.2-0.5l1.5,0.1l1.6,0.7 M212.4,281.9l-20-11.8 M212.4,281.9l1.6,1.2l1.5,1.6
	l1.2,2l0.9,2l0.5,2.1v1.9l-0.4,1.5l-0.9,1.1 M246.9,310.3l-0.1-0.8v-1.8l0.5-1.5l0.9-1.1l1.2-0.4l1.5,0.1l1.6,0.6 M272.6,317.2
	l-20.1-11.8 M272.6,317.2l1.6,1.2l1.4,1.7l1.3,1.9l0.9,2.1l0.4,2v1.9l-0.4,1.5l-0.9,1.1 M276.9,330.6l14.7,8.6 M291.6,281.7v57.5
	 M291.6,281.7l67.9,39.9 M373.6,323.2l-1.4,0.7l-1.6,0.4l-1.7,0.1h-1.8l-1.8-0.4l-1.9-0.5l-2-0.9l-1.9-1 M381.9,318.6l-8.3,4.6
	 M384,317l-0.7,0.7l-1.4,0.9 M171.3,153.8l137.2,80.5 M171.3,268.6V153.8 M624.4,438.7L448.8,336.2 M658.7,419.1v-4.6 M624.4,438.7
	v-4.6 M658.7,419.1l-34.3,19.6 M658.7,414.5l-34.3,19.6 M654.6,412.2l4.1,2.3 M491,316.6l8.2,4.8 M624.4,434.1L452.9,333.9
	 M444.1,83.8V85 M515.4,125v1.1 M333.3,258.1l1-0.6 M305.6,262.3v0.6l0.3,2l1,1.9l1.7,1.8l2.2,1.6 M404.6,299.2l1-0.6 M325.9,130.4
	l7.1-7.9l7.6-5.6 M325.9,130.4l-3.9,7.5l-1.7,8.2l0.1,8.4l1.5,8.2 M551.3,277.1l4-2.8l3.2-3.2l2.1-3.4l1.1-3.5l0.1-2.8 M358.6,127.3
	l-4.2,2.9l-4.1,3.5l-3.9,4.3l-3.5,4.7l-3.1,5.1l-2.6,5.4l-2,5.5l-1.3,5.4l-0.7,5.2 M328.6,249l1-0.5 M433.9,85v-1.2 M517.4,128.5
	v-0.2l-0.4-0.8l-0.7-0.7l-0.9-0.7 M515.4,126.1L444.1,85 M444.1,85l-1.1-0.5l-1.2-0.4l-1.4-0.2l-1.4-0.1l-1.4,0.1l-1.3,0.2l-1.3,0.4
	l-1.1,0.5 M358.6,128.5L433.9,85 M433.8,132.1l1.4,0.6l1.7,0.3l1.7-0.1l1.6-0.4l1.3-0.6l0.9-0.9l0.2-1l-0.3-1l-0.8-0.9l-1.3-0.7
	l-1.6-0.3l-1.8-0.1l-1.7,0.3l-1.4,0.6l-1,0.8l-0.4,1l0.1,1l0.7,0.9L433.8,132.1 M454.3,126.3l-2.4,1.9l-1.6,2.2l-0.5,2.3l0.5,2.3
	l1.6,2.2l2.4,1.9l3.3,1.4l3.7,0.9l4.1,0.3l4-0.3l3.8-0.9l3.2-1.4l2.5-1.9l1.5-2.2l0.6-2.3l-0.6-2.3l-1.5-2.2l-2.5-1.9l-3.2-1.4
	l-3.8-0.9l-4-0.3l-4.1,0.3l-3.7,0.9L454.3,126.3 M413.7,111.4l-1.7,1.4l-0.8,1.7l0.3,1.7l1.2,1.5l2.1,1.2l2.7,0.7l2.9,0.2l2.9-0.5
	l2.4-0.9l1.7-1.4l0.7-1.7l-0.2-1.7l-1.3-1.5l-2-1.2l-2.7-0.8l-3-0.1l-2.8,0.4L413.7,111.4 M405.6,298.6l1,0.5l1,0.2l0.9-0.1h0.3
	 M329.6,248.5l4.6-79.7 M329.6,248.5v1.2l0.3,1.3l0.4,1.3l0.6,1.3l0.7,1.2l0.8,1.1l1,0.9l0.9,0.7 M334.3,257.5l71.3,41.1
	 M440.1,174.3l75.3-43.4 M444.1,83.8l-1.1-0.5l-1.2-0.4l-1.4-0.2l-1.4-0.1l-1.4,0.1l-1.3,0.2l-1.3,0.4l-1.1,0.5 M515.4,125
	l-71.3-41.2 M515.4,130.9l0.9-0.7l0.7-0.7l0.4-0.8l0.1-0.8l-0.1-0.8l-0.4-0.8l-0.7-0.7l-0.9-0.6 M536.2,116.2l3.4,2.3l2.7,2.9
	l1.8,3.1l0.6,3.4l-0.6,3.4l-1.8,3.2l-2.7,2.9l-3.4,2.3 M459.3,71.8l76.9,44.4 M418.6,71.8l4.1-1.9l4.9-1.6l5.5-1l5.9-0.4l5.9,0.4
	l5.5,1l4.9,1.6l4,1.9 M340.6,116.9l78-45.1 M358.6,127.3l-18-10.4 M433.9,83.8l-75.3,43.5 M536.2,139.7l-78,45.1 M541.3,148.2
	l-0.1-1.2l-0.3-1.2l-0.5-1.3l-0.7-1.2l-0.7-1.1l-0.9-1l-0.9-0.8l-1-0.7 M334.2,168.8l0.8-5.6l1.6-5.9l2.3-5.9l3.1-5.7l3.6-5.3
	l4.1-4.8l4.4-4l4.5-3.1 M410.1,296.1l4.6-79.8 M321.9,162.7l11.3,6.6 M310.8,270.2l11.1-107.5 M310.8,270.2l113.5,65.5 M404.6,299.2
	l1,0.5l1,0.2l0.9-0.1l0.8-0.3l0.7-0.6l0.5-0.7l0.4-1l0.2-1.1 M333.3,258.1l71.3,41.1 M328.6,249v1.3l0.3,1.3l0.4,1.3l0.5,1.3
	l0.8,1.2l0.8,1.1l1,0.9l0.9,0.7 M333.2,169.3l-4.6,79.7 M458.2,184.8l0.9,0.6l1,0.9l0.8,1l0.8,1.1l0.6,1.2l0.5,1.3l0.3,1.2l0.2,1.2
	 M541.3,148.2l10,128.9 M463.3,193.3l78-45.1 M451.8,204.3l5.4-6.4l6.1-4.6 M551.3,277.1l-101.6,58.6 M458.2,184.8l-7.5,5.6
	l-6.9,8.1 M458.2,184.8l-18.1-10.5 M440.1,174.3l-4.2,2.9l-4.1,3.6l-3.9,4.2l-3.6,4.7l-3.1,5.2l-2.5,5.3l-2,5.5l-1.3,5.4l-0.7,5.2
	 M414.7,216.3l11.4,6.6 M443.8,198.5l1.1,0.6l1.1,0.7l1.1,0.7l1.1,0.8l1.1,0.8l1,0.8l0.8,0.7l0.7,0.7 M426.1,222.9l3.4-5.4l4.3-5.8
	l5-6.4l5-6.8 M451.8,204.3l-6.5,5.9l-7.1,5.1l-6.6,4.2l-5.5,3.4 M426.1,222.9l-1.8,112.8 M424.3,335.7l2.7,1.3l3.1,1l3.4,0.6
	l3.5,0.2l3.5-0.2l3.4-0.6l3.1-1l2.7-1.3 M449.7,335.7l2.1-131.4 M565.5,333.1l-24.8-14.6 M540.7,318.5l-4.1,2.3 M569,346.9l0.8-0.3
	l3-0.5l3.1,0.1l2.8,0.7l2.3,1.2l1,0.9 M687.2,493.3L687.2,493.3l1.2-1l0.9-1.5l0.6-1.8l0.2-2.2 M628.8,381.8l1.8-0.5l3.1-0.3l3,0.3
	l2.7,0.9l2,1.3l0.5,0.5 M565.5,333.1l1.6-0.5l1.3,0.2 M627.9,381.3v-3.8 M686.1,489.1l-0.2,2.2l-0.6,1.8l-0.9,1.5l-1.2,1l-1.6,0.6
	h-1.7l-1.8-0.4l-2-0.9 M536.6,320.8l24.9,14.6 M536.6,327.9v-7.1 M611.3,438.7v-1.5 M621.3,462.9l-1.9-1.4l-1.9-1.7l-1.7-2.1
	l-1.5-2.3l-1.3-2.5l-0.6-1.6 M676.1,494.9l-54.8-32 M690.1,405.8l-28.9-16.9 M657.2,391.2l28.9,16.9 M686.1,408.1v81 M690.1,486.8
	l-4,2.3 M690.1,486.8v-81 M690.1,405.8l-4,2.3 M627.9,377.5l3.1-0.9l3.5-0.2l3.3,0.5l2.7,1.3l1.8,1.7l0.5,2l-0.8,1.9l-1.9,1.7
	 M637.6,386.9l2.5-1.4 M627.9,377.5l-3.3,1.8 M567.3,343l-2.5,1.4 M567.3,343l2.9-1.1l3.4-0.5l3.4,0.4l2.9,1l2.1,1.6l1,1.9l-0.4,2
	l-1.6,1.8 M577.7,352l3.3-1.9 M565.5,333.1l91.7,53.5 M555.4,338.9l10.1-5.8 M657.2,386.6l0.8-0.3l0.7-0.2h0.7l0.6,0.2l0.5,0.5
	l0.4,0.6l0.2,0.7l0.1,0.8 M657.2,386.6l-10.2,5.8 M651,394.8l6.2-3.6 M661.2,388.9l-4,2.3 M472.3,127.9v0.2 M471.3,128.1v-0.2
	 M469.3,129.1v0.2 M469.3,129.3h-0.1l-0.1,0.1v0.1 M472.5,128.3L472.5,128.3l-0.1-0.1l-0.1-0.1 M472.3,128.1h-0.1l-0.1-0.1H472h-0.2
	h-0.1h-0.1l-0.2,0.1h-0.1 M471.3,128.1l-2,1.2 M474.3,131.5v-0.2 M475.2,131.9v-0.1l-0.1-0.1H475l-0.1-0.1h-0.1l-0.2-0.1h-0.1h-0.2
	 M474.3,131.5l-0.1,0.1h-0.1l-0.1,0.1h-0.1l-0.1,0.1 M456.9,132.7v0.4l0.7,1.6l1.8,1.5l2.4,1l3,0.4l3-0.2l2.7-0.8l2-1.2l1.2-1.7
	l0.2-1 M467.4,127.3L467.4,127.3L467.4,127.3l-0.2-0.2h-0.1h-0.2l-0.1-0.1 M475.2,131.7v0.2 M475.3,132.6l-0.1-0.7 M466.8,127
	l-3.3,0.1l-3.1,0.6l-2.5,1.3l-1.7,1.6l-0.7,1.8v0.2 M466.8,127v-0.2 M466.8,126.8l-3.3,0.1l-3.1,0.6l-2.5,1.2l-1.7,1.6l-0.7,1.9
	l0.4,1.9l1.4,1.7l2.3,1.3l3,0.9l3.2,0.2l3.3-0.4l2.8-1l2.1-1.5l1.1-1.7l0.1-1.9 M466.8,126.8L466.8,126.8l0.3,0.1h0.1l0.1,0.1v0.1
	h0.1v0.1v0.1 M467.4,127.3l-0.1,0.1l-0.1,0.1h-0.1l-0.1,0.1h-0.1h-0.2h-0.1 M466.6,127.6l-3,0.1l-2.8,0.6l-2.2,1.2l-1.4,1.6
	l-0.3,1.7l0.7,1.7l1.8,1.4l2.4,1l3,0.5l3-0.2l2.7-0.8l2-1.3l1.2-1.6l0.1-1.7 M473.8,131.8L473.8,131.8v-0.2v-0.1h0.1l0.1-0.1h0.1
	l0.1-0.1h0.1 M474.3,131.3h0.2h0.1h0.2l0.1,0.1h0.1l0.1,0.1l0.1,0.1v0.1 M471.3,127.9l-2,1.2 M471.3,127.9l0.1-0.1h0.2h0.1h0.1h0.2
	h0.1h0.1l0.1,0.1 M472.3,127.9L472.3,127.9l0.2,0.1v0.1v0.1v0.1l-0.1,0.1l-0.1,0.1 M472.3,128.5l-2,1.1 M470.3,129.6l-0.1,0.1h-0.1
	h-0.2l-0.1,0.1l-0.1-0.1h-0.2h-0.1l-0.1-0.1 M469.3,129.6h-0.1l-0.1-0.1v-0.1v-0.1v-0.1l0.1-0.1h0.1 M454.3,138.8l3.3,1.5l3.7,0.9
	l4.1,0.3l4-0.3l3.8-0.9l3.2-1.5l2.5-1.8l1.5-2.2l0.6-2.3l-0.6-2.4l-1.5-2.1l-2.5-1.9l-3.2-1.4l-3.8-0.9l-4-0.3l-4.1,0.3l-3.7,0.9
	l-3.3,1.4l-2.4,1.9l-1.6,2.1l-0.5,2.4l0.5,2.3l1.6,2.2L454.3,138.8 M413.7,118.4l2.4,0.9l2.8,0.5l3-0.2l2.7-0.7l2-1.2l1.3-1.5
	l0.2-1.7l-0.7-1.7l-1.7-1.4l-2.4-1l-2.9-0.4l-2.9,0.1l-2.7,0.8l-2.1,1.2l-1.2,1.5l-0.3,1.7l0.8,1.7L413.7,118.4 M475.3,365.6
	l12.1-6.9 M473.6,367l1.7-1.4 M475.3,361v4.6 M488.3,368.5l8.1-4.6 M488.3,368.5l-3,1.2l-3.5,0.4l-3.6-0.5l-2.9-1.1l-2-1.8l-0.7-2
	l0.7-2l2-1.7 M483.4,356.4l-8.1,4.6 M457.8,362.3l18.1-10.3 M485.7,378.6l-27.9-16.3 M457.8,362.3l-0.8,0.6l-0.8,0.7l-0.7,0.8
	l-0.6,0.9l-0.5,1l-0.3,1l-0.3,1l-0.1,1 M485.7,383.3l22.1-12.7 M503.8,368.3l-18.1,10.3 M485.7,378.6l-1.6,1.3l-1.3,1.7l-0.8,2
	l-0.4,2 M604.3,541.8L604.3,541.8l1.3-1.1l0.9-1.4l0.5-1.9l0.2-2.1 M596.9,436.6l12.1-6.9 M576.5,436.3l-90.8-53 M481.6,385.6
	l4.1-2.3 M595.1,438l1.8-1.4 M596.9,431.9v4.7 M528.5,429.1v64.8 M538.4,511.3l-1.9-1.3l-1.9-1.8l-1.7-2.1l-1.5-2.3l-1.2-2.5l-1-2.5
	l-0.5-2.5l-0.2-2.4 M593.2,543.3l-54.8-32 M603.2,537.6l-0.2,2.1l-0.6,1.9l-0.9,1.4l-1.2,1.1l-1.5,0.5l-1.7,0.1l-1.9-0.5l-2-0.9
	 M575.3,440.3l-93.7-54.7 M481.6,385.6l-27.9-16.3 M453.7,385.5v-16.2 M528.5,429.1l-74.8-43.6 M609.8,439.5l8.1-4.6 M609.8,439.5
	l-3,1.2l-3.5,0.4l-3.5-0.5l-3-1.1l-2-1.8l-0.6-2l0.7-2l2-1.8 M605,427.3l-8.1,4.6 M645.5,427.8l-1-0.6 M597.5,423l-18.2,10.3
	 M607.2,449.6l-27.9-16.3 M579.3,433.3l-1.5,1.3l-1.3,1.7l-0.9,2l-0.3,2 M603.2,456.6l-27.9-16.3 M603.2,456.6v81 M603.2,537.6
	l4-2.3 M607.2,535.3v-81 M607.2,454.3l38.3-21.9 M645.5,427.8v4.6 M645.5,427.8l-38.3,21.8 M607.2,449.6l-1.5,1.3l-1.3,1.7l-0.9,2
	l-0.3,2 M550.4,343.3l0.1-0.7 M542.3,343.3l-0.1-0.7 M548.6,347.2l-0.2-3.4 M546.4,348.1v-3.8 M544.1,347.2l0.2-3.4 M549.4,349.2
	l0.3-3 M543.4,349.2l-0.4-3 M550.4,349.7l0.2-2.3 M542.4,349.7l-0.2-2.3 M550.4,343.3l0.3,0.1l0.3,0.1l0.3,0.2l0.2,0.1l0.3,0.2
	l0.2,0.1v0.1 M548.6,347.2l1.8-3.9 M547.5,348.4l0.5-0.5l0.6-0.7 M544.1,347.2l1.2,1.2 M542.3,343.3l1.8,3.9 M540.7,344.2v-0.1
	l0.3-0.1l0.2-0.2l0.3-0.1l0.3-0.2l0.2-0.1l0.3-0.1 M550.5,342.6l-2.1,1.2 M552.6,343.8l-0.2-0.2l-0.2-0.1l-0.3-0.2l-0.2-0.1
	l-0.3-0.2l-0.3-0.1l-0.3-0.2l-0.3-0.1 M550.6,345l2-1.2 M549.7,346.2l0.9-1.2 M550.6,347.4l-0.9-1.2 M552.6,348.6l-2-1.2
	 M550.5,349.8l0.3-0.1l0.3-0.1l0.3-0.2l0.3-0.1l0.2-0.2l0.3-0.2l0.2-0.1l0.2-0.2 M548.4,348.6l2.1,1.2 M546.4,348.1l2,0.5
	 M544.3,348.6l2.1-0.5 M542.2,349.8l2.1-1.2 M540.1,348.6l0.2,0.2l0.3,0.1l0.2,0.2l0.3,0.2l0.3,0.1l0.2,0.2l0.3,0.1l0.3,0.1
	 M542.2,347.4l-2.1,1.2 M543,346.2l-0.8,1.2 M542.2,345l0.8,1.2 M540.1,343.8l2.1,1.2 M542.2,342.6l-0.3,0.1l-0.3,0.2l-0.2,0.1
	l-0.3,0.2l-0.3,0.1l-0.2,0.2l-0.3,0.1l-0.2,0.2 M544.3,343.8l-2.1-1.2 M546.4,344.3l-2.1-0.5 M548.4,343.8l-2,0.5 M538.4,341.6
	l2.7-1.1l3.2-0.7h3.3l3.3,0.5l2.8,1l2.2,1.5l1.3,1.7l0.4,1.9l-0.6,1.9l-1.6,1.8l-2.4,1.3l-2.9,0.9l-3.3,0.4l-3.3-0.2l-3.1-0.8
	l-2.5-1.3l-1.8-1.6l-0.9-1.9l0.1-1.9l1.1-1.8L538.4,341.6 M494.3,335l-0.1-0.7 M502.4,335l0.1-0.7 M500.6,338.9l-0.2-3.4
	 M498.4,339.9V336 M496.1,338.9l0.2-3.4 M501.3,340.9l0.4-3 M495.4,340.9l-0.4-3 M502.3,341.5l0.2-2.4 M494.4,341.5l-0.2-2.4
	 M502.4,335l0.3,0.2l0.3,0.1l0.2,0.1l0.3,0.2l0.3,0.1l0.2,0.2 M500.6,338.9l1.8-3.9 M499.5,340.1l0.5-0.5l0.6-0.7 M496.1,338.9
	l1.2,1.2 M494.3,335l1.8,3.9 M492.7,335.9L492.7,335.9l0.2-0.2l0.3-0.1l0.3-0.2l0.2-0.1l0.3-0.1l0.3-0.2 M502.5,334.3l-2.1,1.2
	 M504.6,335.6l-0.2-0.2l-0.2-0.2l-0.3-0.2l-0.3-0.1l-0.2-0.2l-0.3-0.1l-0.3-0.1l-0.3-0.2 M502.5,336.8l2.1-1.2 M501.7,337.9l0.8-1.1
	 M502.5,339.1l-0.8-1.2 M504.6,340.3l-2.1-1.2 M502.5,341.6l0.3-0.2l0.3-0.1l0.3-0.1l0.2-0.2l0.3-0.2l0.3-0.1l0.2-0.2l0.2-0.2
	 M500.4,340.4l2.1,1.2 M498.4,339.9l2,0.5 M496.3,340.4l2.1-0.5 M494.2,341.6l2.1-1.2 M492.1,340.3l0.2,0.2l0.3,0.2l0.2,0.1l0.3,0.2
	l0.2,0.2l0.3,0.1l0.3,0.1l0.3,0.2 M494.2,339.1l-2.1,1.2 M495,337.9l-0.8,1.2 M494.2,336.8l0.8,1.1 M492.1,335.6l2.1,1.2
	 M494.2,334.3l-0.3,0.2l-0.3,0.1l-0.3,0.1l-0.2,0.2l-0.3,0.1l-0.2,0.2l-0.3,0.2l-0.2,0.2 M496.3,335.5l-2.1-1.2 M498.4,336l-2.1-0.5
	 M500.4,335.5l-2,0.5 M490.4,333.4l2.7-1.2l3.2-0.6l3.3-0.1l3.2,0.5l2.9,1l2.2,1.5l1.3,1.8l0.4,1.9l-0.6,1.9l-1.6,1.7l-2.4,1.4
	l-2.9,0.9l-3.3,0.3l-3.4-0.2l-3-0.8l-2.6-1.2l-1.7-1.7l-0.9-1.8l0.1-2l1.1-1.8L490.4,333.4 M615.9,406l-0.1-0.7 M624,406v-0.7
	 M622.2,409.9l-0.2-3.4 M619.9,410.9V407 M617.6,409.9l0.2-3.4 M622.9,411.9l0.3-3 M616.9,411.9l-0.3-3 M615.9,412.5l-0.2-2.4
	 M623.9,412.5l0.2-2.4 M624,406l0.2,0.1l0.3,0.2l0.3,0.1l0.3,0.2l0.2,0.1l0.2,0.2h0.1 M622.2,409.9l1.8-3.9 M621,411.1l0.6-0.5
	l0.6-0.7 M617.6,409.9l1.2,1.2 M615.9,406l1.7,3.9 M614.2,406.9h0.1l0.2-0.2l0.3-0.1l0.2-0.2l0.3-0.1l0.3-0.2l0.3-0.1 M624,405.3
	l-2,1.2 M626.2,406.6l-0.3-0.2l-0.2-0.2l-0.2-0.2l-0.3-0.1l-0.3-0.2l-0.3-0.1l-0.3-0.1l-0.3-0.2 M624.1,407.7l2.1-1.1 M623.2,408.9
	l0.9-1.2 M624.1,410.1l-0.9-1.2 M626.2,411.3l-2.1-1.2 M624,412.5l0.3-0.1l0.3-0.1l0.3-0.2l0.3-0.1l0.3-0.2l0.2-0.1l0.2-0.2l0.3-0.2
	 M622,411.4l2,1.1 M619.9,410.9l2.1,0.5 M617.8,411.4l2.1-0.5 M615.8,412.5l2-1.1 M613.7,411.3l0.2,0.2l0.2,0.2l0.3,0.1l0.2,0.2
	l0.3,0.1l0.3,0.2l0.3,0.1l0.3,0.1 M615.7,410.1l-2,1.2 M616.6,408.9l-0.9,1.2 M615.7,407.7l0.9,1.2 M613.7,406.6l2,1.1 M615.8,405.3
	l-0.3,0.2l-0.3,0.1l-0.3,0.1l-0.3,0.2l-0.2,0.1l-0.3,0.2l-0.2,0.2l-0.2,0.2 M617.8,406.5l-2-1.2 M619.9,407l-2.1-0.5 M622,406.5
	l-2.1,0.5 M612,404.4l2.7-1.2l3.1-0.6l3.4-0.1l3.2,0.5l2.8,1l2.2,1.5l1.4,1.8l0.3,1.9l-0.6,1.9l-1.6,1.7l-2.3,1.4l-3,0.9l-3.3,0.3
	l-3.3-0.2l-3.1-0.8l-2.5-1.2l-1.8-1.7l-0.9-1.8l0.2-2l1.1-1.8L612,404.4 M610.2,378.2l0.1-0.7 M602.1,378.2l-0.1-0.7 M608.4,382.1
	l-0.2-3.4 M606.2,383v-3.8 M603.9,382.1l0.2-3.4 M609.1,384.1l0.4-3 M603.2,384.1l-0.4-3 M610.1,384.6l0.2-2.3 M602.2,384.6
	l-0.2-2.3 M610.2,378.2l0.3,0.1l0.3,0.2l0.3,0.1l0.2,0.1l0.3,0.2l0.2,0.1v0.1 M608.4,382.1l1.8-3.9 M607.3,383.3l0.5-0.5l0.6-0.7
	 M603.9,382.1l1,1 M602.1,378.2l1.8,3.9 M600.5,379.1V379l0.3-0.1l0.2-0.2l0.3-0.1l0.2-0.1l0.3-0.2l0.3-0.1 M610.3,377.5l-2.1,1.2
	 M612.4,378.7l-0.2-0.1l-0.2-0.2l-0.3-0.2l-0.2-0.1l-0.3-0.2l-0.3-0.1l-0.3-0.2l-0.3-0.1 M610.3,379.9l2.1-1.2 M609.5,381.1l0.8-1.2
	 M610.3,382.3l-0.8-1.2 M612.4,383.5l-2.1-1.2 M610.3,384.7l0.3-0.1l0.3-0.1l0.3-0.2l0.3-0.1l0.2-0.2l0.3-0.1l0.2-0.2l0.2-0.2
	 M608.2,383.5l2.1,1.2 M606.2,383l2,0.5 M604.1,383.5l2.1-0.5 M602,384.7l2.1-1.2 M599.9,383.5l0.2,0.2l0.3,0.2l0.2,0.1l0.3,0.2
	l0.2,0.1l0.3,0.2l0.3,0.1l0.3,0.1 M602,382.3l-2.1,1.2 M602.8,381.1l-0.8,1.2 M602,379.9l0.8,1.2 M599.9,378.7l2.1,1.2 M602,377.5
	l-0.3,0.1l-0.3,0.2l-0.3,0.1l-0.2,0.2l-0.3,0.1l-0.2,0.2l-0.3,0.2l-0.2,0.1 M604.1,378.7l-2.1-1.2 M606.2,379.2l-2.1-0.5
	 M608.2,378.7l-2,0.5 M598.2,376.5l2.7-1.1l3.2-0.6l3.3-0.1l3.2,0.5l2.9,1l2.2,1.5l1.3,1.7l0.4,2l-0.6,1.9l-1.6,1.7l-2.4,1.3
	l-2.9,0.9l-3.3,0.4l-3.3-0.2l-3.1-0.8l-2.6-1.2l-1.7-1.7l-0.9-1.9l0.1-1.9l1.1-1.8L598.2,376.5 M511.7,305.3l0.3-0.9 M499,312
	l1.2-0.2l6.7-2.5l0.2-0.1 M507.1,310l0.2-0.1l0.1-0.1 M496,313.7l4.6-0.5l7-2.7l4.7-4l1-2.8 M497.7,312.7l2.9-0.4l7-2.6l4.7-4
	l0.6-1.8 M497.5,312.8l2.9-0.3l6.7-2.5 M499.2,311.8l1.2-0.1l6.9-2.6l4.6-3.9l0.2-0.9 M403.1,363.8l-9.9,5.8 M467.4,356.8
	l-18.1-10.5 M393.1,358.1l44.8,25.8 M437.9,383.9l0.8,0.4l0.8,0.4l0.7,0.2l0.8,0.1h0.7l0.6-0.1l0.7-0.1l0.5-0.3 M443.5,384.5
	l10.2-5.9 M474,366.9l0.6-0.3l0.6-0.1l0.7-0.1h0.7l0.8,0.1 M453.8,368.8l-12.8,7.3 M441,376.1l-0.6,0.3l-0.6,0.2l-0.7,0.1l-0.7-0.1
	l-0.7-0.1l-0.8-0.2l-0.8-0.3l-0.7-0.4 M435.4,375.6l-42.3-24.4 M393.1,351.2l-1.2-0.6l-1.1-0.2h-1.1l-0.9,0.3l-0.7,0.6l-0.6,0.9
	l-0.3,1.1l-0.1,1.3 M387.1,354.6l0.1,11.5 M393.2,369.6l-6-3.5 M393.2,369.6l-0.1-11.5 M477.9,367.4l-0.2-0.2l-0.2-0.3l-0.1-0.3
	v-0.5 M477.3,364.4l0.1,1.7 M372,435.3l-0.3-0.2l-0.3-0.3 M360.3,420.5l6.8,9.3 M358.5,416.9l0.3,0.6l1.5,3 M367.1,429.8l4.3,5
	 M376.6,427.6L376.6,427.6l-0.3-0.4 M378,432.5l-0.1-0.2l-0.2-0.1V432l-0.1-0.1 M376.3,427.2l-17.8-10.3 M358.5,416.9l-0.2-0.6v-1
	l0.1-1.2l0.1-0.6 M376.8,428.1V428v-0.2l-0.1-0.1v-0.1 M376.3,423.8L376.3,423.8l0.2,0.1h0.1l0.1,0.1h0.1v0.1 M376.3,427.2l-0.1-0.7
	v-0.9v-1.1l0.1-0.7 M376.8,428.1v0.1v0.1 M376.8,428.1l-0.2-1.4l0.1-2.3l0.1-0.3 M376.8,424.1v0.1v0.1v0.1v0.1l0.1,0.2l0.1,0.1
	l0.1,0.1l0.1,0.1 M376.8,424.1l0.1-0.3 M377,423.5l-0.1,0.1v0.1v0.2l0.1,0.1v0.1l0.1,0.2l0.1,0.1l0.1,0.1 M388.8,367.1l-10.4,6
	 M378.4,373.1l-0.7,0.6l-4.1,3.7 M391.4,387.7l0.6-0.3 M373.6,377.4l17.8,10.3 M371,380.7l0.8-1.1l0.8-1l0.7-0.9l0.3-0.3 M389,392.1
	l0.3-0.6 M388.8,391L388.8,391l0.2,0.1l0.1,0.1h0.1v0.1v0.1h0.1v0.1 M391.4,387.7h0.2l0.1,0.1h0.1h0.1h0.1h0.1l0.1-0.1h0.1
	 M388.8,391l0.7-1l0.5-0.6l0.4-0.5l0.7-0.9l0.3-0.3 M389.3,391.5v-0.1h0.1h0.1h0.1h0.1h0.2h0.1 M392.3,387.7L392.3,387.7l0.1,0.1
	l0.1,0.1l0.1,0.1l0.1,0.1 M389.3,391.5l1-1.7l1.7-1.9l0.3-0.2 M389,392.1V392h0.1h0.1l0.1-0.1h0.2l0.1,0.1h0.1 M358.5,413.5
	l17.8,10.3 M376.3,423.8l0.2-0.8 M388.5,391.6h0.1l0.2-0.6 M388.8,391L371,380.7 M371,380.7l-0.7,1.1l-3.5,6 M366.8,387.8l-6.6,17.1
	 M360.2,404.9l-1.7,8.6 M378,420.2l-0.2,0.1l-0.1,0.1l-0.1,0.1v0.1 M387.4,395.5l-0.1-0.1h-0.1v-0.1 M378,420.2l0.5-3l0.7-3.2
	l0.9-3.1l1.1-3.2l1.3-3.1l1.5-3.1l1.6-3l1.8-3 M506.5,431.1l1.8,3.5 M508.3,438.1l-0.2,1.4l-1.5,7.2 M508.3,438.1l0.2-1.3v-1.1
	l-0.1-0.8l-0.1-0.3 M398.1,378l-0.1-11.2 M398.1,378l10.5,6.1 M465.1,488.9l0.4,0.4l0.8,0.1l0.9-0.1l0.5-0.2 M475.1,486.3l-1.1,0.4
	l-6.3,2.4 M396.2,385l-3,2.7 M393.2,387.7l-0.5,0.4 M392.7,388.1l-1.8,1.7l-0.9,1.6 M390,391.4l-0.3,0.6 M389.7,392l-2,3.6
	 M387.7,395.6l-1.8,3l-1.7,3.2l-1.5,3.2l-1.4,3.3l-1.1,3.2l-1,3.3l-0.7,3.2l-0.5,3.2 M378,421.2l-0.7,3.3 M377.3,424.5l-0.1,0.5
	 M377.2,425l-0.3,1.9l0.3,1.6 M377.2,428.5l0.1,0.6 M377.3,429.1l0.7,3.4 M378,432.5l0.6,2.5l0.8,2.3l1,2.1l1.2,1.9l1.3,1.7l1.6,1.4
	l1.5,1 M409.7,401l-3.6,5.2l-3.2,5.5l-2.7,5.8l-2.1,5.9l-1.4,5.8l-0.7,5.5v5.3l0.7,4.7l1.4,4.2l2.1,3.4l2.7,2.7l3.2,1.9l3.7,0.9
	l2.7,0.1 M448.7,393.3l9.3-5.4 M495.4,416.8l0.8,0.8l3.5,4.2 M495.4,416.8l-0.8-0.6l-0.8-0.2l-0.7,0.3l-0.3,0.3 M453.5,403h-0.1
	l-1.6,0.6l-4,2.2l-1.6,1.2l-1.2,1 M410.7,405.4l-3.4,5.2l-2.8,5.5l-2.3,5.7l-1.7,5.7l-0.9,5.5l-0.3,5.2l0.5,4.8l1.2,4.2l1.9,3.6
	l2.5,2.8l1.9,1.3 M443.8,406.4l0.2,0.1l0.2,0.2l0.2,0.2l0.1,0.2l0.2,0.2l0.1,0.3l0.1,0.2l0.1,0.2 M438.9,469.2l-3.1,0.2l-3.8-0.6
	l-3.3-1.6l-2.8-2.4l-2.2-3.3l-1.4-4l-0.8-4.6v-0.6 M452.7,401.2l4.3-1.3l4.1-0.3l3.8,0.6l3.3,1.5l2.8,2.5l2.1,3.2l0.5,1.1
	 M453.5,403v-0.3v-0.2l-0.1-0.3l-0.1-0.3l-0.1-0.2l-0.2-0.2l-0.2-0.2l-0.1-0.1 M445,408l-4.2,3.7l-3.9,4.3l-3.6,4.8l-3.2,5.2
	l-2.6,5.4l-2,5.6l-1.4,5.5l-0.6,5.3v5l0.3,2.6 M414.6,372.7l12.8,7.3 M414.6,370.5v2.2 M448.7,384.1l5-3 M401.2,364.9l8.7,5
	 M417.9,374.6l0.4,1.9l1.4,2.1l2.3,1.8 M422,380.4l3.1,1.3l3.6,0.8l3.8,0.3l2.9-0.3 M448.7,393.3v-9.2 M409.9,369.9l-1.1,2.8
	l-0.2,2.8l0.8,2.8l1.8,2.7l2.7,2.3l3.5,2l4.1,1.5l4.6,1l4.8,0.4l4.9-0.2l4.7-0.8l4.4-1.3l3.8-1.8 M408.8,395.2l0.9,5.8 M409.7,401
	l1,2 M410.7,405.4V403 M410.7,405.4l3.4,4l4.9,2.4l5.5,0.5l6.7-1.1l8.1-2.8l4.5-2 M443.8,406.4l2.9-1.5l5-3l1-0.7 M452.7,401.2
	l1.9-1.7l1.1-2.3v-0.1 M449.8,480.1l15.3,8.8 M465.1,488.9l-0.2-0.5l-1.6-3 M452.2,471l-15.3-8.8 M427.4,380l2.9-0.4 M427.3,377.8
	l0.1,2.2 M466.9,404.9l-1.3-0.7l-3.4-0.9l-3.8,0.1l-4,0.9l-4.1,1.8l-4.2,2.7l-4.1,3.4l-3.8,4.1l-3.6,4.6l-3.1,5l-2.6,5.3l-2,5.4
	l-1.4,5.3l-0.6,5.2v4.8l0.7,4.3l1.5,3.7l2,3l2.7,2.2l0.2,0.2 M452.2,467.6l-0.5,1.1l-0.1,1l0.3,1l0.3,0.3 M456.5,476l-4.3-5
	 M444.6,362.3l4.7-10.2 M449.2,340.6l0.1,11.5 M441.6,344.5l-0.3-0.5l-1.4-1.7l-2.3-1.3l-2.9-0.9l-3.3-0.2l-3.2,0.4l-2.8,1l-2.1,1.5
	l-1.2,1.8 M488,420.9l0.7-0.7l4.1-3.6 M492.8,416.6l-15.4-8.9 M480.3,473.6l-2.4,1.8l-5.7,1.7l-4.9-0.7l-0.6-0.5 M491.3,428.5l2.9,2
	l2.6,5.1l0.7,6 M476.4,471.4l-0.7,0.6l-5.8,2.5l-4.3,0.1 M490.1,428.5l2.1,3l1.3,6.3l-0.1,1.8 M472.3,469.1l-4.7,2.6l-3.8,0.6
	 M487.8,428.9l1.5,4.5v3.9 M468.3,466.7l-2.9,1.9l-2.3,0.7 M485,429.8l0.4,5.3 M464.3,464.4l-1.1,0.9l-0.6,0.3 M481.5,431.4
	l-0.1,1.3 M452,422.6l15.3,8.9 M414.5,357.7l12.7,7.4 M414.4,346.2l0.1,11.5 M461.5,413.5l-3.4,2.2l-4,3.4l-3.9,4.1l-3.6,4.6l-3.1,5
	l-2.6,5.3l-2,5.4l-1.3,5.4l-0.7,5.1l-0.1,2.2 M449.4,425.9l0.7-0.8l0.8-0.9l0.6-0.8l0.5-0.8 M477.4,407.7l-2.9,0.7l-6.4,2l-6,2.7
	l-4.5,3.2l-3.6,3.6l-2,2.7 M477.4,407.7l1.1-0.2h0.8l0.6,0.1 M450.5,480.6l-0.7-0.5 M436.9,462.2l0.7,2.5l1.8,3.4l2.5,3.3l3.3,3.9
	l4.6,4.8 M436.9,462.2l-0.1-0.5v-0.8v-1v-1.2 M467.3,431.5l4.1-1.5l3.3-1.3 M467.3,431.5l-1.1,0.6l-0.8,0.9l-0.5,1.2l-0.2,0.6
	 M482.4,433.3l-0.2-2.1 M462.5,466.8l2.7-1.8 M486.3,435.9v-4.2l-0.8-2.3 M463.3,470.1l1.3-0.1l4.7-2.7 M490.4,437.9l0.1-1.8
	l-1.4-6.3l-0.6-1 M464.2,472.8h2.7l5.7-2.5l0.8-0.6 M494.5,440.3l-0.7-6.4l-2.7-5.2l-0.6-0.4 M465.9,474.9l3.3,0.5l5.6-1.8l2.5-1.7
	 M498.3,442.5l-0.1-4.4l-2.1-5.7l-3.6-3.6 M462.5,464.7v2.1l1.4,5.7l3.1,3.8l4.6,1.4l5.5-1l4.2-2.5 M502.6,443l-0.3-5.3v-0.1
	 M501.5,444.3l-0.1-7.2 M483.6,476.7l0.7-0.7 M427.2,365.1l17.4-2.8 M444.6,350.7v11.6 M427.2,353.5v11.6 M429.5,337.8l-1.3,0.2
	l-2.8,1l-2.1,1.5l-1.2,1.8l-0.1,1.9l0.9,1.8l1.9,1.5 M424.8,347.5l2.7,1.1l3.1,0.5l3.3-0.1l3-0.7l2.5-1.2l1.7-1.7l0.6-1.8l-0.4-1.9
	l-1.4-1.7l-2.1-1.3 M423.6,335.3l-4.5,0.7 M419.1,336l-4.7,10.2 M414.4,346.2l12.8,7.3 M427.2,353.5l17.4-2.8 M444.6,350.7l4.6-10.1
	 M449.2,340.6l-4.8-2.8 M506.4,447.2l0.2-0.5 M506.6,446.7l0.4-2.2l0.2-2.1l0.2-2v-2v-2l-0.2-1.8l-0.3-1.8l-0.4-1.7 M506.5,431.1
	l-6.8-9.3 M499.7,421.8l-1.2-0.7l-1.4-0.4l-1.4-0.4l-1.4-0.2h-1.5l-1.6,0.1l-1.6,0.3l-1.6,0.4 M488,420.9l-13.3,7.8 M474.7,428.7
	l-1.7,1.5l-1.6,1.6l-1.5,1.7l-1.5,1.9l-1.5,1.8l-1.4,2l-1.3,2l-1.2,2.1 M456.4,460.5l-0.3,2.1l-0.3,2.1l-0.2,2.1v2l0.1,1.9l0.1,1.9
	l0.3,1.7l0.4,1.7 M456.5,476l6.8,9.4 M463.3,485.4l1.3,0.6l1.3,0.5l1.4,0.3l1.4,0.2h1.6l1.5-0.1l1.6-0.2l1.7-0.4 M475.1,486.3
	l13.3-7.8 M462.5,464.7l0.3-4.4l1-4.7l1.7-4.7l2.3-4.7l2.8-4.4l3.2-3.9l3.5-3.4l3.7-2.6 M481,431.9l4.9-2.7l6.3-1.1l5.1,1.8l3.6,4.4
	l1.7,6.8v1.9 M484.4,476l-0.8,0.7 M502.6,443v1.2l-0.1,0.7 M483.6,476.7l-4.9,2.4l-6.5,0.8l-5.3-2.1l-3.3-4.9l-1.2-6.9l0.1-1.3
	 M463,443.3l1.7-8.5 M464.7,434.8l-15.3-8.9 M449.4,425.9l-4.5,5.6l-3.9,6.8l-2.2,6l-1.3,6.6l-0.7,7.8 M436.8,458.7l15.4,8.9
	 M452.2,467.6l0.7-1.2l3.5-5.9 M463,443.3l-6.6,17.2 M-69.5,114.7l-1.8-0.7l-2.7-0.1l-3,0.9l-3,1.8l-3,2.5l-2.7,3.3L-88,126l-1.8,4
	l-1,3.9l-0.4,3.7l0.4,3.3l1,2.7l1.8,1.9l0.5,0.4 M850.6,652l-0.3-3.3l-1.1-2.7l-1.8-1.9l-2.3-1.1h-2.7l-2.9,0.8l-3.1,1.8l-3,2.6
	l-2.7,3.2l-2.3,3.7l-1.8,3.9l-1,3.9l-0.4,3.8l0.4,3.3l1,2.7l1.8,1.9l2.3,1l2.7,0.1l3-0.9l3.1-1.8l2.9-2.5l2.7-3.3l2.3-3.6l1.8-4
	l1.1-3.9L850.6,652 M848.1,653.4l-0.4-2.9l-1.1-2.3l-1.7-1.5l-2.3-0.5l-2.6,0.4l-2.8,1.4l-2.7,2.2l-2.5,2.9l-2,3.4l-1.4,3.5
	l-0.8,3.5v3.2l0.8,2.7l1.4,1.9l2,1l2.5,0.1l2.7-0.9l2.8-1.9l2.6-2.5l2.3-3.2l1.7-3.5l1.1-3.6L848.1,653.4 M203,381.3l0.1,0.5l0.7,2
	l1.7,1.8l2.6,1.5l3.1,1l3.5,0.4l3.6-0.1l3.4-0.7l2.8-1.3l2.2-1.6l1.2-2l0.3-1.5 M203,378.9l0.3-1.5l1.3-1.9l0.5-0.6 M226.2,374.9
	l1.2,1.5l0.8,2v0.5 M205.2,375l-0.1,0.1l-1.1,2l-0.2,2l0.9,2l1.9,1.7l2.7,1.4l3.3,0.8l3.5,0.2l3.5-0.4l3.1-0.9l2.5-1.5l1.6-1.8
	l0.7-2l-0.4-2L226,375 M205.9,378.4l0.2,1.1l1.2,1.7l2.1,1.4l2.7,1l3.1,0.4l3.2-0.3l2.9-0.8l2.2-1.3l1.5-1.6l0.4-1.6 M224.6,376
	l1.1-0.7l0.9-0.8l0.8-0.9l0.5-0.9 M228.7,350.4l-1.2-1.8l-0.9-0.8 M206.1,347l-3,2.2l-2.4,2.6 M203.4,372.7l0.5,0.9l0.7,0.9l0.9,0.8
	l1.1,0.7l1.3,0.7l1.4,0.5l1.5,0.4l1.5,0.3 M218.9,359l-3.6-7.8 M217.4,359.1l-2.1-4.6 M224.6,376l-1.2,0.7l-1.4,0.5l-1.5,0.4
	l-1.6,0.3l-1.6,0.2l-1.7,0.1l-1.6-0.1l-1.7-0.2 M210.1,352l3.3,7.1 M230.6,356.4l-1.7-5.4l-0.2-0.6 M205.1,372l-0.8,1.5H204
	l-0.5-0.5l-0.1-0.3 M200.7,351.8l1.7,2.2l0.2,0.5 M200.7,351.8l0.5,11.8 M203.4,372.7l-0.3-0.5l-0.3-1.2l-0.7-2.5l-0.9-4.9
	 M210.1,352l-2.8,1.2l-2,1.6l-0.3,0.4 M215.3,354.5l-0.7,0.1h-0.7l-0.6,0.1l-0.7,0.1l-0.6,0.1l-0.6,0.1 M215.3,354.5v-3.3
	 M226.3,355.2l-1.8-1.6l-2.6-1.3l-3.2-0.8l-3.4-0.3 M230.1,368.1l-2.2,4.2l-1.2,1.8l-1.5,1.5l-0.6,0.4 M230.6,356.4l-0.5,11.7
	 M225.2,358l3-1.3l2.4-0.3 M224.6,376l-0.4,0.2l-1,0.3l-1.4-0.3l-2.3-2 M202.6,354.5l1.1,2.9l1,3 M207.4,347.7l-2.1,1.6l-1.2,1.9
	l-0.1,2l0.9,2l1.9,1.7l2.6,1.3l3.2,0.8l3.5,0.2l3.4-0.4l3.1-0.9l2.4-1.4l1.7-1.8l0.6-2l-0.4-2l-1.4-1.8l-2.2-1.6l-3-1l-3.4-0.5h-3.4
	l-3.3,0.7L207.4,347.7 M219.1,344.9l-1.7-0.2h-1.8h-1.7l-1.8,0.2l-1.6,0.4l-1.6,0.4l-1.5,0.6l-1.3,0.7 M206.1,347l-1.2,0.7l-1,0.9
	l-0.7,0.9l-0.6,0.9l-0.3,1l-0.2,1.1l0.2,1l0.3,1 M202.6,354.5l0.6,0.9l0.7,1l1,0.8l1.2,0.8l1.3,0.6l1.5,0.6l1.6,0.5l1.6,0.3
	 M225.2,358l1.1-0.8l1-0.8l0.8-1l0.6-0.9l0.3-1l0.1-1l-0.1-1.1l-0.3-1 M228.7,350.4l-0.6-0.9l-0.8-0.9l-1-0.9l-1.1-0.7l-1.3-0.7
	l-1.5-0.6l-1.6-0.4l-1.7-0.4 M219.6,362.8l4.9-4.4l0.7-0.4 M212.1,360l1.8,0.2l1.7,0.1l1.8-0.1l1.7-0.2l1.7-0.3l1.6-0.5l1.5-0.6
	l1.3-0.6 M219.5,374.2l-2.9,2.6l-1.5,0.8l-1.9,0.4l-0.9-0.1 M219.6,362.8l-0.1,11.4 M212.1,360l4.2,1.2l3.3,1.6 M204.7,360.4
	l6.6-0.5l0.8,0.1 M204.7,360.4l0.4,11.6 M212.3,377.9l-0.5-0.1l-1.4-0.5l-2-1.5l-3.3-3.8 M142.9,346.6v0.5l0.8,2l1.7,1.8l2.6,1.5
	l3.1,1l3.5,0.4l3.6-0.1l3.3-0.7l2.9-1.3l2.2-1.6l1.2-2l0.3-1.5 M142.9,344.2l0.3-1.5l1.2-2l0.6-0.5 M166,340.2l1.3,1.5l0.8,2v0.5
	 M145.1,340.3l-0.1,0.1l-1.2,2l-0.1,2l0.9,2l1.9,1.7l2.7,1.3l3.2,0.9l3.5,0.2l3.5-0.4l3.2-0.9l2.5-1.5l1.6-1.8l0.7-2l-0.4-2
	l-1.1-1.6 M145.8,343.6l0.2,1.2l1.2,1.7l2,1.4l2.8,1l3.1,0.3l3.2-0.2l2.9-0.8l2.2-1.3l1.4-1.7l0.4-1.6 M164.5,341.3l1.1-0.7l0.9-0.8
	l0.7-0.9l0.6-0.9 M168.5,315.7l-1.1-1.8l-0.9-0.8 M146,312.2l-3.1,2.3l-2.4,2.6 M143.2,338l0.6,0.9l0.7,0.9l0.9,0.8l1.1,0.7l1.3,0.6
	l1.3,0.6l1.5,0.4l1.6,0.3 M158.8,324.2l-3.6-7.7 M157.3,324.4l-2.1-4.6 M164.5,341.3l-1.3,0.6l-1.3,0.6l-1.5,0.4l-1.6,0.3l-1.6,0.2
	l-1.7,0.1l-1.7-0.1l-1.6-0.2 M149.9,317.3l3.3,7.1 M170.5,321.7l-1.7-5.4l-0.3-0.6 M144.9,337.3l-0.7,1.4l-0.4,0.1l-0.4-0.5
	l-0.2-0.3 M140.5,317.1l1.7,2.2l0.3,0.5 M140.5,317.1l0.6,11.8 M143.2,338l-0.2-0.5l-0.4-1.2l-0.6-2.5l-0.9-4.9 M149.9,317.3
	l-2.7,1.2l-2.1,1.6l-0.3,0.4 M155.2,319.8h-0.7l-0.7,0.1l-0.7,0.1h-0.6l-0.7,0.2l-0.5,0.1 M155.2,319.8v-3.3 M166.2,320.5l-1.8-1.6
	l-2.6-1.3l-3.2-0.9l-3.4-0.2 M169.9,333.4l-2.2,4.2l-1.2,1.8l-1.4,1.5l-0.6,0.4 M170.5,321.7l-0.6,11.7 M165,323.3l3.1-1.3l2.4-0.3
	 M164.5,341.3l-0.4,0.2l-1,0.2l-1.4-0.3l-2.3-1.9 M142.5,319.8l1.1,2.9l0.9,3 M147.2,313l-2,1.6l-1.2,1.9l-0.1,2l0.9,2l1.8,1.7
	l2.7,1.3l3.2,0.8l3.4,0.2l3.5-0.4l3.1-0.9l2.4-1.4l1.6-1.8l0.7-2l-0.4-2l-1.4-1.8l-2.3-1.6l-2.9-1l-3.4-0.6l-3.5,0.1l-3.3,0.7
	L147.2,313 M159,310.2l-1.7-0.2h-1.8h-1.8l-1.7,0.2l-1.7,0.4l-1.5,0.4l-1.5,0.6l-1.3,0.6 M146,312.2l-1.2,0.8l-1,0.9l-0.8,0.9
	l-0.5,0.9l-0.4,1l-0.1,1.1l0.1,1l0.4,1 M142.5,319.8l0.5,0.9l0.8,0.9l1,0.9l1.2,0.8l1.3,0.6l1.5,0.6l1.5,0.5l1.7,0.3 M165,323.3
	l1.2-0.8l1-0.9l0.8-0.9l0.5-0.9l0.4-1l0.1-1l-0.1-1.1l-0.4-1 M168.5,315.7l-0.5-0.9l-0.8-0.9l-1-0.9l-1.2-0.8l-1.3-0.6l-1.4-0.6
	l-1.6-0.4l-1.7-0.4 M159.5,328l4.9-4.3l0.6-0.4 M152,325.3l1.7,0.2h1.8h1.8l1.7-0.2l1.7-0.3l1.6-0.5l1.4-0.6l1.3-0.6 M159.4,339.5
	l-2.9,2.6l-1.6,0.8l-1.9,0.4l-0.8-0.1 M159.5,328l-0.1,11.5 M152,325.3l4.2,1.1l3.3,1.6 M144.5,325.7l6.7-0.5l0.8,0.1 M144.5,325.7
	l0.4,11.6 M152.2,343.2l-0.6-0.1l-1.3-0.6l-2-1.4l-3.4-3.8 M244.1,430.3v0.2l-0.1,0.2l-0.1,0.2l-0.1,0.1 M200.8,368.5l-0.2,0.2
	l-0.2,0.2l-0.2,0.2l-0.2,0.3l-0.1,0.3l-0.1,0.3l-0.1,0.2v0.3 M231.6,430.4l-0.2-0.1l-0.3-0.1h-0.3l-0.3-0.1l-0.3,0.1h-0.3l-0.3,0.1
	l-0.2,0.1 M228,431.2l1.4-0.8 M229.4,430.4V389 M231.6,389l-0.2-0.2h-0.3l-0.3-0.1h-0.3h-0.3l-0.3,0.1h-0.3l-0.2,0.2 M229.4,389
	l-1.4,0.7 M228.2,387l0.2,0.1l0.2,0.2l0.2,0.3l0.2,0.2l0.2,0.3l0.1,0.3v0.3l0.1,0.3 M231.6,389v41.4 M231.6,430.4l5,2.9
	 M244.1,430.3v-41.5 M238.9,433.3l5.2-3 M231.6,389l0.1-0.3v-0.3l0.1-0.3l0.2-0.3l0.2-0.2l0.2-0.3l0.2-0.2l0.2-0.1 M236.6,391.8
	l-5-2.8 M243,386.8l0.2,0.2l0.2,0.2l0.2,0.2l0.2,0.3l0.1,0.3l0.1,0.3l0.1,0.2v0.3 M244.1,388.8l-5.2,3 M236.6,433.3v-41.5
	 M238.9,433.3l-0.3,0.1l-0.2,0.1h-0.3h-0.4h-0.3h-0.3l-0.3-0.1l-0.2-0.1 M238.9,391.8v41.5 M238.9,391.8l-0.3,0.1l-0.2,0.1l-0.3,0.1
	h-0.4h-0.3l-0.3-0.1l-0.3-0.1l-0.2-0.1 M238.9,391.8v-0.3l-0.1-0.2l-0.1-0.3l-0.1-0.3l-0.2-0.3l-0.2-0.2L238,390l-0.3-0.2
	 M236.6,391.8v-0.3l0.1-0.2l0.1-0.3l0.1-0.3l0.2-0.3l0.2-0.2l0.2-0.2l0.2-0.2 M228,431.2v-41.5 M226.8,387.8l0.3,0.1l0.2,0.2
	l0.2,0.3l0.2,0.2l0.1,0.3l0.1,0.3l0.1,0.3v0.2 M204.4,374.8l-2.5,1.9l-1.6,2.2l-0.5,2.4l0.5,2.4l1.6,2.2l2.5,1.9l3.3,1.4l3.8,0.9
	l4.1,0.3l4.1-0.3l3.9-0.9l3.2-1.4 M226.8,387.8l1.4-0.8 M232.8,387l-0.5-0.3l-0.6-0.1l-0.6-0.1l-0.6-0.1l-0.6,0.1l-0.6,0.1l-0.6,0.1
	l-0.5,0.3 M232.8,387l4.9,2.8 M237.7,389.8l5.3-3 M243,386.8l-2-1.1 M241,385.7l-3.2,1.8 M237.8,387.5l-9.4-5.4 M228.4,382.1
	l-0.2-0.2 M184,395.5v0.3l-0.1,0.2l-0.1,0.2l-0.2,0.1 M140.7,333.8l-0.2,0.2l-0.2,0.2l-0.2,0.2l-0.2,0.3l-0.2,0.3l-0.1,0.2v0.3v0.3
	 M171.5,395.7l-0.2-0.1l-0.3-0.1l-0.3-0.1h-0.3h-0.3l-0.4,0.1l-0.2,0.1l-0.3,0.1 M167.9,396.5l1.3-0.8 M169.2,395.7v-41.5
	 M171.5,354.2l-0.2-0.1L171,354h-0.3h-0.3h-0.3h-0.4l-0.2,0.1l-0.3,0.1 M169.2,354.2l-1.3,0.8 M168.1,352.3l0.2,0.1l0.2,0.2l0.2,0.3
	l0.2,0.2l0.1,0.3l0.1,0.3l0.1,0.3v0.2 M184,395.5v-41.4 M178.8,398.6l5.2-3.1 M171.5,354.2v41.5 M171.5,395.7l5,2.9 M171.5,354.2
	V354l0.1-0.3l0.1-0.3l0.2-0.3l0.1-0.2l0.2-0.3l0.2-0.2l0.3-0.1 M176.5,357.1l-5-2.9 M182.8,352.1l0.3,0.2l0.2,0.2l0.2,0.2l0.1,0.3
	l0.2,0.2l0.1,0.3l0.1,0.3v0.3 M184,354.1l-5.2,3 M176.5,398.6v-41.5 M178.8,398.6l-0.3,0.1l-0.3,0.1h-0.3h-0.3h-0.3H177l-0.3-0.1
	l-0.2-0.1 M178.8,357.1v41.5 M178.8,357.1l-0.3,0.1l-0.3,0.1l-0.3,0.1h-0.3h-0.3l-0.3-0.1l-0.3-0.1l-0.2-0.1 M178.8,357.1l-0.1-0.3
	v-0.3l-0.1-0.2l-0.2-0.3l-0.2-0.3l-0.2-0.2l-0.2-0.2l-0.2-0.2 M176.5,357.1v-0.3l0.1-0.3l0.1-0.2l0.1-0.3l0.2-0.3l0.2-0.2l0.2-0.2
	l0.2-0.2 M167.9,396.5V355 M166.7,353l0.2,0.2l0.3,0.2l0.2,0.2l0.1,0.3l0.2,0.3l0.1,0.3v0.3l0.1,0.2 M144.3,340.1l-2.5,1.9l-1.6,2.2
	l-0.6,2.4l0.6,2.3l1.6,2.3l2.5,1.8l3.3,1.5l3.8,0.9l4.1,0.3l4.1-0.3l3.8-0.9l3.3-1.5 M166.7,353l1.4-0.7 M172.7,352.3l-0.5-0.3
	l-0.6-0.1l-0.6-0.1l-0.6-0.1l-0.7,0.1l-0.6,0.1l-0.5,0.1l-0.5,0.3 M172.7,352.3l4.9,2.8 M177.6,355.1l5.2-3 M182.8,352.1l-2-1.1
	 M180.8,351l-3.1,1.8 M177.7,352.8l-9.4-5.5 M168.3,347.3l-0.2-0.1 M302.1,390.5l0.8,0.5 M305.7,384.3l0.8,0.3 M298.2,396.5l0.7,0.7
	 M307.8,381l0.9,0.2 M293.9,402.2l0.6,0.8 M310.1,401.1l0.7,0.6 M289.4,407.6l0.5,0.9 M305.9,406.9l0.6,0.8 M301.5,412.3l0.5,0.9
	 M284.7,412.5l0.4,1 M296.8,417.4l0.4,1 M279.9,417l0.2,1.1 M292,422l0.3,1.1 M274.9,421l0.1,1.2 M287,426.1l0.2,1.2 M269.8,424.4
	v1.3 M282,429.7v1.3 M319.1,336.3l1.1-0.7 M264.7,427.3l-0.1,1.3 M276.9,432.8l-0.1,1.3 M329.8,340.9l1.1-0.7 M318.7,330.6l1.1-0.8
	 M259.6,429.6l-0.1,1.3 M271.8,435.2l-0.1,1.4 M329.3,335.4l1.1-0.9 M317.8,325.4l1.1-1 M254.7,431.2l-0.3,1.4 M266.8,437l-0.3,1.4
	 M316.5,320.5l1-1.1 M249.8,432.2l-0.4,1.4 M261.9,438.2l-0.4,1.4 M314.6,316.1l1-1.2 M260.5,313.3l-0.2-1.2 M269.9,320.6l-0.2-1.2
	 M255.5,317.3l-0.3-1.1 M264.9,324.8l-0.3-1.1 M220.4,345.2l0.7-1.5l3.4-6.4l3.9-6.1l4.2-5.8l4.5-5.4 M264.9,324.8l-4.7-3.8
	l-4.7-3.7 M255.5,317.3l-0.4-0.2l-0.5-0.1l-0.6,0.1l-0.5,0.1l-0.4,0.3l-0.3,0.4l-0.1,0.2 M269.9,320.6l-4.7-3.7l-4.7-3.6
	 M260.5,313.3l-0.4-0.3l-0.5-0.1L259,313l-0.5,0.1l-0.5,0.3l-0.3,0.3 M320,314.4L320,314.4L320,314.4l-0.4-0.1l-0.1-0.1
	 M319.5,314.2l-1.1-0.6 M320.8,315.7l0.4,0.3l0.5,0.3l0.4,0.3l0.4,0.3l0.3,0.3l0.1,0.2v0.2h-0.2l-0.2-0.1l-0.1-0.1 M322.4,317.4
	l-5.1-2.6l-4.1-2.2 M315.6,313l0.2,0.1l5,2.6 M323.4,319.2l0.5,0.3l0.4,0.3l0.4,0.4l0.4,0.3l0.2,0.4l0.1,0.2v0.2h-0.2l-0.3-0.1h-0.1
	 M324.8,321.2l-5.1-2.6l-5.1-2.5 M314.6,316.1l-0.4-0.3l-0.4-0.3l-0.4-0.4l-0.4-0.4l-0.2-0.3l-0.1-0.3V314l0.2-0.1l0.3,0.1l0.1,0.1
	 M313.3,314.1l5.1,2.5l5,2.6 M325.6,323.3l0.4,0.2l0.5,0.4l0.4,0.4l0.3,0.4l0.2,0.3l0.1,0.3l-0.1,0.2l-0.2,0.1l-0.3-0.1l-0.1-0.1
	 M326.8,325.4l-5.2-2.4l-5.1-2.5 M316.5,320.5l-0.4-0.3l-0.5-0.3l-0.4-0.4l-0.3-0.4l-0.1-0.4l-0.1-0.3l0.1-0.2l0.2-0.1l0.3,0.1
	l0.1,0.1 M315.4,318.3l5.1,2.5l5.1,2.5 M327.4,327.8l0.4,0.2l0.4,0.4l0.4,0.4l0.2,0.5l0.2,0.4v0.3l-0.1,0.2l-0.2,0.1l-0.3-0.1h-0.1
	 M328.3,330.2l-5.2-2.4l-5.3-2.4 M317.8,325.4l-0.4-0.3l-0.4-0.4l-0.3-0.4l-0.3-0.4l-0.2-0.5v-0.3l0.1-0.2l0.2-0.1l0.3,0.1h0.2
	 M317,322.9l5.2,2.5l5.2,2.4 M328.6,332.8l0.4,0.2l0.4,0.4l0.3,0.5l0.3,0.4l0.1,0.4v0.4l-0.1,0.2l-0.3,0.1h-0.3h-0.1 M329.3,335.4
	L324,333l-5.3-2.4 M318.7,330.6l-0.4-0.2l-0.4-0.4l-0.3-0.4l-0.3-0.5l-0.1-0.5v-0.3l0.2-0.3l0.2-0.1l0.3,0.1h0.2 M318.1,328l5.2,2.4
	l5.3,2.4 M329.3,338.2l0.4,0.2l0.4,0.4l0.3,0.5l0.3,0.5l0.1,0.4l-0.1,0.4l-0.2,0.3l-0.2,0.1h-0.4l-0.1-0.1 M329.8,340.9l-5.4-2.3
	l-5.3-2.3 M317.7,333.8l0.2-0.2l0.3-0.2l0.3,0.1h0.2 M319.1,336.3l-0.3-0.2 M318.7,333.5l5.3,2.4l5.3,2.3 M329.5,343.9l0.5,0.3
	l0.3,0.4l0.3,0.4l0.2,0.5v0.3 M322.2,340.8l2,0.8l5.3,2.3 M320.5,382.3l0.4,0.2l0.3,0.4l0.1,0.6v0.5l-0.1,0.5l-0.3,0.5l-0.4,0.3
	l-0.4,0.1h-0.5h-0.1 M319.5,385.4l-5.9-2.2l-5.8-2.2 M307.8,381l-0.4-0.3l-0.3-0.4l-0.1-0.5v-0.5l0.2-0.6l0.3-0.4l0.4-0.3l0.4-0.2
	h0.5l0.1,0.1 M308.9,377.9l5.8,2.2l5.8,2.2 M317.4,388.7l0.4,0.3l0.3,0.4l0.1,0.5v0.5l-0.2,0.5l-0.3,0.5l-0.4,0.3l-0.5,0.1h-0.5
	h-0.1 M316.2,391.8l-5.9-2.3l-5.9-2.2 M304.4,387.3L304,387l-0.2-0.4l-0.2-0.5l0.1-0.5l0.2-0.5l0.3-0.4l0.4-0.3l0.5-0.2h0.5l0.1,0.1
	 M305.7,384.3l5.9,2.2l5.8,2.2 M313.9,395l0.4,0.3l0.3,0.4l0.1,0.5l-0.1,0.5l-0.2,0.5l-0.3,0.4l-0.5,0.3l-0.4,0.1h-0.5h-0.2
	 M312.5,398l-5.9-2.3l-5.9-2.3 M300.7,393.4l-0.4-0.2l-0.3-0.4l-0.1-0.5l0.1-0.5l0.2-0.5l0.4-0.4l0.4-0.3l0.5-0.1h0.5h0.1
	 M302.1,390.5l5.9,2.3l5.9,2.2 M310.1,401.1l0.4,0.2l0.2,0.4l0.1,0.5l-0.1,0.5l-0.2,0.5l-0.4,0.4l-0.4,0.3l-0.5,0.1h-0.5l-0.2-0.1
	 M308.5,403.9l-5.9-2.3l-6-2.3 M296.6,399.3l-0.4-0.2l-0.2-0.4l-0.1-0.5l0.1-0.5l0.2-0.5l0.4-0.3l0.4-0.3l0.5-0.2l0.5,0.1h0.2
	 M298.2,396.5l5.9,2.3l6,2.3 M305.9,406.9l0.4,0.2l0.3,0.4v0.5l-0.1,0.5l-0.2,0.4l-0.4,0.4l-0.5,0.2l-0.5,0.2l-0.5-0.1h-0.1
	 M304.3,409.6l-6-2.4l-6.1-2.3 M292.2,404.9l-0.3-0.3l-0.3-0.4l-0.1-0.4l0.2-0.5l0.2-0.4l0.4-0.4l0.5-0.2l0.5-0.2l0.5,0.1h0.1
	 M293.9,402.2l6,2.4l6,2.3 M301.5,412.3l0.4,0.3l0.2,0.4l0.1,0.4l-0.1,0.5l-0.3,0.4l-0.4,0.3l-0.5,0.3l-0.5,0.1l-0.5-0.1h-0.2
	 M299.7,414.9l-6-2.5l-6.1-2.4 M287.6,410l-0.3-0.2l-0.3-0.4V409l0.1-0.5l0.3-0.4l0.4-0.3l0.5-0.2l0.5-0.1h0.5l0.1,0.1 M289.4,407.6
	l6.1,2.4l6,2.3 M296.8,417.4l0.4,0.3l0.3,0.3v0.4l-0.1,0.5l-0.3,0.4l-0.4,0.3l-0.5,0.2h-0.6h-0.5l-0.1-0.1 M295,419.7l-6.1-2.4
	l-6-2.5 M282.9,414.8l-0.4-0.3l-0.3-0.3v-0.4l0.1-0.4l0.3-0.4l0.4-0.3l0.5-0.2l0.6-0.1l0.5,0.1h0.1 M284.7,412.5l6.1,2.5l6,2.4
	 M292,422l0.4,0.3l0.2,0.3l0.1,0.4l-0.2,0.4l-0.3,0.4l-0.4,0.2l-0.5,0.2l-0.6,0.1l-0.5-0.1l-0.1-0.1 M290.1,424.1l-6.1-2.5l-6.1-2.6
	 M277.9,419l-0.4-0.2l-0.2-0.3v-0.4l0.1-0.4l0.3-0.3l0.4-0.3l0.5-0.2h0.6h0.5l0.2,0.1 M279.9,417l6,2.5l6.1,2.5 M287,426.1l0.4,0.3
	l0.3,0.3v0.4l-0.2,0.4l-0.3,0.3l-0.4,0.2l-0.5,0.2h-0.6l-0.5-0.1l-0.1-0.1 M285.1,428l-6.1-2.6l-6.1-2.6 M272.9,422.8l-0.4-0.3
	l-0.2-0.3l-0.1-0.3l0.2-0.4l0.3-0.3l0.4-0.2l0.5-0.1l0.6-0.1l0.5,0.1l0.2,0.1 M274.9,421l6,2.6l6.1,2.5 M282,429.7l0.4,0.3l0.2,0.3
	v0.3l-0.1,0.4l-0.3,0.2l-0.5,0.2l-0.5,0.1h-0.5l-0.6-0.1H280 M280,431.4l-6.1-2.7l-6.1-2.7 M267.8,426l-0.4-0.3l-0.2-0.3l-0.1-0.3
	l0.2-0.3l0.3-0.3l0.4-0.2l0.6-0.1l0.5,0.1l0.5,0.1h0.2 M269.8,424.4l6.1,2.7l6.1,2.6 M276.9,432.8l0.4,0.2l0.2,0.3v0.3l-0.1,0.3
	l-0.3,0.2l-0.5,0.2l-0.5,0.1l-0.5-0.1l-0.5-0.1l-0.2-0.1 M274.9,434.1l-6.1-2.7l-6.1-2.8 M262.7,428.6l-0.4-0.3l-0.2-0.3v-0.3
	l0.1-0.2l0.3-0.2l0.5-0.2h0.5h0.5l0.5,0.1l0.2,0.1 M264.7,427.3l6.1,2.7l6.1,2.8 M271.8,435.2l0.4,0.2l0.2,0.3l0.1,0.3l-0.2,0.3
	l-0.3,0.1l-0.4,0.1l-0.5,0.1l-0.6-0.1l-0.5-0.2h-0.1 M269.9,436.3l-6.1-2.9l-6.1-2.9 M257.7,430.5l-0.4-0.2l-0.2-0.3l-0.1-0.2
	l0.2-0.2l0.3-0.2l0.4-0.1h0.5h0.6l0.5,0.2l0.1,0.1 M259.6,429.6l6.1,2.8l6.1,2.8 M266.8,437l0.4,0.3l0.2,0.2l0.1,0.3l-0.2,0.2
	l-0.3,0.1l-0.4,0.1l-0.5-0.1l-0.5-0.1l-0.6-0.1l-0.1-0.1 M264.9,437.8l-6.1-2.9l-6-3 M252.8,431.9l-0.4-0.2l-0.3-0.3v-0.2l0.1-0.2
	l0.3-0.1l0.5-0.1l0.5,0.1l0.5,0.1l0.5,0.1l0.2,0.1 M254.7,431.2l6,2.9l6.1,2.9 M261.9,438.2l0.4,0.2l0.3,0.3v0.2l-0.1,0.1l-0.3,0.1
	h-0.4h-0.5l-0.6-0.2l-0.5-0.1l-0.1-0.1 M260.1,438.7l-6.1-3.1l-6-3 M248,432.6l-0.4-0.2l-0.2-0.3l-0.1-0.2l0.1-0.1l0.3-0.1h0.4
	l0.5,0.1l0.6,0.1l0.5,0.2l0.1,0.1 M249.8,432.2l6.1,3l6,3 M257.2,438.7l0.4,0.2l0.2,0.3l0.1,0.1l-0.1,0.2h-0.3h-0.4l-0.5-0.1
	l-0.5-0.2l-0.5-0.2l-0.1-0.1 M255.5,438.9l-6.1-3.1l-6-3.2 M242.7,432l0.1-0.1h0.3l0.4,0.1l0.5,0.1l0.5,0.1l0.5,0.2l0.2,0.1
	 M245.2,432.5l6,3.1l6,3.1 M252.7,438.6l0.4,0.2l0.3,0.2v0.2h-0.1h-0.2l-0.4-0.1l-0.5-0.1l-0.5-0.2l-0.5-0.2l-0.1-0.1 M251.1,438.5
	l-5.6-3 M244.4,434.2l2.3,1.2l6,3.2 M248.5,437.8l0.4,0.2l0.2,0.2l0.1,0.1 M246.8,436.9l1.7,0.9 M301.3,370.3l-0.9,1.9l-3.8,7.7
	l-4.4,7.4l-4.9,7l-5.2,6.6l-5.6,6l-5.8,5.4l-6,4.6l-6.1,3.9l-6.1,3l-5.9,2.1l-2.5,0.7 M239.9,385.6l-11.7-6.8 M242,386.7l1.3-6.4
	l1.9-6.5l2.4-6.5l2.9-6.5l3.3-6.3l3.8-6l4.2-5.8l4.4-5.3 M239.6,386.8l0.3-1.2 M329.9,386.8l-0.8,1.9l-3.9,7.7l-4.4,7.4l-4.8,7
	l-5.3,6.6l-5.5,6l-5.9,5.4l-6,4.7l-6.1,3.8l-6,3l-6,2.2l-5.8,1.2l-5.5,0.3l-5.2-0.7l-4.8-1.6l-4.3-2.5l-3.8-3.3l-3.1-4.2v-0.1
	 M311.6,312.5l1.4,0.1l5.1,0.9l4.7,1.9l4.1,2.7l3.6,3.6l3,4.4l2.3,5.2l1.7,5.8l0.9,6.4l0.2,6.8 M266.2,337.4l5.7-5.9l5.8-5.1
	l0.5-0.4 M238.9,385.8l1-0.2 M241.2,385.8l1.2-5.8l1.9-6.6l2.5-6.6l2.9-6.6l3.5-6.3l3.8-6.2l4.2-5.8l4.5-5.4 M264.6,323.7l-4.7-3.7
	l-4.7-3.8 M262.1,325.6l0.4,0.2l0.5,0.1l0.5-0.1l0.6-0.2l0.4-0.3l0.3-0.4l0.2-0.4l-0.1-0.4l-0.2-0.3l-0.1-0.1 M252.7,318.1l4.7,3.7
	l4.7,3.8 M255.2,316.2l-0.4-0.2l-0.5-0.1l-0.6,0.1l-0.5,0.2l-0.4,0.3l-0.3,0.3l-0.2,0.5v0.4l0.3,0.3l0.1,0.1 M269.7,319.4l-4.7-3.7
	l-4.7-3.6 M267.1,321.1l0.4,0.2l0.5,0.1h0.6l0.5-0.2l0.5-0.3l0.3-0.3l0.1-0.4v-0.4l-0.2-0.3l-0.1-0.1 M257.7,313.7l4.7,3.7l4.7,3.7
	 M260.3,312.1l-0.4-0.2l-0.5-0.1h-0.6l-0.5,0.1l-0.5,0.3l-0.3,0.3l-0.1,0.4v0.4l0.2,0.3l0.1,0.1 M272.2,317.1l0.3,0.1 M271.7,316.7
	l0.5,0.4 M313.3,308.2l-1.7-1 M311.6,307.6l0.5,0.2l0.5,0.3l0.5,0.2l0.3,0.2h0.3l-0.3-0.2l-0.1-0.1 M315.1,309.1l0.4,0.2l0.5,0.3
	l0.5,0.3 M311.8,307.2l3.3,1.9 M325.8,323.4l-3.1-1.5l-5.2-2.5 M317.5,319.4l-0.4-0.2l-0.3-0.2 M328.6,328.9l-4.5-2.1l-5.2-2.4
	 M318.9,324.4l-0.4-0.2l-0.4-0.4l-0.3-0.4l-0.1-0.1 M330.4,334.5l-5.3-2.3l-5.3-2.4 M319.8,329.8l-0.4-0.2l-0.4-0.4l-0.3-0.4
	l-0.3-0.5l-0.1-0.5 M330.9,340.2l-5.3-2.3l-5.4-2.3 M320.2,335.6l-0.4-0.2l-0.4-0.4l-0.3-0.5l-0.2-0.5l-0.1-0.5 M319.7,385.4
	l-5.2-1.9l-5.8-2.3 M308.7,381.2l-0.4-0.2l-0.3-0.4l-0.1-0.5v-0.6l0.2-0.5l0.3-0.4l0.4-0.4l0.4-0.2h0.1 M306.5,384.6l5.9,2.3l5.4,2
	 M304.8,387.4l-0.2-0.3l-0.1-0.5v-0.5l0.2-0.6l0.3-0.4l0.5-0.3l0.4-0.2h0.5h0.1 M302.9,391l5.9,2.3l5.5,2.1 M300.8,393.4
	L300.8,393.4l-0.1-0.5v-0.5l0.3-0.5l0.3-0.5l0.5-0.3l0.4-0.1h0.5h0.2 M298.9,397.2l5.9,2.2l6,2.3 M296.6,399.3l-0.1-0.4l0.1-0.5
	l0.3-0.5l0.3-0.4l0.5-0.3l0.5-0.1h0.5l0.2,0.1 M294.5,403l6,2.3l6,2.4 M292.1,404.8v-0.2l0.1-0.5l0.3-0.4l0.4-0.4l0.5-0.3l0.5-0.1
	h0.5l0.1,0.1 M302,413.2l0.2,0.2 M289.9,408.5l6.1,2.3l6,2.4 M287.4,409.9l0.1-0.4l0.3-0.4l0.4-0.4l0.5-0.2l0.6-0.1h0.5l0.1,0.1
	 M297.2,418.4l0.3,0.2 M285.1,413.5l6.1,2.5l6,2.4 M282.6,414.6l0.1-0.2l0.3-0.4l0.4-0.3l0.5-0.2l0.6-0.1l0.5,0.1h0.1 M292.3,423.1
	l0.3,0.2 M280.1,418.1l6.1,2.5l6.1,2.5 M277.6,418.9L277.6,418.9l0.3-0.4l0.5-0.3l0.5-0.2h0.6h0.5l0.1,0.1 M287.2,427.3l0.3,0.2
	 M275,422.2l6.1,2.6l6.1,2.5 M272.7,422.6l0.1-0.2l0.5-0.2l0.5-0.2h0.6l0.5,0.1l0.1,0.1 M282,431l0.3,0.2 M269.8,425.7l6.1,2.6
	l6.1,2.7 M267.6,425.8L267.6,425.8l0.5-0.2l0.5-0.1h0.6l0.5,0.1l0.1,0.1 M264.6,428.6l6.1,2.8l6.1,2.7 M262.6,428.5h0.3l0.5-0.1h0.6
	l0.5,0.2h0.1 M259.5,430.9l6.1,2.9l6.1,2.8 M257.7,430.7L257.7,430.7l0.5-0.1l0.6,0.1l0.5,0.2h0.2 M254.4,432.6l6.1,2.9l5.3,2.6
	 M253.8,432.4l0.4,0.1l0.2,0.1 M239.9,435.6l-2.4-1.4 M238.9,434.6l-0.8-0.4 M240.9,436L240.9,436l-0.2-0.2l-0.4-0.2l-0.4-0.3
	l-0.4-0.3l-0.5-0.3l-0.1-0.1 M240.1,435.6l0.4,0.2l0.2,0.2h0.2 M237.7,434.2l2.4,1.4 M237.1,320l5.6-5.9l5.9-5.2l4.3-3.2
	 M265.7,336.5L237.1,320 M238.5,387.1l0.4-1.3 M330.7,387.3L328,393l-4.1,7.5l-4.6,7.3l-5,6.8l-5.5,6.4l-5.6,5.7l-6,5.1l-6,4.4
	l-6.1,3.6l-6,2.7l-6,1.8l-5.7,1H262l-5.1-0.9l-4.7-1.7L248,440l-3.7-3.5l-2.9-4.1 M311.6,311.1h1.1l5.1,0.8l4.8,1.6l4.2,2.6l3.8,3.3
	l3.1,4.2l2.6,5l1.8,5.6l1.2,6.2l0.4,6.8v3.7 M265.7,336.5l5.7-5.9l5.9-5.2l0.7-0.6 M238.9,385.8l-10.7-6.2 M250,366.4l0.6,0.6
	 M245.8,372.2l0.6,0.7 M194.5,396.5l-0.2,1.4 M189.7,397.5l-0.4,1.4 M200.4,278.6l-0.2-1.2 M209.7,285.9l-0.1-1.2 M195.4,282.6
	l-0.3-1.1 M204.8,290l-0.3-1 M160.3,310.5l0.7-1.5l3.4-6.4l3.8-6.1l4.2-5.8l4.6-5.5 M204.8,290l-4.7-3.7l-4.7-3.7 M195.4,282.6
	l-0.4-0.2l-0.6-0.1h-0.5l-0.5,0.2l-0.5,0.3l-0.3,0.4v0.2 M209.7,285.9l-4.6-3.7l-4.7-3.6 M200.4,278.6l-0.5-0.3l-0.5-0.1l-0.5,0.1
	l-0.6,0.1l-0.4,0.3l-0.3,0.3 M260.4,347.6l0.4,0.2l0.3,0.4l0.1,0.5v0.6l-0.1,0.5l-0.3,0.4l-0.4,0.4l-0.5,0.1h-0.4h-0.2 M259.3,350.7
	l-2.5-1 M258.7,346.9l1.7,0.7 M257.3,354l0.4,0.3l0.3,0.4l0.1,0.5l-0.1,0.5l-0.1,0.5l-0.4,0.5l-0.4,0.3l-0.4,0.1h-0.5h-0.1
	 M256.1,357.1l-3-1.2 M254.7,353l2.6,1 M253.8,360.3l0.4,0.3l0.3,0.4l0.1,0.5l-0.1,0.5l-0.2,0.5l-0.4,0.4l-0.4,0.3l-0.5,0.1h-0.5
	h-0.1 M252.4,363.3l-2.6-1 M251.2,359.3l2.6,1 M250,366.4l0.3,0.2l0.3,0.4l0.1,0.5l-0.1,0.5l-0.2,0.5l-0.4,0.4l-0.4,0.3l-0.5,0.1
	h-0.5l-0.2-0.1 M248.4,369.2l-1.4-0.5 M248.2,365.7l1.8,0.7 M245.8,372.2l0.4,0.2l0.2,0.4l0.1,0.5l-0.1,0.5l-0.2,0.4l-0.4,0.4
	l-0.5,0.2l-0.3,0.1 M198.2,396.1l-0.6-0.3 M197.6,395.8l-0.4-0.2l-0.3-0.3v-0.2l0.1-0.3l0.3-0.1l0.5-0.1h0.4 M198.2,399.9l-5.6-2.7
	 M192.6,397.2l-0.4-0.3l-0.2-0.2v-0.2l0.1-0.2l0.3-0.1l0.4-0.1h0.5l0.6,0.1l0.5,0.2l0.1,0.1 M194.5,396.5l3.7,1.7 M198.2,403.1
	l-4.3-2.2l-6-3 M187.9,397.9l-0.4-0.3l-0.3-0.2v-0.2l0.1-0.1l0.3-0.1h0.4l0.5,0.1l0.5,0.1l0.5,0.2l0.2,0.1 M189.7,397.5l6,3l2.5,1.2
	 M197.1,404l0.4,0.2l0.2,0.3l0.1,0.1l-0.1,0.2h-0.3H197l-0.5-0.1l-0.5-0.2l-0.5-0.2l-0.2-0.1 M195.3,404.2l-6-3.1l-6-3.2
	 M182.6,397.3l0.1-0.1h0.3h0.4l0.5,0.2l0.5,0.1l0.5,0.2l0.1,0.1 M185,397.8l6.1,3.1l6,3.1 M192.6,403.9l0.4,0.2l0.2,0.2l0.1,0.1
	l-0.1,0.1h-0.3l-0.3-0.1l-0.5-0.1l-0.5-0.2l-0.5-0.3h-0.2 M190.9,403.8l-5.5-3 M184.3,399.5l2.3,1.2l6,3.2 M188.3,403.1l0.4,0.2
	l0.3,0.2l0.1,0.1 M186.7,402.2l1.6,0.9 M198.2,386.3l-5.8,2.8l-6,2.1l-2.4,0.6 M179.8,350.9l-11.7-6.8 M181.9,352l1.3-6.4l1.9-6.5
	l2.4-6.5l2.9-6.5l3.3-6.3l3.8-6l4.1-5.8l4.5-5.3 M179.5,352.1l0.3-1.2 M198.2,408.5l-4.4-1.5l-4.3-2.5l-3.8-3.3l-3.1-4.2l-0.1-0.1
	 M269.8,352.1l-0.9,1.9l-3.8,7.7l-4.4,7.4l-4.8,7l-5.3,6.6l-5.6,6l-0.9,0.9 M206.1,302.7l5.6-5.9l5.9-5.2l0.5-0.4 M178.7,351
	l1.1-0.1 M181,351.1l1.3-5.8l1.9-6.6l2.5-6.6l2.9-6.6l3.4-6.3l3.9-6.2l4.2-5.8l4.5-5.4 M204.5,289l-4.7-3.8l-4.7-3.7 M201.9,290.9
	l0.5,0.2l0.5,0.1l0.5-0.1l0.5-0.2l0.5-0.3l0.3-0.4l0.1-0.4v-0.4l-0.2-0.3l-0.1-0.1 M192.5,283.4l4.7,3.7l4.7,3.8 M195.1,281.5
	l-0.4-0.2l-0.5-0.1l-0.6,0.1l-0.5,0.2l-0.5,0.2l-0.3,0.4l-0.1,0.4v0.4l0.2,0.4l0.1,0.1 M209.6,284.7l-4.7-3.7l-4.7-3.6 M207,286.4
	l0.4,0.2l0.5,0.1h0.5l0.6-0.2l0.4-0.3l0.3-0.3l0.2-0.4v-0.4l-0.2-0.3l-0.1-0.1 M197.6,279l4.7,3.7l4.7,3.7 M200.2,277.4l-0.4-0.2
	l-0.5-0.1h-0.6l-0.5,0.1l-0.5,0.3l-0.3,0.3l-0.2,0.4l0.1,0.4l0.2,0.3l0.1,0.1 M212.1,282.4l0.4,0.2l0.5,0.1h0.4 M208.3,279.5
	l3.8,2.9 M259.6,350.7l-2.8-1 M254.7,353.1l3,1.1 M251.1,359.5l3,1.2 M248.1,366.1l2.5,0.9 M245.6,372.6l0.8,0.3 M194.3,397.9
	l3.9,1.9 M193.6,397.7l0.5,0.1l0.2,0.1 M179.8,400.9l-2.5-1.4 M178.7,399.9l-0.7-0.4 M180.7,401.3L180.7,401.3l-0.2-0.2l-0.3-0.2
	l-0.4-0.3l-0.5-0.3l-0.4-0.3l-0.2-0.1 M179.9,400.9l0.4,0.2l0.3,0.2h0.1 M177.6,399.5l2.3,1.4 M177,285.2l5.6-5.8l5.9-5.2l4.7-3.6
	 M205.6,301.8L177,285.2 M178.4,352.4l0.3-1.4 M198.2,410.1l-1.5-0.4l-4.7-1.8l-4.2-2.6l-3.6-3.6l-2.9-4 M270.6,352.6l-2.7,5.7
	l-4.1,7.5l-4.6,7.3l-5.1,6.8l-5.4,6.4l-4.6,4.7 M205.6,301.8l5.7-5.9l5.8-5.2l0.9-0.7 M178.7,351l-10.6-6.1 M474.1,337.1v6.9
	 M659.5,408v-6.9 M329.6,284.6v0.5l0.3,0.4l0.3,0.4l0.3,0.2 M543.7,286.1l0.4-0.2l0.3-0.4l0.2-0.4l0.1-0.5 M329.2,280.8l0.4,4
	 M544.7,284.8l0.3-4.1 M418.2,335.2l2.6-1.5 M330.5,286.1l85.1,49.1 M458.7,335.2l85-49.1 M453.3,333.6l2.8,1.6 M456,335.2l0.6,0.2
	l0.8,0.1l0.7-0.1l0.6-0.2 M415.6,335.2l0.5,0.2l0.4,0.1h0.4h0.3l0.4-0.1l0.6-0.2 M169.7,151.4v114.8 M382.1,318.5l2.2-1.3
	 M462.9,71.5l-4.6-2.3l-5.4-1.8l-5.9-1.2l-6.4-0.5l-6.6,0.2l-6.7,1l-6.4,1.8l-5.9,2.8 M539.8,115.8l-76.9-44.3 M415,71.4l-78,45.1
	 M337,116.5l-7.4,5.5l-6.6,7.2 M323,129.2l-3.7,7.1l-1.5,7.2 M317.8,143.5l-12.2,118.8 M551.8,132.5l-1.1-4.7l-2.5-4.5l-3.7-4.1
	l-4.7-3.4 M561.8,261.4l-10-128.9 M683.1,495.6l4.1-2.3 M660,386.4l-91.6-53.6 M473.9,132.7v-0.2 M456.9,132.5v0.2 M449.8,132.5v0.2
	 M481,132.7v-0.2 M600.3,544.1l4-2.3 M552.6,352.2l2.6-2 M537.5,350.2l2.7,2 M504.5,343.9l2.7-2 M489.5,341.9l2.7,2 M626.1,414.9
	l2.7-2 M611,412.9l2.7,2 M612.3,387.1l2.7-2 M597.3,385.1l2.7,2 M415.4,335.1l-26.6,15.6 M495.6,377.6l90.2,52.1 M477.9,367.4
	l4.5,2.6 M598,436l0.8,0.3l4.1,0.8l4.4,0.3l4.3-0.2l3.5-0.7 M372,435.3l9,5.2 M376.8,428.3l0.1,0.2l0.1,0.3 M377,428.8v0.2l0.5,2
	l0.1,0.9 M377,423.6l-0.1,0.1v0.1 M377.5,420.6l-0.1,0.8l-0.3,1.8l-0.1,0.3 M392.8,387.3l-0.2,0.1l-0.3,0.3 M401.3,379.8l-0.9,0.7
	l-4,3.5l-0.8,0.8 M389.1,391.9l-0.1,0.2 M395.5,384.8l-0.6,0.7l-1.6,1.4l-0.6,0.4 M389,392.1l-0.1,0.1l-0.8,1.6l-0.9,1.5
	 M450.5,480.6l14.9,8.7 M386,445.4l18.4,10.6 M494.8,416.3l-14.9-8.7 M417.9,374.6L417.9,374.6 M467.6,401.3l-11.9-6.8 M407.3,454.9
	l22,12.7 M408.5,374.7l0.2,20.5 M455.7,397.1v-7.8 M473.5,408.7l-6.6-3.8 M432,465.3l9.2,5.3 M436.8,456.2v4.4 M461.9,413.3
	l-0.4,0.2 M169.7,252.8L-69.5,114.7 M378.3,373.2l-66.7-38.5 M528.5,459.9l-48-27.7 M846.9,643.7L607.2,505.4 M601.3,543.5
	l227.6,131.4 M462.5,463.4l68.4,39.4 M259.3,346.1l101.1,58.3 M199.1,311.3l30.7,17.8 M-87.5,145.9l257.2,148.5 M228.2,381.3v-2.4
	 M203,378.9v2.4 M214.8,385h-0.7l-3.1-0.5l-2.6-0.9l-2.1-1.3l-1.3-1.5l-0.5-1.6l0.3-1.6l1-1.5l0.1-0.1 M225.4,378.4v-2.8
	 M205.9,375.6v2.8 M227.9,372.7l2.1-4.6 M226.6,347.8l-1.4-0.8 M168.1,346.6v-2.4 M142.9,344.2v2.4 M154.6,350.3H154l-3.1-0.5
	l-2.6-0.9l-2.1-1.3l-1.3-1.5l-0.5-1.6l0.2-1.7l1.1-1.4l0.1-0.1 M165.2,343.6v-2.7 M145.8,340.9v2.7 M167.8,338l2.1-4.6 M166.5,313.1
	l-1.4-0.9 M229,431.2l0.4-0.2l0.5-0.1l0.6-0.1l0.7,0.1l0.5,0.1l0.3,0.2 M227.7,431.9l1.3-0.7 M201.9,367.3l-1.9,1.1 M199.2,369.8
	v9.3 M232,431.2l4.9,2.8 M238.6,434l5.2-3 M200,368.4l-0.2,0.2l-0.1,0.1l-0.2,0.2l-0.1,0.1l-0.1,0.2v0.2l-0.1,0.2v0.2 M236.9,434
	l0.2,0.1l0.2,0.1h0.2h0.2h0.3h0.2l0.2-0.1l0.2-0.1 M198.2,424.1v0.2l0.5,2.5l1.3,2.2l2.1,2l2.9,1.6l3.4,1.3l3.7,0.7l4,0.2l3.9-0.3
	l3.7-0.9l3.1-1.2l0.9-0.5 M204.4,374.3l-0.8,0.4 M198.2,382.6v41.5 M203.6,374.7l-1.4,1l-2.3,2.1l-1.3,2.5l-0.4,2.1 M168.9,396.4
	l0.4-0.1l0.5-0.1l0.6-0.1l0.7,0.1l0.5,0.1l0.3,0.1 M167.5,397.2l1.4-0.8 M141.8,332.6l-1.9,1.1 M139.1,335.1v9.3 M171.9,396.4
	l4.9,2.9 M178.4,399.3l5.2-3 M139.9,333.7l-0.2,0.2l-0.1,0.1l-0.2,0.2l-0.1,0.1l-0.1,0.2l-0.1,0.2v0.2v0.2 M176.8,399.3l0.2,0.1
	l0.2,0.1h0.2h0.2h0.2h0.2l0.2-0.1l0.2-0.1 M138.1,389.4l-0.1,0.2l0.6,2.4l1.3,2.3l2.1,2l2.8,1.6l3.4,1.3l3.8,0.7l3.9,0.2l4-0.3
	l3.7-0.9l3.1-1.2l0.8-0.5 M144.3,339.6l-0.8,0.4 M138,347.9v41.4 M143.5,340l-1.5,1l-2.2,2.1l-1.4,2.5l-0.3,2.1 M324.5,314.5l-8-4.6
	 M311.8,307.2l-0.2-0.1 M239.9,435.6l11,6.4 M179.8,400.9l11,6.4"/>
<g>
	<path d="M656.5,267.7c-0.5,0.2-1.5,0.5-2.8,0.5c-3,0-5.2-1.9-5.2-5.3c0-3.3,2.2-5.5,5.5-5.5c1.3,0,2.1,0.3,2.5,0.5l-0.3,1.1
		c-0.5-0.2-1.2-0.4-2.1-0.4c-2.5,0-4.1,1.6-4.1,4.3c0,2.6,1.5,4.2,4,4.2c0.8,0,1.7-0.2,2.2-0.4L656.5,267.7z"/>
	<path d="M664.8,264.2c0,2.8-1.9,4-3.7,4c-2,0-3.6-1.5-3.6-3.9c0-2.5,1.6-4,3.7-4C663.3,260.3,664.8,261.9,664.8,264.2z
		 M658.8,264.3c0,1.6,0.9,2.9,2.3,2.9c1.3,0,2.3-1.2,2.3-2.9c0-1.3-0.6-2.9-2.3-2.9S658.8,262.9,658.8,264.3z"/>
	<path d="M666.5,262.6c0-0.8,0-1.4-0.1-2h1.2l0.1,1.2h0c0.4-0.7,1.2-1.4,2.5-1.4c1,0,2.7,0.6,2.7,3.2v4.5h-1.4v-4.3
		c0-1.2-0.5-2.2-1.7-2.2c-0.9,0-1.6,0.6-1.8,1.4c-0.1,0.2-0.1,0.4-0.1,0.6v4.5h-1.4V262.6z"/>
	<path d="M676.7,258.4v2.2h2v1h-2v4.1c0,0.9,0.3,1.5,1,1.5c0.4,0,0.6,0,0.8-0.1l0.1,1c-0.3,0.1-0.7,0.2-1.2,0.2
		c-0.6,0-1.1-0.2-1.5-0.6c-0.4-0.4-0.5-1.1-0.5-2v-4.1h-1.2v-1h1.2v-1.8L676.7,258.4z"/>
	<path d="M680.2,262.9c0-0.9,0-1.6-0.1-2.3h1.2l0,1.5h0.1c0.3-1,1.2-1.6,2.1-1.6c0.2,0,0.3,0,0.4,0v1.3c-0.1,0-0.3,0-0.5,0
		c-1,0-1.6,0.7-1.8,1.8c0,0.2-0.1,0.4-0.1,0.6v4h-1.4V262.9z"/>
	<path d="M691.9,264.2c0,2.8-1.9,4-3.7,4c-2,0-3.6-1.5-3.6-3.9c0-2.5,1.6-4,3.7-4C690.5,260.3,691.9,261.9,691.9,264.2z M686,264.3
		c0,1.6,0.9,2.9,2.3,2.9c1.3,0,2.3-1.2,2.3-2.9c0-1.3-0.6-2.9-2.3-2.9S686,262.9,686,264.3z"/>
	<path d="M693.7,257h1.4v11h-1.4V257z"/>
	<path d="M702.4,264.7l-1.1,3.3h-1.4l3.6-10.5h1.6l3.6,10.5h-1.4l-1.1-3.3H702.4z M705.8,263.7l-1-3c-0.2-0.7-0.4-1.3-0.5-1.9h0
		c-0.2,0.6-0.3,1.3-0.5,1.9l-1,3H705.8z"/>
	<path d="M710.1,262.9c0-0.9,0-1.6-0.1-2.3h1.2l0,1.5h0.1c0.3-1,1.2-1.6,2.1-1.6c0.2,0,0.3,0,0.4,0v1.3c-0.1,0-0.3,0-0.5,0
		c-1,0-1.6,0.7-1.8,1.8c0,0.2-0.1,0.4-0.1,0.6v4h-1.4V262.9z"/>
	<path d="M715.2,262.6c0-0.8,0-1.4-0.1-2h1.2l0.1,1.2h0c0.4-0.7,1.1-1.4,2.4-1.4c1,0,1.8,0.6,2.1,1.5h0c0.2-0.4,0.5-0.7,0.8-1
		c0.5-0.3,0.9-0.5,1.7-0.5c1,0,2.5,0.7,2.5,3.3v4.4h-1.3v-4.3c0-1.4-0.5-2.3-1.6-2.3c-0.8,0-1.4,0.6-1.6,1.2
		c-0.1,0.2-0.1,0.4-0.1,0.7v4.6h-1.3v-4.5c0-1.2-0.5-2.1-1.6-2.1c-0.9,0-1.5,0.7-1.7,1.4c-0.1,0.2-0.1,0.4-0.1,0.7v4.5h-1.3V262.6z"
		/>
</g>
<g>
	<path d="M373.5,534l-3.4-10.5h1.5l1.6,5.2c0.5,1.4,0.8,2.7,1.1,3.9h0c0.3-1.2,0.7-2.5,1.2-3.9l1.8-5.2h1.4L375,534H373.5z"/>
	<path d="M383.5,534l-0.1-0.9h0c-0.4,0.6-1.2,1.1-2.3,1.1c-1.5,0-2.3-1.1-2.3-2.2c0-1.8,1.6-2.8,4.5-2.8v-0.2c0-0.6-0.2-1.7-1.7-1.7
		c-0.7,0-1.4,0.2-2,0.6l-0.3-0.9c0.6-0.4,1.5-0.7,2.5-0.7c2.3,0,2.9,1.6,2.9,3.1v2.8c0,0.7,0,1.3,0.1,1.8H383.5z M383.3,530.2
		c-1.5,0-3.2,0.2-3.2,1.7c0,0.9,0.6,1.3,1.3,1.3c1,0,1.6-0.6,1.8-1.3c0-0.1,0.1-0.3,0.1-0.4V530.2z"/>
	<path d="M386.8,523h1.4v11h-1.4V523z"/>
	<path d="M391,526.5l1.5,4.2c0.2,0.7,0.5,1.3,0.6,1.9h0c0.2-0.6,0.4-1.2,0.6-1.9l1.5-4.2h1.4l-3,7.5h-1.3l-2.9-7.5H391z"/>
	<path d="M398.5,530.5c0,1.8,1.2,2.6,2.6,2.6c1,0,1.6-0.2,2.1-0.4l0.2,1c-0.5,0.2-1.3,0.5-2.5,0.5c-2.3,0-3.7-1.5-3.7-3.8
		c0-2.3,1.3-4.1,3.5-4.1c2.5,0,3.1,2.2,3.1,3.5c0,0.3,0,0.5,0,0.6H398.5z M402.5,529.5c0-0.9-0.4-2.2-1.9-2.2c-1.4,0-2,1.3-2.1,2.2
		H402.5z"/>
	<path d="M410.2,523.6v4.4h5.1v-4.4h1.4V534h-1.4v-4.9h-5.1v4.9h-1.4v-10.5H410.2z"/>
	<path d="M423.1,534l-0.1-0.9h0c-0.4,0.6-1.2,1.1-2.3,1.1c-1.5,0-2.3-1.1-2.3-2.2c0-1.8,1.6-2.8,4.5-2.8v-0.2c0-0.6-0.2-1.7-1.7-1.7
		c-0.7,0-1.4,0.2-2,0.6l-0.3-0.9c0.6-0.4,1.5-0.7,2.5-0.7c2.3,0,2.9,1.6,2.9,3.1v2.8c0,0.7,0,1.3,0.1,1.8H423.1z M422.9,530.2
		c-1.5,0-3.2,0.2-3.2,1.7c0,0.9,0.6,1.3,1.3,1.3c1,0,1.6-0.6,1.8-1.3c0-0.1,0.1-0.3,0.1-0.4V530.2z"/>
	<path d="M426.5,528.6c0-0.8,0-1.4-0.1-2h1.2l0.1,1.2h0c0.4-0.7,1.2-1.4,2.5-1.4c1,0,2.7,0.6,2.7,3.2v4.5h-1.4v-4.3
		c0-1.2-0.5-2.2-1.7-2.2c-0.9,0-1.6,0.6-1.8,1.4c-0.1,0.2-0.1,0.4-0.1,0.6v4.5h-1.4V528.6z"/>
	<path d="M441.6,523v9.1c0,0.7,0,1.4,0.1,1.9h-1.2l-0.1-1.3h0c-0.4,0.8-1.3,1.5-2.6,1.5c-1.8,0-3.2-1.5-3.2-3.8c0-2.5,1.5-4,3.4-4
		c1.1,0,1.9,0.5,2.3,1.1h0V523H441.6z M440.2,529.6c0-0.2,0-0.4-0.1-0.6c-0.2-0.9-0.9-1.6-2-1.6c-1.4,0-2.3,1.2-2.3,2.9
		c0,1.5,0.7,2.8,2.2,2.8c0.9,0,1.8-0.6,2-1.6c0-0.2,0.1-0.4,0.1-0.6V529.6z"/>
	<path d="M443.8,523h1.4v11h-1.4V523z"/>
	<path d="M448.3,530.5c0,1.8,1.2,2.6,2.6,2.6c1,0,1.6-0.2,2.1-0.4l0.2,1c-0.5,0.2-1.3,0.5-2.5,0.5c-2.3,0-3.7-1.5-3.7-3.8
		c0-2.3,1.3-4.1,3.5-4.1c2.5,0,3.1,2.2,3.1,3.5c0,0.3,0,0.5,0,0.6H448.3z M452.3,529.5c0-0.9-0.4-2.2-1.9-2.2c-1.4,0-2,1.3-2.1,2.2
		H452.3z"/>
</g>
<line class="st2" x1="539.1" y1="392.6" x2="426" y2="512.7"/>
<line class="st2" x1="585.3" y1="374" x2="679.3" y2="282.7"/>
</svg>
